<?xml version="1.0" encoding="UTF-8" standalone="no"?>
<svg
   style="clip-rule:evenodd;fill-rule:evenodd;stroke-linejoin:round;stroke-miterlimit:2"
   viewBox="0 0 64 64"
   version="1.1"
   id="svg31"
   sodipodi:docname="application-7zip.svg"
   inkscape:version="1.1.2 (0a00cf5339, 2022-02-04)"
   xmlns:inkscape="http://www.inkscape.org/namespaces/inkscape"
   xmlns:sodipodi="http://sodipodi.sourceforge.net/DTD/sodipodi-0.dtd"
   xmlns:xlink="http://www.w3.org/1999/xlink"
   xmlns="http://www.w3.org/2000/svg"
   xmlns:svg="http://www.w3.org/2000/svg">
  <sodipodi:namedview
     id="namedview33"
     pagecolor="#ffffff"
     bordercolor="#666666"
     borderopacity="1.0"
     inkscape:pageshadow="2"
     inkscape:pageopacity="0.0"
     inkscape:pagecheckerboard="0"
     showgrid="false"
     inkscape:zoom="10.671875"
     inkscape:cx="39.355783"
     inkscape:cy="36.872621"
     inkscape:window-width="942"
     inkscape:window-height="1022"
     inkscape:window-x="966"
     inkscape:window-y="46"
     inkscape:window-maximized="1"
     inkscape:current-layer="svg31" />
  <path
     id="path2"
     style="fill:url(#linearGradient3348)"
     d="M 17.617188 1.46875 C 15.597188 1.46875 13.659469 2.2712188 12.230469 3.6992188 C 10.802469 5.1282186 10 7.0678906 10 9.0878906 L 10 14.544922 L 10 54.382812 C 10 56.402814 10.802469 58.340531 12.230469 59.769531 C 13.659469 61.197531 15.597187 62 17.617188 62 L 46.382812 62 C 48.402814 62 50.340531 61.197531 51.769531 59.769531 C 53.197531 58.340531 54 56.402814 54 54.382812 L 54 14.544922 L 54 9.0878906 C 54 7.0678906 53.197531 5.1282186 51.769531 3.6992188 C 50.340531 2.2712188 48.402813 1.46875 46.382812 1.46875 L 35.375 1.46875 L 28.625 1.46875 L 17.617188 1.46875 z " />
  <path
     id="path1016"
     style="clip-rule:evenodd;fill:#044937;fill-opacity:1;fill-rule:evenodd;stroke-width:1;stroke-linejoin:round;stroke-miterlimit:2"
     d="m 10.000001,50.982422 v 3.40039 c 0,2.020002 0.802469,3.957719 2.230469,5.386719 C 13.659469,61.197531 15.597186,62 17.617188,62 h 28.765624 c 2.020002,0 3.957719,-0.802469 5.386719,-2.230469 C 53.197531,58.340531 54,56.402814 54,54.382812 v -3.40039 z" />
  <path
     d="m42 18.285c0-1.262-1.023-2.285-2.285-2.285h-15.23c-1.262 0-2.285 1.023-2.285 2.285v17.43c0 1.262 1.023 2.285 2.285 2.285h15.23c1.262 0 2.285-1.023 2.285-2.285v-17.43z"
     style="fill:#044937"
     id="path4" />
  <path
     d="m29.088 59.571l-0.672-0.344 2.598-4.672h-2.836l0.017-0.721h3.614v0.771l-2.721 4.966z"
     style="fill-rule:nonzero;fill:#fff"
     id="path6" />
  <path
     d="m32.403 59.44v-0.656l2.286-2.671h-2.221v-0.689h3.147v0.656l-2.286 2.671h2.319v0.689h-3.245z"
     style="fill-rule:nonzero;fill:#fff"
     id="path8" />
  <rect
     x="31.039"
     y="16.611"
     width="2.2"
     height="1.1"
     style="fill-opacity:.93;fill:#fff"
     id="rect10" />
  <rect
     x="31.035"
     y="18.202"
     width="2.2"
     height="1.1"
     style="fill-opacity:.93;fill:#fff"
     id="rect12" />
  <rect
     x="31.021"
     y="19.774"
     width="2.2"
     height="1.1"
     style="fill-opacity:.93;fill:#fff"
     id="rect14" />
  <rect
     x="31.045"
     y="21.41"
     width="2.2"
     height="1.1"
     style="fill-opacity:.93;fill:#fff"
     id="rect16" />
  <rect
     x="31.045"
     y="23.018"
     width="2.2"
     height="1.1"
     style="fill-opacity:.93;fill:#fff"
     id="rect18" />
  <rect
     x="31.045"
     y="24.663"
     width="2.2"
     height="1.1"
     style="fill-opacity:.93;fill:#fff"
     id="rect20" />
  <path
     d="m32.951 27.371v-0.694c0-0.194-0.157-0.351-0.349-0.351h-0.97c-0.193 0-0.349 0.157-0.349 0.351v0.693l-0.539 1.591c-0.151 0.443-0.079 0.935 0.193 1.317 0.272 0.381 0.713 0.608 1.18 0.608s0.908-0.227 1.18-0.608c0.271-0.382 0.344-0.874 0.193-1.317l-0.539-1.59zm-0.226 2.497c-0.279 0.393-0.937 0.393-1.217 0-0.14-0.197-0.177-0.451-0.1-0.68l0.181-0.533h1.055l0.181 0.533c0.078 0.229 0.04 0.483-0.1 0.68z"
     style="fill-rule:nonzero;fill:#fff"
     id="path22" />
  <defs
     id="defs29">
    <linearGradient
       id="_Linear1"
       x2="1"
       gradientTransform="matrix(1.07196,-49.7469,49.7469,1.07196,251.234,55.94)"
       gradientUnits="userSpaceOnUse">
      <stop
         style="stop-color:#075"
         offset="0"
         id="stop24" />
      <stop
         style="stop-color:#3ec884"
         offset="1"
         id="stop26" />
    </linearGradient>
    <linearGradient
       inkscape:collect="always"
       xlink:href="#_Linear1"
       id="linearGradient3348"
       gradientUnits="userSpaceOnUse"
       gradientTransform="matrix(1.07196,-49.7469,49.7469,1.07196,251.234,55.94)"
       x2="1" />
  </defs>
</svg>
