<?xml version="1.0" encoding="UTF-8" standalone="no"?>
<svg
   style="clip-rule:evenodd;fill-rule:evenodd;stroke-linejoin:round;stroke-miterlimit:2"
   viewBox="0 0 64 64"
   version="1.1"
   id="svg13"
   sodipodi:docname="application-x-openboardview-board.svg"
   inkscape:version="1.1.2 (0a00cf5339, 2022-02-04)"
   xmlns:inkscape="http://www.inkscape.org/namespaces/inkscape"
   xmlns:sodipodi="http://sodipodi.sourceforge.net/DTD/sodipodi-0.dtd"
   xmlns:xlink="http://www.w3.org/1999/xlink"
   xmlns="http://www.w3.org/2000/svg"
   xmlns:svg="http://www.w3.org/2000/svg">
  <sodipodi:namedview
     id="namedview15"
     pagecolor="#ffffff"
     bordercolor="#666666"
     borderopacity="1.0"
     inkscape:pageshadow="2"
     inkscape:pageopacity="0.0"
     inkscape:pagecheckerboard="0"
     showgrid="false"
     inkscape:zoom="10.65625"
     inkscape:cx="38.005865"
     inkscape:cy="33.876833"
     inkscape:window-width="1896"
     inkscape:window-height="1022"
     inkscape:window-x="12"
     inkscape:window-y="46"
     inkscape:window-maximized="1"
     inkscape:current-layer="svg13" />
  <path
     id="path2"
     style="fill:url(#linearGradient4674)"
     d="M 17.617188 1.46875 C 15.597188 1.46875 13.659469 2.2712188 12.230469 3.6992188 C 10.802469 5.1282186 10 7.0678906 10 9.0878906 L 10 13.689453 L 10 54.382812 C 10 56.402814 10.802469 58.340531 12.230469 59.769531 C 13.659469 61.197531 15.597187 62 17.617188 62 L 46.382812 62 C 48.402814 62 50.340531 61.197531 51.769531 59.769531 C 53.197531 58.340531 54 56.402814 54 54.382812 L 54 13.689453 L 54 9.0878906 C 54 7.0678906 53.197531 5.1282186 51.769531 3.6992188 C 50.340531 2.2712188 48.402813 1.46875 46.382812 1.46875 L 40.431641 1.46875 L 23.568359 1.46875 L 17.617188 1.46875 z " />
  <path
     d="m35.908 30.998c-0.577-1.016-0.908-2.187-0.908-3.43 0-3.84 3.16-7 7-7s7 3.16 7 7c0 3.841-3.16 7-7 7-1.52 0-2.934-0.495-4.087-1.332l-3.35 3.332h-18.477l-6.086 6.333v-4.329l4.809-5.004h18.515l2.584-2.57zm6.092-7.63c2.304 0 4.2 1.896 4.2 4.2 0 2.305-1.896 4.2-4.2 4.2s-4.2-1.895-4.2-4.2c0-2.304 1.896-4.2 4.2-4.2zm-23.5 1.2c1.38 0 2.5 1.121 2.5 2.5 0 1.38-1.12 2.5-2.5 2.5s-2.5-1.12-2.5-2.5c0-1.379 1.12-2.5 2.5-2.5zm9 0c1.38 0 2.5 1.121 2.5 2.5 0 1.38-1.12 2.5-2.5 2.5s-2.5-1.12-2.5-2.5c0-1.379 1.12-2.5 2.5-2.5z"
     style="fill-opacity:1;fill:#32335f"
     id="path4" />
  <defs
     id="defs11">
    <linearGradient
       id="_Linear1"
       x2="1"
       gradientTransform="matrix(0,-49.619,49.619,0,177.88,51.088)"
       gradientUnits="userSpaceOnUse">
      <stop
         style="stop-color:#3f4077"
         offset="0"
         id="stop6" />
      <stop
         style="stop-color:#5c5da7"
         offset="1"
         id="stop8" />
    </linearGradient>
    <linearGradient
       inkscape:collect="always"
       xlink:href="#_Linear1"
       id="linearGradient4674"
       gradientUnits="userSpaceOnUse"
       gradientTransform="matrix(0,-49.619,49.619,0,177.88,51.088)"
       x2="1" />
  </defs>
  <path
     id="path914"
     style="clip-rule:evenodd;fill:#32335f;fill-opacity:1;fill-rule:evenodd;stroke-width:1;stroke-linejoin:round;stroke-miterlimit:2"
     d="m 9.999999,50.982422 v 3.40039 c 0,2.020002 0.802469,3.957719 2.23047,5.386719 C 13.659467,61.197531 15.597184,62 17.617187,62 h 28.765625 c 2.020002,0 3.957718,-0.802469 5.386719,-2.230469 C 53.19753,58.340531 54,56.402814 54,54.382812 v -3.40039 z" />
</svg>
