<?xml version="1.0" encoding="UTF-8" standalone="no"?>
<svg
   clip-rule="evenodd"
   fill-rule="evenodd"
   stroke-linejoin="round"
   stroke-miterlimit="2"
   viewBox="0 0 64 64"
   version="1.1"
   id="svg19"
   sodipodi:docname="application-image-bmp.svg"
   inkscape:version="1.1.2 (0a00cf5339, 2022-02-04)"
   xmlns:inkscape="http://www.inkscape.org/namespaces/inkscape"
   xmlns:sodipodi="http://sodipodi.sourceforge.net/DTD/sodipodi-0.dtd"
   xmlns:xlink="http://www.w3.org/1999/xlink"
   xmlns="http://www.w3.org/2000/svg"
   xmlns:svg="http://www.w3.org/2000/svg">
  <defs
     id="defs23">
    <linearGradient
       inkscape:collect="always"
       xlink:href="#a"
       id="linearGradient3026"
       gradientUnits="userSpaceOnUse"
       gradientTransform="matrix(0,-49.619,49.619,0,323.66,51.088)"
       x2="1" />
  </defs>
  <sodipodi:namedview
     id="namedview21"
     pagecolor="#ffffff"
     bordercolor="#666666"
     borderopacity="1.0"
     inkscape:pageshadow="2"
     inkscape:pageopacity="0.0"
     inkscape:pagecheckerboard="0"
     showgrid="false"
     inkscape:zoom="10.671875"
     inkscape:cx="40.245974"
     inkscape:cy="29.938507"
     inkscape:window-width="945"
     inkscape:window-height="1026"
     inkscape:window-x="965"
     inkscape:window-y="44"
     inkscape:window-maximized="1"
     inkscape:current-layer="svg19" />
  <linearGradient
     id="a"
     x2="1"
     gradientTransform="matrix(0,-49.619,49.619,0,323.66,51.088)"
     gradientUnits="userSpaceOnUse">
    <stop
       stop-color="#2d707e"
       offset="0"
       id="stop2" />
    <stop
       stop-color="#45b1b8"
       offset="1"
       id="stop4" />
  </linearGradient>
  <path
     id="path7"
     style="fill:url(#linearGradient3026)"
     d="M 17.617188 1.46875 C 15.597188 1.46875 13.659469 2.2712188 12.230469 3.6992188 C 10.802469 5.1282186 10 7.0678906 10 9.0878906 L 10 12.886719 L 10 54.382812 C 10 56.402814 10.802469 58.340531 12.230469 59.769531 C 13.659469 61.197531 15.597187 62 17.617188 62 L 46.382812 62 C 48.402814 62 50.340531 61.197531 51.769531 59.769531 C 53.197531 58.340531 54 56.402814 54 54.382812 L 54 12.886719 L 54 9.0878906 C 54 7.0678906 53.197531 5.1282186 51.769531 3.6992188 C 50.340531 2.2712188 48.402813 1.46875 46.382812 1.46875 L 39.771484 1.46875 L 24.228516 1.46875 L 17.617188 1.46875 z " />
  <path
     id="path914"
     style="clip-rule:evenodd;fill:#025260;fill-opacity:1;fill-rule:evenodd;stroke-width:1;stroke-linejoin:round;stroke-miterlimit:2"
     d="m 10,50.982422 v 3.40039 c 0,2.020002 0.802469,3.957719 2.230469,5.386719 1.429,1.428 3.366717,2.230469 5.386719,2.230469 h 28.765624 c 2.020002,0 3.957719,-0.802469 5.386719,-2.230469 C 53.197531,58.340531 54,56.402814 54,54.382812 v -3.40039 z" />
  <g
     fill-rule="nonzero"
     id="g17">
    <path
       d="m26.532 59.071c-.306 0-.582-.066-.828-.197-.241-.131-.421-.295-.541-.492h-.033v.558h-.721v-5.868h.754v1.852l-.033.557h.033c.12-.197.3-.36.541-.492.246-.131.522-.196.828-.196.519 0 .967.205 1.344.614.377.41.565.918.565 1.525 0 .606-.188 1.114-.565 1.524s-.825.615-1.344.615zm-.123-.689c.349 0 .65-.131.901-.393.252-.268.377-.62.377-1.057s-.125-.787-.377-1.049c-.251-.268-.552-.402-.901-.402-.355 0-.659.131-.91.394-.246.262-.369.614-.369 1.057 0 .442.123.795.369 1.057.251.262.555.393.91.393z"
       fill="#fff"
       id="path9" />
    <path
       d="m29.083 58.94v-4.016h.721v.557h.033c.115-.191.29-.352.524-.483.241-.137.479-.205.713-.205.623 0 1.047.257 1.271.77.328-.513.795-.77 1.401-.77.476 0 .833.153 1.074.459.24.3.36.71.36 1.229v2.459h-.754v-2.344c0-.405-.073-.691-.221-.861-.147-.169-.371-.254-.672-.254-.295 0-.541.126-.737.377-.192.251-.287.538-.287.861v2.221h-.754v-2.344c0-.405-.074-.691-.222-.861-.147-.169-.371-.254-.672-.254-.295 0-.54.126-.737.377-.191.251-.287.538-.287.861v2.221z"
       fill="#fff"
       id="path11" />
    <path
       d="m38.152 59.071c-.306 0-.582-.066-.828-.197-.24-.131-.421-.295-.541-.492h-.033l.033.558v1.77h-.754v-5.786h.721v.557h.033c.12-.197.301-.36.541-.492.246-.131.522-.196.828-.196.519 0 .967.205 1.344.614.377.41.565.918.565 1.525 0 .606-.188 1.114-.565 1.524s-.825.615-1.344.615zm-.123-.689c.35 0 .65-.131.901-.393.252-.268.377-.62.377-1.057s-.125-.787-.377-1.049c-.251-.268-.551-.402-.901-.402-.355 0-.658.131-.91.394-.246.262-.369.614-.369 1.057 0 .442.123.795.369 1.057.252.262.555.393.91.393z"
       fill="#fff"
       id="path13" />
    <path
       d="m23.957 19c-.53 0-.957.465-.957 1.043v15.912c0 .579.427 1.045.957 1.045h16.086c.53 0 .957-.466.957-1.045v-15.912c0-.578-.427-1.043-.957-1.043zm10.182 6.432 3.861 5.136h-12l3-3.849 2.139 2.574z"
       fill="#025260"
       id="path15" />
  </g>
</svg>
