<?xml version="1.0" encoding="UTF-8" standalone="no"?>
<svg
   style="clip-rule:evenodd;fill-rule:evenodd;stroke-linejoin:round;stroke-miterlimit:2"
   viewBox="0 0 64 64"
   version="1.1"
   id="svg13"
   sodipodi:docname="application-vnd.visio.svg"
   inkscape:version="1.1.2 (0a00cf5339, 2022-02-04)"
   xmlns:inkscape="http://www.inkscape.org/namespaces/inkscape"
   xmlns:sodipodi="http://sodipodi.sourceforge.net/DTD/sodipodi-0.dtd"
   xmlns:xlink="http://www.w3.org/1999/xlink"
   xmlns="http://www.w3.org/2000/svg"
   xmlns:svg="http://www.w3.org/2000/svg">
  <sodipodi:namedview
     id="namedview15"
     pagecolor="#ffffff"
     bordercolor="#666666"
     borderopacity="1.0"
     inkscape:pageshadow="2"
     inkscape:pageopacity="0.0"
     inkscape:pagecheckerboard="0"
     showgrid="false"
     inkscape:zoom="10.671875"
     inkscape:cx="32.093704"
     inkscape:cy="34.811127"
     inkscape:window-width="945"
     inkscape:window-height="1026"
     inkscape:window-x="965"
     inkscape:window-y="44"
     inkscape:window-maximized="1"
     inkscape:current-layer="svg13" />
  <path
     id="path2"
     style="fill:url(#linearGradient2316)"
     d="M 17.617188 1.46875 C 15.597188 1.46875 13.659469 2.2712188 12.230469 3.6992188 C 10.802469 5.1282186 10 7.0678906 10 9.0878906 L 10 12.298828 L 10 54.382812 C 10 56.402814 10.802469 58.340531 12.230469 59.769531 C 13.659469 61.197531 15.597187 62 17.617188 62 L 46.382812 62 C 48.402814 62 50.340531 61.197531 51.769531 59.769531 C 53.197531 58.340531 54 56.402814 54 54.382812 L 54 12.298828 L 54 9.0878906 C 54 7.0678906 53.197531 5.1282186 51.769531 3.6992188 C 50.340531 2.2712188 48.402813 1.46875 46.382812 1.46875 L 36.697266 1.46875 L 27.302734 1.46875 L 17.617188 1.46875 z " />
  <path
     id="path914"
     style="clip-rule:evenodd;fill:#925600;fill-opacity:1;fill-rule:evenodd;stroke-width:1;stroke-linejoin:round;stroke-miterlimit:2"
     d="m 9.9999996,50.982422 v 3.40039 c 0,2.020002 0.8024694,3.957719 2.2304694,5.386719 1.429,1.428 3.366717,2.230469 5.386719,2.230469 h 28.765624 c 2.020002,0 3.957719,-0.802469 5.386719,-2.230469 C 53.197531,58.340531 54,56.402814 54,54.382812 v -3.40039 z" />
  <path
     d="m 39.976,17.053225 c 0.396,0.052 0.41,0.081 0.654,0.305 l 3.853,3.846 c 0.392,0.426 0.395,1.063 0.001,1.493 l -2.901,2.901 -0.004,11.21 c -0.071,0.541 -0.489,0.939 -1.051,0.964 h -2.797 l -0.004,1.604 c -0.071,0.541 -0.489,0.939 -1.051,0.964 h -6.42 c -1.514,-0.066 -1.056,-2.568 -1.056,-2.568 l -4.172,-0.004 c -0.541,-0.071 -0.939,-0.489 -0.963,-1.052 v -10.852 c -1.044,-0.454 -2.587,-1.799 -2.61,-3.908 -0.02,-1.888 0.931,-3.793 3.66,-4.215 1.825,-0.282 3.752,0.764 4.541,2.477 l 6.582,0.041 2.9,-2.901 c 0.335,-0.307 0.344,-0.326 0.838,-0.305 z m -7.388,18.158 v 1.74 h 1.741 v -1.74 z m -2.982,-11.432 c -0.544,1.124 -2.154,2.09 -2.154,2.09 v 8.513 h 1.741 l 0.004,-1.604 c 0.071,-0.541 0.489,-0.939 1.052,-0.963 h 6.419 c 1.514,0.066 1.056,2.567 1.056,2.567 h 0.457 v -8.778 l -1.95,-1.95 h -6.568 c -0.028,0.063 -0.028,0.063 -0.057,0.125 z m -3.845,-2.922 c -0.694,0.009 -0.988,0.558 -0.902,1.1 0.051,0.321 0.216,0.858 0.902,0.836 0.598,-0.018 0.999,-0.411 1.005,-0.837 0.008,-0.614 -0.376,-1.107 -1.005,-1.099 z m 13.304,1.1 0.82,0.819 0.819,-0.819 -0.819,-0.82 c -0.274,0.273 -0.547,0.546 -0.82,0.82 z"
     style="fill:#925600"
     id="path4" />
  <defs
     id="defs11">
    <linearGradient
       id="_Linear1"
       x2="1"
       gradientTransform="matrix(0,-49.619,49.619,0,177.88,51.088)"
       gradientUnits="userSpaceOnUse">
      <stop
         style="stop-color:#cf965e"
         offset="0"
         id="stop6" />
      <stop
         style="stop-color:#e0c06e"
         offset="1"
         id="stop8" />
    </linearGradient>
    <linearGradient
       inkscape:collect="always"
       xlink:href="#_Linear1"
       id="linearGradient2316"
       gradientUnits="userSpaceOnUse"
       gradientTransform="matrix(0,-49.619,49.619,0,177.88,51.088)"
       x2="1" />
  </defs>
</svg>
