<?xml version="1.0" encoding="UTF-8" standalone="no"?>
<svg
   style="clip-rule:evenodd;fill-rule:evenodd;stroke-linejoin:round;stroke-miterlimit:2"
   viewBox="0 0 64 64"
   version="1.1"
   id="svg19"
   sodipodi:docname="application-vnd.comicbook+zip.svg"
   inkscape:version="1.1.2 (0a00cf5339, 2022-02-04)"
   xmlns:inkscape="http://www.inkscape.org/namespaces/inkscape"
   xmlns:sodipodi="http://sodipodi.sourceforge.net/DTD/sodipodi-0.dtd"
   xmlns:xlink="http://www.w3.org/1999/xlink"
   xmlns="http://www.w3.org/2000/svg"
   xmlns:svg="http://www.w3.org/2000/svg">
  <sodipodi:namedview
     id="namedview21"
     pagecolor="#ffffff"
     bordercolor="#666666"
     borderopacity="1.0"
     inkscape:pageshadow="2"
     inkscape:pageopacity="0.0"
     inkscape:pagecheckerboard="0"
     showgrid="false"
     inkscape:zoom="10.671875"
     inkscape:cx="37.434846"
     inkscape:cy="34.342606"
     inkscape:window-width="945"
     inkscape:window-height="1026"
     inkscape:window-x="965"
     inkscape:window-y="44"
     inkscape:window-maximized="1"
     inkscape:current-layer="svg19" />
  <path
     id="path2"
     style="fill:url(#linearGradient2322)"
     d="M 17.617188 1.734375 C 15.597188 1.734375 13.659469 2.5377969 12.230469 3.9667969 C 10.802469 5.3947969 10 7.3315625 10 9.3515625 L 10 16.533203 L 10 54.648438 C 10 56.668437 10.802469 58.605203 12.230469 60.033203 C 13.123594 60.926328 14.215893 61.574525 15.402344 61.935547 C 15.876924 62.079956 16.367043 62.179133 16.865234 62.228516 C 17.11433 62.253207 17.364687 62.26575 17.617188 62.265625 C 25.677188 62.265625 38.322812 62.264625 46.382812 62.265625 C 46.635313 62.265625 46.88567 62.253275 47.134766 62.228516 C 47.632957 62.179133 48.123076 62.079956 48.597656 61.935547 C 49.784107 61.574525 50.876406 60.926328 51.769531 60.033203 C 53.197531 58.605203 54 56.668437 54 54.648438 L 54 16.533203 L 54 9.3515625 C 54 7.3315625 53.197531 5.3947969 51.769531 3.9667969 C 50.340531 2.5377969 48.402813 1.734375 46.382812 1.734375 C 43.674079 1.734375 40.41346 1.7343998 37.5 1.734375 C 33.434373 1.734271 30.107873 1.7343443 26.5 1.734375 C 23.58654 1.7343998 20.325921 1.734375 17.617188 1.734375 z " />
  <path
     id="path914"
     style="clip-rule:evenodd;fill:#6d5112;fill-opacity:1;fill-rule:evenodd;stroke-width:1;stroke-linejoin:round;stroke-miterlimit:2"
     d="m 10,51.248422 v 3.40039 c 0,2.020002 0.802469,3.957719 2.230469,5.386719 1.429,1.428 3.366717,2.230469 5.386719,2.230469 h 28.765624 c 2.020002,0 3.957719,-0.802469 5.386719,-2.230469 C 53.197531,58.606531 54,56.668814 54,54.648812 v -3.40039 z" />
  <path
     d="m40.901 18.965c-2.354-1.912-5.48-2.965-8.801-2.965s-6.447 1.053-8.801 2.965c-2.374 1.929-3.682 4.5-3.682 7.239 0 2.614 1.192 5.074 3.365 6.97-0.039 0.088-0.07 0.181-0.09 0.278l-0.714 3.506c-0.085 0.416 0.029 0.665 0.139 0.8 0.128 0.156 0.318 0.242 0.534 0.242 0.163 0 0.339-0.048 0.522-0.143l4.152-2.153c1.438 0.461 2.984 0.704 4.575 0.704 3.321 0 6.447-1.053 8.801-2.966 2.374-1.928 3.682-4.499 3.682-7.238s-1.307-5.31-3.682-7.239z"
     style="fill-rule:nonzero;fill:#6d5112"
     id="path4" />
  <path
     d="m27.917 58.043c-0.601 0-1.096-0.202-1.484-0.606-0.388-0.41-0.582-0.921-0.582-1.533s0.194-1.12 0.582-1.524c0.388-0.41 0.883-0.615 1.484-0.615 0.448 0 0.819 0.109 1.114 0.328 0.295 0.218 0.511 0.494 0.648 0.828l-0.689 0.287c-0.207-0.503-0.582-0.754-1.122-0.754-0.334 0-0.629 0.136-0.886 0.409-0.251 0.273-0.377 0.62-0.377 1.041s0.126 0.768 0.377 1.041c0.257 0.273 0.552 0.41 0.886 0.41 0.562 0 0.95-0.252 1.163-0.754l0.672 0.287c-0.136 0.327-0.358 0.603-0.664 0.827-0.3 0.219-0.674 0.328-1.122 0.328z"
     style="fill-opacity:.95;fill-rule:nonzero;fill:#fff"
     id="path6" />
  <path
     d="m32.58 58.043c-0.305 0-0.581-0.065-0.827-0.197-0.241-0.131-0.421-0.295-0.541-0.491h-0.033v0.557h-0.721v-5.868h0.754v1.852l-0.033 0.558h0.033c0.12-0.197 0.3-0.361 0.541-0.492 0.246-0.131 0.522-0.197 0.827-0.197 0.52 0 0.968 0.205 1.345 0.615s0.565 0.918 0.565 1.524c0 0.607-0.188 1.115-0.565 1.524-0.377 0.41-0.825 0.615-1.345 0.615zm-0.122-0.688c0.349 0 0.65-0.131 0.901-0.394 0.251-0.267 0.377-0.62 0.377-1.057s-0.126-0.787-0.377-1.049c-0.251-0.268-0.552-0.401-0.901-0.401-0.356 0-0.659 0.131-0.91 0.393-0.246 0.262-0.369 0.615-0.369 1.057 0 0.443 0.123 0.795 0.369 1.057 0.251 0.263 0.554 0.394 0.91 0.394z"
     style="fill-opacity:.95;fill-rule:nonzero;fill:#fff"
     id="path8" />
  <path
     d="m34.903 57.912v-0.656l2.287-2.671h-2.221v-0.689h3.147v0.656l-2.287 2.672h2.32v0.688h-3.246z"
     style="fill-rule:nonzero;fill:#fff"
     id="path10" />
  <defs
     id="defs17">
    <linearGradient
       id="_Linear1"
       x2="1"
       gradientTransform="matrix(0,-49.619,49.619,0,250.77,51.3535)"
       gradientUnits="userSpaceOnUse">
      <stop
         style="stop-color:#bb8000"
         offset="0"
         id="stop12" />
      <stop
         style="stop-color:#fed539"
         offset="1"
         id="stop14" />
    </linearGradient>
    <linearGradient
       inkscape:collect="always"
       xlink:href="#_Linear1"
       id="linearGradient2322"
       gradientUnits="userSpaceOnUse"
       gradientTransform="matrix(0,-49.619,49.619,0,250.77,51.3535)"
       x2="1" />
  </defs>
</svg>
