<?xml version="1.0" encoding="UTF-8" standalone="no"?>
<svg
   style="clip-rule:evenodd;fill-rule:evenodd"
   viewBox="0 0 64 64"
   version="1.1"
   id="svg27"
   sodipodi:docname="application-vnd.oasis.opendocument.formula.svg"
   inkscape:version="1.1.2 (0a00cf5339, 2022-02-04)"
   xmlns:inkscape="http://www.inkscape.org/namespaces/inkscape"
   xmlns:sodipodi="http://sodipodi.sourceforge.net/DTD/sodipodi-0.dtd"
   xmlns:xlink="http://www.w3.org/1999/xlink"
   xmlns="http://www.w3.org/2000/svg"
   xmlns:svg="http://www.w3.org/2000/svg">
  <sodipodi:namedview
     id="namedview29"
     pagecolor="#ffffff"
     bordercolor="#666666"
     borderopacity="1.0"
     inkscape:pageshadow="2"
     inkscape:pageopacity="0.0"
     inkscape:pagecheckerboard="0"
     showgrid="false"
     inkscape:zoom="10.671875"
     inkscape:cx="37.903367"
     inkscape:cy="32.562225"
     inkscape:window-width="945"
     inkscape:window-height="1026"
     inkscape:window-x="965"
     inkscape:window-y="44"
     inkscape:window-maximized="1"
     inkscape:current-layer="svg27" />
  <path
     id="path2"
     style="fill:url(#linearGradient2096)"
     d="M 17.617188 1.734375 C 15.597188 1.734375 13.659469 2.5377969 12.230469 3.9667969 C 10.802469 5.3947969 10 7.3315625 10 9.3515625 L 10 13.097656 L 10 54.648438 C 10 56.668437 10.802469 58.605203 12.230469 60.033203 C 13.123594 60.926328 14.215893 61.574525 15.402344 61.935547 C 15.876924 62.079956 16.367043 62.179133 16.865234 62.228516 C 17.11433 62.253207 17.364687 62.26575 17.617188 62.265625 C 25.677188 62.265625 38.322812 62.264625 46.382812 62.265625 C 46.635313 62.265625 46.88567 62.253275 47.134766 62.228516 C 47.632957 62.179133 48.123076 62.079956 48.597656 61.935547 C 49.784107 61.574525 50.876406 60.926328 51.769531 60.033203 C 53.197531 58.605203 54 56.668437 54 54.648438 L 54 13.097656 L 54 9.3515625 C 54 7.3315625 53.197531 5.3947969 51.769531 3.9667969 C 50.340531 2.5377969 48.402813 1.734375 46.382812 1.734375 C 43.159491 1.734375 39.356662 1.7343875 35.8125 1.734375 C 32.919856 1.7343146 30.744117 1.734366 28.1875 1.734375 C 24.643338 1.7343875 20.840509 1.734375 17.617188 1.734375 z " />
  <path
     id="path914"
     style="clip-rule:evenodd;fill:#41274d;fill-opacity:1;fill-rule:evenodd;stroke-width:1;stroke-linejoin:round;stroke-miterlimit:2"
     d="m 9.9999998,51.248422 v 3.40039 c 0,2.020002 0.8024692,3.957719 2.2304692,5.386719 1.429,1.428 3.366717,2.230469 5.386719,2.230469 h 28.765624 c 2.020002,0 3.957719,-0.802469 5.386719,-2.230469 C 53.197531,58.606531 54,56.668814 54,54.648812 v -3.40039 z" />
  <path
     d="m23.41 59.24v-4.016h0.721v0.557h0.033c0.115-0.191 0.29-0.352 0.524-0.483 0.241-0.137 0.479-0.205 0.714-0.205 0.622 0 1.046 0.257 1.27 0.77 0.328-0.513 0.795-0.77 1.401-0.77 0.476 0 0.833 0.153 1.074 0.459 0.24 0.3 0.36 0.71 0.36 1.229v2.459h-0.754v-2.344c0-0.404-0.073-0.691-0.221-0.861-0.147-0.169-0.371-0.254-0.672-0.254-0.295 0-0.541 0.126-0.737 0.377-0.192 0.252-0.287 0.539-0.287 0.861v2.221h-0.754v-2.344c0-0.404-0.074-0.691-0.222-0.861-0.147-0.169-0.371-0.254-0.672-0.254-0.295 0-0.54 0.126-0.737 0.377-0.191 0.252-0.287 0.539-0.287 0.861v2.221h-0.754z"
     style="fill-rule:nonzero;fill:#fff"
     id="path4" />
  <path
     d="m31.611 59.371c-0.426 0-0.784-0.123-1.073-0.369-0.284-0.246-0.427-0.571-0.427-0.975 0-0.437 0.17-0.779 0.509-1.024 0.338-0.252 0.756-0.377 1.254-0.377 0.442 0 0.805 0.081 1.09 0.245v-0.114c0-0.295-0.102-0.53-0.304-0.705-0.202-0.18-0.45-0.271-0.746-0.271-0.218 0-0.417 0.052-0.598 0.156-0.175 0.104-0.295 0.246-0.36 0.426l-0.689-0.295c0.093-0.24 0.276-0.461 0.549-0.664 0.273-0.207 0.634-0.311 1.082-0.311 0.514 0 0.94 0.15 1.279 0.451 0.338 0.3 0.508 0.724 0.508 1.27v2.426h-0.721v-0.557h-0.033c-0.301 0.459-0.741 0.688-1.32 0.688zm0.123-0.688c0.312 0 0.593-0.115 0.844-0.345 0.257-0.235 0.386-0.51 0.386-0.827-0.214-0.175-0.533-0.263-0.959-0.263-0.366 0-0.642 0.08-0.828 0.238s-0.279 0.344-0.279 0.557c0 0.197 0.085 0.353 0.254 0.467 0.17 0.115 0.364 0.173 0.582 0.173z"
     style="fill-rule:nonzero;fill:#fff"
     id="path6" />
  <path
     d="m36.192 59.305c-0.421 0-0.743-0.112-0.967-0.336-0.218-0.224-0.328-0.54-0.328-0.95v-2.107h-0.705v-0.688h0.705v-1.229h0.754v1.229h0.984v0.688h-0.984v2.049c0 0.437 0.181 0.656 0.541 0.656 0.137 0 0.251-0.022 0.344-0.066l0.263 0.648c-0.164 0.071-0.366 0.106-0.607 0.106z"
     style="fill-rule:nonzero;fill:#fff"
     id="path8" />
  <path
     d="m38.154 53.372v1.852l-0.033 0.557h0.033c0.109-0.191 0.281-0.352 0.516-0.483 0.235-0.137 0.487-0.205 0.754-0.205 0.497 0 0.877 0.153 1.139 0.459 0.263 0.306 0.394 0.716 0.394 1.229v2.459h-0.754v-2.344c0-0.743-0.331-1.115-0.992-1.115-0.311 0-0.565 0.126-0.762 0.377-0.197 0.246-0.295 0.533-0.295 0.861v2.221h-0.754v-5.868h0.754z"
     style="fill-rule:nonzero;fill:#fff"
     id="path10" />
  <path
     d="m22.46 37.697h10.073v-21.206l-9.983 1e-3c-1.098-0.082-1.543 0.02-1.543 1.014v19.122c-0.069 1.092 0.386 1.069 1.453 1.069z"
     style="fill:#41274d"
     id="path12" />
  <path
     d="m41.846 37.69h-4.572l-2.344-1.968v-17.269l1.606-1.968h5.31c0.735-0.081 0.794 0.02 0.794 1.015v19.122c0.046 1.091-0.079 1.068-0.794 1.068z"
     style="fill:none;stroke-width:.7px;stroke:#41274d"
     id="path14" />
  <path
     d="m40.113 38.7l-8.681-1.014v-21.195l8.609-0.807c1.065-0.081 1.122 0.212 1.122 1.207l-0.072 20.227c0.067 1.092 0.058 1.582-0.978 1.582z"
     style="fill:#41274d"
     id="path16" />
  <path
     d="m37.996 21.93l-6.962 4e-3 -3.865 6.693-1.353-2.345h-4e-3 -1.74v0.87h1.242l1.856 3.214 0.502-0.869 3.867-6.696h5.586v0.87h0.871v-1.741zm-4.351 2.614c-1.447 0-2.611 1.165-2.611 2.611s1.164 2.611 2.611 2.611c0.673 0 1.278-0.26 1.74-0.675v0.675h0.87v-2.611-2.611h-0.87v0.675c-0.462-0.415-1.067-0.675-1.74-0.675zm0 0.87c0.964 0 1.74 0.777 1.74 1.741s-0.776 1.74-1.74 1.74-1.741-0.776-1.741-1.74 0.777-1.741 1.741-1.741zm-9.564 5.213c-6e-3 0-9e-3 0.194-9e-3 0.435s4e-3 0.436 9e-3 0.436h13.906c6e-3 0 9e-3 -0.195 9e-3 -0.436s-4e-3 -0.435-9e-3 -0.435h-13.906zm6.091 1.741c-5e-3 0-8e-3 0.194-8e-3 0.435s3e-3 0.435 8e-3 0.435h1.724c5e-3 0 9e-3 -0.194 9e-3 -0.435s-4e-3 -0.435-9e-3 -0.435h-1.724z"
     style="fill-rule:nonzero;fill:#a670bf"
     id="path18" />
  <defs
     id="defs25">
    <linearGradient
       id="_Linear1"
       x2="1"
       gradientTransform="matrix(0,-49.619,49.619,0,250.77,51.3535)"
       gradientUnits="userSpaceOnUse">
      <stop
         style="stop-color:#733491"
         offset="0"
         id="stop20" />
      <stop
         style="stop-color:#b888cd"
         offset="1"
         id="stop22" />
    </linearGradient>
    <linearGradient
       inkscape:collect="always"
       xlink:href="#_Linear1"
       id="linearGradient2096"
       gradientUnits="userSpaceOnUse"
       gradientTransform="matrix(0,-49.619,49.619,0,250.77,51.3535)"
       x2="1" />
  </defs>
</svg>
