<?xml version="1.0" encoding="UTF-8" standalone="no"?>
<svg
   style="clip-rule:evenodd;fill-rule:evenodd;stroke-linejoin:round;stroke-miterlimit:2"
   viewBox="0 0 64 64"
   version="1.1"
   id="svg19"
   sodipodi:docname="application-x-tha.svg"
   inkscape:version="1.1.2 (0a00cf5339, 2022-02-04)"
   xmlns:inkscape="http://www.inkscape.org/namespaces/inkscape"
   xmlns:sodipodi="http://sodipodi.sourceforge.net/DTD/sodipodi-0.dtd"
   xmlns:xlink="http://www.w3.org/1999/xlink"
   xmlns="http://www.w3.org/2000/svg"
   xmlns:svg="http://www.w3.org/2000/svg">
  <sodipodi:namedview
     id="namedview21"
     pagecolor="#ffffff"
     bordercolor="#666666"
     borderopacity="1.0"
     inkscape:pageshadow="2"
     inkscape:pageopacity="0.0"
     inkscape:pagecheckerboard="0"
     showgrid="false"
     inkscape:zoom="10.65625"
     inkscape:cx="32"
     inkscape:cy="32"
     inkscape:window-width="1896"
     inkscape:window-height="1022"
     inkscape:window-x="12"
     inkscape:window-y="46"
     inkscape:window-maximized="1"
     inkscape:current-layer="svg19" />
  <path
     id="path2"
     style="fill:url(#linearGradient955)"
     d="M 17.617188 1.46875 C 15.597188 1.46875 13.659469 2.2712188 12.230469 3.6992188 C 10.802469 5.1282186 10 7.0678906 10 9.0878906 L 10 12.839844 L 10 54.382812 C 10 56.402814 10.802469 58.340531 12.230469 59.769531 C 13.659469 61.197531 15.597187 62 17.617188 62 L 46.382812 62 C 48.402814 62 50.340531 61.197531 51.769531 59.769531 C 53.197531 58.340531 54 56.402814 54 54.382812 L 54 12.839844 L 54 9.0878906 C 54 7.0678906 53.197531 5.1282186 51.769531 3.6992188 C 50.340531 2.2712188 48.402813 1.46875 46.382812 1.46875 L 36.228516 1.46875 L 27.771484 1.46875 L 17.617188 1.46875 z " />
  <path
     id="path914"
     style="clip-rule:evenodd;fill:#044937;fill-opacity:1;fill-rule:evenodd;stroke-width:1;stroke-linecap:round;stroke-linejoin:round;stroke-miterlimit:2"
     d="m 9.9999996,50.982422 v 3.40039 c 0,2.020002 0.8024674,3.957719 2.2304694,5.386719 C 13.659467,61.197531 15.597183,62 17.617187,62 h 28.765625 c 2.020002,0 3.957718,-0.802469 5.386719,-2.230469 C 53.19753,58.340531 54,56.402814 54,54.382812 v -3.40039 z" />
  <path
     d="m42 18.285c0-1.262-1.023-2.285-2.285-2.285h-15.23c-1.262 0-2.285 1.023-2.285 2.285v17.43c0 1.262 1.023 2.285 2.285 2.285h15.23c1.262 0 2.285-1.023 2.285-2.285v-17.43z"
     style="fill:#044937"
     id="path4" />
  <path
     d="m33.245 24.663v1.1h-2.2v-1.1h2.2zm0-1.645v1.1h-2.2v-1.1h2.2zm0-1.608v1.1h-2.2v-1.1h2.2zm-0.024-1.636v1.1h-2.2v-1.1h2.2zm0.014-1.572v1.1h-2.2v-1.1h2.2zm4e-3 -1.591v1.1h-2.2v-1.1h2.2z"
     style="fill-opacity:.93;fill:#fff"
     id="path6" />
  <path
     d="m32.951 27.371v-0.694c0-0.194-0.157-0.351-0.349-0.351h-0.97c-0.193 0-0.349 0.157-0.349 0.351v0.693l-0.539 1.591c-0.151 0.443-0.079 0.935 0.193 1.317 0.272 0.381 0.713 0.608 1.18 0.608s0.908-0.227 1.18-0.608c0.271-0.382 0.344-0.874 0.193-1.317l-0.539-1.59zm-0.226 2.497c-0.279 0.393-0.937 0.393-1.217 0-0.14-0.197-0.177-0.451-0.1-0.68l0.181-0.533h1.055l0.181 0.533c0.078 0.229 0.04 0.483-0.1 0.68z"
     style="fill-rule:nonzero;fill:#fff"
     id="path8" />
  <path
     d="m35.652 59.703c-0.427 0-0.786-0.123-1.076-0.37-0.285-0.246-0.427-0.572-0.427-0.977 0-0.438 0.169-0.78 0.509-1.027 0.339-0.251 0.758-0.377 1.257-0.377 0.443 0 0.807 0.082 1.092 0.246v-0.115c0-0.296-0.101-0.531-0.304-0.706-0.203-0.181-0.452-0.271-0.747-0.271-0.219 0-0.419 0.052-0.6 0.156-0.175 0.104-0.296 0.246-0.361 0.427l-0.69-0.296c0.093-0.241 0.276-0.463 0.55-0.665 0.274-0.208 0.635-0.312 1.084-0.312 0.515 0 0.942 0.15 1.281 0.451 0.34 0.302 0.51 0.726 0.51 1.274v2.431h-0.723v-0.559h-0.033c-0.301 0.46-0.742 0.69-1.322 0.69zm-7.437-4.156h0.986v0.69h-0.986v2.053c0 0.438 0.181 0.657 0.542 0.657 0.137 0 0.252-0.022 0.345-0.065l0.263 0.649c-0.164 0.071-0.367 0.106-0.608 0.106-0.422 0-0.745-0.112-0.969-0.336-0.219-0.225-0.329-0.543-0.329-0.953v-2.111h-0.706v-0.69h0.706v-1.232h0.756v1.232zm2.508 4.025h-0.756v-5.881h0.756v1.856l-0.033 0.559h0.033c0.11-0.192 0.282-0.353 0.517-0.485 0.236-0.137 0.488-0.205 0.756-0.205 0.498 0 0.879 0.153 1.142 0.46 0.262 0.306 0.394 0.717 0.394 1.232v2.464h-0.756v-2.349c0-0.745-0.331-1.117-0.994-1.117-0.312 0-0.566 0.126-0.763 0.377-0.197 0.247-0.296 0.534-0.296 0.863v2.226zm5.052-0.559c0.312 0 0.594-0.115 0.846-0.345 0.257-0.235 0.386-0.512 0.386-0.829-0.214-0.176-0.534-0.263-0.961-0.263-0.367 0-0.643 0.079-0.83 0.238-0.186 0.159-0.279 0.345-0.279 0.558 0 0.198 0.085 0.354 0.255 0.469s0.364 0.172 0.583 0.172z"
     style="fill-rule:nonzero;fill:#fff"
     id="path10" />
  <defs
     id="defs17">
    <linearGradient
       id="_Linear1"
       x2="1"
       gradientTransform="matrix(1.07196,-49.7469,49.7469,1.07196,178.156,54.3653)"
       gradientUnits="userSpaceOnUse">
      <stop
         style="stop-color:#075"
         offset="0"
         id="stop12" />
      <stop
         style="stop-color:#3ec884"
         offset="1"
         id="stop14" />
    </linearGradient>
    <linearGradient
       inkscape:collect="always"
       xlink:href="#_Linear1"
       id="linearGradient955"
       gradientUnits="userSpaceOnUse"
       gradientTransform="matrix(1.07196,-49.7469,49.7469,1.07196,178.156,54.3653)"
       x2="1" />
  </defs>
</svg>
