<?xml version="1.0" encoding="UTF-8" standalone="no"?>
<svg
   style="clip-rule:evenodd;fill-rule:evenodd;stroke-linejoin:round;stroke-miterlimit:2"
   viewBox="0 0 64 64"
   version="1.1"
   id="svg29"
   sodipodi:docname="application-audio-playlist.svg"
   inkscape:version="1.1.2 (0a00cf5339, 2022-02-04)"
   xmlns:inkscape="http://www.inkscape.org/namespaces/inkscape"
   xmlns:sodipodi="http://sodipodi.sourceforge.net/DTD/sodipodi-0.dtd"
   xmlns:xlink="http://www.w3.org/1999/xlink"
   xmlns="http://www.w3.org/2000/svg"
   xmlns:svg="http://www.w3.org/2000/svg">
  <sodipodi:namedview
     id="namedview31"
     pagecolor="#ffffff"
     bordercolor="#666666"
     borderopacity="1.0"
     inkscape:pageshadow="2"
     inkscape:pageopacity="0.0"
     inkscape:pagecheckerboard="0"
     showgrid="false"
     inkscape:zoom="7.5461552"
     inkscape:cx="42.604478"
     inkscape:cy="41.411817"
     inkscape:window-width="945"
     inkscape:window-height="1026"
     inkscape:window-x="965"
     inkscape:window-y="44"
     inkscape:window-maximized="1"
     inkscape:current-layer="svg29" />
  <path
     id="path2"
     style="fill:url(#linearGradient965)"
     d="M 17.617188 1.46875 C 15.597188 1.46875 13.659469 2.2712188 12.230469 3.6992188 C 10.802469 5.1282186 10 7.0678906 10 9.0878906 L 10 13 L 10 54.382812 C 10 56.402814 10.802469 58.340531 12.230469 59.769531 C 13.659469 61.197531 15.597187 62 17.617188 62 L 46.382812 62 C 48.402814 62 50.340531 61.197531 51.769531 59.769531 C 53.197531 58.340531 54 56.402814 54 54.382812 L 54 13 L 54 9.0878906 C 54 7.0678906 53.197531 5.1282186 51.769531 3.6992188 C 50.340531 2.2712188 48.402813 1.46875 46.382812 1.46875 L 38.472656 1.46875 L 25.527344 1.46875 L 17.617188 1.46875 z " />
  <path
     id="path2-3"
     style="clip-rule:evenodd;fill:#2f7883;fill-opacity:1;fill-rule:evenodd;stroke-linejoin:round;stroke-miterlimit:2"
     d="m 10,50.982422 v 3.398437 0.002 c 6.5e-5,0.251841 0.01244,0.501552 0.03711,0.75 v 0.002 c 0.02473,0.248442 0.06268,0.494885 0.111329,0.738281 v 0.002 c 0.04871,0.243391 0.109702,0.484016 0.18164,0.720703 v 0.002 c 0.072,0.236684 0.155456,0.468944 0.25,0.697266 v 0.002 c 0.09461,0.228323 0.199937,0.453573 0.316406,0.671875 v 0.002 c 0.116532,0.218305 0.245101,0.430096 0.382813,0.636719 v 0.002 c 0.137776,0.206628 0.287038,0.406326 0.445312,0.599609 v 0.002 c 0.158341,0.193289 0.327703,0.378358 0.50586,0.55664 v 0.002 c 0.7145,0.714 1.557101,1.271274 2.472656,1.650391 C 15.618679,61.799106 16.607187,62 17.617188,62 h 28.765624 c 1.010002,0 1.998509,-0.200473 2.914063,-0.580078 0.915555,-0.379117 1.758156,-0.936391 2.472656,-1.650391 v -0.002 C 53.197531,58.338626 54,56.400859 54,54.380859 v -3.398437 z" />
  <path
     d="m23.139 58.989c-0.28 0-0.532-0.06-0.757-0.18-0.22-0.12-0.385-0.27-0.495-0.45h-0.03l0.03 0.51v1.62h-0.69v-5.295h0.66v0.51h0.03c0.11-0.18 0.275-0.33 0.495-0.45 0.225-0.12 0.477-0.18 0.758-0.18 0.475 0 0.884 0.187 1.229 0.562s0.518 0.84 0.518 1.395-0.173 1.02-0.518 1.395-0.754 0.563-1.229 0.563h-1e-3zm-0.113-0.63c0.32 0 0.595-0.12 0.825-0.36 0.23-0.245 0.345-0.568 0.345-0.968s-0.115-0.72-0.345-0.96c-0.23-0.245-0.505-0.367-0.825-0.367-0.325 0-0.602 0.12-0.832 0.36-0.226 0.24-0.338 0.562-0.338 0.967s0.113 0.728 0.338 0.968c0.229 0.24 0.507 0.36 0.832 0.36z"
     style="fill-rule:nonzero;fill:#fff"
     id="path4" />
  <rect
     x="25.446"
     y="53.499"
     width=".69"
     height="5.37"
     style="fill:#fff"
     id="rect6" />
  <path
     d="m28.088 58.989c-0.39 0-0.718-0.113-0.983-0.338-0.26-0.225-0.39-0.522-0.39-0.892 0-0.4 0.155-0.713 0.465-0.938 0.31-0.23 0.693-0.345 1.148-0.345 0.405 0 0.737 0.075 0.997 0.225v-0.105c0-0.27-0.092-0.485-0.277-0.645-0.185-0.165-0.413-0.247-0.683-0.247-0.2 0-0.382 0.047-0.547 0.142-0.16 0.095-0.27 0.225-0.33 0.39l-0.63-0.27c0.085-0.22 0.252-0.422 0.502-0.607 0.25-0.19 0.58-0.285 0.99-0.285 0.47 0 0.86 0.137 1.17 0.412s0.465 0.663 0.465 1.163v2.22h-0.66v-0.51h-0.03c-0.275 0.42-0.677 0.63-1.207 0.63zm0.112-0.63c0.285 0 0.543-0.105 0.773-0.315 0.235-0.215 0.352-0.468 0.352-0.758-0.195-0.16-0.487-0.24-0.877-0.24-0.335 0-0.588 0.073-0.758 0.218s-0.255 0.315-0.255 0.51c0 0.18 0.078 0.322 0.233 0.427s0.332 0.158 0.532 0.158z"
     style="fill-rule:nonzero;fill:#fff"
     id="path8" />
  <path
     d="m31.672 60.489h-0.712l0.855-1.853-1.515-3.442h0.75l1.095 2.64h0.015l1.065-2.64h0.75l-2.303 5.295z"
     style="fill-rule:nonzero;fill:#fff"
     id="path10" />
  <rect
     x="34.352"
     y="53.499"
     width=".69"
     height="5.37"
     style="fill:#fff"
     id="rect12" />
  <path
     d="m36.625 54.271c-0.095 0.095-0.21 0.143-0.345 0.143s-0.25-0.048-0.345-0.143-0.142-0.21-0.142-0.345 0.047-0.25 0.142-0.345 0.21-0.142 0.345-0.142 0.25 0.047 0.345 0.142 0.143 0.21 0.143 0.345-0.048 0.25-0.143 0.345zm0 4.598h-0.69v-3.675h0.69v3.675z"
     style="fill-rule:nonzero;fill:#fff"
     id="path14" />
  <path
     d="m38.896 58.989c-0.41 0-0.75-0.1-1.02-0.3-0.265-0.2-0.46-0.45-0.585-0.75l0.615-0.255c0.195 0.46 0.527 0.69 0.997 0.69 0.215 0 0.39-0.048 0.525-0.143 0.14-0.095 0.21-0.22 0.21-0.375 0-0.24-0.167-0.402-0.502-0.487l-0.743-0.18c-0.235-0.06-0.457-0.173-0.667-0.338-0.21-0.17-0.315-0.397-0.315-0.682 0-0.325 0.142-0.588 0.427-0.788 0.29-0.205 0.633-0.307 1.028-0.307 0.325 0 0.615 0.075 0.87 0.225 0.255 0.145 0.437 0.355 0.547 0.63l-0.6 0.247c-0.135-0.325-0.415-0.487-0.84-0.487-0.205 0-0.377 0.042-0.517 0.127s-0.21 0.2-0.21 0.345c0 0.21 0.162 0.353 0.487 0.428l0.728 0.172c0.345 0.08 0.6 0.218 0.765 0.413s0.247 0.415 0.247 0.66c0 0.33-0.135 0.605-0.405 0.825s-0.617 0.33-1.042 0.33z"
     style="fill-rule:nonzero;fill:#fff"
     id="path16" />
  <path
     d="m42.49 58.929c-0.385 0-0.68-0.103-0.885-0.308-0.2-0.205-0.3-0.495-0.3-0.87v-1.927h-0.645v-0.63h0.645v-1.125h0.69v1.125h0.9v0.63h-0.9v1.875c0 0.4 0.165 0.6 0.495 0.6 0.125 0 0.23-0.02 0.315-0.06l0.24 0.592c-0.15 0.065-0.335 0.098-0.555 0.098z"
     style="fill-rule:nonzero;fill:#fff"
     id="path18" />
  <path
     d="m29.44 17.546c-0.768 0.215-1.386 1.072-1.386 1.903v13.191c-0.778-0.427-1.777-0.6-2.813-0.318-1.87 0.509-3.042 2.153-2.641 3.672 0.401 1.518 2.243 2.367 4.112 1.858 1.492-0.406 2.52-1.554 2.684-2.765l0.044-12.465 9.696-2.719v9.836c-0.778-0.427-1.777-0.6-2.813-0.318-1.87 0.509-3.042 2.153-2.641 3.672s2.243 2.367 4.112 1.858c1.492-0.406 2.52-1.554 2.684-2.765l0.044-16.227c0-0.624-0.369-1.09-0.866-1.178l-10.216 2.765z"
     style="fill-rule:nonzero;fill:#fff"
     id="path20" />
  <defs
     id="defs27">
    <linearGradient
       id="_Linear1"
       x2="1"
       gradientTransform="matrix(0,-49.619,49.619,0,396.55,51.088)"
       gradientUnits="userSpaceOnUse">
      <stop
         style="stop-color:#348692"
         offset="0"
         id="stop22" />
      <stop
         style="stop-color:#d59cff"
         offset="1"
         id="stop24" />
    </linearGradient>
    <linearGradient
       inkscape:collect="always"
       xlink:href="#_Linear1"
       id="linearGradient965"
       gradientUnits="userSpaceOnUse"
       gradientTransform="matrix(0,-49.619,49.619,0,396.55,51.088)"
       x2="1" />
  </defs>
</svg>
