<?xml version="1.0" encoding="UTF-8" standalone="no"?>
<svg
   style="clip-rule:evenodd;fill-rule:evenodd;stroke-linejoin:round;stroke-miterlimit:2"
   viewBox="0 0 64 64"
   version="1.1"
   id="svg31"
   sodipodi:docname="application-vnd.appimage.svg"
   inkscape:version="1.1.2 (0a00cf5339, 2022-02-04)"
   xmlns:inkscape="http://www.inkscape.org/namespaces/inkscape"
   xmlns:sodipodi="http://sodipodi.sourceforge.net/DTD/sodipodi-0.dtd"
   xmlns:xlink="http://www.w3.org/1999/xlink"
   xmlns="http://www.w3.org/2000/svg"
   xmlns:svg="http://www.w3.org/2000/svg">
  <sodipodi:namedview
     id="namedview33"
     pagecolor="#ffffff"
     bordercolor="#666666"
     borderopacity="1.0"
     inkscape:pageshadow="2"
     inkscape:pageopacity="0.0"
     inkscape:pagecheckerboard="0"
     showgrid="false"
     inkscape:zoom="10.671875"
     inkscape:cx="37.622255"
     inkscape:cy="33.592972"
     inkscape:window-width="945"
     inkscape:window-height="1026"
     inkscape:window-x="965"
     inkscape:window-y="44"
     inkscape:window-maximized="1"
     inkscape:current-layer="svg31" />
  <path
     id="path2"
     style="fill:url(#linearGradient2022)"
     d="M 17.617188 1.46875 C 15.597188 1.46875 13.659469 2.2712188 12.230469 3.6992188 C 10.802469 5.1282186 10 7.0678906 10 9.0878906 L 10 13.734375 L 10 54.382812 C 10 56.402814 10.802469 58.340531 12.230469 59.769531 C 13.659469 61.197531 15.597187 62 17.617188 62 L 46.382812 62 C 48.402814 62 50.340531 61.197531 51.769531 59.769531 C 53.197531 58.340531 54 56.402814 54 54.382812 L 54 13.734375 L 54 9.0878906 C 54 7.0678906 53.197531 5.1282186 51.769531 3.6992188 C 50.340531 2.2712188 48.402813 1.46875 46.382812 1.46875 L 37.912109 1.46875 L 26.087891 1.46875 L 17.617188 1.46875 z " />
  <path
     id="path914"
     style="clip-rule:evenodd;fill:#3f546c;fill-opacity:1;fill-rule:evenodd;stroke-width:1;stroke-linejoin:round;stroke-miterlimit:2"
     d="m 10,50.982422 v 3.40039 c 0,2.020002 0.802469,3.957719 2.230469,5.386719 1.429,1.428 3.366717,2.230469 5.386719,2.230469 h 28.765624 c 2.020002,0 3.957719,-0.802469 5.386719,-2.230469 C 53.197531,58.340531 54,56.402814 54,54.382812 v -3.40039 z" />
  <path
     d="m29.187 12.168v5.625h-2.988l5.801 6.563 5.801-6.563h-2.989v-5.625h-5.625z"
     style="fill-rule:nonzero;fill:#3f546c"
     id="path4" />
  <path
     d="m30.975 25.293c-0.162 0-0.264 0.277-0.264 0.616v2.138c-0.653 0.149-1.267 0.415-1.816 0.762l-1.524-1.523c-0.239-0.24-0.5-0.349-0.615-0.235l-1.436 1.436c-0.114 0.114-5e-3 0.375 0.235 0.615l1.523 1.523c-0.347 0.55-0.613 1.164-0.762 1.817h-2.138c-0.339 0-0.615 0.101-0.615 0.264v2.05c0 0.162 0.276 0.264 0.615 0.264h2.138c0.149 0.653 0.415 1.267 0.762 1.816l-1.523 1.524c-0.24 0.239-0.349 0.5-0.235 0.615l1.436 1.436c0.115 0.114 0.376 5e-3 0.615-0.235l1.524-1.523c0.549 0.347 1.163 0.613 1.816 0.762v2.138c0 0.339 0.102 0.615 0.264 0.615h2.05c0.162 0 0.264-0.276 0.264-0.615v-2.138c0.653-0.149 1.267-0.415 1.816-0.762l1.524 1.523c0.239 0.24 0.501 0.349 0.615 0.235l1.436-1.436c0.114-0.115 5e-3 -0.376-0.235-0.615l-1.523-1.524c0.347-0.549 0.613-1.163 0.762-1.816h2.138c0.339 0 0.615-0.102 0.615-0.264v-2.05c0-0.163-0.276-0.264-0.615-0.264h-2.138c-0.149-0.653-0.415-1.267-0.762-1.817l1.523-1.523c0.24-0.24 0.349-0.501 0.235-0.615l-1.436-1.436c-0.114-0.114-0.376-5e-3 -0.615 0.235l-1.524 1.523c-0.549-0.347-1.163-0.613-1.816-0.762v-2.138c0-0.339-0.102-0.616-0.264-0.616h-2.05zm1.025 5.831c1.433 0 2.607 1.174 2.607 2.607s-1.174 2.607-2.607 2.607-2.607-1.174-2.607-2.607 1.174-2.607 2.607-2.607z"
     style="fill-rule:nonzero;fill:#3f546c"
     id="path6" />
  <path
     d="m17.379 58.832c-0.047-0.102-0.081-0.25-0.102-0.445-0.135 0.143-0.304 0.267-0.507 0.371-0.204 0.101-0.435 0.152-0.696 0.152-0.432 0-0.778-0.121-1.039-0.363-0.26-0.242-0.39-0.539-0.39-0.891 0-0.453 0.171-0.797 0.515-1.031 0.344-0.237 0.806-0.355 1.387-0.355h0.715v-0.336c0-0.25-0.076-0.45-0.227-0.598-0.148-0.151-0.37-0.227-0.664-0.227-0.273 0-0.495 0.068-0.664 0.203-0.167 0.133-0.25 0.288-0.25 0.465h-0.723c0-0.302 0.153-0.586 0.457-0.851 0.305-0.266 0.713-0.399 1.223-0.399 0.458 0 0.835 0.118 1.129 0.352s0.441 0.588 0.441 1.062v1.969c0 0.141 0.012 0.291 0.036 0.449 0.026 0.159 0.063 0.296 0.113 0.411v0.062h-0.754zm-1.199-0.555c0.26 0 0.485-0.065 0.675-0.195 0.193-0.13 0.329-0.275 0.407-0.434v-0.871h-0.598c-0.862 0-1.293 0.261-1.293 0.782 0 0.2 0.068 0.371 0.203 0.511 0.136 0.138 0.337 0.207 0.606 0.207z"
     style="fill-opacity:.98;fill-rule:nonzero;fill:#fff"
     id="path8" />
  <path
     d="m21.059 58.91c-0.508 0-0.911-0.163-1.207-0.488v2.035h-0.727v-5.852h0.664l0.035 0.465c0.297-0.362 0.705-0.543 1.223-0.543 0.534 0 0.943 0.198 1.226 0.594 0.284 0.396 0.426 0.917 0.426 1.563v0.082c0 0.617-0.143 1.129-0.429 1.535-0.284 0.406-0.688 0.609-1.211 0.609zm-0.223-3.773c-0.245 0-0.447 0.056-0.606 0.168-0.158 0.109-0.285 0.247-0.378 0.414v2.023c0.096 0.167 0.222 0.305 0.378 0.414 0.159 0.107 0.364 0.16 0.614 0.16 0.39 0 0.676-0.153 0.855-0.461 0.183-0.307 0.274-0.67 0.274-1.089v-0.082c0-0.42-0.091-0.782-0.274-1.086-0.179-0.308-0.467-0.461-0.863-0.461z"
     style="fill-opacity:.98;fill-rule:nonzero;fill:#fff"
     id="path10" />
  <path
     d="m25.559 58.91c-0.508 0-0.911-0.163-1.207-0.488v2.035h-0.727v-5.852h0.664l0.035 0.465c0.297-0.362 0.705-0.543 1.223-0.543 0.534 0 0.943 0.198 1.226 0.594 0.284 0.396 0.426 0.917 0.426 1.563v0.082c0 0.617-0.143 1.129-0.429 1.535-0.284 0.406-0.688 0.609-1.211 0.609zm-0.223-3.773c-0.245 0-0.447 0.056-0.606 0.168-0.158 0.109-0.285 0.247-0.378 0.414v2.023c0.096 0.167 0.222 0.305 0.378 0.414 0.159 0.107 0.364 0.16 0.614 0.16 0.39 0 0.676-0.153 0.855-0.461 0.183-0.307 0.274-0.67 0.274-1.089v-0.082c0-0.42-0.091-0.782-0.274-1.086-0.179-0.308-0.467-0.461-0.863-0.461z"
     style="fill-opacity:.98;fill-rule:nonzero;fill:#fff"
     id="path12" />
  <path
     d="m28.133 53.484c0-0.117 0.035-0.216 0.105-0.297 0.073-0.08 0.18-0.121 0.321-0.121 0.138 0 0.243 0.041 0.316 0.121 0.076 0.081 0.113 0.18 0.113 0.297 0 0.112-0.037 0.209-0.113 0.289-0.073 0.079-0.178 0.118-0.316 0.118-0.141 0-0.248-0.039-0.321-0.118-0.07-0.08-0.105-0.177-0.105-0.289zm0.781 1.121v4.227h-0.727v-4.227h0.727z"
     style="fill-opacity:.98;fill-rule:nonzero;fill:#fff"
     id="path14" />
  <path
     d="m31.773 55.137c-0.257 0-0.464 0.054-0.621 0.164-0.156 0.109-0.273 0.254-0.351 0.433v3.098h-0.727v-4.227h0.688l0.019 0.461c0.305-0.359 0.722-0.539 1.25-0.539 0.271 0 0.512 0.055 0.723 0.164 0.213 0.107 0.376 0.279 0.488 0.516 0.141-0.203 0.323-0.367 0.547-0.492 0.227-0.125 0.492-0.188 0.797-0.188 0.453 0 0.802 0.121 1.047 0.364 0.247 0.242 0.371 0.63 0.371 1.164v2.777h-0.727v-2.785c0-0.354-0.082-0.594-0.246-0.719-0.161-0.127-0.38-0.191-0.656-0.191-0.292 0-0.521 0.087-0.688 0.261-0.166 0.172-0.263 0.382-0.289 0.629v2.805h-0.722v-2.781c0-0.331-0.082-0.565-0.246-0.703-0.164-0.141-0.383-0.211-0.657-0.211z"
     style="fill-opacity:.98;fill-rule:nonzero;fill:#fff"
     id="path16" />
  <path
     d="m39.707 58.832c-0.047-0.102-0.081-0.25-0.102-0.445-0.135 0.143-0.304 0.267-0.507 0.371-0.203 0.101-0.435 0.152-0.696 0.152-0.432 0-0.778-0.121-1.039-0.363-0.26-0.242-0.39-0.539-0.39-0.891 0-0.453 0.172-0.797 0.515-1.031 0.344-0.237 0.806-0.355 1.387-0.355h0.715v-0.336c0-0.25-0.076-0.45-0.227-0.598-0.148-0.151-0.37-0.227-0.664-0.227-0.273 0-0.495 0.068-0.664 0.203-0.167 0.133-0.25 0.288-0.25 0.465h-0.723c0-0.302 0.153-0.586 0.458-0.851 0.304-0.266 0.712-0.399 1.222-0.399 0.459 0 0.835 0.118 1.129 0.352s0.441 0.588 0.441 1.062v1.969c0 0.141 0.012 0.291 0.036 0.449 0.026 0.159 0.063 0.296 0.113 0.411v0.062h-0.754zm-1.199-0.555c0.26 0 0.485-0.065 0.676-0.195 0.192-0.13 0.328-0.275 0.406-0.434v-0.871h-0.598c-0.862 0-1.293 0.261-1.293 0.782 0 0.2 0.068 0.371 0.203 0.511 0.136 0.138 0.338 0.207 0.606 0.207z"
     style="fill-opacity:.98;fill-rule:nonzero;fill:#fff"
     id="path18" />
  <path
     d="m44.852 58.742c0 0.56-0.167 0.992-0.5 1.297-0.334 0.307-0.763 0.461-1.29 0.461-0.218 0-0.486-0.053-0.804-0.16s-0.572-0.298-0.762-0.574l0.379-0.43c0.177 0.216 0.362 0.365 0.555 0.445 0.192 0.084 0.385 0.125 0.578 0.125 0.341 0 0.613-0.096 0.816-0.289 0.203-0.19 0.305-0.47 0.305-0.84v-0.371c-0.287 0.336-0.681 0.504-1.184 0.504-0.508 0-0.911-0.203-1.211-0.609-0.299-0.406-0.449-0.918-0.449-1.535v-0.082c0-0.646 0.149-1.167 0.445-1.563 0.3-0.396 0.707-0.594 1.223-0.594 0.518 0 0.921 0.183 1.207 0.547l0.035-0.469h0.657v4.137zm-2.844-1.976c0 0.419 0.087 0.78 0.262 1.082 0.177 0.299 0.46 0.449 0.851 0.449 0.258 0 0.466-0.059 0.625-0.176 0.162-0.117 0.289-0.267 0.383-0.449v-1.926c-0.091-0.174-0.218-0.319-0.379-0.433-0.161-0.118-0.368-0.176-0.621-0.176-0.393 0-0.678 0.153-0.856 0.461-0.177 0.304-0.265 0.666-0.265 1.086v0.082z"
     style="fill-opacity:.98;fill-rule:nonzero;fill:#fff"
     id="path20" />
  <path
     d="m49.301 58.094c-0.138 0.208-0.334 0.397-0.586 0.566-0.253 0.167-0.587 0.25-1.004 0.25-0.589 0-1.06-0.191-1.414-0.574-0.352-0.383-0.527-0.872-0.527-1.469v-0.164c0-0.461 0.087-0.853 0.261-1.176 0.177-0.325 0.406-0.573 0.688-0.742 0.281-0.172 0.58-0.258 0.898-0.258 0.604 0 1.044 0.198 1.32 0.594 0.279 0.393 0.418 0.886 0.418 1.477v0.324h-2.859c0.011 0.388 0.125 0.719 0.344 0.992 0.221 0.271 0.525 0.406 0.91 0.406 0.255 0 0.471-0.052 0.648-0.156 0.178-0.104 0.332-0.243 0.465-0.418l0.438 0.348zm-1.684-2.973c-0.286 0-0.528 0.104-0.726 0.313-0.198 0.208-0.322 0.507-0.371 0.898h2.113v-0.055c-0.018-0.281-0.1-0.544-0.246-0.789-0.144-0.245-0.4-0.367-0.77-0.367z"
     style="fill-opacity:.98;fill-rule:nonzero;fill:#fff"
     id="path22" />
  <defs
     id="defs29">
    <linearGradient
       id="_Linear1"
       x2="1"
       gradientTransform="matrix(0,-49.619,49.619,0,104.99,51.088)"
       gradientUnits="userSpaceOnUse">
      <stop
         style="stop-color:#5498c5"
         offset="0"
         id="stop24" />
      <stop
         style="stop-color:#b4d2e5"
         offset="1"
         id="stop26" />
    </linearGradient>
    <linearGradient
       inkscape:collect="always"
       xlink:href="#_Linear1"
       id="linearGradient2022"
       gradientUnits="userSpaceOnUse"
       gradientTransform="matrix(0,-49.619,49.619,0,104.99,51.088)"
       x2="1" />
  </defs>
</svg>
