<?xml version="1.0" encoding="UTF-8" standalone="no"?>
<svg
   clip-rule="evenodd"
   fill-rule="evenodd"
   stroke-linejoin="round"
   stroke-miterlimit="2"
   viewBox="0 0 64 64"
   version="1.1"
   id="svg11"
   sodipodi:docname="application-rss_xml.svg"
   inkscape:version="1.1.2 (0a00cf5339, 2022-02-04)"
   xmlns:inkscape="http://www.inkscape.org/namespaces/inkscape"
   xmlns:sodipodi="http://sodipodi.sourceforge.net/DTD/sodipodi-0.dtd"
   xmlns:xlink="http://www.w3.org/1999/xlink"
   xmlns="http://www.w3.org/2000/svg"
   xmlns:svg="http://www.w3.org/2000/svg">
  <defs
     id="defs15">
    <linearGradient
       inkscape:collect="always"
       xlink:href="#a"
       id="linearGradient949"
       gradientUnits="userSpaceOnUse"
       gradientTransform="matrix(0,-49.619,49.619,0,323.66,51.088)"
       x2="1" />
  </defs>
  <sodipodi:namedview
     id="namedview13"
     pagecolor="#ffffff"
     bordercolor="#666666"
     borderopacity="1.0"
     inkscape:pageshadow="2"
     inkscape:pageopacity="0.0"
     inkscape:pagecheckerboard="0"
     showgrid="false"
     inkscape:zoom="10.671875"
     inkscape:cx="28.532943"
     inkscape:cy="32"
     inkscape:window-width="945"
     inkscape:window-height="1026"
     inkscape:window-x="965"
     inkscape:window-y="44"
     inkscape:window-maximized="1"
     inkscape:current-layer="svg11" />
  <linearGradient
     id="a"
     x2="1"
     gradientTransform="matrix(0,-49.619,49.619,0,323.66,51.088)"
     gradientUnits="userSpaceOnUse">
    <stop
       stop-color="#e77b11"
       offset="0"
       id="stop2" />
    <stop
       stop-color="#ddaa23"
       offset="1"
       id="stop4" />
  </linearGradient>
  <path
     id="path7"
     style="fill:url(#linearGradient949)"
     d="M 17.617188 1.46875 C 15.597188 1.46875 13.659469 2.2712188 12.230469 3.6992188 C 10.802469 5.1282186 10 7.0678906 10 9.0878906 L 10 14.830078 L 10 54.382812 C 10 56.402814 10.802469 58.340531 12.230469 59.769531 C 13.659469 61.197531 15.597187 62 17.617188 62 L 46.382812 62 C 48.402814 62 50.340531 61.197531 51.769531 59.769531 C 53.197531 58.340531 54 56.402814 54 54.382812 L 54 14.830078 L 54 9.0878906 C 54 7.0678906 53.197531 5.1282186 51.769531 3.6992188 C 50.340531 2.2712188 48.402813 1.46875 46.382812 1.46875 L 37.490234 1.46875 L 26.509766 1.46875 L 17.617188 1.46875 z " />
  <path
     d="m 14.403166,44.654903 c 0,-0.764395 0.26183,-1.407181 0.791694,-1.922154 0.506287,-0.517456 1.204914,-0.802863 1.928359,-0.787972 0.745781,0 1.373676,0.26183 1.889891,0.787972 0.5249,0.514973 0.787971,1.157759 0.787971,1.922154 0.01117,0.715999 -0.274239,1.405939 -0.787971,1.904781 -0.49636,0.507528 -1.180096,0.787972 -1.889891,0.773081 -0.720963,0.01613 -1.418349,-0.264312 -1.928359,-0.773081 -0.517455,-0.49636 -0.805344,-1.187541 -0.791694,-1.904781 M 14.248054,32.413424 v 4.511913 c 5.759016,0 10.434728,4.685638 10.434728,10.454582 h 4.521839 c 0,-8.263153 -6.707064,-14.961531 -14.961531,-14.961531 z m 0.005,-9.857709 v 4.984695 c 10.872766,0.01365 19.81345,8.965502 19.810969,19.839509 h 4.999586 C 39.06109,33.768487 27.864449,22.565642 14.253017,22.555715 Z"
     fill="#ffffff"
     fill-opacity="0.7"
     fill-rule="nonzero"
     id="path9"
     style="stroke-width:1.2409" />
  <path
     id="path914"
     style="clip-rule:evenodd;fill:#692c0b;fill-opacity:1;fill-rule:evenodd;stroke-width:1;stroke-linejoin:round;stroke-miterlimit:2"
     d="m 9.9999999,50.982422 v 3.40039 c 0,2.020002 0.8024691,3.957719 2.2304691,5.386719 1.429,1.428 3.366717,2.230469 5.386719,2.230469 h 28.765624 c 2.020002,0 3.957719,-0.802469 5.386719,-2.230469 C 53.197531,58.340531 54,56.402814 54,54.382812 v -3.40039 z" />
</svg>
