<?xml version="1.0" encoding="UTF-8" standalone="no"?>
<svg
   style="clip-rule:evenodd;fill-rule:evenodd;stroke-linecap:round;stroke-linejoin:round"
   viewBox="0 0 64 64"
   version="1.1"
   id="svg29"
   sodipodi:docname="application-image-psd.svg"
   inkscape:version="1.1.2 (0a00cf5339, 2022-02-04)"
   xmlns:inkscape="http://www.inkscape.org/namespaces/inkscape"
   xmlns:sodipodi="http://sodipodi.sourceforge.net/DTD/sodipodi-0.dtd"
   xmlns:xlink="http://www.w3.org/1999/xlink"
   xmlns="http://www.w3.org/2000/svg"
   xmlns:svg="http://www.w3.org/2000/svg">
  <sodipodi:namedview
     id="namedview31"
     pagecolor="#ffffff"
     bordercolor="#666666"
     borderopacity="1.0"
     inkscape:pageshadow="2"
     inkscape:pageopacity="0.0"
     inkscape:pagecheckerboard="0"
     showgrid="false"
     inkscape:zoom="10.671875"
     inkscape:cx="33.780381"
     inkscape:cy="34.061493"
     inkscape:window-width="945"
     inkscape:window-height="1026"
     inkscape:window-x="965"
     inkscape:window-y="44"
     inkscape:window-maximized="1"
     inkscape:current-layer="svg29" />
  <path
     id="path2"
     style="fill:url(#linearGradient3221)"
     d="M 17.617188 1.46875 C 15.597188 1.46875 13.659469 2.2712188 12.230469 3.6992188 C 10.802469 5.1282186 10 7.0678906 10 9.0878906 L 10 14.96875 L 10 54.382812 C 10 56.402814 10.802469 58.340531 12.230469 59.769531 C 13.659469 61.197531 15.597187 62 17.617188 62 L 46.382812 62 C 48.402814 62 50.340531 61.197531 51.769531 59.769531 C 53.197531 58.340531 54 56.402814 54 54.382812 L 54 14.96875 L 54 9.0878906 C 54 7.0678906 53.197531 5.1282186 51.769531 3.6992188 C 50.340531 2.2712188 48.402813 1.46875 46.382812 1.46875 L 42.220703 1.46875 L 21.779297 1.46875 L 17.617188 1.46875 z " />
  <path
     id="path914"
     style="clip-rule:evenodd;fill:#123167;fill-opacity:1;fill-rule:evenodd;stroke-width:1;stroke-linejoin:round;stroke-miterlimit:2"
     d="m 10,50.982422 v 3.40039 c 0,2.020002 0.802469,3.957719 2.230469,5.386719 1.429,1.428 3.366717,2.230469 5.386719,2.230469 h 28.765624 c 2.020002,0 3.957719,-0.802469 5.386719,-2.230469 C 53.197531,58.340531 54,56.402814 54,54.382812 v -3.40039 z" />
  <path
     d="m26.731 60.51h-0.754v-5.786h0.721v0.557h0.033c0.12-0.196 0.3-0.36 0.541-0.491 0.246-0.132 0.522-0.197 0.828-0.197 0.519 0 0.967 0.205 1.344 0.615 0.377 0.409 0.565 0.917 0.565 1.524 0 0.606-0.188 1.114-0.565 1.524s-0.825 0.615-1.344 0.615c-0.306 0-0.582-0.066-0.828-0.197-0.241-0.131-0.421-0.295-0.541-0.492h-0.033l0.033 0.558v1.77zm5.412-1.639c-0.448 0-0.819-0.109-1.114-0.328-0.29-0.218-0.503-0.492-0.639-0.819l0.672-0.279c0.213 0.503 0.576 0.754 1.09 0.754 0.234 0 0.426-0.052 0.573-0.156 0.153-0.104 0.23-0.24 0.23-0.41 0-0.262-0.183-0.439-0.549-0.532l-0.812-0.197c-0.257-0.066-0.5-0.189-0.729-0.369-0.23-0.186-0.344-0.434-0.344-0.746 0-0.355 0.155-0.642 0.467-0.86 0.317-0.224 0.691-0.336 1.123-0.336 0.355 0 0.672 0.082 0.95 0.246 0.279 0.158 0.478 0.388 0.599 0.688l-0.656 0.271c-0.148-0.356-0.454-0.533-0.918-0.533-0.224 0-0.413 0.046-0.566 0.139-0.152 0.093-0.229 0.219-0.229 0.377 0 0.23 0.178 0.385 0.533 0.467l0.795 0.189c0.377 0.087 0.655 0.238 0.836 0.451 0.18 0.213 0.27 0.453 0.27 0.721 0 0.36-0.147 0.661-0.442 0.901-0.296 0.241-0.675 0.361-1.14 0.361zm6.089-0.131h-0.721v-0.558h-0.033c-0.12 0.197-0.303 0.361-0.549 0.492-0.24 0.131-0.514 0.197-0.82 0.197-0.519 0-0.967-0.205-1.344-0.615s-0.565-0.918-0.565-1.524c0-0.607 0.188-1.115 0.565-1.524 0.377-0.41 0.825-0.615 1.344-0.615 0.306 0 0.58 0.065 0.82 0.197 0.246 0.131 0.429 0.295 0.549 0.491h0.033l-0.033-0.557v-1.852h0.754v5.868zm-10.255-0.558c0.349 0 0.65-0.131 0.901-0.393 0.252-0.268 0.377-0.62 0.377-1.057s-0.125-0.787-0.377-1.049c-0.251-0.268-0.552-0.402-0.901-0.402-0.355 0-0.659 0.131-0.91 0.394-0.246 0.262-0.369 0.614-0.369 1.057 0 0.442 0.123 0.795 0.369 1.057 0.251 0.262 0.555 0.393 0.91 0.393zm8.255 0c0.356 0 0.656-0.131 0.902-0.393 0.251-0.262 0.377-0.615 0.377-1.057 0-0.443-0.126-0.795-0.377-1.057-0.246-0.263-0.546-0.394-0.902-0.394-0.349 0-0.65 0.134-0.901 0.402-0.251 0.262-0.377 0.612-0.377 1.049s0.126 0.789 0.377 1.057c0.251 0.262 0.552 0.393 0.901 0.393z"
     style="fill-rule:nonzero;fill:#fff"
     id="path4" />
  <path
     d="m42.466 15.996l-19.935 0.125 0.096 15.31 19.935-0.125-0.096-15.31z"
     style="fill:#00358e"
     id="path6" />
  <path
     d="m39.523 19.795l-19.623 3.516 2.7 15.07 19.623-3.516-2.7-15.07z"
     style="fill:#0c63a4;stroke-width:.49px;stroke:#00358e"
     id="path8" />
  <path
     d="m22.264 36.458l3.504-1.856 1.316 0.581 2.561-1.437 2.847 0.412 2.01 0.064 1.397-0.783 1.751-0.794 3.155 0.585 0.25 1.461-17.708 3.323s-0.767 0.29-0.883-0.388l-0.2-1.168z"
     style="fill:#00358e"
     id="path10" />
  <path
     d="m24.609 24.508c1.07-0.192 2.096 0.521 2.287 1.592 0.192 1.071-0.521 2.096-1.592 2.288s-2.096-0.522-2.288-1.593c-0.192-1.07 0.522-2.096 1.593-2.287z"
     style="fill:#00358e"
     id="path12" />
  <path
     d="m36.716 28.374c2.976-0.514 5.809 1.484 6.323 4.46 0.514 2.975-1.485 5.809-4.46 6.322-2.976 0.514-5.809-1.484-6.323-4.46-0.514-2.975 1.485-5.809 4.46-6.322z"
     style="fill:#127bb0;stroke-width:.57px;stroke:#003564"
     id="path14" />
  <path
     d="m34.858 38.307l2.097-7.091c1.865 1.385 5.865 2.065 5.865 2.065l0.502 0.562c-1.1 5.917-4.627 5.75-8.464 4.464z"
     style="fill:#00358e"
     id="path16" />
  <path
     d="m36.684 28.315c2.975-0.514 5.809 1.485 6.323 4.46 0.513 2.976-1.485 5.809-4.461 6.323-2.975 0.514-5.808-1.485-6.322-4.46-0.514-2.976 1.484-5.809 4.46-6.323z"
     style="fill:none;stroke-width:.57px;stroke:#00358e"
     id="path18" />
  <path
     d="m23.583 43.896l-1.411-0.317-1.061 0.982-0.135-1.44-1.262-0.705 1.328-0.573 0.281-1.419 0.955 1.086 1.436-0.171-0.738 1.244 0.607 1.313zm-3.839-2.833l-1.69-0.38-1.271 1.177-0.162-1.725-1.512-0.845 1.591-0.686 0.336-1.699 1.144 1.3 1.72-0.205-0.883 1.49 0.727 1.573zm28.483-23.75l-1.411-0.317-1.061 0.983-0.134-1.44-1.263-0.706 1.328-0.573 0.281-1.419 0.955 1.086 1.436-0.171-0.737 1.244 0.606 1.313zm-3.839-2.833l-1.69-0.38-1.271 1.177-0.162-1.724-1.512-0.845 1.591-0.687 0.336-1.699 1.144 1.3 1.721-0.205-0.884 1.49 0.727 1.573zm4.268-2.915l-1.548-0.348-1.165 1.079-0.147-1.58-1.386-0.774 1.457-0.629 0.309-1.557 1.048 1.192 1.576-0.188-0.81 1.365 0.666 1.44z"
     style="fill:#00358e"
     id="path20" />
  <defs
     id="defs27">
    <linearGradient
       id="_Linear1"
       x2="1"
       gradientTransform="matrix(0,-49.619,49.619,0,542.33,51.088)"
       gradientUnits="userSpaceOnUse">
      <stop
         style="stop-color:#00358e"
         offset="0"
         id="stop22" />
      <stop
         style="stop-color:#1c9fc1"
         offset="1"
         id="stop24" />
    </linearGradient>
    <linearGradient
       inkscape:collect="always"
       xlink:href="#_Linear1"
       id="linearGradient3221"
       gradientUnits="userSpaceOnUse"
       gradientTransform="matrix(0,-49.619,49.619,0,542.33,51.088)"
       x2="1" />
  </defs>
</svg>
