<?xml version="1.0" encoding="UTF-8" standalone="no"?>
<svg
   style="clip-rule:evenodd;fill-rule:evenodd;stroke-linecap:round;stroke-linejoin:round;stroke-miterlimit:1.5"
   viewBox="0 0 64 64"
   version="1.1"
   id="svg19"
   sodipodi:docname="application-xps.svg"
   inkscape:version="1.1.2 (0a00cf5339, 2022-02-04)"
   xmlns:inkscape="http://www.inkscape.org/namespaces/inkscape"
   xmlns:sodipodi="http://sodipodi.sourceforge.net/DTD/sodipodi-0.dtd"
   xmlns:xlink="http://www.w3.org/1999/xlink"
   xmlns="http://www.w3.org/2000/svg"
   xmlns:svg="http://www.w3.org/2000/svg">
  <sodipodi:namedview
     id="namedview21"
     pagecolor="#ffffff"
     bordercolor="#666666"
     borderopacity="1.0"
     inkscape:pageshadow="2"
     inkscape:pageopacity="0.0"
     inkscape:pagecheckerboard="0"
     showgrid="false"
     inkscape:zoom="10.65625"
     inkscape:cx="32"
     inkscape:cy="32"
     inkscape:window-width="1896"
     inkscape:window-height="1022"
     inkscape:window-x="12"
     inkscape:window-y="46"
     inkscape:window-maximized="1"
     inkscape:current-layer="svg19" />
  <path
     id="path2"
     style="fill:url(#linearGradient4818)"
     d="M 17.617188 1.46875 C 15.597188 1.46875 13.659469 2.2712188 12.230469 3.6992188 C 10.802469 5.1282186 10 7.0678906 10 9.0878906 L 10 14.498047 L 10 54.382812 C 10 56.402814 10.802469 58.340531 12.230469 59.769531 C 13.659469 61.197531 15.597187 62 17.617188 62 L 46.382812 62 C 48.402814 62 50.340531 61.197531 51.769531 59.769531 C 53.197531 58.340531 54 56.402814 54 54.382812 L 54 14.498047 L 54 9.0878906 C 54 7.0678906 53.197531 5.1282186 51.769531 3.6992188 C 50.340531 2.2712188 48.402813 1.46875 46.382812 1.46875 L 39.898438 1.46875 L 24.101562 1.46875 L 17.617188 1.46875 z " />
  <path
     id="path914"
     style="clip-rule:evenodd;fill:#8b3c00;fill-opacity:1;fill-rule:evenodd;stroke-width:1;stroke-linejoin:round;stroke-miterlimit:2"
     d="m 9.999999,50.982422 v 3.40039 c 0,2.020002 0.802468,3.957719 2.23047,5.386719 C 13.659467,61.197531 15.597183,62 17.617187,62 h 28.765625 c 2.020002,0 3.957718,-0.802469 5.386719,-2.230469 C 53.19753,58.340531 54,56.402814 54,54.382812 v -3.40039 z" />
  <path
     d="m 30.696,60.865211 h -1.054 v -8.607 h 0.961 v 0.808 c 0.226,-0.316 0.482,-0.554 0.767,-0.712 0.285,-0.158 0.631,-0.237 1.037,-0.237 0.531,0 1,0.137 1.406,0.41 0.407,0.274 0.713,0.659 0.92,1.157 0.207,0.498 0.311,1.044 0.311,1.638 0,0.637 -0.114,1.21 -0.343,1.72 -0.228,0.51 -0.56,0.9 -0.996,1.172 -0.435,0.271 -0.893,0.407 -1.374,0.407 -0.352,0 -0.667,-0.074 -0.946,-0.223 -0.28,-0.148 -0.509,-0.336 -0.689,-0.562 z m 5.198,-4.242 1.043,-0.164 c 0.058,0.418 0.221,0.738 0.489,0.961 0.267,0.222 0.641,0.334 1.122,0.334 0.484,0 0.844,-0.099 1.078,-0.296 0.234,-0.197 0.352,-0.429 0.352,-0.695 0,-0.238 -0.104,-0.425 -0.311,-0.562 -0.145,-0.094 -0.504,-0.213 -1.078,-0.357 -0.774,-0.196 -1.31,-0.365 -1.609,-0.507 -0.298,-0.143 -0.525,-0.34 -0.679,-0.592 -0.155,-0.252 -0.232,-0.53 -0.232,-0.835 0,-0.277 0.064,-0.534 0.191,-0.771 0.127,-0.236 0.3,-0.432 0.518,-0.588 0.164,-0.122 0.388,-0.224 0.671,-0.308 0.283,-0.084 0.587,-0.126 0.911,-0.126 0.489,0 0.917,0.07 1.286,0.211 0.37,0.141 0.642,0.331 0.818,0.571 0.176,0.24 0.297,0.562 0.363,0.964 l -1.031,0.141 c -0.047,-0.321 -0.183,-0.571 -0.407,-0.75 -0.225,-0.18 -0.542,-0.27 -0.952,-0.27 -0.485,0 -0.831,0.08 -1.038,0.24 -0.207,0.161 -0.31,0.348 -0.31,0.563 0,0.137 0.043,0.26 0.129,0.369 0.086,0.113 0.22,0.207 0.404,0.281 0.106,0.039 0.416,0.129 0.932,0.27 0.746,0.199 1.266,0.362 1.561,0.489 0.295,0.127 0.527,0.312 0.695,0.554 0.168,0.242 0.252,0.543 0.252,0.902 0,0.352 -0.103,0.683 -0.308,0.993 -0.205,0.311 -0.501,0.551 -0.888,0.721 -0.387,0.17 -0.824,0.255 -1.312,0.255 -0.809,0 -1.425,-0.168 -1.849,-0.504 -0.424,-0.336 -0.694,-0.834 -0.811,-1.494 z m -11.678,1.857 h -1.278 l 2.274,-3.234 -2.104,-2.988 h 1.319 l 0.955,1.459 c 0.18,0.277 0.324,0.509 0.433,0.697 0.172,-0.258 0.331,-0.486 0.475,-0.686 l 1.049,-1.47 h 1.26 l -2.151,2.929 2.315,3.293 h -1.295 l -1.278,-1.933 -0.339,-0.522 z m 6.381,-3.076 c 0,0.801 0.162,1.393 0.486,1.775 0.324,0.383 0.717,0.575 1.178,0.575 0.468,0 0.87,-0.199 1.204,-0.595 0.334,-0.397 0.501,-1.011 0.501,-1.843 0,-0.793 -0.163,-1.387 -0.489,-1.781 -0.327,-0.395 -0.716,-0.592 -1.169,-0.592 -0.45,0 -0.847,0.21 -1.193,0.63 -0.345,0.42 -0.518,1.03 -0.518,1.831 z"
     style="fill:#ffffff;fill-rule:nonzero"
     id="path4" />
  <path
     d="m20.353 30.927 19.258-13.595-0.257 18.206-7.871-0.557-2.782 3.101-3.021-5.088-5.327-2.067z"
     style="fill:none;stroke-width:1px;stroke:#8b3c00"
     id="path6" />
  <path
     d="m25.897 32.785 13.418-14.864"
     style="fill:none;stroke-width:.4px;stroke:#8b3c00"
     id="path8" />
  <path
     d="m31.435 34.764 7.999-17.035"
     style="fill:none;stroke-width:.4px;stroke:#8b3c00"
     id="path10" />
  <defs
     id="defs17">
    <linearGradient
       id="_Linear1"
       x2="1"
       gradientTransform="matrix(0,-49.619,49.619,0,542.33,51.088)"
       gradientUnits="userSpaceOnUse">
      <stop
         style="stop-color:#aa4900"
         offset="0"
         id="stop12" />
      <stop
         style="stop-color:#ffb264"
         offset="1"
         id="stop14" />
    </linearGradient>
    <linearGradient
       inkscape:collect="always"
       xlink:href="#_Linear1"
       id="linearGradient4818"
       gradientUnits="userSpaceOnUse"
       gradientTransform="matrix(0,-49.619,49.619,0,542.33,51.088)"
       x2="1" />
  </defs>
</svg>
