<?xml version="1.0" encoding="UTF-8" standalone="no"?>
<svg
   style="clip-rule:evenodd;fill-rule:evenodd;stroke-linejoin:round;stroke-miterlimit:2"
   viewBox="0 0 64 64"
   version="1.1"
   id="svg19"
   sodipodi:docname="application-x-ms-shortcut.svg"
   inkscape:version="1.1.2 (0a00cf5339, 2022-02-04)"
   xmlns:inkscape="http://www.inkscape.org/namespaces/inkscape"
   xmlns:sodipodi="http://sodipodi.sourceforge.net/DTD/sodipodi-0.dtd"
   xmlns:xlink="http://www.w3.org/1999/xlink"
   xmlns="http://www.w3.org/2000/svg"
   xmlns:svg="http://www.w3.org/2000/svg">
  <sodipodi:namedview
     id="namedview21"
     pagecolor="#ffffff"
     bordercolor="#666666"
     borderopacity="1.0"
     inkscape:pageshadow="2"
     inkscape:pageopacity="0.0"
     inkscape:pagecheckerboard="0"
     showgrid="false"
     inkscape:zoom="10.65625"
     inkscape:cx="32"
     inkscape:cy="32"
     inkscape:window-width="1896"
     inkscape:window-height="1022"
     inkscape:window-x="12"
     inkscape:window-y="46"
     inkscape:window-maximized="1"
     inkscape:current-layer="svg19" />
  <path
     id="path2"
     style="fill:url(#linearGradient4308)"
     d="M 17.617188 1.46875 C 15.597188 1.46875 13.659469 2.2712188 12.230469 3.6992188 C 10.802469 5.1282186 10 7.0678906 10 9.0878906 L 10 12.205078 L 10 54.382812 C 10 56.402814 10.802469 58.340531 12.230469 59.769531 C 13.659469 61.197531 15.597187 62 17.617188 62 L 46.382812 62 C 48.402814 62 50.340531 61.197531 51.769531 59.769531 C 53.197531 58.340531 54 56.402814 54 54.382812 L 54 12.205078 L 54 9.0878906 C 54 7.0678906 53.197531 5.1282186 51.769531 3.6992188 C 50.340531 2.2712188 48.402813 1.46875 46.382812 1.46875 L 38.912109 1.46875 L 25.087891 1.46875 L 17.617188 1.46875 z " />
  <path
     id="path914"
     style="clip-rule:evenodd;fill:#404040;fill-opacity:1;fill-rule:evenodd;stroke-width:1;stroke-linejoin:round;stroke-miterlimit:2"
     d="m 9.999999,50.982422 v 3.40039 c 0,2.020002 0.80247,3.957719 2.23047,5.386719 C 13.659468,61.197531 15.597185,62 17.617187,62 h 28.765625 c 2.020002,0 3.957718,-0.802469 5.386719,-2.230469 C 53.19753,58.340531 54,56.402814 54,54.382812 v -3.40039 z" />
  <path
     d="m 40.933,21.968299 c 2.038,0 3.692,1.654 3.692,3.692 v 7.385 c 0,2.038 -1.654,3.692 -3.692,3.692 H 23.067 c -2.038,0 -3.692,-1.654 -3.692,-3.692 v -7.385 c 0,-2.038 1.654,-3.692 3.692,-3.692 z m -8.933,2.44 c 2.729,0 4.945,2.216 4.945,4.945 0,2.729 -2.216,4.944 -4.945,4.944 -2.729,0 -4.945,-2.215 -4.945,-4.944 0,-2.729 2.216,-4.945 4.945,-4.945 z"
     style="fill:#dddddd"
     id="path4" />
  <path
     d="m25.747 57.478l0.745-0.111c0.042 0.285 0.158 0.503 0.35 0.655 0.191 0.151 0.458 0.227 0.801 0.227 0.347 0 0.603-0.067 0.771-0.201 0.167-0.135 0.251-0.293 0.251-0.474 0-0.162-0.074-0.29-0.222-0.383-0.103-0.064-0.36-0.145-0.77-0.244-0.553-0.133-0.936-0.248-1.15-0.345-0.213-0.098-0.375-0.232-0.485-0.404-0.111-0.172-0.166-0.361-0.166-0.569 0-0.189 0.046-0.364 0.136-0.525 0.091-0.161 0.215-0.295 0.371-0.402 0.117-0.082 0.277-0.152 0.479-0.21 0.203-0.057 0.42-0.085 0.651-0.085 0.349 0 0.656 0.048 0.919 0.143 0.264 0.096 0.459 0.226 0.585 0.39 0.125 0.164 0.212 0.383 0.259 0.657l-0.737 0.096c-0.033-0.219-0.13-0.389-0.291-0.511-0.16-0.123-0.387-0.184-0.68-0.184-0.346 0-0.593 0.054-0.741 0.164-0.148 0.109-0.222 0.237-0.222 0.383 0 0.093 0.031 0.177 0.092 0.252 0.061 0.077 0.158 0.141 0.289 0.191 0.075 0.027 0.297 0.088 0.666 0.184 0.533 0.136 0.905 0.247 1.115 0.334 0.211 0.086 0.377 0.212 0.497 0.377s0.18 0.37 0.18 0.615c0 0.24-0.074 0.466-0.22 0.677-0.147 0.212-0.358 0.376-0.634 0.492-0.277 0.116-0.589 0.174-0.938 0.174-0.578 0-1.019-0.115-1.321-0.344-0.303-0.229-0.497-0.569-0.58-1.019z"
     style="fill-rule:nonzero;fill:#fff"
     id="path6" />
  <path
     d="m30.34 58.745v-5.856h0.754v3.339l1.783-1.726h0.976l-1.7 1.574 1.871 2.669h-0.929l-1.47-2.169-0.531 0.487v1.682h-0.754z"
     style="fill-rule:nonzero;fill:#fff"
     id="path8" />
  <path
     d="m34.485 59.096l0.733 0.104c0.03 0.216 0.116 0.373 0.255 0.471 0.187 0.134 0.443 0.2 0.766 0.2 0.349 0 0.619-0.066 0.808-0.2 0.19-0.133 0.319-0.319 0.386-0.559 0.039-0.146 0.057-0.454 0.054-0.923-0.329 0.371-0.74 0.556-1.231 0.556-0.611 0-1.084-0.211-1.419-0.631-0.335-0.421-0.503-0.926-0.503-1.514 0-0.405 0.077-0.779 0.231-1.121 0.153-0.342 0.376-0.606 0.667-0.793 0.292-0.186 0.635-0.279 1.028-0.279 0.525 0 0.958 0.202 1.298 0.607v-0.512h0.695v3.667c0 0.661-0.07 1.129-0.211 1.405-0.141 0.275-0.364 0.493-0.67 0.653-0.306 0.159-0.682 0.239-1.128 0.239-0.531 0-0.959-0.113-1.286-0.341-0.326-0.228-0.484-0.571-0.473-1.029zm0.624-2.548c0 0.556 0.116 0.962 0.347 1.218 0.232 0.256 0.522 0.384 0.871 0.384 0.346 0 0.637-0.128 0.871-0.382 0.235-0.254 0.352-0.653 0.352-1.196 0-0.52-0.121-0.911-0.362-1.175-0.242-0.263-0.533-0.395-0.873-0.395-0.335 0-0.62 0.13-0.854 0.389-0.235 0.26-0.352 0.645-0.352 1.157z"
     style="fill-rule:nonzero;fill:#fff"
     id="path10" />
  <defs
     id="defs17">
    <linearGradient
       id="_Linear1"
       x2="1"
       gradientTransform="matrix(0,-49.619,49.619,0,177.88,51.088)"
       gradientUnits="userSpaceOnUse">
      <stop
         style="stop-color:#4f4f4f"
         offset="0"
         id="stop12" />
      <stop
         style="stop-color:#9c9c9c"
         offset="1"
         id="stop14" />
    </linearGradient>
    <linearGradient
       inkscape:collect="always"
       xlink:href="#_Linear1"
       id="linearGradient4308"
       gradientUnits="userSpaceOnUse"
       gradientTransform="matrix(0,-49.619,49.619,0,177.88,51.088)"
       x2="1" />
  </defs>
</svg>
