<?xml version="1.0" encoding="UTF-8" standalone="no"?>
<svg
   style="clip-rule:evenodd;fill-rule:evenodd;stroke-linejoin:round;stroke-miterlimit:2"
   viewBox="0 0 64 64"
   version="1.1"
   id="svg17"
   sodipodi:docname="application-rtf.svg"
   inkscape:version="1.1.2 (0a00cf5339, 2022-02-04)"
   xmlns:inkscape="http://www.inkscape.org/namespaces/inkscape"
   xmlns:sodipodi="http://sodipodi.sourceforge.net/DTD/sodipodi-0.dtd"
   xmlns:xlink="http://www.w3.org/1999/xlink"
   xmlns="http://www.w3.org/2000/svg"
   xmlns:svg="http://www.w3.org/2000/svg">
  <sodipodi:namedview
     id="namedview19"
     pagecolor="#ffffff"
     bordercolor="#666666"
     borderopacity="1.0"
     inkscape:pageshadow="2"
     inkscape:pageopacity="0.0"
     inkscape:pagecheckerboard="0"
     showgrid="false"
     inkscape:zoom="10.671875"
     inkscape:cx="33.967789"
     inkscape:cy="32"
     inkscape:window-width="945"
     inkscape:window-height="1026"
     inkscape:window-x="965"
     inkscape:window-y="44"
     inkscape:window-maximized="1"
     inkscape:current-layer="svg17" />
  <path
     id="path2"
     style="fill:url(#linearGradient5050)"
     d="M 17.617188 1.46875 C 15.597188 1.46875 13.659469 2.2712188 12.230469 3.6992188 C 10.802469 5.1282186 10 7.0678906 10 9.0878906 L 10 12.646484 L 10 54.382812 C 10 56.402814 10.802469 58.340531 12.230469 59.769531 C 13.659469 61.197531 15.597187 62 17.617188 62 L 46.382812 62 C 48.402814 62 50.340531 61.197531 51.769531 59.769531 C 53.197531 58.340531 54 56.402814 54 54.382812 L 54 12.646484 L 54 9.0878906 C 54 7.0678906 53.197531 5.1282186 51.769531 3.6992188 C 50.340531 2.2712188 48.402813 1.46875 46.382812 1.46875 L 38.742188 1.46875 L 25.257812 1.46875 L 17.617188 1.46875 z " />
  <path
     id="path914"
     style="clip-rule:evenodd;fill:#232f50;fill-opacity:1;fill-rule:evenodd;stroke-width:1;stroke-linejoin:round;stroke-miterlimit:2"
     d="m 9.9999997,50.982422 v 3.40039 c 0,2.020002 0.8024693,3.957719 2.2304693,5.386719 1.429,1.428 3.366717,2.230469 5.386719,2.230469 h 28.765624 c 2.020002,0 3.957719,-0.802469 5.386719,-2.230469 C 53.197531,58.340531 54,56.402814 54,54.382812 v -3.40039 z" />
  <path
     d="m32.661 59.405c-0.421 0-0.743-0.112-0.967-0.336-0.219-0.224-0.328-0.54-0.328-0.95v-2.106h-0.705v-0.689h0.705v-1.229h0.754v1.229h0.983v0.689h-0.983v2.048c0 0.437 0.18 0.656 0.541 0.656 0.136 0 0.251-0.022 0.344-0.066l0.262 0.648c-0.164 0.071-0.366 0.106-0.606 0.106zm-4.131-4.081v0.656h0.033c0.087-0.235 0.249-0.418 0.484-0.549 0.24-0.137 0.502-0.205 0.786-0.205 0.082 0 0.172 5e-3 0.271 0.016v0.738c-0.104-0.011-0.205-0.017-0.303-0.017-0.361 0-0.659 0.107-0.894 0.32-0.229 0.208-0.344 0.494-0.344 0.86v2.197h-0.754v-4.016h0.721z"
     style="fill-rule:nonzero;fill:#fff"
     id="path4" />
  <path
     d="m35.825 53.439c0.241 0 0.443 0.036 0.607 0.107l-0.262 0.647c-0.088-0.044-0.203-0.065-0.345-0.065-0.196 0-0.358 0.06-0.483 0.18-0.126 0.115-0.189 0.284-0.189 0.508v0.508h1.049v0.689h-1.049v3.327h-0.754v-3.327h-0.754v-0.689h0.754v-0.533c0-0.409 0.131-0.737 0.394-0.983 0.262-0.246 0.606-0.369 1.032-0.369z"
     style="fill-rule:nonzero;fill:#fff"
     id="path6" />
  <path
     d="m31.805 17.952l-8.242 10.55c-1.545 1.978-1.113 5.502 0.865 7.047 1.978 1.546 5.502 1.113 7.047-0.865l8.243-10.55 1.03-1.319c1.03-1.318 0.742-3.667-0.577-4.698-1.318-1.03-3.668-0.742-4.698 0.577l-1.03 1.319-6.182 7.912-1.03 1.319c-0.515 0.659-0.371 1.834 0.288 2.349 0.66 0.515 1.834 0.371 2.349-0.288l7.212-9.232 1.319 1.031-7.212 9.231c-1.03 1.319-3.379 1.607-4.698 0.577-1.319-1.031-1.607-3.38-0.577-4.698l1.03-1.319 7.212-9.231c1.546-1.978 5.069-2.411 7.048-0.865 1.978 1.545 2.41 5.069 0.865 7.047l-1.03 1.318-8.243 10.55c-2.061 2.638-6.759 3.215-9.396 1.154-2.638-2.061-3.214-6.759-1.154-9.396l8.243-10.55 1.318 1.03z"
     style="fill-rule:nonzero;fill:#232f50"
     id="path8" />
  <defs
     id="defs15">
    <linearGradient
       id="_Linear1"
       x2="1"
       gradientTransform="matrix(0,-49.619,49.619,0,104.99,51.088)"
       gradientUnits="userSpaceOnUse">
      <stop
         style="stop-color:#435ba0"
         offset="0"
         id="stop10" />
      <stop
         style="stop-color:#8b9ccb"
         offset="1"
         id="stop12" />
    </linearGradient>
    <linearGradient
       inkscape:collect="always"
       xlink:href="#_Linear1"
       id="linearGradient5050"
       gradientUnits="userSpaceOnUse"
       gradientTransform="matrix(0,-49.619,49.619,0,104.99,51.088)"
       x2="1" />
  </defs>
</svg>
