<?xml version="1.0" encoding="UTF-8" standalone="no"?>
<svg
   clip-rule="evenodd"
   fill-rule="evenodd"
   stroke-linejoin="round"
   stroke-miterlimit="2"
   viewBox="0 0 64 64"
   version="1.1"
   id="svg21"
   sodipodi:docname="application-x-ruby.svg"
   inkscape:version="1.1.2 (0a00cf5339, 2022-02-04)"
   xmlns:inkscape="http://www.inkscape.org/namespaces/inkscape"
   xmlns:sodipodi="http://sodipodi.sourceforge.net/DTD/sodipodi-0.dtd"
   xmlns:xlink="http://www.w3.org/1999/xlink"
   xmlns="http://www.w3.org/2000/svg"
   xmlns:svg="http://www.w3.org/2000/svg">
  <defs
     id="defs25">
    <linearGradient
       inkscape:collect="always"
       xlink:href="#a"
       id="linearGradient959"
       gradientUnits="userSpaceOnUse"
       gradientTransform="matrix(0,-49.619,49.619,0,396.55,51.088)"
       x2="1" />
  </defs>
  <sodipodi:namedview
     id="namedview23"
     pagecolor="#ffffff"
     bordercolor="#666666"
     borderopacity="1.0"
     inkscape:pageshadow="2"
     inkscape:pageopacity="0.0"
     inkscape:pagecheckerboard="0"
     showgrid="false"
     inkscape:zoom="10.65625"
     inkscape:cx="32"
     inkscape:cy="32"
     inkscape:window-width="1896"
     inkscape:window-height="1022"
     inkscape:window-x="12"
     inkscape:window-y="46"
     inkscape:window-maximized="1"
     inkscape:current-layer="svg21" />
  <linearGradient
     id="a"
     x2="1"
     gradientTransform="matrix(0,-49.619,49.619,0,396.55,51.088)"
     gradientUnits="userSpaceOnUse">
    <stop
       stop-color="#9b070f"
       offset="0"
       id="stop2" />
    <stop
       stop-color="#e65130"
       offset="1"
       id="stop4" />
  </linearGradient>
  <path
     id="path7"
     style="fill:url(#linearGradient959)"
     d="M 17.617188 1.46875 C 15.597188 1.46875 13.659469 2.2712188 12.230469 3.6992188 C 10.802469 5.1282186 10 7.0678906 10 9.0878906 L 10 14.001953 L 10 54.382812 C 10 56.402814 10.802469 58.340531 12.230469 59.769531 C 13.659469 61.197531 15.597187 62 17.617188 62 L 46.382812 62 C 48.402814 62 50.340531 61.197531 51.769531 59.769531 C 53.197531 58.340531 54 56.402814 54 54.382812 L 54 14.001953 L 54 9.0878906 C 54 7.0678906 53.197531 5.1282186 51.769531 3.6992188 C 50.340531 2.2712188 48.402813 1.46875 46.382812 1.46875 L 35.558594 1.46875 L 28.441406 1.46875 L 17.617188 1.46875 z " />
  <path
     id="path914"
     style="clip-rule:evenodd;fill:#4a0207;fill-opacity:1;fill-rule:evenodd;stroke-width:1;stroke-linecap:round;stroke-linejoin:round;stroke-miterlimit:2"
     d="m 10,50.982422 v 3.40039 c 0,2.020002 0.802467,3.957719 2.230469,5.386719 C 13.659467,61.197531 15.597183,62 17.617187,62 h 28.765625 c 2.020002,0 3.957718,-0.802469 5.386719,-2.230469 C 53.19753,58.340531 54,56.402814 54,54.382812 v -3.40039 z" />
  <g
     fill-rule="nonzero"
     id="g19">
    <path
       d="m25.463 58.94h-.754v-4.016h.721v.656h.033c.076-.219.232-.399.467-.541.241-.142.473-.213.697-.213s.412.032.565.098l-.287.705c-.098-.038-.232-.058-.401-.058-.273 0-.517.11-.73.328-.207.213-.311.495-.311.844z"
       fill="#fff"
       id="path9" />
    <path
       d="m31.21 58.94h-.721v-.558h-.033c-.114.192-.289.356-.524.492-.235.131-.484.197-.746.197-.503 0-.885-.153-1.147-.459-.257-.306-.386-.716-.386-1.229v-2.459h.754v2.336c0 .748.331 1.122.992 1.122.312 0 .566-.125.762-.377.197-.251.295-.54.295-.868v-2.213h.754z"
       fill="#fff"
       id="path11" />
    <path
       d="m34.259 59.071c-.306 0-.582-.066-.828-.197-.24-.131-.421-.295-.541-.492h-.033v.558h-.721v-5.868h.754v1.852l-.033.557h.033c.12-.196.301-.36.541-.491.246-.132.522-.197.828-.197.519 0 .967.205 1.344.615.377.409.565.917.565 1.524 0 .606-.188 1.114-.565 1.524s-.825.615-1.344.615zm-.123-.689c.35 0 .65-.131.901-.393.252-.268.377-.62.377-1.057s-.125-.787-.377-1.049c-.251-.268-.551-.402-.901-.402-.355 0-.659.131-.91.394-.246.262-.369.614-.369 1.057 0 .442.123.795.369 1.057.251.262.555.393.91.393z"
       fill="#fff"
       id="path13" />
    <path
       d="m37.772 60.71h-.779l.934-2.024-1.655-3.762h.819l1.197 2.885h.016l1.164-2.885h.82z"
       fill="#fff"
       id="path15" />
    <path
       d="m39.437 18-3.25 4.912-3.358-4.912zm-3.766 6.035h-7.208l3.604 13.707zm-6.967-.805h6.726l-3.363-4.919zm-.757-.318 3.358-4.912h-6.607zm3.356 15.088-3.672-13.965h-7.91zm-11.571-14.77h7.461l-3.25-4.913zm20.454-4.904-3.245 4.904h7.448zm-3.683 5.709-3.672 13.964 11.569-13.964z"
       fill="#e99090"
       id="path17" />
  </g>
</svg>
