<?xml version="1.0" encoding="UTF-8" standalone="no"?>
<svg
   clip-rule="evenodd"
   fill-rule="evenodd"
   stroke-linejoin="round"
   stroke-miterlimit="2"
   viewBox="0 0 48 48"
   version="1.1"
   id="svg11"
   sodipodi:docname="application-x-nintendo-3ds-rom.svg"
   inkscape:version="1.1.2 (0a00cf5339, 2022-02-04)"
   xmlns:inkscape="http://www.inkscape.org/namespaces/inkscape"
   xmlns:sodipodi="http://sodipodi.sourceforge.net/DTD/sodipodi-0.dtd"
   xmlns:xlink="http://www.w3.org/1999/xlink"
   xmlns="http://www.w3.org/2000/svg"
   xmlns:svg="http://www.w3.org/2000/svg">
  <defs
     id="defs15">
    <linearGradient
       inkscape:collect="always"
       xlink:href="#a"
       id="linearGradient3219"
       gradientUnits="userSpaceOnUse"
       gradientTransform="matrix(0,-37.21425,37.21425,0,461.415,38.515125)"
       x2="1" />
  </defs>
  <sodipodi:namedview
     id="namedview13"
     pagecolor="#ffffff"
     bordercolor="#666666"
     borderopacity="1.0"
     inkscape:pageshadow="2"
     inkscape:pageopacity="0.0"
     inkscape:pagecheckerboard="0"
     showgrid="false"
     inkscape:zoom="14.208333"
     inkscape:cx="30.017595"
     inkscape:cy="24.422287"
     inkscape:window-width="942"
     inkscape:window-height="1022"
     inkscape:window-x="966"
     inkscape:window-y="46"
     inkscape:window-maximized="1"
     inkscape:current-layer="svg11" />
  <linearGradient
     id="a"
     x2="1"
     gradientTransform="matrix(0,-37.21425,37.21425,0,461.415,38.515125)"
     gradientUnits="userSpaceOnUse">
    <stop
       stop-color="#923e34"
       offset="0"
       id="stop2" />
    <stop
       stop-color="#cd7a69"
       offset="1"
       id="stop4" />
  </linearGradient>
  <path
     id="path7"
     style="stroke-width:0.75;fill:url(#linearGradient3219)"
     d="M 13.212891 1.3007812 C 11.697891 1.3007812 10.245578 1.9036094 9.1738281 2.9746094 C 8.1028281 4.0463594 7.5 5.4986719 7.5 7.0136719 L 7.5 10.017578 L 7.5 40.986328 C 7.5 42.501328 8.1028281 43.953641 9.1738281 45.025391 C 10.245578 46.096391 11.697891 46.699219 13.212891 46.699219 L 34.787109 46.699219 C 36.302109 46.699219 37.754422 46.096391 38.826172 45.025391 C 39.897172 43.953641 40.5 42.501328 40.5 40.986328 L 40.5 10.017578 L 40.5 7.0136719 C 40.5 5.4986719 39.897172 4.0463594 38.826172 2.9746094 C 37.754422 1.9036094 36.302109 1.3007812 34.787109 1.3007812 L 27.042969 1.3007812 L 20.957031 1.3007812 L 13.212891 1.3007812 z " />
  <path
     transform="translate(0 -5.5)"
     d="m19 19c-1.108 0-2 .892-2 2v6c0 1.108.892 2 2 2h10c1.108 0 2-.892 2-2v-6c0-1.108-.892-2-2-2zm1 2h8c.554 0 1 .446 1 1v4c0 .554-.446 1-1 1h-8c-.554 0-1-.446-1-1v-4c0-.554.446-1 1-1zm-1 9c-1.108 0-2 .892-2 2v6c0 1.108.892 2 2 2h10c1.108 0 2-.892 2-2v-6c0-1.108-.892-2-2-2zm1 2h8c.554 0 1 .446 1 1v4c0 .554-.446 1-1 1h-8c-.554 0-1-.446-1-1v-4c0-.554.446-1 1-1z"
     fill="#fff"
     fill-opacity=".5"
     fill-rule="nonzero"
     id="path9" />
  <path
     id="path1057"
     style="fill:#642b24;fill-opacity:1"
     d="m 7.499861,38.867102 v 2.11914 c 0,1.515 0.602827,2.967063 1.673827,4.039063 0.804,0.80325 1.822139,1.342751 2.919922,1.5625 0,0 0.002,0 0.002,0 0.182349,0.03644 0.366588,0.06547 0.552735,0.08398 0,0 0.002,0 0.002,0 0.186154,0.01845 0.37378,0.02734 0.5625,0.02734 h 0.002 21.570311 c 0.568125,0 1.128064,-0.0856 1.66211,-0.248047 0.889501,-0.27074 1.708905,-0.756406 2.378906,-1.425781 C 39.897171,43.953297 40.5,42.501234 40.5,40.986234 v -2.11914 z" />
</svg>
