<?xml version="1.0" encoding="UTF-8" standalone="no"?>
<svg
   style="clip-rule:evenodd;fill-rule:evenodd;stroke-linejoin:round;stroke-miterlimit:2"
   viewBox="0 0 64 64"
   version="1.1"
   id="svg21"
   sodipodi:docname="application-mbox.svg"
   inkscape:version="1.1.2 (0a00cf5339, 2022-02-04)"
   xmlns:inkscape="http://www.inkscape.org/namespaces/inkscape"
   xmlns:sodipodi="http://sodipodi.sourceforge.net/DTD/sodipodi-0.dtd"
   xmlns:xlink="http://www.w3.org/1999/xlink"
   xmlns="http://www.w3.org/2000/svg"
   xmlns:svg="http://www.w3.org/2000/svg">
  <sodipodi:namedview
     id="namedview23"
     pagecolor="#ffffff"
     bordercolor="#666666"
     borderopacity="1.0"
     inkscape:pageshadow="2"
     inkscape:pageopacity="0.0"
     inkscape:pagecheckerboard="0"
     showgrid="false"
     inkscape:lockguides="true"
     inkscape:zoom="10.671875"
     inkscape:cx="36.4041"
     inkscape:cy="29.56369"
     inkscape:window-width="945"
     inkscape:window-height="1026"
     inkscape:window-x="965"
     inkscape:window-y="44"
     inkscape:window-maximized="1"
     inkscape:current-layer="svg21" />
  <path
     id="path2"
     style="fill:url(#linearGradient4840)"
     d="M 17.617188 1.46875 C 15.597188 1.46875 13.659469 2.2712188 12.230469 3.6992188 C 10.802469 5.1282186 10 7.0678906 10 9.0878906 L 10 14.353516 L 10 54.382812 C 10 56.402814 10.802469 58.340531 12.230469 59.769531 C 13.659469 61.197531 15.597187 62 17.617188 62 L 46.382812 62 C 48.402814 62 50.340531 61.197531 51.769531 59.769531 C 53.197531 58.340531 54 56.402814 54 54.382812 L 54 14.353516 L 54 9.0878906 C 54 7.0678906 53.197531 5.1282186 51.769531 3.6992188 C 50.340531 2.2712188 48.402813 1.46875 46.382812 1.46875 L 37.453125 1.46875 L 26.546875 1.46875 L 17.617188 1.46875 z " />
  <path
     id="path914"
     style="clip-rule:evenodd;fill:#2b6f79;fill-opacity:1;fill-rule:evenodd;stroke-width:1;stroke-linejoin:round;stroke-miterlimit:2"
     d="m 10,50.982422 v 3.40039 c 0,2.020002 0.802469,3.957719 2.230469,5.386719 1.429,1.428 3.366717,2.230469 5.386719,2.230469 h 28.765624 c 2.020002,0 3.957719,-0.802469 5.386719,-2.230469 C 53.197531,58.340531 54,56.402814 54,54.382812 v -3.40039 z" />
  <path
     d="m26.935 55.696c-0.208 0-0.382 0.04-0.52 0.12-0.139 0.075-0.243 0.187-0.312 0.336-0.07 0.144-0.118 0.299-0.144 0.464-0.027 0.165-0.04 0.36-0.04 0.584v2.16h-0.712v-4.144h0.712v0.576c0.202-0.448 0.594-0.672 1.176-0.672 0.602 0 0.992 0.24 1.168 0.72 0.325-0.48 0.754-0.72 1.288-0.72 0.853 0 1.28 0.464 1.28 1.392v2.848h-0.712v-2.608c0-0.704-0.243-1.056-0.728-1.056-0.672 0-1.008 0.416-1.008 1.248v2.416h-0.712v-2.696c0-0.645-0.246-0.968-0.736-0.968z"
     style="fill-rule:nonzero;fill:#fff"
     id="path4" />
  <path
     d="m33.519 55.696c-0.341 0-0.589 0.061-0.744 0.184-0.149 0.117-0.267 0.32-0.352 0.608l-0.672-0.096c0.176-0.848 0.797-1.272 1.864-1.272 0.587 0 1 0.109 1.24 0.328 0.245 0.213 0.368 0.627 0.368 1.24v1.824c0 0.293 0.072 0.576 0.216 0.848h-0.728c-0.069-0.149-0.115-0.32-0.136-0.512-0.485 0.405-0.997 0.608-1.536 0.608-0.416 0-0.757-0.104-1.024-0.312-0.267-0.213-0.4-0.504-0.4-0.872 0-0.427 0.2-0.768 0.6-1.024 0.171-0.112 0.539-0.208 1.104-0.288 0.565-0.085 0.963-0.168 1.192-0.248v-0.176c0-0.56-0.331-0.84-0.992-0.84zm-0.304 3.184c0.864 0 1.296-0.448 1.296-1.344v-0.248c-0.176 0.075-0.469 0.144-0.88 0.208-0.405 0.059-0.725 0.141-0.96 0.248-0.229 0.101-0.344 0.269-0.344 0.504 0 0.421 0.296 0.632 0.888 0.632z"
     style="fill-rule:nonzero;fill:#fff"
     id="path6" />
  <path
     d="m36.316 54.44v-0.808h0.712v0.808h-0.712zm0 4.92v-4.144h0.712v4.144h-0.712z"
     style="fill-rule:nonzero;fill:#fff"
     id="path8" />
  <rect
     x="38.081"
     y="53.632"
     width=".712"
     height="5.728"
     style="fill:#fff"
     id="rect10" />
  <path
     d="m43 26.887c0 1.805-0.376 3.234-1.128 4.287s-1.787 1.58-3.103 1.58c-1.41 0-2.463-0.686-3.159-2.059-0.921 1.373-2.237 2.059-3.948 2.059-1.58 0-2.887-0.545-3.921-1.636s-1.551-2.463-1.551-4.118c0-1.636 0.517-2.999 1.551-4.09 1.053-1.109 2.322-1.664 3.808-1.664 1.448 0 2.651 0.555 3.61 1.664h0.113v-1.269h2.031v7.023c0 1.504 0.554 2.257 1.664 2.257 1.335 0 2.002-1.345 2.002-4.034 0-2.444-0.865-4.531-2.595-6.261s-3.836-2.595-6.318-2.595-4.588 0.865-6.318 2.595c-1.729 1.73-2.594 3.817-2.594 6.261 0 2.463 0.865 4.56 2.594 6.29 1.712 1.711 3.818 2.567 6.318 2.567 1.354 0 2.548-0.264 3.582-0.79l0.79 1.918c-1.354 0.602-2.811 0.902-4.372 0.902-2.012 0-3.873-0.479-5.584-1.438-1.674-0.959-3.009-2.285-4.005-3.977-0.489-0.865-0.856-1.758-1.1-2.68-0.245-0.921-0.367-1.861-0.367-2.82 0-0.94 0.113-1.862 0.338-2.764 0.245-0.921 0.612-1.805 1.1-2.651 0.489-0.847 1.072-1.608 1.749-2.285 0.696-0.677 1.457-1.241 2.285-1.692 0.846-0.47 1.739-0.828 2.679-1.072 0.94-0.263 1.909-0.395 2.905-0.395 1.994 0 3.827 0.479 5.5 1.438 1.693 0.959 3.018 2.285 3.977 3.977 0.978 1.674 1.467 3.498 1.467 5.472zm-14.554 0.113c0 0.526 0.085 1.015 0.254 1.467 0.169 0.432 0.404 0.808 0.705 1.128 0.32 0.32 0.686 0.573 1.1 0.761 0.414 0.17 0.865 0.254 1.354 0.254s0.94-0.084 1.354-0.254c0.413-0.188 0.771-0.432 1.072-0.733 0.319-0.32 0.564-0.696 0.733-1.128 0.169-0.451 0.254-0.95 0.254-1.495 0-0.526-0.085-1.015-0.254-1.467-0.169-0.451-0.414-0.827-0.733-1.128-0.301-0.32-0.659-0.564-1.072-0.733-0.414-0.188-0.865-0.282-1.354-0.282s-0.94 0.094-1.354 0.282c-0.414 0.169-0.78 0.413-1.1 0.733-0.301 0.32-0.536 0.705-0.705 1.157-0.169 0.432-0.254 0.912-0.254 1.438z"
     style="fill-rule:nonzero;fill:#fff"
     id="path12" />
  <defs
     id="defs19">
    <linearGradient
       id="_Linear1"
       x2="1"
       gradientTransform="matrix(0,-49.619,49.619,0,469.44,51.088)"
       gradientUnits="userSpaceOnUse">
      <stop
         style="stop-color:#348692"
         offset="0"
         id="stop14" />
      <stop
         style="stop-color:#69b9cd"
         offset="1"
         id="stop16" />
    </linearGradient>
    <linearGradient
       inkscape:collect="always"
       xlink:href="#_Linear1"
       id="linearGradient4840"
       gradientUnits="userSpaceOnUse"
       gradientTransform="matrix(0,-49.619,49.619,0,469.44,51.088)"
       x2="1" />
  </defs>
</svg>
