<?xml version="1.0" encoding="UTF-8" standalone="no"?>
<svg
   style="clip-rule:evenodd;fill-rule:evenodd"
   viewBox="0 0 64 64"
   version="1.1"
   id="svg27"
   sodipodi:docname="application-x-labplot2.svg"
   inkscape:version="1.1.2 (0a00cf5339, 2022-02-04)"
   xmlns:inkscape="http://www.inkscape.org/namespaces/inkscape"
   xmlns:sodipodi="http://sodipodi.sourceforge.net/DTD/sodipodi-0.dtd"
   xmlns:xlink="http://www.w3.org/1999/xlink"
   xmlns="http://www.w3.org/2000/svg"
   xmlns:svg="http://www.w3.org/2000/svg">
  <sodipodi:namedview
     id="namedview29"
     pagecolor="#ffffff"
     bordercolor="#666666"
     borderopacity="1.0"
     inkscape:pageshadow="2"
     inkscape:pageopacity="0.0"
     inkscape:pagecheckerboard="0"
     showgrid="false"
     inkscape:zoom="10.65625"
     inkscape:cx="32"
     inkscape:cy="32"
     inkscape:window-width="1896"
     inkscape:window-height="1022"
     inkscape:window-x="12"
     inkscape:window-y="46"
     inkscape:window-maximized="1"
     inkscape:current-layer="svg27" />
  <path
     id="path2"
     style="fill:url(#linearGradient4958)"
     d="M 17.617188 1.46875 C 15.597188 1.46875 13.659469 2.2712188 12.230469 3.6992188 C 10.802469 5.1282186 10 7.0678906 10 9.0878906 L 10 13.316406 L 10 54.382812 C 10 56.402814 10.802469 58.340531 12.230469 59.769531 C 13.659469 61.197531 15.597187 62 17.617188 62 L 46.382812 62 C 48.402814 62 50.340531 61.197531 51.769531 59.769531 C 53.197531 58.340531 54 56.402814 54 54.382812 L 54 13.316406 L 54 9.0878906 C 54 7.0678906 53.197531 5.1282186 51.769531 3.6992188 C 50.340531 2.2712188 48.402813 1.46875 46.382812 1.46875 L 36.833984 1.46875 L 27.166016 1.46875 L 17.617188 1.46875 z " />
  <path
     d="m21 31.513c7.043 0 8.346 8.962 11.453 8.99 3.107 0.024 4.507-9.011 11.547-9.011"
     style="fill:none;stroke-width:1px;stroke:#1d99f3"
     id="path4" />
  <path
     d="m21 30.545c7.043 0 8.475-6.101 11.485-6.095 2.99 7e-3 4.475 7.042 11.515 7.042"
     style="fill:none;stroke-width:1px;stroke:#da4453"
     id="path6" />
  <path
     d="m21 30.545c7.043 0 7.47-10.014 11.47-10.014s4.49 10.961 11.53 10.961"
     style="fill:none;stroke-width:1px;stroke:#d6d6d6"
     id="path8" />
  <rect
     x="20"
     y="20"
     width="1"
     height="23"
     style="fill:#d6d6d6"
     id="rect10" />
  <rect
     x="20"
     y="31"
     width="24"
     height="1"
     style="fill:#d6d6d6"
     id="rect12" />
  <rect
     x="26"
     y="30"
     width="1"
     height="3"
     style="fill:#d6d6d6"
     id="rect14" />
  <rect
     x="32"
     y="30"
     width="1"
     height="3"
     style="fill:#d6d6d6"
     id="rect16" />
  <rect
     x="38"
     y="30"
     width="1"
     height="3"
     style="fill:#d6d6d6"
     id="rect18" />
  <defs
     id="defs25">
    <linearGradient
       id="_Linear1"
       x2="1"
       gradientTransform="matrix(0,-49.619,49.619,0,177.88,51.088)"
       gradientUnits="userSpaceOnUse">
      <stop
         style="stop-color:#474747"
         offset="0"
         id="stop20" />
      <stop
         style="stop-color:#888"
         offset="1"
         id="stop22" />
    </linearGradient>
    <linearGradient
       inkscape:collect="always"
       xlink:href="#_Linear1"
       id="linearGradient4958"
       gradientUnits="userSpaceOnUse"
       gradientTransform="matrix(0,-49.619,49.619,0,177.88,51.088)"
       x2="1" />
  </defs>
  <path
     id="path914"
     style="clip-rule:evenodd;fill:#353535;fill-opacity:1;fill-rule:evenodd;stroke-width:1;stroke-linejoin:round;stroke-miterlimit:2"
     d="m 10,50.982422 v 3.40039 c 0,2.020002 0.802469,3.957719 2.230469,5.386719 1.429,1.428 3.366717,2.230469 5.386719,2.230469 h 28.765624 c 2.020002,0 3.957719,-0.802469 5.386719,-2.230469 C 53.197531,58.340531 54,56.402814 54,54.382812 v -3.40039 z" />
</svg>
