<?xml version="1.0" encoding="UTF-8" standalone="no"?>
<svg
   clip-rule="evenodd"
   fill-rule="evenodd"
   stroke-linejoin="round"
   stroke-miterlimit="2"
   viewBox="0 0 64 64"
   version="1.1"
   id="svg19"
   sodipodi:docname="application-x-cbr.svg"
   inkscape:version="1.1.2 (0a00cf5339, 2022-02-04)"
   xmlns:inkscape="http://www.inkscape.org/namespaces/inkscape"
   xmlns:sodipodi="http://sodipodi.sourceforge.net/DTD/sodipodi-0.dtd"
   xmlns:xlink="http://www.w3.org/1999/xlink"
   xmlns="http://www.w3.org/2000/svg"
   xmlns:svg="http://www.w3.org/2000/svg">
  <defs
     id="defs23">
    <linearGradient
       inkscape:collect="always"
       xlink:href="#a"
       id="linearGradient3026"
       gradientUnits="userSpaceOnUse"
       gradientTransform="matrix(0,-49.619,49.619,0,177.88,51.088)"
       x2="1" />
  </defs>
  <sodipodi:namedview
     id="namedview21"
     pagecolor="#ffffff"
     bordercolor="#666666"
     borderopacity="1.0"
     inkscape:pageshadow="2"
     inkscape:pageopacity="0.0"
     inkscape:pagecheckerboard="0"
     showgrid="false"
     inkscape:zoom="10.65625"
     inkscape:cx="32"
     inkscape:cy="32"
     inkscape:window-width="1896"
     inkscape:window-height="1022"
     inkscape:window-x="12"
     inkscape:window-y="46"
     inkscape:window-maximized="1"
     inkscape:current-layer="svg19" />
  <linearGradient
     id="a"
     x2="1"
     gradientTransform="matrix(0,-49.619,49.619,0,177.88,51.088)"
     gradientUnits="userSpaceOnUse">
    <stop
       stop-color="#812d7b"
       offset="0"
       id="stop2" />
    <stop
       stop-color="#934e8d"
       offset="1"
       id="stop4" />
  </linearGradient>
  <path
     id="path7"
     style="fill:url(#linearGradient3026)"
     d="M 17.617188 1.46875 C 15.597188 1.46875 13.659469 2.2712188 12.230469 3.6992188 C 10.802469 5.1282186 10 7.0678906 10 9.0878906 L 10 12.134766 L 10 54.382812 C 10 56.402814 10.802469 58.340531 12.230469 59.769531 C 13.659469 61.197531 15.597187 62 17.617188 62 L 46.382812 62 C 48.402814 62 50.340531 61.197531 51.769531 59.769531 C 53.197531 58.340531 54 56.402814 54 54.382812 L 54 12.134766 L 54 9.0878906 C 54 7.0678906 53.197531 5.1282186 51.769531 3.6992188 C 50.340531 2.2712188 48.402813 1.46875 46.382812 1.46875 L 37.513672 1.46875 L 26.486328 1.46875 L 17.617188 1.46875 z " />
  <path
     id="path2-3"
     style="clip-rule:evenodd;fill:#472244;fill-opacity:1;fill-rule:evenodd;stroke-linejoin:round;stroke-miterlimit:2"
     d="m 10,50.982422 v 3.398437 0.002 c 6.5e-5,0.251841 0.01244,0.501552 0.03711,0.75 v 0.002 c 0.02473,0.248442 0.06268,0.494885 0.111329,0.738281 v 0.002 c 0.04871,0.243391 0.109702,0.484016 0.18164,0.720703 v 0.002 c 0.072,0.236684 0.155456,0.468944 0.25,0.697266 v 0.002 c 0.09461,0.228323 0.199937,0.453573 0.316406,0.671875 v 0.002 c 0.116532,0.218305 0.245101,0.430096 0.382813,0.636719 v 0.002 c 0.137776,0.206628 0.287038,0.406326 0.445312,0.599609 v 0.002 c 0.158341,0.193289 0.327703,0.378358 0.50586,0.55664 v 0.002 c 0.7145,0.714 1.557101,1.271274 2.472656,1.650391 C 15.618679,61.799106 16.607187,62 17.617188,62 h 28.765624 c 1.010002,0 1.998509,-0.200473 2.914063,-0.580078 0.915555,-0.379117 1.758156,-0.936391 2.472656,-1.650391 v -0.002 C 53.197531,58.338626 54,56.400859 54,54.380859 v -3.398437 z" />
  <g
     fill-rule="nonzero"
     id="g17">
    <path
       d="m40.901 18.965c-2.354-1.912-5.48-2.965-8.801-2.965s-6.447 1.053-8.801 2.965c-2.374 1.929-3.682 4.5-3.682 7.239 0 2.614 1.192 5.074 3.365 6.97-.039.088-.07.181-.09.278l-.714 3.506c-.085.416.029.665.139.8.128.156.318.242.534.242.163 0 .339-.048.522-.143l4.152-2.153c1.438.461 2.984.704 4.575.704 3.321 0 6.447-1.053 8.801-2.966 2.374-1.928 3.682-4.499 3.682-7.238s-1.307-5.31-3.682-7.239z"
       fill="#472244"
       id="path9" />
    <path
       d="m36.188 57.912h-.754v-4.016h.721v.656h.033c.077-.219.232-.399.467-.541.241-.142.473-.213.697-.213s.412.033.565.098l-.286.705c-.099-.038-.233-.057-.402-.057-.273 0-.516.109-.729.328-.208.213-.312.494-.312.844z"
       fill="#fff"
       id="path11" />
    <path
       d="m28.148 58.043c-.601 0-1.096-.202-1.484-.606-.388-.41-.581-.921-.581-1.533s.193-1.12.581-1.524c.388-.41.883-.615 1.484-.615.448 0 .819.109 1.114.328.295.218.511.494.648.828l-.689.287c-.207-.503-.581-.754-1.122-.754-.334 0-.629.136-.885.409-.252.273-.377.62-.377 1.041s.125.768.377 1.041c.256.273.551.41.885.41.562 0 .95-.252 1.163-.754l.672.287c-.136.327-.357.603-.663.827-.301.219-.675.328-1.123.328z"
       fill="#fff"
       fill-opacity=".95"
       id="path13" />
    <path
       d="m32.812 58.043c-.306 0-.582-.065-.828-.197-.241-.131-.421-.295-.541-.491h-.033v.557h-.721v-5.868h.754v1.852l-.033.558h.033c.12-.197.3-.361.541-.492.246-.131.522-.197.828-.197.519 0 .967.205 1.344.615s.565.918.565 1.524c0 .607-.188 1.115-.565 1.524-.377.41-.825.615-1.344.615zm-.123-.688c.349 0 .65-.131.901-.394.251-.267.377-.62.377-1.057s-.126-.787-.377-1.049c-.251-.268-.552-.401-.901-.401-.355 0-.659.131-.91.393-.246.262-.369.615-.369 1.057 0 .443.123.795.369 1.057.251.263.555.394.91.394z"
       fill="#fff"
       fill-opacity=".95"
       id="path15" />
  </g>
</svg>
