<?xml version="1.0" encoding="UTF-8" standalone="no"?>
<svg
   style="clip-rule:evenodd;fill-rule:evenodd;stroke-linejoin:round;stroke-miterlimit:2"
   viewBox="0 0 64 64"
   version="1.1"
   id="svg19"
   sodipodi:docname="application-vnd.flatpak.svg"
   inkscape:version="1.1.2 (0a00cf5339, 2022-02-04)"
   xmlns:inkscape="http://www.inkscape.org/namespaces/inkscape"
   xmlns:sodipodi="http://sodipodi.sourceforge.net/DTD/sodipodi-0.dtd"
   xmlns:xlink="http://www.w3.org/1999/xlink"
   xmlns="http://www.w3.org/2000/svg"
   xmlns:svg="http://www.w3.org/2000/svg">
  <sodipodi:namedview
     id="namedview21"
     pagecolor="#ffffff"
     bordercolor="#666666"
     borderopacity="1.0"
     inkscape:pageshadow="2"
     inkscape:pageopacity="0.0"
     inkscape:pagecheckerboard="0"
     showgrid="false"
     inkscape:zoom="10.671875"
     inkscape:cx="33.780381"
     inkscape:cy="34.998536"
     inkscape:window-width="945"
     inkscape:window-height="1026"
     inkscape:window-x="965"
     inkscape:window-y="44"
     inkscape:window-maximized="1"
     inkscape:current-layer="svg19" />
  <path
     id="path2"
     style="fill:url(#linearGradient3804)"
     d="M 17.617188 1.46875 C 15.597188 1.46875 13.659469 2.2712188 12.230469 3.6992188 C 10.802469 5.1282186 10 7.0678906 10 9.0878906 L 10 13.539062 L 10 54.382812 C 10 56.402814 10.802469 58.340531 12.230469 59.769531 C 13.659469 61.197531 15.597187 62 17.617188 62 L 46.382812 62 C 48.402814 62 50.340531 61.197531 51.769531 59.769531 C 53.197531 58.340531 54 56.402814 54 54.382812 L 54 13.539062 L 54 9.0878906 C 54 7.0678906 53.197531 5.1282186 51.769531 3.6992188 C 50.340531 2.2712188 48.402813 1.46875 46.382812 1.46875 L 38.630859 1.46875 L 25.369141 1.46875 L 17.617188 1.46875 z " />
  <path
     d="m 19.012,23.489127 c -0.003,0.055 -0.005,0.111 -0.006,0.166 v 11.317 c 0.001,1.182 0.629,2.274 1.649,2.865 l 9.697,5.623 c 1.02,0.591 2.276,0.591 3.296,0 l 9.697,-5.623 c 1.02,-0.591 1.649,-1.684 1.649,-2.866 v -11.316 c -0.002,-0.041 -0.004,-0.083 -0.007,-0.125 0.007,-0.001 -25.975,-0.041 -25.975,-0.041 z"
     style="fill:#e4ba75;fill-rule:nonzero"
     id="path4" />
  <path
     d="m 32.078,14.797127 v 0.002 c -0.605,-0.015 -1.203,0.139 -1.727,0.446 l -9.705,5.689 c -0.953,0.56 -1.569,1.569 -1.64,2.685 0.062,1.125 0.679,2.147 1.64,2.712 l 9.705,5.689 c 1.019,0.597 2.279,0.597 3.298,0 l 9.705,-5.689 c 0.953,-0.56 1.569,-1.569 1.64,-2.685 -0.062,-1.126 -0.679,-2.147 -1.64,-2.712 l -9.705,-5.689 c -0.478,-0.281 -1.019,-0.435 -1.571,-0.448 z"
     style="fill:#b89863;fill-rule:nonzero"
     id="path6" />
  <path
     d="m 32.077,14.797127 v 0.002 c -0.026,10e-4 -0.051,10e-4 -0.077,0.002 v 17.66 c 0.578,0.002 1.147,-0.15 1.649,-0.441 l 9.704,-5.689 c 0.954,-0.56 1.57,-1.569 1.641,-2.685 -0.062,-1.126 -0.68,-2.147 -1.641,-2.712 l -9.704,-5.689 c -0.479,-0.281 -1.019,-0.434 -1.572,-0.448 z"
     style="fill-opacity:0.07;fill-rule:nonzero"
     id="path8" />
  <path
     d="m 19.012,23.489127 c -0.002,0.036 -0.003,0.073 -0.004,0.109 0.004,-0.036 0.007,-0.073 0.012,-0.109 z m -0.005,0.139 c 0,0.009 -0.001,0.018 -0.001,0.027 v 11.317 c 0.001,1.182 0.629,2.275 1.649,2.866 l 9.696,5.621 c 0.525,0.305 1.063,0.453 1.649,0.444 v -11.437 c -0.579,10e-4 -1.148,-0.153 -1.65,-0.446 l -9.704,-5.689 c -0.958,-0.564 -1.575,-1.581 -1.639,-2.703 z"
     style="fill-opacity:0.1;fill-rule:nonzero"
     id="path10" />
  <defs
     id="defs17">
    <linearGradient
       id="_Linear1"
       x2="1"
       gradientTransform="matrix(0,-49.619,49.619,0,615.22,51.088)"
       gradientUnits="userSpaceOnUse">
      <stop
         style="stop-color:#cdcdcd"
         offset="0"
         id="stop12" />
      <stop
         style="stop-color:#efefef"
         offset="1"
         id="stop14" />
    </linearGradient>
    <linearGradient
       inkscape:collect="always"
       xlink:href="#_Linear1"
       id="linearGradient3804"
       gradientUnits="userSpaceOnUse"
       gradientTransform="matrix(0,-49.619,49.619,0,615.22,51.088)"
       x2="1" />
  </defs>
  <path
     id="path914"
     style="clip-rule:evenodd;fill:#b89863;fill-opacity:1;fill-rule:evenodd;stroke-width:1;stroke-linejoin:round;stroke-miterlimit:2"
     d="m 10,50.982422 v 3.40039 c 0,2.020002 0.802469,3.957719 2.230469,5.386719 1.429,1.428 3.366717,2.230469 5.386719,2.230469 h 28.765624 c 2.020002,0 3.957719,-0.802469 5.386719,-2.230469 C 53.197531,58.340531 54,56.402814 54,54.382812 v -3.40039 z" />
</svg>
