<?xml version="1.0" encoding="UTF-8" standalone="no"?>
<svg
   style="clip-rule:evenodd;fill-rule:evenodd;stroke-linejoin:round;stroke-miterlimit:2"
   viewBox="0 0 64 64"
   version="1.1"
   id="svg20"
   sodipodi:docname="application-dart.svg"
   inkscape:version="1.1.2 (0a00cf5339, 2022-02-04)"
   xmlns:inkscape="http://www.inkscape.org/namespaces/inkscape"
   xmlns:sodipodi="http://sodipodi.sourceforge.net/DTD/sodipodi-0.dtd"
   xmlns:xlink="http://www.w3.org/1999/xlink"
   xmlns="http://www.w3.org/2000/svg"
   xmlns:svg="http://www.w3.org/2000/svg">
  <sodipodi:namedview
     id="namedview22"
     pagecolor="#ffffff"
     bordercolor="#666666"
     borderopacity="1.0"
     inkscape:pageshadow="2"
     inkscape:pageopacity="0.0"
     inkscape:pagecheckerboard="0"
     showgrid="false"
     inkscape:zoom="10.671875"
     inkscape:cx="41.979502"
     inkscape:cy="26.846266"
     inkscape:window-width="942"
     inkscape:window-height="1022"
     inkscape:window-x="966"
     inkscape:window-y="46"
     inkscape:window-maximized="1"
     inkscape:current-layer="svg20" />
  <path
     id="path2"
     style="fill:url(#linearGradient4153)"
     d="M 17.617188 1.46875 C 15.597188 1.46875 13.659469 2.2712188 12.230469 3.6992188 C 10.802469 5.1282186 10 7.0678906 10 9.0878906 L 10 14.875 L 10 54.382812 C 10 56.402814 10.802469 58.340531 12.230469 59.769531 C 13.659469 61.197531 15.597187 62 17.617188 62 L 46.382812 62 C 48.402814 62 50.340531 61.197531 51.769531 59.769531 C 53.197531 58.340531 54 56.402814 54 54.382812 L 54 14.875 L 54 9.0878906 C 54 7.0678906 53.197531 5.1282186 51.769531 3.6992188 C 50.340531 2.2712188 48.402813 1.46875 46.382812 1.46875 L 35.587891 1.46875 L 28.412109 1.46875 L 17.617188 1.46875 z " />
  <path
     id="path2-3"
     style="clip-rule:evenodd;fill:#0a4471;fill-opacity:1;fill-rule:evenodd;stroke-linejoin:round;stroke-miterlimit:2"
     d="m 9.9999992,50.982422 v 3.398437 0.002 c 6.58e-5,0.251841 0.01244,0.501552 0.03711,0.75 v 0.002 c 0.02473,0.248442 0.06268,0.494885 0.111329,0.738281 v 0.002 c 0.04871,0.243391 0.109702,0.484016 0.18164,0.720703 v 0.002 c 0.072,0.236684 0.155456,0.468944 0.25,0.697266 v 0.002 c 0.09461,0.228323 0.199937,0.453573 0.316406,0.671875 v 0.002 c 0.116532,0.218305 0.245101,0.430096 0.382813,0.636719 v 0.002 c 0.137776,0.206628 0.287038,0.406326 0.445312,0.599609 v 0.002 c 0.158341,0.193289 0.327703,0.378358 0.50586,0.55664 v 0.002 c 0.7145,0.714 1.557101,1.271274 2.472656,1.650391 C 15.618679,61.799106 16.607187,62 17.617188,62 h 28.765624 c 1.010002,0 1.998509,-0.200473 2.914063,-0.580078 0.915555,-0.379117 1.758156,-0.936391 2.472656,-1.650391 v -0.002 C 53.197531,58.338626 54,56.400859 54,54.380859 v -3.398437 z" />
  <path
     d="m24.612 40.888-5.528-5.431c-0.561-0.577-0.91-1.39-0.91-2.184 0-0.368 0.207-0.943 0.363-1.274l4.575-8.887 1.5 17.776z"
     style="fill-rule:nonzero;fill:#01579b"
     id="path4" />
  <path
     d="m40.006 23.814-4.73-4.73c-0.412-0.415-1.274-0.91-2.001-0.91-0.626 0-1.239 0.126-1.638 0.363l-8.525 4.575 16.894 0.702z"
     style="fill-rule:nonzero;fill:#40c4ff"
     id="path6" />
  <path
     id="polygon14"
     d="m32.365 38.185-7.753 2.703 4.841 4.938h11.435v-4.938l-8.523-2.703z"
     style="fill-rule:nonzero;fill:#40c4ff" />
  <path
     d="m23.112 37.542c0 1.458-0.024 1.818 0.704 2.547l0.796 0.799h16.376l-8.077-9.068-9.799-8.708v14.43z"
     style="fill-rule:nonzero;fill:#0ba8ef"
     id="path9" />
  <path
     d="m37.458 23.112h-14.346l17.776 17.776h4.938v-11.254l-5.82-5.82c-0.817-0.821-1.544-0.702-2.548-0.702z"
     style="fill-rule:nonzero;fill:#01579b"
     id="path11" />
  <defs
     id="defs18">
    <linearGradient
       id="_Linear1"
       x2="1"
       gradientTransform="matrix(0,-49.619,49.619,0,615.22,51.088)"
       gradientUnits="userSpaceOnUse">
      <stop
         style="stop-color:#0051aa"
         offset="0"
         id="stop13" />
      <stop
         style="stop-color:#64b3ff"
         offset="1"
         id="stop15" />
    </linearGradient>
    <linearGradient
       inkscape:collect="always"
       xlink:href="#_Linear1"
       id="linearGradient4153"
       gradientUnits="userSpaceOnUse"
       gradientTransform="matrix(0,-49.619,49.619,0,615.22,51.088)"
       x2="1" />
  </defs>
</svg>
