<?xml version="1.0" encoding="UTF-8" standalone="no"?>
<svg
   style="clip-rule:evenodd;fill-rule:evenodd;stroke-linejoin:round;stroke-miterlimit:2"
   viewBox="0 0 64 64"
   version="1.1"
   id="svg23"
   sodipodi:docname="application-x-solus-package.svg"
   inkscape:version="1.1.2 (0a00cf5339, 2022-02-04)"
   xmlns:inkscape="http://www.inkscape.org/namespaces/inkscape"
   xmlns:sodipodi="http://sodipodi.sourceforge.net/DTD/sodipodi-0.dtd"
   xmlns:xlink="http://www.w3.org/1999/xlink"
   xmlns="http://www.w3.org/2000/svg"
   xmlns:svg="http://www.w3.org/2000/svg">
  <sodipodi:namedview
     id="namedview25"
     pagecolor="#ffffff"
     bordercolor="#666666"
     borderopacity="1.0"
     inkscape:pageshadow="2"
     inkscape:pageopacity="0.0"
     inkscape:pagecheckerboard="0"
     showgrid="false"
     inkscape:zoom="10.65625"
     inkscape:cx="32"
     inkscape:cy="32"
     inkscape:window-width="1896"
     inkscape:window-height="1022"
     inkscape:window-x="12"
     inkscape:window-y="46"
     inkscape:window-maximized="1"
     inkscape:current-layer="svg23" />
  <path
     id="path2"
     style="fill:url(#linearGradient3436)"
     d="M 17.617188 1.46875 C 15.597188 1.46875 13.659469 2.2712188 12.230469 3.6992188 C 10.802469 5.1282186 10 7.0678906 10 9.0878906 L 10 13.072266 L 10 54.382812 C 10 56.402814 10.802469 58.340531 12.230469 59.769531 C 13.659469 61.197531 15.597187 62 17.617188 62 L 46.382812 62 C 48.402814 62 50.340531 61.197531 51.769531 59.769531 C 53.197531 58.340531 54 56.402814 54 54.382812 L 54 13.072266 L 54 9.0878906 C 54 7.0678906 53.197531 5.1282186 51.769531 3.6992188 C 50.340531 2.2712188 48.402813 1.46875 46.382812 1.46875 L 34.859375 1.46875 L 29.140625 1.46875 L 17.617188 1.46875 z " />
  <path
     id="path914"
     style="clip-rule:evenodd;fill:#29545d;fill-opacity:1;fill-rule:evenodd;stroke-width:1;stroke-linecap:round;stroke-linejoin:round;stroke-miterlimit:2"
     d="m 10.000001,50.982422 v 3.40039 c 0,2.020001 0.802467,3.957719 2.230468,5.386719 C 13.659467,61.197531 15.597183,62 17.617188,62 h 28.765624 c 2.020002,0 3.957718,-0.802469 5.386719,-2.230469 C 53.19753,58.340531 54,56.402813 54,54.382812 v -3.40039 z" />
  <path
     d="m24.801 56.221v0.329h-3.098c0.029 0.464 0.169 0.818 0.418 1.062 0.251 0.242 0.6 0.363 1.047 0.363 0.259 0 0.509-0.032 0.751-0.095 0.244-0.064 0.486-0.159 0.725-0.286v0.637c-0.242 0.103-0.49 0.181-0.744 0.235-0.254 0.053-0.511 0.08-0.772 0.08-0.655 0-1.173-0.19-1.557-0.571-0.381-0.381-0.571-0.896-0.571-1.546 0-0.671 0.181-1.203 0.542-1.596 0.364-0.396 0.853-0.593 1.468-0.593 0.552 0 0.988 0.178 1.308 0.534 0.322 0.354 0.483 0.836 0.483 1.447zm-0.674-0.198c-4e-3 -0.369-0.108-0.663-0.311-0.883-0.2-0.219-0.466-0.329-0.798-0.329-0.376 0-0.678 0.106-0.905 0.318-0.224 0.213-0.354 0.512-0.388 0.898l2.402-4e-3z"
     style="fill-rule:nonzero;fill:#fff"
     id="path4" />
  <path
     d="m27.497 54.811c-0.362 0-0.647 0.141-0.857 0.425-0.21 0.28-0.315 0.666-0.315 1.157s0.103 0.878 0.311 1.161c0.21 0.28 0.497 0.421 0.861 0.421 0.358 0 0.643-0.142 0.853-0.425s0.315-0.669 0.315-1.157c0-0.486-0.105-0.871-0.315-1.154-0.21-0.285-0.495-0.428-0.853-0.428zm0-0.572c0.586 0 1.046 0.191 1.38 0.572 0.335 0.381 0.502 0.908 0.502 1.582 0 0.671-0.167 1.199-0.502 1.582-0.334 0.381-0.794 0.571-1.38 0.571-0.589 0-1.05-0.19-1.385-0.571-0.332-0.383-0.498-0.911-0.498-1.582 0-0.674 0.166-1.201 0.498-1.582 0.335-0.381 0.796-0.572 1.385-0.572z"
     style="fill-rule:nonzero;fill:#fff"
     id="path6" />
  <path
     d="m31.144 57.825v2.175h-0.677v-5.662h0.677v0.623c0.142-0.244 0.32-0.425 0.535-0.542 0.217-0.12 0.476-0.18 0.776-0.18 0.498 0 0.902 0.198 1.212 0.594 0.313 0.395 0.469 0.915 0.469 1.56 0 0.644-0.156 1.164-0.469 1.56-0.31 0.395-0.714 0.593-1.212 0.593-0.3 0-0.559-0.058-0.776-0.176-0.215-0.119-0.393-0.301-0.535-0.545zm2.293-1.432c0-0.496-0.103-0.884-0.308-1.165-0.203-0.283-0.482-0.425-0.839-0.425-0.356 0-0.637 0.142-0.842 0.425-0.203 0.281-0.304 0.669-0.304 1.165 0 0.495 0.101 0.885 0.304 1.168 0.205 0.281 0.486 0.421 0.842 0.421 0.357 0 0.636-0.14 0.839-0.421 0.205-0.283 0.308-0.673 0.308-1.168z"
     style="fill-rule:nonzero;fill:#fff"
     id="path8" />
  <path
     d="m35.227 52.742h0.678v3.365l2.01-1.769h0.861l-2.175 1.919 2.266 2.183h-0.878l-2.084-2.003v2.003h-0.678v-5.698z"
     style="fill-rule:nonzero;fill:#fff"
     id="path10" />
  <path
     d="m42.302 56.342c0-0.489-0.101-0.867-0.303-1.136-0.201-0.268-0.483-0.403-0.846-0.403-0.362 0-0.644 0.135-0.846 0.403-0.201 0.269-0.301 0.647-0.301 1.136 0 0.485 0.1 0.863 0.301 1.131 0.202 0.269 0.484 0.403 0.846 0.403 0.363 0 0.645-0.134 0.846-0.403 0.202-0.268 0.303-0.646 0.303-1.131zm0.674 1.589c0 0.698-0.155 1.217-0.465 1.556-0.31 0.342-0.785 0.513-1.424 0.513-0.237 0-0.461-0.018-0.67-0.055-0.21-0.034-0.414-0.088-0.612-0.161v-0.656c0.198 0.108 0.393 0.187 0.586 0.238 0.193 0.052 0.389 0.077 0.589 0.077 0.442 0 0.773-0.116 0.993-0.348 0.22-0.229 0.329-0.577 0.329-1.043v-0.333c-0.139 0.241-0.317 0.422-0.534 0.541-0.217 0.12-0.477 0.18-0.78 0.18-0.503 0-0.908-0.192-1.216-0.575s-0.461-0.891-0.461-1.523c0-0.635 0.153-1.144 0.461-1.528 0.308-0.383 0.713-0.575 1.216-0.575 0.303 0 0.563 0.06 0.78 0.18s0.395 0.3 0.534 0.542v-0.623h0.674v3.593z"
     style="fill-rule:nonzero;fill:#fff"
     id="path12" />
  <path
     d="m27.919 16c0.026-0.01 0.206 0.249 0.399 0.572s0.688 1.094 1.098 1.712c0.837 1.259 1.492 2.297 1.86 2.947l0.247 0.434 0.094 1.216c0.051 0.668 0.212 2.924 0.359 5.013 0.215 3.068 0.255 3.806 0.205 3.837-0.034 0.021-0.073 0.04-0.086 0.035-0.013 0-0.724-0.077-1.579-0.164-5.948-0.611-7.134-0.759-8.227-1.025-0.434-0.105-0.837-0.203-0.896-0.217-0.059-0.013-0.108-0.052-0.108-0.086s0.308-0.609 0.685-1.279c3.115-5.535 4.785-9.125 5.671-12.183 0.127-0.437 0.252-0.803 0.278-0.812zm4.579 6.132c0.013-0.01 0.037 0.01 0.07 0.023 0.194 0.104 1.459 1.277 2.278 2.112 1.881 1.919 3.245 3.732 4.201 5.587 0.287 0.555 0.369 0.755 0.333 0.811-0.067 0.107-0.944 0.463-1.612 0.657-0.671 0.194-1.421 0.332-2.182 0.4v-0.01c-0.709 0.067-2.376 0.068-2.415 0.01-0.016-0.026 0.038-0.257 0.121-0.514 0.831-2.585 0.616-5.656-0.597-8.495-0.184-0.431-0.237-0.57-0.197-0.583v2e-3zm3.528 2.139c0.069-0.018 0.343 0.052 0.85 0.206 1.813 0.552 3.029 1.019 4.11 1.582 0.934 0.487 2.014 1.23 2.014 1.385 0 0.038-0.069 0.183-0.153 0.321-0.515 0.851-1.287 1.665-2.07 2.183-0.285 0.188-0.537 0.341-0.56 0.341-0.067 0-0.079-0.082-0.103-0.717-0.027-0.695-0.137-1.165-0.414-1.757-0.511-1.093-1.45-2.008-3.29-3.211-0.315-0.206-0.452-0.315-0.384-0.333zm7.365 5.84c0.03 0.084-1.767 2.203-2.098 2.698-1.467 2.196-8.962 3.816-15.298 3.517-2.268-0.107-4.665-3.142-4.59-3.127 0.06 0.013 7.329 1.482 13.846 0.408 4.577-0.754 8.13-3.522 8.14-3.496z"
     style="fill-opacity:.47;fill-rule:nonzero"
     id="path14" />
  <defs
     id="defs21">
    <linearGradient
       id="_Linear1"
       x2="1"
       gradientTransform="matrix(0,-49.619,49.619,0,469.44,51.088)"
       gradientUnits="userSpaceOnUse">
      <stop
         style="stop-color:#348692"
         offset="0"
         id="stop16" />
      <stop
         style="stop-color:#69b9cd"
         offset="1"
         id="stop18" />
    </linearGradient>
    <linearGradient
       inkscape:collect="always"
       xlink:href="#_Linear1"
       id="linearGradient3436"
       gradientUnits="userSpaceOnUse"
       gradientTransform="matrix(0,-49.619,49.619,0,469.44,51.088)"
       x2="1" />
  </defs>
</svg>
