<?xml version="1.0" encoding="UTF-8" standalone="no"?>
<svg
   style="clip-rule:evenodd;fill-rule:evenodd;stroke-linejoin:round;stroke-miterlimit:2"
   viewBox="0 0 64 64"
   version="1.1"
   id="svg19"
   sodipodi:docname="application-x-hda.svg"
   inkscape:version="1.1.2 (0a00cf5339, 2022-02-04)"
   xmlns:inkscape="http://www.inkscape.org/namespaces/inkscape"
   xmlns:sodipodi="http://sodipodi.sourceforge.net/DTD/sodipodi-0.dtd"
   xmlns:xlink="http://www.w3.org/1999/xlink"
   xmlns="http://www.w3.org/2000/svg"
   xmlns:svg="http://www.w3.org/2000/svg">
  <sodipodi:namedview
     id="namedview21"
     pagecolor="#ffffff"
     bordercolor="#666666"
     borderopacity="1.0"
     inkscape:pageshadow="2"
     inkscape:pageopacity="0.0"
     inkscape:pagecheckerboard="0"
     showgrid="false"
     inkscape:zoom="10.65625"
     inkscape:cx="32"
     inkscape:cy="32"
     inkscape:window-width="1896"
     inkscape:window-height="1022"
     inkscape:window-x="12"
     inkscape:window-y="46"
     inkscape:window-maximized="1"
     inkscape:current-layer="svg19" />
  <path
     id="path2"
     style="fill:url(#linearGradient2868)"
     d="M 17.617188 1.46875 C 15.597188 1.46875 13.659469 2.2712188 12.230469 3.6992188 C 10.802469 5.1282186 10 7.0678906 10 9.0878906 L 10 11.541016 L 10 54.382812 C 10 56.402814 10.802469 58.340531 12.230469 59.769531 C 13.659469 61.197531 15.597187 62 17.617188 62 L 46.382812 62 C 48.402814 62 50.340531 61.197531 51.769531 59.769531 C 53.197531 58.340531 54 56.402814 54 54.382812 L 54 11.541016 L 54 9.0878906 C 54 7.0678906 53.197531 5.1282186 51.769531 3.6992188 C 50.340531 2.2712188 48.402813 1.46875 46.382812 1.46875 L 38.914062 1.46875 L 25.085938 1.46875 L 17.617188 1.46875 z " />
  <path
     id="path2-3"
     style="clip-rule:evenodd;fill:#af4f20;fill-opacity:1;fill-rule:evenodd;stroke-linejoin:round;stroke-miterlimit:2"
     d="m 10,50.982422 v 3.398437 0.002 c 6.5e-5,0.251841 0.01244,0.501552 0.03711,0.75 v 0.002 c 0.02473,0.248442 0.06268,0.494885 0.111329,0.738281 v 0.002 c 0.04871,0.243391 0.109702,0.484016 0.18164,0.720703 v 0.002 c 0.072,0.236684 0.155456,0.468944 0.25,0.697266 v 0.002 c 0.09461,0.228323 0.199937,0.453573 0.316406,0.671875 v 0.002 c 0.116532,0.218305 0.245101,0.430096 0.382814,0.636719 v 0.002 c 0.137775,0.206628 0.287037,0.406326 0.445311,0.599609 v 0.002 c 0.158341,0.193289 0.327703,0.378358 0.505861,0.55664 v 0.002 c 0.714499,0.714 1.5571,1.271274 2.472656,1.650391 C 15.618679,61.799106 16.607187,62 17.617188,62 h 28.765624 c 1.010002,0 1.998509,-0.200473 2.914063,-0.580078 0.915555,-0.379117 1.758156,-0.936391 2.472656,-1.650391 v -0.002 C 53.197531,58.338626 54,56.400859 54,54.380859 v -3.398437 z" />
  <path
     d="m 17.153,23.53973 c -0.004,0.064 -0.006,0.127 -0.006,0.19 v 12.937 c 0,1.351 0.718,2.6 1.884,3.275 l 11.085,6.427 c 1.166,0.676 2.602,0.676 3.768,0 l 11.085,-6.427 c 1.166,-0.676 1.884,-1.925 1.884,-3.277 v -12.935 c -0.001,-0.047 -0.004,-0.095 -0.008,-0.143 0.008,-10e-4 -29.692,-0.047 -29.692,-0.047 z"
     style="fill:#c25824;fill-rule:nonzero"
     id="path4" />
  <path
     d="m 32.089,13.60373 v 0.002 c -0.692,-0.017 -1.375,0.159 -1.975,0.51 l -11.093,6.503 c -1.09,0.64 -1.794,1.793 -1.874,3.069 0.07,1.287 0.776,2.455 1.874,3.101 l 11.093,6.503 c 1.166,0.684 2.606,0.684 3.772,0 l 11.093,-6.503 c 1.09,-0.64 1.794,-1.794 1.874,-3.069 -0.07,-1.287 -0.776,-2.455 -1.874,-3.101 l -11.093,-6.503 c -0.548,-0.321 -1.166,-0.497 -1.797,-0.512 z"
     style="fill:#f36128;fill-rule:nonzero"
     id="path6" />
  <path
     d="m 17.154,23.53973 c -0.003,0.042 -0.004,0.083 -0.005,0.125 0.004,-0.041 0.008,-0.083 0.013,-0.125 z m -0.006,0.159 c 0,0.01 -0.001,0.021 -0.001,0.031 v 12.936 c 0,1.352 0.719,2.601 1.884,3.276 l 11.084,6.426 c 0.6,0.349 1.215,0.518 1.885,0.508 v -13.075 c -0.662,0.002 -1.312,-0.174 -1.886,-0.509 l -11.093,-6.503 c -1.095,-0.645 -1.8,-1.807 -1.873,-3.09 z"
     style="fill-opacity:0.1;fill-rule:nonzero"
     id="path8" />
  <path
     d="m 38.849,28.39773 c -2.351,1.373 -5.235,2.167 -6.701,2.384 -1.466,0.217 -3.407,0.19 -5.72,-0.245 l -3.128,-1.834 c 1.386,0.274 3.647,0.554 5.701,0.735 2.054,0.181 5.133,-0.549 7.486,-1.894 0.158,-0.09 0.314,-0.184 0.469,-0.282 3.532,-2.222 3.235,-5.38 0.331,-7.18 -3.257,-2.018 -7.611,-2.11 -11.055,0.085 -2.312,1.473 -2.963,3.819 -0.486,5.208 1.947,1.091 4.825,1.178 7.044,-0.093 1.811,-1.037 1.346,-2.183 0.61,-2.628 -0.699,-0.425 -2.031,-0.713 -3.294,-0.207 -1.017,0.407 -1.333,1.645 0.734,1.805 -0.871,0.576 -2.23,0.719 -3.284,0.151 -2.056,-1.111 -0.775,-2.831 0.756,-3.52 2.828,-1.271 5.299,-0.879 7.384,0.412 2.159,1.337 2.003,3.722 -0.608,5.3 -2.066,1.249 -4.925,2.149 -9.114,1.078 -4.188,-1.071 -5.25,-3.426 -4.42,-5.938 0.674,-1.968 3.55,-4.145 7.646,-4.778 4.095,-0.634 7.374,-0.182 10.425,1.724 4.313,2.693 4.346,6.725 -0.776,9.717"
     style="fill:#e4e4e4;fill-rule:nonzero"
     id="path10" />
  <defs
     id="defs17">
    <linearGradient
       id="_Linear1"
       x2="1"
       gradientTransform="matrix(0,-49.619,49.619,0,615.22,51.088)"
       gradientUnits="userSpaceOnUse">
      <stop
         style="stop-color:#f36128"
         offset="0"
         id="stop12" />
      <stop
         style="stop-color:#f58153"
         offset="1"
         id="stop14" />
    </linearGradient>
    <linearGradient
       inkscape:collect="always"
       xlink:href="#_Linear1"
       id="linearGradient2868"
       gradientUnits="userSpaceOnUse"
       gradientTransform="matrix(0,-49.619,49.619,0,615.22,51.088)"
       x2="1" />
  </defs>
</svg>
