<?xml version="1.0" encoding="UTF-8" standalone="no"?>
<svg
   clip-rule="evenodd"
   fill-rule="evenodd"
   stroke-linejoin="round"
   stroke-miterlimit="2"
   viewBox="0 0 48 48"
   version="1.1"
   id="svg15"
   sodipodi:docname="audio-mp3.svg"
   inkscape:version="1.1.2 (0a00cf5339, 2022-02-04)"
   xmlns:inkscape="http://www.inkscape.org/namespaces/inkscape"
   xmlns:sodipodi="http://sodipodi.sourceforge.net/DTD/sodipodi-0.dtd"
   xmlns:xlink="http://www.w3.org/1999/xlink"
   xmlns="http://www.w3.org/2000/svg"
   xmlns:svg="http://www.w3.org/2000/svg">
  <defs
     id="defs19">
    <linearGradient
       inkscape:collect="always"
       xlink:href="#a"
       id="linearGradient2476"
       gradientUnits="userSpaceOnUse"
       gradientTransform="matrix(0,-37.21425,37.21425,0,460.66514,38.515125)"
       x2="1" />
  </defs>
  <sodipodi:namedview
     id="namedview17"
     pagecolor="#ffffff"
     bordercolor="#666666"
     borderopacity="1.0"
     inkscape:pageshadow="2"
     inkscape:pageopacity="0.0"
     inkscape:pagecheckerboard="0"
     showgrid="false"
     inkscape:zoom="14.208333"
     inkscape:cx="29.524927"
     inkscape:cy="28.082111"
     inkscape:window-width="942"
     inkscape:window-height="1022"
     inkscape:window-x="966"
     inkscape:window-y="46"
     inkscape:window-maximized="1"
     inkscape:current-layer="svg15" />
  <linearGradient
     id="a"
     x2="1"
     gradientTransform="matrix(0,-37.21425,37.21425,0,460.66514,38.515125)"
     gradientUnits="userSpaceOnUse">
    <stop
       stop-color="#349242"
       offset="0"
       id="stop2" />
    <stop
       stop-color="#4cb49f"
       offset="1"
       id="stop4" />
  </linearGradient>
  <path
     id="path7"
     style="stroke-width:0.75;fill:url(#linearGradient2476)"
     d="M 12.462891 1.3007812 C 10.947891 1.3007812 9.4955781 1.9036094 8.4238281 2.9746094 C 7.3528281 4.0463594 6.75 5.4986719 6.75 7.0136719 L 6.75 10.132812 L 6.75 40.986328 C 6.75 42.501328 7.3528281 43.953641 8.4238281 45.025391 C 9.4955781 46.096391 10.947891 46.699219 12.462891 46.699219 L 34.037109 46.699219 C 35.552109 46.699219 37.004422 46.096391 38.076172 45.025391 C 39.147172 43.953641 39.75 42.501328 39.75 40.986328 L 39.75 10.132812 L 39.75 7.0136719 C 39.75 5.4986719 39.147172 4.0463594 38.076172 2.9746094 C 37.004422 1.9036094 35.552109 1.3007812 34.037109 1.3007812 L 28.726562 1.3007812 L 17.773438 1.3007812 L 12.462891 1.3007812 z " />
  <path
     id="path1057"
     style="fill:#00504e;fill-opacity:1"
     d="m 6.7499985,38.867102 v 2.11914 c 0,1.515 0.602827,2.967063 1.673829,4.039063 0.8040001,0.80325 1.8221395,1.342751 2.9199215,1.5625 0,0 0.002,0 0.002,0 0.182349,0.03644 0.366588,0.06547 0.552735,0.08398 0,0 0.002,0 0.002,0 0.186153,0.01845 0.37378,0.02734 0.5625,0.02734 h 0.002 21.57031 c 0.568124,0 1.128063,-0.0856 1.66211,-0.248047 0.8895,-0.27074 1.708905,-0.756406 2.378906,-1.425781 1.070999,-1.072 1.673828,-2.524063 1.673828,-4.039063 v -2.11914 z" />
  <g
     fill-rule="nonzero"
     id="g13">
    <path
       transform="matrix(.75 0 0 .75 -.948786 .977539)"
       d="m28.918 18.26c-.767.215-1.385 1.072-1.385 1.903v13.191c-.778-.427-1.778-.6-2.814-.318-1.87.509-3.041 2.153-2.64 3.672.4 1.518 2.242 2.367 4.112 1.858 1.492-.406 2.52-1.554 2.684-2.765l.043-12.465 9.697-2.719v9.836c-.778-.427-1.778-.6-2.814-.318-1.87.509-3.041 2.153-2.641 3.672.401 1.519 2.243 2.367 4.113 1.858 1.491-.406 2.52-1.554 2.684-2.765l.043-16.227c0-.624-.368-1.09-.866-1.178z"
       fill="#00504e"
       id="path9" />
    <path
       transform="scale(.75)"
       d="m35.208 59.14h-.721v-.557h-.033c-.12.196-.303.36-.549.491-.241.131-.514.197-.82.197-.519 0-.967-.205-1.344-.615-.377-.409-.565-.918-.565-1.524s.188-1.115.565-1.524c.377-.41.825-.615 1.344-.615.306 0 .579.066.82.197.246.131.429.295.549.491h.033l-.033-.557v-1.852h.754zm-9.809-.557c-.3.459-.74.688-1.319.688-.426 0-.784-.123-1.074-.369-.284-.246-.426-.571-.426-.975 0-.437.169-.779.508-1.024.339-.252.757-.377 1.254-.377.443 0 .806.081 1.09.245v-.114c0-.295-.101-.53-.303-.705-.202-.18-.451-.271-.746-.271-.219 0-.418.052-.598.156-.175.104-.295.246-.361.426l-.688-.295c.093-.24.276-.461.549-.664.273-.207.634-.311 1.082-.311.513 0 .939.15 1.278.451.339.3.508.724.508 1.27v2.426h-.721v-.557zm4.374 0c-.114.191-.289.355-.524.491-.235.131-.484.197-.746.197-.503 0-.885-.153-1.147-.459-.257-.306-.386-.716-.386-1.229v-2.459h.754v2.336c0 .748.331 1.123.992 1.123.312 0 .566-.126.762-.377.197-.252.295-.541.295-.869v-2.213h.754v4.016h-.721v-.557zm8.467-2.975c.388-.41.883-.615 1.484-.615s1.095.205 1.483.615c.388.404.582.912.582 1.524s-.194 1.123-.582 1.533c-.388.404-.882.606-1.483.606s-1.096-.202-1.484-.606c-.388-.41-.582-.921-.582-1.533s.194-1.12.582-1.524zm-1.293 3.532h-.754v-4.016h.754zm-3.739-.557c.355 0 .656-.132.902-.394.251-.262.377-.614.377-1.057s-.126-.795-.377-1.057c-.246-.262-.547-.394-.902-.394-.35 0-.65.134-.901.402-.252.262-.377.612-.377 1.049s.125.789.377 1.057c.251.262.551.394.901.394zm-9.005 0c.311 0 .593-.115.844-.345.257-.235.385-.51.385-.827-.213-.175-.533-.263-.959-.263-.366 0-.642.08-.828.238-.185.158-.278.344-.278.557 0 .197.084.353.254.467.169.115.363.173.582.173zm14.595-.394c.262.262.571.394.926.394s.661-.132.918-.394c.262-.268.393-.62.393-1.057s-.131-.787-.393-1.049c-.257-.268-.563-.402-.918-.402s-.664.134-.926.402c-.257.262-.386.612-.386 1.049s.129.789.386 1.057zm-1.851-4.073c-.104.104-.23.156-.377.156-.148 0-.273-.052-.377-.156s-.156-.229-.156-.377c0-.147.052-.273.156-.377s.229-.156.377-.156c.147 0 .273.052.377.156s.155.23.155.377c0 .148-.051.273-.155.377z"
       fill="#fff"
       id="path11" />
  </g>
</svg>
