<?xml version="1.0" encoding="UTF-8" standalone="no"?>
<svg
   style="clip-rule:evenodd;fill-rule:evenodd;stroke-linejoin:round;stroke-miterlimit:2"
   viewBox="0 0 64 64"
   version="1.1"
   id="svg27"
   sodipodi:docname="application-x-theme.svg"
   inkscape:version="1.1.2 (0a00cf5339, 2022-02-04)"
   xmlns:inkscape="http://www.inkscape.org/namespaces/inkscape"
   xmlns:sodipodi="http://sodipodi.sourceforge.net/DTD/sodipodi-0.dtd"
   xmlns="http://www.w3.org/2000/svg"
   xmlns:svg="http://www.w3.org/2000/svg">
  <sodipodi:namedview
     id="namedview29"
     pagecolor="#ffffff"
     bordercolor="#666666"
     borderopacity="1.0"
     inkscape:pageshadow="2"
     inkscape:pageopacity="0.0"
     inkscape:pagecheckerboard="0"
     showgrid="false"
     inkscape:zoom="10.65625"
     inkscape:cx="23.460411"
     inkscape:cy="33.032258"
     inkscape:window-width="1896"
     inkscape:window-height="1022"
     inkscape:window-x="12"
     inkscape:window-y="46"
     inkscape:window-maximized="1"
     inkscape:current-layer="svg27" />
  <path
     id="path2"
     style="fill:url(#_Linear1)"
     d="M 17.617188 1.46875 C 16.873974 1.46875 16.143105 1.5805227 15.443359 1.7890625 L 15.443359 61.679688 C 16.143105 61.888227 16.873974 62 17.617188 62 L 46.382812 62 C 47.140313 62 47.885736 61.886379 48.597656 61.669922 C 48.834946 61.597801 49.067986 61.514701 49.296875 61.419922 C 49.754687 61.230297 50.195172 60.996797 50.609375 60.720703 C 51.023552 60.444659 51.412281 60.126531 51.769531 59.769531 C 52.126531 59.412281 52.444659 59.023552 52.720703 58.609375 C 52.996797 58.195172 53.230297 57.754688 53.419922 57.296875 C 53.799039 56.38132 54 55.392813 54 54.382812 L 54 9.0878906 C 54 7.0678906 53.197531 5.1282187 51.769531 3.6992188 C 50.340531 2.2712188 48.402814 1.46875 46.382812 1.46875 L 17.617188 1.46875 z " />
  <path
     id="path4"
     style="fill:url(#_Linear2)"
     d="M 39.443359 1.46875 L 39.443359 62 L 46.382812 62 C 48.402813 62 50.340531 61.197531 51.769531 59.769531 C 53.197531 58.340531 54 56.402813 54 54.382812 L 54 9.0878906 C 54 7.0678906 53.197531 5.1282187 51.769531 3.6992188 C 50.340531 2.2712188 48.402813 1.46875 46.382812 1.46875 L 39.443359 1.46875 z " />
  <path
     d="m25.29 1.469v60.531h-7.672c-2.02 0-3.958-0.803-5.387-2.231-1.428-1.429-2.231-3.367-2.231-5.387v-45.295c0-2.02 0.803-3.958 2.231-5.387 1.429-1.428 3.367-2.231 5.387-2.231h7.672z"
     style="fill:url(#_Linear3)"
     id="path6" />
  <path
     d="m44.433 41.332h1.023v-0.789h0.559v0.789h2.621c0.169 0 0.297-0.035 0.383-0.105 0.083-0.071 0.125-0.191 0.125-0.36 0-0.084-0.016-0.198-0.047-0.344h0.586c0.052 0.19 0.078 0.375 0.078 0.555 0 0.323-0.098 0.566-0.293 0.73s-0.473 0.246-0.832 0.246h-2.621v0.77h-0.559v-0.77h-1.023v-0.722zm5.328-7.788c0 0.573-0.187 1.039-0.562 1.398-0.378 0.358-0.882 0.539-1.512 0.539h-0.133c-0.419 0-0.793-0.08-1.121-0.238-0.331-0.163-0.589-0.386-0.774-0.672-0.187-0.29-0.281-0.602-0.281-0.938 0-0.55 0.181-0.976 0.543-1.282 0.362-0.304 0.88-0.456 1.555-0.456h0.301v2.863c0.416-0.011 0.754-0.132 1.011-0.363 0.256-0.235 0.383-0.532 0.383-0.89 0-0.256-0.052-0.473-0.156-0.649-0.104-0.178-0.242-0.333-0.414-0.465l0.344-0.441c0.544 0.353 0.816 0.884 0.816 1.594zm0-11.25c0 0.573-0.187 1.039-0.562 1.398-0.378 0.359-0.882 0.539-1.512 0.539h-0.133c-0.419 0-0.793-0.079-1.121-0.238-0.331-0.162-0.589-0.387-0.774-0.672-0.187-0.289-0.281-0.602-0.281-0.938 0-0.549 0.181-0.976 0.543-1.281s0.88-0.457 1.555-0.457h0.301v2.863c0.416-0.011 0.754-0.132 1.011-0.363 0.256-0.234 0.383-0.531 0.383-0.89 0-0.256-0.052-0.472-0.156-0.649s-0.242-0.332-0.414-0.465l0.344-0.441c0.544 0.353 0.816 0.884 0.816 1.594zm-4.305 8.089l0.469-0.02c-0.365-0.31-0.547-0.728-0.547-1.253 0-0.591 0.227-0.994 0.68-1.207-0.203-0.141-0.367-0.323-0.492-0.547-0.125-0.226-0.188-0.493-0.188-0.801 0-0.927 0.491-1.399 1.473-1.415l2.832 1e-3v0.723l-2.789-1e-3c-0.302 0-0.528 0.07-0.676 0.207-0.151 0.138-0.227 0.37-0.227 0.695 0 0.268 0.081 0.491 0.243 0.668 0.159 0.177 0.373 0.28 0.644 0.309l2.805 1e-3v0.726l-2.77-1e-3c-0.614 0-0.922 0.301-0.922 0.903 0 0.474 0.202 0.798 0.606 0.972l3.086 1e-3v0.723l-4.227-1e-3v-0.684zm0.512 8.599c-0.393-0.321-0.59-0.738-0.59-1.251 0-0.893 0.504-1.344 1.512-1.351h2.793v0.722h-2.797c-0.305 3e-3 -0.53 0.073-0.676 0.211-0.146 0.136-0.219 0.348-0.219 0.637 0 0.234 0.063 0.44 0.188 0.617s0.289 0.316 0.492 0.415h3.012v0.723h-6v-0.723h2.285zm4e-3 -5.349c0 0.292 0.107 0.537 0.32 0.735 0.211 0.198 0.508 0.32 0.891 0.367v-2.117h-0.055c-0.367 0.021-0.651 0.12-0.851 0.297-0.203 0.177-0.305 0.416-0.305 0.718zm0-11.25c0 0.292 0.107 0.537 0.32 0.735 0.211 0.198 0.508 0.32 0.891 0.367v-2.117h-0.055c-0.367 0.021-0.651 0.12-0.851 0.297-0.203 0.177-0.305 0.416-0.305 0.718z"
     style="fill-rule:nonzero;fill:#fff"
     id="path8" />
  <defs
     id="defs25">
    <linearGradient
       id="_Linear1"
       x2="1"
       gradientTransform="matrix(0,-49.619,49.619,0,323.66,51.088)"
       gradientUnits="userSpaceOnUse">
      <stop
         style="stop-color:#2daf61"
         offset="0"
         id="stop10" />
      <stop
         style="stop-color:#5bd0df"
         offset="1"
         id="stop12" />
    </linearGradient>
    <linearGradient
       id="_Linear2"
       x2="1"
       gradientTransform="matrix(0,-49.619,49.619,0,-113.88,51.088)"
       gradientUnits="userSpaceOnUse">
      <stop
         style="stop-color:#004ab0"
         offset="0"
         id="stop15" />
      <stop
         style="stop-color:#5bbadf"
         offset="1"
         id="stop17" />
    </linearGradient>
    <linearGradient
       id="_Linear3"
       x2="1"
       gradientTransform="matrix(3.06623e-15,-49.619,50.0753,3.03829e-15,326.545,51.088)"
       gradientUnits="userSpaceOnUse">
      <stop
         style="stop-color:#404040"
         offset="0"
         id="stop20" />
      <stop
         style="stop-color:#a1a1a1"
         offset="1"
         id="stop22" />
    </linearGradient>
  </defs>
  <path
     d="m 54,50.184 v 4.198 c 0,2.02 -0.803,3.958 -2.231,5.387 C 50.34,61.197 48.402,62 46.382,62 H 17.618 C 15.598,62 13.66,61.197 12.231,59.769 10.803,58.34 9.9999997,56.402 9.9999997,54.382 v -4.198 z"
     style="clip-rule:evenodd;fill:#1a1a1a;fill-opacity:0.89999998;fill-rule:evenodd;stroke-linejoin:round;stroke-miterlimit:2"
     id="path4-3" />
</svg>
