<?xml version="1.0" encoding="UTF-8" standalone="no"?>
<svg
   clip-rule="evenodd"
   fill-rule="evenodd"
   stroke-linejoin="round"
   stroke-miterlimit="2"
   viewBox="0 0 64 64"
   version="1.1"
   id="svg35"
   sodipodi:docname="application-x-lzma.svg"
   inkscape:version="1.1.2 (0a00cf5339, 2022-02-04)"
   xmlns:inkscape="http://www.inkscape.org/namespaces/inkscape"
   xmlns:sodipodi="http://sodipodi.sourceforge.net/DTD/sodipodi-0.dtd"
   xmlns:xlink="http://www.w3.org/1999/xlink"
   xmlns="http://www.w3.org/2000/svg"
   xmlns:svg="http://www.w3.org/2000/svg">
  <defs
     id="defs39">
    <linearGradient
       inkscape:collect="always"
       xlink:href="#a"
       id="linearGradient4369"
       gradientUnits="userSpaceOnUse"
       gradientTransform="matrix(1.07196,-49.7469,49.7469,1.07196,251.234,55.94)"
       x2="1" />
  </defs>
  <sodipodi:namedview
     id="namedview37"
     pagecolor="#ffffff"
     bordercolor="#666666"
     borderopacity="1.0"
     inkscape:pageshadow="2"
     inkscape:pageopacity="0.0"
     inkscape:pagecheckerboard="0"
     showgrid="false"
     inkscape:zoom="10.65625"
     inkscape:cx="32"
     inkscape:cy="32"
     inkscape:window-width="1896"
     inkscape:window-height="1022"
     inkscape:window-x="12"
     inkscape:window-y="46"
     inkscape:window-maximized="1"
     inkscape:current-layer="svg35" />
  <linearGradient
     id="a"
     x2="1"
     gradientTransform="matrix(1.07196,-49.7469,49.7469,1.07196,251.234,55.94)"
     gradientUnits="userSpaceOnUse">
    <stop
       stop-color="#075"
       offset="0"
       id="stop2" />
    <stop
       stop-color="#3ec884"
       offset="1"
       id="stop4" />
  </linearGradient>
  <path
     id="path7"
     style="fill:url(#linearGradient4369)"
     d="M 17.617188 1.46875 C 15.597188 1.46875 13.659469 2.2712188 12.230469 3.6992188 C 10.802469 5.1282186 10 7.0678906 10 9.0878906 L 10 10.71875 L 10 54.382812 C 10 56.402814 10.802469 58.340531 12.230469 59.769531 C 13.659469 61.197531 15.597186 62 17.617188 62 L 46.382812 62 C 48.402814 62 50.340531 61.197531 51.769531 59.769531 C 53.197531 58.340531 54 56.402814 54 54.382812 L 54 10.71875 L 54 9.0878906 C 54 7.0678906 53.197531 5.1282185 51.769531 3.6992188 C 50.340531 2.2712188 48.402814 1.46875 46.382812 1.46875 L 39.408203 1.46875 L 24.591797 1.46875 L 17.617188 1.46875 z " />
  <path
     id="path914"
     style="clip-rule:evenodd;fill:#044937;fill-opacity:1;fill-rule:evenodd;stroke-width:1;stroke-linejoin:round;stroke-miterlimit:2"
     d="m 10,50.982422 v 3.40039 c 0,2.020002 0.802469,3.957719 2.230469,5.386719 C 13.659468,61.197531 15.597185,62 17.617187,62 h 28.765625 c 2.020002,0 3.957718,-0.802469 5.386719,-2.230469 C 53.19753,58.340531 54,56.402814 54,54.382812 v -3.40039 z" />
  <path
     d="m42 18.285c0-1.262-1.023-2.285-2.285-2.285h-15.23c-1.262 0-2.285 1.023-2.285 2.285v17.43c0 1.262 1.023 2.285 2.285 2.285h15.23c1.262 0 2.285-1.023 2.285-2.285z"
     fill="#044937"
     id="path9" />
  <g
     fill="#fff"
     id="g33">
    <path
       d="m24.509 53.672h.754v5.868h-.754z"
       id="path11" />
    <path
       d="m26.057 59.54v-.656l2.287-2.672h-2.221v-.688h3.147v.656l-2.287 2.671h2.319v.689z"
       fill-rule="nonzero"
       id="path13" />
    <path
       d="m30.031 59.54v-4.016h.722v.557h.032c.115-.191.29-.352.525-.483.24-.137.478-.205.713-.205.623 0 1.046.257 1.27.77.328-.513.795-.77 1.402-.77.475 0 .833.153 1.073.459.241.3.361.71.361 1.229v2.459h-.754v-2.344c0-.404-.074-.691-.221-.861-.148-.169-.372-.254-.672-.254-.296 0-.541.126-.738.377-.191.252-.287.539-.287.861v2.221h-.754v-2.344c0-.404-.074-.691-.221-.861-.148-.169-.372-.254-.672-.254-.295 0-.541.126-.738.377-.191.252-.287.539-.287.861v2.221z"
       fill-rule="nonzero"
       id="path15" />
    <path
       d="m38.233 59.671c-.427 0-.784-.123-1.074-.369-.284-.246-.426-.571-.426-.975 0-.437.169-.779.508-1.024.339-.252.757-.377 1.254-.377.442 0 .806.081 1.09.245v-.114c0-.295-.101-.53-.303-.705-.203-.18-.451-.271-.746-.271-.219 0-.418.052-.598.156-.175.104-.295.246-.361.426l-.688-.295c.092-.24.275-.461.549-.664.273-.207.633-.311 1.081-.311.514 0 .94.15 1.279.451.339.3.508.724.508 1.27v2.426h-.721v-.557h-.033c-.3.459-.74.688-1.319.688zm.123-.688c.311 0 .592-.115.844-.345.256-.235.385-.51.385-.827-.213-.175-.533-.263-.959-.263-.366 0-.642.08-.828.238s-.278.344-.278.557c0 .197.084.353.254.467.169.115.363.173.582.173z"
       fill-rule="nonzero"
       id="path17" />
    <path
       d="m31.039 16.611h2.2v1.1h-2.2z"
       fill-opacity=".93"
       id="path19" />
    <path
       d="m31.035 18.202h2.2v1.1h-2.2z"
       fill-opacity=".93"
       id="path21" />
    <path
       d="m31.021 19.774h2.2v1.1h-2.2z"
       fill-opacity=".93"
       id="path23" />
    <path
       d="m31.045 21.41h2.2v1.1h-2.2z"
       fill-opacity=".93"
       id="path25" />
    <path
       d="m31.045 23.018h2.2v1.1h-2.2z"
       fill-opacity=".93"
       id="path27" />
    <path
       d="m31.045 24.663h2.2v1.1h-2.2z"
       fill-opacity=".93"
       id="path29" />
    <path
       d="m32.951 27.371v-.694c0-.194-.157-.351-.349-.351h-.97c-.193 0-.349.157-.349.351v.693l-.539 1.591c-.151.443-.079.935.193 1.317.272.381.713.608 1.18.608s.908-.227 1.18-.608c.271-.382.344-.874.193-1.317zm-.226 2.497c-.279.393-.937.393-1.217 0-.14-.197-.177-.451-.1-.68l.181-.533h1.055l.181.533c.078.229.04.483-.1.68z"
       fill-rule="nonzero"
       id="path31" />
  </g>
</svg>
