<?xml version="1.0" encoding="UTF-8" standalone="no"?>
<svg
   clip-rule="evenodd"
   fill-rule="evenodd"
   stroke-linejoin="round"
   stroke-miterlimit="2"
   viewBox="0 0 64 64"
   version="1.1"
   id="svg19"
   sodipodi:docname="application-x-gzip.svg"
   inkscape:version="1.1.2 (0a00cf5339, 2022-02-04)"
   xmlns:inkscape="http://www.inkscape.org/namespaces/inkscape"
   xmlns:sodipodi="http://sodipodi.sourceforge.net/DTD/sodipodi-0.dtd"
   xmlns:xlink="http://www.w3.org/1999/xlink"
   xmlns="http://www.w3.org/2000/svg"
   xmlns:svg="http://www.w3.org/2000/svg">
  <defs
     id="defs23">
    <linearGradient
       inkscape:collect="always"
       xlink:href="#a"
       id="linearGradient957"
       gradientUnits="userSpaceOnUse"
       gradientTransform="matrix(1.07196,-49.7469,49.7469,1.07196,178.156,54.3653)"
       x2="1" />
  </defs>
  <sodipodi:namedview
     id="namedview21"
     pagecolor="#ffffff"
     bordercolor="#666666"
     borderopacity="1.0"
     inkscape:pageshadow="2"
     inkscape:pageopacity="0.0"
     inkscape:pagecheckerboard="0"
     showgrid="false"
     inkscape:zoom="10.65625"
     inkscape:cx="32"
     inkscape:cy="32"
     inkscape:window-width="1896"
     inkscape:window-height="1022"
     inkscape:window-x="12"
     inkscape:window-y="46"
     inkscape:window-maximized="1"
     inkscape:current-layer="svg19" />
  <linearGradient
     id="a"
     x2="1"
     gradientTransform="matrix(1.07196,-49.7469,49.7469,1.07196,178.156,54.3653)"
     gradientUnits="userSpaceOnUse">
    <stop
       stop-color="#075"
       offset="0"
       id="stop2" />
    <stop
       stop-color="#3ec884"
       offset="1"
       id="stop4" />
  </linearGradient>
  <path
     id="path7"
     style="fill:url(#linearGradient957)"
     d="M 17.617188 1.46875 C 15.597188 1.46875 13.659469 2.2712188 12.230469 3.6992188 C 10.802469 5.1282186 10 7.0678906 10 9.0878906 L 10 11.480469 L 10 54.382812 C 10 56.402814 10.802469 58.340531 12.230469 59.769531 C 13.659469 61.197531 15.597187 62 17.617188 62 L 46.382812 62 C 48.402814 62 50.340531 61.197531 51.769531 59.769531 C 53.197531 58.340531 54 56.402814 54 54.382812 L 54 11.480469 L 54 9.0878906 C 54 7.0678906 53.197531 5.1282186 51.769531 3.6992188 C 50.340531 2.2712188 48.402813 1.46875 46.382812 1.46875 L 37.933594 1.46875 L 26.066406 1.46875 L 17.617188 1.46875 z " />
  <path
     id="path2-3"
     style="clip-rule:evenodd;fill:#044937;fill-opacity:1;fill-rule:evenodd;stroke-linejoin:round;stroke-miterlimit:2"
     d="m 10,50.982422 v 3.398437 0.002 c 6.5e-5,0.251841 0.01244,0.501552 0.03711,0.75 v 0.002 c 0.02473,0.248442 0.06268,0.494885 0.111329,0.738281 v 0.002 c 0.04871,0.243391 0.109702,0.484016 0.18164,0.720703 v 0.002 c 0.072,0.236684 0.155456,0.468944 0.25,0.697266 v 0.002 c 0.09461,0.228323 0.199937,0.453573 0.316406,0.671875 v 0.002 c 0.116532,0.218305 0.245101,0.430096 0.382814,0.636719 v 0.002 c 0.137775,0.206628 0.287037,0.406326 0.445311,0.599609 v 0.002 c 0.158341,0.193289 0.327703,0.378358 0.505861,0.55664 v 0.002 c 0.714499,0.714 1.5571,1.271274 2.472656,1.650391 C 15.618679,61.799106 16.607187,62 17.617188,62 h 28.765624 c 1.010002,0 1.998509,-0.200473 2.914063,-0.580078 0.915555,-0.379117 1.758156,-0.936391 2.472656,-1.650391 v -0.002 C 53.197531,58.338626 54,56.400859 54,54.380859 v -3.398437 z" />
  <path
     d="m42 18.285c0-1.262-1.023-2.285-2.285-2.285h-15.23c-1.262 0-2.285 1.023-2.285 2.285v17.43c0 1.262 1.023 2.285 2.285 2.285h15.23c1.262 0 2.285-1.023 2.285-2.285z"
     fill="#044937"
     id="path9" />
  <g
     fill="#fff"
     id="g17">
    <path
       d="m33.245 24.663v1.1h-2.2v-1.1zm0-1.645v1.1h-2.2v-1.1zm0-1.608v1.1h-2.2v-1.1zm-.024-1.636v1.1h-2.2v-1.1zm.014-1.572v1.1h-2.2v-1.1zm.004-1.591v1.1h-2.2v-1.1z"
       fill-opacity=".93"
       id="path11" />
    <path
       d="m32.951 27.371v-.694c0-.194-.157-.351-.349-.351h-.97c-.193 0-.349.157-.349.351v.693l-.539 1.591c-.151.443-.079.935.193 1.317.272.381.713.608 1.18.608s.908-.227 1.18-.608c.271-.382.344-.874.193-1.317zm-.226 2.497c-.279.393-.937.393-1.217 0-.14-.197-.177-.451-.1-.68l.181-.533h1.055l.181.533c.078.229.04.483-.1.68z"
       fill-rule="nonzero"
       id="path13" />
    <path
       d="m28.058 57.782c-.131.197-.317.361-.557.492s-.511.197-.811.197c-.519 0-.968-.205-1.345-.615s-.565-.918-.565-1.524c0-.607.188-1.115.565-1.525.377-.409.826-.614 1.345-.614.3 0 .571.065.811.196.24.132.426.295.557.492h.033v-.557h.721v3.811c0 .688-.199 1.21-.598 1.565-.399.361-.885.541-1.459.541-.475 0-.863-.12-1.164-.361-.3-.235-.516-.505-.647-.811l.688-.287c.077.219.216.402.418.549.208.148.443.222.705.222.415 0 .74-.126.975-.377.241-.246.361-.582.361-1.008v-.386zm8.141 2.328h-.754v-5.786h.721v.557h.033c.12-.197.301-.36.541-.492.246-.131.522-.196.828-.196.519 0 .967.205 1.344.614.377.41.565.918.565 1.525 0 .606-.188 1.114-.565 1.524s-.825.615-1.344.615c-.306 0-.582-.066-.828-.197-.24-.131-.421-.295-.541-.492h-.033l.033.558zm-1.71-1.77h-.754v-4.016h.754zm-1.629 0h-3.245v-.656l2.286-2.672h-2.221v-.688h3.147v.655l-2.286 2.672h2.319zm-6.048-.558c.356 0 .656-.131.902-.393.251-.262.377-.615.377-1.057 0-.443-.126-.795-.377-1.057-.246-.263-.546-.394-.902-.394-.349 0-.65.134-.901.402-.251.262-.377.612-.377 1.049s.126.789.377 1.057c.251.262.552.393.901.393zm10.633 0c.35 0 .65-.131.901-.393.252-.268.377-.62.377-1.057s-.125-.787-.377-1.049c-.251-.268-.551-.402-.901-.402-.355 0-.659.131-.91.394-.246.262-.369.614-.369 1.057 0 .442.123.795.369 1.057.251.262.555.393.91.393zm-2.956-4.466c-.104.104-.23.156-.377.156-.148 0-.273-.052-.377-.156s-.156-.23-.156-.377c0-.148.052-.273.156-.377s.229-.156.377-.156c.147 0 .273.052.377.156s.155.229.155.377c0 .147-.051.273-.155.377z"
       fill-rule="nonzero"
       id="path15" />
  </g>
</svg>
