<?xml version="1.0" encoding="UTF-8" standalone="no"?>
<svg
   style="clip-rule:evenodd;fill-rule:evenodd;stroke-linejoin:round;stroke-miterlimit:2"
   viewBox="0 0 64 64"
   version="1.1"
   id="svg20"
   sodipodi:docname="text-calendar.svg"
   inkscape:version="1.1.2 (0a00cf5339, 2022-02-04)"
   xmlns:inkscape="http://www.inkscape.org/namespaces/inkscape"
   xmlns:sodipodi="http://sodipodi.sourceforge.net/DTD/sodipodi-0.dtd"
   xmlns:xlink="http://www.w3.org/1999/xlink"
   xmlns="http://www.w3.org/2000/svg"
   xmlns:svg="http://www.w3.org/2000/svg">
  <sodipodi:namedview
     id="namedview22"
     pagecolor="#ffffff"
     bordercolor="#666666"
     borderopacity="1.0"
     inkscape:pageshadow="2"
     inkscape:pageopacity="0.0"
     inkscape:pagecheckerboard="0"
     showgrid="false"
     inkscape:zoom="10.65625"
     inkscape:cx="32"
     inkscape:cy="32"
     inkscape:window-width="1896"
     inkscape:window-height="1022"
     inkscape:window-x="12"
     inkscape:window-y="46"
     inkscape:window-maximized="1"
     inkscape:current-layer="svg20" />
  <path
     id="path2"
     style="fill:url(#linearGradient2515)"
     d="M 17.617188 1.46875 C 15.597188 1.46875 13.659469 2.2712188 12.230469 3.6992188 C 10.802469 5.1282186 10 7.0678906 10 9.0878906 L 10 13.302734 L 10 54.382812 C 10 56.402814 10.802469 58.340531 12.230469 59.769531 C 13.659469 61.197531 15.597187 62 17.617188 62 L 46.382812 62 C 48.402814 62 50.340531 61.197531 51.769531 59.769531 C 53.197531 58.340531 54 56.402814 54 54.382812 L 54 13.302734 L 54 9.0878906 C 54 7.0678906 53.197531 5.1282186 51.769531 3.6992188 C 50.340531 2.2712188 48.402813 1.46875 46.382812 1.46875 L 35.375 1.46875 L 28.625 1.46875 L 17.617188 1.46875 z " />
  <path
     d="m18.396 22.717h-2.968c0-1.85 0.673-3.385 2.021-4.604 1.359-1.23 3.08-1.845 5.166-1.845 2.204 0 3.93 0.583 5.182 1.748 1.251 1.167 1.876 2.787 1.876 4.861 0 1.016-0.33 2-0.994 2.952-0.652 0.952-1.546 1.663-2.679 2.134 1.284 0.406 2.273 1.081 2.968 2.021 0.705 0.941 1.059 2.092 1.059 3.449 0 2.098-0.684 3.76-2.054 4.99-1.369 1.23-3.149 1.845-5.342 1.845-2.192 0-3.979-0.593-5.358-1.781-1.369-1.187-2.054-2.754-2.054-4.7h2.984c0 1.229 0.401 2.213 1.204 2.952 0.801 0.737 1.877 1.106 3.224 1.106 1.433 0 2.529-0.374 3.289-1.122 0.759-0.75 1.139-1.824 1.139-3.226 0-1.357-0.418-2.4-1.251-3.128-0.835-0.726-2.037-1.101-3.611-1.122h-2.229v-2.423h2.229c1.402-0.021 2.503-0.391 3.306-1.107 0.802-0.717 1.202-1.684 1.202-2.904 0-2.737-1.362-4.106-4.09-4.106-1.283 0-2.31 0.369-3.08 1.106-0.759 0.728-1.139 1.695-1.139 2.904zm30.385 7.267c0 3.476-0.594 6.06-1.781 7.749-1.187 1.69-3.043 2.535-5.567 2.535-2.492 0-4.337-0.824-5.534-2.471-1.199-1.657-1.819-4.128-1.862-7.412v-3.962c0-3.434 0.594-5.984 1.782-7.652 1.186-1.668 3.048-2.503 5.582-2.503 2.514 0 4.364 0.808 5.551 2.423 1.187 1.604 1.796 4.085 1.829 7.444v3.849zm-2.968-4.059c0-2.513-0.353-4.341-1.058-5.486-0.707-1.155-1.824-1.732-3.354-1.732-1.518 0-2.625 0.572-3.321 1.716-0.695 1.145-1.053 2.904-1.075 5.278v4.748c0 2.524 0.364 4.391 1.091 5.6 0.739 1.198 1.851 1.796 3.337 1.796 1.466 0 2.551-0.566 3.256-1.7 0.718-1.134 1.092-2.92 1.124-5.358v-4.862z"
     style="fill-rule:nonzero;fill:url(#_Linear2)"
     id="path6" />
  <defs
     id="defs18">
    <linearGradient
       id="_Linear1"
       x2="1"
       gradientTransform="matrix(0,-49.619,49.619,0,615.22,51.088)"
       gradientUnits="userSpaceOnUse">
      <stop
         style="stop-color:#097ada"
         offset="0"
         id="stop8" />
      <stop
         style="stop-color:#0a95f3"
         offset="1"
         id="stop10" />
    </linearGradient>
    <linearGradient
       id="_Linear2"
       x2="1"
       gradientTransform="matrix(-.45714 -23.8857 23.8857 -.45714 381.897 33.2966)"
       gradientUnits="userSpaceOnUse">
      <stop
         style="stop-color:#fefffe"
         offset="0"
         id="stop13" />
      <stop
         style="stop-color:#f1f1f0"
         offset="1"
         id="stop15" />
    </linearGradient>
    <linearGradient
       inkscape:collect="always"
       xlink:href="#_Linear1"
       id="linearGradient2515"
       gradientUnits="userSpaceOnUse"
       gradientTransform="matrix(0,-49.619,49.619,0,615.22,51.088)"
       x2="1" />
  </defs>
  <path
     id="path2-3"
     style="clip-rule:evenodd;fill:#1c4f79;fill-opacity:1;fill-rule:evenodd;stroke-linecap:round;stroke-linejoin:round;stroke-miterlimit:2"
     d="m 10.000002,50.982422 v 3.398437 0.002 c 6.5e-5,0.251841 0.01244,0.501552 0.03711,0.75 v 0.002 c 0.02473,0.248442 0.06268,0.494885 0.111329,0.738281 v 0.002 c 0.04871,0.243391 0.109702,0.484016 0.18164,0.720703 v 0.002 c 0.072,0.236684 0.155456,0.468944 0.25,0.697266 v 0.002 c 0.09461,0.228323 0.199936,0.453573 0.316406,0.671875 v 0.002 c 0.116531,0.218305 0.245101,0.430096 0.382813,0.636719 v 0.002 c 0.137776,0.206628 0.287038,0.406326 0.445312,0.599609 v 0.002 c 0.158341,0.193289 0.327702,0.378358 0.50586,0.55664 v 0.002 c 0.714499,0.714 1.5571,1.271274 2.472656,1.650391 C 15.618681,61.799106 16.607188,62 17.617188,62 h 28.765625 c 1.010002,0 1.998508,-0.200473 2.914062,-0.580078 0.915555,-0.379117 1.758156,-0.936391 2.472656,-1.650391 v -0.002 C 53.197531,58.338626 54,56.400859 54,54.380859 v -3.398437 z" />
  <path
     d="m 39.087,58.944211 c -0.03,0 -0.063,-0.001 -0.1,-0.005 -0.036,-0.003 -0.068,-0.007 -0.096,-0.012 v -0.381 c 0.025,0.005 0.054,0.009 0.088,0.01 0.034,0.004 0.066,0.006 0.096,0.006 0.064,0 0.12,-0.008 0.17,-0.026 0.052,-0.016 0.099,-0.041 0.14,-0.077 0.042,-0.037 0.078,-0.084 0.108,-0.143 0.034,-0.058 0.064,-0.13 0.094,-0.214 l 0.054,-0.166 -1.033,-2.792 h 0.479 l 0.781,2.331 h 0.011 l 0.781,-2.331 h 0.473 l -1.092,2.96 c -0.06,0.162 -0.12,0.296 -0.18,0.403 -0.061,0.109 -0.128,0.196 -0.202,0.259 -0.072,0.066 -0.155,0.112 -0.248,0.137 -0.092,0.028 -0.199,0.041 -0.324,0.041 z m -2.548,-2.996 h -0.432 c 0.004,-0.117 0.033,-0.226 0.088,-0.328 0.056,-0.101 0.13,-0.189 0.225,-0.264 0.095,-0.074 0.205,-0.132 0.331,-0.173 0.128,-0.043 0.265,-0.064 0.412,-0.064 0.165,0 0.314,0.021 0.448,0.064 0.132,0.041 0.245,0.101 0.341,0.181 0.095,0.078 0.167,0.172 0.217,0.284 0.051,0.111 0.078,0.235 0.078,0.371 v 1.915 H 37.82 v -0.484 h -0.011 c -0.04,0.077 -0.09,0.148 -0.153,0.212 -0.061,0.061 -0.132,0.116 -0.209,0.16 -0.078,0.044 -0.162,0.077 -0.254,0.101 -0.089,0.024 -0.184,0.036 -0.281,0.036 -0.141,0 -0.271,-0.019 -0.385,-0.057 -0.116,-0.039 -0.216,-0.095 -0.299,-0.166 -0.083,-0.072 -0.147,-0.158 -0.191,-0.258 -0.045,-0.102 -0.068,-0.215 -0.068,-0.339 0,-0.241 0.09,-0.431 0.267,-0.567 0.177,-0.136 0.437,-0.214 0.779,-0.236 l 0.781,-0.045 v -0.233 c 0,-0.175 -0.055,-0.307 -0.165,-0.399 -0.108,-0.093 -0.267,-0.14 -0.474,-0.14 -0.081,0 -0.156,0.011 -0.225,0.032 -0.069,0.019 -0.131,0.047 -0.187,0.085 -0.053,0.036 -0.097,0.08 -0.133,0.135 -0.035,0.053 -0.059,0.112 -0.073,0.177 z m -8.172,2.011 c -0.198,0 -0.375,-0.033 -0.534,-0.101 -0.157,-0.067 -0.29,-0.162 -0.404,-0.284 -0.112,-0.124 -0.197,-0.274 -0.258,-0.448 -0.06,-0.176 -0.09,-0.371 -0.09,-0.587 0,-0.217 0.03,-0.413 0.09,-0.588 0.061,-0.176 0.146,-0.324 0.258,-0.447 0.114,-0.124 0.247,-0.22 0.404,-0.285 0.159,-0.067 0.336,-0.1 0.534,-0.1 0.196,0 0.373,0.033 0.53,0.1 0.159,0.065 0.294,0.161 0.406,0.285 0.112,0.123 0.198,0.271 0.258,0.447 0.062,0.175 0.091,0.371 0.091,0.588 0,0.216 -0.029,0.411 -0.091,0.587 -0.06,0.174 -0.146,0.324 -0.258,0.448 -0.112,0.122 -0.247,0.217 -0.406,0.284 -0.157,0.068 -0.334,0.101 -0.53,0.101 z m 7.096,-0.025 h -0.43 v -0.471 h -0.008 c -0.09,0.161 -0.213,0.285 -0.366,0.369 -0.154,0.084 -0.332,0.127 -0.536,0.127 -0.176,0 -0.338,-0.033 -0.484,-0.101 -0.144,-0.068 -0.271,-0.166 -0.378,-0.29 -0.105,-0.124 -0.186,-0.273 -0.245,-0.448 -0.059,-0.176 -0.088,-0.369 -0.088,-0.581 0,-0.212 0.029,-0.405 0.088,-0.58 0.059,-0.176 0.139,-0.325 0.243,-0.449 0.105,-0.126 0.23,-0.22 0.374,-0.288 0.146,-0.07 0.306,-0.103 0.479,-0.103 0.2,0 0.377,0.041 0.531,0.124 0.153,0.083 0.273,0.2 0.36,0.355 h 0.009 v -1.56 h 0.451 z m -4.914,-2.79 v 0.454 h 0.011 c 0.177,-0.32 0.481,-0.479 0.911,-0.479 0.153,0 0.292,0.024 0.414,0.072 0.123,0.047 0.227,0.115 0.312,0.204 0.087,0.088 0.152,0.196 0.198,0.324 0.046,0.125 0.069,0.268 0.069,0.427 v 1.788 h -0.449 v -1.711 c 0,-0.229 -0.059,-0.404 -0.174,-0.523 -0.116,-0.12 -0.284,-0.181 -0.505,-0.181 -0.113,0 -0.217,0.02 -0.312,0.057 -0.093,0.038 -0.173,0.092 -0.241,0.16 -0.066,0.07 -0.116,0.154 -0.152,0.252 -0.038,0.098 -0.055,0.207 -0.055,0.326 v 1.62 h -0.451 v -2.79 z m -7.248,2.79 h -0.434 v -3.734 h 0.54 l 1.289,3.115 h 0.02 l 1.288,-3.115 h 0.541 v 3.734 h -0.434 v -2.878 h -0.019 l -1.189,2.851 h -0.394 l -1.19,-2.851 h -0.018 z m 13.706,-0.366 c 0.114,0 0.22,-0.017 0.316,-0.052 0.097,-0.034 0.18,-0.082 0.248,-0.144 0.07,-0.062 0.126,-0.136 0.166,-0.22 0.039,-0.086 0.059,-0.18 0.059,-0.28 v -0.225 l -0.729,0.047 c -0.211,0.014 -0.37,0.058 -0.476,0.134 -0.107,0.075 -0.16,0.179 -0.16,0.314 0,0.065 0.012,0.124 0.038,0.176 0.028,0.052 0.067,0.096 0.116,0.134 0.052,0.038 0.114,0.067 0.184,0.088 0.071,0.019 0.15,0.028 0.238,0.028 z m -8.64,-0.01 c 0.129,0 0.245,-0.023 0.346,-0.07 0.103,-0.046 0.191,-0.113 0.262,-0.198 0.072,-0.088 0.126,-0.196 0.162,-0.322 0.039,-0.126 0.058,-0.269 0.058,-0.429 0,-0.16 -0.019,-0.304 -0.058,-0.429 -0.036,-0.127 -0.09,-0.234 -0.162,-0.322 -0.071,-0.088 -0.159,-0.154 -0.262,-0.198 -0.101,-0.047 -0.217,-0.071 -0.346,-0.071 -0.13,0 -0.246,0.024 -0.35,0.071 -0.101,0.046 -0.189,0.113 -0.261,0.201 -0.071,0.087 -0.125,0.192 -0.163,0.319 -0.036,0.125 -0.054,0.269 -0.054,0.429 0,0.16 0.018,0.303 0.057,0.429 0.037,0.126 0.092,0.234 0.163,0.322 0.07,0.085 0.157,0.152 0.258,0.198 0.104,0.047 0.22,0.07 0.35,0.07 z m 5.836,-2.039 c -0.123,0 -0.234,0.024 -0.334,0.073 -0.1,0.048 -0.186,0.118 -0.258,0.207 -0.071,0.088 -0.127,0.195 -0.166,0.32 -0.038,0.127 -0.057,0.267 -0.057,0.42 0,0.155 0.019,0.296 0.057,0.421 0.039,0.124 0.095,0.231 0.166,0.322 0.072,0.088 0.158,0.156 0.258,0.204 0.1,0.048 0.211,0.072 0.334,0.072 0.121,0 0.23,-0.024 0.332,-0.072 0.1,-0.051 0.185,-0.12 0.256,-0.21 0.07,-0.089 0.125,-0.197 0.165,-0.321 0.04,-0.125 0.059,-0.264 0.059,-0.416 0,-0.152 -0.019,-0.289 -0.059,-0.415 -0.04,-0.125 -0.095,-0.233 -0.165,-0.322 -0.071,-0.09 -0.156,-0.159 -0.256,-0.207 -0.102,-0.051 -0.211,-0.076 -0.332,-0.076 z"
     style="fill:#ffffff;fill-rule:nonzero"
     id="path4" />
</svg>
