<?xml version="1.0" encoding="UTF-8" standalone="no"?>
<svg
   style="clip-rule:evenodd;fill-rule:evenodd;stroke-linejoin:round;stroke-miterlimit:2"
   viewBox="0 0 64 64"
   version="1.1"
   id="svg19"
   sodipodi:docname="android-package-archive.svg"
   inkscape:version="1.1.2 (0a00cf5339, 2022-02-04)"
   xmlns:inkscape="http://www.inkscape.org/namespaces/inkscape"
   xmlns:sodipodi="http://sodipodi.sourceforge.net/DTD/sodipodi-0.dtd"
   xmlns:xlink="http://www.w3.org/1999/xlink"
   xmlns="http://www.w3.org/2000/svg"
   xmlns:svg="http://www.w3.org/2000/svg">
  <sodipodi:namedview
     id="namedview21"
     pagecolor="#ffffff"
     bordercolor="#666666"
     borderopacity="1.0"
     inkscape:pageshadow="2"
     inkscape:pageopacity="0.0"
     inkscape:pagecheckerboard="0"
     showgrid="false"
     inkscape:zoom="11.313709"
     inkscape:cx="32.880465"
     inkscape:cy="32.482718"
     inkscape:window-width="1900"
     inkscape:window-height="1026"
     inkscape:window-x="10"
     inkscape:window-y="44"
     inkscape:window-maximized="1"
     inkscape:current-layer="svg19"
     inkscape:snap-global="true" />
  <path
     id="path3627"
     style="fill:url(#linearGradient947);stroke-width:1"
     d="M 17.617188 1.46875 C 15.597188 1.46875 13.659469 2.2712188 12.230469 3.6992188 C 10.802469 5.1282186 10 7.0678906 10 9.0878906 L 10 16.390625 L 10 54.382812 C 10 56.402814 10.802469 58.340531 12.230469 59.769531 C 13.659469 61.197531 15.597187 62 17.617188 62 L 46.382812 62 C 48.402814 62 50.340531 61.197531 51.769531 59.769531 C 53.197531 58.340531 54 56.402814 54 54.382812 L 54 16.390625 L 54 9.0878906 C 54 7.0678906 53.197531 5.1282186 51.769531 3.6992188 C 50.340531 2.2712188 48.402813 1.46875 46.382812 1.46875 L 34.71875 1.46875 L 29.28125 1.46875 L 17.617188 1.46875 z " />
  <path
     id="path914"
     style="fill:#36671e;stroke-width:1;fill-opacity:1"
     d="M 10 50.982422 L 10 54.382812 C 10 56.402814 10.802469 58.340531 12.230469 59.769531 C 13.659469 61.197531 15.597186 62 17.617188 62 L 46.382812 62 C 48.402814 62 50.340531 61.197531 51.769531 59.769531 C 53.197531 58.340531 54 56.402814 54 54.382812 L 54 50.982422 L 10 50.982422 z " />
  <g
     id="g1078"
     transform="translate(0,-0.001789)">
    <path
       d="m 27.578,58.575 c -0.407,0 -0.748,-0.118 -1.025,-0.353 -0.271,-0.234 -0.407,-0.545 -0.407,-0.931 0,-0.417 0.162,-0.743 0.485,-0.978 0.324,-0.24 0.723,-0.36 1.198,-0.36 0.422,0 0.769,0.078 1.041,0.235 v -0.11 c 0,-0.282 -0.097,-0.506 -0.29,-0.673 -0.193,-0.172 -0.43,-0.258 -0.712,-0.258 -0.209,0 -0.399,0.049 -0.571,0.148 -0.167,0.099 -0.282,0.235 -0.345,0.407 l -0.657,-0.281 c 0.088,-0.23 0.263,-0.441 0.524,-0.634 0.261,-0.199 0.605,-0.298 1.033,-0.298 0.491,0 0.898,0.144 1.221,0.431 0.324,0.287 0.485,0.691 0.485,1.213 v 2.316 H 28.87 v -0.532 h -0.032 c -0.287,0.439 -0.707,0.658 -1.26,0.658 z m 0.118,-0.658 c 0.297,0 0.566,-0.109 0.806,-0.328 0.245,-0.225 0.368,-0.488 0.368,-0.791 -0.204,-0.167 -0.509,-0.25 -0.916,-0.25 -0.35,0 -0.613,0.075 -0.791,0.227 -0.177,0.151 -0.266,0.328 -0.266,0.532 0,0.188 0.081,0.336 0.243,0.446 0.162,0.109 0.347,0.164 0.556,0.164 z"
       style="fill:#ffffff;fill-rule:nonzero"
       id="path4" />
    <path
       d="m 32.366,58.575 c -0.292,0 -0.556,-0.063 -0.79,-0.188 -0.23,-0.125 -0.402,-0.282 -0.517,-0.47 h -0.031 l 0.031,0.532 v 1.691 h -0.72 v -5.526 h 0.689 v 0.533 h 0.031 c 0.115,-0.188 0.287,-0.345 0.517,-0.47 0.234,-0.125 0.498,-0.188 0.79,-0.188 0.496,0 0.924,0.196 1.284,0.587 0.36,0.391 0.54,0.877 0.54,1.456 0,0.579 -0.18,1.064 -0.54,1.456 -0.36,0.391 -0.788,0.587 -1.284,0.587 z m -0.117,-0.658 c 0.334,0 0.621,-0.125 0.861,-0.375 0.24,-0.256 0.36,-0.593 0.36,-1.01 0,-0.418 -0.12,-0.751 -0.36,-1.002 -0.24,-0.256 -0.527,-0.383 -0.861,-0.383 -0.34,0 -0.629,0.125 -0.869,0.375 -0.235,0.251 -0.352,0.587 -0.352,1.01 0,0.423 0.117,0.759 0.352,1.01 0.24,0.25 0.529,0.375 0.869,0.375 z"
       style="fill:#ffffff;fill-rule:nonzero"
       id="path6" />
    <path
       d="m 35.493,52.846 v 3.451 l 1.659,-1.683 h 0.924 v 0.032 l -1.495,1.495 1.565,2.277 v 0.031 h -0.869 l -1.205,-1.808 -0.579,0.58 v 1.228 h -0.72 v -5.603 z"
       style="fill:#ffffff;fill-rule:nonzero"
       id="path8" />
  </g>
  <path
     d="m38.448 24.363l2.175-3.357c0.14-0.211 0.078-0.501-0.136-0.639-0.212-0.14-0.501-0.082-0.639 0.136l-2.254 3.473c-1.692-0.693-3.581-1.083-5.576-1.083-1.997 0-3.882 0.39-5.577 1.083l-2.251-3.473c-0.138-0.218-0.429-0.276-0.643-0.136-0.214 0.138-0.276 0.428-0.136 0.639l2.177 3.357c-3.924 1.923-6.57 5.548-6.57 9.705 0 0.256 0.016 0.507 0.038 0.757h25.926c0.022-0.25 0.036-0.501 0.036-0.757 0-4.157-2.648-7.782-6.57-9.705zm-12.441 6.011c-0.689 0-1.248-0.555-1.248-1.246s0.559-1.244 1.248-1.244c0.693 0 1.248 0.553 1.248 1.244s-0.559 1.246-1.248 1.246zm12.02 0c-0.689 0-1.248-0.555-1.248-1.246s0.559-1.244 1.248-1.244c0.691 0 1.246 0.553 1.246 1.244s-0.555 1.246-1.246 1.246z"
     style="fill-rule:nonzero;fill:#36671e"
     id="path10" />
  <defs
     id="defs17">
    <linearGradient
       id="_Linear1"
       x2="1"
       gradientTransform="matrix(0,-49.619,49.619,0,177.88,51.088)"
       gradientUnits="userSpaceOnUse">
      <stop
         style="stop-color:#3e7b1f"
         offset="0"
         id="stop12" />
      <stop
         style="stop-color:#7fd056"
         offset="1"
         id="stop14" />
    </linearGradient>
    <linearGradient
       inkscape:collect="always"
       xlink:href="#_Linear1"
       id="linearGradient947"
       gradientUnits="userSpaceOnUse"
       gradientTransform="matrix(0,-49.619,49.619,0,177.88,51.088)"
       x2="1" />
  </defs>
  <path
     id="path1712"
     style="clip-rule:evenodd;fill:#000000;fill-opacity:0;fill-rule:evenodd;stroke-linejoin:round;stroke-miterlimit:2"
     d="M 10 50.982422 L 10 54.380859 L 10 54.382812 C 10.000065 54.634653 10.012439 54.884364 10.037109 55.132812 L 10.037109 55.134766 C 10.061839 55.383208 10.099788 55.629651 10.148438 55.873047 L 10.148438 55.875 C 10.197147 56.118391 10.25814 56.359016 10.330078 56.595703 L 10.330078 56.597656 C 10.402078 56.83434 10.485534 57.0666 10.580078 57.294922 L 10.580078 57.296875 C 10.674688 57.525198 10.780015 57.750448 10.896484 57.96875 L 10.896484 57.970703 C 11.013016 58.189008 11.141585 58.400799 11.279297 58.607422 L 11.279297 58.609375 C 11.417073 58.816003 11.566335 59.015701 11.724609 59.208984 L 11.724609 59.210938 C 11.88295 59.404227 12.052312 59.589296 12.230469 59.767578 L 12.230469 59.769531 C 12.944969 60.483531 13.78757 61.040805 14.703125 61.419922 C 15.618679 61.799106 16.607187 62 17.617188 62 L 46.382812 62 C 47.392814 62 48.381321 61.799527 49.296875 61.419922 C 50.21243 61.040805 51.055031 60.483531 51.769531 59.769531 L 51.769531 59.767578 C 53.197531 58.338626 54 56.400859 54 54.380859 L 54 50.982422 L 10 50.982422 z " />
</svg>
