<?xml version="1.0" encoding="UTF-8" standalone="no"?>
<svg
   clip-rule="evenodd"
   fill-rule="evenodd"
   stroke-linejoin="round"
   stroke-miterlimit="2"
   viewBox="0 0 64 64"
   version="1.1"
   id="svg11"
   sodipodi:docname="application-x-zstd-compressed-tar.svg"
   inkscape:version="1.1.2 (0a00cf5339, 2022-02-04)"
   xmlns:inkscape="http://www.inkscape.org/namespaces/inkscape"
   xmlns:sodipodi="http://sodipodi.sourceforge.net/DTD/sodipodi-0.dtd"
   xmlns:xlink="http://www.w3.org/1999/xlink"
   xmlns="http://www.w3.org/2000/svg"
   xmlns:svg="http://www.w3.org/2000/svg">
  <defs
     id="defs15">
    <linearGradient
       inkscape:collect="always"
       xlink:href="#a"
       id="linearGradient4068"
       gradientUnits="userSpaceOnUse"
       gradientTransform="matrix(0,-49.619,49.619,0,761,51.088)"
       x2="1" />
  </defs>
  <sodipodi:namedview
     id="namedview13"
     pagecolor="#ffffff"
     bordercolor="#666666"
     borderopacity="1.0"
     inkscape:pageshadow="2"
     inkscape:pageopacity="0.0"
     inkscape:pagecheckerboard="0"
     showgrid="false"
     inkscape:zoom="10.65625"
     inkscape:cx="32"
     inkscape:cy="32"
     inkscape:window-width="1896"
     inkscape:window-height="1022"
     inkscape:window-x="12"
     inkscape:window-y="46"
     inkscape:window-maximized="1"
     inkscape:current-layer="svg11" />
  <linearGradient
     id="a"
     x2="1"
     gradientTransform="matrix(0,-49.619,49.619,0,761,51.088)"
     gradientUnits="userSpaceOnUse">
    <stop
       stop-color="#097ada"
       offset="0"
       id="stop2" />
    <stop
       stop-color="#0a95f3"
       offset="1"
       id="stop4" />
  </linearGradient>
  <path
     id="path7"
     style="fill:url(#linearGradient4068)"
     d="M 17.617188 1.46875 C 15.597188 1.46875 13.659469 2.2712188 12.230469 3.6992188 C 10.802469 5.1282186 10 7.0678906 10 9.0878906 L 10 14.091797 L 10 54.382812 C 10 56.402814 10.802469 58.340531 12.230469 59.769531 C 13.659469 61.197531 15.597187 62 17.617188 62 L 46.382812 62 C 48.402814 62 50.340531 61.197531 51.769531 59.769531 C 53.197531 58.340531 54 56.402814 54 54.382812 L 54 14.091797 L 54 9.0878906 C 54 7.0678906 53.197531 5.1282186 51.769531 3.6992188 C 50.340531 2.2712188 48.402813 1.46875 46.382812 1.46875 L 37.603516 1.46875 L 26.396484 1.46875 L 17.617188 1.46875 z " />
  <path
     d="M 32.141,9.8395603 C 30.698,13.69556 29.828,16.22356 28.222,19.96456 c 0.986,1.138 2.192,2.457 4.154,3.953 -2.11,-0.946 -3.548,-1.892 -4.624,-2.878 -2.055,4.676 -5.276,11.332 -11.81,24.134 5.135,-3.232 9.231,-5.223 12.94,-5.984 -0.159,-0.747 -0.246,-1.558 -0.239,-2.401 l 0.004,-0.173 c 0.081,-3.587 1.679,-6.772 3.706,-6.585 2.028,0.187 3.373,3.673 3.291,7.261 -0.015,0.675 -0.087,1.321 -0.208,1.922 3.668,0.784 7.841,2.772 12.903,5.96 -0.999,-2.005 -1.897,-3.81 -2.748,-5.531 -1.341,-1.134 -2.732,-2.607 -5.586,-4.205 1.96,0.557 3.367,1.195 4.461,1.913 -8.656,-17.577 -9.358,-19.914 -12.325,-27.5109997 z"
     fill="#ffffff"
     fill-opacity="0.5"
     id="path9" />
  <path
     id="path2-3"
     style="clip-rule:evenodd;fill:#235782;fill-opacity:1;fill-rule:evenodd;stroke-linejoin:round;stroke-miterlimit:2"
     d="m 10,50.982422 v 3.398437 0.002 c 6.5e-5,0.251841 0.01244,0.501552 0.03711,0.75 v 0.002 c 0.02473,0.248442 0.06268,0.494885 0.111329,0.738281 v 0.002 c 0.04871,0.243391 0.109702,0.484016 0.18164,0.720703 v 0.002 c 0.072,0.236684 0.155456,0.468944 0.25,0.697266 v 0.002 c 0.09461,0.228323 0.199937,0.453573 0.316406,0.671875 v 0.002 c 0.116532,0.218305 0.245101,0.430096 0.382813,0.636719 v 0.002 c 0.137776,0.206628 0.287038,0.406326 0.445312,0.599609 v 0.002 c 0.158341,0.193289 0.327703,0.378358 0.50586,0.55664 v 0.002 c 0.7145,0.714 1.557101,1.271274 2.472656,1.650391 C 15.618679,61.799106 16.607187,62 17.617188,62 h 28.765624 c 1.010002,0 1.998509,-0.200473 2.914063,-0.580078 0.915555,-0.379117 1.758156,-0.936391 2.472656,-1.650391 v -0.002 C 53.197531,58.338626 54,56.400859 54,54.380859 v -3.398437 z" />
</svg>
