<?xml version="1.0" encoding="UTF-8" standalone="no"?>
<svg
   style="clip-rule:evenodd;fill-rule:evenodd;stroke-linejoin:round;stroke-miterlimit:2"
   viewBox="0 0 64 64"
   version="1.1"
   id="svg45"
   sodipodi:docname="application-x-fictionbook.svg"
   inkscape:version="1.1.2 (0a00cf5339, 2022-02-04)"
   xmlns:inkscape="http://www.inkscape.org/namespaces/inkscape"
   xmlns:sodipodi="http://sodipodi.sourceforge.net/DTD/sodipodi-0.dtd"
   xmlns:xlink="http://www.w3.org/1999/xlink"
   xmlns="http://www.w3.org/2000/svg"
   xmlns:svg="http://www.w3.org/2000/svg">
  <sodipodi:namedview
     id="namedview47"
     pagecolor="#ffffff"
     bordercolor="#666666"
     borderopacity="1.0"
     inkscape:pageshadow="2"
     inkscape:pageopacity="0.0"
     inkscape:pagecheckerboard="0"
     showgrid="false"
     inkscape:zoom="10.65625"
     inkscape:cx="32"
     inkscape:cy="32"
     inkscape:window-width="1896"
     inkscape:window-height="1022"
     inkscape:window-x="12"
     inkscape:window-y="46"
     inkscape:window-maximized="1"
     inkscape:current-layer="svg45" />
  <path
     id="path2"
     style="fill:url(#linearGradient5468)"
     d="M 17.617188 1.46875 C 15.597188 1.46875 13.659469 2.2712188 12.230469 3.6992188 C 10.802469 5.1282186 10 7.0678906 10 9.0878906 L 10 13.044922 L 10 54.382812 C 10 56.402814 10.802469 58.340531 12.230469 59.769531 C 13.659469 61.197531 15.597187 62 17.617188 62 L 46.382812 62 C 48.402814 62 50.340531 61.197531 51.769531 59.769531 C 53.197531 58.340531 54 56.402814 54 54.382812 L 54 13.044922 L 54 9.0878906 C 54 7.0678906 53.197531 5.1282186 51.769531 3.6992188 C 50.340531 2.2712188 48.402813 1.46875 46.382812 1.46875 L 36.189453 1.46875 L 27.810547 1.46875 L 17.617188 1.46875 z " />
  <rect
     x="35.001999"
     y="27.886608"
     width="13.13"
     height="1.313"
     style="fill-opacity:0.5"
     id="rect4" />
  <rect
     x="35.001999"
     y="25.260607"
     width="13.13"
     height="1.313"
     style="fill-opacity:0.5"
     id="rect6" />
  <rect
     x="35.001999"
     y="22.634607"
     width="11.817"
     height="1.313"
     style="fill-opacity:0.5"
     id="rect8" />
  <rect
     x="35.001999"
     y="20.008608"
     width="9.191"
     height="1.313"
     style="fill-opacity:0.5"
     id="rect10" />
  <rect
     x="35.001999"
     y="17.382607"
     width="13.13"
     height="1.313"
     style="fill-opacity:0.5"
     id="rect12" />
  <rect
     x="35.001999"
     y="14.756608"
     width="10.504"
     height="1.313"
     style="fill-opacity:0.5"
     id="rect14" />
  <rect
     x="17.933001"
     y="15.412608"
     width="13.13"
     height="1.313"
     style="fill-opacity:0.5"
     id="rect16" />
  <rect
     x="17.933001"
     y="18.038607"
     width="11.817"
     height="1.313"
     style="fill-opacity:0.5"
     id="rect18" />
  <rect
     x="17.933001"
     y="20.664608"
     width="10.504"
     height="1.313"
     style="fill-opacity:0.5"
     id="rect20" />
  <rect
     x="17.933001"
     y="23.290607"
     width="9.191"
     height="1.313"
     style="fill-opacity:0.5"
     id="rect22" />
  <rect
     x="17.933001"
     y="25.916607"
     width="7.8779998"
     height="1.313"
     style="fill-opacity:0.5"
     id="rect24" />
  <rect
     x="17.933001"
     y="28.542608"
     width="13.13"
     height="1.313"
     style="fill-opacity:0.5"
     id="rect26" />
  <rect
     x="17.933001"
     y="31.168608"
     width="13.13"
     height="1.313"
     style="fill-opacity:0.5"
     id="rect28" />
  <rect
     x="17.933001"
     y="33.794609"
     width="11.817"
     height="1.313"
     style="fill-opacity:0.5"
     id="rect30" />
  <rect
     x="17.933001"
     y="36.420609"
     width="9.191"
     height="1.313"
     style="fill-opacity:0.5"
     id="rect32" />
  <rect
     x="17.933001"
     y="39.046608"
     width="13.13"
     height="1.313"
     style="fill-opacity:0.5"
     id="rect34" />
  <rect
     x="17.933001"
     y="41.672607"
     width="10.504"
     height="1.313"
     style="fill-opacity:0.5"
     id="rect36" />
  <defs
     id="defs43">
    <linearGradient
       id="_Linear1"
       x2="1"
       gradientTransform="matrix(0,-49.619,49.619,0,615.22,51.088)"
       gradientUnits="userSpaceOnUse">
      <stop
         style="stop-color:#ddd6a7"
         offset="0"
         id="stop38" />
      <stop
         style="stop-color:#ebe7cb"
         offset="1"
         id="stop40" />
    </linearGradient>
    <linearGradient
       inkscape:collect="always"
       xlink:href="#_Linear1"
       id="linearGradient5468"
       gradientUnits="userSpaceOnUse"
       gradientTransform="matrix(0,-49.619,49.619,0,615.22,51.088)"
       x2="1" />
  </defs>
  <path
     id="path2-3"
     style="clip-rule:evenodd;fill:#726f5c;fill-opacity:1;fill-rule:evenodd;stroke-linejoin:round;stroke-miterlimit:2"
     d="m 10,50.982422 v 3.398437 0.002 c 6.5e-5,0.251841 0.01244,0.501552 0.03711,0.75 v 0.002 c 0.02473,0.248442 0.06268,0.494885 0.111329,0.738281 v 0.002 c 0.04871,0.243391 0.109702,0.484016 0.18164,0.720703 v 0.002 c 0.072,0.236684 0.155456,0.468944 0.25,0.697266 v 0.002 c 0.09461,0.228323 0.199937,0.453573 0.316406,0.671875 v 0.002 c 0.116532,0.218305 0.245101,0.430096 0.382814,0.636719 v 0.002 c 0.137775,0.206628 0.287037,0.406326 0.445311,0.599609 v 0.002 c 0.158341,0.193289 0.327703,0.378358 0.505861,0.55664 v 0.002 c 0.714499,0.714 1.5571,1.271274 2.472656,1.650391 C 15.618679,61.799106 16.607187,62 17.617188,62 h 28.765624 c 1.010002,0 1.998509,-0.200473 2.914063,-0.580078 0.915555,-0.379117 1.758156,-0.936391 2.472656,-1.650391 v -0.002 C 53.197531,58.338626 54,56.400859 54,54.380859 v -3.398437 z" />
</svg>
