<?xml version="1.0" encoding="UTF-8" standalone="no"?>
<svg
   style="clip-rule:evenodd;fill-rule:evenodd;stroke-linejoin:round;stroke-miterlimit:2"
   viewBox="0 0 64 64"
   version="1.1"
   id="svg25"
   sodipodi:docname="application-x-love-game.svg"
   inkscape:version="1.1.2 (0a00cf5339, 2022-02-04)"
   xmlns:inkscape="http://www.inkscape.org/namespaces/inkscape"
   xmlns:sodipodi="http://sodipodi.sourceforge.net/DTD/sodipodi-0.dtd"
   xmlns:xlink="http://www.w3.org/1999/xlink"
   xmlns="http://www.w3.org/2000/svg"
   xmlns:svg="http://www.w3.org/2000/svg">
  <sodipodi:namedview
     id="namedview27"
     pagecolor="#ffffff"
     bordercolor="#666666"
     borderopacity="1.0"
     inkscape:pageshadow="2"
     inkscape:pageopacity="0.0"
     inkscape:pagecheckerboard="0"
     showgrid="false"
     inkscape:zoom="10.65625"
     inkscape:cx="32"
     inkscape:cy="32"
     inkscape:window-width="1896"
     inkscape:window-height="1022"
     inkscape:window-x="12"
     inkscape:window-y="46"
     inkscape:window-maximized="1"
     inkscape:current-layer="svg25" />
  <path
     id="path2"
     style="fill:url(#linearGradient6048)"
     d="M 17.617188 1.46875 C 15.597188 1.46875 13.659469 2.2712188 12.230469 3.6992188 C 10.802469 5.1282186 10 7.0678906 10 9.0878906 L 10 11.556641 L 10 54.382812 C 10 56.402814 10.802469 58.340531 12.230469 59.769531 C 13.659469 61.197531 15.597187 62 17.617188 62 L 46.382812 62 C 48.402814 62 50.340531 61.197531 51.769531 59.769531 C 53.197531 58.340531 54 56.402814 54 54.382812 L 54 11.556641 L 54 9.0878906 C 54 7.0678906 53.197531 5.1282186 51.769531 3.6992188 C 50.340531 2.2712188 48.402813 1.46875 46.382812 1.46875 L 40.300781 1.46875 L 23.699219 1.46875 L 17.617188 1.46875 z " />
  <path
     id="path914"
     style="clip-rule:evenodd;fill:#7b0a0a;fill-opacity:1;fill-rule:evenodd;stroke-width:1;stroke-linejoin:round;stroke-miterlimit:2"
     d="m 10,50.982422 v 3.40039 c 0,2.020002 0.802469,3.957719 2.230469,5.386719 1.429,1.428 3.366717,2.230469 5.386719,2.230469 h 28.765624 c 2.020002,0 3.957719,-0.802469 5.386719,-2.230469 C 53.197531,58.340531 54,56.402814 54,54.382812 v -3.40039 z" />
  <path
     d="m21.401 25.997c2.3-5.266 8.665-3.991 10.572-0.378 1.745-3.588 8.508-5.446 10.572 0.372 2.5 7.728-5.906 11.956-10.586 17.085-4.581-4.937-13.06-9.222-10.558-17.079z"
     style="fill-rule:nonzero;fill:#fff"
     id="path4" />
  <circle
     cx="25.901"
     cy="18"
     r="2"
     style="fill:#fff"
     id="circle6" />
  <circle
     cx="37.901"
     cy="18"
     r="2"
     style="fill:#fff"
     id="circle8" />
  <rect
     x="23.768"
     y="52.247"
     width=".903"
     height="7.5"
     style="fill-rule:nonzero;fill:#fff"
     id="rect10" />
  <path
     d="m25.873 57.057c0-0.518 0.101-0.984 0.303-1.397 0.205-0.413 0.488-0.732 0.849-0.957 0.365-0.225 0.78-0.337 1.245-0.337 0.72 0 1.301 0.249 1.743 0.747 0.446 0.498 0.669 1.161 0.669 1.987v0.064c0 0.514-0.099 0.977-0.297 1.387-0.196 0.407-0.477 0.724-0.845 0.952-0.365 0.228-0.785 0.342-1.26 0.342-0.716 0-1.297-0.249-1.743-0.747-0.443-0.499-0.664-1.158-0.664-1.978v-0.063zm0.908 0.107c0 0.586 0.135 1.056 0.405 1.411 0.274 0.355 0.638 0.532 1.094 0.532 0.459 0 0.824-0.179 1.094-0.537 0.27-0.361 0.405-0.866 0.405-1.513 0-0.58-0.138-1.049-0.415-1.407-0.273-0.361-0.638-0.542-1.094-0.542-0.446 0-0.805 0.178-1.079 0.533-0.273 0.354-0.41 0.862-0.41 1.523z"
     style="fill-rule:nonzero;fill:#fff"
     id="path12" />
  <path
     d="m33.48 58.521l1.309-4.057h0.923l-1.895 5.283h-0.688l-1.914-5.283h0.923l1.342 4.057z"
     style="fill-rule:nonzero;fill:#fff"
     id="path14" />
  <path
     d="m38.715 59.845c-0.716 0-1.299-0.235-1.748-0.704-0.45-0.472-0.674-1.101-0.674-1.889v-0.166c0-0.524 0.099-0.991 0.298-1.402 0.201-0.413 0.481-0.735 0.839-0.966 0.362-0.235 0.752-0.352 1.172-0.352 0.687 0 1.221 0.226 1.602 0.679 0.381 0.452 0.571 1.1 0.571 1.943v0.376h-3.579c0.013 0.521 0.164 0.943 0.454 1.265 0.293 0.319 0.664 0.478 1.113 0.478 0.319 0 0.59-0.065 0.811-0.195s0.415-0.303 0.581-0.518l0.552 0.43c-0.443 0.68-1.107 1.021-1.992 1.021zm-0.113-4.737c-0.364 0-0.67 0.134-0.918 0.401-0.247 0.263-0.4 0.634-0.459 1.113h2.647v-0.068c-0.026-0.459-0.15-0.814-0.371-1.065-0.222-0.254-0.521-0.381-0.899-0.381z"
     style="fill-rule:nonzero;fill:#fff"
     id="path16" />
  <defs
     id="defs23">
    <linearGradient
       id="_Linear1"
       x2="1"
       gradientTransform="matrix(0,-49.619,49.619,0,177.88,51.088)"
       gradientUnits="userSpaceOnUse">
      <stop
         style="stop-color:#a30000"
         offset="0"
         id="stop18" />
      <stop
         style="stop-color:#ff297e"
         offset="1"
         id="stop20" />
    </linearGradient>
    <linearGradient
       inkscape:collect="always"
       xlink:href="#_Linear1"
       id="linearGradient6048"
       gradientUnits="userSpaceOnUse"
       gradientTransform="matrix(0,-49.619,49.619,0,177.88,51.088)"
       x2="1" />
  </defs>
</svg>
