<?xml version="1.0" encoding="UTF-8" standalone="no"?>
<svg
   clip-rule="evenodd"
   fill-rule="evenodd"
   stroke-linejoin="round"
   stroke-miterlimit="2"
   viewBox="0 0 48 48"
   version="1.1"
   id="svg11"
   sodipodi:docname="application-x-musescore.svg"
   inkscape:version="1.1.2 (0a00cf5339, 2022-02-04)"
   xmlns:inkscape="http://www.inkscape.org/namespaces/inkscape"
   xmlns:sodipodi="http://sodipodi.sourceforge.net/DTD/sodipodi-0.dtd"
   xmlns:xlink="http://www.w3.org/1999/xlink"
   xmlns="http://www.w3.org/2000/svg"
   xmlns:svg="http://www.w3.org/2000/svg">
  <defs
     id="defs15">
    <linearGradient
       inkscape:collect="always"
       xlink:href="#a"
       id="linearGradient2784"
       gradientUnits="userSpaceOnUse"
       gradientTransform="matrix(0,-37.21425,37.21425,0,133.41,38.316)"
       x2="1" />
  </defs>
  <sodipodi:namedview
     id="namedview13"
     pagecolor="#ffffff"
     bordercolor="#666666"
     borderopacity="1.0"
     inkscape:pageshadow="2"
     inkscape:pageopacity="0.0"
     inkscape:pagecheckerboard="0"
     showgrid="false"
     inkscape:zoom="14.208333"
     inkscape:cx="27.906158"
     inkscape:cy="25.1261"
     inkscape:window-width="942"
     inkscape:window-height="1022"
     inkscape:window-x="966"
     inkscape:window-y="46"
     inkscape:window-maximized="1"
     inkscape:current-layer="svg11" />
  <linearGradient
     id="a"
     x2="1"
     gradientTransform="matrix(0,-37.21425,37.21425,0,133.41,38.316)"
     gradientUnits="userSpaceOnUse">
    <stop
       stop-color="#b7b7b7"
       offset="0"
       id="stop2" />
    <stop
       stop-color="#e0e3e7"
       offset="1"
       id="stop4" />
  </linearGradient>
  <path
     id="path7"
     style="stroke-width:0.75;fill:url(#linearGradient2784)"
     d="M 13.212891 1.1015625 C 11.697891 1.1015625 10.245578 1.7043906 9.1738281 2.7753906 C 8.1028281 3.8471406 7.5 5.2994531 7.5 6.8144531 L 7.5 7.0878906 L 7.5 40.787109 C 7.5 42.302109 8.1028281 43.754422 9.1738281 44.826172 C 10.245578 45.897172 11.697891 46.5 13.212891 46.5 L 34.787109 46.5 C 36.302109 46.5 37.754422 45.897172 38.826172 44.826172 C 39.897172 43.754422 40.5 42.302109 40.5 40.787109 L 40.5 7.0878906 L 40.5 6.8144531 C 40.5 5.2994531 39.897172 3.8471406 38.826172 2.7753906 C 37.754422 1.7043906 36.302109 1.1015625 34.787109 1.1015625 L 28.939453 1.1015625 L 19.060547 1.1015625 L 13.212891 1.1015625 z " />
  <path
     transform="matrix(1.00942 0 0 1.00942 -8.04195 -4.5301)"
     d="m28.918 18.26c-.767.215-1.385 1.072-1.385 1.903v13.191c-.778-.427-1.778-.6-2.814-.318-1.87.509-3.041 2.153-2.64 3.672.4 1.518 2.242 2.367 4.112 1.858 1.492-.406 2.52-1.554 2.684-2.765l.043-12.465 9.697-2.719v9.836c-.778-.427-1.778-.6-2.814-.318-1.87.509-3.041 2.153-2.641 3.672.401 1.519 2.243 2.367 4.113 1.858 1.491-.406 2.52-1.554 2.684-2.765l.043-16.227c0-.624-.368-1.09-.866-1.178z"
     fill="#4f5c65"
     fill-rule="nonzero"
     id="path9" />
  <path
     id="path1057"
     style="fill:#4f5c65;fill-opacity:1"
     d="m 7.499859,38.667977 v 2.11914 c 0,1.515 0.602828,2.967063 1.673828,4.039063 0.804,0.80325 1.822139,1.342751 2.919922,1.5625 0,0 0.002,0 0.002,0 0.18235,0.03644 0.366588,0.06547 0.552736,0.08398 0,0 0.002,0 0.002,0 0.186155,0.01845 0.37378,0.02734 0.5625,0.02734 h 0.002 21.570311 c 0.568126,0 1.128065,-0.0856 1.66211,-0.248047 0.889502,-0.27074 1.708905,-0.756406 2.378906,-1.425781 C 39.897171,43.754172 40.5,42.302109 40.5,40.787109 v -2.11914 z" />
</svg>
