<?xml version="1.0" encoding="UTF-8" standalone="no"?>
<svg
   clip-rule="evenodd"
   fill-rule="evenodd"
   stroke-linejoin="round"
   stroke-miterlimit="2"
   viewBox="0 0 64 64"
   version="1.1"
   id="svg37"
   sodipodi:docname="application-x-gzdvi.svg"
   inkscape:version="1.1.2 (0a00cf5339, 2022-02-04)"
   xmlns:inkscape="http://www.inkscape.org/namespaces/inkscape"
   xmlns:sodipodi="http://sodipodi.sourceforge.net/DTD/sodipodi-0.dtd"
   xmlns:xlink="http://www.w3.org/1999/xlink"
   xmlns="http://www.w3.org/2000/svg"
   xmlns:svg="http://www.w3.org/2000/svg">
  <defs
     id="defs41">
    <linearGradient
       inkscape:collect="always"
       xlink:href="#a"
       id="linearGradient3668"
       gradientUnits="userSpaceOnUse"
       gradientTransform="matrix(1.07196,-49.7469,49.7469,1.07196,251.234,55.94)"
       x2="1" />
  </defs>
  <sodipodi:namedview
     id="namedview39"
     pagecolor="#ffffff"
     bordercolor="#666666"
     borderopacity="1.0"
     inkscape:pageshadow="2"
     inkscape:pageopacity="0.0"
     inkscape:pagecheckerboard="0"
     showgrid="false"
     inkscape:zoom="10.65625"
     inkscape:cx="32"
     inkscape:cy="32"
     inkscape:window-width="1896"
     inkscape:window-height="1022"
     inkscape:window-x="12"
     inkscape:window-y="46"
     inkscape:window-maximized="1"
     inkscape:current-layer="svg37" />
  <linearGradient
     id="a"
     x2="1"
     gradientTransform="matrix(1.07196,-49.7469,49.7469,1.07196,251.234,55.94)"
     gradientUnits="userSpaceOnUse">
    <stop
       stop-color="#075"
       offset="0"
       id="stop2" />
    <stop
       stop-color="#3ec884"
       offset="1"
       id="stop4" />
  </linearGradient>
  <path
     id="path7"
     style="fill:url(#linearGradient3668)"
     d="M 17.617188 1.46875 C 15.597188 1.46875 13.659469 2.2712188 12.230469 3.6992188 C 10.802469 5.1282186 10 7.0678906 10 9.0878906 L 10 11.521484 L 10 54.382812 C 10 56.402814 10.802469 58.340531 12.230469 59.769531 C 13.659469 61.197531 15.597187 62 17.617188 62 L 46.382812 62 C 48.402814 62 50.340531 61.197531 51.769531 59.769531 C 53.197531 58.340531 54 56.402814 54 54.382812 L 54 11.521484 L 54 9.0878906 C 54 7.0678906 53.197531 5.1282186 51.769531 3.6992188 C 50.340531 2.2712188 48.402813 1.46875 46.382812 1.46875 L 37.28125 1.46875 L 26.71875 1.46875 L 17.617188 1.46875 z " />
  <path
     id="path2-3"
     style="clip-rule:evenodd;fill:#044937;fill-opacity:1;fill-rule:evenodd;stroke-linejoin:round;stroke-miterlimit:2"
     d="m 10,50.982422 v 3.398437 0.002 c 6.5e-5,0.251841 0.01244,0.501552 0.03711,0.75 v 0.002 c 0.02473,0.248442 0.06268,0.494885 0.111329,0.738281 v 0.002 c 0.04871,0.243391 0.109702,0.484016 0.18164,0.720703 v 0.002 c 0.072,0.236684 0.155456,0.468944 0.25,0.697266 v 0.002 c 0.09461,0.228323 0.199937,0.453573 0.316406,0.671875 v 0.002 c 0.116532,0.218305 0.245101,0.430096 0.382814,0.636719 v 0.002 c 0.137775,0.206628 0.287037,0.406326 0.445311,0.599609 v 0.002 c 0.158341,0.193289 0.327703,0.378358 0.505861,0.55664 v 0.002 c 0.714499,0.714 1.5571,1.271274 2.472656,1.650391 C 15.618679,61.799106 16.607187,62 17.617188,62 h 28.765624 c 1.010002,0 1.998509,-0.200473 2.914063,-0.580078 0.915555,-0.379117 1.758156,-0.936391 2.472656,-1.650391 v -0.002 C 53.197531,58.338626 54,56.400859 54,54.380859 v -3.398437 z" />
  <path
     d="m42 18.285c0-1.262-1.023-2.285-2.285-2.285h-15.23c-1.262 0-2.285 1.023-2.285 2.285v17.43c0 1.262 1.023 2.285 2.285 2.285h15.23c1.262 0 2.285-1.023 2.285-2.285z"
     fill="#044937"
     id="path9" />
  <g
     fill="#fff"
     id="g35">
    <path
       d="m24.755 60.741c-.475 0-.863-.12-1.164-.36-.3-.235-.516-.506-.647-.812l.688-.287c.077.219.216.402.418.549.208.148.443.222.705.222.415 0 .74-.126.975-.377.241-.246.361-.582.361-1.008v-.386h-.033c-.131.197-.317.361-.557.492s-.511.197-.811.197c-.519 0-.968-.205-1.345-.615s-.565-.918-.565-1.524c0-.607.188-1.115.565-1.524.377-.41.826-.615 1.345-.615.3 0 .571.065.811.197.24.131.426.295.557.491h.033v-.557h.721v3.811c0 .688-.199 1.21-.598 1.565-.399.361-.885.541-1.459.541zm.057-2.459c.356 0 .656-.131.902-.393.251-.262.377-.615.377-1.057 0-.443-.126-.795-.377-1.057-.246-.263-.546-.394-.902-.394-.349 0-.65.134-.901.402-.251.262-.377.612-.377 1.049s.126.789.377 1.057c.251.262.552.393.901.393z"
       fill-rule="nonzero"
       id="path11" />
    <path
       d="m27.615 58.84v-.656l2.286-2.672h-2.221v-.688h3.147v.656l-2.286 2.671h2.319v.689z"
       fill-rule="nonzero"
       id="path13" />
    <path
       d="m33.189 58.971c-.519 0-.967-.205-1.344-.615s-.565-.918-.565-1.524c0-.607.188-1.115.565-1.524.377-.41.825-.615 1.344-.615.306 0 .579.065.82.197.246.131.429.295.549.491h.033l-.033-.557v-1.852h.754v5.868h-.721v-.558h-.033c-.12.197-.303.361-.549.492-.241.131-.514.197-.82.197zm.123-.689c.355 0 .656-.131.902-.393.251-.262.377-.615.377-1.057 0-.443-.126-.795-.377-1.057-.246-.263-.547-.394-.902-.394-.35 0-.65.134-.901.402-.252.262-.377.612-.377 1.049s.125.789.377 1.057c.251.262.551.393.901.393z"
       fill-rule="nonzero"
       id="path15" />
    <path
       d="m37.428 58.84-1.623-4.016h.819l1.181 3.114h.016l1.197-3.114h.803l-1.639 4.016z"
       fill-rule="nonzero"
       id="path17" />
    <path
       d="m41.132 53.816c-.103.104-.229.156-.377.156-.147 0-.273-.052-.377-.156-.103-.104-.155-.23-.155-.377 0-.148.052-.273.155-.377.104-.104.23-.156.377-.156.148 0 .274.052.377.156.104.104.156.229.156.377 0 .147-.052.273-.156.377zm0 5.024h-.754v-4.016h.754z"
       fill-rule="nonzero"
       id="path19" />
    <path
       d="m31.039 16.611h2.2v1.1h-2.2z"
       fill-opacity=".93"
       id="path21" />
    <path
       d="m31.035 18.202h2.2v1.1h-2.2z"
       fill-opacity=".93"
       id="path23" />
    <path
       d="m31.021 19.774h2.2v1.1h-2.2z"
       fill-opacity=".93"
       id="path25" />
    <path
       d="m31.045 21.41h2.2v1.1h-2.2z"
       fill-opacity=".93"
       id="path27" />
    <path
       d="m31.045 23.018h2.2v1.1h-2.2z"
       fill-opacity=".93"
       id="path29" />
    <path
       d="m31.045 24.663h2.2v1.1h-2.2z"
       fill-opacity=".93"
       id="path31" />
    <path
       d="m32.951 27.371v-.694c0-.194-.157-.351-.349-.351h-.97c-.193 0-.349.157-.349.351v.693l-.539 1.591c-.151.443-.079.935.193 1.317.272.381.713.608 1.18.608s.908-.227 1.18-.608c.271-.382.344-.874.193-1.317zm-.226 2.497c-.279.393-.937.393-1.217 0-.14-.197-.177-.451-.1-.68l.181-.533h1.055l.181.533c.078.229.04.483-.1.68z"
       fill-rule="nonzero"
       id="path33" />
  </g>
</svg>
