<?xml version="1.0" encoding="UTF-8" standalone="no"?>
<svg
   clip-rule="evenodd"
   fill-rule="evenodd"
   stroke-linejoin="round"
   stroke-miterlimit="2"
   viewBox="0 0 48 48"
   version="1.1"
   id="svg11"
   sodipodi:docname="application-x-wii-wad.svg"
   inkscape:version="1.1.2 (0a00cf5339, 2022-02-04)"
   xmlns:inkscape="http://www.inkscape.org/namespaces/inkscape"
   xmlns:sodipodi="http://sodipodi.sourceforge.net/DTD/sodipodi-0.dtd"
   xmlns:xlink="http://www.w3.org/1999/xlink"
   xmlns="http://www.w3.org/2000/svg"
   xmlns:svg="http://www.w3.org/2000/svg">
  <defs
     id="defs15">
    <linearGradient
       inkscape:collect="always"
       xlink:href="#a"
       id="linearGradient949"
       gradientUnits="userSpaceOnUse"
       gradientTransform="matrix(0,-37.2142,37.2142,0,133.41,38.316)"
       x2="1" />
  </defs>
  <sodipodi:namedview
     id="namedview13"
     pagecolor="#ffffff"
     bordercolor="#666666"
     borderopacity="1.0"
     inkscape:pageshadow="2"
     inkscape:pageopacity="0.0"
     inkscape:pagecheckerboard="0"
     showgrid="false"
     inkscape:zoom="14.208333"
     inkscape:cx="24"
     inkscape:cy="24"
     inkscape:window-width="1896"
     inkscape:window-height="1022"
     inkscape:window-x="12"
     inkscape:window-y="46"
     inkscape:window-maximized="1"
     inkscape:current-layer="svg11" />
  <linearGradient
     id="a"
     x2="1"
     gradientTransform="matrix(0,-37.2142,37.2142,0,133.41,38.316)"
     gradientUnits="userSpaceOnUse">
    <stop
       stop-color="#758b9a"
       offset="0"
       id="stop2" />
    <stop
       stop-color="#b5bdc2"
       offset="1"
       id="stop4" />
  </linearGradient>
  <path
     id="path7"
     style="fill:url(#linearGradient949)"
     d="M 13.214844 1.1015625 C 11.699844 1.1015625 10.245828 1.7043906 9.1738281 2.7753906 C 8.1028281 3.8473906 7.5 5.2994531 7.5 6.8144531 L 7.5 10.759766 L 7.5 40.787109 C 7.5 42.302109 8.1028281 43.754172 9.1738281 44.826172 C 9.9778281 45.629422 10.995967 46.168923 12.09375 46.388672 C 12.094369 46.388796 12.095084 46.388548 12.095703 46.388672 C 12.278052 46.42511 12.462292 46.454145 12.648438 46.472656 C 12.649081 46.47272 12.649747 46.472592 12.650391 46.472656 C 12.836546 46.491104 13.024169 46.5 13.212891 46.5 C 13.213544 46.5 13.21419 46.5 13.214844 46.5 L 34.785156 46.5 C 35.353281 46.5 35.913222 46.414397 36.447266 46.251953 C 37.336767 45.981213 38.156172 45.495547 38.826172 44.826172 C 39.897172 43.754172 40.5 42.302109 40.5 40.787109 L 40.5 10.759766 L 40.5 6.8144531 C 40.5 5.2994531 39.897172 3.8473906 38.826172 2.7753906 C 37.754172 1.7043906 36.300156 1.1015625 34.785156 1.1015625 L 29.576172 1.1015625 L 18.423828 1.1015625 L 13.214844 1.1015625 z " />
  <path
     d="m 30.688,26.243497 c -0.475,0 -0.907,0.129 -1.302,0.378 l 0.152,-0.833 h -1.742 l -1.096,6 h 1.742 l 0.581,-3.188 c 0.129,-0.326 0.469,-0.813 1.386,-0.813 h 1.234 l 0.282,-1.544 z m 3.093,2.496 c -0.225,1.277 0.406,1.707 1.092,1.707 0.581,0 1.023,-0.294 1.39,-0.694 l 1.084,0.906 c -0.698,0.718 -1.705,1.13 -2.63,1.13 -1.777,0 -2.989,-1.177 -2.664,-3.001 0.325,-1.824 1.753,-2.999 3.531,-2.999 1.419,0 2.688,1.175 2.365,2.999 l -0.097,0.551 h -3.641 l 0.211,-1.199 h 1.868 c 0.117,-0.587 -0.257,-1.082 -0.898,-1.082 -0.781,0 -1.384,0.408 -1.611,1.682 z m -10.579,2.754 c -0.35,0.218 -0.714,0.293 -1.174,0.293 -1.096,0 -2.326,-1.023 -1.963,-2.988 0.314,-1.716 1.759,-3.012 3.424,-3.012 1.62,0 2.787,0.964 2.454,2.775 l -0.57,3.227 h -1.716 l 0.484,-2.781 c 0.187,-1.011 0.044,-1.622 -0.884,-1.622 -0.806,0 -1.339,0.688 -1.464,1.365 -0.162,0.889 0.251,1.317 0.897,1.317 0.313,0 0.596,-0.069 0.802,-0.143 z m -7.654,-4.058 -0.286,1.57 c -0.038,0.324 -0.045,1.043 0.718,1.039 0.382,-0.003 0.54,-0.14 0.593,-0.184 0.251,-0.216 0.369,-0.628 0.391,-0.756 l 0.003,-0.02 0.964,-5.287 1.742,-0.011 -0.964,5.283 c -0.032,0.202 -0.244,1.24 -1.101,1.991 -0.375,0.328 -1.018,0.721 -1.947,0.726 -0.779,0.006 -1.31,-0.272 -1.653,-0.677 -0.491,0.405 -1.123,0.683 -1.899,0.677 -0.927,-0.005 -1.426,-0.398 -1.681,-0.726 -0.584,-0.751 -0.413,-1.789 -0.376,-1.991 l 0.966,-5.283 1.734,0.011 -0.963,5.287 -0.004,0.02 c -0.025,0.128 -0.057,0.54 0.113,0.756 0.037,0.044 0.145,0.181 0.528,0.184 0.755,0.004 1.015,-0.706 1.095,-1.032 l 0.515,-2.827 -0.515,2.826 0.182,-0.999 0.324,-1.778 0.394,-2.156 0.051,-0.28 h 1.741 z m 0.219,-1.201 -0.158,0.865 0.163,-0.89 v -0.004 z M 28,15.788497 h -2 v 6 h 2 z m 3,0 h -2 v 6 h 2 z m -7.363,-2 -1.49,5.875 c 0,0 -1.138,-4.363 -1.322,-4.982 -0.186,-0.62 -0.569,-0.893 -1.109,-0.893 -0.54,0 -0.923,0.274 -1.109,0.892 -0.186,0.619 -1.323,4.982 -1.323,4.982 l -1.49,-5.874 H 14 c 0,0 1.723,6.265 1.958,6.983 0.181,0.562 0.614,1.017 1.252,1.017 0.733,0 1.075,-0.529 1.234,-1.017 0.156,-0.486 1.272,-4.583 1.272,-4.583 0,0 1.116,4.097 1.271,4.583 0.16,0.488 0.501,1.017 1.232,1.017 0.64,0 1.072,-0.457 1.256,-1.017 0.234,-0.718 1.954,-6.983 1.954,-6.983 z m 2.363,0.002 c 0,0.55 0.444,0.998 0.988,0.998 0.567,0 1.012,-0.439 1.012,-0.998 0,-0.562 -0.445,-1.002 -1.012,-1.002 -0.544,0 -0.988,0.45 -0.988,1.002 z m 3,0 c 0,0.55 0.444,0.998 0.988,0.998 0.567,0 1.012,-0.439 1.012,-0.998 0,-0.562 -0.445,-1.002 -1.012,-1.002 -0.544,0 -0.988,0.45 -0.988,1.002 z"
     fill="#ffffff"
     fill-opacity="0.5"
     fill-rule="nonzero"
     id="path9" />
  <path
     id="path1057"
     style="fill:#5f6c75;fill-opacity:1"
     d="m 7.4998616,38.667977 v 2.11914 c 0,1.515 0.6028267,2.967063 1.6738287,4.039063 0.804,0.80325 1.8221387,1.342751 2.9199207,1.5625 0,0 0.002,0 0.002,0 0.182349,0.03644 0.366588,0.06547 0.552735,0.08398 0,0 0.002,0 0.002,0 0.186153,0.01845 0.37378,0.02734 0.5625,0.02734 h 0.002 21.57031 c 0.568124,0 1.128063,-0.0856 1.66211,-0.248047 0.8895,-0.27074 1.708905,-0.756406 2.378906,-1.425781 C 39.897171,43.754172 40.5,42.302109 40.5,40.787109 v -2.11914 z" />
</svg>
