<?xml version="1.0" encoding="UTF-8" standalone="no"?>
<svg
   style="clip-rule:evenodd;fill-rule:evenodd"
   viewBox="0 0 64 64"
   version="1.1"
   id="svg27"
   sodipodi:docname="application-database.svg"
   inkscape:version="1.1.2 (0a00cf5339, 2022-02-04)"
   xmlns:inkscape="http://www.inkscape.org/namespaces/inkscape"
   xmlns:sodipodi="http://sodipodi.sourceforge.net/DTD/sodipodi-0.dtd"
   xmlns:xlink="http://www.w3.org/1999/xlink"
   xmlns="http://www.w3.org/2000/svg"
   xmlns:svg="http://www.w3.org/2000/svg">
  <sodipodi:namedview
     id="namedview29"
     pagecolor="#ffffff"
     bordercolor="#666666"
     borderopacity="1.0"
     inkscape:pageshadow="2"
     inkscape:pageopacity="0.0"
     inkscape:pagecheckerboard="0"
     showgrid="false"
     inkscape:lockguides="true"
     inkscape:zoom="10.671875"
     inkscape:cx="37.762811"
     inkscape:cy="32"
     inkscape:window-width="942"
     inkscape:window-height="1022"
     inkscape:window-x="966"
     inkscape:window-y="46"
     inkscape:window-maximized="1"
     inkscape:current-layer="svg27" />
  <path
     id="path2"
     style="fill:url(#linearGradient2814)"
     d="M 17.617188 1.46875 C 15.597188 1.46875 13.659469 2.2712188 12.230469 3.6992188 C 10.802469 5.1282186 10 7.0678906 10 9.0878906 L 10 15.410156 L 10 54.382812 C 10 56.402814 10.802469 58.340531 12.230469 59.769531 C 13.659469 61.197531 15.597187 62 17.617188 62 L 46.382812 62 C 48.402814 62 50.340531 61.197531 51.769531 59.769531 C 53.197531 58.340531 54 56.402814 54 54.382812 L 54 15.410156 L 54 9.0878906 C 54 7.0678906 53.197531 5.1282186 51.769531 3.6992188 C 50.340531 2.2712188 48.402813 1.46875 46.382812 1.46875 L 37.722656 1.46875 L 26.277344 1.46875 L 17.617188 1.46875 z " />
  <path
     id="path2-3"
     style="clip-rule:evenodd;fill:#3d2248;fill-opacity:1;fill-rule:evenodd;stroke-linejoin:round;stroke-miterlimit:2"
     d="m 9.999999,50.982422 v 3.398437 0.002 c 6.6e-5,0.251841 0.01244,0.501552 0.03711,0.75 v 0.002 c 0.02473,0.248442 0.06268,0.494885 0.111329,0.738281 v 0.002 c 0.04871,0.243391 0.109702,0.484016 0.18164,0.720703 v 0.002 c 0.072,0.236684 0.155456,0.468944 0.25,0.697266 v 0.002 c 0.09461,0.228323 0.199937,0.453573 0.316406,0.671875 v 0.002 c 0.116532,0.218305 0.245101,0.430096 0.382813,0.636719 v 0.002 c 0.137776,0.206628 0.287038,0.406326 0.445312,0.599609 v 0.002 c 0.158341,0.193289 0.327703,0.378358 0.50586,0.55664 v 0.002 c 0.7145,0.714 1.557101,1.271274 2.472656,1.650391 C 15.618679,61.799106 16.607187,62 17.617188,62 h 28.765624 c 1.010002,0 1.998509,-0.200473 2.914063,-0.580078 0.915555,-0.379117 1.758156,-0.936391 2.472656,-1.650391 v -0.002 C 53.197531,58.338626 54,56.400859 54,54.380859 v -3.398437 z" />
  <path
     d="m26.132 59.271c-0.306 0-0.582-0.066-0.828-0.197-0.241-0.131-0.421-0.295-0.541-0.491h-0.033v0.557h-0.721v-5.868h0.754v1.852l-0.033 0.557h0.033c0.12-0.196 0.3-0.36 0.541-0.491 0.246-0.132 0.522-0.197 0.828-0.197 0.519 0 0.967 0.205 1.344 0.615 0.377 0.409 0.565 0.917 0.565 1.524 0 0.606-0.188 1.115-0.565 1.524-0.377 0.41-0.825 0.615-1.344 0.615zm-0.123-0.688c0.349 0 0.65-0.132 0.901-0.394 0.252-0.268 0.377-0.62 0.377-1.057s-0.125-0.787-0.377-1.049c-0.251-0.268-0.552-0.402-0.901-0.402-0.355 0-0.659 0.131-0.91 0.394-0.246 0.262-0.369 0.614-0.369 1.057 0 0.442 0.123 0.795 0.369 1.057 0.251 0.262 0.555 0.394 0.91 0.394z"
     style="fill-rule:nonzero;fill:#fff"
     id="path4" />
  <path
     d="m30.001 59.271c-0.426 0-0.784-0.123-1.073-0.369-0.284-0.246-0.426-0.571-0.426-0.975 0-0.437 0.169-0.779 0.508-1.025 0.338-0.251 0.756-0.377 1.254-0.377 0.442 0 0.805 0.082 1.09 0.246v-0.114c0-0.295-0.102-0.53-0.304-0.705-0.202-0.181-0.45-0.271-0.745-0.271-0.219 0-0.418 0.052-0.599 0.156-0.175 0.104-0.295 0.246-0.36 0.426l-0.689-0.295c0.093-0.24 0.276-0.462 0.549-0.664 0.274-0.207 0.634-0.311 1.082-0.311 0.514 0 0.94 0.15 1.279 0.451 0.338 0.3 0.508 0.724 0.508 1.27v2.426h-0.721v-0.557h-0.033c-0.301 0.458-0.741 0.688-1.32 0.688zm0.123-0.688c0.312 0 0.593-0.115 0.844-0.345 0.257-0.235 0.386-0.511 0.386-0.827-0.214-0.175-0.533-0.263-0.959-0.263-0.366 0-0.642 0.08-0.828 0.238s-0.279 0.344-0.279 0.557c0 0.197 0.085 0.353 0.254 0.467 0.17 0.115 0.364 0.173 0.582 0.173z"
     style="fill-rule:nonzero;fill:#fff"
     id="path6" />
  <path
     d="m34.368 59.271c-0.448 0-0.819-0.109-1.114-0.328-0.29-0.218-0.503-0.492-0.639-0.819l0.672-0.279c0.213 0.503 0.576 0.754 1.09 0.754 0.234 0 0.426-0.052 0.573-0.156 0.153-0.104 0.23-0.24 0.23-0.41 0-0.262-0.183-0.439-0.549-0.532l-0.812-0.197c-0.257-0.066-0.5-0.188-0.729-0.369-0.23-0.186-0.344-0.434-0.344-0.746 0-0.355 0.155-0.642 0.467-0.86 0.317-0.224 0.691-0.336 1.123-0.336 0.355 0 0.672 0.082 0.95 0.246 0.279 0.158 0.478 0.388 0.599 0.688l-0.656 0.271c-0.148-0.356-0.454-0.533-0.918-0.533-0.224 0-0.413 0.046-0.565 0.139-0.153 0.093-0.23 0.219-0.23 0.377 0 0.23 0.178 0.385 0.533 0.467l0.795 0.189c0.377 0.087 0.655 0.238 0.836 0.451 0.18 0.213 0.27 0.453 0.27 0.721 0 0.36-0.147 0.661-0.442 0.901-0.295 0.241-0.675 0.361-1.14 0.361z"
     style="fill-rule:nonzero;fill:#fff"
     id="path8" />
  <path
     d="m38.474 59.271c-0.607 0-1.101-0.202-1.484-0.607-0.377-0.404-0.565-0.915-0.565-1.532 0-0.585 0.183-1.087 0.549-1.508 0.372-0.421 0.844-0.631 1.418-0.631 0.595 0 1.071 0.194 1.426 0.582 0.36 0.388 0.541 0.907 0.541 1.557l-8e-3 0.139h-3.172c0.022 0.405 0.156 0.724 0.401 0.959 0.252 0.235 0.544 0.353 0.877 0.353 0.541 0 0.907-0.23 1.099-0.689l0.672 0.279c-0.131 0.311-0.347 0.573-0.648 0.787-0.3 0.207-0.669 0.311-1.106 0.311zm1.082-2.623c-0.017-0.229-0.123-0.448-0.32-0.655-0.191-0.208-0.478-0.312-0.861-0.312-0.278 0-0.521 0.088-0.729 0.263-0.202 0.174-0.341 0.409-0.418 0.704h2.328z"
     style="fill-rule:nonzero;fill:#fff"
     id="path10" />
  <path
     d="m22.46 37.697h10.073v-21.206l-9.983 1e-3c-1.098-0.082-1.543 0.02-1.543 1.014v19.122c-0.069 1.092 0.386 1.069 1.453 1.069z"
     style="fill:#3d2248"
     id="path12" />
  <path
     d="m41.846 37.69h-4.572l-2.344-1.968v-17.269l1.606-1.968h5.31c0.735-0.081 0.794 0.02 0.794 1.015v19.122c0.046 1.091-0.079 1.068-0.794 1.068z"
     style="fill:none;stroke-width:.7px;stroke:#3d2248"
     id="path14" />
  <path
     d="m40.113 38.7l-8.681-1.014v-21.195l8.609-0.807c1.065-0.081 1.122 0.212 1.122 1.207l-0.072 20.227c0.067 1.092 0.058 1.582-0.978 1.582z"
     style="fill:#3d2248"
     id="path16" />
  <path
     d="m36.503 23.539c0.034-0.093 0.057-0.188 0.057-0.288 1e-3 -1.232-2.661-1.896-5.165-1.896-2.502 0-5.163 0.664-5.163 1.896 0 0.101 0.024 0.196 0.058 0.289l-0.014 0.024c-0.114 0.207-0.171 0.417-0.171 0.623v1.524c0 0.235 0.074 0.46 0.205 0.673l-0.017 0.029c-0.125 0.217-0.188 0.436-0.188 0.653v1.523c0 0.227 0.07 0.445 0.194 0.653l-6e-3 0.012c-0.125 0.217-0.188 0.436-0.188 0.652v1.524c0 1.355 2.324 2.415 5.29 2.415 2.969 0 5.292-1.06 5.292-2.415v-1.524c0-0.216-0.062-0.436-0.189-0.652l-5e-3 -0.013c0.123-0.207 0.194-0.425 0.194-0.653v-1.523c0-0.217-0.062-0.437-0.189-0.653l-0.016-0.029c0.131-0.213 0.205-0.438 0.205-0.674v-1.523c0-0.206-0.057-0.417-0.171-0.624l-0.013-0.025v2e-3zm-0.382 7.887c0 0.874-1.94 1.848-4.726 1.848-2.784 0-4.724-0.974-4.724-1.848v-1.433c0.869 0.795 2.656 1.303 4.724 1.303 2.07 0 3.857-0.508 4.726-1.304v1.434zm0-2.838c0 0.874-1.94 1.849-4.726 1.849-2.784 0-4.724-0.975-4.724-1.849v-1.433c0.869 0.795 2.656 1.303 4.724 1.303 2.07 0 3.857-0.508 4.726-1.304v1.434zm0-2.878c0 0.874-1.94 1.848-4.726 1.848-2.784 0-4.724-0.973-4.724-1.848v-1.268c0.849 0.72 2.818 1.093 4.724 1.093 1.908 0 3.876-0.373 4.726-1.093v1.268z"
     style="fill-rule:nonzero;fill:#a35cc1"
     id="path18" />
  <defs
     id="defs25">
    <linearGradient
       id="_Linear1"
       x2="1"
       gradientTransform="matrix(0,-49.619,49.619,0,104.99,51.088)"
       gradientUnits="userSpaceOnUse">
      <stop
         style="stop-color:#6c427f"
         offset="0"
         id="stop20" />
      <stop
         style="stop-color:#bf6ee0"
         offset="1"
         id="stop22" />
    </linearGradient>
    <linearGradient
       inkscape:collect="always"
       xlink:href="#_Linear1"
       id="linearGradient2814"
       gradientUnits="userSpaceOnUse"
       gradientTransform="matrix(0,-49.619,49.619,0,104.99,51.088)"
       x2="1" />
  </defs>
</svg>
