<?xml version="1.0" encoding="UTF-8" standalone="no"?>
<svg
   clip-rule="evenodd"
   fill-rule="evenodd"
   viewBox="0 0 64 64"
   version="1.1"
   id="svg27"
   sodipodi:docname="application-vnd.ms-access.svg"
   inkscape:version="1.1.2 (0a00cf5339, 2022-02-04)"
   xmlns:inkscape="http://www.inkscape.org/namespaces/inkscape"
   xmlns:sodipodi="http://sodipodi.sourceforge.net/DTD/sodipodi-0.dtd"
   xmlns:xlink="http://www.w3.org/1999/xlink"
   xmlns="http://www.w3.org/2000/svg"
   xmlns:svg="http://www.w3.org/2000/svg">
  <defs
     id="defs31">
    <linearGradient
       inkscape:collect="always"
       xlink:href="#a"
       id="linearGradient2295"
       gradientUnits="userSpaceOnUse"
       gradientTransform="matrix(0,-49.619,49.619,0,336.809,51.3535)"
       x2="1" />
  </defs>
  <sodipodi:namedview
     id="namedview29"
     pagecolor="#ffffff"
     bordercolor="#666666"
     borderopacity="1.0"
     inkscape:pageshadow="2"
     inkscape:pageopacity="0.0"
     inkscape:pagecheckerboard="0"
     showgrid="false"
     inkscape:lockguides="true"
     inkscape:zoom="10.671875"
     inkscape:cx="37.434846"
     inkscape:cy="32.374817"
     inkscape:window-width="945"
     inkscape:window-height="1026"
     inkscape:window-x="965"
     inkscape:window-y="44"
     inkscape:window-maximized="1"
     inkscape:current-layer="svg27" />
  <linearGradient
     id="a"
     x2="1"
     gradientTransform="matrix(0,-49.619,49.619,0,336.809,51.3535)"
     gradientUnits="userSpaceOnUse">
    <stop
       stop-color="#733491"
       offset="0"
       id="stop2" />
    <stop
       stop-color="#84519a"
       offset="1"
       id="stop4" />
  </linearGradient>
  <path
     id="path7"
     style="fill:url(#linearGradient2295)"
     d="M 17.617188 1.734375 C 15.597188 1.734375 13.659469 2.5377969 12.230469 3.9667969 C 10.802469 5.3947969 10 7.3315625 10 9.3515625 L 10 12.623047 L 10 54.648438 C 10 56.668437 10.802469 58.605203 12.230469 60.033203 C 13.123594 60.926328 14.215893 61.574525 15.402344 61.935547 C 15.876924 62.079956 16.367043 62.179133 16.865234 62.228516 C 17.11433 62.253207 17.364687 62.26575 17.617188 62.265625 C 25.677188 62.265625 38.322812 62.264625 46.382812 62.265625 C 46.635313 62.265625 46.88567 62.253275 47.134766 62.228516 C 47.632957 62.179133 48.123076 62.079956 48.597656 61.935547 C 49.784107 61.574525 50.876406 60.926328 51.769531 60.033203 C 53.197531 58.605203 54 56.668437 54 54.648438 L 54 12.623047 L 54 9.3515625 C 54 7.3315625 53.197531 5.3947969 51.769531 3.9667969 C 50.340531 2.5377969 48.402813 1.734375 46.382812 1.734375 C 43.134477 1.734375 39.3079 1.7343866 35.730469 1.734375 C 32.897062 1.7343164 30.775176 1.7343669 28.269531 1.734375 C 24.6921 1.7343866 20.865523 1.734375 17.617188 1.734375 z " />
  <path
     id="path914"
     style="clip-rule:evenodd;fill:#3d2248;fill-opacity:1;fill-rule:evenodd;stroke-width:1;stroke-linejoin:round;stroke-miterlimit:2"
     d="m 9.9999997,51.248422 v 3.40039 c 0,2.020002 0.8024693,3.957719 2.2304693,5.386719 1.429,1.428 3.366717,2.230469 5.386719,2.230469 h 28.765624 c 2.020002,0 3.957719,-0.802469 5.386719,-2.230469 C 53.197531,58.606531 54,56.668814 54,54.648812 v -3.40039 z" />
  <g
     fill="#fff"
     fill-rule="nonzero"
     id="g17">
    <path
       d="m26.132 59.271c-.306 0-.582-.066-.828-.197-.241-.131-.421-.295-.541-.491h-.033v.557h-.721v-5.868h.754v1.852l-.033.557h.033c.12-.196.3-.36.541-.491.246-.132.522-.197.828-.197.519 0 .967.205 1.344.615.377.409.565.917.565 1.524 0 .606-.188 1.115-.565 1.524-.377.41-.825.615-1.344.615zm-.123-.688c.349 0 .65-.132.901-.394.252-.268.377-.62.377-1.057s-.125-.787-.377-1.049c-.251-.268-.552-.402-.901-.402-.355 0-.659.131-.91.394-.246.262-.369.614-.369 1.057 0 .442.123.795.369 1.057.251.262.555.394.91.394z"
       id="path9" />
    <path
       d="m30.001 59.271c-.426 0-.784-.123-1.073-.369-.284-.246-.426-.571-.426-.975 0-.437.169-.779.508-1.025.338-.251.756-.377 1.254-.377.442 0 .805.082 1.09.246v-.114c0-.295-.102-.53-.304-.705-.202-.181-.45-.271-.745-.271-.219 0-.418.052-.599.156-.175.104-.295.246-.36.426l-.689-.295c.093-.24.276-.462.549-.664.274-.207.634-.311 1.082-.311.514 0 .94.15 1.279.451.338.3.508.724.508 1.27v2.426h-.721v-.557h-.033c-.301.458-.741.688-1.32.688zm.123-.688c.312 0 .593-.115.844-.345.257-.235.386-.511.386-.827-.214-.175-.533-.263-.959-.263-.366 0-.642.08-.828.238s-.279.344-.279.557c0 .197.085.353.254.467.17.115.364.173.582.173z"
       id="path11" />
    <path
       d="m34.368 59.271c-.448 0-.819-.109-1.114-.328-.29-.218-.503-.492-.639-.819l.672-.279c.213.503.576.754 1.09.754.234 0 .426-.052.573-.156.153-.104.23-.24.23-.41 0-.262-.183-.439-.549-.532l-.812-.197c-.257-.066-.5-.188-.729-.369-.23-.186-.344-.434-.344-.746 0-.355.155-.642.467-.86.317-.224.691-.336 1.123-.336.355 0 .672.082.95.246.279.158.478.388.599.688l-.656.271c-.148-.356-.454-.533-.918-.533-.224 0-.413.046-.565.139-.153.093-.23.219-.23.377 0 .23.178.385.533.467l.795.189c.377.087.655.238.836.451.18.213.27.453.27.721 0 .36-.147.661-.442.901-.295.241-.675.361-1.14.361z"
       id="path13" />
    <path
       d="m38.474 59.271c-.607 0-1.101-.202-1.484-.607-.377-.404-.565-.915-.565-1.532 0-.585.183-1.087.549-1.508.372-.421.844-.631 1.418-.631.595 0 1.071.194 1.426.582.36.388.541.907.541 1.557l-.008.139h-3.172c.022.405.156.724.401.959.252.235.544.353.877.353.541 0 .907-.23 1.099-.689l.672.279c-.131.311-.347.573-.648.787-.3.207-.669.311-1.106.311zm1.082-2.623c-.017-.229-.123-.448-.32-.655-.191-.208-.478-.312-.861-.312-.278 0-.521.088-.729.263-.202.174-.341.409-.418.704z"
       id="path15" />
  </g>
  <path
     d="m22.46 37.697h10.073v-21.206l-9.983.001c-1.098-.082-1.543.02-1.543 1.014v19.122c-.069 1.092.386 1.069 1.453 1.069z"
     fill="#3d2248"
     id="path19" />
  <path
     d="m41.846 37.69h-4.572l-2.344-1.968v-17.269l1.606-1.968h5.31c.735-.081.794.02.794 1.015v19.122c.046 1.091-.079 1.068-.794 1.068z"
     fill="none"
     stroke="#3d2248"
     stroke-width=".7"
     id="path21" />
  <path
     d="m40.113 38.7-8.681-1.014v-21.195l8.609-.807c1.065-.081 1.122.212 1.122 1.207l-.072 20.227c.067 1.092.058 1.582-.978 1.582z"
     fill="#3d2248"
     id="path23" />
  <path
     d="m36.503 23.539c.034-.093.057-.188.057-.288.001-1.232-2.661-1.896-5.165-1.896-2.502 0-5.163.664-5.163 1.896 0 .101.024.196.058.289l-.014.024c-.114.207-.171.417-.171.623v1.524c0 .235.074.46.205.673l-.017.029c-.125.217-.188.436-.188.653v1.523c0 .227.07.445.194.653l-.006.012c-.125.217-.188.436-.188.652v1.524c0 1.355 2.324 2.415 5.29 2.415 2.969 0 5.292-1.06 5.292-2.415v-1.524c0-.216-.062-.436-.189-.652l-.005-.013c.123-.207.194-.425.194-.653v-1.523c0-.217-.062-.437-.189-.653l-.016-.029c.131-.213.205-.438.205-.674v-1.523c0-.206-.057-.417-.171-.624l-.013-.025zm-.382 7.887c0 .874-1.94 1.848-4.726 1.848-2.784 0-4.724-.974-4.724-1.848v-1.433c.869.795 2.656 1.303 4.724 1.303 2.07 0 3.857-.508 4.726-1.304zm0-2.838c0 .874-1.94 1.849-4.726 1.849-2.784 0-4.724-.975-4.724-1.849v-1.433c.869.795 2.656 1.303 4.724 1.303 2.07 0 3.857-.508 4.726-1.304zm0-2.878c0 .874-1.94 1.848-4.726 1.848-2.784 0-4.724-.973-4.724-1.848v-1.268c.849.72 2.818 1.093 4.724 1.093 1.908 0 3.876-.373 4.726-1.093z"
     fill="#8a4ea4"
     fill-rule="nonzero"
     id="path25" />
</svg>
