<?xml version="1.0" encoding="UTF-8" standalone="no"?>
<svg
   width="48"
   height="48"
   version="1.1"
   id="svg16"
   sodipodi:docname="application-rnote.svg"
   inkscape:version="1.1.2 (0a00cf5339, 2022-02-04)"
   xmlns:inkscape="http://www.inkscape.org/namespaces/inkscape"
   xmlns:sodipodi="http://sodipodi.sourceforge.net/DTD/sodipodi-0.dtd"
   xmlns:xlink="http://www.w3.org/1999/xlink"
   xmlns="http://www.w3.org/2000/svg"
   xmlns:svg="http://www.w3.org/2000/svg">
  <defs
     id="defs20">
    <linearGradient
       id="_Linear1"
       x2="1"
       gradientTransform="matrix(0,-49.619,49.619,0,177.88,51.088)"
       gradientUnits="userSpaceOnUse">
      <stop
         style="stop-color:#758b9a"
         offset="0"
         id="stop14" />
      <stop
         style="stop-color:#b5bdc2"
         offset="1"
         id="stop16" />
    </linearGradient>
    <linearGradient
       id="a"
       x2="1"
       gradientTransform="matrix(0,-37.21425,37.21425,0,460.66514,38.515125)"
       gradientUnits="userSpaceOnUse">
      <stop
         stop-color="#349242"
         offset="0"
         id="stop2" />
      <stop
         stop-color="#4cb49f"
         offset="1"
         id="stop4" />
    </linearGradient>
    <linearGradient
       inkscape:collect="always"
       xlink:href="#a-6"
       id="linearGradient941"
       gradientUnits="userSpaceOnUse"
       gradientTransform="matrix(0,-37.2142,37.2142,0,133.40993,38.515133)"
       x2="1" />
    <linearGradient
       id="a-6"
       x2="1"
       gradientTransform="matrix(0,-37.2142,37.2142,0,133.41,38.316)"
       gradientUnits="userSpaceOnUse">
      <stop
         stop-color="#758b9a"
         offset="0"
         id="stop2-7" />
      <stop
         stop-color="#b5bdc2"
         offset="1"
         id="stop4-5" />
    </linearGradient>
  </defs>
  <sodipodi:namedview
     id="namedview18"
     pagecolor="#ffffff"
     bordercolor="#666666"
     borderopacity="1.0"
     inkscape:pageshadow="2"
     inkscape:pageopacity="0.0"
     inkscape:pagecheckerboard="0"
     showgrid="false"
     inkscape:zoom="7.1041667"
     inkscape:cx="24.351906"
     inkscape:cy="18.158358"
     inkscape:window-width="1896"
     inkscape:window-height="1022"
     inkscape:window-x="12"
     inkscape:window-y="46"
     inkscape:window-maximized="1"
     inkscape:current-layer="svg16" />
  <path
     id="path7-3"
     style="fill:url(#linearGradient941)"
     d="m 13.214774,1.300696 c -1.515,0 -2.969016,0.602828 -4.0410165,1.673828 -1.071,1.072 -1.673828,2.524062 -1.673828,4.039062 v 4.732422 29.240234 c 0,1.515 0.602828,2.967063 1.673828,4.039063 0.804,0.80325 1.8221395,1.342751 2.9199225,1.5625 6.19e-4,1.24e-4 0.0013,-1.24e-4 0.002,0 0.182349,0.03644 0.366589,0.06547 0.552735,0.08398 6.43e-4,6.4e-5 0.0013,-6.4e-5 0.002,0 0.186155,0.01845 0.373778,0.02734 0.5625,0.02734 6.53e-4,0 0.0013,0 0.002,0 h 21.570312 c 0.568126,0 1.128066,-0.0856 1.66211,-0.248047 0.889502,-0.27074 1.708906,-0.756406 2.378906,-1.425781 1.071,-1.072 1.673828,-2.524063 1.673828,-4.039063 V 11.746008 7.013586 c 0,-1.515 -0.602828,-2.967062 -1.673828,-4.039062 -1.072,-1.071 -2.526016,-1.673828 -4.041016,-1.673828 h -10.21289 -1.144532 z" />
  <path
     id="path1057"
     style="fill:#606a70;fill-opacity:1"
     d="m 7.4999303,38.867102 v 2.11914 c 0,1.515 0.602827,2.967063 1.673829,4.039063 0.8040001,0.80325 1.8221397,1.342751 2.9199217,1.5625 0,0 0.002,0 0.002,0 0.182349,0.03644 0.366588,0.06547 0.552735,0.08398 0,0 0.002,0 0.002,0 0.186153,0.01845 0.37378,0.02734 0.5625,0.02734 h 0.002 21.57031 c 0.568124,0 1.128063,-0.0856 1.66211,-0.248047 0.8895,-0.27074 1.708905,-0.756406 2.378906,-1.425781 1.070999,-1.072 1.673828,-2.524063 1.673828,-4.039063 v -2.11914 z" />
  <path
     style="fill:#606a70;fill-opacity:1"
     d="m 30.731325,15.901722 c -0.05876,-0.307313 0.550794,-2.112676 -1.398791,-3.132151 -0.387067,-0.202405 -0.872661,-0.386719 -1.441587,-0.520927 -1.234329,-0.291174 -2.862588,-0.34317 -4.601329,0.15862 -1.456665,0.420381 -2.84488,1.189681 -4.028657,2.25326 -1.055983,0.948763 -1.911277,2.097638 -2.503678,3.36706 -0.0516,0.11058 -0.10108,0.2223 -0.14836,0.335116 -0.331106,0.787569 -0.557152,1.678509 -0.601134,2.61962 -0.04232,0.905559 0.08276,1.909042 0.50023,2.898765 0.407893,0.851441 1.091837,1.744114 2.081908,2.41853 0.59744,0.407747 1.330033,0.743265 2.154455,0.909397 0.320144,0.06452 0.668911,0.10524 1.038749,0.10636 0.681254,0.0064 1.325637,-0.12322 1.919903,-0.33471 0.537118,-0.19116 1.027205,-0.446708 1.464939,-0.720083 0.398728,-0.249368 0.760682,-0.515598 1.076815,-0.749414 0.31368,-0.231997 0.569572,-0.422361 0.8279,-0.590027 0.237826,-0.15482 0.455185,-0.271002 0.651243,-0.349286 0.18796,-0.07504 0.33382,-0.1062 0.442544,-0.11442 0.10042,-0.0194 0.18372,-0.0126 0.214956,-0.0196 0.03198,-0.0194 0.03906,-0.0028 0.0382,-0.0714 0.005,-0.06214 0.04636,-0.02222 0.0628,0.018 0.02102,0.06146 0.0144,0.16684 -0.02884,0.299748 -0.06364,0.13656 -0.16378,0.282266 -0.308304,0.444864 -0.1581,0.17792 -0.35084,0.355507 -0.562212,0.539677 -0.05698,0.04958 -0.115119,0.0995 -0.173879,0.14976 -0.18,0.15398 -0.377276,0.316438 -0.58139,0.493228 -0.277534,0.240383 -0.570094,0.509709 -0.842032,0.822083 -0.289973,0.332188 -0.548079,0.710777 -0.735167,1.126311 -0.20016,0.444553 -0.317658,0.929041 -0.306016,1.432028 0.017,0.403092 0.12118,0.769266 0.271722,1.078205 0.17494,0.358996 0.413904,0.644742 0.671704,0.85146 0.249143,0.199781 0.507765,0.317443 0.735671,0.372355 0.07954,0.0192 0.1585,0.02986 0.235302,0.03354 0.531698,0.02536 0.873731,-0.268584 1.010567,-0.355157 -0.13444,-0.15676 -0.242468,-0.47437 -0.334654,-0.804664 -0.0124,-0.04446 -0.02478,-0.0885 -0.03708,-0.12866 -0.03626,-0.118161 -0.06888,-0.231149 -0.08766,-0.343073 -0.019,-0.11274 -0.03034,-0.231826 -0.02494,-0.347512 0.0048,-0.10178 0.02242,-0.19772 0.05596,-0.280796 0.02974,-0.10402 0.088,-0.231485 0.187199,-0.373113 0.09608,-0.13718 0.227968,-0.28375 0.395744,-0.424966 0.16844,-0.1433 0.366558,-0.283428 0.612174,-0.440663 0.18654,-0.1194 0.36762,-0.22829 0.591207,-0.365276 0.06986,-0.0428 0.14334,-0.08844 0.218538,-0.13632 0.271884,-0.1732 0.609858,-0.403188 0.938486,-0.686031 0.302393,-0.260258 0.632719,-0.59527 0.914727,-1.019969 0.270742,-0.380064 0.525012,-0.87554 0.639002,-1.467099 0.10584,-0.550829 0.09004,-1.198643 -0.1616,-1.840254 -0.296548,-0.743858 -0.851258,-1.336091 -1.496459,-1.723433 -0.64407,-0.387047 -1.356099,-0.565661 -2.019009,-0.602527 -0.676374,-0.02686 -1.299425,0.08942 -1.839009,0.25827 -0.549955,0.17208 -1.043241,0.408201 -1.459141,0.639671 -0.41108,0.22853 -0.808315,0.485706 -1.108319,0.676263 -0.34391,0.218444 -0.605896,0.379554 -0.863032,0.511102 -0.258965,0.13184 -0.477293,0.211932 -0.654599,0.25033 -0.19248,0.04168 -0.305702,0.02798 -0.36648,0.0048 -0.02896,-0.0152 -0.06042,-0.03428 -0.09182,-0.05762 -0.08512,-0.06326 -0.1589,-0.15838 -0.18936,-0.260996 -0.06116,-0.17764 -0.06712,-0.392504 -0.03466,-0.584075 -0.0166,-0.19048 4.32e-4,-0.43196 0.0551,-0.705168 0.05882,-0.293983 0.1589,-0.614571 0.298806,-0.955881 0.02018,-0.04884 0.04124,-0.09758 0.06322,-0.14616 0.253886,-0.562029 0.650184,-1.088579 1.150273,-1.534122 0.561124,-0.499924 1.193948,-0.847397 1.817783,-1.066743 0.754128,-0.265158 1.497127,-0.345472 2.156267,-0.396742 0.299449,-0.0233 0.574623,-0.0405 0.821529,-0.06944 1.299513,-0.15226 2.178905,-1.220501 2.713662,-1.350005 z"
     id="path14" />
</svg>
