<?xml version="1.0" encoding="UTF-8" standalone="no"?>
<svg
   style="clip-rule:evenodd;fill-rule:evenodd;stroke-linejoin:round;stroke-miterlimit:2"
   viewBox="0 0 64 64"
   version="1.1"
   id="svg13"
   sodipodi:docname="application-x-fusioncomp.svg"
   inkscape:version="1.1.2 (0a00cf5339, 2022-02-04)"
   xmlns:inkscape="http://www.inkscape.org/namespaces/inkscape"
   xmlns:sodipodi="http://sodipodi.sourceforge.net/DTD/sodipodi-0.dtd"
   xmlns:xlink="http://www.w3.org/1999/xlink"
   xmlns="http://www.w3.org/2000/svg"
   xmlns:svg="http://www.w3.org/2000/svg">
  <sodipodi:namedview
     id="namedview15"
     pagecolor="#ffffff"
     bordercolor="#666666"
     borderopacity="1.0"
     inkscape:pageshadow="2"
     inkscape:pageopacity="0.0"
     inkscape:pagecheckerboard="0"
     showgrid="false"
     inkscape:zoom="10.65625"
     inkscape:cx="55.97654"
     inkscape:cy="32"
     inkscape:window-width="1896"
     inkscape:window-height="1022"
     inkscape:window-x="12"
     inkscape:window-y="46"
     inkscape:window-maximized="1"
     inkscape:current-layer="svg13" />
  <path
     id="path2"
     style="fill:url(#linearGradient6567)"
     d="M 17.617188 1.46875 C 15.597188 1.46875 13.659469 2.2712188 12.230469 3.6992188 C 10.802469 5.1282186 10 7.0678906 10 9.0878906 L 10 13.947266 L 10 54.382812 C 10 56.402814 10.802469 58.340531 12.230469 59.769531 C 13.659469 61.197531 15.597187 62 17.617188 62 L 46.382812 62 C 48.402814 62 50.340531 61.197531 51.769531 59.769531 C 53.197531 58.340531 54 56.402814 54 54.382812 L 54 13.947266 L 54 9.0878906 C 54 7.0678906 53.197531 5.1282186 51.769531 3.6992188 C 50.340531 2.2712188 48.402813 1.46875 46.382812 1.46875 L 36.419922 1.46875 L 27.580078 1.46875 L 17.617188 1.46875 z " />
  <path
     d="m 32.336,37.790267 c -0.163,0.01 -0.326,0.037 -0.484,0.08 -0.633,0.169 -1.191,0.598 -1.518,1.166 -0.328,0.567 -0.42,1.265 -0.25,1.898 0.17,0.633 0.599,1.19 1.166,1.518 0.567,0.327 1.266,0.419 1.898,0.25 0.633,-0.17 1.191,-0.599 1.518,-1.166 0.328,-0.568 0.42,-1.266 0.25,-1.899 -0.17,-0.632 -0.599,-1.19 -1.166,-1.517 -0.425,-0.246 -0.924,-0.361 -1.414,-0.33 z m 7.033,-10.003 c -0.717,0.02 -1.429,0.249 -2.01,0.67 -0.673,0.489 -1.15,1.192 -1.675,1.836 -0.263,0.322 -0.542,0.634 -0.864,0.897 -0.322,0.263 -0.69,0.478 -1.091,0.586 -0.402,0.107 -0.828,0.104 -1.239,0.037 -0.41,-0.067 -0.808,-0.198 -1.197,-0.346 -0.778,-0.296 -1.542,-0.667 -2.369,-0.754 -1.142,-0.12 -2.331,0.353 -3.076,1.225 -0.746,0.871 -1.028,2.117 -0.731,3.224 0.297,1.107 1.164,2.044 2.246,2.426 1.083,0.382 2.349,0.199 3.278,-0.475 0.673,-0.488 1.15,-1.191 1.675,-1.836 0.263,-0.322 0.542,-0.633 0.864,-0.896 0.322,-0.263 0.69,-0.478 1.091,-0.586 0.402,-0.107 0.828,-0.104 1.239,-0.037 0.41,0.067 0.808,0.198 1.197,0.346 0.778,0.296 1.542,0.666 2.369,0.754 1.142,0.12 2.331,-0.354 3.076,-1.225 0.746,-0.871 1.028,-2.118 0.731,-3.225 -0.297,-1.107 -1.164,-2.043 -2.246,-2.425 -0.406,-0.144 -0.838,-0.208 -1.268,-0.196 z m -0.211,-9.999 c -0.955,0.025 -1.906,0.323 -2.679,0.871 -0.898,0.635 -1.533,1.551 -2.233,2.388 -0.35,0.419 -0.723,0.823 -1.152,1.164 -0.43,0.342 -0.919,0.62 -1.455,0.76 -0.536,0.14 -1.103,0.138 -1.651,0.051 -0.547,-0.087 -1.079,-0.257 -1.597,-0.449 -1.037,-0.385 -2.057,-0.868 -3.161,-0.981 -1.522,-0.156 -3.107,0.459 -4.101,1.592 -0.994,1.133 -1.371,2.752 -0.975,4.191 0.397,1.44 1.555,2.658 2.998,3.155 1.443,0.497 3.131,0.259 4.369,-0.617 0.898,-0.635 1.533,-1.551 2.233,-2.389 0.35,-0.419 0.723,-0.822 1.152,-1.164 0.43,-0.342 0.919,-0.62 1.455,-0.76 0.536,-0.14 1.103,-0.138 1.651,-0.051 0.547,0.087 1.079,0.257 1.597,0.45 1.037,0.384 2.057,0.867 3.161,0.98 1.522,0.156 3.107,-0.459 4.101,-1.592 0.994,-1.133 1.371,-2.752 0.975,-4.191 -0.397,-1.439 -1.555,-2.657 -2.998,-3.154 -0.542,-0.187 -1.116,-0.27 -1.69,-0.254 z"
     style="fill:#d99200;fill-rule:nonzero"
     id="path4" />
  <defs
     id="defs11">
    <linearGradient
       id="_Linear1"
       x2="1"
       gradientTransform="matrix(0,-49.619,49.619,0,615.22,51.088)"
       gradientUnits="userSpaceOnUse">
      <stop
         style="stop-color:#293e91"
         offset="0"
         id="stop6" />
      <stop
         style="stop-color:#3554b9"
         offset="1"
         id="stop8" />
    </linearGradient>
    <linearGradient
       inkscape:collect="always"
       xlink:href="#_Linear1"
       id="linearGradient6567"
       gradientUnits="userSpaceOnUse"
       gradientTransform="matrix(0,-49.619,49.619,0,615.22,51.088)"
       x2="1" />
  </defs>
  <path
     id="path2-3"
     style="clip-rule:evenodd;fill:#1e2e6c;fill-opacity:1;fill-rule:evenodd;stroke-linejoin:round;stroke-miterlimit:2"
     d="m 10,50.982422 v 3.398437 0.002 c 6.5e-5,0.251841 0.01244,0.501552 0.03711,0.75 v 0.002 c 0.02473,0.248442 0.06268,0.494885 0.111329,0.738281 v 0.002 c 0.04871,0.243391 0.109702,0.484016 0.18164,0.720703 v 0.002 c 0.072,0.236684 0.155456,0.468944 0.25,0.697266 v 0.002 c 0.09461,0.228323 0.199937,0.453573 0.316406,0.671875 v 0.002 c 0.116532,0.218305 0.245101,0.430096 0.382814,0.636719 v 0.002 c 0.137775,0.206628 0.287037,0.406326 0.445311,0.599609 v 0.002 c 0.158341,0.193289 0.327703,0.378358 0.505861,0.55664 v 0.002 c 0.714499,0.714 1.5571,1.271274 2.472656,1.650391 C 15.618679,61.799106 16.607187,62 17.617188,62 h 28.765624 c 1.010002,0 1.998509,-0.200473 2.914063,-0.580078 0.915555,-0.379117 1.758156,-0.936391 2.472656,-1.650391 v -0.002 C 53.197531,58.338626 54,56.400859 54,54.380859 v -3.398437 z" />
</svg>
