<?xml version="1.0" encoding="UTF-8" standalone="no"?>
<svg
   clip-rule="evenodd"
   fill-rule="evenodd"
   stroke-linejoin="round"
   stroke-miterlimit="2"
   viewBox="0 0 64 64"
   version="1.1"
   id="svg23"
   sodipodi:docname="application-x-firmware.svg"
   inkscape:version="1.1.2 (0a00cf5339, 2022-02-04)"
   xmlns:inkscape="http://www.inkscape.org/namespaces/inkscape"
   xmlns:sodipodi="http://sodipodi.sourceforge.net/DTD/sodipodi-0.dtd"
   xmlns:xlink="http://www.w3.org/1999/xlink"
   xmlns="http://www.w3.org/2000/svg"
   xmlns:svg="http://www.w3.org/2000/svg">
  <defs
     id="defs27">
    <linearGradient
       inkscape:collect="always"
       xlink:href="#a"
       id="linearGradient5967"
       gradientUnits="userSpaceOnUse"
       gradientTransform="matrix(0,-49.619,49.619,0,177.88,51.088)"
       x2="1" />
  </defs>
  <sodipodi:namedview
     id="namedview25"
     pagecolor="#ffffff"
     bordercolor="#666666"
     borderopacity="1.0"
     inkscape:pageshadow="2"
     inkscape:pageopacity="0.0"
     inkscape:pagecheckerboard="0"
     showgrid="false"
     inkscape:zoom="10.65625"
     inkscape:cx="32"
     inkscape:cy="32"
     inkscape:window-width="1896"
     inkscape:window-height="1022"
     inkscape:window-x="12"
     inkscape:window-y="46"
     inkscape:window-maximized="1"
     inkscape:current-layer="svg23" />
  <linearGradient
     id="a"
     x2="1"
     gradientTransform="matrix(0,-49.619,49.619,0,177.88,51.088)"
     gradientUnits="userSpaceOnUse">
    <stop
       stop-color="#428657"
       offset="0"
       id="stop2" />
    <stop
       stop-color="#59b07c"
       offset="1"
       id="stop4" />
  </linearGradient>
  <path
     id="path7"
     style="fill:url(#linearGradient5967)"
     d="M 17.617188 1.46875 C 15.597188 1.46875 13.659469 2.2712188 12.230469 3.6992188 C 10.802469 5.1282186 10 7.0678906 10 9.0878906 L 10 11.136719 L 10 54.382812 C 10 56.402814 10.802469 58.340531 12.230469 59.769531 C 13.659469 61.197531 15.597187 62 17.617188 62 L 46.382812 62 C 48.402814 62 50.340531 61.197531 51.769531 59.769531 C 53.197531 58.340531 54 56.402814 54 54.382812 L 54 11.136719 L 54 9.0878906 C 54 7.0678906 53.197531 5.1282186 51.769531 3.6992188 C 50.340531 2.2712188 48.402813 1.46875 46.382812 1.46875 L 38.947266 1.46875 L 25.052734 1.46875 L 17.617188 1.46875 z " />
  <path
     d="m 14,15.218046 v 2 h 36 v -2 z m 0,4 v 2 h 36 v -2 z m 0,4 v 2 h 36 v -2 z m 0,4 v 2 h 36 v -2 z m 0,4 v 2 h 36 v -2 z m 0,4 v 2 h 36 v -2 z m 0,4 v 2 h 36 v -2 z m 0,4 v 2 h 36 v -2 z"
     fill="#ffffff"
     fill-opacity="0.5"
     fill-rule="nonzero"
     id="path9" />
  <path
     d="m 18.649216,10.718046 h 26.701556 c 0.264155,0 0.476813,0.223 0.476813,0.5 v 37 c 0,0.277 -0.212658,0.5 -0.476813,0.5 h -26.701556 -9.54e-4 c -0.261293,0 -0.47586,-0.225 -0.47586,-0.499 v -10e-4 -37 c 0,-0.277 0.212659,-0.5 0.476814,-0.5 z"
     fill="#4d4d4d"
     fill-rule="nonzero"
     id="path11"
     style="stroke-width:0.976538" />
  <g
     fill-opacity="0.5"
     id="g21"
     transform="translate(0,-2.7819545)">
    <path
       transform="rotate(-130.77727,28.866693,24.553197)"
       d="m 25.908,13.721 c 0.541,-0.103 1.03,0.343 1.069,0.791 0.039,0.449 -0.372,0.901 -1.028,1.129 -0.48,0.183 -1.229,0.121 -1.801,0.013 -0.161,-0.56 -0.293,-1.3 -0.156,-1.795 0.167,-0.674 0.578,-1.126 1.028,-1.129 0.451,-0.003 0.94,0.443 0.888,0.991 z m 0.228,0.601 c 0.103,0.125 0.131,0.29 0.025,0.407 -0.105,0.115 -0.284,0.117 -0.407,0.012 -0.143,-0.122 -0.131,-0.291 -0.026,-0.406 0.106,-0.117 0.283,-0.163 0.408,-0.013 z m -0.854,-0.775 c 0.157,0.101 0.131,0.292 0.025,0.408 -0.105,0.115 -0.228,0.158 -0.407,0.012 -0.125,-0.102 -0.131,-0.291 -0.026,-0.407 0.106,-0.116 0.272,-0.1 0.408,-0.013 z"
       fill="#ffffff"
       id="path13" />
    <path
       transform="matrix(0,-0.453959,0.453959,0,14.6911,44.9777)"
       d="M 13.853,23.46 H 13.58 c -0.258,0 -0.464,-0.211 -0.464,-0.468 v -0.785 c -1.107,-0.279 -1.424,-0.936 -1.424,-2.286 0,-1.992 1.617,-3.61 3.61,-3.61 1.991,0 3.608,1.618 3.608,3.61 0,1.33 -0.337,1.985 -1.421,2.273 v 0.795 c 0,0.259 -0.209,0.468 -0.467,0.468 h -0.271 c -0.257,0 -0.467,-0.209 -0.467,-0.468 v -0.625 c -0.122,0.009 -0.247,0.013 -0.379,0.018 v 0.61 c 0,0.256 -0.209,0.465 -0.467,0.465 h -0.271 c -0.258,0 -0.467,-0.209 -0.467,-0.465 V 22.384 C 14.568,22.38 14.44,22.376 14.318,22.369 v 0.623 c 0,0.257 -0.209,0.468 -0.465,0.468 z m -0.048,-5.007 c 0.613,0.239 1.109,0.48 1.109,1.076 0,0.591 -0.401,0.705 -1.109,1.072 -0.543,0.282 -1.109,-0.481 -1.109,-1.072 0,-0.596 0.538,-1.298 1.109,-1.076 z m 2.978,0 c 0.589,-0.168 1.107,0.48 1.107,1.076 0,0.591 -0.581,1.385 -1.107,1.072 -0.646,-0.383 -1.109,-0.481 -1.109,-1.072 0,-0.596 0.432,-0.884 1.109,-1.076 z"
       fill="#ededed"
       id="path15" />
    <path
       transform="rotate(-130.77727,32.38526,23.118426)"
       d="m 33.049,10.91 0.033,0.717 1.073,-0.05 0.043,0.905 -1.073,0.05 0.033,0.718 c 0.012,0.244 -0.169,0.451 -0.402,0.461 -0.234,0.011 -0.433,-0.178 -0.444,-0.421 l -0.034,-0.718 -1.076,0.05 -0.043,-0.905 1.052,-0.021 -0.008,-0.747 c -0.012,-0.244 0.169,-0.45 0.402,-0.461 0.234,-0.011 0.433,0.178 0.444,0.422 z"
       fill="#ffffff"
       id="path17" />
    <path
       transform="rotate(-130.77727,28.81321,24.214323)"
       d="m 31.461,18.279 0.135,-0.148 0.529,0.482 -0.135,0.147 0.286,0.26 c 0.274,0.251 0.294,0.677 0.044,0.951 l -0.906,0.995 c -0.25,0.275 -0.676,0.295 -0.951,0.045 l -1.1,-1.002 c -0.275,-0.25 -0.294,-0.676 -0.044,-0.951 l 0.906,-0.995 c 0.25,-0.275 0.676,-0.294 0.951,-0.044 z m -0.545,0.303 c 0.143,0.129 0.153,0.351 0.023,0.493 -0.129,0.143 -0.351,0.153 -0.493,0.023 -0.143,-0.129 -0.153,-0.351 -0.023,-0.493 0.129,-0.143 0.351,-0.153 0.493,-0.023 z m 0.882,0.802 c 0.142,0.13 0.153,0.351 0.023,0.494 -0.13,0.143 -0.351,0.153 -0.494,0.023 -0.143,-0.13 -0.153,-0.351 -0.023,-0.494 0.13,-0.142 0.351,-0.153 0.494,-0.023 z"
       fill="#ffffff"
       id="path19" />
  </g>
  <path
     id="path2-3"
     style="clip-rule:evenodd;fill:#2e5c3c;fill-opacity:1;fill-rule:evenodd;stroke-linejoin:round;stroke-miterlimit:2"
     d="m 10,50.982422 v 3.398437 0.002 c 6.5e-5,0.251841 0.01244,0.501552 0.03711,0.75 v 0.002 c 0.02473,0.248442 0.06268,0.494885 0.111329,0.738281 v 0.002 c 0.04871,0.243391 0.109702,0.484016 0.18164,0.720703 v 0.002 c 0.072,0.236684 0.155456,0.468944 0.25,0.697266 v 0.002 c 0.09461,0.228323 0.199937,0.453573 0.316406,0.671875 v 0.002 c 0.116532,0.218305 0.245101,0.430096 0.382814,0.636719 v 0.002 c 0.137775,0.206628 0.287037,0.406326 0.445311,0.599609 v 0.002 c 0.158341,0.193289 0.327703,0.378358 0.505861,0.55664 v 0.002 c 0.714499,0.714 1.5571,1.271274 2.472656,1.650391 C 15.618679,61.799106 16.607187,62 17.617188,62 h 28.765624 c 1.010002,0 1.998509,-0.200473 2.914063,-0.580078 0.915555,-0.379117 1.758156,-0.936391 2.472656,-1.650391 v -0.002 C 53.197531,58.338626 54,56.400859 54,54.380859 v -3.398437 z" />
</svg>
