<?xml version="1.0" encoding="UTF-8" standalone="no"?>
<svg
   clip-rule="evenodd"
   fill-rule="evenodd"
   stroke-linejoin="round"
   stroke-miterlimit="2"
   viewBox="0 0 48 48"
   version="1.1"
   id="svg11"
   sodipodi:docname="application-x-sega-pico-rom.svg"
   inkscape:version="1.1.2 (0a00cf5339, 2022-02-04)"
   xmlns:inkscape="http://www.inkscape.org/namespaces/inkscape"
   xmlns:sodipodi="http://sodipodi.sourceforge.net/DTD/sodipodi-0.dtd"
   xmlns:xlink="http://www.w3.org/1999/xlink"
   xmlns="http://www.w3.org/2000/svg"
   xmlns:svg="http://www.w3.org/2000/svg">
  <defs
     id="defs15">
    <linearGradient
       inkscape:collect="always"
       xlink:href="#a"
       id="linearGradient3444"
       gradientUnits="userSpaceOnUse"
       gradientTransform="matrix(0,-37.21425,37.21425,0,461.415,38.515125)"
       x2="1" />
  </defs>
  <sodipodi:namedview
     id="namedview13"
     pagecolor="#ffffff"
     bordercolor="#666666"
     borderopacity="1.0"
     inkscape:pageshadow="2"
     inkscape:pageopacity="0.0"
     inkscape:pagecheckerboard="0"
     showgrid="false"
     inkscape:zoom="14.208333"
     inkscape:cx="25.935484"
     inkscape:cy="24.492669"
     inkscape:window-width="942"
     inkscape:window-height="1022"
     inkscape:window-x="966"
     inkscape:window-y="46"
     inkscape:window-maximized="1"
     inkscape:current-layer="svg11" />
  <linearGradient
     id="a"
     x2="1"
     gradientTransform="matrix(0,-37.21425,37.21425,0,461.415,38.515125)"
     gradientUnits="userSpaceOnUse">
    <stop
       stop-color="#927e34"
       offset="0"
       id="stop2" />
    <stop
       stop-color="#cdb069"
       offset="1"
       id="stop4" />
  </linearGradient>
  <path
     id="path7"
     style="stroke-width:0.75;fill:url(#linearGradient3444)"
     d="M 13.212891 1.3007812 C 11.697891 1.3007812 10.245578 1.9036094 9.1738281 2.9746094 C 8.1028281 4.0463594 7.5 5.4986719 7.5 7.0136719 L 7.5 10.072266 L 7.5 40.986328 C 7.5 42.501328 8.1028281 43.953641 9.1738281 45.025391 C 10.245578 46.096391 11.697891 46.699219 13.212891 46.699219 L 34.787109 46.699219 C 36.302109 46.699219 37.754422 46.096391 38.826172 45.025391 C 39.897172 43.953641 40.5 42.501328 40.5 40.986328 L 40.5 10.072266 L 40.5 7.0136719 C 40.5 5.4986719 39.897172 4.0463594 38.826172 2.9746094 C 37.754422 1.9036094 36.302109 1.3007812 34.787109 1.3007812 L 29.337891 1.3007812 L 18.662109 1.3007812 L 13.212891 1.3007812 z " />
  <path
     transform="matrix(.800824 0 0 .800824 5.15618 -.748763)"
     d="m18.344 20.979c-.095.006-.173.035-.231.087-.319.291.039 1.198.799 2.026.759.827 1.632 1.26 1.949.969.318-.292-.04-1.197-.798-2.024-.604-.657-1.3-1.086-1.719-1.058zm10.291.005c-.427.007-1.096.405-1.684 1.002-.786.8-1.175 1.692-.869 1.995.306.304 1.194-.1 1.982-.901.788-.8 1.177-1.694.87-1.996-.069-.068-.171-.102-.299-.1zm5.703 3.024c-.429.008-1 .176-1.553.455-1.001.505-1.655 1.226-1.463 1.611.193.386 1.163.288 2.166-.218 1.003-.507 1.657-1.23 1.461-1.614-.079-.157-.295-.24-.611-.234zm-10.297.896c-3.686.055-8.928 2.371-9.006 5.856-.088 3.943 5.966 5.042 9.457 5.09 2.963.04 6.497-1.415 7.621-3.67.245-.491-.075-1.489-.109-2.035-.025-.399.166-.795.125-1.192-.297-2.833-5.323-4.09-8.088-4.049zm-11.412.67c-.265-.008-.45.059-.531.194-.223.368.375 1.138 1.336 1.718.961.581 1.92.752 2.142.383.223-.369-.375-1.138-1.336-1.719-.574-.347-1.177-.562-1.611-.576zm11.564 2.385.957.115s-.242.536-.144.783c.15.38.589.632.986.727.286.068.757.127.871-.145.092-.217-.448-.349-.404-.582.052-.274.432-.557.695-.464.846.147 2.846.608 2.823 1.308-.09 2.725-3.514 3.813-5.639 3.774-2.141-.041-5.456-.863-5.361-2.651.07-1.337 2.195-2.579 2.904-2.568.527.008.08 1.263 1.006 1.299.474.018 1.377-.022 1.336-.494-.034-.382-1.037.168-1.133-.204-.119-.459 1.103-.898 1.103-.898zm10.578 1.889c-.976-.002-1.708.273-1.734.652-.029.43.855.84 1.975.916 1.118.076 2.048-.21 2.08-.639.031-.43-.853-.841-1.975-.918-.115-.007-.231-.011-.346-.011zm-13.38.943c-.181.004-.303.053-.328.178-.145.692 1.607 1.005 2.505 1.07 2.143.155 3.809.117 3.778-.656-.023-.561-.473-.22-3.696-.207-.639.002-1.717-.396-2.259-.385zm-9.225.965c-.068.001-.135.002-.203.006-1.121.052-2.013.443-1.994.873.019.431.944.738 2.066.685 1.121-.052 2.013-.443 1.994-.873-.017-.4-.823-.699-1.863-.691zm20.385 3.211c-.266-.01-.451.057-.533.191-.224.368.371 1.139 1.33 1.723s1.918.759 2.142.39c.224-.367-.371-1.139-1.33-1.722-.573-.349-1.175-.567-1.609-.582zm-15.969 1.035c-.435.003-1.091.295-1.699.758-.893.678-1.406 1.506-1.147 1.849.26.344 1.196.072 2.09-.607s1.408-1.509 1.147-1.852c-.075-.098-.209-.149-.391-.148zm5.141.939c-.41-.017-1.035.614-1.481 1.497-.506 1.001-.605 1.971-.221 2.166.385.194 1.108-.461 1.614-1.463.505-1.001.604-1.969.22-2.164-.039-.021-.084-.033-.132-.036zm5.781.053c-.027.003-.052.009-.076.018-.403.154-.405 1.129-.004 2.177.4 1.049 1.05 1.775 1.453 1.622.402-.154.404-1.129.004-2.178-.372-.976-.968-1.684-1.377-1.639z"
     fill="#efd211"
     fill-rule="nonzero"
     id="path9" />
  <path
     id="path1057"
     style="fill:#645624;fill-opacity:1"
     d="m 7.4998603,38.867102 v 2.11914 c 0,1.515 0.602827,2.967063 1.6738277,4.039063 0.804,0.80325 1.822139,1.342751 2.919922,1.5625 0,0 0.002,0 0.002,0 0.182349,0.03644 0.366588,0.06547 0.552735,0.08398 0,0 0.002,0 0.002,0 0.186154,0.01845 0.37378,0.02734 0.5625,0.02734 h 0.002 21.570311 c 0.568125,0 1.128064,-0.0856 1.66211,-0.248047 0.889501,-0.27074 1.708905,-0.756406 2.378906,-1.425781 C 39.897171,43.953297 40.5,42.501234 40.5,40.986234 v -2.11914 z" />
</svg>
