<?xml version="1.0" encoding="UTF-8" standalone="no"?>
<svg
   style="clip-rule:evenodd;fill-rule:evenodd;stroke-linejoin:round;stroke-miterlimit:2"
   viewBox="0 0 64 64"
   version="1.1"
   id="svg21"
   sodipodi:docname="application-font.svg"
   inkscape:version="1.1.2 (0a00cf5339, 2022-02-04)"
   xmlns:inkscape="http://www.inkscape.org/namespaces/inkscape"
   xmlns:sodipodi="http://sodipodi.sourceforge.net/DTD/sodipodi-0.dtd"
   xmlns:xlink="http://www.w3.org/1999/xlink"
   xmlns="http://www.w3.org/2000/svg"
   xmlns:svg="http://www.w3.org/2000/svg">
  <sodipodi:namedview
     id="namedview23"
     pagecolor="#ffffff"
     bordercolor="#666666"
     borderopacity="1.0"
     inkscape:pageshadow="2"
     inkscape:pageopacity="0.0"
     inkscape:pagecheckerboard="0"
     showgrid="false"
     inkscape:zoom="10.671875"
     inkscape:cx="16.679356"
     inkscape:cy="32.093704"
     inkscape:window-width="942"
     inkscape:window-height="1022"
     inkscape:window-x="966"
     inkscape:window-y="46"
     inkscape:window-maximized="1"
     inkscape:current-layer="svg21" />
  <path
     id="path2"
     style="fill:url(#linearGradient3652)"
     d="M 17.617188 1.46875 C 15.597188 1.46875 13.659469 2.2712188 12.230469 3.6992188 C 10.802469 5.1282186 10 7.0678906 10 9.0878906 L 10 16.181641 L 10 54.382812 C 10 56.402814 10.802469 58.340531 12.230469 59.769531 C 13.659469 61.197531 15.597187 62 17.617188 62 L 46.382812 62 C 48.402814 62 50.340531 61.197531 51.769531 59.769531 C 53.197531 58.340531 54 56.402814 54 54.382812 L 54 16.181641 L 54 9.0878906 C 54 7.0678906 53.197531 5.1282186 51.769531 3.6992188 C 50.340531 2.2712188 48.402813 1.46875 46.382812 1.46875 L 36.503906 1.46875 L 27.496094 1.46875 L 17.617188 1.46875 z " />
  <path
     d="m 54,50.184 v 4.198 c 0,2.02 -0.803,3.958 -2.231,5.387 C 50.34,61.197 48.402,62 46.382,62 H 17.618 C 15.598,62 13.66,61.197 12.231,59.769 10.803,58.34 10,56.402 10,54.382 v -4.198 z"
     style="clip-rule:evenodd;fill:#296f79;fill-rule:evenodd;stroke-linejoin:round;stroke-miterlimit:2;fill-opacity:1"
     id="path4-3" />
  <g
     id="g3673"
     transform="translate(0,-0.563)">
    <path
       d="m 27.327,53.639 c 0.24,0 0.443,0.036 0.606,0.107 l -0.262,0.647 c -0.087,-0.044 -0.202,-0.065 -0.344,-0.065 -0.197,0 -0.358,0.06 -0.484,0.18 -0.125,0.115 -0.188,0.284 -0.188,0.508 v 0.508 h 1.049 v 0.688 h -1.049 v 3.328 h -0.754 v -3.328 h -0.754 v -0.688 h 0.754 v -0.533 c 0,-0.409 0.131,-0.737 0.393,-0.983 0.263,-0.246 0.607,-0.369 1.033,-0.369 z"
       style="fill:#ffffff;fill-rule:nonzero"
       id="path4" />
    <path
       d="m 28.531,56.008 c 0.388,-0.41 0.882,-0.615 1.483,-0.615 0.601,0 1.096,0.205 1.484,0.615 0.388,0.404 0.581,0.912 0.581,1.524 0,0.612 -0.193,1.123 -0.581,1.533 -0.388,0.404 -0.883,0.606 -1.484,0.606 -0.601,0 -1.095,-0.202 -1.483,-0.606 -0.388,-0.41 -0.582,-0.921 -0.582,-1.533 0,-0.612 0.194,-1.12 0.582,-1.524 z m 0.557,2.581 c 0.262,0.262 0.571,0.394 0.926,0.394 0.355,0 0.661,-0.132 0.918,-0.394 0.262,-0.268 0.394,-0.62 0.394,-1.057 0,-0.437 -0.132,-0.787 -0.394,-1.049 -0.257,-0.268 -0.563,-0.402 -0.918,-0.402 -0.355,0 -0.664,0.134 -0.926,0.402 -0.257,0.262 -0.385,0.612 -0.385,1.049 0,0.437 0.128,0.789 0.385,1.057 z"
       style="fill:#ffffff;fill-rule:nonzero"
       id="path6" />
    <path
       d="m 33.414,55.524 v 0.557 h 0.032 c 0.11,-0.191 0.282,-0.352 0.517,-0.483 0.235,-0.137 0.486,-0.205 0.754,-0.205 0.497,0 0.877,0.153 1.139,0.459 0.262,0.306 0.393,0.716 0.393,1.229 v 2.459 h -0.754 v -2.344 c 0,-0.743 -0.33,-1.115 -0.991,-1.115 -0.312,0 -0.566,0.126 -0.763,0.377 -0.196,0.246 -0.295,0.533 -0.295,0.861 v 2.221 h -0.754 v -4.016 z"
       style="fill:#ffffff;fill-rule:nonzero"
       id="path8" />
    <path
       d="m 38.672,59.605 c -0.421,0 -0.743,-0.112 -0.967,-0.336 -0.219,-0.224 -0.328,-0.54 -0.328,-0.95 v -2.107 h -0.705 v -0.688 h 0.705 v -1.229 h 0.754 v 1.229 h 0.983 v 0.688 h -0.983 v 2.049 c 0,0.437 0.18,0.656 0.541,0.656 0.136,0 0.251,-0.022 0.344,-0.066 l 0.262,0.648 c -0.164,0.071 -0.366,0.106 -0.606,0.106 z"
       style="fill:#ffffff;fill-rule:nonzero"
       id="path10" />
  </g>
  <path
     d="m30.496 38.674c-2.192 0-4.032-0.632-5.521-1.896-1.461-1.265-2.192-2.936-2.192-5.016 0-2.247 0.871-4.003 2.613-5.268 1.742-1.292 3.891-1.938 6.448-1.938 2.276 0 4.145 0.421 5.606 1.264v-0.59c0-1.517-0.52-2.726-1.56-3.625-1.039-0.927-2.318-1.39-3.835-1.39-1.124 0-2.149 0.266-3.077 0.8-0.899 0.534-1.517 1.265-1.854 2.192l-3.54-1.517c0.477-1.237 1.419-2.375 2.824-3.414 1.404-1.068 3.259-1.602 5.563-1.602 2.641 0 4.832 0.773 6.574 2.318 1.742 1.546 2.613 3.723 2.613 6.533v12.475h-3.708v-2.866h-0.169c-1.545 2.36-3.807 3.54-6.785 3.54zm0.632-3.54c1.601 0 3.048-0.59 4.341-1.77 1.32-1.208 1.981-2.627 1.981-4.257-1.096-0.899-2.74-1.348-4.931-1.348-1.883 0-3.302 0.407-4.257 1.222s-1.433 1.77-1.433 2.866c0 1.011 0.435 1.812 1.306 2.402 0.872 0.59 1.869 0.885 2.993 0.885z"
     style="fill-rule:nonzero;fill:#296f79"
     id="path12" />
  <defs
     id="defs19">
    <linearGradient
       id="_Linear1"
       x2="1"
       gradientTransform="matrix(0,-49.619,49.619,0,396.55,51.088)"
       gradientUnits="userSpaceOnUse">
      <stop
         style="stop-color:#348692"
         offset="0"
         id="stop14" />
      <stop
         style="stop-color:#9cebff"
         offset="1"
         id="stop16" />
    </linearGradient>
    <linearGradient
       inkscape:collect="always"
       xlink:href="#_Linear1"
       id="linearGradient3652"
       gradientUnits="userSpaceOnUse"
       gradientTransform="matrix(0,-49.619,49.619,0,396.55,51.088)"
       x2="1" />
  </defs>
</svg>
