<?xml version="1.0" encoding="UTF-8" standalone="no"?>
<svg
   clip-rule="evenodd"
   fill-rule="evenodd"
   stroke-linejoin="round"
   stroke-miterlimit="2"
   viewBox="0 0 64 64"
   version="1.1"
   id="svg23"
   sodipodi:docname="application-certificate.svg"
   inkscape:version="1.1.2 (0a00cf5339, 2022-02-04)"
   xmlns:inkscape="http://www.inkscape.org/namespaces/inkscape"
   xmlns:sodipodi="http://sodipodi.sourceforge.net/DTD/sodipodi-0.dtd"
   xmlns:xlink="http://www.w3.org/1999/xlink"
   xmlns="http://www.w3.org/2000/svg"
   xmlns:svg="http://www.w3.org/2000/svg">
  <defs
     id="defs27">
    <linearGradient
       inkscape:collect="always"
       xlink:href="#a"
       id="linearGradient3301"
       gradientUnits="userSpaceOnUse"
       gradientTransform="matrix(0,-49.619,49.619,0,104.99,51.088)"
       x2="1" />
  </defs>
  <sodipodi:namedview
     id="namedview25"
     pagecolor="#ffffff"
     bordercolor="#666666"
     borderopacity="1.0"
     inkscape:pageshadow="2"
     inkscape:pageopacity="0.0"
     inkscape:pagecheckerboard="0"
     showgrid="false"
     inkscape:lockguides="true"
     inkscape:zoom="10.671875"
     inkscape:cx="41.417277"
     inkscape:cy="34.904832"
     inkscape:window-width="942"
     inkscape:window-height="1022"
     inkscape:window-x="966"
     inkscape:window-y="46"
     inkscape:window-maximized="1"
     inkscape:current-layer="svg23" />
  <linearGradient
     id="a"
     x2="1"
     gradientTransform="matrix(0,-49.619,49.619,0,104.99,51.088)"
     gradientUnits="userSpaceOnUse">
    <stop
       stop-color="#758b9a"
       offset="0"
       id="stop2" />
    <stop
       stop-color="#b5bdc2"
       offset="1"
       id="stop4" />
  </linearGradient>
  <path
     id="path7"
     style="fill:url(#linearGradient3301)"
     d="M 17.617188 1.46875 C 15.597188 1.46875 13.659469 2.2712188 12.230469 3.6992188 C 10.802469 5.1282186 10 7.0678906 10 9.0878906 L 10 14.919922 L 10 54.382812 C 10 56.402814 10.802469 58.340531 12.230469 59.769531 C 13.659469 61.197531 15.597187 62 17.617188 62 L 46.382812 62 C 48.402814 62 50.340531 61.197531 51.769531 59.769531 C 53.197531 58.340531 54 56.402814 54 54.382812 L 54 14.919922 L 54 9.0878906 C 54 7.0678906 53.197531 5.1282186 51.769531 3.6992188 C 50.340531 2.2712188 48.402813 1.46875 46.382812 1.46875 L 38.060547 1.46875 L 25.939453 1.46875 L 17.617188 1.46875 z " />
  <path
     id="path2-3"
     style="clip-rule:evenodd;fill:#3a4148;fill-opacity:1;fill-rule:evenodd;stroke-linejoin:round;stroke-miterlimit:2"
     d="m 9.9999994,50.982422 v 3.398437 0.002 c 6.56e-5,0.251841 0.01244,0.501552 0.03711,0.75 v 0.002 c 0.02473,0.248442 0.06268,0.494885 0.111329,0.738281 v 0.002 c 0.04871,0.243391 0.109702,0.484016 0.18164,0.720703 v 0.002 c 0.072,0.236684 0.155456,0.468944 0.25,0.697266 v 0.002 c 0.09461,0.228323 0.199937,0.453573 0.316406,0.671875 v 0.002 c 0.116532,0.218305 0.245101,0.430096 0.382813,0.636719 v 0.002 c 0.137776,0.206628 0.287038,0.406326 0.445312,0.599609 v 0.002 c 0.158341,0.193289 0.327703,0.378358 0.50586,0.55664 v 0.002 c 0.7145,0.714 1.557101,1.271274 2.472656,1.650391 C 15.618679,61.799106 16.607187,62 17.617188,62 h 28.765624 c 1.010002,0 1.998509,-0.200473 2.914063,-0.580078 0.915555,-0.379117 1.758156,-0.936391 2.472656,-1.650391 v -0.002 C 53.197531,58.338626 54,56.400859 54,54.380859 v -3.398437 z" />
  <g
     fill-rule="nonzero"
     id="g21">
    <path
       d="m26.801 59.271c-.448 0-.82-.11-1.115-.328-.289-.219-.502-.492-.639-.82l.672-.278c.213.502.576.754 1.09.754.235 0 .426-.052.574-.156.153-.104.229-.24.229-.41 0-.262-.183-.44-.549-.532l-.811-.197c-.257-.066-.5-.189-.73-.369-.229-.186-.344-.434-.344-.746 0-.355.156-.642.467-.86.317-.224.691-.336 1.123-.336.355 0 .672.082.951.246.278.158.478.388.598.688l-.656.27c-.147-.355-.453-.532-.918-.532-.224 0-.412.046-.565.139s-.229.219-.229.377c0 .23.177.385.532.467l.795.189c.377.087.656.237.836.45.18.214.271.454.271.722 0 .36-.148.661-.443.901-.295.241-.675.361-1.139.361z"
       fill="#ffffff"
       id="path9" />
    <path
       d="m29.81 54.116c-.103.104-.229.156-.377.156-.147 0-.273-.052-.377-.156-.103-.104-.155-.23-.155-.377 0-.148.052-.273.155-.377.104-.104.23-.156.377-.156.148 0 .274.052.377.156.104.104.156.229.156.377 0 .147-.052.273-.156.377zm0 5.024h-.754v-4.016h.754z"
       fill="#ffffff"
       id="path11" />
    <path
       d="m32.497 61.041c-.475 0-.863-.12-1.164-.361-.3-.235-.516-.505-.647-.811l.688-.287c.077.219.216.402.418.549.208.148.443.222.705.222.415 0 .741-.126.975-.377.241-.246.361-.582.361-1.008v-.386h-.033c-.131.197-.317.361-.557.492s-.511.197-.811.197c-.519 0-.967-.205-1.344-.615s-.566-.918-.566-1.524c0-.607.189-1.115.566-1.525.377-.409.825-.614 1.344-.614.3 0 .571.065.811.196.24.132.426.295.557.492h.033v-.557h.721v3.811c0 .688-.199 1.21-.598 1.565-.399.361-.885.541-1.459.541zm.058-2.459c.355 0 .655-.131.901-.393.251-.262.377-.615.377-1.057 0-.443-.126-.795-.377-1.057-.246-.263-.546-.394-.901-.394-.35 0-.651.134-.902.402-.251.262-.377.612-.377 1.049s.126.789.377 1.057c.251.262.552.393.902.393z"
       fill="#ffffff"
       id="path13" />
    <path
       d="m36.195 55.124v.557h.033c.109-.191.281-.352.516-.483.235-.137.486-.205.754-.205.497 0 .877.153 1.139.459s.393.715.393 1.229v2.459h-.754v-2.344c0-.743-.33-1.115-.991-1.115-.312 0-.566.126-.762.377-.197.246-.295.533-.295.861v2.221h-.754v-4.016z"
       fill="#ffffff"
       id="path15" />
    <path
       d="m33.761 20.107c-.178-.178-.464-.186-.65-.018-.962.864-6.018 5.253-11.126 6.805l-.056.017c-.132.04-.241.136-.296.264-.055.127-.052.272.009.397l.026.051c0 .001.001.002.001.002.017.037.754 1.574.85 3.741.059 1.347-.136 2.642-.579 3.851-.158.012-.313.079-.434.2-.269.269-.269.706 0 .976.27.269.707.27.976 0 .156-.156.221-.368.197-.571l4.949-4.949c.124-.124.169-.305.118-.472-.175-.575-.019-1.197.408-1.624.308-.308.717-.477 1.152-.477.436 0 .845.169 1.153.477s.477.717.477 1.153c0 .435-.169.844-.477 1.152s-.717.477-1.152.477c-.161 0-.321-.023-.473-.07-.167-.05-.348-.005-.471.118l-4.949 4.95c-.203-.025-.415.04-.571.196-.27.27-.27.707 0 .977.269.269.707.269.976 0 .121-.121.187-.276.2-.434 1.066-.391 2.201-.589 3.374-.589.147 0 .298.003.448.009 2.173.09 3.759.845 3.773.853l.051.024c.065.032.137.049.208.049.064 0 .128-.013.188-.039.127-.056.224-.164.264-.297l.017-.055c1.552-5.108 5.941-10.164 6.805-11.126.167-.187.16-.472-.018-.65z"
       fill="#3a4148"
       id="path17" />
    <path
       d="m43.165 21.559-5.489-5.489c-.089-.089-.209-.138-.334-.138-.126 0-.246.049-.334.138l-2.349 2.349c-.185.184-.185.483 0 .668l5.49 5.489c.088.089.208.139.334.139.125 0 .245-.05.334-.139l2.349-2.348c.184-.185.184-.484-.001-.669z"
       fill="#3a4148"
       id="path19" />
  </g>
</svg>
