<?xml version="1.0" encoding="UTF-8" standalone="no"?>
<svg
   style="clip-rule:evenodd;fill-rule:evenodd;stroke-linejoin:round;stroke-miterlimit:2"
   viewBox="0 0 64 64"
   version="1.1"
   id="svg23"
   sodipodi:docname="application-x-osm+xml.svg"
   inkscape:version="1.1.2 (0a00cf5339, 2022-02-04)"
   xmlns:inkscape="http://www.inkscape.org/namespaces/inkscape"
   xmlns:sodipodi="http://sodipodi.sourceforge.net/DTD/sodipodi-0.dtd"
   xmlns:xlink="http://www.w3.org/1999/xlink"
   xmlns="http://www.w3.org/2000/svg"
   xmlns:svg="http://www.w3.org/2000/svg">
  <sodipodi:namedview
     id="namedview25"
     pagecolor="#ffffff"
     bordercolor="#666666"
     borderopacity="1.0"
     inkscape:pageshadow="2"
     inkscape:pageopacity="0.0"
     inkscape:pagecheckerboard="0"
     showgrid="false"
     inkscape:zoom="10.65625"
     inkscape:cx="32"
     inkscape:cy="32"
     inkscape:window-width="1896"
     inkscape:window-height="1022"
     inkscape:window-x="12"
     inkscape:window-y="46"
     inkscape:window-maximized="1"
     inkscape:current-layer="svg23" />
  <path
     id="path2"
     style="fill:url(#linearGradient6382)"
     d="M 17.617188 1.46875 C 15.597188 1.46875 13.659469 2.2712188 12.230469 3.6992188 C 10.802469 5.1282186 10 7.0678906 10 9.0878906 L 10 12.617188 L 10 54.382812 C 10 56.402814 10.802469 58.340531 12.230469 59.769531 C 13.659469 61.197531 15.597187 62 17.617188 62 L 46.382812 62 C 48.402814 62 50.340531 61.197531 51.769531 59.769531 C 53.197531 58.340531 54 56.402814 54 54.382812 L 54 12.617188 L 54 9.0878906 C 54 7.0678906 53.197531 5.1282186 51.769531 3.6992188 C 50.340531 2.2712188 48.402813 1.46875 46.382812 1.46875 L 37.609375 1.46875 L 26.390625 1.46875 L 17.617188 1.46875 z " />
  <path
     id="path914"
     style="clip-rule:evenodd;fill:#296f79;fill-opacity:1;fill-rule:evenodd;stroke-width:1;stroke-linejoin:round;stroke-miterlimit:2"
     d="m 9.999999,50.982422 v 3.40039 c 0,2.020002 0.802469,3.957719 2.23047,5.386719 C 13.659467,61.197531 15.597184,62 17.617187,62 h 28.765625 c 2.020002,0 3.957718,-0.802469 5.386719,-2.230469 C 53.19753,58.340531 54,56.402814 54,54.382812 v -3.40039 z" />
  <path
     d="m29.753 59.44h-0.885l-0.992-1.483-0.975 1.483h-0.885l1.418-2.041-1.385-1.975h0.852l0.992 1.418 0.942-1.418h0.885l-1.401 1.975 1.434 2.041z"
     style="fill-rule:nonzero;fill:#fff"
     id="path4" />
  <path
     d="m30.283 59.44v-4.016h0.721v0.557h0.033c0.115-0.191 0.29-0.352 0.525-0.483 0.24-0.137 0.478-0.205 0.713-0.205 0.622 0 1.046 0.257 1.27 0.77 0.328-0.513 0.795-0.77 1.401-0.77 0.476 0 0.833 0.153 1.074 0.459 0.24 0.301 0.36 0.71 0.36 1.229v2.459h-0.753v-2.344c0-0.404-0.074-0.691-0.222-0.86-0.147-0.17-0.371-0.255-0.672-0.255-0.295 0-0.541 0.126-0.737 0.377-0.192 0.252-0.287 0.539-0.287 0.861v2.221h-0.754v-2.344c0-0.404-0.074-0.691-0.222-0.86-0.147-0.17-0.371-0.255-0.672-0.255-0.295 0-0.54 0.126-0.737 0.377-0.191 0.252-0.287 0.539-0.287 0.861v2.221h-0.754z"
     style="fill-rule:nonzero;fill:#fff"
     id="path6" />
  <rect
     x="37.262"
     y="53.572"
     width=".754"
     height="5.868"
     style="fill:#fff"
     id="rect8" />
  <path
     d="m26.635 31.332c-0.021-0.144-0.098-0.273-0.214-0.36l-5.883-4.399 5.883-4.4c0.116-0.086 0.193-0.216 0.214-0.359 0.02-0.144-0.017-0.289-0.104-0.405l-0.934-1.25c-0.181-0.242-0.523-0.291-0.765-0.11l-8.139 6.086c-0.138 0.103-0.219 0.266-0.219 0.438s0.081 0.334 0.219 0.437l8.139 6.087c0.098 0.073 0.213 0.109 0.327 0.109 0.166 0 0.331-0.076 0.438-0.219l0.934-1.25c0.087-0.116 0.124-0.262 0.104-0.405z"
     style="fill-rule:nonzero;fill:#296f79"
     id="path10" />
  <path
     d="m46.958 26.135l-8.139-6.086c-0.241-0.181-0.583-0.131-0.764 0.11l-0.935 1.25c-0.087 0.116-0.124 0.261-0.103 0.405 0.021 0.143 0.097 0.273 0.213 0.359l5.883 4.4-5.883 4.399c-0.116 0.087-0.192 0.217-0.213 0.36s0.016 0.289 0.103 0.405l0.935 1.25c0.107 0.143 0.271 0.219 0.438 0.219 0.113 0 0.228-0.036 0.326-0.109l8.139-6.087c0.138-0.103 0.219-0.265 0.219-0.437s-0.081-0.335-0.219-0.438z"
     style="fill-rule:nonzero;fill:#296f79"
     id="path12" />
  <path
     d="m37.048 16.8l-1.437-0.608c-0.133-0.056-0.284-0.057-0.418-3e-3s-0.241 0.16-0.298 0.293l-8.583 20.3c-0.117 0.278 0.013 0.599 0.291 0.716l1.437 0.608c0.068 0.029 0.14 0.043 0.213 0.043 0.07 0 0.139-0.013 0.205-0.04 0.134-0.055 0.241-0.16 0.298-0.293l8.583-20.3c0.117-0.278-0.013-0.599-0.291-0.716z"
     style="fill-rule:nonzero;fill:#296f79"
     id="path14" />
  <defs
     id="defs21">
    <linearGradient
       id="_Linear1"
       x2="1"
       gradientTransform="matrix(0,-49.619,49.619,0,469.44,51.088)"
       gradientUnits="userSpaceOnUse">
      <stop
         style="stop-color:#348692"
         offset="0"
         id="stop16" />
      <stop
         style="stop-color:#69b9cd"
         offset="1"
         id="stop18" />
    </linearGradient>
    <linearGradient
       inkscape:collect="always"
       xlink:href="#_Linear1"
       id="linearGradient6382"
       gradientUnits="userSpaceOnUse"
       gradientTransform="matrix(0,-49.619,49.619,0,469.44,51.088)"
       x2="1" />
  </defs>
</svg>
