<?xml version="1.0" encoding="UTF-8" standalone="no"?>
<svg
   clip-rule="evenodd"
   fill-rule="evenodd"
   stroke-linejoin="round"
   stroke-miterlimit="2"
   viewBox="0 0 64 64"
   version="1.1"
   id="svg11"
   sodipodi:docname="application-x-clementine.svg"
   inkscape:version="1.1.2 (0a00cf5339, 2022-02-04)"
   xmlns:inkscape="http://www.inkscape.org/namespaces/inkscape"
   xmlns:sodipodi="http://sodipodi.sourceforge.net/DTD/sodipodi-0.dtd"
   xmlns:xlink="http://www.w3.org/1999/xlink"
   xmlns="http://www.w3.org/2000/svg"
   xmlns:svg="http://www.w3.org/2000/svg">
  <defs
     id="defs15">
    <linearGradient
       inkscape:collect="always"
       xlink:href="#a"
       id="linearGradient949"
       gradientUnits="userSpaceOnUse"
       gradientTransform="matrix(0,-49.619,49.619,0,177.88,51.088)"
       x2="1" />
  </defs>
  <sodipodi:namedview
     id="namedview13"
     pagecolor="#ffffff"
     bordercolor="#666666"
     borderopacity="1.0"
     inkscape:pageshadow="2"
     inkscape:pageopacity="0.0"
     inkscape:pagecheckerboard="0"
     showgrid="false"
     inkscape:zoom="10.65625"
     inkscape:cx="32"
     inkscape:cy="32"
     inkscape:window-width="1896"
     inkscape:window-height="1022"
     inkscape:window-x="12"
     inkscape:window-y="46"
     inkscape:window-maximized="1"
     inkscape:current-layer="svg11" />
  <linearGradient
     id="a"
     x2="1"
     gradientTransform="matrix(0,-49.619,49.619,0,177.88,51.088)"
     gradientUnits="userSpaceOnUse">
    <stop
       stop-color="#dc6800"
       offset="0"
       id="stop2" />
    <stop
       stop-color="#eeb43f"
       offset="1"
       id="stop4" />
  </linearGradient>
  <path
     id="path7"
     style="fill:url(#linearGradient949)"
     d="M 17.617188 1.46875 C 15.597188 1.46875 13.659469 2.2712188 12.230469 3.6992188 C 10.802469 5.1282186 10 7.0678906 10 9.0878906 L 10 14.845703 L 10 54.382812 C 10 56.402814 10.802469 58.340531 12.230469 59.769531 C 13.659469 61.197531 15.597187 62 17.617188 62 L 46.382812 62 C 48.402814 62 50.340531 61.197531 51.769531 59.769531 C 53.197531 58.340531 54 56.402814 54 54.382812 L 54 14.845703 L 54 9.0878906 C 54 7.0678906 53.197531 5.1282186 51.769531 3.6992188 C 50.340531 2.2712188 48.402813 1.46875 46.382812 1.46875 L 35.394531 1.46875 L 28.605469 1.46875 L 17.617188 1.46875 z " />
  <path
     d="m 10.145,45.122583 3.246,-1.324 c -0.093,-0.181 -0.199,-0.365 -0.24,-0.576 -1.148,-0.656 -2.158,-0.584 -3.151,-0.264 v -1.135 c 1.038,0.008 2.078,0.009 3.119,-0.15 l -0.658,-1.912 1.317,0.998 c 0.184,-0.162 0.385,-0.304 0.599,-0.422 -2.863,-9.425 -3.379,-11.396 0.867,-0.334 2.937,-4.016 3.762,-15.016 3.803,-20.354 -0.294,-0.013 -0.574,-0.034 -0.869,-0.031 -3.213,0.022 -5.751,0.453 -8.178,1.713 v -3.184 c 2.602,-1.05 5.377,-1.59 8.178,-1.59 l 0.004,10e-4 c 12.243,0 22.092,10.025 22.092,22.234 -0.007,4.379 -1.299,8.659 -3.711,12.295 -0.09,0.059 -0.18,0.118 -0.27,0.176 h -3.574 c 0.182,-0.233 0.355,-0.473 0.519,-0.719 l -2.421,-1.816 c -4.43,-2.694 -8.513,-3.165 -12.875,-4.844 -0.053,0.148 -0.121,0.289 -0.206,0.42 0.366,0.81 0.887,1.233 1.313,1.881 -0.948,-0.668 -1.392,-1.095 -2.244,-1.426 -0.116,2.287 0.745,4.385 1.51,6.504 h -0.702 c -0.532,0 -1.059,-0.057 -1.573,-0.165 -0.32,-2.036 -0.366,-4.107 -0.135,-6.155 -0.263,0.032 -0.522,-0.002 -0.747,-0.022 -1.306,1.417 -1.992,2.861 -2.825,4.211 -0.034,-0.033 -0.068,-0.066 -0.102,-0.1 -0.155,-0.155 -0.302,-0.315 -0.442,-0.482 l 2.739,-3.75 c -0.269,-0.094 -0.525,-0.219 -0.717,-0.394 -1.118,0.609 -2.299,1.004 -3.494,1.414 -0.068,-0.229 -0.126,-0.462 -0.172,-0.698 z m 26.152,-9.209 h 0.002 l 0.865,0.845 c 0,0.681 -0.071,1.346 -0.183,2.033 -0.567,3.627 -1.287,7.212 -2.78,10.145 l -3.174,-1.056 c -3.619,-1.783 -9.043,-2.944 -12.902,-5.518 5.531,-3.212 12.103,-4.504 18.172,-6.449 z m -14.492,-15.934 c 7.302,1.452 13.675,7.255 15.059,14.055 l -0.33,0.424 c -0.615,1.076 -6.379,2.936 -8.471,3.604 -3.993,0.865 -6.854,2.918 -10.688,3.06 -0.225,-0.317 -0.51,-0.584 -0.84,-0.787 2.332,-4.194 1.568,-15.41 5.27,-20.355 z m -11.655,3.722 c 1.498,6.078 1.508,6.797 -0.15,2.398 v -3.002 z"
     fill="#ffffff"
     fill-opacity="0.7"
     id="path9" />
  <path
     id="path2-3"
     style="clip-rule:evenodd;fill:#893d12;fill-opacity:1;fill-rule:evenodd;stroke-linejoin:round;stroke-miterlimit:2"
     d="m 10,50.982422 v 3.398437 0.002 c 6.5e-5,0.251841 0.01244,0.501552 0.03711,0.75 v 0.002 c 0.02473,0.248442 0.06268,0.494885 0.111329,0.738281 v 0.002 c 0.04871,0.243391 0.109702,0.484016 0.18164,0.720703 v 0.002 c 0.072,0.236684 0.155456,0.468944 0.25,0.697266 v 0.002 c 0.09461,0.228323 0.199937,0.453573 0.316406,0.671875 v 0.002 c 0.116532,0.218305 0.245101,0.430096 0.382813,0.636719 v 0.002 c 0.137776,0.206628 0.287038,0.406326 0.445312,0.599609 v 0.002 c 0.158341,0.193289 0.327703,0.378358 0.50586,0.55664 v 0.002 c 0.7145,0.714 1.557101,1.271274 2.472656,1.650391 C 15.618679,61.799106 16.607187,62 17.617188,62 h 28.765624 c 1.010002,0 1.998509,-0.200473 2.914063,-0.580078 0.915555,-0.379117 1.758156,-0.936391 2.472656,-1.650391 v -0.002 C 53.197531,58.338626 54,56.400859 54,54.380859 v -3.398437 z" />
</svg>
