<?xml version="1.0" encoding="UTF-8" standalone="no"?>
<svg
   style="clip-rule:evenodd;fill-rule:evenodd;stroke-linejoin:round;stroke-miterlimit:2"
   viewBox="0 0 64 64"
   version="1.1"
   id="svg19"
   sodipodi:docname="application-x-msi.svg"
   inkscape:version="1.1.2 (0a00cf5339, 2022-02-04)"
   xmlns:inkscape="http://www.inkscape.org/namespaces/inkscape"
   xmlns:sodipodi="http://sodipodi.sourceforge.net/DTD/sodipodi-0.dtd"
   xmlns:xlink="http://www.w3.org/1999/xlink"
   xmlns="http://www.w3.org/2000/svg"
   xmlns:svg="http://www.w3.org/2000/svg">
  <sodipodi:namedview
     id="namedview21"
     pagecolor="#ffffff"
     bordercolor="#666666"
     borderopacity="1.0"
     inkscape:pageshadow="2"
     inkscape:pageopacity="0.0"
     inkscape:pagecheckerboard="0"
     showgrid="false"
     inkscape:zoom="10.65625"
     inkscape:cx="32"
     inkscape:cy="32"
     inkscape:window-width="1896"
     inkscape:window-height="1022"
     inkscape:window-x="12"
     inkscape:window-y="46"
     inkscape:window-maximized="1"
     inkscape:current-layer="svg19" />
  <path
     id="path2"
     style="fill:url(#linearGradient955)"
     d="M 17.617188 1.46875 C 15.597188 1.46875 13.659469 2.2712188 12.230469 3.6992188 C 10.802469 5.1282186 10 7.0678906 10 9.0878906 L 10 9.8300781 L 10 54.382812 C 10 56.402814 10.802469 58.340531 12.230469 59.769531 C 13.659469 61.197531 15.597187 62 17.617188 62 L 46.382812 62 C 48.402814 62 50.340531 61.197531 51.769531 59.769531 C 53.197531 58.340531 54 56.402814 54 54.382812 L 54 9.8300781 L 54 9.0878906 C 54 7.0678906 53.197531 5.1282186 51.769531 3.6992188 C 50.340531 2.2712188 48.402813 1.46875 46.382812 1.46875 L 36.921875 1.46875 L 27.078125 1.46875 L 17.617188 1.46875 z " />
  <path
     id="path914"
     style="clip-rule:evenodd;fill:#464d55;fill-opacity:1;fill-rule:evenodd;stroke-width:1;stroke-linejoin:round;stroke-miterlimit:2"
     d="m 9.999999,50.982422 v 3.40039 c 0,2.020002 0.80247,3.957719 2.23047,5.386719 C 13.659468,61.197531 15.597185,62 17.617187,62 h 28.765625 c 2.020002,0 3.957718,-0.802469 5.386719,-2.230469 C 53.19753,58.340531 54,56.402814 54,54.382812 v -3.40039 z" />
  <path
     d="m26.11 59.04v-4.016h0.721v0.557h0.033c0.115-0.191 0.29-0.352 0.524-0.483 0.241-0.137 0.479-0.205 0.714-0.205 0.622 0 1.046 0.257 1.27 0.77 0.328-0.513 0.795-0.77 1.401-0.77 0.476 0 0.833 0.153 1.074 0.459 0.24 0.3 0.36 0.71 0.36 1.229v2.459h-0.754v-2.344c0-0.404-0.073-0.691-0.221-0.861-0.147-0.169-0.371-0.254-0.672-0.254-0.295 0-0.541 0.126-0.737 0.377-0.192 0.252-0.287 0.539-0.287 0.861v2.221h-0.754v-2.344c0-0.404-0.074-0.691-0.222-0.861-0.147-0.169-0.371-0.254-0.672-0.254-0.295 0-0.54 0.126-0.737 0.377-0.191 0.252-0.287 0.539-0.287 0.861v2.221h-0.754z"
     style="fill-rule:nonzero;fill:#fff"
     id="path4" />
  <path
     d="m34.533 59.171c-0.448 0-0.82-0.109-1.115-0.328-0.29-0.218-0.503-0.492-0.639-0.819l0.672-0.279c0.213 0.503 0.576 0.754 1.09 0.754 0.235 0 0.426-0.052 0.573-0.156 0.153-0.104 0.23-0.24 0.23-0.41 0-0.262-0.183-0.439-0.549-0.532l-0.812-0.197c-0.256-0.065-0.499-0.188-0.729-0.369-0.229-0.185-0.344-0.434-0.344-0.746 0-0.355 0.156-0.641 0.467-0.86 0.317-0.224 0.691-0.336 1.123-0.336 0.355 0 0.672 0.082 0.95 0.246 0.279 0.158 0.479 0.388 0.599 0.688l-0.656 0.271c-0.147-0.355-0.453-0.533-0.918-0.533-0.224 0-0.412 0.046-0.565 0.139s-0.23 0.219-0.23 0.377c0 0.23 0.178 0.385 0.533 0.467l0.795 0.189c0.377 0.087 0.656 0.238 0.836 0.451s0.27 0.453 0.27 0.721c0 0.36-0.147 0.661-0.442 0.901-0.295 0.241-0.675 0.361-1.139 0.361z"
     style="fill-rule:nonzero;fill:#fff"
     id="path6" />
  <path
     d="m37.542 54.016c-0.104 0.104-0.229 0.156-0.377 0.156-0.147 0-0.273-0.052-0.377-0.156s-0.156-0.229-0.156-0.377c0-0.147 0.052-0.273 0.156-0.377s0.23-0.156 0.377-0.156c0.148 0 0.273 0.052 0.377 0.156s0.156 0.23 0.156 0.377c0 0.148-0.052 0.273-0.156 0.377zm0 5.024h-0.754v-4.016h0.754v4.016z"
     style="fill-rule:nonzero;fill:#fff"
     id="path8" />
  <path
     d="m21.656 26.267l-7e-3 -7.152 8.021-1.195v8.347h-8.014zm9.35-8.56l10.692-1.707v10.267h-10.692v-8.56zm10.694 10.026l-2e-3 10.267-10.692-1.65v-8.617h10.694zm-12.03 8.43l-8.014-1.205-1e-3 -7.225h8.015v8.43z"
     style="fill-rule:nonzero;fill:#464d55"
     id="path10" />
  <defs
     id="defs17">
    <linearGradient
       id="_Linear1"
       x2="1"
       gradientTransform="matrix(0,-49.619,49.619,0,104.99,51.088)"
       gradientUnits="userSpaceOnUse">
      <stop
         style="stop-color:#758b9a"
         offset="0"
         id="stop12" />
      <stop
         style="stop-color:#b5bdc2"
         offset="1"
         id="stop14" />
    </linearGradient>
    <linearGradient
       inkscape:collect="always"
       xlink:href="#_Linear1"
       id="linearGradient955"
       gradientUnits="userSpaceOnUse"
       gradientTransform="matrix(0,-49.619,49.619,0,104.99,51.088)"
       x2="1" />
  </defs>
</svg>
