<?xml version="1.0" encoding="UTF-8" standalone="no"?>
<svg
   style="clip-rule:evenodd;fill-rule:evenodd;stroke-linejoin:round;stroke-miterlimit:2"
   viewBox="0 0 64 64"
   version="1.1"
   id="svg23"
   sodipodi:docname="application-vnd.google-earth.kml.svg"
   inkscape:version="1.1.2 (0a00cf5339, 2022-02-04)"
   xmlns:inkscape="http://www.inkscape.org/namespaces/inkscape"
   xmlns:sodipodi="http://sodipodi.sourceforge.net/DTD/sodipodi-0.dtd"
   xmlns:xlink="http://www.w3.org/1999/xlink"
   xmlns="http://www.w3.org/2000/svg"
   xmlns:svg="http://www.w3.org/2000/svg">
  <sodipodi:namedview
     id="namedview25"
     pagecolor="#ffffff"
     bordercolor="#666666"
     borderopacity="1.0"
     inkscape:pageshadow="2"
     inkscape:pageopacity="0.0"
     inkscape:pagecheckerboard="0"
     showgrid="false"
     inkscape:zoom="10.671875"
     inkscape:cx="37.341142"
     inkscape:cy="32.187408"
     inkscape:window-width="945"
     inkscape:window-height="1026"
     inkscape:window-x="965"
     inkscape:window-y="44"
     inkscape:window-maximized="1"
     inkscape:current-layer="svg23" />
  <path
     id="path2"
     style="fill:url(#linearGradient3262)"
     d="M 17.617188 1.46875 C 15.597188 1.46875 13.659469 2.2712188 12.230469 3.6992188 C 10.802469 5.1282186 10 7.0678906 10 9.0878906 L 10 12.283203 L 10 54.382812 C 10 56.402814 10.802469 58.340531 12.230469 59.769531 C 13.659469 61.197531 15.597187 62 17.617188 62 L 46.382812 62 C 48.402814 62 50.340531 61.197531 51.769531 59.769531 C 53.197531 58.340531 54 56.402814 54 54.382812 L 54 12.283203 L 54 9.0878906 C 54 7.0678906 53.197531 5.1282186 51.769531 3.6992188 C 50.340531 2.2712188 48.402813 1.46875 46.382812 1.46875 L 37.287109 1.46875 L 26.712891 1.46875 L 17.617188 1.46875 z " />
  <path
     id="path914"
     style="clip-rule:evenodd;fill:#296f79;fill-opacity:1;fill-rule:evenodd;stroke-width:1;stroke-linejoin:round;stroke-miterlimit:2"
     d="m 10,50.982422 v 3.40039 c 0,2.020002 0.802469,3.957719 2.230469,5.386719 1.429,1.428 3.366717,2.230469 5.386719,2.230469 h 28.765624 c 2.020002,0 3.957719,-0.802469 5.386719,-2.230469 C 53.197531,58.340531 54,56.402814 54,54.382812 v -3.40039 z" />
  <path
     d="m32.44 22.747c-3.08-2.915-5.61-2.101-6.699-1.606 0.825-0.792 1.793-1.43 2.871-1.87 3.058-0.11 6.501 0.484 8.404 3.201 0 0 2.684 4.609 3.63 2.574 0.242 0.825 0.374 1.683 0.374 2.585 0 0.33-0.022 0.649-0.055 0.968-2.233-0.253-5.302-2.816-8.525-5.852m7.37 9.394c-1.034 0.407-2.31 1.1-4.356 1.1-2.068 0-3.883-0.825-6.138-1.54-2.046-0.649-2.816-1.65-4.224-1.65-0.726 0-1.089 0.726-1.287 1.331-0.528-1.144-0.825-2.409-0.825-3.751 0-0.891 0.132-1.738 0.374-2.552 1.386-1.738 3.509-2.816 6.545-0.462 0 0 6.853 5.126 10.769 5.467-0.198 0.726-0.495 1.397-0.858 2.057m-7.81 4.51c-1.232 0-2.409-0.253-3.487-0.704-0.682-1.628-0.671-2.904 1.232-2.266 0 0 4.312 1.65 8.855 0.088-1.65 1.771-3.993 2.882-6.6 2.882m0-20.02c-6.034 0-11 4.966-11 11s4.966 11 11 11 11-4.966 11-11c0-6.083-4.95-11-11-11z"
     style="fill-rule:nonzero;fill:#296f79"
     id="path4" />
  <path
     d="m25.217 59.809c-0.565 0-1.025-0.185-1.38-0.555-0.355-0.373-0.532-0.87-0.532-1.492v-0.131c0-0.414 0.078-0.783 0.235-1.107 0.159-0.326 0.38-0.581 0.663-0.763 0.285-0.185 0.594-0.278 0.926-0.278 0.542 0 0.964 0.179 1.264 0.536 0.301 0.357 0.451 0.869 0.451 1.535v0.297h-2.826c0.01 0.411 0.13 0.744 0.359 0.998 0.231 0.252 0.524 0.378 0.879 0.378 0.252 0 0.465-0.051 0.64-0.154s0.328-0.239 0.459-0.409l0.435 0.34c-0.349 0.537-0.874 0.805-1.573 0.805zm-0.088-3.74c-0.288 0-0.53 0.105-0.725 0.316-0.196 0.209-0.317 0.502-0.363 0.879h2.09v-0.054c-0.02-0.362-0.118-0.642-0.293-0.84-0.175-0.201-0.411-0.301-0.709-0.301z"
     style="fill-rule:nonzero;fill:#fff"
     id="path6" />
  <path
     d="m30.242 59.732c-0.041-0.082-0.075-0.228-0.101-0.439-0.331 0.344-0.727 0.516-1.187 0.516-0.412 0-0.75-0.115-1.014-0.347-0.263-0.234-0.394-0.529-0.394-0.886 0-0.435 0.165-0.772 0.494-1.011 0.331-0.241 0.797-0.362 1.396-0.362h0.694v-0.328c0-0.249-0.075-0.447-0.224-0.594-0.149-0.149-0.369-0.223-0.659-0.223-0.255 0-0.468 0.064-0.64 0.192-0.173 0.129-0.259 0.284-0.259 0.467h-0.717c0-0.208 0.073-0.409 0.22-0.602 0.149-0.195 0.35-0.349 0.601-0.462 0.255-0.113 0.534-0.17 0.837-0.17 0.481 0 0.858 0.121 1.13 0.362 0.273 0.24 0.414 0.57 0.424 0.991v1.921c0 0.383 0.049 0.687 0.147 0.914v0.061h-0.748zm-1.184-0.543c0.223 0 0.436-0.058 0.636-0.174 0.201-0.116 0.346-0.266 0.436-0.451v-0.856h-0.559c-0.874 0-1.311 0.256-1.311 0.767 0 0.224 0.074 0.399 0.223 0.525s0.341 0.189 0.575 0.189z"
     style="fill-rule:nonzero;fill:#fff"
     id="path8" />
  <path
     d="m33.986 56.2c-0.108-0.018-0.225-0.027-0.351-0.027-0.468 0-0.785 0.199-0.952 0.598v2.961h-0.714v-4.172h0.694l0.012 0.482c0.234-0.373 0.565-0.559 0.995-0.559 0.138 0 0.244 0.018 0.316 0.054v0.663z"
     style="fill-rule:nonzero;fill:#fff"
     id="path10" />
  <path
     d="m35.806 54.55v1.01h0.779v0.552h-0.779v2.587c0 0.167 0.035 0.293 0.104 0.378 0.069 0.082 0.188 0.123 0.355 0.123 0.082 0 0.195-0.015 0.339-0.046v0.578c-0.188 0.052-0.37 0.077-0.547 0.077-0.319 0-0.56-0.096-0.722-0.289-0.161-0.193-0.242-0.466-0.242-0.821v-2.587h-0.76v-0.552h0.76v-1.01h0.713z"
     style="fill-rule:nonzero;fill:#fff"
     id="path12" />
  <path
     d="m38.127 56.065c0.316-0.388 0.728-0.582 1.234-0.582 0.882 0 1.327 0.497 1.334 1.492v2.757h-0.713v-2.761c-3e-3 -0.3-0.072-0.523-0.208-0.667-0.134-0.144-0.343-0.216-0.629-0.216-0.231 0-0.434 0.062-0.609 0.185-0.175 0.124-0.311 0.286-0.409 0.486v2.973h-0.713v-5.923h0.713v2.256z"
     style="fill-rule:nonzero;fill:#fff"
     id="path14" />
  <defs
     id="defs21">
    <linearGradient
       id="_Linear1"
       x2="1"
       gradientTransform="matrix(0,-49.619,49.619,0,469.44,51.088)"
       gradientUnits="userSpaceOnUse">
      <stop
         style="stop-color:#348692"
         offset="0"
         id="stop16" />
      <stop
         style="stop-color:#69b9cd"
         offset="1"
         id="stop18" />
    </linearGradient>
    <linearGradient
       inkscape:collect="always"
       xlink:href="#_Linear1"
       id="linearGradient3262"
       gradientUnits="userSpaceOnUse"
       gradientTransform="matrix(0,-49.619,49.619,0,469.44,51.088)"
       x2="1" />
  </defs>
</svg>
