<?xml version="1.0" encoding="UTF-8" standalone="no"?>
<svg
   clip-rule="evenodd"
   fill-rule="evenodd"
   stroke-linejoin="round"
   stroke-miterlimit="2"
   viewBox="0 0 64 64"
   version="1.1"
   id="svg13"
   sodipodi:docname="application-vnd.oasis.opendocument.spreadsheet.svg"
   inkscape:version="1.1.2 (0a00cf5339, 2022-02-04)"
   xmlns:inkscape="http://www.inkscape.org/namespaces/inkscape"
   xmlns:sodipodi="http://sodipodi.sourceforge.net/DTD/sodipodi-0.dtd"
   xmlns:xlink="http://www.w3.org/1999/xlink"
   xmlns="http://www.w3.org/2000/svg"
   xmlns:svg="http://www.w3.org/2000/svg">
  <defs
     id="defs17">
    <linearGradient
       inkscape:collect="always"
       xlink:href="#a"
       id="linearGradient2240"
       gradientUnits="userSpaceOnUse"
       gradientTransform="matrix(0,-49.619,49.619,0,323.66,51.088)"
       x2="1" />
  </defs>
  <sodipodi:namedview
     id="namedview15"
     pagecolor="#ffffff"
     bordercolor="#666666"
     borderopacity="1.0"
     inkscape:pageshadow="2"
     inkscape:pageopacity="0.0"
     inkscape:pagecheckerboard="0"
     showgrid="false"
     inkscape:zoom="10.671875"
     inkscape:cx="32.937042"
     inkscape:cy="33.967789"
     inkscape:window-width="945"
     inkscape:window-height="1026"
     inkscape:window-x="965"
     inkscape:window-y="44"
     inkscape:window-maximized="1"
     inkscape:current-layer="svg13" />
  <linearGradient
     id="a"
     x2="1"
     gradientTransform="matrix(0,-49.619,49.619,0,323.66,51.088)"
     gradientUnits="userSpaceOnUse">
    <stop
       stop-color="#5fad74"
       offset="0"
       id="stop2" />
    <stop
       stop-color="#c1e4a8"
       offset="1"
       id="stop4" />
  </linearGradient>
  <path
     id="path7"
     style="fill:url(#linearGradient2240)"
     d="M 17.617188 1.46875 C 15.597188 1.46875 13.659469 2.2712188 12.230469 3.6992188 C 10.802469 5.1282186 10 7.0678906 10 9.0878906 L 10 13.757812 L 10 54.382812 C 10 56.402814 10.802469 58.340531 12.230469 59.769531 C 13.659469 61.197531 15.597187 62 17.617188 62 L 46.382812 62 C 48.402814 62 50.340531 61.197531 51.769531 59.769531 C 53.197531 58.340531 54 56.402814 54 54.382812 L 54 13.757812 L 54 9.0878906 C 54 7.0678906 53.197531 5.1282186 51.769531 3.6992188 C 50.340531 2.2712188 48.402813 1.46875 46.382812 1.46875 L 39.398438 1.46875 L 24.601562 1.46875 L 17.617188 1.46875 z " />
  <path
     id="path914"
     style="clip-rule:evenodd;fill:#378753;fill-opacity:1;fill-rule:evenodd;stroke-width:1;stroke-linejoin:round;stroke-miterlimit:2"
     d="m 10,50.982422 v 3.40039 c 0,2.020002 0.802469,3.957719 2.230469,5.386719 1.429,1.428 3.366717,2.230469 5.386719,2.230469 h 28.765624 c 2.020002,0 3.957719,-0.802469 5.386719,-2.230469 C 53.197531,58.340531 54,56.402814 54,54.382812 v -3.40039 z" />
  <path
     d="m34.791 59.271c-.448 0-.819-.109-1.114-.328-.29-.218-.503-.492-.64-.819l.673-.279c.213.503.576.754 1.09.754.234 0 .426-.052.573-.156.153-.104.23-.24.23-.41 0-.262-.183-.439-.549-.532l-.812-.197c-.257-.066-.5-.188-.729-.369-.23-.186-.344-.434-.344-.746 0-.355.155-.642.467-.86.317-.224.691-.336 1.123-.336.355 0 .672.082.95.246.279.158.478.388.598.688l-.655.271c-.148-.356-.454-.533-.918-.533-.224 0-.413.046-.566.139s-.229.219-.229.377c0 .23.178.385.533.467l.795.189c.377.087.655.238.836.451.18.213.27.453.27.721 0 .36-.147.661-.443.901-.295.241-.674.361-1.139.361zm-6.49-.131h-.885l1.418-2.041-1.385-1.975h.852l.992 1.418.942-1.418h.885l-1.401 1.975 1.434 2.041h-.885l-.992-1.484zm4.136-5.868v5.868h-.754v-5.868z"
     fill="#ffffff"
     fill-rule="nonzero"
     id="path9" />
  <path
     d="m41.094 38.04c-.065.45-.303.66-.981.66l-8.587-1.003h-9.066c-1.067 0-1.522.023-1.453-1.069v-19.122c0-.994.445-1.096 1.543-1.014l8.882-.001 8.609-.807c.721-.055.98.062 1.072.451h.716c.391-.041.638-.01.796.087.139.085.242.214.301.425.049.179.064.451.064.853v19.116c.015.358.009.607-.022.78-.033.183-.096.309-.177.4-.093.106-.212.175-.374.211-.138.031-.324.033-.571.033zm.01-.7h.742c.133 0 .244.001.336-.005.027-.002.062-.009.083-.013.007-.027.02-.08.024-.125.014-.137.011-.319.001-.568v-19.129c0-.232-.003-.412-.018-.55-.006-.048-.019-.103-.027-.131-.014-.002-.034-.005-.049-.005-.083-.004-.186.005-.312.019l-.019.002h-.702v.056l-.072 20.227c.005.077.009.151.013.222zm-7.338-14.702.009 9.685 2.737-.001-.009-9.685zm-7.857 5.027.009 4.656h2.737l-.009-4.657zm3.856-2.532.009 7.171 2.736-.001-.008-7.171z"
     fill="#378753"
     id="path11" />
</svg>
