<?xml version="1.0" encoding="UTF-8" standalone="no"?>
<svg
   style="clip-rule:evenodd;fill-rule:evenodd"
   viewBox="0 0 64 64"
   version="1.1"
   id="svg31"
   sodipodi:docname="application-presentation.svg"
   inkscape:version="1.1.2 (0a00cf5339, 2022-02-04)"
   xmlns:inkscape="http://www.inkscape.org/namespaces/inkscape"
   xmlns:sodipodi="http://sodipodi.sourceforge.net/DTD/sodipodi-0.dtd"
   xmlns:xlink="http://www.w3.org/1999/xlink"
   xmlns="http://www.w3.org/2000/svg"
   xmlns:svg="http://www.w3.org/2000/svg">
  <sodipodi:namedview
     id="namedview33"
     pagecolor="#ffffff"
     bordercolor="#666666"
     borderopacity="1.0"
     inkscape:pageshadow="2"
     inkscape:pageopacity="0.0"
     inkscape:pagecheckerboard="0"
     showgrid="false"
     inkscape:zoom="10.671875"
     inkscape:cx="35.09224"
     inkscape:cy="32"
     inkscape:window-width="945"
     inkscape:window-height="1026"
     inkscape:window-x="965"
     inkscape:window-y="44"
     inkscape:window-maximized="1"
     inkscape:current-layer="svg31" />
  <path
     id="path2"
     style="fill:url(#linearGradient3504)"
     d="M 17.617188 1.46875 C 15.597188 1.46875 13.659469 2.2712188 12.230469 3.6992188 C 10.802469 5.1282186 10 7.0678906 10 9.0878906 L 10 13.916016 L 10 54.382812 C 10 56.402814 10.802469 58.340531 12.230469 59.769531 C 13.659469 61.197531 15.597187 62 17.617188 62 L 46.382812 62 C 48.402814 62 50.340531 61.197531 51.769531 59.769531 C 53.197531 58.340531 54 56.402814 54 54.382812 L 54 13.916016 L 54 9.0878906 C 54 7.0678906 53.197531 5.1282186 51.769531 3.6992188 C 50.340531 2.2712188 48.402813 1.46875 46.382812 1.46875 L 37.878906 1.46875 L 26.121094 1.46875 L 17.617188 1.46875 z " />
  <path
     id="path914"
     style="clip-rule:evenodd;fill:#622110;fill-opacity:1;fill-rule:evenodd;stroke-width:1;stroke-linejoin:round;stroke-miterlimit:2"
     d="m 9.9999999,50.982422 v 3.40039 c 0,2.020002 0.8024691,3.957719 2.2304691,5.386719 1.429,1.428 3.366717,2.230469 5.386719,2.230469 h 28.765624 c 2.020002,0 3.957719,-0.802469 5.386719,-2.230469 C 53.197531,58.340531 54,56.402814 54,54.382812 v -3.40039 z" />
  <path
     d="m28.3 58.671c-0.306 0-0.582-0.066-0.828-0.197-0.241-0.131-0.421-0.295-0.541-0.492h-0.033l0.033 0.558v1.77h-0.754v-5.786h0.721v0.557h0.033c0.12-0.196 0.3-0.36 0.541-0.491 0.246-0.132 0.522-0.197 0.828-0.197 0.519 0 0.967 0.205 1.344 0.615 0.377 0.409 0.565 0.917 0.565 1.524 0 0.606-0.188 1.114-0.565 1.524s-0.825 0.615-1.344 0.615zm-0.123-0.689c0.349 0 0.65-0.131 0.901-0.393 0.252-0.268 0.377-0.62 0.377-1.057s-0.125-0.787-0.377-1.049c-0.251-0.268-0.552-0.402-0.901-0.402-0.355 0-0.659 0.131-0.91 0.394-0.246 0.262-0.369 0.614-0.369 1.057 0 0.442 0.123 0.795 0.369 1.057 0.251 0.262 0.555 0.393 0.91 0.393z"
     style="fill-rule:nonzero;fill:#fff"
     id="path4" />
  <path
     d="m32.91 58.671c-0.306 0-0.582-0.066-0.828-0.197-0.241-0.131-0.421-0.295-0.541-0.492h-0.033l0.033 0.558v1.77h-0.754v-5.786h0.721v0.557h0.033c0.12-0.196 0.3-0.36 0.541-0.491 0.246-0.132 0.522-0.197 0.828-0.197 0.519 0 0.967 0.205 1.344 0.615 0.377 0.409 0.565 0.917 0.565 1.524 0 0.606-0.188 1.114-0.565 1.524s-0.825 0.615-1.344 0.615zm-0.123-0.689c0.349 0 0.65-0.131 0.901-0.393 0.252-0.268 0.377-0.62 0.377-1.057s-0.125-0.787-0.377-1.049c-0.251-0.268-0.552-0.402-0.901-0.402-0.355 0-0.659 0.131-0.91 0.394-0.246 0.262-0.369 0.614-0.369 1.057 0 0.442 0.123 0.795 0.369 1.057 0.251 0.262 0.555 0.393 0.91 0.393z"
     style="fill-rule:nonzero;fill:#fff"
     id="path6" />
  <path
     d="m37.087 58.605c-0.421 0-0.743-0.112-0.967-0.336-0.218-0.224-0.328-0.541-0.328-0.95v-2.107h-0.705v-0.688h0.705v-1.229h0.754v1.229h0.984v0.688h-0.984v2.049c0 0.437 0.181 0.656 0.541 0.656 0.137 0 0.251-0.022 0.344-0.066l0.263 0.648c-0.164 0.071-0.366 0.106-0.607 0.106z"
     style="fill-rule:nonzero;fill:#fff"
     id="path8" />
  <path
     d="m22.46 37.697h10.073v-21.206l-9.983 1e-3c-1.098-0.082-1.543 0.02-1.543 1.014v19.122c-0.069 1.092 0.386 1.069 1.453 1.069z"
     style="fill:#622110"
     id="path10" />
  <path
     d="m41.846 37.69h-4.572l-2.344-1.968v-17.269l1.606-1.968h5.31c0.735-0.081 0.794 0.02 0.794 1.015v19.122c0.046 1.091-0.079 1.068-0.794 1.068z"
     style="fill:none;stroke-width:.7px;stroke:#622110"
     id="path12" />
  <path
     d="m40.113 38.7l-8.681-1.014v-21.195l8.609-0.807c1.065-0.081 1.122 0.212 1.122 1.207l-0.072 20.227c0.067 1.092 0.058 1.582-0.978 1.582z"
     style="fill:#622110"
     id="path14" />
  <path
     d="m27.782 23.424c1.927 0 3.49 1.56 3.49 3.488h-3.49v-3.488zm-0.982 0.948v3.491h3.491c0 1.93-1.562 3.491-3.491 3.491-1.928 0-3.489-1.561-3.489-3.491 0-1.928 1.562-3.491 3.489-3.491z"
     style="fill-rule:nonzero;fill:#ee5932"
     id="path16" />
  <rect
     x="32.487"
     y="25.304"
     width="6.349"
     height="1.19"
     style="fill:#ee5932"
     id="rect18" />
  <rect
     x="32.493"
     y="27.37"
     width="6.349"
     height="1.19"
     style="fill:#ee5932"
     id="rect20" />
  <rect
     x="32.503"
     y="29.287"
     width="6.349"
     height="1.19"
     style="fill:#ee5932"
     id="rect22" />
  <defs
     id="defs29">
    <linearGradient
       id="_Linear1"
       x2="1"
       gradientTransform="matrix(0,-49.619,49.619,0,104.99,51.088)"
       gradientUnits="userSpaceOnUse">
      <stop
         style="stop-color:#ba3a17"
         offset="0"
         id="stop24" />
      <stop
         style="stop-color:#fd6842"
         offset="1"
         id="stop26" />
    </linearGradient>
    <linearGradient
       inkscape:collect="always"
       xlink:href="#_Linear1"
       id="linearGradient3504"
       gradientUnits="userSpaceOnUse"
       gradientTransform="matrix(0,-49.619,49.619,0,104.99,51.088)"
       x2="1" />
  </defs>
</svg>
