<?xml version="1.0" encoding="UTF-8" standalone="no"?>
<svg
   style="clip-rule:evenodd;fill-rule:evenodd;stroke-linejoin:round;stroke-miterlimit:2"
   viewBox="0 0 64 64"
   version="1.1"
   id="svg25"
   sodipodi:docname="application-x-glade.svg"
   inkscape:version="1.1.2 (0a00cf5339, 2022-02-04)"
   xmlns:inkscape="http://www.inkscape.org/namespaces/inkscape"
   xmlns:sodipodi="http://sodipodi.sourceforge.net/DTD/sodipodi-0.dtd"
   xmlns:xlink="http://www.w3.org/1999/xlink"
   xmlns="http://www.w3.org/2000/svg"
   xmlns:svg="http://www.w3.org/2000/svg">
  <sodipodi:namedview
     id="namedview27"
     pagecolor="#ffffff"
     bordercolor="#666666"
     borderopacity="1.0"
     inkscape:pageshadow="2"
     inkscape:pageopacity="0.0"
     inkscape:pagecheckerboard="0"
     showgrid="false"
     inkscape:zoom="10.65625"
     inkscape:cx="32"
     inkscape:cy="32"
     inkscape:window-width="1896"
     inkscape:window-height="1022"
     inkscape:window-x="12"
     inkscape:window-y="46"
     inkscape:window-maximized="1"
     inkscape:current-layer="svg25" />
  <path
     id="path2"
     style="fill:url(#linearGradient6072)"
     d="M 17.617188 1.46875 C 15.597188 1.46875 13.659469 2.2712188 12.230469 3.6992188 C 10.802469 5.1282186 10 7.0678906 10 9.0878906 L 10 11.925781 L 10 54.382812 C 10 56.402814 10.802469 58.340531 12.230469 59.769531 C 13.659469 61.197531 15.597187 62 17.617188 62 L 46.382812 62 C 48.402814 62 50.340531 61.197531 51.769531 59.769531 C 53.197531 58.340531 54 56.402814 54 54.382812 L 54 11.925781 L 54 9.0878906 C 54 7.0678906 53.197531 5.1282186 51.769531 3.6992188 C 50.340531 2.2712188 48.402813 1.46875 46.382812 1.46875 L 36.640625 1.46875 L 27.359375 1.46875 L 17.617188 1.46875 z " />
  <path
     id="path2-3"
     style="clip-rule:evenodd;fill:#296f79;fill-opacity:1;fill-rule:evenodd;stroke-linejoin:round;stroke-miterlimit:2"
     d="m 10,50.982422 v 3.398437 0.002 c 6.5e-5,0.251841 0.01244,0.501552 0.03711,0.75 v 0.002 c 0.02473,0.248442 0.06268,0.494885 0.111329,0.738281 v 0.002 c 0.04871,0.243391 0.109702,0.484016 0.18164,0.720703 v 0.002 c 0.072,0.236684 0.155456,0.468944 0.25,0.697266 v 0.002 c 0.09461,0.228323 0.199937,0.453573 0.316406,0.671875 v 0.002 c 0.116532,0.218305 0.245101,0.430096 0.382814,0.636719 v 0.002 c 0.137775,0.206628 0.287037,0.406326 0.445311,0.599609 v 0.002 c 0.158341,0.193289 0.327703,0.378358 0.505861,0.55664 v 0.002 c 0.714499,0.714 1.5571,1.271274 2.472656,1.650391 C 15.618679,61.799106 16.607187,62 17.617188,62 h 28.765624 c 1.010002,0 1.998509,-0.200473 2.914063,-0.580078 0.915555,-0.379117 1.758156,-0.936391 2.472656,-1.650391 v -0.002 C 53.197531,58.338626 54,56.400859 54,54.380859 v -3.398437 z" />
  <path
     d="m22.39 59.071c-0.519 0-0.968-0.205-1.345-0.615s-0.565-0.918-0.565-1.524c0-0.607 0.188-1.115 0.565-1.525 0.377-0.409 0.826-0.614 1.345-0.614 0.306 0 0.579 0.065 0.819 0.196 0.246 0.132 0.429 0.295 0.549 0.492h0.033l-0.033-0.557v-1.852h0.754v5.868h-0.721v-0.558h-0.033c-0.12 0.197-0.303 0.361-0.549 0.492-0.24 0.131-0.513 0.197-0.819 0.197zm0.122-0.689c0.356 0 0.656-0.131 0.902-0.393 0.251-0.262 0.377-0.615 0.377-1.057 0-0.443-0.126-0.795-0.377-1.057-0.246-0.263-0.546-0.394-0.902-0.394-0.349 0-0.65 0.134-0.901 0.402-0.251 0.262-0.377 0.612-0.377 1.049s0.126 0.789 0.377 1.057c0.251 0.262 0.552 0.393 0.901 0.393z"
     style="fill-rule:nonzero;fill:#fff"
     id="path4" />
  <path
     d="m27.203 59.071c-0.607 0-1.101-0.202-1.484-0.607-0.377-0.404-0.565-0.915-0.565-1.532 0-0.585 0.183-1.088 0.549-1.508 0.372-0.421 0.844-0.631 1.418-0.631 0.595 0 1.071 0.194 1.426 0.582 0.361 0.388 0.541 0.907 0.541 1.557l-8e-3 0.139h-3.172c0.022 0.404 0.156 0.724 0.402 0.959 0.251 0.235 0.543 0.352 0.876 0.352 0.541 0 0.907-0.229 1.099-0.688l0.672 0.279c-0.131 0.311-0.347 0.573-0.648 0.786-0.3 0.208-0.669 0.312-1.106 0.312zm1.082-2.623c-0.017-0.229-0.123-0.448-0.32-0.655-0.191-0.208-0.478-0.312-0.86-0.312-0.279 0-0.522 0.088-0.73 0.262-0.202 0.175-0.341 0.41-0.418 0.705h2.328z"
     style="fill-rule:nonzero;fill:#fff"
     id="path6" />
  <path
     d="m31.309 59.071c-0.448 0-0.82-0.11-1.115-0.328-0.289-0.219-0.502-0.492-0.639-0.82l0.672-0.278c0.213 0.502 0.577 0.754 1.09 0.754 0.235 0 0.426-0.052 0.574-0.156 0.153-0.104 0.229-0.24 0.229-0.41 0-0.262-0.183-0.44-0.549-0.532l-0.811-0.197c-0.257-0.066-0.5-0.189-0.73-0.369-0.229-0.186-0.344-0.434-0.344-0.746 0-0.355 0.156-0.642 0.467-0.86 0.317-0.224 0.692-0.336 1.123-0.336 0.355 0 0.672 0.082 0.951 0.246 0.278 0.158 0.478 0.388 0.598 0.688l-0.656 0.27c-0.147-0.355-0.453-0.532-0.917-0.532-0.224 0-0.413 0.046-0.566 0.139s-0.229 0.219-0.229 0.377c0 0.23 0.177 0.385 0.532 0.467l0.795 0.189c0.377 0.087 0.656 0.237 0.836 0.45 0.181 0.214 0.271 0.454 0.271 0.722 0 0.36-0.148 0.661-0.443 0.901-0.295 0.241-0.675 0.361-1.139 0.361z"
     style="fill-rule:nonzero;fill:#fff"
     id="path8" />
  <path
     d="m34.318 53.916c-0.103 0.104-0.229 0.156-0.377 0.156-0.147 0-0.273-0.052-0.377-0.156-0.103-0.104-0.155-0.23-0.155-0.377 0-0.148 0.052-0.273 0.155-0.377 0.104-0.104 0.23-0.156 0.377-0.156 0.148 0 0.274 0.052 0.377 0.156 0.104 0.104 0.156 0.229 0.156 0.377 0 0.147-0.052 0.273-0.156 0.377zm0 5.024h-0.754v-4.016h0.754v4.016z"
     style="fill-rule:nonzero;fill:#fff"
     id="path10" />
  <path
     d="m37.005 60.841c-0.475 0-0.863-0.12-1.163-0.361-0.301-0.235-0.517-0.505-0.648-0.811l0.689-0.287c0.076 0.219 0.215 0.402 0.418 0.549 0.207 0.148 0.442 0.222 0.704 0.222 0.416 0 0.741-0.126 0.976-0.377 0.24-0.246 0.36-0.582 0.36-1.008v-0.386h-0.033c-0.131 0.197-0.316 0.361-0.557 0.492-0.24 0.131-0.511 0.197-0.811 0.197-0.519 0-0.967-0.205-1.344-0.615s-0.566-0.918-0.566-1.524c0-0.607 0.189-1.115 0.566-1.525 0.377-0.409 0.825-0.614 1.344-0.614 0.3 0 0.571 0.065 0.811 0.196 0.241 0.132 0.426 0.295 0.557 0.492h0.033v-0.557h0.721v3.811c0 0.688-0.199 1.21-0.598 1.565-0.399 0.361-0.885 0.541-1.459 0.541zm0.058-2.459c0.355 0 0.655-0.131 0.901-0.393 0.252-0.262 0.377-0.615 0.377-1.057 0-0.443-0.125-0.795-0.377-1.057-0.246-0.263-0.546-0.394-0.901-0.394-0.35 0-0.65 0.134-0.902 0.402-0.251 0.262-0.377 0.612-0.377 1.049s0.126 0.789 0.377 1.057c0.252 0.262 0.552 0.393 0.902 0.393z"
     style="fill-rule:nonzero;fill:#fff"
     id="path12" />
  <path
     d="m40.703 54.924v0.557h0.033c0.109-0.191 0.281-0.352 0.516-0.483 0.235-0.137 0.486-0.205 0.754-0.205 0.497 0 0.877 0.153 1.139 0.459s0.394 0.715 0.394 1.229v2.459h-0.754v-2.344c0-0.743-0.331-1.115-0.992-1.115-0.312 0-0.566 0.126-0.762 0.377-0.197 0.246-0.295 0.533-0.295 0.861v2.221h-0.754v-4.016h0.721z"
     style="fill-rule:nonzero;fill:#fff"
     id="path14" />
  <path
     d="m32.05 26.621c0.955 0 0.596 1.129 0 1.392-1.001 0.442-2.026-0.432-2.235-1.392-0.317-1.449 0.846-2.767 2.235-2.971 1.814-0.267 3.412 1.198 3.606 2.971 0.236 2.163-1.501 4.04-3.606 4.226-2.469 0.218-4.593-1.791-4.77-4.226-0.203-2.781 2.046-5.16 4.77-5.331 3.051-0.193 5.652 2.306 5.817 5.331 0.183 3.34-2.533 6.179-5.817 6.34-3.587 0.176-6.63-2.775-6.786-6.34-0.169-3.86 2.982-7.13 6.786-7.282 4.088-0.165 7.547 3.21 7.695 7.282 0.159 4.35-3.401 8.026-7.695 8.171-4.564 0.155-8.417-3.62-8.56-8.171-0.15-4.817 3.8-8.88 8.56-9.02 5.018-0.148 9.248 4.011 9.385 9.02 0.144 5.263-4.18 9.698-9.385 9.833-5.455 0.142-10.048-4.385-10.18-9.833-0.139-5.695 4.544-10.487 10.18-10.618 5.875-0.137 10.819 4.745 10.947 10.618 0.134 6.11-4.897 11.249-10.947 11.377-4.92 0.103-9.439-3.11-11.05-7.77"
     style="fill:#296f79"
     id="path16" />
  <defs
     id="defs23">
    <linearGradient
       id="_Linear1"
       x2="1"
       gradientTransform="matrix(0,-49.619,49.619,0,469.44,51.088)"
       gradientUnits="userSpaceOnUse">
      <stop
         style="stop-color:#348692"
         offset="0"
         id="stop18" />
      <stop
         style="stop-color:#69b9cd"
         offset="1"
         id="stop20" />
    </linearGradient>
    <linearGradient
       inkscape:collect="always"
       xlink:href="#_Linear1"
       id="linearGradient6072"
       gradientUnits="userSpaceOnUse"
       gradientTransform="matrix(0,-49.619,49.619,0,469.44,51.088)"
       x2="1" />
  </defs>
</svg>
