<?xml version="1.0" encoding="UTF-8" standalone="no"?>
<svg
   style="clip-rule:evenodd;fill-rule:evenodd;stroke-linejoin:round;stroke-miterlimit:2"
   viewBox="0 0 64 64"
   version="1.1"
   id="svg21"
   sodipodi:docname="text-x-script.svg"
   inkscape:version="1.1.2 (0a00cf5339, 2022-02-04)"
   xmlns:inkscape="http://www.inkscape.org/namespaces/inkscape"
   xmlns:sodipodi="http://sodipodi.sourceforge.net/DTD/sodipodi-0.dtd"
   xmlns:xlink="http://www.w3.org/1999/xlink"
   xmlns="http://www.w3.org/2000/svg"
   xmlns:svg="http://www.w3.org/2000/svg">
  <sodipodi:namedview
     id="namedview23"
     pagecolor="#ffffff"
     bordercolor="#666666"
     borderopacity="1.0"
     inkscape:pageshadow="2"
     inkscape:pageopacity="0.0"
     inkscape:pagecheckerboard="0"
     showgrid="false"
     inkscape:zoom="10.65625"
     inkscape:cx="32"
     inkscape:cy="32"
     inkscape:window-width="1896"
     inkscape:window-height="1022"
     inkscape:window-x="12"
     inkscape:window-y="46"
     inkscape:window-maximized="1"
     inkscape:current-layer="svg21" />
  <path
     id="path2"
     style="fill:url(#linearGradient5228)"
     d="M 17.617188 1.46875 C 15.597188 1.46875 13.659469 2.2712188 12.230469 3.6992188 C 10.802469 5.1282186 10 7.0678906 10 9.0878906 L 10 14.328125 L 10 54.382812 C 10 56.402814 10.802469 58.340531 12.230469 59.769531 C 13.659469 61.197531 15.597187 62 17.617188 62 L 46.382812 62 C 48.402814 62 50.340531 61.197531 51.769531 59.769531 C 53.197531 58.340531 54 56.402814 54 54.382812 L 54 14.328125 L 54 9.0878906 C 54 7.0678906 53.197531 5.1282186 51.769531 3.6992188 C 50.340531 2.2712188 48.402813 1.46875 46.382812 1.46875 L 38.09375 1.46875 L 25.90625 1.46875 L 17.617188 1.46875 z " />
  <path
     id="path2-3-3"
     style="clip-rule:evenodd;fill:#282a2e;fill-opacity:1;fill-rule:evenodd;stroke-linecap:round;stroke-linejoin:round;stroke-miterlimit:2"
     d="m 10.000006,50.982422 v 3.398437 0.002 c 6.4e-5,0.251841 0.01244,0.501552 0.03711,0.75 v 0.002 c 0.02473,0.248442 0.06268,0.494885 0.111329,0.738281 v 0.002 c 0.04871,0.243391 0.109702,0.484016 0.181639,0.720703 v 0.002 c 0.072,0.236684 0.155455,0.468944 0.25,0.697266 v 0.002 c 0.09461,0.228323 0.199935,0.453573 0.316407,0.671875 v 0.002 c 0.116531,0.218305 0.245101,0.430096 0.382813,0.636719 v 0.002 c 0.137776,0.206628 0.287038,0.406326 0.445312,0.599609 v 0.002 c 0.158341,0.193289 0.327702,0.378358 0.50586,0.55664 v 0.002 c 0.714498,0.714 1.557098,1.271274 2.472653,1.650391 C 15.618682,61.799106 16.607188,62 17.617188,62 h 28.765625 c 1.010002,0 1.998508,-0.200473 2.914062,-0.580078 0.915554,-0.379117 1.758156,-0.936391 2.472656,-1.650391 v -0.002 C 53.19753,58.338626 54,56.400859 54,54.380859 v -3.398437 z" />
  <path
     d="m42.88 33.015c-0.08-0.076-0.182-0.114-0.306-0.114h-12.793c-0.124 0-0.226 0.038-0.306 0.114s-0.12 0.173-0.12 0.291v0.812c0 0.118 0.04 0.215 0.12 0.291s0.182 0.115 0.306 0.115h12.793c0.124 0 0.226-0.039 0.306-0.115s0.12-0.173 0.12-0.291v-0.812c0-0.118-0.04-0.215-0.12-0.291z"
     style="fill-rule:nonzero;fill:#fff"
     id="path4" />
  <path
     d="m22.412 21.02c-0.088-0.084-0.191-0.127-0.306-0.127-0.116 0-0.218 0.043-0.307 0.127l-0.666 0.634c-0.089 0.085-0.133 0.182-0.133 0.292s0.044 0.207 0.133 0.292l5.237 4.982-5.237 4.983c-0.089 0.085-0.133 0.182-0.133 0.292s0.044 0.207 0.133 0.291l0.666 0.634c0.089 0.085 0.191 0.127 0.307 0.127 0.115 0 0.218-0.042 0.306-0.127l6.21-5.908c0.089-0.084 0.133-0.182 0.133-0.292s-0.044-0.207-0.133-0.291l-6.21-5.909z"
     style="fill-rule:nonzero;fill:#fff"
     id="path6" />
  <path
     d="m27.563 59.14h-0.754v-4.016h0.721v0.656h0.033c0.076-0.219 0.232-0.399 0.467-0.541 0.241-0.142 0.473-0.213 0.697-0.213s0.412 0.032 0.565 0.098l-0.287 0.705c-0.098-0.038-0.232-0.058-0.401-0.058-0.273 0-0.517 0.11-0.73 0.328-0.207 0.213-0.311 0.495-0.311 0.844v2.197z"
     style="fill-rule:nonzero;fill:#fff"
     id="path8" />
  <path
     d="m33.31 59.14h-0.721v-0.557h-0.033c-0.114 0.191-0.289 0.355-0.524 0.491-0.235 0.131-0.484 0.197-0.746 0.197-0.503 0-0.885-0.153-1.147-0.459-0.257-0.306-0.386-0.716-0.386-1.229v-2.459h0.754v2.336c0 0.748 0.331 1.123 0.992 1.123 0.312 0 0.566-0.126 0.762-0.377 0.197-0.252 0.295-0.541 0.295-0.869v-2.213h0.754v4.016z"
     style="fill-rule:nonzero;fill:#fff"
     id="path10" />
  <path
     d="m34.957 55.124v0.557h0.033c0.109-0.191 0.282-0.352 0.516-0.483 0.235-0.137 0.487-0.205 0.754-0.205 0.498 0 0.877 0.153 1.14 0.459 0.262 0.306 0.393 0.716 0.393 1.229v2.459h-0.754v-2.344c0-0.743-0.331-1.115-0.992-1.115-0.311 0-0.565 0.126-0.762 0.377-0.196 0.246-0.295 0.533-0.295 0.861v2.221h-0.754v-4.016h0.721z"
     style="fill-rule:nonzero;fill:#fff"
     id="path12" />
  <defs
     id="defs19">
    <linearGradient
       id="_Linear1"
       x2="1"
       gradientTransform="matrix(0,-49.619,49.619,0,177.88,51.088)"
       gradientUnits="userSpaceOnUse">
      <stop
         style="stop-color:#32363a"
         offset="0"
         id="stop14" />
      <stop
         style="stop-color:#62666c"
         offset="1"
         id="stop16" />
    </linearGradient>
    <linearGradient
       inkscape:collect="always"
       xlink:href="#_Linear1"
       id="linearGradient5228"
       gradientUnits="userSpaceOnUse"
       gradientTransform="matrix(0,-49.619,49.619,0,177.88,51.088)"
       x2="1" />
  </defs>
</svg>
