<?xml version="1.0" encoding="UTF-8" standalone="no"?>
<svg
   style="clip-rule:evenodd;fill-rule:evenodd;stroke-linejoin:round;stroke-miterlimit:2"
   viewBox="0 0 64 64"
   version="1.1"
   id="svg13"
   sodipodi:docname="gnome-mime-application-x-referencer.svg"
   inkscape:version="1.1.2 (0a00cf5339, 2022-02-04)"
   xmlns:inkscape="http://www.inkscape.org/namespaces/inkscape"
   xmlns:sodipodi="http://sodipodi.sourceforge.net/DTD/sodipodi-0.dtd"
   xmlns:xlink="http://www.w3.org/1999/xlink"
   xmlns="http://www.w3.org/2000/svg"
   xmlns:svg="http://www.w3.org/2000/svg">
  <sodipodi:namedview
     id="namedview15"
     pagecolor="#ffffff"
     bordercolor="#666666"
     borderopacity="1.0"
     inkscape:pageshadow="2"
     inkscape:pageopacity="0.0"
     inkscape:pagecheckerboard="0"
     showgrid="false"
     inkscape:zoom="10.65625"
     inkscape:cx="32"
     inkscape:cy="32"
     inkscape:window-width="1896"
     inkscape:window-height="1022"
     inkscape:window-x="12"
     inkscape:window-y="46"
     inkscape:window-maximized="1"
     inkscape:current-layer="svg13" />
  <path
     id="path2"
     style="fill:url(#linearGradient3729)"
     d="M 17.617188 1.46875 C 15.597188 1.46875 13.659469 2.2712188 12.230469 3.6992188 C 10.802469 5.1282186 10 7.0678906 10 9.0878906 L 10 13.988281 L 10 54.382812 C 10 56.402814 10.802469 58.340531 12.230469 59.769531 C 13.659469 61.197531 15.597187 62 17.617188 62 L 46.382812 62 C 48.402814 62 50.340531 61.197531 51.769531 59.769531 C 53.197531 58.340531 54 56.402814 54 54.382812 L 54 13.988281 L 54 9.0878906 C 54 7.0678906 53.197531 5.1282186 51.769531 3.6992188 C 50.340531 2.2712188 48.402813 1.46875 46.382812 1.46875 L 40.804688 1.46875 L 23.195312 1.46875 L 17.617188 1.46875 z " />
  <path
     id="path2-3"
     style="clip-rule:evenodd;fill:#274966;fill-opacity:1;fill-rule:evenodd;stroke-linejoin:round;stroke-miterlimit:2"
     d="m 10,50.982422 v 3.398437 0.002 c 6.5e-5,0.251841 0.01244,0.501552 0.03711,0.75 v 0.002 c 0.02473,0.248442 0.06268,0.494885 0.111329,0.738281 v 0.002 c 0.04871,0.243391 0.109702,0.484016 0.18164,0.720703 v 0.002 c 0.072,0.236684 0.155456,0.468944 0.25,0.697266 v 0.002 c 0.09461,0.228323 0.199937,0.453573 0.316406,0.671875 v 0.002 c 0.116532,0.218305 0.245101,0.430096 0.382813,0.636719 v 0.002 c 0.137776,0.206628 0.287038,0.406326 0.445312,0.599609 v 0.002 c 0.158341,0.193289 0.327703,0.378358 0.50586,0.55664 v 0.002 c 0.7145,0.714 1.557101,1.271274 2.472656,1.650391 C 15.618679,61.799106 16.607187,62 17.617188,62 h 28.765624 c 1.010002,0 1.998509,-0.200473 2.914063,-0.580078 0.915555,-0.379117 1.758156,-0.936391 2.472656,-1.650391 v -0.002 C 53.197531,58.338626 54,56.400859 54,54.380859 v -3.398437 z" />
  <path
     d="m 32,15.892572 c -7.732,0 -14,6.268 -14,14 0,7.732 6.268,14 14,14 7.732,0 14,-6.268 14,-14 0,-7.732 -6.268,-14 -14,-14 z m -1.402,2.676 c 0.163,-0.017 0.37,0.01 0.535,0 0.019,0.078 -0.119,0.355 -0.305,0.761 -1.185,2.59 -1.252,5.626 -0.152,7.247 0.199,0.293 0.379,0.573 0.379,0.609 0,0.036 -0.215,0.074 -0.457,0.074 -0.57,0 -1.109,-0.346 -2.211,-1.219 -0.49,-0.387 -1.125,-0.712 -1.371,-0.761 -0.388,-0.078 -0.492,-0.044 -0.993,0.457 -0.466,0.466 -0.609,0.718 -0.609,1.144 0,1.618 1.919,2.9 5.488,3.657 4.847,1.027 6.042,1.951 6.176,4.5 0.168,3.196 -1.535,5.606 -5.262,7.472 -0.444,0.223 -0.727,0.307 -0.914,0.379 -0.082,-0.007 -0.144,0.007 -0.226,0 -0.032,-0.099 -0.078,-0.327 -0.078,-0.762 0,-1.697 -0.668,-3.444 -1.676,-4.421 -0.271,-0.263 -1.031,-0.818 -1.68,-1.219 -0.649,-0.402 -1.303,-0.868 -1.449,-1.067 -0.242,-0.33 -0.26,-0.534 -0.074,-1.144 0.338,-1.115 0.74,-1.737 1.523,-2.442 0.411,-0.369 0.823,-0.676 0.914,-0.683 0.091,-0.008 -0.521,-0.194 -1.445,-0.383 -0.924,-0.189 -2.278,-0.587 -2.977,-0.84 -1.277,-0.462 -2.998,-1.43 -3.656,-2.133 -0.028,-0.029 -0.054,-0.051 -0.078,-0.078 0.942,-3.752 3.585,-6.826 7.09,-8.308 0.733,-0.311 1.491,-0.525 2.289,-0.688 0.397,-0.081 0.808,-0.11 1.219,-0.152 z m 11.437,5.719 c 0.287,0.177 1.367,2.518 1.676,3.66 0.399,1.474 0.37,4.024 0,5.488 -0.141,0.557 -0.319,1.08 -0.379,1.145 -0.06,0.064 -0.279,-0.308 -0.535,-0.762 -0.256,-0.454 -1.074,-1.42 -1.754,-2.137 -1.962,-2.07 -2.271,-3.148 -1.449,-4.801 0.414,-0.833 2.219,-2.73 2.441,-2.593 z"
     style="fill:#274966;fill-rule:nonzero"
     id="path4" />
  <defs
     id="defs11">
    <linearGradient
       id="_Linear1"
       x2="1"
       gradientTransform="matrix(0,-49.619,49.619,0,177.88,51.088)"
       gradientUnits="userSpaceOnUse">
      <stop
         style="stop-color:#2d6481"
         offset="0"
         id="stop6" />
      <stop
         style="stop-color:#62aad3"
         offset="1"
         id="stop8" />
    </linearGradient>
    <linearGradient
       inkscape:collect="always"
       xlink:href="#_Linear1"
       id="linearGradient3729"
       gradientUnits="userSpaceOnUse"
       gradientTransform="matrix(0,-49.619,49.619,0,177.88,51.088)"
       x2="1" />
  </defs>
</svg>
