<?xml version="1.0" encoding="UTF-8" standalone="no"?>
<svg
   style="clip-rule:evenodd;fill-rule:evenodd;stroke-linejoin:round;stroke-miterlimit:2"
   viewBox="0 0 64 64"
   version="1.1"
   id="svg29"
   sodipodi:docname="text-x-install.svg"
   inkscape:version="1.1.2 (0a00cf5339, 2022-02-04)"
   xmlns:inkscape="http://www.inkscape.org/namespaces/inkscape"
   xmlns:sodipodi="http://sodipodi.sourceforge.net/DTD/sodipodi-0.dtd"
   xmlns:xlink="http://www.w3.org/1999/xlink"
   xmlns="http://www.w3.org/2000/svg"
   xmlns:svg="http://www.w3.org/2000/svg">
  <sodipodi:namedview
     id="namedview31"
     pagecolor="#ffffff"
     bordercolor="#666666"
     borderopacity="1.0"
     inkscape:pageshadow="2"
     inkscape:pageopacity="0.0"
     inkscape:pagecheckerboard="0"
     showgrid="false"
     inkscape:zoom="10.65625"
     inkscape:cx="32"
     inkscape:cy="32"
     inkscape:window-width="1896"
     inkscape:window-height="1022"
     inkscape:window-x="12"
     inkscape:window-y="46"
     inkscape:window-maximized="1"
     inkscape:current-layer="svg29" />
  <path
     id="path2"
     style="fill:url(#linearGradient3580)"
     d="M 17.617188 1.46875 C 15.597188 1.46875 13.659469 2.2712188 12.230469 3.6992188 C 10.802469 5.1282186 10 7.0678906 10 9.0878906 L 10 13.484375 L 10 54.382812 C 10 56.402814 10.802469 58.340531 12.230469 59.769531 C 13.659469 61.197531 15.597187 62 17.617188 62 L 46.382812 62 C 48.402814 62 50.340531 61.197531 51.769531 59.769531 C 53.197531 58.340531 54 56.402814 54 54.382812 L 54 13.484375 L 54 9.0878906 C 54 7.0678906 53.197531 5.1282186 51.769531 3.6992188 C 50.340531 2.2712188 48.402813 1.46875 46.382812 1.46875 L 34.886719 1.46875 L 29.113281 1.46875 L 17.617188 1.46875 z " />
  <path
     id="path2-3"
     style="clip-rule:evenodd;fill:#143f4d;fill-opacity:1;fill-rule:evenodd;stroke-linecap:round;stroke-linejoin:round;stroke-miterlimit:2"
     d="m 10.000004,50.982422 v 3.398437 0.002 c 6.5e-5,0.251841 0.01244,0.501552 0.03711,0.75 v 0.002 c 0.02473,0.248442 0.06268,0.494885 0.111328,0.738281 v 0.002 c 0.04871,0.243391 0.109702,0.484016 0.18164,0.720703 v 0.002 c 0.072,0.236684 0.155456,0.468944 0.25,0.697266 v 0.002 c 0.09461,0.228323 0.199936,0.453573 0.316406,0.671875 v 0.002 c 0.116532,0.218305 0.245102,0.430096 0.382814,0.636719 v 0.002 c 0.137775,0.206628 0.287037,0.406326 0.445311,0.599609 v 0.002 c 0.158341,0.193289 0.327703,0.378358 0.505861,0.55664 v 0.002 c 0.714498,0.714 1.557099,1.271274 2.472655,1.650391 C 15.618682,61.799106 16.607189,62 17.617188,62 h 28.765624 c 1.010002,0 1.998509,-0.200473 2.914063,-0.580078 0.915554,-0.379117 1.758155,-0.936391 2.472656,-1.650391 v -0.002 C 53.19753,58.338626 54,56.400859 54,54.380859 v -3.398437 z" />
  <path
     d="m23.229 54.116c-0.104 0.104-0.23 0.156-0.377 0.156-0.148 0-0.273-0.052-0.377-0.156s-0.156-0.229-0.156-0.377 0.052-0.273 0.156-0.377 0.229-0.156 0.377-0.156c0.147 0 0.273 0.052 0.377 0.156s0.155 0.229 0.155 0.377-0.051 0.273-0.155 0.377zm0 5.024h-0.754v-4.016h0.754v4.016z"
     style="fill-rule:nonzero;fill:#fff"
     id="path4" />
  <path
     d="m24.939 55.124v0.557h0.033c0.109-0.191 0.281-0.352 0.516-0.483 0.235-0.137 0.486-0.205 0.754-0.205 0.497 0 0.877 0.153 1.139 0.459 0.263 0.306 0.394 0.716 0.394 1.229v2.459h-0.754v-2.344c0-0.743-0.331-1.115-0.992-1.115-0.311 0-0.565 0.126-0.762 0.377-0.197 0.246-0.295 0.533-0.295 0.861v2.221h-0.754v-4.016h0.721z"
     style="fill-rule:nonzero;fill:#fff"
     id="path6" />
  <path
     d="m30.111 59.271c-0.448 0-0.819-0.109-1.114-0.328-0.29-0.218-0.503-0.492-0.639-0.819l0.672-0.279c0.213 0.503 0.576 0.754 1.09 0.754 0.235 0 0.426-0.052 0.573-0.156 0.153-0.104 0.23-0.24 0.23-0.41 0-0.262-0.183-0.439-0.549-0.532l-0.812-0.197c-0.257-0.066-0.5-0.188-0.729-0.369-0.23-0.186-0.344-0.434-0.344-0.746 0-0.355 0.155-0.642 0.467-0.86 0.317-0.224 0.691-0.336 1.123-0.336 0.355 0 0.672 0.082 0.95 0.246 0.279 0.158 0.478 0.388 0.599 0.688l-0.656 0.271c-0.148-0.356-0.454-0.533-0.918-0.533-0.224 0-0.412 0.046-0.565 0.139s-0.23 0.219-0.23 0.377c0 0.23 0.178 0.385 0.533 0.467l0.795 0.189c0.377 0.087 0.655 0.238 0.836 0.451 0.18 0.213 0.27 0.453 0.27 0.721 0 0.36-0.147 0.661-0.442 0.901-0.295 0.241-0.675 0.361-1.14 0.361z"
     style="fill-rule:nonzero;fill:#fff"
     id="path8" />
  <path
     d="m34.039 59.205c-0.421 0-0.743-0.112-0.967-0.336-0.219-0.224-0.328-0.541-0.328-0.95v-2.107h-0.705v-0.688h0.705v-1.229h0.754v1.229h0.983v0.688h-0.983v2.049c0 0.437 0.18 0.656 0.541 0.656 0.136 0 0.251-0.022 0.344-0.066l0.262 0.648c-0.164 0.071-0.366 0.106-0.606 0.106z"
     style="fill-rule:nonzero;fill:#fff"
     id="path10" />
  <path
     d="m36.389 59.271c-0.426 0-0.784-0.123-1.074-0.369-0.284-0.246-0.426-0.571-0.426-0.975 0-0.437 0.169-0.779 0.508-1.025 0.339-0.251 0.757-0.377 1.254-0.377 0.443 0 0.806 0.082 1.09 0.246v-0.114c0-0.295-0.101-0.53-0.303-0.705-0.202-0.181-0.451-0.271-0.746-0.271-0.218 0-0.418 0.052-0.598 0.156-0.175 0.104-0.295 0.246-0.361 0.426l-0.688-0.295c0.093-0.24 0.276-0.462 0.549-0.664 0.273-0.207 0.634-0.311 1.082-0.311 0.513 0 0.939 0.15 1.278 0.451 0.339 0.3 0.508 0.724 0.508 1.27v2.426h-0.721v-0.557h-0.033c-0.3 0.458-0.74 0.688-1.319 0.688zm0.123-0.688c0.311 0 0.593-0.115 0.844-0.345 0.257-0.235 0.385-0.511 0.385-0.827-0.213-0.175-0.533-0.263-0.959-0.263-0.366 0-0.642 0.08-0.827 0.238-0.186 0.158-0.279 0.344-0.279 0.557 0 0.197 0.085 0.353 0.254 0.467 0.169 0.115 0.363 0.173 0.582 0.173z"
     style="fill-rule:nonzero;fill:#fff"
     id="path12" />
  <rect
     x="39.312"
     y="53.272"
     width=".754"
     height="5.868"
     style="fill:#fff"
     id="rect14" />
  <rect
     x="40.977"
     y="53.272"
     width=".754"
     height="5.868"
     style="fill:#fff"
     id="rect16" />
  <path
     d="m43 21.628c0-1.585-1.286-2.871-2.871-2.871h-16.258c-1.585 0-2.871 1.286-2.871 2.871v10.859c0 1.585 1.286 2.871 2.871 2.871h16.258c1.585 0 2.871-1.286 2.871-2.871v-10.859z"
     style="fill:#143f4d"
     id="path18" />
  <path
     d="m32.316 30.088l3.544-3.549c0.138-0.131 0.207-0.294 0.207-0.49s-0.069-0.359-0.207-0.49l-0.409-0.414c-0.134-0.134-0.297-0.201-0.489-0.201-0.189 0-0.354 0.067-0.496 0.201l-2.64 2.646-2.646-2.646c-0.134-0.134-0.298-0.201-0.49-0.201-0.189 0-0.354 0.067-0.495 0.201l-0.409 0.414c-0.134 0.134-0.201 0.298-0.201 0.49s0.067 0.356 0.201 0.49l3.544 3.549c0.142 0.135 0.307 0.202 0.496 0.202 0.192 0 0.355-0.067 0.49-0.202z"
     style="fill-rule:nonzero;fill:#1987a2"
     id="path20" />
  <defs
     id="defs27">
    <linearGradient
       id="_Linear1"
       x2="1"
       gradientTransform="matrix(1.07196,-49.7469,49.7469,1.07196,251.234,55.94)"
       gradientUnits="userSpaceOnUse">
      <stop
         style="stop-color:#006474"
         offset="0"
         id="stop22" />
      <stop
         style="stop-color:#32abd1"
         offset="1"
         id="stop24" />
    </linearGradient>
    <linearGradient
       inkscape:collect="always"
       xlink:href="#_Linear1"
       id="linearGradient3580"
       gradientUnits="userSpaceOnUse"
       gradientTransform="matrix(1.07196,-49.7469,49.7469,1.07196,251.234,55.94)"
       x2="1" />
  </defs>
</svg>
