<?xml version="1.0" encoding="UTF-8" standalone="no"?>
<svg
   style="clip-rule:evenodd;fill-rule:evenodd"
   viewBox="0 0 64 64"
   version="1.1"
   id="svg31"
   sodipodi:docname="gnome-mime-application-magicpoint.svg"
   inkscape:version="1.1.2 (0a00cf5339, 2022-02-04)"
   xmlns:inkscape="http://www.inkscape.org/namespaces/inkscape"
   xmlns:sodipodi="http://sodipodi.sourceforge.net/DTD/sodipodi-0.dtd"
   xmlns:xlink="http://www.w3.org/1999/xlink"
   xmlns="http://www.w3.org/2000/svg"
   xmlns:svg="http://www.w3.org/2000/svg">
  <sodipodi:namedview
     id="namedview33"
     pagecolor="#ffffff"
     bordercolor="#666666"
     borderopacity="1.0"
     inkscape:pageshadow="2"
     inkscape:pageopacity="0.0"
     inkscape:pagecheckerboard="0"
     showgrid="false"
     inkscape:zoom="10.65625"
     inkscape:cx="32"
     inkscape:cy="32"
     inkscape:window-width="1896"
     inkscape:window-height="1022"
     inkscape:window-x="12"
     inkscape:window-y="46"
     inkscape:window-maximized="1"
     inkscape:current-layer="svg31" />
  <path
     id="path2"
     style="fill:url(#linearGradient3192)"
     d="M 17.617188 1.46875 C 15.597188 1.46875 13.659469 2.2712188 12.230469 3.6992188 C 10.802469 5.1282186 10 7.0678906 10 9.0878906 L 10 14.328125 L 10 54.382812 C 10 56.402814 10.802469 58.340531 12.230469 59.769531 C 13.659469 61.197531 15.597187 62 17.617188 62 L 46.382812 62 C 48.402814 62 50.340531 61.197531 51.769531 59.769531 C 53.197531 58.340531 54 56.402814 54 54.382812 L 54 14.328125 L 54 9.0878906 C 54 7.0678906 53.197531 5.1282186 51.769531 3.6992188 C 50.340531 2.2712188 48.402813 1.46875 46.382812 1.46875 L 36.746094 1.46875 L 27.253906 1.46875 L 17.617188 1.46875 z " />
  <path
     id="path2-3"
     style="clip-rule:evenodd;fill:#622110;fill-opacity:1;fill-rule:evenodd;stroke-linejoin:round;stroke-miterlimit:2"
     d="m 10,50.982422 v 3.398437 0.002 c 6.5e-5,0.251841 0.01244,0.501552 0.03711,0.75 v 0.002 c 0.02473,0.248442 0.06268,0.494885 0.111329,0.738281 v 0.002 c 0.04871,0.243391 0.109702,0.484016 0.18164,0.720703 v 0.002 c 0.072,0.236684 0.155456,0.468944 0.25,0.697266 v 0.002 c 0.09461,0.228323 0.199937,0.453573 0.316406,0.671875 v 0.002 c 0.116532,0.218305 0.245101,0.430096 0.382813,0.636719 v 0.002 c 0.137776,0.206628 0.287038,0.406326 0.445312,0.599609 v 0.002 c 0.158341,0.193289 0.327703,0.378358 0.50586,0.55664 v 0.002 c 0.7145,0.714 1.557101,1.271274 2.472656,1.650391 C 15.618679,61.799106 16.607187,62 17.617188,62 h 28.765624 c 1.010002,0 1.998509,-0.200473 2.914063,-0.580078 0.915555,-0.379117 1.758156,-0.936391 2.472656,-1.650391 v -0.002 C 53.197531,58.338626 54,56.400859 54,54.380859 v -3.398437 z" />
  <path
     d="m22.46 37.697h10.073v-21.206l-9.983 1e-3c-1.098-0.082-1.543 0.02-1.543 1.014v19.122c-0.069 1.092 0.386 1.069 1.453 1.069z"
     style="fill:#622110"
     id="path4" />
  <path
     d="m41.846 37.69h-4.572l-2.344-1.968v-17.269l1.606-1.968h5.31c0.735-0.081 0.794 0.02 0.794 1.015v19.122c0.046 1.091-0.079 1.068-0.794 1.068z"
     style="fill:none;stroke-width:.7px;stroke:#622110"
     id="path6" />
  <path
     d="m40.113 38.7l-8.681-1.014v-21.195l8.609-0.807c1.065-0.081 1.122 0.212 1.122 1.207l-0.072 20.227c0.067 1.092 0.058 1.582-0.978 1.582z"
     style="fill:#622110"
     id="path8" />
  <path
     d="m27.782 23.424c1.927 0 3.49 1.56 3.49 3.488h-3.49v-3.488zm-0.982 0.948v3.491h3.491c0 1.93-1.562 3.491-3.491 3.491-1.928 0-3.489-1.561-3.489-3.491 0-1.928 1.562-3.491 3.489-3.491z"
     style="fill-rule:nonzero;fill:#ee5932"
     id="path10" />
  <rect
     x="32.487"
     y="25.304"
     width="6.349"
     height="1.19"
     style="fill:#ee5932"
     id="rect12" />
  <rect
     x="32.493"
     y="27.37"
     width="6.349"
     height="1.19"
     style="fill:#ee5932"
     id="rect14" />
  <rect
     x="32.503"
     y="29.287"
     width="6.349"
     height="1.19"
     style="fill:#ee5932"
     id="rect16" />
  <path
     d="m24.057 58.275v-3.883h0.697v0.539h0.032c0.111-0.185 0.28-0.34 0.507-0.467 0.233-0.132 0.463-0.198 0.69-0.198 0.602 0 1.011 0.248 1.228 0.745 0.317-0.497 0.769-0.745 1.355-0.745 0.46 0 0.806 0.148 1.038 0.443 0.233 0.291 0.349 0.687 0.349 1.189v2.377h-0.729v-2.266c0-0.391-0.071-0.668-0.214-0.832s-0.359-0.246-0.65-0.246c-0.285 0-0.523 0.122-0.713 0.365-0.185 0.243-0.278 0.52-0.278 0.832v2.147h-0.729v-2.266c0-0.391-0.071-0.668-0.214-0.832-0.142-0.164-0.359-0.246-0.649-0.246-0.286 0-0.523 0.122-0.714 0.365-0.184 0.243-0.277 0.52-0.277 0.832v2.147h-0.729z"
     style="fill-rule:nonzero;fill:#fff"
     id="path18" />
  <path
     d="m32.447 60.114c-0.46 0-0.835-0.116-1.125-0.349-0.291-0.227-0.5-0.488-0.627-0.784l0.666-0.278c0.074 0.212 0.209 0.389 0.404 0.531 0.201 0.143 0.428 0.214 0.682 0.214 0.401 0 0.716-0.121 0.943-0.364 0.232-0.238 0.349-0.563 0.349-0.975v-0.372h-0.032c-0.127 0.19-0.307 0.348-0.539 0.475-0.233 0.127-0.494 0.19-0.785 0.19-0.501 0-0.935-0.198-1.299-0.594-0.365-0.396-0.547-0.888-0.547-1.474s0.182-1.078 0.547-1.474c0.364-0.396 0.798-0.594 1.299-0.594 0.291 0 0.552 0.063 0.785 0.19 0.232 0.127 0.412 0.285 0.539 0.475h0.032v-0.539h0.697v3.685c0 0.666-0.193 1.171-0.579 1.514-0.385 0.349-0.855 0.523-1.41 0.523zm0.055-2.377c0.344 0 0.634-0.127 0.872-0.381 0.243-0.253 0.365-0.594 0.365-1.022s-0.122-0.769-0.365-1.022c-0.238-0.254-0.528-0.381-0.872-0.381-0.338 0-0.628 0.13-0.871 0.389-0.243 0.253-0.365 0.591-0.365 1.014s0.122 0.763 0.365 1.022c0.243 0.254 0.533 0.381 0.871 0.381z"
     style="fill-rule:nonzero;fill:#fff"
     id="path20" />
  <path
     d="m37.346 58.402c-0.296 0-0.563-0.063-0.801-0.19-0.232-0.127-0.407-0.285-0.523-0.475h-0.032l0.032 0.538v1.712h-0.729v-5.595h0.697v0.539h0.032c0.116-0.19 0.291-0.348 0.523-0.475 0.238-0.127 0.505-0.19 0.801-0.19 0.501 0 0.935 0.198 1.299 0.594 0.365 0.396 0.547 0.888 0.547 1.474s-0.182 1.078-0.547 1.474c-0.364 0.396-0.798 0.594-1.299 0.594zm-0.119-0.665c0.338 0 0.628-0.127 0.871-0.381 0.243-0.259 0.365-0.599 0.365-1.022s-0.122-0.761-0.365-1.014c-0.243-0.259-0.533-0.389-0.871-0.389-0.344 0-0.637 0.127-0.88 0.381-0.238 0.253-0.357 0.594-0.357 1.022s0.119 0.769 0.357 1.022c0.243 0.254 0.536 0.381 0.88 0.381z"
     style="fill-rule:nonzero;fill:#fff"
     id="path22" />
  <defs
     id="defs29">
    <linearGradient
       id="_Linear1"
       x2="1"
       gradientTransform="matrix(1.07196,-49.7469,49.7469,1.07196,178.156,54.3653)"
       gradientUnits="userSpaceOnUse">
      <stop
         style="stop-color:#ce3b14"
         offset="0"
         id="stop24" />
      <stop
         style="stop-color:#fa653f"
         offset="1"
         id="stop26" />
    </linearGradient>
    <linearGradient
       inkscape:collect="always"
       xlink:href="#_Linear1"
       id="linearGradient3192"
       gradientUnits="userSpaceOnUse"
       gradientTransform="matrix(1.07196,-49.7469,49.7469,1.07196,178.156,54.3653)"
       x2="1" />
  </defs>
</svg>
