<?xml version="1.0" encoding="UTF-8" standalone="no"?>
<svg
   style="clip-rule:evenodd;fill-rule:evenodd;stroke-linejoin:round;stroke-miterlimit:2"
   viewBox="0 0 64 64"
   version="1.1"
   id="svg19"
   sodipodi:docname="application-x-bzip.svg"
   inkscape:version="1.1.2 (0a00cf5339, 2022-02-04)"
   xmlns:inkscape="http://www.inkscape.org/namespaces/inkscape"
   xmlns:sodipodi="http://sodipodi.sourceforge.net/DTD/sodipodi-0.dtd"
   xmlns:xlink="http://www.w3.org/1999/xlink"
   xmlns="http://www.w3.org/2000/svg"
   xmlns:svg="http://www.w3.org/2000/svg">
  <sodipodi:namedview
     id="namedview21"
     pagecolor="#ffffff"
     bordercolor="#666666"
     borderopacity="1.0"
     inkscape:pageshadow="2"
     inkscape:pageopacity="0.0"
     inkscape:pagecheckerboard="0"
     showgrid="false"
     inkscape:zoom="10.65625"
     inkscape:cx="32"
     inkscape:cy="32"
     inkscape:window-width="1896"
     inkscape:window-height="1022"
     inkscape:window-x="12"
     inkscape:window-y="46"
     inkscape:window-maximized="1"
     inkscape:current-layer="svg19" />
  <path
     id="path2"
     style="fill:url(#linearGradient955)"
     d="M 17.617188 1.46875 C 15.597188 1.46875 13.659469 2.2712188 12.230469 3.6992188 C 10.802469 5.1282186 10 7.0678906 10 9.0878906 L 10 11.115234 L 10 54.382812 C 10 56.402814 10.802469 58.340531 12.230469 59.769531 C 13.659469 61.197531 15.597187 62 17.617188 62 L 46.382812 62 C 48.402814 62 50.340531 61.197531 51.769531 59.769531 C 53.197531 58.340531 54 56.402814 54 54.382812 L 54 11.115234 L 54 9.0878906 C 54 7.0678906 53.197531 5.1282186 51.769531 3.6992188 C 50.340531 2.2712188 48.402813 1.46875 46.382812 1.46875 L 40.21875 1.46875 L 23.78125 1.46875 L 17.617188 1.46875 z " />
  <path
     id="path2-3"
     style="clip-rule:evenodd;fill:#044937;fill-opacity:1;fill-rule:evenodd;stroke-linejoin:round;stroke-miterlimit:2"
     d="m 10,50.982422 v 3.398437 0.002 c 6.5e-5,0.251841 0.01244,0.501552 0.03711,0.75 v 0.002 c 0.02473,0.248442 0.06268,0.494885 0.111329,0.738281 v 0.002 c 0.04871,0.243391 0.109702,0.484016 0.18164,0.720703 v 0.002 c 0.072,0.236684 0.155456,0.468944 0.25,0.697266 v 0.002 c 0.09461,0.228323 0.199937,0.453573 0.316406,0.671875 v 0.002 c 0.116532,0.218305 0.245101,0.430096 0.382813,0.636719 v 0.002 c 0.137776,0.206628 0.287038,0.406326 0.445312,0.599609 v 0.002 c 0.158341,0.193289 0.327703,0.378358 0.50586,0.55664 v 0.002 c 0.7145,0.714 1.557101,1.271274 2.472656,1.650391 C 15.618679,61.799106 16.607187,62 17.617188,62 h 28.765624 c 1.010002,0 1.998509,-0.200473 2.914063,-0.580078 0.915555,-0.379117 1.758156,-0.936391 2.472656,-1.650391 v -0.002 C 53.197531,58.338626 54,56.400859 54,54.380859 v -3.398437 z" />
  <path
     d="m42 18.285c0-1.262-1.023-2.285-2.285-2.285h-15.23c-1.262 0-2.285 1.023-2.285 2.285v17.43c0 1.262 1.023 2.285 2.285 2.285h15.23c1.262 0 2.285-1.023 2.285-2.285v-17.43z"
     style="fill:#044937"
     id="path4" />
  <path
     d="m33.245 24.663v1.1h-2.2v-1.1h2.2zm0-1.645v1.1h-2.2v-1.1h2.2zm0-1.608v1.1h-2.2v-1.1h2.2zm-0.024-1.636v1.1h-2.2v-1.1h2.2zm0.014-1.572v1.1h-2.2v-1.1h2.2zm4e-3 -1.591v1.1h-2.2v-1.1h2.2z"
     style="fill-opacity:.93;fill:#fff"
     id="path6" />
  <path
     d="m32.951 27.371v-0.694c0-0.194-0.157-0.351-0.349-0.351h-0.97c-0.193 0-0.349 0.157-0.349 0.351v0.693l-0.539 1.591c-0.151 0.443-0.079 0.935 0.193 1.317 0.272 0.381 0.713 0.608 1.18 0.608s0.908-0.227 1.18-0.608c0.271-0.382 0.344-0.874 0.193-1.317l-0.539-1.59zm-0.226 2.497c-0.279 0.393-0.937 0.393-1.217 0-0.14-0.197-0.177-0.451-0.1-0.68l0.181-0.533h1.055l0.181 0.533c0.078 0.229 0.04 0.483-0.1 0.68z"
     style="fill-rule:nonzero;fill:#fff"
     id="path8" />
  <path
     d="m36.439 61.21h-0.754v-5.786h0.721v0.557h0.033c0.12-0.196 0.3-0.36 0.541-0.491 0.245-0.131 0.521-0.197 0.827-0.197 0.519 0 0.967 0.205 1.344 0.615 0.377 0.409 0.566 0.918 0.566 1.524s-0.189 1.115-0.566 1.524c-0.377 0.41-0.825 0.615-1.344 0.615-0.306 0-0.582-0.066-0.827-0.197-0.241-0.131-0.421-0.295-0.541-0.491h-0.033l0.033 0.557v1.77zm-10.309-1.77h-0.721v-5.868h0.754v1.852l-0.033 0.557h0.033c0.12-0.196 0.3-0.36 0.541-0.491 0.246-0.131 0.522-0.197 0.828-0.197 0.519 0 0.967 0.205 1.344 0.615 0.377 0.409 0.565 0.918 0.565 1.524s-0.188 1.115-0.565 1.524c-0.377 0.41-0.825 0.615-1.344 0.615-0.306 0-0.582-0.066-0.828-0.197-0.241-0.131-0.421-0.295-0.541-0.491h-0.033v0.557zm8.598 0h-0.754v-4.016h0.754v4.016zm-1.628 0h-3.246v-0.656l2.287-2.671h-2.221v-0.689h3.147v0.656l-2.287 2.671h2.32v0.689zm-5.691-0.557c0.349 0 0.65-0.132 0.901-0.394 0.252-0.268 0.377-0.62 0.377-1.057s-0.125-0.787-0.377-1.049c-0.251-0.268-0.552-0.402-0.901-0.402-0.355 0-0.659 0.132-0.91 0.394-0.246 0.262-0.369 0.614-0.369 1.057s0.123 0.795 0.369 1.057c0.251 0.262 0.555 0.394 0.91 0.394zm10.275 0c0.35 0 0.65-0.132 0.902-0.394 0.251-0.268 0.377-0.62 0.377-1.057s-0.126-0.787-0.377-1.049c-0.252-0.268-0.552-0.402-0.902-0.402-0.355 0-0.658 0.132-0.909 0.394-0.246 0.262-0.369 0.614-0.369 1.057s0.123 0.795 0.369 1.057c0.251 0.262 0.554 0.394 0.909 0.394zm-2.956-4.467c-0.104 0.104-0.229 0.156-0.377 0.156-0.147 0-0.273-0.052-0.377-0.156s-0.156-0.229-0.156-0.377c0-0.147 0.052-0.273 0.156-0.377s0.23-0.156 0.377-0.156c0.148 0 0.273 0.052 0.377 0.156s0.156 0.23 0.156 0.377c0 0.148-0.052 0.273-0.156 0.377z"
     style="fill-rule:nonzero;fill:#fff"
     id="path10" />
  <defs
     id="defs17">
    <linearGradient
       id="_Linear1"
       x2="1"
       gradientTransform="matrix(1.07196,-49.7469,49.7469,1.07196,178.156,54.3653)"
       gradientUnits="userSpaceOnUse">
      <stop
         style="stop-color:#075"
         offset="0"
         id="stop12" />
      <stop
         style="stop-color:#3ec884"
         offset="1"
         id="stop14" />
    </linearGradient>
    <linearGradient
       inkscape:collect="always"
       xlink:href="#_Linear1"
       id="linearGradient955"
       gradientUnits="userSpaceOnUse"
       gradientTransform="matrix(1.07196,-49.7469,49.7469,1.07196,178.156,54.3653)"
       x2="1" />
  </defs>
</svg>
