<?xml version="1.0" encoding="UTF-8" standalone="no"?>
<svg
   style="clip-rule:evenodd;fill-rule:evenodd;stroke-linejoin:round;stroke-miterlimit:2"
   viewBox="0 0 64 64"
   version="1.1"
   id="svg19"
   sodipodi:docname="application-image-gif.svg"
   inkscape:version="1.1.2 (0a00cf5339, 2022-02-04)"
   xmlns:inkscape="http://www.inkscape.org/namespaces/inkscape"
   xmlns:sodipodi="http://sodipodi.sourceforge.net/DTD/sodipodi-0.dtd"
   xmlns:xlink="http://www.w3.org/1999/xlink"
   xmlns="http://www.w3.org/2000/svg"
   xmlns:svg="http://www.w3.org/2000/svg">
  <sodipodi:namedview
     id="namedview21"
     pagecolor="#ffffff"
     bordercolor="#666666"
     borderopacity="1.0"
     inkscape:pageshadow="2"
     inkscape:pageopacity="0.0"
     inkscape:pagecheckerboard="0"
     showgrid="false"
     inkscape:zoom="10.671875"
     inkscape:cx="37.153734"
     inkscape:cy="32.093704"
     inkscape:window-width="945"
     inkscape:window-height="1026"
     inkscape:window-x="965"
     inkscape:window-y="44"
     inkscape:window-maximized="1"
     inkscape:current-layer="svg19" />
  <path
     id="path2"
     style="fill:url(#linearGradient2634)"
     d="M 17.617188 1.46875 C 15.597188 1.46875 13.659469 2.2712188 12.230469 3.6992188 C 10.802469 5.1282186 10 7.0678906 10 9.0878906 L 10 13.208984 L 10 54.382812 C 10 56.402814 10.802469 58.340531 12.230469 59.769531 C 13.659469 61.197531 15.597187 62 17.617188 62 L 46.382812 62 C 48.402814 62 50.340531 61.197531 51.769531 59.769531 C 53.197531 58.340531 54 56.402814 54 54.382812 L 54 13.208984 L 54 9.0878906 C 54 7.0678906 53.197531 5.1282186 51.769531 3.6992188 C 50.340531 2.2712188 48.402813 1.46875 46.382812 1.46875 L 38.548828 1.46875 L 25.451172 1.46875 L 17.617188 1.46875 z " />
  <path
     id="path914"
     style="clip-rule:evenodd;fill:#194752;fill-opacity:1;fill-rule:evenodd;stroke-width:1;stroke-linejoin:round;stroke-miterlimit:2"
     d="m 9.9999998,50.982422 v 3.40039 c 0,2.020002 0.8024692,3.957719 2.2304692,5.386719 1.429,1.428 3.366717,2.230469 5.386719,2.230469 h 28.765624 c 2.020002,0 3.957719,-0.802469 5.386719,-2.230469 C 53.197531,58.340531 54,56.402814 54,54.382812 v -3.40039 z" />
  <path
     d="m23.957 19c-0.53 0-0.957 0.465-0.957 1.043v15.912c0 0.579 0.427 1.045 0.957 1.045h16.086c0.53 0 0.957-0.466 0.957-1.045v-15.912c0-0.578-0.427-1.043-0.957-1.043h-16.086zm10.182 6.432l3.861 5.136h-12l3-3.849 2.139 2.574 3-3.861z"
     style="fill-rule:nonzero;fill:#194752"
     id="path4" />
  <path
     d="m29.455 60.841c-0.475 0-0.863-0.12-1.164-0.361-0.3-0.235-0.516-0.505-0.647-0.811l0.688-0.287c0.077 0.219 0.216 0.402 0.418 0.549 0.208 0.148 0.443 0.222 0.705 0.222 0.415 0 0.74-0.126 0.975-0.377 0.241-0.246 0.361-0.582 0.361-1.008v-0.386h-0.033c-0.131 0.197-0.317 0.361-0.557 0.492s-0.511 0.197-0.811 0.197c-0.519 0-0.968-0.205-1.345-0.615s-0.565-0.918-0.565-1.524c0-0.607 0.188-1.115 0.565-1.525 0.377-0.409 0.826-0.614 1.345-0.614 0.3 0 0.571 0.065 0.811 0.196 0.24 0.132 0.426 0.295 0.557 0.492h0.033v-0.557h0.721v3.811c0 0.688-0.199 1.21-0.598 1.565-0.399 0.361-0.885 0.541-1.459 0.541zm0.057-2.459c0.356 0 0.656-0.131 0.902-0.393 0.251-0.262 0.377-0.615 0.377-1.057 0-0.443-0.126-0.795-0.377-1.057-0.246-0.263-0.546-0.394-0.902-0.394-0.349 0-0.65 0.134-0.901 0.402-0.251 0.262-0.377 0.612-0.377 1.049s0.126 0.789 0.377 1.057c0.251 0.262 0.552 0.393 0.901 0.393z"
     style="fill-rule:nonzero;fill:#fff"
     id="path6" />
  <path
     d="m33.251 53.916c-0.104 0.104-0.229 0.156-0.377 0.156-0.147 0-0.273-0.052-0.377-0.156s-0.156-0.23-0.156-0.377c0-0.148 0.052-0.273 0.156-0.377s0.23-0.156 0.377-0.156c0.148 0 0.273 0.052 0.377 0.156s0.156 0.229 0.156 0.377c0 0.147-0.052 0.273-0.156 0.377zm0 5.024h-0.754v-4.016h0.754v4.016z"
     style="fill-rule:nonzero;fill:#fff"
     id="path8" />
  <path
     d="m36.158 53.039c0.24 0 0.443 0.035 0.606 0.106l-0.262 0.648c-0.087-0.044-0.202-0.066-0.344-0.066-0.197 0-0.358 0.06-0.484 0.181-0.125 0.114-0.188 0.284-0.188 0.508v0.508h1.049v0.688h-1.049v3.328h-0.754v-3.328h-0.754v-0.688h0.754v-0.533c0-0.41 0.131-0.737 0.393-0.983 0.263-0.246 0.607-0.369 1.033-0.369z"
     style="fill-rule:nonzero;fill:#fff"
     id="path10" />
  <defs
     id="defs17">
    <linearGradient
       id="_Linear1"
       x2="1"
       gradientTransform="matrix(0,-49.619,49.619,0,177.88,51.088)"
       gradientUnits="userSpaceOnUse">
      <stop
         style="stop-color:#11868e"
         offset="0"
         id="stop12" />
      <stop
         style="stop-color:#4dd2c7"
         offset="1"
         id="stop14" />
    </linearGradient>
    <linearGradient
       inkscape:collect="always"
       xlink:href="#_Linear1"
       id="linearGradient2634"
       gradientUnits="userSpaceOnUse"
       gradientTransform="matrix(0,-49.619,49.619,0,177.88,51.088)"
       x2="1" />
  </defs>
</svg>
