<?xml version="1.0" encoding="UTF-8" standalone="no"?>
<svg
   clip-rule="evenodd"
   fill-rule="evenodd"
   stroke-linejoin="round"
   stroke-miterlimit="2"
   viewBox="0 0 64 64"
   version="1.1"
   id="svg11"
   sodipodi:docname="application-vnd.wolfram.mathematica.package.svg"
   inkscape:version="1.1.2 (0a00cf5339, 2022-02-04)"
   xmlns:inkscape="http://www.inkscape.org/namespaces/inkscape"
   xmlns:sodipodi="http://sodipodi.sourceforge.net/DTD/sodipodi-0.dtd"
   xmlns:xlink="http://www.w3.org/1999/xlink"
   xmlns="http://www.w3.org/2000/svg"
   xmlns:svg="http://www.w3.org/2000/svg">
  <defs
     id="defs15">
    <linearGradient
       inkscape:collect="always"
       xlink:href="#a"
       id="linearGradient949"
       gradientUnits="userSpaceOnUse"
       gradientTransform="matrix(0,-49.619,49.619,0,250.77,51.088)"
       x2="1" />
  </defs>
  <sodipodi:namedview
     id="namedview13"
     pagecolor="#ffffff"
     bordercolor="#666666"
     borderopacity="1.0"
     inkscape:pageshadow="2"
     inkscape:pageopacity="0.0"
     inkscape:pagecheckerboard="0"
     showgrid="false"
     inkscape:zoom="10.671875"
     inkscape:cx="38.653001"
     inkscape:cy="32.65593"
     inkscape:window-width="945"
     inkscape:window-height="1026"
     inkscape:window-x="965"
     inkscape:window-y="44"
     inkscape:window-maximized="1"
     inkscape:current-layer="svg11" />
  <linearGradient
     id="a"
     x2="1"
     gradientTransform="matrix(0,-49.619,49.619,0,250.77,51.088)"
     gradientUnits="userSpaceOnUse">
    <stop
       stop-color="#c0c0c0"
       offset="0"
       id="stop2" />
    <stop
       stop-color="#ebebeb"
       offset="1"
       id="stop4" />
  </linearGradient>
  <path
     id="path7"
     style="fill:url(#linearGradient949)"
     d="M 17.617188 1.46875 C 15.597188 1.46875 13.659469 2.2712188 12.230469 3.6992188 C 10.802469 5.1282186 10 7.0678906 10 9.0878906 L 10 12.505859 L 10 54.382812 C 10 56.402814 10.802469 58.340531 12.230469 59.769531 C 13.659469 61.197531 15.597187 62 17.617188 62 L 46.382812 62 C 48.402814 62 50.340531 61.197531 51.769531 59.769531 C 53.197531 58.340531 54 56.402814 54 54.382812 L 54 12.505859 L 54 9.0878906 C 54 7.0678906 53.197531 5.1282186 51.769531 3.6992188 C 50.340531 2.2712188 48.402813 1.46875 46.382812 1.46875 L 37.509766 1.46875 L 26.490234 1.46875 L 17.617188 1.46875 z " />
  <path
     d="m 32,15.911311 c -0.47,0.001 -0.94,0.026 -1.408,0.074 -0.445,0.045 -0.884,0.112 -1.315,0.197 -0.02,0.003 -0.039,0.006 -0.058,0.008 -0.406,0.083 -0.802,0.19 -1.195,0.307 -0.055,0.014 -0.111,0.029 -0.167,0.043 -0.442,0.138 -0.876,0.294 -1.298,0.474 -0.418,0.176 -0.827,0.374 -1.225,0.59 -0.791,0.43 -1.538,0.936 -2.232,1.51 -0.346,0.285 -0.678,0.587 -0.995,0.905 -0.302,0.303 -0.591,0.619 -0.864,0.948 -0.016,0.02 -0.033,0.038 -0.049,0.058 -0.221,0.273 -0.432,0.555 -0.632,0.845 -0.071,0.1 -0.145,0.198 -0.213,0.301 -0.152,0.232 -0.297,0.469 -0.435,0.711 -0.097,0.166 -0.197,0.33 -0.287,0.5 -0.112,0.217 -0.219,0.436 -0.32,0.659 -0.094,0.201 -0.186,0.403 -0.271,0.61 -0.083,0.211 -0.162,0.424 -0.235,0.639 -0.079,0.227 -0.159,0.453 -0.227,0.684 -0.057,0.203 -0.11,0.407 -0.158,0.613 -0.06,0.243 -0.12,0.487 -0.167,0.735 -0.042,0.235 -0.077,0.471 -0.107,0.708 -0.03,0.22 -0.06,0.439 -0.079,0.662 -0.039,0.405 -0.06,0.812 -0.063,1.22 0.001,0.47 0.026,0.94 0.074,1.408 0.241,2.392 1.088,4.608 2.384,6.494 0.012,0.017 0.024,0.035 0.036,0.052 0.1,0.144 0.203,0.286 0.309,0.426 0,-0.004 0.002,-0.009 0.003,-0.013 2.556,3.41 6.617,5.633 11.194,5.633 2.629,0 5.084,-0.743 7.189,-2.01 l 0.002,0.003 c 0.029,-0.019 0.057,-0.039 0.085,-0.058 0.334,-0.204 0.659,-0.42 0.974,-0.651 0.072,-0.053 0.144,-0.107 0.216,-0.161 0.276,-0.211 0.544,-0.431 0.804,-0.662 0.105,-0.094 0.209,-0.19 0.311,-0.287 0.217,-0.204 0.426,-0.414 0.629,-0.631 0.121,-0.129 0.24,-0.259 0.356,-0.391 0.191,-0.22 0.372,-0.447 0.549,-0.679 0.097,-0.125 0.192,-0.251 0.285,-0.38 0.186,-0.261 0.359,-0.53 0.527,-0.804 0.07,-0.111 0.139,-0.223 0.205,-0.336 0.167,-0.289 0.319,-0.587 0.465,-0.889 0.058,-0.115 0.113,-0.23 0.167,-0.347 0.131,-0.29 0.247,-0.588 0.358,-0.889 0.055,-0.142 0.107,-0.285 0.156,-0.429 0.097,-0.29 0.18,-0.585 0.257,-0.883 0.041,-0.15 0.079,-0.3 0.115,-0.451 0.063,-0.282 0.113,-0.568 0.159,-0.856 0.032,-0.189 0.06,-0.379 0.084,-0.569 0.029,-0.246 0.045,-0.496 0.061,-0.746 0.025,-0.298 0.04,-0.596 0.046,-0.894 0,-0.473 -0.025,-0.938 -0.071,-1.398 l -0.003,-0.011 c -0.045,-0.445 -0.111,-0.883 -0.197,-1.315 -0.004,-0.019 -0.004,-0.039 -0.008,-0.057 -0.082,-0.406 -0.19,-0.803 -0.306,-1.195 -0.016,-0.053 -0.025,-0.109 -0.041,-0.162 l -0.006,-0.019 c -0.136,-0.438 -0.293,-0.866 -0.47,-1.285 -0.177,-0.418 -0.374,-0.826 -0.591,-1.225 -0.43,-0.79 -0.935,-1.538 -1.509,-2.231 -0.286,-0.346 -0.588,-0.678 -0.905,-0.995 -0.303,-0.303 -0.62,-0.591 -0.949,-0.865 -0.016,-0.013 -0.031,-0.027 -0.047,-0.041 -0.003,-0.002 -0.007,-0.005 -0.01,-0.008 -0.274,-0.221 -0.556,-0.432 -0.845,-0.631 -0.101,-0.071 -0.199,-0.145 -0.301,-0.214 -0.233,-0.152 -0.47,-0.297 -0.711,-0.434 -0.166,-0.098 -0.33,-0.197 -0.5,-0.288 -0.217,-0.112 -0.437,-0.219 -0.659,-0.32 -0.202,-0.093 -0.404,-0.186 -0.61,-0.27 -0.211,-0.084 -0.425,-0.162 -0.64,-0.235 -0.226,-0.08 -0.452,-0.159 -0.683,-0.227 -0.203,-0.058 -0.408,-0.111 -0.613,-0.159 -0.244,-0.06 -0.487,-0.12 -0.736,-0.167 -0.235,-0.041 -0.471,-0.077 -0.708,-0.106 -0.22,-0.03 -0.439,-0.06 -0.661,-0.08 -0.406,-0.038 -0.813,-0.059 -1.22,-0.063 z m -2.127,2.021 1.891,4.441 3.236,-2.748 v 7.678 l 7.5,6.108 -2.305,1.533 -6.407,-0.065 3.588,4.865 c -1.595,0.871 -3.425,1.367 -5.376,1.367 -4.667,0 -8.649,-2.83 -10.336,-6.874 0.883,-3.411 2.202,-6.705 4.091,-8.542 0.806,-2.965 2.378,-5.42 4.118,-7.763 z m 2.227,10.579 10e-4,1.193 2.699,0.207 c -0.347,-0.839 -1.102,-1.225 -2.7,-1.4 z"
     fill="#a7695f"
     fill-rule="nonzero"
     id="path9" />
  <path
     id="path914"
     style="clip-rule:evenodd;fill:#a7695f;fill-opacity:1;fill-rule:evenodd;stroke-width:1;stroke-linejoin:round;stroke-miterlimit:2"
     d="m 10,50.982422 v 3.40039 c 0,2.020002 0.802469,3.957719 2.230469,5.386719 1.429,1.428 3.366717,2.230469 5.386719,2.230469 h 28.765624 c 2.020002,0 3.957719,-0.802469 5.386719,-2.230469 C 53.197531,58.340531 54,56.402814 54,54.382812 v -3.40039 z" />
</svg>
