<?xml version="1.0" encoding="UTF-8" standalone="no"?>
<svg
   clip-rule="evenodd"
   fill-rule="evenodd"
   stroke-linejoin="round"
   stroke-miterlimit="2"
   viewBox="0 0 48 48"
   version="1.1"
   id="svg11"
   sodipodi:docname="xopt.svg"
   inkscape:version="1.1.2 (0a00cf5339, 2022-02-04)"
   xmlns:inkscape="http://www.inkscape.org/namespaces/inkscape"
   xmlns:sodipodi="http://sodipodi.sourceforge.net/DTD/sodipodi-0.dtd"
   xmlns:xlink="http://www.w3.org/1999/xlink"
   xmlns="http://www.w3.org/2000/svg"
   xmlns:svg="http://www.w3.org/2000/svg">
  <defs
     id="defs15">
    <linearGradient
       inkscape:collect="always"
       xlink:href="#a"
       id="linearGradient949"
       gradientUnits="userSpaceOnUse"
       gradientTransform="matrix(0,-37.21425,37.21425,0,133.41,38.316)"
       x2="1" />
  </defs>
  <sodipodi:namedview
     id="namedview13"
     pagecolor="#ffffff"
     bordercolor="#666666"
     borderopacity="1.0"
     inkscape:pageshadow="2"
     inkscape:pageopacity="0.0"
     inkscape:pagecheckerboard="0"
     showgrid="false"
     inkscape:zoom="14.208333"
     inkscape:cx="24"
     inkscape:cy="24"
     inkscape:window-width="1896"
     inkscape:window-height="1022"
     inkscape:window-x="12"
     inkscape:window-y="46"
     inkscape:window-maximized="1"
     inkscape:current-layer="svg11" />
  <linearGradient
     id="a"
     x2="1"
     gradientTransform="matrix(0,-37.21425,37.21425,0,133.41,38.316)"
     gradientUnits="userSpaceOnUse">
    <stop
       stop-color="#a5a5a5"
       offset="0"
       id="stop2" />
    <stop
       stop-color="#cfd7dd"
       offset="1"
       id="stop4" />
  </linearGradient>
  <path
     id="path7"
     style="stroke-width:0.75;fill:url(#linearGradient949)"
     d="M 13.212891 1.1015625 C 11.697891 1.1015625 10.245578 1.7043906 9.1738281 2.7753906 C 8.1028281 3.8471406 7.5 5.2994531 7.5 6.8144531 L 7.5 10.386719 L 7.5 40.787109 C 7.5 42.302109 8.1028281 43.754422 9.1738281 44.826172 C 10.245578 45.897172 11.697891 46.5 13.212891 46.5 L 34.787109 46.5 C 36.302109 46.5 37.754422 45.897172 38.826172 44.826172 C 39.897172 43.754422 40.5 42.302109 40.5 40.787109 L 40.5 10.386719 L 40.5 6.8144531 C 40.5 5.2994531 39.897172 3.8471406 38.826172 2.7753906 C 37.754422 1.7043906 36.302109 1.1015625 34.787109 1.1015625 L 29.136719 1.1015625 L 18.863281 1.1015625 L 13.212891 1.1015625 z " />
  <path
     transform="translate(-.000214 -6)"
     d="m26.032 27.305c.073.082.267.265.582.548 4.422 4.385 6.548 6.341 6.377 6.867-.123.387-.477.714-1.063.983-.585.254-1.112.369-1.581.345-.371-.019-2.134-1.367-5.289-5.045-.636-.771-1.01-1.206-1.121-1.306-.462.48-1.153 1.466-2.073 2.96-1.183 2.383-2.741 4.582-3.633 7.099-.272.882-.965 1.295-2.079 1.239-.586-.029-.946-.22-1.081-.573-.134-.352-.079-.899.165-1.641.468-1.485 2.719-5.087 6.753-10.808-.022-.252-.601-1.169-1.734-2.75s-2.032-2.778-2.699-3.393c-.721-.665-1.022-1.175-.901-1.53.273-.882 1.132-1.287 2.578-1.214.703.036 1.957 1.518 3.761 4.248.771 1.123 1.275 1.808 1.514 2.056.416-.372 1.009-1.057 1.779-2.055.771-1.014 1.304-1.836 1.6-2.465.292-.582.753-1.046 1.383-1.391.63-.346 1.229-.504 1.795-.476.879.044 1.198.43.955 1.156-.273.882-1.858 2.821-4.756 5.817-.756.779-1.167 1.222-1.232 1.329"
     fill="#f60"
     fill-rule="nonzero"
     id="path9"
     style="fill:#56646d;fill-opacity:1" />
  <path
     id="path1057"
     style="fill:#56646d;fill-opacity:1"
     d="m 7.4998627,38.667977 v 2.11914 c 0,1.515 0.602827,2.967063 1.673827,4.039063 0.8040003,0.80325 1.8221403,1.342751 2.9199223,1.5625 0,0 0.002,0 0.002,0 0.182349,0.03644 0.366588,0.06547 0.552735,0.08398 0,0 0.002,0 0.002,0 0.186153,0.01845 0.373779,0.02734 0.5625,0.02734 h 0.002 21.570309 c 0.568124,0 1.128063,-0.0856 1.66211,-0.248047 0.8895,-0.27074 1.708905,-0.756406 2.378906,-1.425781 C 39.897171,43.754172 40.5,42.302109 40.5,40.787109 v -2.11914 z" />
</svg>
