<?xml version="1.0" encoding="UTF-8" standalone="no"?>
<svg
   clip-rule="evenodd"
   fill-rule="evenodd"
   stroke-linejoin="round"
   stroke-miterlimit="2"
   viewBox="0 0 64 64"
   version="1.1"
   id="svg15"
   sodipodi:docname="application-x-remote-connection.svg"
   inkscape:version="1.1.2 (0a00cf5339, 2022-02-04)"
   xmlns:inkscape="http://www.inkscape.org/namespaces/inkscape"
   xmlns:sodipodi="http://sodipodi.sourceforge.net/DTD/sodipodi-0.dtd"
   xmlns:xlink="http://www.w3.org/1999/xlink"
   xmlns="http://www.w3.org/2000/svg"
   xmlns:svg="http://www.w3.org/2000/svg">
  <defs
     id="defs19">
    <linearGradient
       inkscape:collect="always"
       xlink:href="#a"
       id="linearGradient5320"
       gradientUnits="userSpaceOnUse"
       gradientTransform="matrix(0,-49.619,49.619,0,177.88,51.088)"
       x2="1" />
  </defs>
  <sodipodi:namedview
     id="namedview17"
     pagecolor="#ffffff"
     bordercolor="#666666"
     borderopacity="1.0"
     inkscape:pageshadow="2"
     inkscape:pageopacity="0.0"
     inkscape:pagecheckerboard="0"
     showgrid="false"
     inkscape:zoom="10.65625"
     inkscape:cx="32"
     inkscape:cy="32"
     inkscape:window-width="942"
     inkscape:window-height="1022"
     inkscape:window-x="12"
     inkscape:window-y="46"
     inkscape:window-maximized="1"
     inkscape:current-layer="svg15" />
  <linearGradient
     id="a"
     x2="1"
     gradientTransform="matrix(0,-49.619,49.619,0,177.88,51.088)"
     gradientUnits="userSpaceOnUse">
    <stop
       stop-color="#368acf"
       offset="0"
       id="stop2" />
    <stop
       stop-color="#7fb6d9"
       offset="1"
       id="stop4" />
  </linearGradient>
  <path
     id="path7"
     style="fill:url(#linearGradient5320)"
     d="M 17.617188 1.46875 C 15.597188 1.46875 13.659469 2.2712188 12.230469 3.6992188 C 10.802469 5.1282186 10 7.0678906 10 9.0878906 L 10 12.095703 L 10 54.382812 C 10 56.402814 10.802469 58.340531 12.230469 59.769531 C 13.659469 61.197531 15.597187 62 17.617188 62 L 46.382812 62 C 48.402814 62 50.340531 61.197531 51.769531 59.769531 C 53.197531 58.340531 54 56.402814 54 54.382812 L 54 12.095703 L 54 9.0878906 C 54 7.0678906 53.197531 5.1282186 51.769531 3.6992188 C 50.340531 2.2712188 48.402813 1.46875 46.382812 1.46875 L 37.445312 1.46875 L 26.554688 1.46875 L 17.617188 1.46875 z " />
  <g
     transform="translate(-1.25592,0.15242145)"
     fill="#ffffff"
     fill-rule="nonzero"
     id="g13">
    <path
       d="m 20.789,20.006 c -0.3,0.038 -0.526,0.291 -0.529,0.593 v 10.814 c 0,0.317 0.272,0.597 0.589,0.597 h 5.405 v 1.999 h -3.995 v 2 h 6.997 V 30.007 H 22.701 C 22.48,29.997 22.303,29.82 22.293,29.598 v -7.181 c -0.007,-0.189 0.129,-0.374 0.31,-0.408 0.032,-0.004 0.063,-0.004 0.095,0 h 11.127 c 0.204,0 0.404,0.189 0.404,0.404 v 2.593 h 2.03 v -4.407 c -0.012,-0.322 -0.271,-0.581 -0.594,-0.593"
       fill-opacity="0.3"
       id="path9" />
    <path
       d="m 30.794,26.008 c -0.3,0.04 -0.529,0.292 -0.541,0.593 v 10.81 c 0,0.314 0.287,0.597 0.605,0.597 h 5.393 v 2.994 h 4.003 v -2.994 h 5.401 c 0.323,-0.012 0.586,-0.274 0.597,-0.597 v -10.81 c -0.013,-0.322 -0.275,-0.584 -0.597,-0.597 m -13.051,2.003 c 0.025,-0.004 0.051,-0.004 0.076,0 h 11.146 c 0.216,0.008 0.393,0.184 0.4,0.401 v 7.2 c -0.007,0.217 -0.184,0.393 -0.4,0.401 h -11.15 c -0.217,-0.008 -0.393,-0.184 -0.401,-0.401 v -7.2 c 0.001,-0.195 0.139,-0.364 0.329,-0.405 m -0.352,12.001 v 2.003 h 12.001 v -2.003"
       fill-opacity="0.7"
       id="path11" />
  </g>
  <path
     id="path914"
     style="clip-rule:evenodd;fill:#183c5a;fill-opacity:1;fill-rule:evenodd;stroke-width:1;stroke-linecap:round;stroke-linejoin:round;stroke-miterlimit:2"
     d="m 9.999999,50.982422 v 3.40039 c 0,2.020002 0.802468,3.957719 2.23047,5.386719 C 13.659467,61.197531 15.597183,62 17.617187,62 h 28.765625 c 2.020002,0 3.957718,-0.802469 5.386719,-2.230469 C 53.19753,58.340531 54,56.402814 54,54.382812 v -3.40039 z" />
</svg>
