<?xml version="1.0" encoding="UTF-8" standalone="no"?>
<svg
   style="clip-rule:evenodd;fill-rule:evenodd;stroke-linejoin:round;stroke-miterlimit:2"
   viewBox="0 0 64 64"
   version="1.1"
   id="svg23"
   sodipodi:docname="application-video.svg"
   inkscape:version="1.1.2 (0a00cf5339, 2022-02-04)"
   xmlns:inkscape="http://www.inkscape.org/namespaces/inkscape"
   xmlns:sodipodi="http://sodipodi.sourceforge.net/DTD/sodipodi-0.dtd"
   xmlns:xlink="http://www.w3.org/1999/xlink"
   xmlns="http://www.w3.org/2000/svg"
   xmlns:svg="http://www.w3.org/2000/svg">
  <sodipodi:namedview
     id="namedview25"
     pagecolor="#ffffff"
     bordercolor="#666666"
     borderopacity="1.0"
     inkscape:pageshadow="2"
     inkscape:pageopacity="0.0"
     inkscape:pagecheckerboard="0"
     showgrid="false"
     inkscape:zoom="10.671875"
     inkscape:cx="38.278184"
     inkscape:cy="31.906296"
     inkscape:window-width="945"
     inkscape:window-height="1026"
     inkscape:window-x="965"
     inkscape:window-y="44"
     inkscape:window-maximized="1"
     inkscape:current-layer="svg23" />
  <path
     id="path2"
     style="fill:url(#linearGradient4666)"
     d="M 17.617188 1.734375 C 15.597188 1.734375 13.659469 2.5368438 12.230469 3.9648438 C 10.802469 5.3938437 10 7.3315625 10 9.3515625 L 10 14.007812 L 10 54.648438 C 10 56.668438 10.802469 58.606156 12.230469 60.035156 C 13.659469 61.463156 15.597186 62.265625 17.617188 62.265625 L 46.382812 62.265625 C 48.402814 62.265625 50.340531 61.463156 51.769531 60.035156 C 53.197531 58.606156 54 56.668438 54 54.648438 L 54 14.007812 L 54 9.3515625 C 54 7.3315625 53.197531 5.3938437 51.769531 3.9648438 C 50.340531 2.5368438 48.402813 1.734375 46.382812 1.734375 L 36.191406 1.734375 L 27.808594 1.734375 L 17.617188 1.734375 z " />
  <path
     id="path914"
     style="clip-rule:evenodd;fill:#402d56;fill-opacity:1;fill-rule:evenodd;stroke-width:1;stroke-linejoin:round;stroke-miterlimit:2"
     d="m 10,51.248422 v 3.40039 c 0,2.020002 0.802469,3.957719 2.230469,5.386719 1.429,1.428 3.366717,2.230469 5.386719,2.230469 h 28.765624 c 2.020002,0 3.957719,-0.802469 5.386719,-2.230469 C 53.197531,58.606531 54,56.668814 54,54.648812 v -3.40039 z" />
  <path
     d="m24.206 59.24l-1.623-4.016h0.82l1.18 3.114h0.016l1.197-3.114h0.803l-1.639 4.016h-0.754z"
     style="fill-rule:nonzero;fill:#fff"
     id="path4" />
  <path
     d="m27.91 54.216c-0.103 0.104-0.229 0.156-0.377 0.156-0.147 0-0.273-0.052-0.377-0.156-0.103-0.104-0.155-0.229-0.155-0.377 0-0.147 0.052-0.273 0.155-0.377 0.104-0.104 0.23-0.156 0.377-0.156 0.148 0 0.274 0.052 0.377 0.156 0.104 0.104 0.156 0.23 0.156 0.377 0 0.148-0.052 0.273-0.156 0.377zm0 5.024h-0.754v-4.016h0.754v4.016z"
     style="fill-rule:nonzero;fill:#fff"
     id="path6" />
  <path
     d="m30.532 59.371c-0.519 0-0.967-0.205-1.344-0.615-0.377-0.409-0.566-0.918-0.566-1.524s0.189-1.115 0.566-1.524c0.377-0.41 0.825-0.615 1.344-0.615 0.306 0 0.579 0.066 0.819 0.197 0.246 0.131 0.429 0.295 0.549 0.491h0.033l-0.033-0.557v-1.852h0.754v5.868h-0.721v-0.557h-0.033c-0.12 0.196-0.303 0.36-0.549 0.491-0.24 0.131-0.513 0.197-0.819 0.197zm0.123-0.688c0.355 0 0.655-0.132 0.901-0.394 0.252-0.262 0.377-0.614 0.377-1.057s-0.125-0.795-0.377-1.057c-0.246-0.262-0.546-0.394-0.901-0.394-0.35 0-0.651 0.134-0.902 0.402-0.251 0.262-0.377 0.612-0.377 1.049s0.126 0.789 0.377 1.057c0.251 0.262 0.552 0.394 0.902 0.394z"
     style="fill-rule:nonzero;fill:#fff"
     id="path8" />
  <path
     d="m35.345 59.371c-0.606 0-1.101-0.202-1.483-0.606-0.377-0.405-0.566-0.916-0.566-1.533 0-0.585 0.183-1.087 0.549-1.508 0.372-0.421 0.844-0.631 1.418-0.631 0.596 0 1.071 0.194 1.426 0.582 0.361 0.388 0.541 0.907 0.541 1.557l-8e-3 0.139h-3.172c0.022 0.405 0.156 0.724 0.402 0.959 0.251 0.235 0.543 0.353 0.877 0.353 0.541 0 0.907-0.23 1.098-0.689l0.672 0.279c-0.131 0.311-0.347 0.573-0.648 0.787-0.3 0.207-0.669 0.311-1.106 0.311zm1.082-2.623c-0.017-0.229-0.123-0.448-0.32-0.655-0.191-0.208-0.478-0.312-0.86-0.312-0.279 0-0.522 0.088-0.73 0.263-0.202 0.174-0.341 0.409-0.418 0.704h2.328z"
     style="fill-rule:nonzero;fill:#fff"
     id="path10" />
  <path
     d="m38.312 55.708c0.388-0.41 0.882-0.615 1.483-0.615s1.096 0.205 1.484 0.615c0.388 0.404 0.582 0.912 0.582 1.524s-0.194 1.123-0.582 1.533c-0.388 0.404-0.883 0.606-1.484 0.606s-1.095-0.202-1.483-0.606c-0.388-0.41-0.582-0.921-0.582-1.533s0.194-1.12 0.582-1.524zm0.557 2.581c0.263 0.262 0.571 0.394 0.926 0.394s0.661-0.132 0.918-0.394c0.262-0.268 0.394-0.62 0.394-1.057s-0.132-0.787-0.394-1.049c-0.257-0.268-0.563-0.402-0.918-0.402s-0.663 0.134-0.926 0.402c-0.257 0.262-0.385 0.612-0.385 1.049s0.128 0.789 0.385 1.057z"
     style="fill-rule:nonzero;fill:#fff"
     id="path12" />
  <path
     d="m42.083 16.156h-1.089c-0.258 0-0.468 0.209-0.468 0.468v0.582c0 0.259-0.209 0.469-0.468 0.469h-1.015c-0.258 0-0.468-0.21-0.468-0.469v-0.582c0-0.259-0.209-0.468-0.468-0.468h-12.222c-0.258 0-0.468 0.209-0.468 0.468v0.582c0 0.259-0.209 0.469-0.468 0.469h-1.015c-0.258 0-0.468-0.21-0.468-0.469v-0.582c0-0.259-0.209-0.468-0.468-0.468h-1.052c-0.258 0-0.468 0.209-0.468 0.468v21.064c0 0.258 0.21 0.468 0.468 0.468h1.052c0.259 0 0.468-0.21 0.468-0.468v-0.428c0-0.259 0.21-0.468 0.468-0.468h1.015c0.259 0 0.468 0.209 0.468 0.468v0.428c0 0.258 0.21 0.468 0.468 0.468h12.222c0.259 0 0.468-0.21 0.468-0.468v-0.428c0-0.259 0.21-0.468 0.468-0.468h1.015c0.259 0 0.468 0.209 0.468 0.468v0.428c0 0.258 0.21 0.468 0.468 0.468h1.089c0.259 0 0.468-0.21 0.468-0.468v-21.064c0-0.259-0.209-0.468-0.468-0.468zm-16.666 17.913c0 0.258-0.209 0.468-0.468 0.468h-1.015c-0.258 0-0.468-0.21-0.468-0.468v-1.015c0-0.259 0.21-0.468 0.468-0.468h1.015c0.259 0 0.468 0.209 0.468 0.468v1.015zm0-4.206c0 0.258-0.209 0.468-0.468 0.468h-1.015c-0.258 0-0.468-0.21-0.468-0.468v-1.015c0-0.259 0.21-0.469 0.468-0.469h1.015c0.259 0 0.468 0.21 0.468 0.469v1.015zm0-4.207c0 0.259-0.209 0.469-0.468 0.469h-1.015c-0.258 0-0.468-0.21-0.468-0.469v-1.015c0-0.258 0.21-0.468 0.468-0.468h1.015c0.259 0 0.468 0.21 0.468 0.468v1.015zm0-4.206c0 0.259-0.209 0.468-0.468 0.468h-1.015c-0.258 0-0.468-0.209-0.468-0.468v-1.015c0-0.258 0.21-0.468 0.468-0.468h1.015c0.259 0 0.468 0.21 0.468 0.468v1.015zm11.134 14.231c0 0.259-0.209 0.468-0.468 0.468h-8.137c-0.258 0-0.468-0.209-0.468-0.468v-3.761c0-0.259 0.21-0.468 0.468-0.468h8.137c0.259 0 0.468 0.209 0.468 0.468v3.761zm0-6.644c0 0.258-0.209 0.468-0.468 0.468h-8.137c-0.258 0-0.468-0.21-0.468-0.468v-3.762c0-0.258 0.21-0.468 0.468-0.468h8.137c0.259 0 0.468 0.21 0.468 0.468v3.762zm0-6.645c0 0.259-0.209 0.468-0.468 0.468h-8.137c-0.258 0-0.468-0.209-0.468-0.468v-3.762c0-0.258 0.21-0.468 0.468-0.468h8.137c0.259 0 0.468 0.21 0.468 0.468v3.762zm3.975 11.677c0 0.258-0.209 0.468-0.468 0.468h-1.015c-0.258 0-0.468-0.21-0.468-0.468v-1.015c0-0.259 0.21-0.468 0.468-0.468h1.015c0.259 0 0.468 0.209 0.468 0.468v1.015zm0-4.206c0 0.258-0.209 0.468-0.468 0.468h-1.015c-0.258 0-0.468-0.21-0.468-0.468v-1.015c0-0.259 0.21-0.469 0.468-0.469h1.015c0.259 0 0.468 0.21 0.468 0.469v1.015zm0-4.207c0 0.259-0.209 0.469-0.468 0.469h-1.015c-0.258 0-0.468-0.21-0.468-0.469v-1.015c0-0.258 0.21-0.468 0.468-0.468h1.015c0.259 0 0.468 0.21 0.468 0.468v1.015zm0-4.206c0 0.259-0.209 0.468-0.468 0.468h-1.015c-0.258 0-0.468-0.209-0.468-0.468v-1.015c0-0.258 0.21-0.468 0.468-0.468h1.015c0.259 0 0.468 0.21 0.468 0.468v1.015z"
     style="fill-rule:nonzero;fill:#c9c9c9"
     id="path14" />
  <defs
     id="defs21">
    <linearGradient
       id="_Linear1"
       x2="1"
       gradientTransform="matrix(0,-49.619,49.619,0,469.44,51.3535)"
       gradientUnits="userSpaceOnUse">
      <stop
         style="stop-color:#523a6f"
         offset="0"
         id="stop16" />
      <stop
         style="stop-color:#a7338c"
         offset="1"
         id="stop18" />
    </linearGradient>
    <linearGradient
       inkscape:collect="always"
       xlink:href="#_Linear1"
       id="linearGradient4666"
       gradientUnits="userSpaceOnUse"
       gradientTransform="matrix(0,-49.619,49.619,0,469.44,51.3535)"
       x2="1" />
  </defs>
</svg>
