<?xml version="1.0" encoding="UTF-8" standalone="no"?>
<svg
   style="clip-rule:evenodd;fill-rule:evenodd;stroke-linejoin:round;stroke-miterlimit:2"
   viewBox="0 0 64 64"
   version="1.1"
   id="svg31"
   sodipodi:docname="application-x-blender.svg"
   inkscape:version="1.1.2 (0a00cf5339, 2022-02-04)"
   xmlns:inkscape="http://www.inkscape.org/namespaces/inkscape"
   xmlns:sodipodi="http://sodipodi.sourceforge.net/DTD/sodipodi-0.dtd"
   xmlns:xlink="http://www.w3.org/1999/xlink"
   xmlns="http://www.w3.org/2000/svg"
   xmlns:svg="http://www.w3.org/2000/svg">
  <sodipodi:namedview
     id="namedview33"
     pagecolor="#ffffff"
     bordercolor="#666666"
     borderopacity="1.0"
     inkscape:pageshadow="2"
     inkscape:pageopacity="0.0"
     inkscape:pagecheckerboard="0"
     showgrid="false"
     inkscape:zoom="10.65625"
     inkscape:cx="32"
     inkscape:cy="32"
     inkscape:window-width="1896"
     inkscape:window-height="1022"
     inkscape:window-x="12"
     inkscape:window-y="46"
     inkscape:window-maximized="1"
     inkscape:current-layer="svg31" />
  <path
     id="path2"
     style="fill:url(#linearGradient4842)"
     d="M 17.617188 1.46875 C 15.597188 1.46875 13.659469 2.2712188 12.230469 3.6992188 C 10.802469 5.1282186 10 7.0678906 10 9.0878906 L 10 15.958984 L 10 54.382812 C 10 56.402814 10.802469 58.340531 12.230469 59.769531 C 13.659469 61.197531 15.597187 62 17.617188 62 L 46.382812 62 C 48.402814 62 50.340531 61.197531 51.769531 59.769531 C 53.197531 58.340531 54 56.402814 54 54.382812 L 54 15.958984 L 54 9.0878906 C 54 7.0678906 53.197531 5.1282186 51.769531 3.6992188 C 50.340531 2.2712188 48.402813 1.46875 46.382812 1.46875 L 38.193359 1.46875 L 25.806641 1.46875 L 17.617188 1.46875 z " />
  <path
     id="path2-3"
     style="clip-rule:evenodd;fill:#893d12;fill-opacity:1;fill-rule:evenodd;stroke-linejoin:round;stroke-miterlimit:2"
     d="m 10,50.982422 v 3.398437 0.002 c 6.5e-5,0.251841 0.01244,0.501552 0.03711,0.75 v 0.002 c 0.02473,0.248442 0.06268,0.494885 0.111329,0.738281 v 0.002 c 0.04871,0.243391 0.109702,0.484016 0.18164,0.720703 v 0.002 c 0.072,0.236684 0.155456,0.468944 0.25,0.697266 v 0.002 c 0.09461,0.228323 0.199937,0.453573 0.316406,0.671875 v 0.002 c 0.116532,0.218305 0.245101,0.430096 0.382813,0.636719 v 0.002 c 0.137776,0.206628 0.287038,0.406326 0.445312,0.599609 v 0.002 c 0.158341,0.193289 0.327703,0.378358 0.50586,0.55664 v 0.002 c 0.7145,0.714 1.557101,1.271274 2.472656,1.650391 C 15.618679,61.799106 16.607187,62 17.617188,62 h 28.765624 c 1.010002,0 1.998509,-0.200473 2.914063,-0.580078 0.915555,-0.379117 1.758156,-0.936391 2.472656,-1.650391 v -0.002 C 53.197531,58.338626 54,56.400859 54,54.380859 v -3.398437 z" />
  <path
     d="m22.01 59.4c-0.296 0-0.562-0.063-0.8-0.19-0.233-0.127-0.407-0.285-0.523-0.476h-0.032v0.539h-0.697v-5.673h0.729v1.791l-0.032 0.539h0.032c0.116-0.191 0.29-0.349 0.523-0.476 0.238-0.127 0.504-0.19 0.8-0.19 0.502 0 0.935 0.198 1.3 0.594 0.364 0.396 0.546 0.888 0.546 1.474s-0.182 1.078-0.546 1.474c-0.365 0.396-0.798 0.594-1.3 0.594zm-0.119-0.666c0.338 0 0.629-0.126 0.872-0.38 0.243-0.259 0.364-0.599 0.364-1.022s-0.121-0.761-0.364-1.014c-0.243-0.259-0.534-0.388-0.872-0.388-0.343 0-0.636 0.126-0.879 0.38-0.238 0.253-0.357 0.594-0.357 1.022s0.119 0.769 0.357 1.022c0.243 0.254 0.536 0.38 0.879 0.38z"
     style="fill-rule:nonzero;fill:#fff"
     id="path4" />
  <rect
     x="24.477"
     y="53.6"
     width=".729"
     height="5.673"
     style="fill-rule:nonzero;fill:#fff"
     id="rect6" />
  <path
     d="m27.799 59.4c-0.586 0-1.064-0.195-1.434-0.586-0.365-0.391-0.547-0.885-0.547-1.482 0-0.565 0.177-1.051 0.531-1.458 0.359-0.407 0.816-0.61 1.371-0.61 0.575 0 1.035 0.187 1.378 0.563 0.349 0.375 0.523 0.876 0.523 1.505l-8e-3 0.135h-3.066c0.021 0.391 0.151 0.7 0.388 0.927 0.243 0.227 0.526 0.34 0.848 0.34 0.523 0 0.877-0.221 1.062-0.665l0.65 0.269c-0.127 0.301-0.336 0.555-0.626 0.761-0.291 0.201-0.647 0.301-1.07 0.301zm1.046-2.536c-0.016-0.221-0.119-0.433-0.309-0.633-0.185-0.201-0.462-0.301-0.832-0.301-0.27 0-0.505 0.084-0.705 0.253-0.196 0.169-0.331 0.396-0.404 0.681h2.25z"
     style="fill-rule:nonzero;fill:#fff"
     id="path8" />
  <path
     d="m30.977 55.391v0.539h0.032c0.106-0.185 0.272-0.341 0.499-0.468 0.227-0.132 0.47-0.198 0.729-0.198 0.481 0 0.848 0.148 1.102 0.444 0.253 0.295 0.38 0.692 0.38 1.188v2.377h-0.729v-2.266c0-0.718-0.32-1.077-0.959-1.077-0.301 0-0.546 0.121-0.737 0.364-0.19 0.238-0.285 0.515-0.285 0.832v2.147h-0.729v-3.882h0.697z"
     style="fill-rule:nonzero;fill:#fff"
     id="path10" />
  <path
     d="m36.207 59.4c-0.502 0-0.935-0.198-1.3-0.594-0.364-0.396-0.546-0.888-0.546-1.474s0.182-1.078 0.546-1.474c0.365-0.396 0.798-0.594 1.3-0.594 0.296 0 0.56 0.063 0.792 0.19 0.238 0.127 0.415 0.285 0.531 0.476h0.032l-0.032-0.539v-1.791h0.729v5.673h-0.697v-0.539h-0.032c-0.116 0.191-0.293 0.349-0.531 0.476-0.232 0.127-0.496 0.19-0.792 0.19zm0.119-0.666c0.343 0 0.633-0.126 0.871-0.38 0.243-0.253 0.365-0.594 0.365-1.022s-0.122-0.769-0.365-1.022c-0.238-0.254-0.528-0.38-0.871-0.38-0.338 0-0.629 0.129-0.872 0.388-0.243 0.253-0.364 0.591-0.364 1.014s0.121 0.763 0.364 1.022c0.243 0.254 0.534 0.38 0.872 0.38z"
     style="fill-rule:nonzero;fill:#fff"
     id="path12" />
  <path
     d="m40.86 59.4c-0.586 0-1.064-0.195-1.434-0.586-0.364-0.391-0.547-0.885-0.547-1.482 0-0.565 0.177-1.051 0.531-1.458 0.36-0.407 0.816-0.61 1.371-0.61 0.576 0 1.035 0.187 1.379 0.563 0.348 0.375 0.523 0.876 0.523 1.505l-8e-3 0.135h-3.067c0.022 0.391 0.151 0.7 0.389 0.927 0.243 0.227 0.525 0.34 0.847 0.34 0.523 0 0.877-0.221 1.062-0.665l0.65 0.269c-0.127 0.301-0.335 0.555-0.626 0.761-0.291 0.201-0.647 0.301-1.07 0.301zm1.046-2.536c-0.016-0.221-0.119-0.433-0.309-0.633-0.185-0.201-0.462-0.301-0.832-0.301-0.269 0-0.504 0.084-0.705 0.253-0.195 0.169-0.33 0.396-0.404 0.681h2.25z"
     style="fill-rule:nonzero;fill:#fff"
     id="path14" />
  <path
     d="m44.071 59.273h-0.729v-3.882h0.697v0.634h0.032c0.074-0.212 0.224-0.386 0.451-0.523 0.233-0.138 0.457-0.206 0.674-0.206 0.216 0 0.399 0.031 0.546 0.095l-0.277 0.681c-0.095-0.037-0.224-0.055-0.388-0.055-0.264 0-0.499 0.105-0.705 0.317-0.201 0.206-0.301 0.478-0.301 0.816v2.123z"
     style="fill-rule:nonzero;fill:#fff"
     id="path16" />
  <path
     d="m30.839 16.001c-0.885 0.027-1.599 0.762-1.599 1.648 0 0.52 0.246 1.01 0.662 1.321l1.875 1.442h-9.137c-0.904 0-1.649 0.744-1.649 1.649 0 0.904 0.745 1.649 1.649 1.649h4.157l-6.752 4.904c-0.446 0.308-0.713 0.816-0.713 1.358 0 0.905 0.744 1.649 1.649 1.649 0.362 0 0.714-0.119 1.002-0.339l3.45-2.507c-0.01 0.144-0.018 0.287-0.021 0.431 0 4.824 3.97 8.794 8.794 8.794s8.794-3.97 8.794-8.794c0-2.898-1.432-5.616-3.823-7.254-0.038-0.035-0.078-0.068-0.119-0.1l-7.145-5.496c-0.305-0.241-0.685-0.367-1.074-0.355z"
     style="fill-rule:nonzero;fill:#fff"
     id="path18" />
  <circle
     cx="34.206"
     cy="29.206"
     r="5.496"
     style="fill:#f7921e"
     id="circle20" />
  <circle
     cx="34.206"
     cy="29.206"
     r="2.199"
     style="fill:#fff"
     id="circle22" />
  <defs
     id="defs29">
    <linearGradient
       id="_Linear1"
       x2="1"
       gradientTransform="matrix(0,-49.619,49.619,0,104.99,51.088)"
       gradientUnits="userSpaceOnUse">
      <stop
         style="stop-color:#dc6725"
         offset="0"
         id="stop24" />
      <stop
         style="stop-color:#fab021"
         offset="1"
         id="stop26" />
    </linearGradient>
    <linearGradient
       inkscape:collect="always"
       xlink:href="#_Linear1"
       id="linearGradient4842"
       gradientUnits="userSpaceOnUse"
       gradientTransform="matrix(0,-49.619,49.619,0,104.99,51.088)"
       x2="1" />
  </defs>
</svg>
