<?xml version="1.0" encoding="UTF-8" standalone="no"?>
<svg
   style="clip-rule:evenodd;fill-rule:evenodd;stroke-linejoin:round;stroke-miterlimit:2"
   viewBox="0 0 64 64"
   version="1.1"
   id="svg19"
   sodipodi:docname="application-image-ico.svg"
   inkscape:version="1.1.2 (0a00cf5339, 2022-02-04)"
   xmlns:inkscape="http://www.inkscape.org/namespaces/inkscape"
   xmlns:sodipodi="http://sodipodi.sourceforge.net/DTD/sodipodi-0.dtd"
   xmlns:xlink="http://www.w3.org/1999/xlink"
   xmlns="http://www.w3.org/2000/svg"
   xmlns:svg="http://www.w3.org/2000/svg">
  <sodipodi:namedview
     id="namedview21"
     pagecolor="#ffffff"
     bordercolor="#666666"
     borderopacity="1.0"
     inkscape:pageshadow="2"
     inkscape:pageopacity="0.0"
     inkscape:pagecheckerboard="0"
     showgrid="false"
     inkscape:zoom="10.671875"
     inkscape:cx="37.060029"
     inkscape:cy="33.686676"
     inkscape:window-width="945"
     inkscape:window-height="1026"
     inkscape:window-x="965"
     inkscape:window-y="44"
     inkscape:window-maximized="1"
     inkscape:current-layer="svg19" />
  <path
     id="path2"
     style="fill:url(#linearGradient3804)"
     d="M 17.617188 1.46875 C 15.597188 1.46875 13.659469 2.2712188 12.230469 3.6992188 C 10.802469 5.1282186 10 7.0678906 10 9.0878906 L 10 12.306641 L 10 54.382812 C 10 56.402814 10.802469 58.340531 12.230469 59.769531 C 13.659469 61.197531 15.597187 62 17.617188 62 L 46.382812 62 C 48.402814 62 50.340531 61.197531 51.769531 59.769531 C 53.197531 58.340531 54 56.402814 54 54.382812 L 54 12.306641 L 54 9.0878906 C 54 7.0678906 53.197531 5.1282186 51.769531 3.6992188 C 50.340531 2.2712188 48.402813 1.46875 46.382812 1.46875 L 39.117188 1.46875 L 24.882812 1.46875 L 17.617188 1.46875 z " />
  <path
     id="path914"
     style="clip-rule:evenodd;fill:#296f79;fill-opacity:1;fill-rule:evenodd;stroke-width:1;stroke-linejoin:round;stroke-miterlimit:2"
     d="m 10,50.982422 v 3.40039 c 0,2.020002 0.802469,3.957719 2.230469,5.386719 1.429,1.428 3.366717,2.230469 5.386719,2.230469 h 28.765624 c 2.020002,0 3.957719,-0.802469 5.386719,-2.230469 C 53.197531,58.340531 54,56.402814 54,54.382812 v -3.40039 z" />
  <path
     d="m28.23 54.016c-0.104 0.104-0.23 0.156-0.377 0.156-0.148 0-0.273-0.052-0.377-0.156s-0.156-0.229-0.156-0.377c0-0.147 0.052-0.273 0.156-0.377s0.229-0.156 0.377-0.156c0.147 0 0.273 0.052 0.377 0.156s0.155 0.23 0.155 0.377c0 0.148-0.051 0.273-0.155 0.377zm0 5.024h-0.754v-4.016h0.754v4.016z"
     style="fill-rule:nonzero;fill:#fff"
     id="path4" />
  <path
     d="m31.007 59.171c-0.601 0-1.096-0.202-1.484-0.606-0.388-0.41-0.582-0.921-0.582-1.533s0.194-1.12 0.582-1.524c0.388-0.41 0.883-0.615 1.484-0.615 0.448 0 0.819 0.109 1.114 0.328 0.295 0.218 0.511 0.494 0.648 0.828l-0.689 0.286c-0.207-0.502-0.582-0.754-1.122-0.754-0.334 0-0.629 0.137-0.886 0.41-0.251 0.273-0.377 0.62-0.377 1.041s0.126 0.768 0.377 1.041c0.257 0.273 0.552 0.41 0.886 0.41 0.562 0 0.95-0.252 1.163-0.754l0.672 0.286c-0.136 0.328-0.358 0.604-0.664 0.828-0.3 0.219-0.674 0.328-1.122 0.328z"
     style="fill-rule:nonzero;fill:#fff"
     id="path6" />
  <path
     d="m33.749 55.508c0.388-0.41 0.882-0.615 1.483-0.615s1.096 0.205 1.484 0.615c0.388 0.404 0.582 0.912 0.582 1.524s-0.194 1.123-0.582 1.533c-0.388 0.404-0.883 0.606-1.484 0.606s-1.095-0.202-1.483-0.606c-0.388-0.41-0.582-0.921-0.582-1.533s0.194-1.12 0.582-1.524zm0.557 2.581c0.263 0.262 0.571 0.394 0.926 0.394 0.356 0 0.662-0.132 0.918-0.394 0.263-0.268 0.394-0.62 0.394-1.057s-0.131-0.787-0.394-1.049c-0.256-0.268-0.562-0.402-0.918-0.402-0.355 0-0.663 0.134-0.926 0.402-0.256 0.262-0.385 0.612-0.385 1.049s0.129 0.789 0.385 1.057z"
     style="fill-rule:nonzero;fill:#fff"
     id="path8" />
  <path
     d="m21.656 26.267l-7e-3 -7.152 8.021-1.195v8.347h-8.014zm9.35-8.56l10.692-1.707v10.267h-10.692v-8.56zm10.694 10.026l-2e-3 10.267-10.692-1.65v-8.617h10.694zm-12.03 8.43l-8.014-1.205-1e-3 -7.225h8.015v8.43z"
     style="fill-rule:nonzero;fill:#296f79"
     id="path10" />
  <defs
     id="defs17">
    <linearGradient
       id="_Linear1"
       x2="1"
       gradientTransform="matrix(0,-49.619,49.619,0,469.44,51.088)"
       gradientUnits="userSpaceOnUse">
      <stop
         style="stop-color:#348692"
         offset="0"
         id="stop12" />
      <stop
         style="stop-color:#69b9cd"
         offset="1"
         id="stop14" />
    </linearGradient>
    <linearGradient
       inkscape:collect="always"
       xlink:href="#_Linear1"
       id="linearGradient3804"
       gradientUnits="userSpaceOnUse"
       gradientTransform="matrix(0,-49.619,49.619,0,469.44,51.088)"
       x2="1" />
  </defs>
</svg>
