<?xml version="1.0" encoding="UTF-8" standalone="no"?>
<svg
   clip-rule="evenodd"
   fill-rule="evenodd"
   stroke-linejoin="round"
   stroke-miterlimit="2"
   viewBox="0 0 64 64"
   version="1.1"
   id="svg11"
   sodipodi:docname="image-vnd.dgn.svg"
   inkscape:version="1.1.2 (0a00cf5339, 2022-02-04)"
   xmlns:inkscape="http://www.inkscape.org/namespaces/inkscape"
   xmlns:sodipodi="http://sodipodi.sourceforge.net/DTD/sodipodi-0.dtd"
   xmlns:xlink="http://www.w3.org/1999/xlink"
   xmlns="http://www.w3.org/2000/svg"
   xmlns:svg="http://www.w3.org/2000/svg">
  <defs
     id="defs15">
    <linearGradient
       inkscape:collect="always"
       xlink:href="#a"
       id="linearGradient3174"
       gradientUnits="userSpaceOnUse"
       gradientTransform="matrix(0,-49.619,49.619,0,542.33,51.088)"
       x2="1" />
  </defs>
  <sodipodi:namedview
     id="namedview13"
     pagecolor="#ffffff"
     bordercolor="#666666"
     borderopacity="1.0"
     inkscape:pageshadow="2"
     inkscape:pageopacity="0.0"
     inkscape:pagecheckerboard="0"
     showgrid="false"
     inkscape:zoom="10.65625"
     inkscape:cx="32"
     inkscape:cy="32"
     inkscape:window-width="942"
     inkscape:window-height="1022"
     inkscape:window-x="12"
     inkscape:window-y="46"
     inkscape:window-maximized="1"
     inkscape:current-layer="svg11" />
  <linearGradient
     id="a"
     x2="1"
     gradientTransform="matrix(0,-49.619,49.619,0,542.33,51.088)"
     gradientUnits="userSpaceOnUse">
    <stop
       stop-color="#348692"
       offset="0"
       id="stop2" />
    <stop
       stop-color="#69b9cd"
       offset="1"
       id="stop4" />
  </linearGradient>
  <path
     id="path7"
     style="fill:url(#linearGradient3174)"
     d="M 17.617188 1.46875 C 15.597188 1.46875 13.659469 2.2712188 12.230469 3.6992188 C 10.802469 5.1282186 10 7.0678906 10 9.0878906 L 10 12.556641 L 10 54.382812 C 10 56.402814 10.802469 58.340531 12.230469 59.769531 C 13.659469 61.197531 15.597187 62 17.617188 62 L 46.382812 62 C 48.402814 62 50.340531 61.197531 51.769531 59.769531 C 53.197531 58.340531 54 56.402814 54 54.382812 L 54 12.556641 L 54 9.0878906 C 54 7.0678906 53.197531 5.1282186 51.769531 3.6992188 C 50.340531 2.2712188 48.402813 1.46875 46.382812 1.46875 L 39.783203 1.46875 L 24.216797 1.46875 L 17.617188 1.46875 z " />
  <path
     d="m23.585 37.999h7.107v.923h2.585v-.923h7.138v1.044h2.585v-2.585h-.954v-7.228h.923v-2.585h-.923v-6.71h.954v-2.585h-2.585v.526h-7.138v-.923h-2.585v.923h-7.107v-.646h-2.585v2.585h.923v6.83h-.923v2.585h.923v7.108h-.923v2.584h2.585zm-.739-.923v1.108h-1.108v-1.108zm8.585-18.277v-1.108h1.108v1.108zm1.108 18.277v1.108h-1.108v-1.108zm.123-8.723c.071.072.071.189 0 .261-.037.036-.084.054-.131.054s-.095-.018-.131-.054l-.415-.415-.416.415c-.036.036-.083.054-.13.054-.048 0-.095-.018-.131-.054-.072-.072-.072-.189 0-.261l.415-.415-.415-.416c-.072-.072-.072-.189 0-.261s.189-.072.261 0l.416.416.415-.416c.072-.072.189-.072.261 0s.072.189 0 .261l-.415.416zm9.6 9.951h-1.108v-1.107h1.108zm-1.847-1.846v.803h-5.782c3.223-.914 5.761-3.452 6.675-6.676v5.873zm1.816-7.966h-1.108v-1.108h1.108zm-1.077-10.403h1.108v1.108h-1.108zm-.739.526v1.32h.893v5.355c-.914-3.223-3.452-5.762-6.675-6.675zm-18.677-.647h1.108v1.108h-1.108zm1.847 1.847v-1.2h5.752c-3.223.913-5.762 3.452-6.675 6.675v-5.475zm-1.847 7.569h1.108v1.107h-1.108zm.924 3.201c.913 3.224 3.452 5.762 6.675 6.676h-5.752v-.923h-.923z"
     fill="#124c59"
     fill-rule="nonzero"
     id="path9" />
  <path
     id="path2-3"
     style="clip-rule:evenodd;fill:#124c59;fill-opacity:1;fill-rule:evenodd;stroke-linejoin:round;stroke-miterlimit:2"
     d="m 10.000001,50.982422 v 3.398437 0.002 c 6.5e-5,0.251841 0.01244,0.501552 0.03711,0.75 v 0.002 c 0.02473,0.248442 0.06268,0.494885 0.111329,0.738281 v 0.002 c 0.04871,0.243391 0.109702,0.484016 0.18164,0.720703 v 0.002 c 0.072,0.236684 0.155456,0.468944 0.25,0.697266 v 0.002 c 0.09461,0.228323 0.199936,0.453573 0.316406,0.671875 v 0.002 c 0.116531,0.218305 0.245101,0.430096 0.382813,0.636719 v 0.002 c 0.137776,0.206628 0.287038,0.406326 0.445312,0.599609 v 0.002 c 0.158341,0.193289 0.327702,0.378358 0.50586,0.55664 v 0.002 c 0.714499,0.714 1.5571,1.271274 2.472656,1.650391 C 15.61868,61.799106 16.607187,62 17.617188,62 h 28.765624 c 1.010002,0 1.998509,-0.200473 2.914063,-0.580078 0.915555,-0.379117 1.758156,-0.936391 2.472656,-1.650391 v -0.002 C 53.197531,58.338626 54,56.400859 54,54.380859 v -3.398437 z" />
</svg>
