<?xml version="1.0" encoding="UTF-8" standalone="no"?>
<svg
   style="clip-rule:evenodd;fill-rule:evenodd;stroke-miterlimit:10"
   viewBox="0 0 64 64"
   version="1.1"
   id="svg31"
   sodipodi:docname="image-x-xcf.svg"
   inkscape:version="1.1.2 (0a00cf5339, 2022-02-04)"
   xmlns:inkscape="http://www.inkscape.org/namespaces/inkscape"
   xmlns:sodipodi="http://sodipodi.sourceforge.net/DTD/sodipodi-0.dtd"
   xmlns:xlink="http://www.w3.org/1999/xlink"
   xmlns="http://www.w3.org/2000/svg"
   xmlns:svg="http://www.w3.org/2000/svg">
  <sodipodi:namedview
     id="namedview33"
     pagecolor="#ffffff"
     bordercolor="#666666"
     borderopacity="1.0"
     inkscape:pageshadow="2"
     inkscape:pageopacity="0.0"
     inkscape:pagecheckerboard="0"
     showgrid="false"
     inkscape:zoom="10.65625"
     inkscape:cx="32"
     inkscape:cy="32"
     inkscape:window-width="1896"
     inkscape:window-height="1022"
     inkscape:window-x="12"
     inkscape:window-y="46"
     inkscape:window-maximized="1"
     inkscape:current-layer="svg31" />
  <path
     id="path2"
     style="fill:url(#linearGradient3426)"
     d="M 17.617188 1.734375 C 15.597188 1.734375 13.659469 2.5377969 12.230469 3.9667969 C 10.802469 5.3947969 10 7.3315625 10 9.3515625 L 10 13.955078 L 10 54.648438 C 10 56.668437 10.802469 58.605203 12.230469 60.033203 C 13.123594 60.926328 14.215893 61.574525 15.402344 61.935547 C 15.876924 62.079956 16.367043 62.179133 16.865234 62.228516 C 17.11433 62.253207 17.364687 62.26575 17.617188 62.265625 C 25.677188 62.265625 38.322812 62.264625 46.382812 62.265625 C 46.635313 62.265625 46.88567 62.253275 47.134766 62.228516 C 47.632957 62.179133 48.123076 62.079956 48.597656 61.935547 C 49.784107 61.574525 50.876406 60.926328 51.769531 60.033203 C 53.197531 58.605203 54 56.668437 54 54.648438 L 54 13.955078 L 54 9.3515625 C 54 7.3315625 53.197531 5.3947969 51.769531 3.9667969 C 50.340531 2.5377969 48.402813 1.734375 46.382812 1.734375 C 43.504932 1.734375 40.056757 1.734397 36.945312 1.734375 C 33.254894 1.7342866 30.315523 1.7343519 27.054688 1.734375 C 23.943243 1.734397 20.495068 1.734375 17.617188 1.734375 z " />
  <path
     id="path2-3"
     style="clip-rule:evenodd;fill:#6f2519;fill-opacity:1;fill-rule:evenodd;stroke-linejoin:round;stroke-miterlimit:2"
     d="m 10.000001,51.248422 v 3.398437 0.002 c 6.5e-5,0.251841 0.01244,0.501552 0.03711,0.75 v 0.002 c 0.02473,0.248442 0.06268,0.494885 0.111329,0.738281 v 0.002 c 0.04871,0.243391 0.109702,0.484016 0.18164,0.720703 v 0.002 c 0.072,0.236684 0.155456,0.468944 0.25,0.697266 v 0.002 c 0.09461,0.228323 0.199936,0.453573 0.316406,0.671875 v 0.002 c 0.116531,0.218305 0.245101,0.430096 0.382813,0.636719 v 0.002 c 0.137776,0.206628 0.287038,0.406326 0.445312,0.599609 v 0.002 c 0.158341,0.193289 0.327702,0.378358 0.50586,0.55664 v 0.002 c 0.714499,0.714 1.5571,1.271274 2.472656,1.650391 0.915553,0.378763 1.90406,0.579657 2.914061,0.579657 h 28.765624 c 1.010002,0 1.998509,-0.200473 2.914063,-0.580078 0.915555,-0.379117 1.758156,-0.936391 2.472656,-1.650391 v -0.002 C 53.197531,58.604626 54,56.666859 54,54.646859 v -3.398437 z" />
  <path
     d="m30.454 59.34h-0.885l-0.992-1.484-0.975 1.484h-0.885l1.418-2.041-1.385-1.975h0.852l0.992 1.418 0.942-1.418h0.885l-1.401 1.975 1.434 2.041z"
     style="fill-rule:nonzero;fill:#fff"
     id="path4" />
  <path
     d="m32.692 59.471c-0.601 0-1.096-0.202-1.484-0.606-0.388-0.41-0.581-0.921-0.581-1.533s0.193-1.12 0.581-1.524c0.388-0.41 0.883-0.615 1.484-0.615 0.448 0 0.819 0.109 1.114 0.328 0.295 0.218 0.511 0.494 0.648 0.828l-0.689 0.286c-0.207-0.502-0.581-0.754-1.122-0.754-0.334 0-0.629 0.137-0.886 0.41-0.251 0.273-0.377 0.62-0.377 1.041s0.126 0.768 0.377 1.041c0.257 0.273 0.552 0.41 0.886 0.41 0.562 0 0.95-0.252 1.163-0.754l0.672 0.286c-0.136 0.328-0.357 0.604-0.663 0.828-0.301 0.219-0.675 0.328-1.123 0.328z"
     style="fill-rule:nonzero;fill:#fff"
     id="path6" />
  <path
     d="m37.048 53.439c0.24 0 0.442 0.036 0.606 0.107l-0.262 0.647c-0.088-0.044-0.202-0.065-0.344-0.065-0.197 0-0.358 0.06-0.484 0.18-0.126 0.115-0.188 0.284-0.188 0.508v0.508h1.049v0.689h-1.049v3.327h-0.754v-3.327h-0.754v-0.689h0.754v-0.533c0-0.409 0.131-0.737 0.393-0.983s0.606-0.369 1.033-0.369z"
     style="fill-rule:nonzero;fill:#fff"
     id="path8" />
  <path
     d="m23.712 18.989s2.301 4.746 7.685 4.612c11.284-0.283 13.262-6.169 13.546-7.018 0.283-0.849 0.716-0.721 0.816 0.064 3.68 33.404-25.539 19.071-26.577 13.382 5.803-1.698 4.388-4.954 4.388-4.954l0.142-6.086z"
     style="fill:#6f2519"
     id="path10" />
  <path
     d="m45.005 18.489c-0.45 0.742-1.126 1.628-2.152 2.477-2.107 1.745-5.645 3.333-11.434 3.478-3.383 0.084-5.567-1.548-6.906-3.002l-0.1 3.578c0.109 0.335 0.332 1.113-0.05 2.177-0.412 1.144-1.725 2.315-3.979 3.202 0.201 0.418 0.397 0.836 1.001 1.426 0.823 0.805 1.967 1.672 3.328 2.452 2.721 1.561 6.246 2.797 9.533 2.853 3.286 0.055 6.291-0.989 8.357-4.003 1.904-2.78 2.948-7.485 2.402-14.638z"
     style="fill:none"
     id="path12" />
  <path
     d="m29.585 26.137v1e-3c0 1.785-1.469 3.255-3.255 3.255s-3.255-1.47-3.255-3.255v-2e-3c0-1.786 1.469-3.255 3.255-3.255s3.255 1.469 3.255 3.255v1e-3z"
     style="fill:#6f2519;stroke-width:.8px;stroke:#ff7737"
     id="path14" />
  <path
     d="m23.1 27.363c1.568 2.173 1.588 4.876 0.045 5.989s-4.102 0.241-5.669-1.931-1.588-4.876-0.045-5.989 4.102-0.241 5.669 1.931z"
     style="fill:#6f2519;stroke-width:.8px;stroke:#ff7337"
     id="path16" />
  <path
     d="m28.659 26.619c0 0.86-0.708 1.568-1.568 1.568s-1.567-0.708-1.567-1.568 0.707-1.568 1.567-1.568 1.568 0.708 1.568 1.568z"
     style="fill:#ff7b37;stroke-width:.8px;stroke:#ff7d37"
     id="path18" />
  <path
     d="m36.875 26.491v1e-3c0 2.096-1.725 3.821-3.822 3.821-2.096 0-3.821-1.725-3.821-3.821v-2e-3c0-2.097 1.725-3.822 3.821-3.822 2.097 0 3.822 1.725 3.822 3.822v1e-3z"
     style="fill:#6f2719;stroke-width:.8px;stroke:#ff7537"
     id="path20" />
  <path
     d="m35.787 27.057c0 1.01-0.831 1.84-1.84 1.84-1.01 0-1.84-0.83-1.84-1.84v-1e-3c0-1.009 0.83-1.84 1.84-1.84 1.009 0 1.84 0.831 1.84 1.84v1e-3z"
     style="fill:#ff7b37;stroke-width:.8px;stroke:#ff7337"
     id="path22" />
  <defs
     id="defs29">
    <linearGradient
       id="_Linear1"
       x2="1"
       gradientTransform="matrix(1.07196,-49.7469,49.7469,1.07196,178.156,54.6308)"
       gradientUnits="userSpaceOnUse">
      <stop
         style="stop-color:#ff5839"
         offset="0"
         id="stop24" />
      <stop
         style="stop-color:#ff8f36"
         offset="1"
         id="stop26" />
    </linearGradient>
    <linearGradient
       inkscape:collect="always"
       xlink:href="#_Linear1"
       id="linearGradient3426"
       gradientUnits="userSpaceOnUse"
       gradientTransform="matrix(1.07196,-49.7469,49.7469,1.07196,178.156,54.6308)"
       x2="1" />
  </defs>
</svg>
