<?xml version="1.0" encoding="UTF-8" standalone="no"?>
<svg
   style="clip-rule:evenodd;fill-rule:evenodd;stroke-linejoin:round;stroke-miterlimit:2"
   viewBox="0 0 64 64"
   version="1.1"
   id="svg15"
   sodipodi:docname="text-x-nim.svg"
   inkscape:version="1.1.2 (0a00cf5339, 2022-02-04)"
   xmlns:inkscape="http://www.inkscape.org/namespaces/inkscape"
   xmlns:sodipodi="http://sodipodi.sourceforge.net/DTD/sodipodi-0.dtd"
   xmlns:xlink="http://www.w3.org/1999/xlink"
   xmlns="http://www.w3.org/2000/svg"
   xmlns:svg="http://www.w3.org/2000/svg">
  <sodipodi:namedview
     id="namedview17"
     pagecolor="#ffffff"
     bordercolor="#666666"
     borderopacity="1.0"
     inkscape:pageshadow="2"
     inkscape:pageopacity="0.0"
     inkscape:pagecheckerboard="0"
     showgrid="false"
     inkscape:zoom="10.65625"
     inkscape:cx="32"
     inkscape:cy="32"
     inkscape:window-width="1896"
     inkscape:window-height="1022"
     inkscape:window-x="12"
     inkscape:window-y="46"
     inkscape:window-maximized="1"
     inkscape:current-layer="svg15" />
  <path
     id="path2"
     style="fill:url(#linearGradient6584)"
     d="M 17.617188 1.46875 C 15.597188 1.46875 13.659469 2.2712188 12.230469 3.6992188 C 10.802469 5.1282186 10 7.0678906 10 9.0878906 L 10 14.857422 L 10 54.382812 C 10 56.402814 10.802469 58.340531 12.230469 59.769531 C 13.659469 61.197531 15.597187 62 17.617188 62 L 46.382812 62 C 48.402814 62 50.340531 61.197531 51.769531 59.769531 C 53.197531 58.340531 54 56.402814 54 54.382812 L 54 14.857422 L 54 9.0878906 C 54 7.0678906 53.197531 5.1282186 51.769531 3.6992188 C 50.340531 2.2712188 48.402813 1.46875 46.382812 1.46875 L 37.847656 1.46875 L 26.152344 1.46875 L 17.617188 1.46875 z " />
  <path
     d="m 32.127,18.603407 c 0,0 -1.226,0.971 -2.476,1.937 -1.286,-0.041 -3.808,0.248 -5.175,0.746 -1.259,-0.8 -2.365,-1.683 -2.365,-1.683 0,0 -0.945,1.631 -1.54,2.588 -0.881,0.471 -1.766,1 -2.555,1.7 -0.918,-0.366 -1.981,-0.811 -2.016,-0.826 1.215,2.458 2.032,4.92 4.254,6.399 3.538,-5.604 19.977,-5.087 23.587,-0.031 2.334,-1.221 3.241,-3.848 4.159,-6.273 -0.101,0.033 -1.349,0.453 -2.159,0.762 -0.483,-0.527 -1.622,-1.339 -2.27,-1.731 -0.614,-1.128 -1.508,-2.652 -1.508,-2.652 0,0 -1.058,0.79 -2.285,1.652 -1.658,-0.307 -3.663,-0.68 -5.349,-0.588 -1.148,-0.946 -2.302,-2.001 -2.302,-2.001 z"
     style="fill:#ffa700;fill-rule:nonzero"
     id="path4" />
  <path
     d="m 17.256,28.289407 c 0,0 1.723,4.183 2.919,7.09 5.068,6.707 18.01,7.173 23.653,0.129 1.335,-3.018 3.136,-7.259 3.136,-7.259 -1.447,2.15 -3.803,3.635 -5.254,4.435 -1.031,0.567 -3.41,0.909 -3.41,0.909 l -6.245,-3.246 -6.281,3.181 c 0,0 -2.347,-0.378 -3.41,-0.876 -2.145,-1.149 -3.587,-2.505 -5.108,-4.363 z"
     style="fill:#ffc504;fill-rule:nonzero"
     id="path6" />
  <defs
     id="defs13">
    <linearGradient
       id="_Linear1"
       x2="1"
       gradientTransform="matrix(0,-49.619,49.619,0,615.22,51.088)"
       gradientUnits="userSpaceOnUse">
      <stop
         style="stop-color:#4f4f4f"
         offset="0"
         id="stop8" />
      <stop
         style="stop-color:#696969"
         offset="1"
         id="stop10" />
    </linearGradient>
    <linearGradient
       inkscape:collect="always"
       xlink:href="#_Linear1"
       id="linearGradient6584"
       gradientUnits="userSpaceOnUse"
       gradientTransform="matrix(0,-49.619,49.619,0,615.22,51.088)"
       x2="1" />
  </defs>
  <path
     id="path2-3"
     style="clip-rule:evenodd;fill:#3f3f3f;fill-opacity:1;fill-rule:evenodd;stroke-linecap:round;stroke-linejoin:round;stroke-miterlimit:2"
     d="m 10.000005,50.982422 v 3.398437 0.002 c 6.5e-5,0.251841 0.01244,0.501552 0.03711,0.75 v 0.002 c 0.02473,0.248442 0.06268,0.494885 0.111328,0.738281 v 0.002 c 0.04871,0.243391 0.109702,0.484016 0.18164,0.720703 v 0.002 c 0.072,0.236684 0.155456,0.468944 0.25,0.697266 v 0.002 c 0.09461,0.228323 0.199936,0.453573 0.316406,0.671875 v 0.002 c 0.116532,0.218305 0.245102,0.430096 0.382814,0.636719 v 0.002 c 0.137775,0.206628 0.287037,0.406326 0.445311,0.599609 v 0.002 c 0.158341,0.193289 0.327703,0.378358 0.505861,0.55664 v 0.002 c 0.714498,0.714 1.557099,1.271274 2.472655,1.650391 C 15.618681,61.799106 16.607189,62 17.617187,62 h 28.765625 c 1.010002,0 1.998509,-0.200473 2.914063,-0.580078 0.915554,-0.379117 1.758155,-0.936391 2.472656,-1.650391 v -0.002 C 53.19753,58.338626 54,56.400859 54,54.380859 v -3.398437 z" />
</svg>
