<?xml version="1.0" encoding="UTF-8" standalone="no"?>
<svg
   clip-rule="evenodd"
   fill-rule="evenodd"
   stroke-linejoin="round"
   stroke-miterlimit="2"
   viewBox="0 0 48 48"
   version="1.1"
   id="svg27"
   sodipodi:docname="text-x-elixir.svg"
   inkscape:version="1.1.2 (0a00cf5339, 2022-02-04)"
   xmlns:inkscape="http://www.inkscape.org/namespaces/inkscape"
   xmlns:sodipodi="http://sodipodi.sourceforge.net/DTD/sodipodi-0.dtd"
   xmlns:xlink="http://www.w3.org/1999/xlink"
   xmlns="http://www.w3.org/2000/svg"
   xmlns:svg="http://www.w3.org/2000/svg">
  <defs
     id="defs31">
    <linearGradient
       inkscape:collect="always"
       xlink:href="#a"
       id="linearGradient4750"
       gradientUnits="userSpaceOnUse"
       gradientTransform="matrix(0,-37.2142,37.2142,0,133.41,38.316)"
       x2="1" />
  </defs>
  <sodipodi:namedview
     id="namedview29"
     pagecolor="#ffffff"
     bordercolor="#666666"
     borderopacity="1.0"
     inkscape:pageshadow="2"
     inkscape:pageopacity="0.0"
     inkscape:pagecheckerboard="0"
     showgrid="false"
     inkscape:zoom="14.208333"
     inkscape:cx="24"
     inkscape:cy="24"
     inkscape:window-width="1896"
     inkscape:window-height="1022"
     inkscape:window-x="12"
     inkscape:window-y="46"
     inkscape:window-maximized="1"
     inkscape:current-layer="svg27" />
  <linearGradient
     id="a"
     x2="1"
     gradientTransform="matrix(0,-37.2142,37.2142,0,133.41,38.316)"
     gradientUnits="userSpaceOnUse">
    <stop
       stop-color="#9a7597"
       offset="0"
       id="stop2" />
    <stop
       stop-color="#d2a7db"
       offset="1"
       id="stop4" />
  </linearGradient>
  <path
     id="path7"
     style="fill:url(#linearGradient4750)"
     d="M 13.214844 1.1015625 C 11.699844 1.1015625 10.245828 1.7043906 9.1738281 2.7753906 C 8.1028281 3.8473906 7.5 5.2994531 7.5 6.8144531 L 7.5 10.380859 L 7.5 40.787109 C 7.5 42.302109 8.1028281 43.754172 9.1738281 44.826172 C 9.9778281 45.629422 10.995967 46.168923 12.09375 46.388672 C 12.094369 46.388796 12.095084 46.388548 12.095703 46.388672 C 12.278052 46.42511 12.462292 46.454145 12.648438 46.472656 C 12.649081 46.47272 12.649747 46.472592 12.650391 46.472656 C 12.836546 46.491104 13.024169 46.5 13.212891 46.5 C 13.213544 46.5 13.21419 46.5 13.214844 46.5 L 34.785156 46.5 C 35.353281 46.5 35.913222 46.414397 36.447266 46.251953 C 37.336767 45.981213 38.156172 45.495547 38.826172 44.826172 C 39.897172 43.754172 40.5 42.302109 40.5 40.787109 L 40.5 10.380859 L 40.5 6.8144531 C 40.5 5.2994531 39.897172 3.8473906 38.826172 2.7753906 C 37.754172 1.7043906 36.300156 1.1015625 34.785156 1.1015625 L 26.646484 1.1015625 L 21.353516 1.1015625 L 13.214844 1.1015625 z " />
  <g
     fill-rule="nonzero"
     id="g25">
    <path
       d="m24.601 12.967c-1.569.561-3.083 2.198-4.542 4.91-2.19 4.07-5.017 9.853-1.124 14.431 1.802 2.118 4.776 3.368 8.679 1.389 3.136-1.591 4.008-6.156 2.882-8.301-.978-1.864-1.963-3.137-2.822-4.191-1.179-1.447-2.122-2.481-2.487-4.068-.42-1.83-.616-3.219-.587-4.17z"
       fill="#a55dd7"
       id="path9" />
    <path
       d="m24.599 12.912c-1.577.573-3.091 2.227-4.543 4.963-2.178 4.105-5.018 9.959-1.123 14.587 1.801 2.14 4.738 2.832 6.368 1.562 1.062-.827 1.784-1.616 2.201-3.279.463-1.851.108-4.344-.136-5.488.98-3.601-1.502-5.313-2.18-8.13-.421-1.849-.616-3.254-.587-4.215z"
       fill="#a55cd7"
       id="path11" />
    <path
       d="m23.294 13.632c-1.469 1.183-2.561 3.168-3.276 5.954-1.073 4.179-1.189 8.033-.811 10.274.734 4.346 4.537 5.995 8.437 3.973 2.4-1.245 3.4-3.917 3.347-6.817-.055-3.003-5.747-6.406-6.755-8.912-.672-1.671-.986-3.162-.942-4.472z"
       fill="#772bac"
       id="path13" />
    <path
       d="m23.477 15.624c-.291.286-.577.624-.855 1.021-.999 1.424-1.507 2.278-1.131 5.102.251 1.882.432 3.613.54 5.194l1.802-5.342c-.019-.135-.038-.274-.05-.394-.086-.853.305-2.242.68-2.649-.09-.154-.168-.305-.227-.453-.353-.877-.603-1.702-.759-2.479z"
       fill="#ab73d6"
       fill-opacity=".56"
       id="path15" />
    <path
       d="m27.017 21.467c1.761 2.303 2.145 3.906 1.151 4.809-1.489 1.355-5.133 2.239-7.4.6-1.512-1.093-2.084-3.437-1.716-7.032-.616 1.308-1.144 2.657-1.582 4.037-.431 1.362-.557 2.788-.378 4.278.541 1.114 1.854 1.858 3.941 2.232 3.13.561 6.093.284 8.081-.738 1.325-.681 1.952-1.359 1.881-2.034.047-.996-.254-1.945-.905-2.846s-1.675-2.003-3.073-3.306z"
       fill="#622d87"
       id="path17" />
    <path
       d="m24.312 18.272c-.385.531-.708 1.23-.968 2.104-.449 1.506-.86 3.612-1.233 6.318.498-1.721.827-2.968.99-3.74.243-1.158.326-2.795.973-3.906.119-.204.235-.392.347-.567-.04-.07-.076-.14-.109-.209z"
       fill="#6f3f91"
       fill-opacity=".65"
       id="path19" />
    <path
       d="m20.135 19.168c-.015 1.663.404 3.243 1.258 4.743 1.28 2.248 2.774 4.469 5.011 6.31 1.491 1.228 2.682 1.624 3.574 1.19-.732 1.336-1.511 1.991-2.336 1.964-1.238-.04-2.747-.591-5.165-3.554-1.612-1.974-2.715-3.843-3.309-5.604.094-.699.194-1.395.3-2.088.105-.693.327-1.68.666-2.961z"
       fill="#481e68"
       id="path21" />
    <path
       d="m24.462 18.558c-.375.409-.765 1.796-.679 2.647.137 1.355.787 3.767.133 5.21-.653 1.442-3.673 4.049-2.839 6.345s2.864 1.78 4.139.722c1.274-1.058 1.957-2.779 2.109-3.989.151-1.21-.362-3.537-.529-5.563-.082-.986-.062-1.869.056-2.65-.989-.964-1.9-1.885-2.39-2.722z"
       fill="#ab67d9"
       fill-opacity=".53"
       id="path23" />
  </g>
  <path
     id="path1057"
     style="fill:#622d87;fill-opacity:1"
     d="m 7.4998621,38.667977 v 2.11914 c 0,1.515 0.602827,2.967063 1.673828,4.039063 0.804,0.80325 1.8221389,1.342751 2.9199209,1.5625 0,0 0.002,0 0.002,0 0.182349,0.03644 0.366588,0.06547 0.552735,0.08398 0,0 0.002,0 0.002,0 0.186153,0.01845 0.37378,0.02734 0.5625,0.02734 h 0.002 21.57031 c 0.568124,0 1.128063,-0.0856 1.66211,-0.248047 0.8895,-0.27074 1.708905,-0.756406 2.378906,-1.425781 C 39.897171,43.754172 40.5,42.302109 40.5,40.787109 v -2.11914 z" />
</svg>
