<?xml version="1.0" encoding="UTF-8" standalone="no"?>
<svg
   clip-rule="evenodd"
   fill-rule="evenodd"
   stroke-linejoin="round"
   stroke-miterlimit="2"
   viewBox="0 0 64 64"
   version="1.1"
   id="svg19"
   sodipodi:docname="text-x-rpm-spec.svg"
   inkscape:version="1.1.2 (0a00cf5339, 2022-02-04)"
   xmlns:inkscape="http://www.inkscape.org/namespaces/inkscape"
   xmlns:sodipodi="http://sodipodi.sourceforge.net/DTD/sodipodi-0.dtd"
   xmlns:xlink="http://www.w3.org/1999/xlink"
   xmlns="http://www.w3.org/2000/svg"
   xmlns:svg="http://www.w3.org/2000/svg">
  <defs
     id="defs23">
    <linearGradient
       inkscape:collect="always"
       xlink:href="#a"
       id="linearGradient3026"
       gradientUnits="userSpaceOnUse"
       gradientTransform="matrix(0,-49.619,49.619,0,396.55,51.088)"
       x2="1" />
  </defs>
  <sodipodi:namedview
     id="namedview21"
     pagecolor="#ffffff"
     bordercolor="#666666"
     borderopacity="1.0"
     inkscape:pageshadow="2"
     inkscape:pageopacity="0.0"
     inkscape:pagecheckerboard="0"
     showgrid="false"
     inkscape:zoom="10.65625"
     inkscape:cx="32"
     inkscape:cy="32"
     inkscape:window-width="1896"
     inkscape:window-height="1022"
     inkscape:window-x="12"
     inkscape:window-y="46"
     inkscape:window-maximized="1"
     inkscape:current-layer="svg19" />
  <linearGradient
     id="a"
     x2="1"
     gradientTransform="matrix(0,-49.619,49.619,0,396.55,51.088)"
     gradientUnits="userSpaceOnUse">
    <stop
       stop-color="#9b070f"
       offset="0"
       id="stop2" />
    <stop
       stop-color="#e65130"
       offset="1"
       id="stop4" />
  </linearGradient>
  <path
     id="path7"
     style="fill:url(#linearGradient3026)"
     d="M 17.617188 1.46875 C 15.597188 1.46875 13.659469 2.2712188 12.230469 3.6992188 C 10.802469 5.1282186 10 7.0678906 10 9.0878906 L 10 11.115234 L 10 54.382812 C 10 56.402814 10.802469 58.340531 12.230469 59.769531 C 13.659469 61.197531 15.597187 62 17.617188 62 L 46.382812 62 C 48.402814 62 50.340531 61.197531 51.769531 59.769531 C 53.197531 58.340531 54 56.402814 54 54.382812 L 54 11.115234 L 54 9.0878906 C 54 7.0678906 53.197531 5.1282186 51.769531 3.6992188 C 50.340531 2.2712188 48.402813 1.46875 46.382812 1.46875 L 39.394531 1.46875 L 24.605469 1.46875 L 17.617188 1.46875 z " />
  <path
     id="path2-3-3"
     style="clip-rule:evenodd;fill:#4a0207;fill-opacity:1;fill-rule:evenodd;stroke-linecap:round;stroke-linejoin:round;stroke-miterlimit:2"
     d="m 10.000005,50.982422 v 3.398437 0.002 c 6.4e-5,0.251841 0.01244,0.501552 0.03711,0.75 v 0.002 c 0.02473,0.248442 0.06268,0.494885 0.111329,0.738281 v 0.002 c 0.04871,0.243391 0.109702,0.484016 0.181639,0.720703 v 0.002 c 0.072,0.236684 0.155455,0.468944 0.25,0.697266 v 0.002 c 0.09461,0.228323 0.199935,0.453573 0.316407,0.671875 v 0.002 c 0.116531,0.218305 0.245101,0.430096 0.382813,0.636719 v 0.002 c 0.137776,0.206628 0.287038,0.406326 0.445312,0.599609 v 0.002 c 0.158341,0.193289 0.327702,0.378358 0.50586,0.55664 v 0.002 c 0.714498,0.714 1.557099,1.271274 2.472654,1.650391 C 15.618682,61.799106 16.607188,62 17.617188,62 h 28.765624 c 1.010003,0 1.998509,-0.200473 2.914063,-0.580078 0.915554,-0.379117 1.758156,-0.936391 2.472656,-1.650391 v -0.002 C 53.19753,58.338626 54,56.400859 54,54.380859 v -3.398437 z" />
  <g
     fill="#fff"
     fill-rule="nonzero"
     id="g15">
    <path
       d="m26.063 58.44h-.754v-4.016h.721v.656h.033c.076-.219.232-.399.467-.541.241-.142.473-.213.697-.213s.412.032.565.098l-.287.705c-.098-.038-.232-.058-.401-.058-.273 0-.517.11-.73.328-.207.213-.311.495-.311.844z"
       id="path9" />
    <path
       d="m30.376 58.571c-.306 0-.582-.066-.828-.197-.24-.131-.42-.295-.541-.492h-.032l.032.558v1.77h-.754v-5.786h.722v.557h.032c.121-.196.301-.36.541-.491.246-.132.522-.197.828-.197.519 0 .967.205 1.344.615.377.409.566.917.566 1.524 0 .606-.189 1.114-.566 1.524s-.825.615-1.344.615zm-.123-.689c.35 0 .65-.131.902-.393.251-.268.377-.62.377-1.057s-.126-.787-.377-1.049c-.252-.268-.552-.402-.902-.402-.355 0-.658.131-.91.394-.245.262-.368.614-.368 1.057 0 .442.123.795.368 1.057.252.262.555.393.91.393z"
       id="path11" />
    <path
       d="m32.928 58.44v-4.016h.721v.557h.033c.115-.191.29-.352.525-.483.24-.137.478-.205.713-.205.623 0 1.046.257 1.27.77.328-.513.795-.77 1.401-.77.476 0 .834.153 1.074.459.24.3.361.71.361 1.229v2.459h-.754v-2.344c0-.404-.074-.691-.222-.861-.147-.169-.371-.254-.672-.254-.295 0-.54.126-.737.377-.191.252-.287.538-.287.861v2.221h-.754v-2.344c0-.404-.074-.691-.221-.861-.148-.169-.372-.254-.672-.254-.295 0-.541.126-.738.377-.191.252-.287.538-.287.861v2.221z"
       id="path13" />
  </g>
  <path
     transform="translate(0 7.78197)"
     d="m32.286 6.718c6.069 0 10.997 4.928 10.997 10.997s-4.928 10.997-10.997 10.997-10.997-4.928-10.997-10.997 4.928-10.997 10.997-10.997zm5.453 9.809c-.452-1.378-1.424-3.831-1.967-4.39-.606-.623-2.657-1.447-2.946-.827-.198.426-.963 1.081-2.155.449-1.905-1.008-2.634.632-2.765 1.132-.133.5-.449 1.922-.449 1.922-.105.579-.246 1.601 3.32 2.265 4.246.79 5.594.223 6.962-.551zm.649.762c-.108.365-.304.762-.951 1.186-1.3.85-2.922 1.016-4.527.997-1.006-.012-3.319-.675-4.865-1.553-1.264-.772-1.285-1.467-.995-2.057-1.91-.206-3.343.179-3.603 1.083-.446 1.551 3.411 4.2 7.804 5.529 4.609 1.395 9.35.421 9.877-2.475.239-1.316-.869-2.289-2.74-2.71z"
     fill="#4a0207"
     id="path17" />
</svg>
