<?xml version="1.0" encoding="UTF-8" standalone="no"?>
<svg
   clip-rule="evenodd"
   fill-rule="evenodd"
   stroke-linejoin="round"
   stroke-miterlimit="2"
   viewBox="0 0 64 64"
   version="1.1"
   id="svg13"
   sodipodi:docname="text-x-kotlin.svg"
   inkscape:version="1.1.2 (0a00cf5339, 2022-02-04)"
   xmlns:inkscape="http://www.inkscape.org/namespaces/inkscape"
   xmlns:sodipodi="http://sodipodi.sourceforge.net/DTD/sodipodi-0.dtd"
   xmlns:xlink="http://www.w3.org/1999/xlink"
   xmlns="http://www.w3.org/2000/svg"
   xmlns:svg="http://www.w3.org/2000/svg">
  <defs
     id="defs17">
    <linearGradient
       inkscape:collect="always"
       xlink:href="#a"
       id="linearGradient5672"
       gradientUnits="userSpaceOnUse"
       gradientTransform="matrix(0,-49.619,49.619,0,250.77,51.088)"
       x2="1" />
  </defs>
  <sodipodi:namedview
     id="namedview15"
     pagecolor="#ffffff"
     bordercolor="#666666"
     borderopacity="1.0"
     inkscape:pageshadow="2"
     inkscape:pageopacity="0.0"
     inkscape:pagecheckerboard="0"
     showgrid="false"
     inkscape:zoom="10.65625"
     inkscape:cx="32"
     inkscape:cy="32"
     inkscape:window-width="1896"
     inkscape:window-height="1022"
     inkscape:window-x="12"
     inkscape:window-y="46"
     inkscape:window-maximized="1"
     inkscape:current-layer="svg13" />
  <linearGradient
     id="a"
     x2="1"
     gradientTransform="matrix(0,-49.619,49.619,0,250.77,51.088)"
     gradientUnits="userSpaceOnUse">
    <stop
       stop-color="#396ceb"
       offset="0"
       id="stop2" />
    <stop
       stop-color="#6e9ce0"
       offset="1"
       id="stop4" />
  </linearGradient>
  <path
     id="path7"
     style="fill:url(#linearGradient5672)"
     d="M 17.617188 1.46875 C 15.597188 1.46875 13.659469 2.2712188 12.230469 3.6992188 C 10.802469 5.1282186 10 7.0678906 10 9.0878906 L 10 12.451172 L 10 54.382812 C 10 56.402814 10.802469 58.340531 12.230469 59.769531 C 13.659469 61.197531 15.597187 62 17.617188 62 L 46.382812 62 C 48.402814 62 50.340531 61.197531 51.769531 59.769531 C 53.197531 58.340531 54 56.402814 54 54.382812 L 54 12.451172 L 54 9.0878906 C 54 7.0678906 53.197531 5.1282186 51.769531 3.6992188 C 50.340531 2.2712188 48.402813 1.46875 46.382812 1.46875 L 37.517578 1.46875 L 26.482422 1.46875 L 17.617188 1.46875 z " />
  <path
     id="path2-3"
     style="clip-rule:evenodd;fill:#2d479a;fill-opacity:1;fill-rule:evenodd;stroke-linecap:round;stroke-linejoin:round;stroke-miterlimit:2"
     d="m 10.000004,50.982422 v 3.398437 0.002 c 6.5e-5,0.251841 0.01244,0.501552 0.03711,0.75 v 0.002 c 0.02473,0.248442 0.06268,0.494885 0.111328,0.738281 v 0.002 c 0.04871,0.243391 0.109702,0.484016 0.18164,0.720703 v 0.002 c 0.072,0.236684 0.155456,0.468944 0.25,0.697266 v 0.002 c 0.09461,0.228323 0.199936,0.453573 0.316406,0.671875 v 0.002 c 0.116532,0.218305 0.245102,0.430096 0.382814,0.636719 v 0.002 c 0.137775,0.206628 0.287037,0.406326 0.445311,0.599609 v 0.002 c 0.158341,0.193289 0.327703,0.378358 0.505861,0.55664 v 0.002 c 0.714498,0.714 1.557099,1.271274 2.472655,1.650391 C 15.618681,61.799106 16.607189,62 17.617187,62 h 28.765625 c 1.010002,0 1.998509,-0.200473 2.914063,-0.580078 0.915554,-0.379117 1.758155,-0.936391 2.472656,-1.650391 v -0.002 C 53.19753,58.338626 54,56.400859 54,54.380859 v -3.398437 z" />
  <path
     d="m21 17.553v22h22l-11-11 11-11zm1 1h9l-9 9zm10.414 0h8.172l-18.586 18.586v-8.172zm-1.121 10.707 9.293 9.293h-18.586z"
     fill="#2d479a"
     fill-rule="nonzero"
     id="path9" />
  <path
     d="m 24.588489,59.452211 -1.465,-1.961 -0.457,0.473 v 1.488 h -0.726 v -6 h 0.726 v 3.625 l 0.387,-0.461 1.313,-1.39 h 0.882 l -1.648,1.762 1.84,2.464 z m 1.215,-2.066 v -0.09 c 0,-0.612 0.172,-1.123 0.516,-1.533 0.343,-0.41 0.811,-0.615 1.402,-0.615 0.596,0 1.067,0.205 1.412,0.615 0.345,0.41 0.518,0.921 0.518,1.533 v 0.09 c 0,0.612 -0.173,1.122 -0.518,1.531 -0.345,0.409 -0.813,0.613 -1.404,0.613 -0.594,0 -1.063,-0.204 -1.408,-0.613 -0.345,-0.409 -0.518,-0.919 -0.518,-1.531 z m 0.723,-0.09 v 0.09 c 0,0.419 0.099,0.783 0.299,1.09 0.199,0.307 0.5,0.461 0.904,0.461 0.396,0 0.694,-0.154 0.894,-0.461 0.201,-0.307 0.301,-0.671 0.301,-1.09 v -0.09 c 0,-0.414 -0.1,-0.777 -0.301,-1.088 -0.2,-0.311 -0.501,-0.467 -0.902,-0.467 -0.398,0 -0.697,0.156 -0.896,0.467 -0.2,0.311 -0.299,0.674 -0.299,1.088 z m 5.82,2.156 c -0.057,0.019 -0.132,0.036 -0.225,0.053 -0.092,0.017 -0.203,0.025 -0.334,0.025 -0.268,0 -0.497,-0.082 -0.687,-0.246 -0.19,-0.164 -0.285,-0.458 -0.285,-0.882 v -2.622 h -0.774 v -0.554 h 0.774 v -1.028 h 0.722 v 1.028 h 0.79 v 0.554 h -0.79 v 2.625 c 0,0.217 0.047,0.355 0.141,0.415 0.094,0.059 0.202,0.089 0.324,0.089 0.06,0 0.123,-0.005 0.19,-0.017 0.066,-0.012 0.116,-0.022 0.15,-0.029 z m 1.613,-6 v 6 h -0.726 v -6 z m 1.164,0.653 c 0,-0.117 0.036,-0.216 0.108,-0.297 0.071,-0.081 0.178,-0.121 0.318,-0.121 0.138,0 0.244,0.04 0.319,0.121 0.074,0.081 0.111,0.18 0.111,0.297 0,0.112 -0.037,0.207 -0.111,0.287 -0.075,0.079 -0.181,0.119 -0.319,0.119 -0.14,0 -0.247,-0.04 -0.318,-0.119 -0.072,-0.08 -0.108,-0.175 -0.108,-0.287 z m 0.782,1.121 v 4.226 h -0.727 v -4.226 z m 2.914,0.531 c -0.232,0 -0.437,0.063 -0.614,0.188 -0.177,0.125 -0.316,0.287 -0.418,0.488 v 3.019 h -0.722 v -4.226 h 0.683 l 0.024,0.527 c 0.32,-0.403 0.741,-0.605 1.262,-0.605 0.416,0 0.746,0.117 0.99,0.351 0.243,0.235 0.365,0.629 0.365,1.184 v 2.769 h -0.727 v -2.777 c 0,-0.331 -0.072,-0.566 -0.216,-0.707 -0.145,-0.141 -0.354,-0.211 -0.627,-0.211 z"
     fill="#ffffff"
     id="path11" />
</svg>
