<?xml version="1.0" encoding="UTF-8" standalone="no"?>
<svg
   clip-rule="evenodd"
   fill-rule="evenodd"
   stroke-linejoin="round"
   stroke-miterlimit="2"
   viewBox="0 0 48 48"
   version="1.1"
   id="svg11"
   sodipodi:docname="text-x-gradle.svg"
   inkscape:version="1.1.2 (0a00cf5339, 2022-02-04)"
   xmlns:inkscape="http://www.inkscape.org/namespaces/inkscape"
   xmlns:sodipodi="http://sodipodi.sourceforge.net/DTD/sodipodi-0.dtd"
   xmlns:xlink="http://www.w3.org/1999/xlink"
   xmlns="http://www.w3.org/2000/svg"
   xmlns:svg="http://www.w3.org/2000/svg">
  <defs
     id="defs15">
    <linearGradient
       inkscape:collect="always"
       xlink:href="#a"
       id="linearGradient3270"
       gradientUnits="userSpaceOnUse"
       gradientTransform="matrix(0,-37.2142,37.2142,0,133.41,38.316)"
       x2="1" />
  </defs>
  <sodipodi:namedview
     id="namedview13"
     pagecolor="#ffffff"
     bordercolor="#666666"
     borderopacity="1.0"
     inkscape:pageshadow="2"
     inkscape:pageopacity="0.0"
     inkscape:pagecheckerboard="0"
     showgrid="false"
     inkscape:zoom="14.208333"
     inkscape:cx="28.398827"
     inkscape:cy="24.914956"
     inkscape:window-width="942"
     inkscape:window-height="1022"
     inkscape:window-x="966"
     inkscape:window-y="46"
     inkscape:window-maximized="1"
     inkscape:current-layer="svg11" />
  <linearGradient
     id="a"
     x2="1"
     gradientTransform="matrix(0,-37.2142,37.2142,0,133.41,38.316)"
     gradientUnits="userSpaceOnUse">
    <stop
       stop-color="#005945"
       offset="0"
       id="stop2" />
    <stop
       stop-color="#62a68c"
       offset="1"
       id="stop4" />
  </linearGradient>
  <path
     id="path7"
     style="fill:url(#linearGradient3270)"
     d="M 13.214844 1.1015625 C 11.699844 1.1015625 10.245828 1.7043906 9.1738281 2.7753906 C 8.1028281 3.8473906 7.5 5.2994531 7.5 6.8144531 L 7.5 11.205078 L 7.5 40.787109 C 7.5 42.302109 8.1028281 43.754172 9.1738281 44.826172 C 9.9778281 45.629422 10.995967 46.168923 12.09375 46.388672 C 12.094369 46.388796 12.095084 46.388548 12.095703 46.388672 C 12.278052 46.42511 12.462292 46.454145 12.648438 46.472656 C 12.649081 46.47272 12.649747 46.472592 12.650391 46.472656 C 12.836546 46.491104 13.024169 46.5 13.212891 46.5 C 13.213544 46.5 13.21419 46.5 13.214844 46.5 L 34.785156 46.5 C 35.353281 46.5 35.913222 46.414397 36.447266 46.251953 C 37.336767 45.981213 38.156172 45.495547 38.826172 44.826172 C 39.897172 43.754172 40.5 42.302109 40.5 40.787109 L 40.5 11.205078 L 40.5 6.8144531 C 40.5 5.2994531 39.897172 3.8473906 38.826172 2.7753906 C 37.754172 1.7043906 36.300156 1.1015625 34.785156 1.1015625 L 28.294922 1.1015625 L 19.705078 1.1015625 L 13.214844 1.1015625 z " />
  <path
     d="m 33.135,14.055151 c -0.953,-0.017 -1.912,0.33 -2.662,1.045 -0.072,0.069 -0.114,0.167 -0.117,0.268 10e-4,0.1 0.039,0.195 0.107,0.267 l 0.475,0.502 c 0.128,0.13 0.33,0.144 0.475,0.033 0.376,-0.29 0.833,-0.445 1.304,-0.443 0.884,-0.004 1.683,0.537 2.022,1.371 0.339,0.834 0.151,1.795 -0.475,2.432 -3.021,3.086 -7.053,-5.562 -16.205,-1.114 -0.315,0.151 -0.553,0.428 -0.658,0.766 -0.105,0.338 -0.069,0.707 0.103,1.016 l 1.569,2.47 c 0.34,0.6 0.891,0.811 1.484,0.473 l 0.037,-0.021 -0.029,0.021 0.695,-0.398 c 0.776,-0.492 1.508,-1.051 2.19,-1.67 0.426,-0.277 0.803,0.312 0.517,0.566 -0.718,0.651 -1.49,1.237 -2.308,1.75 h -0.022 l -0.695,0.395 c -0.294,0.17 -0.627,0.259 -0.965,0.257 -0.71,0 -1.168,-0.383 -1.527,-1.009 l -1.483,-2.319 c -2.849,2.056 -4.579,6.016 -3.65,11.041 0.034,0.173 0.183,0.299 0.355,0.301 h 1.49 c 0.365,0.034 0.335,-0.333 0.403,-0.5 0,-1.381 1.119,-2.5 2.5,-2.5 1.321,0.001 2.414,1.029 2.494,2.348 0.028,0.108 0.058,0.216 0.072,0.33 0.024,0.185 0.177,0.322 0.36,0.322 h 1.646 c 0.182,0 0.335,-0.138 0.358,-0.322 0.015,-0.119 0.046,-0.232 0.076,-0.344 0.087,-1.313 1.178,-2.334 2.494,-2.334 1.381,0 2.5,1.119 2.5,2.5 0,0.5 0.301,0.5 0.301,0.5 h 1.527 c 0.197,0 0.358,-0.162 0.361,-0.363 0.039,-2.342 0.656,-5.031 2.418,-6.379 6.106,-4.666 4.502,-8.667 3.088,-10.119 -0.725,-0.741 -1.671,-1.122 -2.625,-1.139 z m -3.693,7.035 c 0.245,0.033 0.466,0.194 0.572,0.436 0.142,0.322 0.045,0.701 -0.234,0.91 v -0.004 l -1.164,-0.598 c -0.001,-0.353 0.238,-0.657 0.576,-0.732 0.084,-0.019 0.168,-0.023 0.25,-0.012 z"
     fill="#ffffff"
     fill-opacity="0.5"
     fill-rule="nonzero"
     id="path9" />
  <path
     id="path1057"
     style="fill:#004637;fill-opacity:1"
     d="m 7.4998621,38.667977 v 2.11914 c 0,1.515 0.602827,2.967063 1.673828,4.039063 0.8039999,0.80325 1.8221389,1.342751 2.9199209,1.5625 0,0 0.002,0 0.002,0 0.182349,0.03644 0.366588,0.06547 0.552735,0.08398 0,0 0.002,0 0.002,0 0.186153,0.01845 0.37378,0.02734 0.5625,0.02734 h 0.002 21.57031 c 0.568124,0 1.128063,-0.0856 1.66211,-0.248047 0.8895,-0.27074 1.708905,-0.756406 2.378906,-1.425781 C 39.897171,43.754172 40.5,42.302109 40.5,40.787109 v -2.11914 z" />
</svg>
