<?xml version="1.0" encoding="UTF-8" standalone="no"?>
<svg
   clip-rule="evenodd"
   fill-rule="evenodd"
   stroke-linejoin="round"
   stroke-miterlimit="2"
   viewBox="0 0 48 48"
   version="1.1"
   id="svg17"
   sodipodi:docname="text-org.svg"
   inkscape:version="1.1.2 (0a00cf5339, 2022-02-04)"
   xmlns:inkscape="http://www.inkscape.org/namespaces/inkscape"
   xmlns:sodipodi="http://sodipodi.sourceforge.net/DTD/sodipodi-0.dtd"
   xmlns:xlink="http://www.w3.org/1999/xlink"
   xmlns="http://www.w3.org/2000/svg"
   xmlns:svg="http://www.w3.org/2000/svg">
  <defs
     id="defs21">
    <linearGradient
       inkscape:collect="always"
       xlink:href="#a"
       id="linearGradient955"
       gradientUnits="userSpaceOnUse"
       gradientTransform="matrix(0,-37.21425,37.21425,0,133.41,38.316)"
       x2="1" />
  </defs>
  <sodipodi:namedview
     id="namedview19"
     pagecolor="#ffffff"
     bordercolor="#666666"
     borderopacity="1.0"
     inkscape:pageshadow="2"
     inkscape:pageopacity="0.0"
     inkscape:pagecheckerboard="0"
     showgrid="false"
     inkscape:zoom="14.208333"
     inkscape:cx="32.058651"
     inkscape:cy="26.88563"
     inkscape:window-width="942"
     inkscape:window-height="1022"
     inkscape:window-x="966"
     inkscape:window-y="46"
     inkscape:window-maximized="1"
     inkscape:current-layer="svg17" />
  <linearGradient
     id="a"
     x2="1"
     gradientTransform="matrix(0,-37.21425,37.21425,0,133.41,38.316)"
     gradientUnits="userSpaceOnUse">
    <stop
       stop-color="#3b9a6a"
       offset="0"
       id="stop2" />
    <stop
       stop-color="#6fc59a"
       offset="1"
       id="stop4" />
  </linearGradient>
  <path
     id="path7"
     style="stroke-width:0.75;fill:url(#linearGradient955)"
     d="M 13.212891 1.1015625 C 11.697891 1.1015625 10.245578 1.7043906 9.1738281 2.7753906 C 8.1028281 3.8471406 7.5 5.2994531 7.5 6.8144531 L 7.5 12.326172 L 7.5 40.787109 C 7.5 42.302109 8.1028281 43.754422 9.1738281 44.826172 C 10.245578 45.897172 11.697891 46.5 13.212891 46.5 L 34.787109 46.5 C 36.302109 46.5 37.754422 45.897172 38.826172 44.826172 C 39.897172 43.754422 40.5 42.302109 40.5 40.787109 L 40.5 12.326172 L 40.5 6.8144531 C 40.5 5.2994531 39.897172 3.8471406 38.826172 2.7753906 C 37.754422 1.7043906 36.302109 1.1015625 34.787109 1.1015625 L 27.767578 1.1015625 L 20.232422 1.1015625 L 13.212891 1.1015625 z " />
  <g
     fill="#ffffff"
     fill-rule="nonzero"
     id="g15"
     transform="translate(0,-7.779188)">
    <path
       d="m 12.074,46.385 c -0.759,-1.265 -1.352,-2.574 -1.365,-4.035 0.401,0.659 0.934,1.171 1.567,1.567 -0.4,-0.643 -0.597,-1.308 -0.539,-1.999 1.05,1.173 2.222,1.567 3.402,1.909 -1.233,-0.861 -2.335,-1.788 -2.923,-2.983 0.706,0.348 1.411,0.402 2.118,0.328 -0.879,-0.444 -1.203,-1.247 -1.372,-2.149 1.228,1.253 2.512,2.096 3.818,2.776 -1.295,-1.248 -2.25,-2.528 -2.745,-3.849 0.498,0.28 0.987,0.412 1.463,0.359 -0.657,-0.742 -0.823,-1.468 -1,-2.194 0.626,0.929 1.177,1.429 1.686,1.685 -0.52,-1.063 -0.482,-2 -0.119,-2.863 0.599,0.397 1.163,1.02 1.641,2.208 0.173,-0.566 -0.107,-1.511 -0.449,-2.507 0.516,0.147 1.135,0.796 1.94,2.358 -0.078,-0.918 -0.509,-1.847 -0.985,-2.776 0.718,0.833 1.794,3.018 1.612,2.567 0,-0.836 -0.359,-1.702 -1.672,-3.462 -0.388,-0.52 -0.622,-1.029 -0.762,-1.489 -0.2,-0.47 -0.452,-1.065 -0.477,-1.938 0.022,-0.164 0.048,-0.341 0.083,-0.548 0.149,-0.884 0.213,-1.308 0.978,-3.122 0.504,-1.691 1.536,-0.323 1.674,0.577 0.011,0.13 0.036,0.251 0.067,0.365 -0.028,0.125 0.093,0.348 0.235,0.558 0.182,0.312 0.377,0.491 0.377,0.492 0.003,0.001 0.086,0.032 0.211,-0.071 0.012,-0.005 0.026,-0.012 0.038,-0.017 0.061,0.272 0.198,0.958 0.053,1.076 0.295,-0.183 0.444,-0.462 0.399,-0.979 0.503,0.11 0.888,0.388 1.113,0.895 0.072,-0.332 0.144,-0.663 -0.09,-0.978 0.518,0.068 0.919,0.355 1.27,0.741 0.053,-0.221 0.084,-0.447 0,-0.696 0.33,0.113 0.615,0.383 0.881,0.71 0,0 0.05,-0.917 -0.482,-1.358 -0.107,-0.107 -0.127,-0.211 -0.088,-0.406 0,0 0.042,-0.461 -1.22,-0.444 -0.205,0.003 -0.459,0.023 -0.739,0.055 0.02,-0.116 0.034,-0.237 0.034,-0.371 0,-1.151 0.813,-1.918 1.22,-1.902 0.136,0.006 0.228,0.098 0.228,0.292 -0.006,1.231 0.543,2.035 0.924,2.242 0,0 0.084,0.601 0.693,0.601 0.602,0.006 1.423,0.493 2.203,0.75 1.421,0.044 1.525,0.679 1.304,0.973 0,0 1.515,0.964 3.334,1.218 0.829,0.07 2.51,-0.075 4.224,0.233 0.747,-0.532 1.373,-0.244 1.422,0.503 0.181,0.322 0.775,0.573 0.513,1.748 -0.488,0.969 -0.59,0.764 -1.565,1.401 1.551,2.333 -2.623,2.596 -3.616,2.161 -1.634,-0.592 -2.906,0.244 -4.806,-0.245 -2.103,3.103 -5.005,1.073 -5.005,1.073 -0.26,1.202 -2.53,4.602 1.09,6.577 1.202,0.697 2.272,1.565 3.221,2.498 H 13.214 c -0.386,0 -0.767,-0.039 -1.14,-0.115 z M 10.1,45.577 C 9.913,44.919 9.825,44.248 9.859,43.558 c 0.494,1.161 1.217,1.992 1.974,2.773 C 11.218,46.177 10.632,45.923 10.1,45.577 Z M 36.207,34.436 c -0.006,0.005 -0.012,0.011 -0.017,0.016 -0.192,0.168 -0.941,0.551 -1.203,0.549 -0.402,-0.003 -0.722,-0.525 -1.323,-0.525 -1.064,0 -1.721,0.336 -1.956,0.489 0.376,0.036 0.864,-0.395 1.536,0.1 0.931,0.99 1.729,0.8 2.215,0.57 0.433,-0.128 0.565,-0.402 0.632,-0.487 0.218,-0.288 -0.096,-0.502 0.099,-0.696 0.006,-0.006 0.012,-0.011 0.017,-0.016 z M 33.32,32.081 c 0.399,0 0.722,0.216 0.722,0.482 0,0.266 -0.323,0.482 -0.722,0.482 0.848,-0.266 -0.047,-1.104 -0.722,-0.482 0,-0.266 0.323,-0.482 0.722,-0.482 z m -0.022,-0.275 c 0.18,-0.011 0.377,0.011 0.585,0.057 0.554,0.161 0.377,0.564 0.247,0.831 0.189,-0.668 -0.418,-0.798 -1.314,-0.743 0.142,-0.089 0.303,-0.134 0.482,-0.145 z M 22.438,29.75 c 0.093,0.054 0.609,0.226 0.674,0.266 0.052,0.169 0.024,0.342 0.696,0.643 0.607,0.188 1.387,0.109 1.622,-0.126 0.026,-0.399 0.031,-0.252 0.133,-0.377 0.367,-0.134 0.212,-0.098 0.273,-0.138 -0.703,0.137 -2.287,0.146 -3.398,-0.268 z"
       id="path9" />
    <path
       transform="matrix(1.21568,0,0,1.21568,-4.62997,-6.91393)"
       d="m 27.843,20.112 c -0.107,0.002 -0.262,0.133 -0.394,0.429 -0.322,0.586 -0.736,0.842 -0.732,1.274 0.147,0.246 -1.098,0.607 -0.705,1.377 -0.278,0.344 -0.934,0.787 -0.701,1.315 -0.118,0.258 -0.954,0.865 -0.593,1.438 -0.787,0.525 -0.74,0.651 -0.574,1.131 -0.421,0.27 -0.861,0.807 -0.64,1.246 0,0 -0.049,1.459 1.311,0.508 0.705,0.017 0.394,-0.754 0.394,-0.754 0.475,-0.131 0.548,-0.75 0.36,-1.114 0.607,0.016 0.51,-0.921 0.427,-1.246 0.475,-0.18 0.541,-0.748 0.344,-1.197 0.573,-0.131 0.59,-0.802 0.541,-1.278 0.59,-0.032 0.508,-1.065 0.508,-1.278 0.508,-0.328 0.394,-0.771 0.473,-1.283 0.177,-0.357 0.119,-0.57 -0.019,-0.568 z m -0.859,1.326 c -0.151,0.428 0.11,0.377 0.427,0.372 -0.145,0.155 -0.571,0.202 -0.571,0.044 0,-0.158 0.144,-0.416 0.144,-0.416 z m -0.832,1.224 c -0.151,0.429 0.34,0.49 0.657,0.485 -0.145,0.155 -0.616,0.158 -0.693,-0.033 -0.123,-0.244 0.036,-0.452 0.036,-0.452 z m -0.612,1.26 c -0.109,0.444 0.285,0.544 0.602,0.54 -0.144,0.155 -0.698,0.126 -0.698,-0.032 -0.099,-0.245 0.096,-0.508 0.096,-0.508 z m -0.601,1.398 c -0.109,0.444 0.53,0.434 0.847,0.429 -0.145,0.156 -0.595,0.304 -0.876,0.146 -0.245,-0.274 0.029,-0.575 0.029,-0.575 z m -0.587,1.117 c -0.136,0.268 0.717,0.535 1.034,0.53 -0.145,0.155 -0.757,0.274 -1.037,0.117 -0.304,-0.371 0.003,-0.647 0.003,-0.647 z m -0.614,1.316 c -0.108,0.444 0.977,0.388 1.294,0.383 -0.145,0.155 -1.042,0.35 -1.323,0.192 -0.245,-0.274 0.029,-0.575 0.029,-0.575 z"
       id="path11" />
    <path
       d="m 7.5,32.642 c 1.249,-1.14 2.596,-1.903 3.567,-1.981 1.319,-0.107 2.313,-0.314 3.075,-0.57 2.258,-0.759 2.482,-1.961 3.103,-2.346 -0.667,2.187 -0.187,3.309 0.145,4.091 0.14,0.46 0.374,0.969 0.762,1.489 1.313,1.76 1.672,2.626 1.672,3.462 0.182,0.451 -0.894,-1.734 -1.612,-2.567 0.476,0.929 0.907,1.858 0.985,2.776 -0.805,-1.562 -1.424,-2.211 -1.94,-2.358 0.342,0.996 0.622,1.941 0.449,2.507 -0.478,-1.188 -1.042,-1.811 -1.641,-2.208 -0.363,0.863 -0.401,1.8 0.119,2.863 -0.509,-0.256 -1.06,-0.756 -1.686,-1.685 0.177,0.726 0.343,1.452 1,2.194 -0.476,0.053 -0.965,-0.079 -1.463,-0.359 0.495,1.321 1.45,2.601 2.745,3.849 -1.306,-0.68 -2.59,-1.523 -3.818,-2.776 0.169,0.902 0.493,1.705 1.372,2.149 -0.707,0.074 -1.412,0.02 -2.118,-0.328 0.588,1.195 1.69,2.122 2.923,2.983 -1.18,-0.342 -2.352,-0.736 -3.402,-1.909 -0.058,0.691 0.139,1.356 0.539,1.999 -0.633,-0.396 -1.166,-0.908 -1.567,-1.567 0.013,1.461 0.606,2.77 1.365,4.035 -0.08,-0.016 -0.161,-0.034 -0.241,-0.054 -0.757,-0.781 -1.48,-1.612 -1.974,-2.773 -0.034,0.69 0.054,1.361 0.241,2.019 C 9.768,45.361 9.457,45.11 9.173,44.827 8.102,43.755 7.5,42.302 7.5,40.787 Z m 14.912,-5.949 c -0.574,0.008 -1.416,0.113 -2.655,0.406 -0.254,0.176 0.57,1.121 0.57,1.121 0,0 0.098,0.05 0.247,-0.1 0.06,0.267 0.202,0.969 0.055,1.088 0.295,-0.183 0.444,-0.464 0.399,-0.981 0.503,0.109 0.888,0.39 1.113,0.897 0.072,-0.332 0.144,-0.663 -0.09,-0.978 0.518,0.068 0.919,0.355 1.27,0.741 0.053,-0.221 0.084,-0.447 0,-0.696 0.33,0.113 0.615,0.383 0.881,0.71 0,0 0.05,-0.917 -0.482,-1.358 -0.107,-0.107 -0.127,-0.211 -0.088,-0.406 0,0 0.042,-0.461 -1.22,-0.444 z"
       fill-opacity="0.5"
       id="path13" />
  </g>
  <path
     id="path1057"
     style="fill:#2f7a54;fill-opacity:1"
     d="m 7.4998604,38.667977 v 2.11914 c 0,1.515 0.602827,2.967063 1.6738287,4.039063 0.804,0.80325 1.8221399,1.342751 2.9199219,1.5625 0,0 0.002,0 0.002,0 0.182349,0.03644 0.366588,0.06547 0.552735,0.08398 0,0 0.002,0 0.002,0 0.186153,0.01845 0.37378,0.02734 0.5625,0.02734 h 0.002 21.57031 c 0.568124,0 1.128063,-0.0856 1.66211,-0.248047 0.8895,-0.27074 1.708905,-0.756406 2.378906,-1.425781 C 39.897171,43.754172 40.5,42.302109 40.5,40.787109 v -2.11914 z" />
</svg>
