<?xml version="1.0" encoding="UTF-8" standalone="no"?>
<svg
   style="clip-rule:evenodd;fill-rule:evenodd;stroke-linejoin:round;stroke-miterlimit:2"
   viewBox="0 0 64 64"
   version="1.1"
   id="svg15"
   sodipodi:docname="text-xml.svg"
   inkscape:version="1.1.2 (0a00cf5339, 2022-02-04)"
   xmlns:inkscape="http://www.inkscape.org/namespaces/inkscape"
   xmlns:sodipodi="http://sodipodi.sourceforge.net/DTD/sodipodi-0.dtd"
   xmlns:xlink="http://www.w3.org/1999/xlink"
   xmlns="http://www.w3.org/2000/svg"
   xmlns:svg="http://www.w3.org/2000/svg">
  <sodipodi:namedview
     id="namedview17"
     pagecolor="#ffffff"
     bordercolor="#666666"
     borderopacity="1.0"
     inkscape:pageshadow="2"
     inkscape:pageopacity="0.0"
     inkscape:pagecheckerboard="0"
     showgrid="false"
     inkscape:zoom="10.65625"
     inkscape:cx="32"
     inkscape:cy="32"
     inkscape:window-width="1896"
     inkscape:window-height="1022"
     inkscape:window-x="12"
     inkscape:window-y="46"
     inkscape:window-maximized="1"
     inkscape:current-layer="svg15" />
  <path
     id="path2"
     style="fill:url(#linearGradient2630)"
     d="M 17.617188 1.46875 C 15.597188 1.46875 13.659469 2.2712188 12.230469 3.6992188 C 10.802469 5.1282186 10 7.0678906 10 9.0878906 L 10 12.984375 L 10 54.382812 C 10 56.402814 10.802469 58.340531 12.230469 59.769531 C 13.659469 61.197531 15.597187 62 17.617188 62 L 46.382812 62 C 48.402814 62 50.340531 61.197531 51.769531 59.769531 C 53.197531 58.340531 54 56.402814 54 54.382812 L 54 12.984375 L 54 9.0878906 C 54 7.0678906 53.197531 5.1282186 51.769531 3.6992188 C 50.340531 2.2712188 48.402813 1.46875 46.382812 1.46875 L 36.447266 1.46875 L 27.552734 1.46875 L 17.617188 1.46875 z " />
  <path
     id="path2-3"
     style="clip-rule:evenodd;fill:#296f79;fill-opacity:1;fill-rule:evenodd;stroke-linecap:round;stroke-linejoin:round;stroke-miterlimit:2"
     d="m 10.000004,50.982422 v 3.398437 0.002 c 6.5e-5,0.251841 0.01244,0.501552 0.03711,0.75 v 0.002 c 0.02473,0.248442 0.06268,0.494885 0.111328,0.738281 v 0.002 c 0.04871,0.243391 0.109702,0.484016 0.18164,0.720703 v 0.002 c 0.072,0.236684 0.155456,0.468944 0.25,0.697266 v 0.002 c 0.09461,0.228323 0.199936,0.453573 0.316406,0.671875 v 0.002 c 0.116532,0.218305 0.245102,0.430096 0.382814,0.636719 v 0.002 c 0.137775,0.206628 0.287037,0.406326 0.445311,0.599609 v 0.002 c 0.158341,0.193289 0.327703,0.378358 0.505861,0.55664 v 0.002 c 0.714498,0.714 1.557099,1.271274 2.472655,1.650391 C 15.618681,61.799106 16.607189,62 17.617187,62 h 28.765625 c 1.010002,0 1.998509,-0.200473 2.914063,-0.580078 0.915554,-0.379117 1.758155,-0.936391 2.472656,-1.650391 v -0.002 C 53.19753,58.338626 54,56.400859 54,54.380859 v -3.398437 z" />
  <path
     d="m30.283 59.44v-4.016h0.721v0.557h0.033c0.115-0.191 0.29-0.352 0.525-0.483 0.24-0.137 0.478-0.205 0.713-0.205 0.622 0 1.046 0.257 1.27 0.77 0.328-0.513 0.795-0.77 1.401-0.77 0.476 0 0.833 0.153 1.074 0.459 0.24 0.301 0.36 0.71 0.36 1.229v2.459h-0.753v-2.344c0-0.404-0.074-0.691-0.222-0.86-0.147-0.17-0.371-0.255-0.672-0.255-0.295 0-0.541 0.126-0.737 0.377-0.192 0.252-0.287 0.539-0.287 0.861v2.221h-0.754v-2.344c0-0.404-0.074-0.691-0.222-0.86-0.147-0.17-0.371-0.255-0.672-0.255-0.295 0-0.54 0.126-0.737 0.377-0.191 0.252-0.287 0.539-0.287 0.861v2.221h-0.754zm7.733-5.868v5.868h-0.754v-5.868h0.754zm-11.115 5.868h-0.885l1.418-2.041-1.385-1.975h0.852l0.992 1.418 0.942-1.418h0.885l-1.401 1.975 1.434 2.041h-0.885l-0.992-1.483-0.975 1.483z"
     style="fill-rule:nonzero;fill:#fff"
     id="path4" />
  <path
     d="m37.048 16.8c0.278 0.117 0.408 0.438 0.291 0.716l-8.583 20.3c-0.057 0.133-0.164 0.238-0.298 0.293-0.066 0.027-0.135 0.04-0.205 0.04-0.073 0-0.145-0.014-0.213-0.043l-1.437-0.608c-0.278-0.117-0.408-0.438-0.291-0.716l8.583-20.3c0.057-0.133 0.164-0.239 0.298-0.293s0.285-0.053 0.418 3e-3l1.437 0.608zm9.91 9.335l-8.139-6.086c-0.241-0.181-0.583-0.131-0.764 0.11l-0.935 1.25c-0.087 0.116-0.124 0.261-0.103 0.405 0.021 0.143 0.097 0.273 0.213 0.359l5.883 4.4-5.883 4.399c-0.116 0.087-0.192 0.217-0.213 0.36s0.016 0.289 0.103 0.405l0.935 1.25c0.107 0.143 0.271 0.219 0.438 0.219 0.113 0 0.228-0.036 0.326-0.109l8.139-6.087c0.138-0.103 0.219-0.265 0.219-0.437s-0.081-0.335-0.219-0.438zm-20.323 5.197c0.02 0.143-0.017 0.289-0.104 0.405l-0.934 1.25c-0.107 0.143-0.272 0.219-0.438 0.219-0.114 0-0.229-0.036-0.327-0.109l-8.139-6.087c-0.138-0.103-0.219-0.265-0.219-0.437s0.081-0.335 0.219-0.438l8.139-6.086c0.242-0.181 0.584-0.132 0.765 0.11l0.934 1.25c0.087 0.116 0.124 0.261 0.104 0.405-0.021 0.143-0.098 0.273-0.214 0.359l-5.883 4.4 5.883 4.399c0.116 0.087 0.193 0.216 0.214 0.36z"
     style="fill-rule:nonzero;fill:#296f79"
     id="path6" />
  <defs
     id="defs13">
    <linearGradient
       id="_Linear1"
       x2="1"
       gradientTransform="matrix(0,-49.619,49.619,0,469.44,51.088)"
       gradientUnits="userSpaceOnUse">
      <stop
         style="stop-color:#348692"
         offset="0"
         id="stop8" />
      <stop
         style="stop-color:#69b9cd"
         offset="1"
         id="stop10" />
    </linearGradient>
    <linearGradient
       inkscape:collect="always"
       xlink:href="#_Linear1"
       id="linearGradient2630"
       gradientUnits="userSpaceOnUse"
       gradientTransform="matrix(0,-49.619,49.619,0,469.44,51.088)"
       x2="1" />
  </defs>
</svg>
