<?xml version="1.0" encoding="UTF-8" standalone="no"?>
<svg
   width="100%"
   height="100%"
   viewBox="0 0 64 64"
   xml:space="preserve"
   style="fill-rule:evenodd;clip-rule:evenodd;stroke-linejoin:round;stroke-miterlimit:2;"
   version="1.1"
   id="svg15"
   sodipodi:docname="application-x-tsx.svg"
   inkscape:version="1.1.2 (0a00cf5339, 2022-02-04)"
   xmlns:inkscape="http://www.inkscape.org/namespaces/inkscape"
   xmlns:sodipodi="http://sodipodi.sourceforge.net/DTD/sodipodi-0.dtd"
   xmlns:xlink="http://www.w3.org/1999/xlink"
   xmlns="http://www.w3.org/2000/svg"
   xmlns:svg="http://www.w3.org/2000/svg"><sodipodi:namedview
     id="namedview17"
     pagecolor="#ffffff"
     bordercolor="#666666"
     borderopacity="1.0"
     inkscape:pageshadow="2"
     inkscape:pageopacity="0.0"
     inkscape:pagecheckerboard="0"
     showgrid="false"
     inkscape:zoom="10.65625"
     inkscape:cx="32"
     inkscape:cy="32"
     inkscape:window-width="1896"
     inkscape:window-height="1022"
     inkscape:window-x="12"
     inkscape:window-y="46"
     inkscape:window-maximized="1"
     inkscape:current-layer="svg15" /><path
     id="path2"
     style="fill:url(#linearGradient3800)"
     d="M 17.617188 1.46875 C 15.597188 1.46875 13.659469 2.2712188 12.230469 3.6992188 C 10.802469 5.1282186 10 7.0678906 10 9.0878906 L 10 12.238281 L 10 54.382812 C 10 56.402814 10.802469 58.340531 12.230469 59.769531 C 13.659469 61.197531 15.597187 62 17.617188 62 L 46.382812 62 C 48.402814 62 50.340531 61.197531 51.769531 59.769531 C 53.197531 58.340531 54 56.402814 54 54.382812 L 54 12.238281 L 54 9.0878906 C 54 7.0678906 53.197531 5.1282186 51.769531 3.6992188 C 50.340531 2.2712188 48.402813 1.46875 46.382812 1.46875 L 36.125 1.46875 L 27.875 1.46875 L 17.617188 1.46875 z " /><path
     id="path914"
     style="clip-rule:evenodd;fill:#22444a;fill-opacity:1;fill-rule:evenodd;stroke-width:1;stroke-linecap:round;stroke-linejoin:round;stroke-miterlimit:2"
     d="m 10,50.982422 v 3.40039 c 0,2.020002 0.802467,3.957719 2.230469,5.386719 C 13.659467,61.197531 15.597183,62 17.617187,62 h 28.765625 c 2.020002,0 3.957718,-0.802469 5.386719,-2.230469 C 53.19753,58.340531 54,56.402814 54,54.382812 v -3.40039 z" /><path
     d="M16.228,57.392c0,0.229 0.027,0.395 0.08,0.496c0.059,0.101 0.16,0.152 0.304,0.152c0.032,0 0.083,-0.003 0.152,-0.008c0.075,-0.011 0.128,-0.016 0.16,-0.016l0.104,0.552c-0.165,0.032 -0.344,0.048 -0.536,0.048c-0.219,0 -0.397,-0.024 -0.536,-0.072c-0.133,-0.053 -0.232,-0.141 -0.296,-0.264c-0.059,-0.123 -0.099,-0.248 -0.12,-0.376c-0.016,-0.133 -0.024,-0.317 -0.024,-0.552l0,-2.392l-0.512,0l0,-0.537l0.512,0l0,-1.032l0.712,-0.424l0,1.456l0.696,0l0,0.536l-0.696,0l0,2.433Zm1.354,2.768l-0.087,-0.552c0.171,0.043 0.307,0.064 0.408,0.064c0.149,0 0.28,-0.043 0.392,-0.128c0.112,-0.085 0.192,-0.189 0.24,-0.312c0.155,-0.405 0.237,-0.627 0.248,-0.664l-1.568,-4.144l0.744,0l0.872,2.392c0.123,0.336 0.221,0.659 0.296,0.968c0.107,-0.389 0.205,-0.704 0.296,-0.944l0.88,-2.416l0.712,0l-1.584,4.216l-0.128,0.344c-0.016,0.043 -0.059,0.144 -0.128,0.304c-0.069,0.165 -0.123,0.272 -0.16,0.32c-0.037,0.053 -0.096,0.133 -0.176,0.24c-0.08,0.112 -0.155,0.187 -0.224,0.224c-0.069,0.043 -0.155,0.083 -0.256,0.12c-0.101,0.037 -0.208,0.056 -0.32,0.056c-0.16,0 -0.312,-0.029 -0.456,-0.088l-0.001,0Zm7.601,-3.704c0,0.635 -0.163,1.163 -0.488,1.584c-0.32,0.416 -0.757,0.624 -1.312,0.624c-0.443,0 -0.803,-0.176 -1.08,-0.528l0,2.024l-0.712,0l0,-5.737l0.712,0l0,0.536c0.229,-0.421 0.605,-0.632 1.128,-0.632c0.56,0 0.992,0.195 1.296,0.584c0.304,0.389 0.456,0.904 0.456,1.544l0,0.001Zm-1.816,-1.552c-0.336,0 -0.597,0.147 -0.784,0.44c-0.187,0.288 -0.28,0.68 -0.28,1.176c0,1.045 0.347,1.568 1.04,1.568c0.368,0 0.648,-0.149 0.84,-0.448c0.192,-0.299 0.288,-0.693 0.288,-1.184c0,-0.464 -0.096,-0.837 -0.288,-1.12c-0.187,-0.288 -0.459,-0.432 -0.816,-0.432Zm3.165,1.759c0.027,0.433 0.147,0.779 0.36,1.04c0.219,0.257 0.52,0.385 0.904,0.385c0.512,0 0.877,-0.285 1.096,-0.856l0.72,0.088c-0.245,0.896 -0.853,1.344 -1.824,1.344c-0.624,0 -1.109,-0.187 -1.456,-0.56c-0.347,-0.373 -0.52,-0.901 -0.52,-1.584c0,-0.667 0.168,-1.197 0.504,-1.592c0.341,-0.4 0.819,-0.6 1.432,-0.6c0.555,0 0.995,0.168 1.32,0.504c0.325,0.331 0.509,0.787 0.552,1.368l0,0.464l-3.088,-0.001Zm0.04,-0.575l2.32,0c-0.064,-0.789 -0.44,-1.184 -1.128,-1.184c-0.347,0 -0.627,0.112 -0.84,0.336c-0.208,0.219 -0.325,0.501 -0.352,0.848Zm5.35,0.704c-0.267,-0.064 -0.478,-0.123 -0.633,-0.176c-0.155,-0.053 -0.315,-0.128 -0.48,-0.224c-0.165,-0.096 -0.285,-0.216 -0.36,-0.36c-0.075,-0.144 -0.112,-0.317 -0.112,-0.52c0,-0.133 0.021,-0.261 0.064,-0.384c0.048,-0.128 0.125,-0.253 0.232,-0.376c0.107,-0.128 0.264,-0.229 0.472,-0.304c0.213,-0.08 0.464,-0.12 0.752,-0.12c0.299,0 0.555,0.032 0.768,0.096c0.213,0.059 0.379,0.147 0.496,0.264c0.117,0.117 0.205,0.237 0.264,0.36c0.059,0.123 0.101,0.269 0.128,0.44l-0.696,0.088c-0.064,-0.448 -0.368,-0.672 -0.912,-0.672c-0.571,0 -0.856,0.179 -0.856,0.536c0,0.16 0.061,0.277 0.184,0.352c0.123,0.075 0.352,0.157 0.688,0.248c0.048,0.011 0.136,0.035 0.264,0.072c0.133,0.032 0.221,0.056 0.264,0.072c0.048,0.011 0.128,0.035 0.24,0.072c0.112,0.032 0.189,0.059 0.232,0.08c0.048,0.021 0.115,0.053 0.2,0.096c0.091,0.043 0.155,0.083 0.192,0.12c0.037,0.037 0.083,0.085 0.136,0.144c0.053,0.059 0.091,0.12 0.112,0.184c0.027,0.059 0.048,0.128 0.064,0.208c0.021,0.08 0.032,0.165 0.032,0.256c0,0.251 -0.059,0.467 -0.176,0.648c-0.112,0.181 -0.259,0.32 -0.44,0.416c-0.176,0.091 -0.352,0.155 -0.528,0.192c-0.176,0.043 -0.349,0.064 -0.52,0.064c-1.024,0 -1.616,-0.445 -1.776,-1.336l0.696,-0.112c0.075,0.581 0.435,0.872 1.08,0.872c0.635,0 0.952,-0.221 0.952,-0.664c0,-0.048 -0.005,-0.091 -0.016,-0.128c-0.005,-0.043 -0.021,-0.08 -0.048,-0.112c-0.027,-0.032 -0.051,-0.059 -0.072,-0.08c-0.021,-0.027 -0.056,-0.051 -0.104,-0.072c-0.048,-0.027 -0.088,-0.045 -0.12,-0.056c-0.027,-0.016 -0.075,-0.032 -0.144,-0.048l-0.16,-0.048c-0.032,-0.011 -0.091,-0.024 -0.176,-0.04c-0.085,-0.021 -0.147,-0.037 -0.184,-0.048l0.001,0Zm2.336,-0.289c0,-0.415 0.059,-0.772 0.176,-1.071c0.117,-0.299 0.272,-0.523 0.464,-0.672c0.197,-0.155 0.4,-0.264 0.608,-0.328c0.208,-0.069 0.427,-0.104 0.656,-0.104c0.928,0 1.48,0.437 1.656,1.312l-0.688,0.104c-0.123,-0.56 -0.437,-0.84 -0.944,-0.84c-0.811,0 -1.216,0.531 -1.216,1.592c0,1.061 0.392,1.592 1.176,1.592c0.592,0 0.941,-0.347 1.048,-1.04l0.68,0.088c-0.075,0.464 -0.261,0.835 -0.56,1.112c-0.293,0.277 -0.677,0.416 -1.152,0.416c-0.603,0 -1.072,-0.195 -1.408,-0.584c-0.331,-0.395 -0.496,-0.92 -0.496,-1.576l0,-0.001Zm4.192,2.065l0,-4.145l0.712,0l0,0.624c0.197,-0.48 0.472,-0.72 0.824,-0.72c0.24,0 0.48,0.072 0.72,0.216l-0.232,0.52c-0.16,-0.107 -0.331,-0.16 -0.512,-0.16c-0.235,0 -0.427,0.125 -0.576,0.376c-0.149,0.251 -0.224,0.624 -0.224,1.12l0,2.168l-0.712,0.001Zm2.672,-4.92l0,-0.808l0.712,0l0,0.808l-0.712,0Zm0,4.92l0,-4.145l0.712,0l0,4.144l-0.712,0.001Zm5.373,-2.112c0,0.635 -0.163,1.163 -0.488,1.584c-0.32,0.416 -0.757,0.624 -1.312,0.624c-0.443,0 -0.803,-0.176 -1.08,-0.528l0,2.024l-0.712,0l0,-5.737l0.712,0l0,0.536c0.229,-0.421 0.605,-0.632 1.128,-0.632c0.56,0 0.992,0.195 1.296,0.584c0.304,0.389 0.456,0.904 0.456,1.544l0,0.001Zm-1.816,-1.552c-0.336,0 -0.597,0.147 -0.784,0.44c-0.187,0.288 -0.28,0.68 -0.28,1.176c0,1.045 0.347,1.568 1.04,1.568c0.368,0 0.648,-0.149 0.84,-0.448c0.192,-0.299 0.288,-0.693 0.288,-1.184c0,-0.464 -0.096,-0.837 -0.288,-1.12c-0.187,-0.288 -0.459,-0.432 -0.816,-0.432Zm3.518,2.488c0,0.229 0.027,0.395 0.08,0.496c0.059,0.101 0.16,0.152 0.304,0.152c0.032,0 0.083,-0.003 0.152,-0.008c0.075,-0.011 0.128,-0.016 0.16,-0.016l0.104,0.552c-0.165,0.032 -0.344,0.048 -0.536,0.048c-0.219,0 -0.397,-0.024 -0.536,-0.072c-0.133,-0.053 -0.232,-0.141 -0.296,-0.264c-0.059,-0.123 -0.099,-0.248 -0.12,-0.376c-0.016,-0.133 -0.024,-0.317 -0.024,-0.552l0,-2.392l-0.512,0l0,-0.537l0.512,0l0,-1.032l0.712,-0.424l0,1.456l0.696,0l0,0.536l-0.696,0l0,2.433Z"
     style="fill:#fff;fill-rule:nonzero;"
     id="path4" /><path
     d="M25.987,23.086l-4.483,0l0,12.432l-1.829,0l0,-12.432l-4.473,0l0,-1.513l10.785,0l0,1.513Zm5.552,6.127c-1.577,-0.453 -2.727,-1.009 -3.448,-1.666c-0.715,-0.664 -1.073,-1.481 -1.073,-2.451c0,-1.099 0.438,-2.005 1.313,-2.72c0.881,-0.722 2.023,-1.083 3.428,-1.083c0.958,0 1.811,0.185 2.558,0.556c0.753,0.37 1.334,0.881 1.743,1.532c0.415,0.651 0.622,1.363 0.622,2.136l-1.848,0c0,-0.843 -0.268,-1.504 -0.805,-1.983c-0.536,-0.485 -1.293,-0.728 -2.27,-0.728c-0.907,0 -1.615,0.201 -2.126,0.604c-0.505,0.396 -0.757,0.948 -0.757,1.657c0,0.568 0.24,1.05 0.719,1.446c0.485,0.389 1.306,0.747 2.461,1.073c1.162,0.325 2.069,0.686 2.72,1.082c0.658,0.389 1.143,0.846 1.456,1.37c0.319,0.523 0.479,1.139 0.479,1.848c0,1.13 -0.441,2.037 -1.322,2.72c-0.881,0.677 -2.059,1.015 -3.534,1.015c-0.958,0 -1.852,-0.182 -2.682,-0.546c-0.83,-0.37 -1.472,-0.874 -1.925,-1.513c-0.447,-0.639 -0.67,-1.363 -0.67,-2.174l1.848,0c0,0.843 0.31,1.51 0.93,2.002c0.625,0.485 1.459,0.728 2.5,0.728c0.97,0 1.713,-0.198 2.23,-0.594c0.518,-0.396 0.777,-0.936 0.777,-1.619c0,-0.683 -0.24,-1.21 -0.719,-1.58c-0.479,-0.377 -1.347,-0.747 -2.605,-1.111l0,-0.001Zm5.868,-7.684l4.417,6.915l-4.522,7.03l2.174,0l3.45,-5.44l3.427,5.44l2.184,0l-4.51,-7.03l4.405,-6.915l-2.165,0l-3.342,5.344l-3.361,-5.344l-2.157,0Z"
     style="fill-opacity:0.58;fill-rule:nonzero;"
     id="path6" /><defs
     id="defs13"><linearGradient
       id="_Linear1"
       x1="0"
       y1="0"
       x2="1"
       y2="0"
       gradientUnits="userSpaceOnUse"
       gradientTransform="matrix(0,-49.619,49.619,0,469.44,51.088)"><stop
         offset="0"
         style="stop-color:#348692;stop-opacity:1"
         id="stop8" /><stop
         offset="1"
         style="stop-color:#69b9cd;stop-opacity:1"
         id="stop10" /></linearGradient><linearGradient
       inkscape:collect="always"
       xlink:href="#_Linear1"
       id="linearGradient3800"
       gradientUnits="userSpaceOnUse"
       gradientTransform="matrix(0,-49.619,49.619,0,469.44,51.088)"
       x1="0"
       y1="0"
       x2="1"
       y2="0" /></defs></svg>
