<?xml version="1.0" encoding="UTF-8" standalone="no"?>
<svg
   clip-rule="evenodd"
   fill-rule="evenodd"
   stroke-linejoin="round"
   stroke-miterlimit="2"
   viewBox="0 0 64 64"
   version="1.1"
   id="svg25"
   sodipodi:docname="text-x-scala.svg"
   inkscape:version="1.1.2 (0a00cf5339, 2022-02-04)"
   xmlns:inkscape="http://www.inkscape.org/namespaces/inkscape"
   xmlns:sodipodi="http://sodipodi.sourceforge.net/DTD/sodipodi-0.dtd"
   xmlns:xlink="http://www.w3.org/1999/xlink"
   xmlns="http://www.w3.org/2000/svg"
   xmlns:svg="http://www.w3.org/2000/svg">
  <defs
     id="defs29">
    <linearGradient
       inkscape:collect="always"
       xlink:href="#a"
       id="linearGradient979"
       gradientUnits="userSpaceOnUse"
       gradientTransform="matrix(0,-49.619,49.619,0,396.55,51.088)"
       x2="1" />
  </defs>
  <sodipodi:namedview
     id="namedview27"
     pagecolor="#ffffff"
     bordercolor="#666666"
     borderopacity="1.0"
     inkscape:pageshadow="2"
     inkscape:pageopacity="0.0"
     inkscape:pagecheckerboard="0"
     showgrid="false"
     inkscape:zoom="10.65625"
     inkscape:cx="32"
     inkscape:cy="32"
     inkscape:window-width="1896"
     inkscape:window-height="1022"
     inkscape:window-x="12"
     inkscape:window-y="46"
     inkscape:window-maximized="1"
     inkscape:current-layer="svg25" />
  <linearGradient
     id="a"
     x2="1"
     gradientTransform="matrix(0,-49.619,49.619,0,396.55,51.088)"
     gradientUnits="userSpaceOnUse">
    <stop
       stop-color="#9b070f"
       offset="0"
       id="stop2" />
    <stop
       stop-color="#e65130"
       offset="1"
       id="stop4" />
  </linearGradient>
  <path
     id="path7"
     style="fill:url(#linearGradient979)"
     d="M 17.617188 1.46875 C 15.597188 1.46875 13.659469 2.2712188 12.230469 3.6992188 C 10.802469 5.1282186 10 7.0678906 10 9.0878906 L 10 12.283203 L 10 54.382812 C 10 56.402814 10.802469 58.340531 12.230469 59.769531 C 13.659469 61.197531 15.597187 62 17.617188 62 L 46.382812 62 C 48.402814 62 50.340531 61.197531 51.769531 59.769531 C 53.197531 58.340531 54 56.402814 54 54.382812 L 54 12.283203 L 54 9.0878906 C 54 7.0678906 53.197531 5.1282186 51.769531 3.6992188 C 50.340531 2.2712188 48.402813 1.46875 46.382812 1.46875 L 38.037109 1.46875 L 25.962891 1.46875 L 17.617188 1.46875 z " />
  <path
     id="path2-3-3"
     style="clip-rule:evenodd;fill:#800000;fill-opacity:1;fill-rule:evenodd;stroke-linecap:round;stroke-linejoin:round;stroke-miterlimit:2"
     d="m 10.000006,50.982422 v 3.398437 0.002 c 6.4e-5,0.251841 0.01244,0.501552 0.03711,0.75 v 0.002 c 0.02473,0.248442 0.06268,0.494885 0.111329,0.738281 v 0.002 c 0.04871,0.243391 0.109702,0.484016 0.181639,0.720703 v 0.002 c 0.072,0.236684 0.155455,0.468944 0.25,0.697266 v 0.002 c 0.09461,0.228323 0.199935,0.453573 0.316407,0.671875 v 0.002 c 0.116531,0.218305 0.245101,0.430096 0.382813,0.636719 v 0.002 c 0.137776,0.206628 0.287038,0.406326 0.445312,0.599609 v 0.002 c 0.158341,0.193289 0.327702,0.378358 0.50586,0.55664 v 0.002 c 0.714498,0.714 1.557098,1.271274 2.472653,1.650391 C 15.618682,61.799106 16.607188,62 17.617188,62 h 28.765625 c 1.010002,0 1.998508,-0.200473 2.914062,-0.580078 0.915554,-0.379117 1.758156,-0.936391 2.472656,-1.650391 v -0.002 C 53.19753,58.338626 54,56.400859 54,54.380859 v -3.398437 z" />
  <g
     fill-rule="nonzero"
     id="g23">
    <path
       d="m26 17.691v5.539s13.846 1.386 13.846 3.694v-5.539s0-2.309-13.846-3.694zm0 7.385v5.539s13.846 1.386 13.846 3.694v-5.54s0-2.308-13.846-3.693z"
       fill="#800000"
       fill-opacity=".47"
       id="path9" />
    <path
       d="m39.846 14c0 2.308-13.846 3.691-13.846 3.691v5.54c13.846-1.385 13.846-3.692 13.846-3.692zm0 7.385c0 2.307-13.846 3.691-13.846 3.691v5.539c13.846-1.384 13.846-3.691 13.846-3.691zm0 7.384c0 2.308-13.846 3.692-13.846 3.692v5.539c13.846-1.385 13.846-3.691 13.846-3.691z"
       fill="#800000"
       id="path11" />
    <path
       d="m25.446 57.786c.16.13.323.235.488.315.17.08.365.12.585.12.24 0 .42-.055.54-.165s.18-.245.18-.405c0-.095-.025-.177-.075-.247s-.115-.13-.195-.18c-.075-.055-.163-.103-.263-.143l-.3-.12c-.13-.045-.26-.095-.39-.15-.13-.06-.247-.13-.352-.21-.1-.085-.183-.182-.248-.292s-.097-.243-.097-.398c0-.145.027-.28.082-.405.06-.13.143-.24.248-.33.11-.095.242-.167.397-.217.155-.055.33-.082.525-.082.23 0 .44.04.63.12.195.08.363.177.503.292l-.293.39c-.125-.095-.255-.172-.39-.232s-.282-.09-.442-.09c-.23 0-.4.052-.51.157-.105.105-.158.228-.158.368 0 .085.023.16.068.225.045.06.105.115.18.165.075.045.16.087.255.127.1.035.202.073.307.113.13.05.26.102.39.157.135.055.255.125.36.21.105.08.19.18.255.3.07.12.105.265.105.435 0 .15-.03.29-.09.42-.055.13-.14.245-.255.345-.11.1-.25.178-.42.233-.165.06-.355.09-.57.09-.26 0-.507-.048-.742-.143s-.44-.215-.615-.36l.307-.412z"
       fill="#fff"
       id="path13" />
    <path
       d="m28.423 56.796c0-.305.048-.575.143-.81.095-.24.222-.442.382-.607s.345-.29.555-.375c.215-.085.44-.128.675-.128.24 0 .445.045.615.135.175.085.325.185.45.3l-.307.398c-.11-.095-.225-.173-.345-.233-.115-.06-.245-.09-.39-.09-.165 0-.318.035-.458.105-.14.065-.26.16-.36.285s-.18.275-.24.45c-.055.17-.082.36-.082.57s.027.4.082.57.13.318.225.443c.1.12.22.215.36.285.14.065.293.098.458.098.175 0 .332-.035.472-.105.145-.075.273-.163.383-.263l.277.405c-.165.145-.35.26-.555.345-.2.085-.41.128-.63.128-.24 0-.465-.043-.675-.128s-.392-.207-.547-.367c-.15-.165-.27-.365-.36-.6-.085-.24-.128-.51-.128-.81z"
       fill="#fff"
       id="path15" />
    <path
       d="m31.853 57.666c0-.4.178-.705.533-.915.36-.215.93-.365 1.71-.45 0-.115-.013-.227-.038-.337-.02-.11-.06-.208-.12-.293-.055-.085-.13-.152-.225-.202-.095-.055-.217-.082-.367-.082-.215 0-.415.04-.6.12-.18.08-.343.17-.488.27l-.247-.428c.17-.11.377-.215.622-.315.245-.105.515-.157.81-.157.445 0 .768.137.968.412.2.27.3.633.3 1.088v2.235h-.51l-.053-.435h-.015c-.175.145-.365.27-.57.375-.2.1-.412.15-.637.15-.31 0-.568-.09-.773-.27-.2-.18-.3-.435-.3-.765zm.608-.045c0 .21.06.36.18.45.125.09.277.135.457.135.175 0 .34-.04.495-.12.16-.085.328-.207.503-.367v-1.013c-.305.04-.563.088-.773.143-.21.054-.38.119-.51.195-.125.075-.215.162-.27.262-.055.095-.082.2-.082.315z"
       fill="#fff"
       id="path17" />
    <path
       d="m35.871 53.271h.615v4.65c0 .1.018.17.053.21s.075.06.12.06h.052c.02 0 .048-.005.083-.015l.082.465c-.04.02-.087.035-.142.045s-.125.015-.21.015c-.235 0-.403-.07-.503-.21s-.15-.345-.15-.615z"
       fill="#fff"
       id="path19" />
    <path
       d="m37.61 57.666c0-.4.178-.705.533-.915.36-.215.93-.365 1.71-.45 0-.115-.013-.227-.038-.337-.02-.11-.06-.208-.12-.293-.055-.085-.13-.152-.225-.202-.095-.055-.217-.082-.367-.082-.215 0-.415.04-.6.12-.18.08-.343.17-.488.27l-.247-.428c.17-.11.377-.215.622-.315.245-.105.515-.157.81-.157.445 0 .768.137.968.412.2.27.3.633.3 1.088v2.235h-.51l-.053-.435h-.015c-.175.145-.365.27-.57.375-.2.1-.412.15-.637.15-.31 0-.568-.09-.773-.27-.2-.18-.3-.435-.3-.765zm.608-.045c0 .21.06.36.18.45.125.09.277.135.457.135.175 0 .34-.04.495-.12.16-.085.328-.207.503-.367v-1.013c-.305.04-.563.088-.773.143-.21.054-.38.119-.51.195-.125.075-.215.162-.27.262-.055.095-.082.2-.082.315z"
       fill="#fff"
       id="path21" />
  </g>
</svg>
