<?xml version="1.0" encoding="UTF-8" standalone="no"?>
<svg
   clip-rule="evenodd"
   fill-rule="evenodd"
   stroke-linejoin="round"
   stroke-miterlimit="2"
   viewBox="0 0 48 48"
   version="1.1"
   id="svg11"
   sodipodi:docname="text-x-emacs-lisp.svg"
   inkscape:version="1.1.2 (0a00cf5339, 2022-02-04)"
   xmlns:inkscape="http://www.inkscape.org/namespaces/inkscape"
   xmlns:sodipodi="http://sodipodi.sourceforge.net/DTD/sodipodi-0.dtd"
   xmlns:xlink="http://www.w3.org/1999/xlink"
   xmlns="http://www.w3.org/2000/svg"
   xmlns:svg="http://www.w3.org/2000/svg">
  <defs
     id="defs15">
    <linearGradient
       inkscape:collect="always"
       xlink:href="#a"
       id="linearGradient3816"
       gradientUnits="userSpaceOnUse"
       gradientTransform="matrix(0,-37.2142,37.2142,0,133.41,38.316)"
       x2="1" />
  </defs>
  <sodipodi:namedview
     id="namedview13"
     pagecolor="#ffffff"
     bordercolor="#666666"
     borderopacity="1.0"
     inkscape:pageshadow="2"
     inkscape:pageopacity="0.0"
     inkscape:pagecheckerboard="0"
     showgrid="false"
     inkscape:zoom="14.208333"
     inkscape:cx="24"
     inkscape:cy="24"
     inkscape:window-width="1896"
     inkscape:window-height="1022"
     inkscape:window-x="12"
     inkscape:window-y="46"
     inkscape:window-maximized="1"
     inkscape:current-layer="svg11" />
  <linearGradient
     id="a"
     x2="1"
     gradientTransform="matrix(0,-37.2142,37.2142,0,133.41,38.316)"
     gradientUnits="userSpaceOnUse">
    <stop
       stop-color="#bdcbd5"
       offset="0"
       id="stop2" />
    <stop
       stop-color="#e4e8eb"
       offset="1"
       id="stop4" />
  </linearGradient>
  <path
     id="path7"
     style="fill:url(#linearGradient3816)"
     d="M 13.214844 1.1015625 C 11.699844 1.1015625 10.245828 1.7043906 9.1738281 2.7753906 C 8.1028281 3.8473906 7.5 5.2994531 7.5 6.8144531 L 7.5 11.107422 L 7.5 40.787109 C 7.5 42.302109 8.1028281 43.754172 9.1738281 44.826172 C 9.9778281 45.629422 10.995967 46.168923 12.09375 46.388672 C 12.094369 46.388796 12.095084 46.388548 12.095703 46.388672 C 12.278052 46.42511 12.462292 46.454145 12.648438 46.472656 C 12.649081 46.47272 12.649747 46.472592 12.650391 46.472656 C 12.836546 46.491104 13.024169 46.5 13.212891 46.5 C 13.213544 46.5 13.21419 46.5 13.214844 46.5 L 34.785156 46.5 C 35.353281 46.5 35.913222 46.414397 36.447266 46.251953 C 37.336767 45.981213 38.156172 45.495547 38.826172 44.826172 C 39.897172 43.754172 40.5 42.302109 40.5 40.787109 L 40.5 11.107422 L 40.5 6.8144531 C 40.5 5.2994531 39.897172 3.8473906 38.826172 2.7753906 C 37.754172 1.7043906 36.300156 1.1015625 34.785156 1.1015625 L 29.085938 1.1015625 L 18.914062 1.1015625 L 13.214844 1.1015625 z " />
  <path
     d="m18.054 33.103s1.167.346 2.722.544c.63.08 2.526.36 4.362.353 0 0 2.237.003 3.472-.177 1.292-.187 2.024-.426 2.432-.903.01-.114.196-.485-.306-.842-1.284-.915-2.444-1.165-5.668-1.947-3.566-.915-4.631-1.791-5.163-2.425-.505-.635.094-1.655 2.967-2.302 1.455-.361 6.872-.428 6.872-.428-2.11-1.839-4.996-4.118-6.924-5.637-.123-.562.743-.832 1.202-.863 1.477-.104 3.893-.228 5.686.136.901.183 1.059.156 1.059.156 1.284.063 2.282-.624 2.231-2.069-.01-1.466-1.446-2.642-3.035-2.693-1.497-.048-5.185.218-5.185.218 4.298.905 5.001 1.136 5.225 1.664-1.003 2.112-8.671-1.363-10.769.727-.499.665.071 1.476.295 1.954.999 1.779 3.124 2.698 4.22 3.558.412.323 1.67 1.04 1.67 1.04-3.911-1.092-7.028-.479-9.005.582-2.271 1.372-1.883 3.689 1.722 5.854 2.129 1.279 3.189 1.893 6.675 2.33 2.037.332 2.341.467 2.325.641-.022.243-2.411.336-3.068.382-1.671.118-5.993.147-6.015.147z"
     fill="#ffffff"
     fill-rule="nonzero"
     id="path9" />
  <path
     id="path1057"
     style="fill:#8c979e;fill-opacity:1"
     d="m 7.4998619,38.667977 v 2.11914 c 0,1.515 0.602827,2.967063 1.673828,4.039063 0.804,0.80325 1.8221391,1.342751 2.9199211,1.5625 0,0 0.002,0 0.002,0 0.182349,0.03644 0.366588,0.06547 0.552735,0.08398 0,0 0.002,0 0.002,0 0.186153,0.01845 0.37378,0.02734 0.5625,0.02734 h 0.002 21.57031 c 0.568124,0 1.128063,-0.0856 1.66211,-0.248047 0.8895,-0.27074 1.708905,-0.756406 2.378906,-1.425781 C 39.897171,43.754172 40.5,42.302109 40.5,40.787109 v -2.11914 z" />
</svg>
