<?xml version="1.0" encoding="UTF-8" standalone="no"?>
<svg
   clip-rule="evenodd"
   fill-rule="evenodd"
   stroke-linejoin="round"
   stroke-miterlimit="2"
   viewBox="0 0 64 64"
   version="1.1"
   id="svg35"
   sodipodi:docname="text-x-kvt.svg"
   inkscape:version="1.1.2 (0a00cf5339, 2022-02-04)"
   xmlns:inkscape="http://www.inkscape.org/namespaces/inkscape"
   xmlns:sodipodi="http://sodipodi.sourceforge.net/DTD/sodipodi-0.dtd"
   xmlns:xlink="http://www.w3.org/1999/xlink"
   xmlns="http://www.w3.org/2000/svg"
   xmlns:svg="http://www.w3.org/2000/svg">
  <defs
     id="defs39">
    <linearGradient
       inkscape:collect="always"
       xlink:href="#a"
       id="linearGradient2670"
       gradientUnits="userSpaceOnUse"
       gradientTransform="matrix(0,-49.619,49.619,0,177.88,51.088)"
       x2="1" />
  </defs>
  <sodipodi:namedview
     id="namedview37"
     pagecolor="#ffffff"
     bordercolor="#666666"
     borderopacity="1.0"
     inkscape:pageshadow="2"
     inkscape:pageopacity="0.0"
     inkscape:pagecheckerboard="0"
     showgrid="false"
     inkscape:zoom="10.65625"
     inkscape:cx="32"
     inkscape:cy="32"
     inkscape:window-width="1896"
     inkscape:window-height="1022"
     inkscape:window-x="12"
     inkscape:window-y="46"
     inkscape:window-maximized="1"
     inkscape:current-layer="svg35" />
  <linearGradient
     id="a"
     x2="1"
     gradientTransform="matrix(0,-49.619,49.619,0,177.88,51.088)"
     gradientUnits="userSpaceOnUse">
    <stop
       stop-color="#b5bdc2"
       offset="0"
       id="stop2" />
    <stop
       stop-color="#dddddd"
       offset="1"
       id="stop4" />
  </linearGradient>
  <path
     id="path7"
     style="fill:url(#linearGradient2670)"
     d="M 17.617188 1.46875 C 15.597188 1.46875 13.659469 2.2712188 12.230469 3.6992188 C 10.802469 5.1282186 10 7.0678906 10 9.0878906 L 10 14.242188 L 10 54.382812 C 10 56.402814 10.802469 58.340531 12.230469 59.769531 C 13.659469 61.197531 15.597187 62 17.617188 62 L 46.382812 62 C 48.402814 62 50.340531 61.197531 51.769531 59.769531 C 53.197531 58.340531 54 56.402814 54 54.382812 L 54 14.242188 L 54 9.0878906 C 54 7.0678906 53.197531 5.1282186 51.769531 3.6992188 C 50.340531 2.2712188 48.402813 1.46875 46.382812 1.46875 L 39.455078 1.46875 L 24.544922 1.46875 L 17.617188 1.46875 z " />
  <g
     transform="matrix(2.0346 0 0 2.035 14.777 14.777)"
     fill-rule="nonzero"
     opacity=".75"
     id="g33">
    <path
       d="m13.323 3.603c-.048.049 2.02 4.86 2.02 4.86l-2.02 4.858s-4.86-2.568-4.86-4.859c0-2.29 4.86-4.859 4.86-4.859z"
       fill="#46a926"
       id="path9" />
    <path
       d="m3.604 13.321c.049-.049-2.02-4.859-2.02-4.859l2.02-4.859s4.86 2.569 4.86 4.86c0 2.29-4.86 4.858-4.86 4.858z"
       fill="#f22c42"
       id="path11" />
    <path
       d="m13.323 3.603c-.048.049-4.86-2.019-4.86-2.019l-4.86 2.019 4.86 4.86z"
       fill="#ffda64"
       id="path13" />
    <path
       d="m3.604 13.321 4.86 2.013s4.81-2.062 4.86-2.013l-4.86-4.859z"
       fill="#2f5fdd"
       id="path15" />
    <path
       d="m8.464 1.587c-.001 1.758.672 3.516 2.019 4.862l2.845-2.844c-1.288-1.29-3.038-2.016-4.861-2.018z"
       fill="#a6d74f"
       id="path17" />
    <path
       d="m13.328 3.605-2.845 2.844c1.287 1.292 3.039 2.017 4.863 2.012-.003-1.821-.729-3.569-2.018-4.856z"
       fill="#76c22b"
       id="path19" />
    <path
       d="m10.476 10.481c-1.293 1.287-2.021 3.038-2.019 4.862h.069c1.801-.017 3.526-.74 4.8-2.013z"
       fill="#1463a5"
       id="path21" />
    <path
       d="m15.346 8.469c-1.826-.007-3.581.718-4.87 2.012l2.85 2.85c1.291-1.288 2.018-3.038 2.02-4.862z"
       fill="#2b898f"
       id="path23" />
    <path
       d="m1.587 8.463v.003c.002 1.821.727 3.569 2.014 4.857l2.85-2.848c-1.288-1.292-3.04-2.016-4.864-2.011z"
       fill="#9b33ae"
       id="path25" />
    <path
       d="m6.45 10.475-2.85 2.848c1.279 1.282 3.015 2.008 4.826 2.02h.043c.003-1.826-.724-3.58-2.019-4.868z"
       fill="#7839b7"
       id="path27" />
    <path
       d="m8.467 1.587c-1.822 2e-3 -3.57 0.727-4.858 2.015l2.848 2.847c1.293-1.286 2.02-3.037 2.019-4.861h-0.01z"
       fill="#fdc92b"
       id="path29" />
    <path
       d="m3.609 3.602c-1.29 1.287-2.018 3.036-2.021 4.859 1.826.006 3.58-.719 4.869-2.012z"
       fill="#f34f17"
       id="path31" />
  </g>
  <path
     id="path2-3"
     style="clip-rule:evenodd;fill:#8a9194;fill-opacity:1;fill-rule:evenodd;stroke-linecap:round;stroke-linejoin:round;stroke-miterlimit:2"
     d="m 10.000004,50.982422 v 3.398437 0.002 c 6.5e-5,0.251841 0.01244,0.501552 0.03711,0.75 v 0.002 c 0.02473,0.248442 0.06268,0.494885 0.111328,0.738281 v 0.002 c 0.04871,0.243391 0.109702,0.484016 0.18164,0.720703 v 0.002 c 0.072,0.236684 0.155456,0.468944 0.25,0.697266 v 0.002 c 0.09461,0.228323 0.199936,0.453573 0.316406,0.671875 v 0.002 c 0.116532,0.218305 0.245102,0.430096 0.382814,0.636719 v 0.002 c 0.137775,0.206628 0.287037,0.406326 0.445311,0.599609 v 0.002 c 0.158341,0.193289 0.327703,0.378358 0.505861,0.55664 v 0.002 c 0.714498,0.714 1.557099,1.271274 2.472655,1.650391 C 15.618681,61.799106 16.607189,62 17.617187,62 h 28.765625 c 1.010002,0 1.998509,-0.200473 2.914063,-0.580078 0.915554,-0.379117 1.758155,-0.936391 2.472656,-1.650391 v -0.002 C 53.19753,58.338626 54,56.400859 54,54.380859 v -3.398437 z" />
</svg>
