<?xml version="1.0" encoding="UTF-8" standalone="no"?>
<svg
   style="clip-rule:evenodd;fill-rule:evenodd;stroke-linejoin:round;stroke-miterlimit:2"
   viewBox="0 0 64 64"
   version="1.1"
   id="svg27"
   sodipodi:docname="text-x-matlab.svg"
   inkscape:version="1.1.2 (0a00cf5339, 2022-02-04)"
   xmlns:inkscape="http://www.inkscape.org/namespaces/inkscape"
   xmlns:sodipodi="http://sodipodi.sourceforge.net/DTD/sodipodi-0.dtd"
   xmlns:xlink="http://www.w3.org/1999/xlink"
   xmlns="http://www.w3.org/2000/svg"
   xmlns:svg="http://www.w3.org/2000/svg">
  <sodipodi:namedview
     id="namedview29"
     pagecolor="#ffffff"
     bordercolor="#666666"
     borderopacity="1.0"
     inkscape:pageshadow="2"
     inkscape:pageopacity="0.0"
     inkscape:pagecheckerboard="0"
     showgrid="false"
     inkscape:zoom="10.65625"
     inkscape:cx="32"
     inkscape:cy="32"
     inkscape:window-width="1896"
     inkscape:window-height="1022"
     inkscape:window-x="12"
     inkscape:window-y="46"
     inkscape:window-maximized="1"
     inkscape:current-layer="svg27" />
  <path
     id="path2"
     style="fill:url(#linearGradient4766)"
     d="M 17.617188 1.46875 C 15.597188 1.46875 13.659469 2.2712188 12.230469 3.6992188 C 10.802469 5.1282186 10 7.0678906 10 9.0878906 L 10 13.613281 L 10 54.382812 C 10 56.402814 10.802469 58.340531 12.230469 59.769531 C 13.659469 61.197531 15.597187 62 17.617188 62 L 46.382812 62 C 48.402814 62 50.340531 61.197531 51.769531 59.769531 C 53.197531 58.340531 54 56.402814 54 54.382812 L 54 13.613281 L 54 9.0878906 C 54 7.0678906 53.197531 5.1282186 51.769531 3.6992188 C 50.340531 2.2712188 48.402813 1.46875 46.382812 1.46875 L 35.759766 1.46875 L 28.240234 1.46875 L 17.617188 1.46875 z " />
  <path
     id="path2-3"
     style="clip-rule:evenodd;fill:#286670;fill-opacity:1;fill-rule:evenodd;stroke-linecap:round;stroke-linejoin:round;stroke-miterlimit:2"
     d="m 10.000004,50.982422 v 3.398437 0.002 c 6.5e-5,0.251841 0.01244,0.501552 0.03711,0.75 v 0.002 c 0.02473,0.248442 0.06268,0.494885 0.111328,0.738281 v 0.002 c 0.04871,0.243391 0.109702,0.484016 0.18164,0.720703 v 0.002 c 0.072,0.236684 0.155456,0.468944 0.25,0.697266 v 0.002 c 0.09461,0.228323 0.199936,0.453573 0.316406,0.671875 v 0.002 c 0.116532,0.218305 0.245102,0.430096 0.382814,0.636719 v 0.002 c 0.137775,0.206628 0.287037,0.406326 0.445311,0.599609 v 0.002 c 0.158341,0.193289 0.327703,0.378358 0.505861,0.55664 v 0.002 c 0.714498,0.714 1.557099,1.271274 2.472655,1.650391 C 15.618681,61.799106 16.607189,62 17.617187,62 h 28.765625 c 1.010002,0 1.998509,-0.200473 2.914063,-0.580078 0.915554,-0.379117 1.758155,-0.936391 2.472656,-1.650391 v -0.002 C 53.19753,58.338626 54,56.400859 54,54.380859 v -3.398437 z" />
  <path
     d="m17.292 59.408h-0.76v-5.728h1.176l1.552 4.76 1.552-4.76h1.176v5.728h-0.76v-4.84l-1.624 4.84h-0.688l-1.624-4.84v4.84zm28.048 0h-2.176v-5.728h2.144c0.23 0 0.446 0.024 0.648 0.072 0.208 0.043 0.411 0.117 0.608 0.224 0.198 0.101 0.355 0.253 0.472 0.456 0.118 0.197 0.176 0.435 0.176 0.712 0 0.549-0.272 0.952-0.816 1.208 0.715 0.219 1.072 0.685 1.072 1.4 0 1.104-0.709 1.656-2.128 1.656zm-12.688-5.056h-1.904v5.056h-0.76v-5.056h-1.888v-0.672h4.552v0.672zm-4.72 5.056h-0.816l-0.656-1.712h-2.416l-0.656 1.712h-0.816l2.312-5.728h0.736l2.312 5.728zm14.656 0h-0.816l-0.656-1.712h-2.416l-0.656 1.712h-0.816l2.312-5.728h0.736l2.312 5.728zm-8.445-0.672h2.816v0.672h-3.576v-5.728h0.76v5.056zm11.101-1.976h-1.32v1.976h1.416c0.491 0 0.84-0.085 1.048-0.256 0.214-0.171 0.32-0.413 0.32-0.728 0-0.325-0.106-0.571-0.32-0.736-0.213-0.171-0.594-0.256-1.144-0.256zm-20.944 0.264h1.904l-0.624-1.648c-0.171-0.464-0.28-0.829-0.328-1.096-0.048 0.267-0.157 0.632-0.328 1.096l-0.624 1.648zm14.656 0h1.904l-0.624-1.648c-0.17-0.464-0.28-0.829-0.328-1.096-0.048 0.267-0.157 0.632-0.328 1.096l-0.624 1.648zm6.104-2.672h-1.136v1.736h1.232c0.475 0 0.808-0.072 1-0.216 0.198-0.144 0.296-0.355 0.296-0.632 0-0.363-0.112-0.6-0.336-0.712-0.218-0.117-0.57-0.176-1.056-0.176z"
     style="fill-rule:nonzero;fill:#fff"
     id="path4" />
  <path
     d="m35.843 16.058c-1.665 0.176-2.73 1.66-3.326 3.192-2.793 6.948-5.3 5.572-12.004 8.503-0.096 0.091 5e-3 0.259 0.226 0.384 0.22 0.128 1.474 0.986 2.805 1.91 1.326 0.924 2.479 1.675 2.561 1.68 1e-3 0 6e-3 -3e-3 6e-3 -3e-3l1.09-1.076c1.118-1.096 3.532-4.531 4.521-6.419 0.333-0.638 0.993-2.024 1.459-3.084 1.128-2.55 2.251-4.687 2.663-5.064-2e-3 -4e-3 3e-3 -0.023-1e-3 -0.023z"
     style="fill-rule:nonzero;fill:url(#_Linear2)"
     id="path6" />
  <path
     d="m36.143 16.007c-0.096-0.016-0.175-6e-3 -0.271 0.043-0.39 0.312-1.54 2.494-2.69 5.095-0.466 1.06-1.128 2.446-1.46 3.084-0.989 1.888-3.404 5.324-4.522 6.42l-1.089 1.075 0.824 0.805c0.477 0.523 1.107 1.609 1.63 2.823 0.992 2.314 1.165 2.648 1.354 2.648 0.09 0 0.599-0.287 1.166-0.648 1.265-0.821 2.447-1.924 4.055-3.802 2.511-2.926 4.396-3.546 6.717-2.203 0.628 0.365 1.143 0.595 1.143 0.509 0-0.09-0.321-0.971-0.704-1.963-0.384-0.992-1.428-3.794-2.316-6.226-0.594-1.001-2.451-7.474-3.839-7.66h2e-3z"
     style="fill-rule:nonzero;fill:url(#_Linear3)"
     id="path8" />
  <defs
     id="defs25">
    <linearGradient
       id="_Linear1"
       x2="1"
       gradientTransform="matrix(0,-49.619,49.619,0,469.44,51.088)"
       gradientUnits="userSpaceOnUse">
      <stop
         style="stop-color:#348692"
         offset="0"
         id="stop10" />
      <stop
         style="stop-color:#69b9cd"
         offset="1"
         id="stop12" />
    </linearGradient>
    <linearGradient
       id="_Linear2"
       x2="1"
       gradientTransform="matrix(-15.9194,14.5744,-14.5744,-15.9194,-666.264,-750.844)"
       gradientUnits="userSpaceOnUse">
      <stop
         style="stop-color:#fff"
         offset="0"
         id="stop15" />
      <stop
         style="stop-color:#ccc;stop-opacity:.67"
         offset="1"
         id="stop17" />
    </linearGradient>
    <linearGradient
       id="_Linear3"
       x2="1"
       gradientTransform="matrix(8.01435,-17.7315,17.7315,8.01435,878.967,418.469)"
       gradientUnits="userSpaceOnUse">
      <stop
         style="stop-color:#fff;stop-opacity:.78"
         offset="0"
         id="stop20" />
      <stop
         style="stop-color:#fff"
         offset="1"
         id="stop22" />
    </linearGradient>
    <linearGradient
       inkscape:collect="always"
       xlink:href="#_Linear1"
       id="linearGradient4766"
       gradientUnits="userSpaceOnUse"
       gradientTransform="matrix(0,-49.619,49.619,0,469.44,51.088)"
       x2="1" />
  </defs>
</svg>
