<?xml version="1.0" encoding="UTF-8" standalone="no"?>
<svg
   clip-rule="evenodd"
   fill-rule="evenodd"
   stroke-linejoin="round"
   stroke-miterlimit="2"
   viewBox="0 0 64 64"
   version="1.1"
   id="svg11"
   sodipodi:docname="text-less.svg"
   inkscape:version="1.1.2 (0a00cf5339, 2022-02-04)"
   xmlns:inkscape="http://www.inkscape.org/namespaces/inkscape"
   xmlns:sodipodi="http://sodipodi.sourceforge.net/DTD/sodipodi-0.dtd"
   xmlns:xlink="http://www.w3.org/1999/xlink"
   xmlns="http://www.w3.org/2000/svg"
   xmlns:svg="http://www.w3.org/2000/svg">
  <defs
     id="defs15">
    <linearGradient
       inkscape:collect="always"
       xlink:href="#a"
       id="linearGradient4830"
       gradientUnits="userSpaceOnUse"
       gradientTransform="matrix(0,-49.619,49.619,0,177.88,51.088)"
       x2="1" />
  </defs>
  <sodipodi:namedview
     id="namedview13"
     pagecolor="#ffffff"
     bordercolor="#666666"
     borderopacity="1.0"
     inkscape:pageshadow="2"
     inkscape:pageopacity="0.0"
     inkscape:pagecheckerboard="0"
     showgrid="false"
     inkscape:zoom="10.65625"
     inkscape:cx="32"
     inkscape:cy="32"
     inkscape:window-width="1896"
     inkscape:window-height="1022"
     inkscape:window-x="12"
     inkscape:window-y="46"
     inkscape:window-maximized="1"
     inkscape:current-layer="svg11" />
  <linearGradient
     id="a"
     x2="1"
     gradientTransform="matrix(0,-49.619,49.619,0,177.88,51.088)"
     gradientUnits="userSpaceOnUse">
    <stop
       stop-color="#2a5b7d"
       offset="0"
       id="stop2" />
    <stop
       stop-color="#73a1be"
       offset="1"
       id="stop4" />
  </linearGradient>
  <path
     id="path7"
     style="fill:url(#linearGradient4830)"
     d="M 17.617188 1.46875 C 15.597188 1.46875 13.659469 2.2712188 12.230469 3.6992188 C 10.802469 5.1282186 10 7.0678906 10 9.0878906 L 10 11.855469 L 10 54.382812 C 10 56.402814 10.802469 58.340531 12.230469 59.769531 C 13.659469 61.197531 15.597187 62 17.617188 62 L 46.382812 62 C 48.402814 62 50.340531 61.197531 51.769531 59.769531 C 53.197531 58.340531 54 56.402814 54 54.382812 L 54 11.855469 L 54 9.0878906 C 54 7.0678906 53.197531 5.1282186 51.769531 3.6992188 C 50.340531 2.2712188 48.402813 1.46875 46.382812 1.46875 L 39.087891 1.46875 L 24.912109 1.46875 L 17.617188 1.46875 z " />
  <path
     d="m 17.749,37.421637 c -0.885,-0.195 -1.379,-0.544 -1.662,-1.173 -0.132,-0.295 -0.149,-0.503 -0.184,-2.286 -0.037,-1.863 -0.048,-1.979 -0.202,-2.296 -0.202,-0.416 -0.593,-0.63 -1.248,-0.683 L 14,30.946637 v -1.744 l 0.475,-0.048 c 0.652,-0.067 1.038,-0.268 1.229,-0.639 0.135,-0.26 0.156,-0.429 0.174,-1.401 0.05,-2.673 0.067,-2.953 0.192,-3.246 0.164,-0.381 0.427,-0.654 0.829,-0.863 0.659,-0.341 1.036,-0.399 2.846,-0.437 l 1.703,-0.037 0.02,4.913 c 0.02,4.75 0.025,4.922 0.161,5.194 0.251,0.5 0.424,0.575 1.334,0.575 h 0.796 l 0.043,0.313 c 0.023,0.172 0.042,0.498 0.042,0.724 v 0.41 l -0.613,0.089 c -0.344,0.049 -0.891,0.071 -1.248,0.049 -1.124,-0.069 -1.812,-0.456 -2.184,-1.227 -0.349,-0.723 -0.38,-1.16 -0.382,-5.447 l -0.003,-3.948 -0.369,0.05 c -0.528,0.071 -0.795,0.218 -0.943,0.522 -0.111,0.225 -0.134,0.51 -0.164,2.045 -0.033,1.667 -0.046,1.804 -0.194,2.11 -0.206,0.424 -0.384,0.587 -0.998,0.915 l -0.505,0.269 0.409,0.152 c 0.525,0.195 0.881,0.497 1.088,0.923 0.156,0.321 0.166,0.433 0.2,2.158 0.038,1.966 0.062,2.095 0.436,2.377 0.116,0.087 0.343,0.156 0.58,0.175 l 0.547,0.033 v 1.623 l -0.737,-0.005 c -0.319,-0.003 -0.776,-0.049 -1.015,-0.102 z m 26.752,-0.713 v -0.82 l 0.489,-0.001 c 0.46,0 0.795,-0.185 0.966,-0.534 0.125,-0.256 0.144,-0.478 0.176,-2.105 0.034,-1.708 0.046,-1.837 0.194,-2.118 0.189,-0.359 0.476,-0.592 1.062,-0.862 l 0.437,-0.201 -0.402,-0.17 c -0.479,-0.201 -0.892,-0.561 -1.101,-0.959 -0.142,-0.27 -0.155,-0.421 -0.189,-2.11 -0.034,-1.659 -0.05,-1.84 -0.18,-2.068 -0.168,-0.294 -0.499,-0.479 -0.963,-0.537 l -0.489,-0.042 v -1.653 l 0.855,0.049 c 1.549,0.089 2.32,0.52 2.653,1.415 0.09,0.241 0.122,0.717 0.156,2.301 0.038,1.828 0.054,2.019 0.184,2.247 0.183,0.323 0.675,0.572 1.227,0.623 l 0.424,0.039 v 1.744 l -0.451,0.037 c -0.583,0.047 -0.999,0.277 -1.195,0.66 -0.135,0.262 -0.15,0.446 -0.189,2.247 -0.046,2.107 -0.082,2.335 -0.451,2.825 -0.353,0.47 -1.39,0.81 -2.478,0.812 l -0.735,0.001 z m -17.282,-1.86 c -0.097,-0.018 -0.366,-0.066 -0.598,-0.108 -0.578,-0.103 -1.478,-0.557 -1.877,-0.946 -0.722,-0.704 -1.118,-1.577 -1.257,-2.773 -0.157,-1.351 0.125,-2.711 0.756,-3.647 0.53,-0.788 1.34,-1.338 2.259,-1.535 0.476,-0.103 1.516,-0.103 1.997,-0.002 0.966,0.205 1.782,0.838 2.246,1.743 0.364,0.71 0.482,1.273 0.482,2.303 v 0.869 H 25.47 l 0.035,0.267 c 0.114,0.876 0.329,1.335 0.838,1.789 0.439,0.392 0.824,0.512 1.65,0.512 0.773,0 1.544,-0.171 2.219,-0.492 l 0.427,-0.202 0.281,1.469 -0.467,0.218 c -0.256,0.12 -0.713,0.283 -1.015,0.361 -0.525,0.136 -1.851,0.24 -2.219,0.174 z m 2.092,-5.844 c -0.073,-0.924 -0.558,-1.563 -1.328,-1.75 -1.199,-0.292 -2.21,0.505 -2.424,1.91 l -0.046,0.304 h 3.834 z m 4.466,5.816 c -1.042,-0.121 -2.159,-0.496 -2.1,-0.706 0.017,-0.065 0.07,-0.414 0.117,-0.777 0.047,-0.363 0.098,-0.66 0.113,-0.66 0.016,0 0.151,0.064 0.302,0.142 0.816,0.422 2.431,0.685 3.092,0.503 0.627,-0.174 0.973,-0.772 0.753,-1.306 -0.144,-0.35 -0.466,-0.548 -1.747,-1.074 -1.217,-0.499 -1.671,-0.765 -2.086,-1.222 -0.704,-0.775 -0.67,-2.364 0.066,-3.111 0.637,-0.647 1.468,-0.88 2.947,-0.83 1.012,0.035 1.552,0.139 2.31,0.447 l 0.276,0.112 -0.243,0.69 c -0.134,0.38 -0.249,0.697 -0.257,0.704 -0.008,0.008 -0.267,-0.076 -0.576,-0.187 -1.75,-0.628 -3.127,-0.384 -3.127,0.554 0,0.442 0.406,0.73 1.735,1.23 1.458,0.549 2.123,0.997 2.469,1.662 0.174,0.335 0.191,0.436 0.191,1.152 0,0.713 -0.018,0.821 -0.195,1.187 -0.328,0.677 -0.949,1.16 -1.775,1.378 -0.502,0.132 -1.611,0.187 -2.265,0.112 z m 6.75,0 c -0.66,-0.076 -1.148,-0.195 -1.675,-0.406 l -0.426,-0.171 0.102,-0.765 c 0.057,-0.421 0.111,-0.775 0.121,-0.788 0.009,-0.012 0.144,0.043 0.3,0.124 0.821,0.425 2.438,0.691 3.094,0.51 0.437,-0.121 0.784,-0.468 0.832,-0.831 0.085,-0.639 -0.274,-0.943 -1.852,-1.569 -2.029,-0.805 -2.621,-1.476 -2.539,-2.877 0.069,-1.182 0.708,-1.881 2.006,-2.19 0.364,-0.086 0.713,-0.105 1.494,-0.078 1.02,0.035 1.406,0.106 2.196,0.406 l 0.4,0.152 -0.245,0.688 c -0.135,0.378 -0.252,0.693 -0.261,0.701 -0.008,0.008 -0.334,-0.094 -0.724,-0.226 -1.237,-0.421 -2.23,-0.406 -2.722,0.039 -0.19,0.173 -0.226,0.255 -0.226,0.524 0,0.535 0.25,0.713 1.872,1.334 2.008,0.769 2.577,1.421 2.508,2.878 -0.038,0.816 -0.22,1.271 -0.686,1.713 -0.392,0.372 -0.763,0.577 -1.304,0.72 -0.502,0.132 -1.611,0.187 -2.265,0.112 z"
     fill="#ffffff"
     fill-opacity="0.5"
     fill-rule="nonzero"
     id="path9" />
  <path
     id="path2-3"
     style="clip-rule:evenodd;fill:#234c69;fill-opacity:1;fill-rule:evenodd;stroke-linecap:round;stroke-linejoin:round;stroke-miterlimit:2"
     d="m 10.000002,50.982422 v 3.398437 0.002 c 6.5e-5,0.251841 0.01244,0.501552 0.03711,0.75 v 0.002 c 0.02473,0.248442 0.06268,0.494885 0.111329,0.738281 v 0.002 c 0.04871,0.243391 0.109702,0.484016 0.18164,0.720703 v 0.002 c 0.072,0.236684 0.155456,0.468944 0.25,0.697266 v 0.002 c 0.09461,0.228323 0.199936,0.453573 0.316406,0.671875 v 0.002 c 0.116531,0.218305 0.245101,0.430096 0.382813,0.636719 v 0.002 c 0.137776,0.206628 0.287038,0.406326 0.445312,0.599609 v 0.002 c 0.158341,0.193289 0.327702,0.378358 0.50586,0.55664 v 0.002 c 0.714499,0.714 1.5571,1.271274 2.472656,1.650391 C 15.618681,61.799106 16.607188,62 17.617187,62 h 28.765625 c 1.010002,0 1.998508,-0.200473 2.914063,-0.580078 0.915554,-0.379117 1.758155,-0.936391 2.472656,-1.650391 v -0.002 C 53.19753,58.338626 54,56.400859 54,54.380859 v -3.398437 z" />
</svg>
