<?xml version="1.0" encoding="UTF-8" standalone="no"?>
<svg
   style="clip-rule:evenodd;fill-rule:evenodd;stroke-linejoin:round;stroke-miterlimit:2"
   viewBox="0 0 64 64"
   version="1.1"
   id="svg23"
   sodipodi:docname="text-x-octave.svg"
   inkscape:version="1.1.2 (0a00cf5339, 2022-02-04)"
   xmlns:inkscape="http://www.inkscape.org/namespaces/inkscape"
   xmlns:sodipodi="http://sodipodi.sourceforge.net/DTD/sodipodi-0.dtd"
   xmlns:xlink="http://www.w3.org/1999/xlink"
   xmlns="http://www.w3.org/2000/svg"
   xmlns:svg="http://www.w3.org/2000/svg">
  <sodipodi:namedview
     id="namedview25"
     pagecolor="#ffffff"
     bordercolor="#666666"
     borderopacity="1.0"
     inkscape:pageshadow="2"
     inkscape:pageopacity="0.0"
     inkscape:pagecheckerboard="0"
     showgrid="false"
     inkscape:zoom="10.65625"
     inkscape:cx="34.064516"
     inkscape:cy="37.255132"
     inkscape:window-width="1896"
     inkscape:window-height="1022"
     inkscape:window-x="12"
     inkscape:window-y="46"
     inkscape:window-maximized="1"
     inkscape:current-layer="svg23" />
  <path
     id="path2"
     style="fill:url(#linearGradient1047)"
     d="M 17.617188 1.46875 C 15.597188 1.46875 13.659469 2.2712188 12.230469 3.6992188 C 10.802469 5.1282186 10 7.0678906 10 9.0878906 L 10 12.6875 L 10 54.382812 C 10 56.402814 10.802469 58.340531 12.230469 59.769531 C 13.659469 61.197531 15.597187 62 17.617188 62 L 46.382812 62 C 48.402814 62 50.340531 61.197531 51.769531 59.769531 C 53.197531 58.340531 54 56.402814 54 54.382812 L 54 12.6875 L 54 9.0878906 C 54 7.0678906 53.197531 5.1282186 51.769531 3.6992188 C 50.340531 2.2712188 48.402813 1.46875 46.382812 1.46875 L 37.287109 1.46875 L 26.712891 1.46875 L 17.617188 1.46875 z " />
  <path
     id="path2-3-3"
     style="clip-rule:evenodd;fill:#5a3014;fill-opacity:1;fill-rule:evenodd;stroke-linecap:round;stroke-linejoin:round;stroke-miterlimit:2"
     d="m 10,50.982422 v 3.398437 0.002 c 6.5e-5,0.251841 0.01244,0.501552 0.03711,0.75 v 0.002 c 0.02473,0.248442 0.06268,0.494885 0.111329,0.738281 v 0.002 c 0.04871,0.243391 0.109702,0.484016 0.18164,0.720703 v 0.002 c 0.072,0.236684 0.155456,0.468944 0.25,0.697266 v 0.002 c 0.09461,0.228323 0.199936,0.453573 0.316406,0.671875 v 0.002 c 0.116531,0.218305 0.245101,0.430096 0.382813,0.636719 v 0.002 c 0.137776,0.206628 0.287038,0.406326 0.445312,0.599609 v 0.002 c 0.158341,0.193289 0.327702,0.378358 0.50586,0.55664 v 0.002 c 0.714499,0.714 1.5571,1.271274 2.472656,1.650391 C 15.618679,61.799106 16.607186,62 17.617185,62 H 46.38281 c 1.010002,0 1.998508,-0.200473 2.914063,-0.580078 0.915554,-0.379117 1.758155,-0.936391 2.472656,-1.650391 v -0.002 c 1.427999,-1.428905 2.230469,-3.366672 2.230469,-5.386672 v -3.398437 z" />
  <g
     id="g1071"
     transform="translate(0,-0.052789)">
    <path
       d="m 23.433,59.184 c -0.267,0.139 -0.584,0.208 -0.952,0.208 -0.368,0 -0.688,-0.069 -0.96,-0.208 -0.267,-0.139 -0.469,-0.32 -0.608,-0.544 -0.133,-0.229 -0.232,-0.461 -0.296,-0.696 -0.059,-0.235 -0.088,-0.475 -0.088,-0.72 0,-0.651 0.171,-1.173 0.512,-1.568 0.347,-0.4 0.827,-0.6 1.44,-0.6 0.613,0 1.091,0.2 1.432,0.6 0.347,0.395 0.52,0.917 0.52,1.568 0,0.245 -0.032,0.485 -0.096,0.72 -0.059,0.235 -0.157,0.467 -0.296,0.696 -0.133,0.224 -0.336,0.405 -0.608,0.544 z m -0.04,-3.112 c -0.213,-0.293 -0.517,-0.44 -0.912,-0.44 -0.395,0 -0.701,0.147 -0.92,0.44 -0.213,0.288 -0.32,0.672 -0.32,1.152 0,0.192 0.019,0.376 0.056,0.552 0.043,0.176 0.107,0.347 0.192,0.512 0.091,0.16 0.219,0.288 0.384,0.384 0.171,0.096 0.373,0.144 0.608,0.144 0.235,0 0.435,-0.048 0.6,-0.144 0.171,-0.096 0.299,-0.224 0.384,-0.384 0.091,-0.165 0.155,-0.336 0.192,-0.512 0.043,-0.176 0.064,-0.36 0.064,-0.552 0,-0.48 -0.109,-0.864 -0.328,-1.152 z"
       style="fill:#ffffff;fill-rule:nonzero"
       id="path4" />
    <path
       d="m 25.03,57.232 c 0,-0.416 0.059,-0.773 0.176,-1.072 0.118,-0.299 0.272,-0.523 0.464,-0.672 0.198,-0.155 0.4,-0.264 0.608,-0.328 0.208,-0.069 0.427,-0.104 0.656,-0.104 0.928,0 1.48,0.437 1.656,1.312 l -0.688,0.104 c -0.122,-0.56 -0.437,-0.84 -0.944,-0.84 -0.81,0 -1.216,0.531 -1.216,1.592 0,1.061 0.392,1.592 1.176,1.592 0.592,0 0.942,-0.347 1.048,-1.04 l 0.68,0.088 c -0.074,0.464 -0.261,0.835 -0.56,1.112 -0.293,0.277 -0.677,0.416 -1.152,0.416 -0.602,0 -1.072,-0.195 -1.408,-0.584 -0.33,-0.395 -0.496,-0.92 -0.496,-1.576 z"
       style="fill:#ffffff;fill-rule:nonzero"
       id="path6" />
    <path
       d="m 30.079,58.12 c 0,0.229 0.026,0.395 0.08,0.496 0.058,0.101 0.16,0.152 0.304,0.152 0.032,0 0.082,-0.003 0.152,-0.008 0.074,-0.011 0.128,-0.016 0.16,-0.016 l 0.104,0.552 c -0.166,0.032 -0.344,0.048 -0.536,0.048 -0.219,0 -0.398,-0.024 -0.536,-0.072 -0.134,-0.053 -0.232,-0.141 -0.296,-0.264 -0.059,-0.123 -0.099,-0.248 -0.12,-0.376 -0.016,-0.133 -0.024,-0.317 -0.024,-0.552 v -2.392 h -0.512 v -0.536 h 0.512 V 54.12 l 0.712,-0.424 v 1.456 h 0.696 v 0.536 h -0.696 z"
       style="fill:#ffffff;fill-rule:nonzero"
       id="path8" />
    <path
       d="m 33.113,55.632 c -0.341,0 -0.589,0.061 -0.744,0.184 -0.149,0.117 -0.266,0.32 -0.352,0.608 l -0.672,-0.096 c 0.176,-0.848 0.798,-1.272 1.864,-1.272 0.587,0 1,0.109 1.24,0.328 0.246,0.213 0.368,0.627 0.368,1.24 v 1.824 c 0,0.293 0.072,0.576 0.216,0.848 h -0.728 c -0.069,-0.149 -0.114,-0.32 -0.136,-0.512 -0.485,0.405 -0.997,0.608 -1.536,0.608 -0.416,0 -0.757,-0.104 -1.024,-0.312 -0.266,-0.213 -0.4,-0.504 -0.4,-0.872 0,-0.427 0.2,-0.768 0.6,-1.024 0.171,-0.112 0.539,-0.208 1.104,-0.288 0.566,-0.085 0.963,-0.168 1.192,-0.248 v -0.176 c 0,-0.56 -0.33,-0.84 -0.992,-0.84 z m -0.304,3.184 c 0.864,0 1.296,-0.448 1.296,-1.344 v -0.248 c -0.176,0.075 -0.469,0.144 -0.88,0.208 -0.405,0.059 -0.725,0.141 -0.96,0.248 -0.229,0.101 -0.344,0.269 -0.344,0.504 0,0.421 0.296,0.632 0.888,0.632 z"
       style="fill:#ffffff;fill-rule:nonzero"
       id="path10" />
    <path
       d="m 37.063,59.296 -1.585,-4.144 h 0.752 l 1.152,3.2 1.192,-3.2 h 0.72 l -1.584,4.144 h -0.648 z"
       style="fill:#ffffff;fill-rule:nonzero"
       id="path12" />
    <path
       d="m 40.383,57.392 c 0.027,0.432 0.147,0.779 0.36,1.04 0.219,0.256 0.52,0.384 0.904,0.384 0.512,0 0.877,-0.285 1.096,-0.856 l 0.72,0.088 c -0.245,0.896 -0.853,1.344 -1.824,1.344 -0.624,0 -1.109,-0.187 -1.456,-0.56 -0.347,-0.373 -0.52,-0.901 -0.52,-1.584 0,-0.667 0.168,-1.197 0.504,-1.592 0.341,-0.4 0.819,-0.6 1.432,-0.6 0.555,0 0.995,0.168 1.32,0.504 0.325,0.331 0.509,0.787 0.552,1.368 v 0.464 z m 0.04,-0.576 h 2.32 c -0.064,-0.789 -0.44,-1.184 -1.128,-1.184 -0.347,0 -0.627,0.112 -0.84,0.336 -0.208,0.219 -0.325,0.501 -0.352,0.848 z"
       style="fill:#ffffff;fill-rule:nonzero"
       id="path14" />
  </g>
  <defs
     id="defs21">
    <linearGradient
       id="_Linear1"
       x2="1"
       gradientTransform="matrix(0,-49.619,49.619,0,250.77,51.088)"
       gradientUnits="userSpaceOnUse">
      <stop
         style="stop-color:#ce5d1f"
         offset="0"
         id="stop16" />
      <stop
         style="stop-color:#fe9861"
         offset="1"
         id="stop18" />
    </linearGradient>
    <linearGradient
       inkscape:collect="always"
       xlink:href="#_Linear1"
       id="linearGradient1047"
       gradientUnits="userSpaceOnUse"
       gradientTransform="matrix(0,-49.619,49.619,0,250.77,51.088)"
       x2="1" />
  </defs>
  <path
     style="fill:#5a3014;fill-opacity:1;stroke-width:0.0562085"
     d="M 35.174171,42.251471 C 31.580518,41.990877 27.936028,40.135131 24.935234,37.037888 23.77132,35.836561 22.647759,34.330509 21.865922,32.923706 l -0.327997,-0.590191 -1.430486,-0.02841 c -1.244291,-0.02471 -1.470234,-0.043 -1.735891,-0.140521 -0.403321,-0.14806 -0.854427,-0.563896 -1.055165,-0.972664 l -0.157057,-0.319833 v -3.316305 -3.316305 l 0.155808,-0.317178 c 0.08569,-0.174446 0.270951,-0.423316 0.41169,-0.553041 0.373744,-0.344509 0.689867,-0.468379 1.287383,-0.504454 l 0.505874,-0.03054 0.03989,-0.365355 c 0.07153,-0.654988 0.272087,-1.530833 0.525869,-2.296538 1.706278,-5.148138 6.586633,-7.640616 12.221682,-6.241809 2.300408,0.571038 4.539851,1.766945 6.695353,3.575452 l 0.488668,0.410001 h 1.059623 c 1.160414,0 1.363197,0.03354 1.607694,0.265884 0.314384,0.298755 0.322412,0.3441 0.322412,1.820404 v 1.36116 l 0.385974,0.59488 c 1.280938,1.974263 2.202746,4.198712 2.668971,6.440571 0.232075,1.115949 0.325634,2.036663 0.325258,3.200947 -4.47e-4,1.116548 -0.05196,1.695363 -0.236505,2.651849 l -0.109806,0.569191 0.140533,0.245833 0.140533,0.245836 6.32e-4,2.011262 c 6.31e-4,2.175323 -0.0014,2.196152 -0.31168,2.563682 -0.311644,0.369626 -0.448777,0.396896 -2.002747,0.39828 l -1.387663,0.0013 -0.551535,0.375028 c -0.982177,0.667855 -2.186513,1.166933 -3.424934,1.419292 -0.508188,0.103555 -1.876353,0.240107 -2.213472,0.220917 -0.07729,-0.0044 -0.406104,-0.02726 -0.730709,-0.05079 z m 9.814017,-2.773845 0.191113,-0.191109 V 37.33608 35.38564 l -0.191113,-0.191108 -0.191106,-0.191109 h -1.950434 -1.950442 l -0.191113,0.191109 -0.191106,0.191108 v 1.95044 1.950437 l 0.191106,0.191109 0.191113,0.191108 h 1.950442 1.950434 z m -6.658763,-1.238758 c 0.35135,-0.07237 0.841175,-0.205817 1.088498,-0.296549 l 0.449664,-0.164966 0.02811,-1.2886 c 0.03052,-1.398413 0.04528,-1.468487 0.374391,-1.774009 0.342257,-0.317738 0.408702,-0.329616 1.843879,-0.329616 h 1.32452 l 0.112091,-0.182677 c 0.148355,-0.241784 0.413579,-0.931895 0.581432,-1.512905 0.58114,-2.011512 0.473641,-4.448743 -0.299571,-6.791913 -0.40088,-1.214836 -0.802583,-2.07297 -1.508656,-3.222818 -0.269198,-0.438391 -0.319097,-0.491559 -0.425055,-0.452892 -0.06601,0.0241 -0.760834,0.05282 -1.544025,0.06382 -1.362885,0.01914 -1.434667,0.01483 -1.673003,-0.100541 -0.167959,-0.08131 -0.294495,-0.198153 -0.388742,-0.358974 -0.139128,-0.237405 -0.139724,-0.244656 -0.139383,-1.69491 2.27e-4,-1.150862 0.01718,-1.488708 0.08046,-1.610049 l 0.08011,-0.153565 -0.459864,-0.30167 c -1.414153,-0.927684 -3.063009,-1.572748 -4.619292,-1.807158 -0.715335,-0.107744 -2.043389,-0.108998 -2.69969,-0.0026 -1.614217,0.261818 -2.980921,0.954635 -4.101636,2.079228 -1.031437,1.035005 -1.68103,2.218817 -2.083032,3.796108 -0.196678,0.771669 -0.212499,0.73071 0.282337,0.73071 0.798708,0 1.385037,0.358114 1.728452,1.055688 l 0.184746,0.375268 v 3.261276 3.261281 l -0.157199,0.335727 c -0.08646,0.184649 -0.196699,0.379375 -0.24498,0.432724 -0.08071,0.08918 -0.05856,0.141401 0.275019,0.647924 2.281456,3.464413 5.730233,5.735426 9.323283,6.13936 0.701941,0.07891 1.844057,0.02031 2.587145,-0.13275 z M 25.200287,31.524891 c 0.286254,-0.130019 0.628172,-0.523797 0.684586,-0.788414 0.02364,-0.110901 0.04301,-1.580152 0.04301,-3.265005 0,-3.044918 -7.1e-4,-3.064752 -0.123157,-3.293522 -0.159208,-0.297523 -0.464443,-0.56326 -0.732484,-0.637698 -0.297817,-0.0827 -6.148283,-0.08039 -6.451473,0.0026 -0.316457,0.08657 -0.720751,0.51422 -0.805927,0.85247 -0.04543,0.180411 -0.0653,1.146831 -0.0653,3.175205 0,3.230786 0.0077,3.311625 0.349874,3.663335 0.396401,0.407465 0.274308,0.394629 3.753351,0.394629 2.910536,0 3.134854,-0.007 3.347545,-0.103548 z m 16.583004,-9.980114 c 0.123924,-0.169651 0.116265,-2.741044 -0.0085,-2.865846 -0.141087,-0.141089 -0.268929,-0.151833 -1.590837,-0.133702 -1.164524,0.01597 -1.258629,0.02489 -1.332696,0.126293 -0.06346,0.08688 -0.07969,0.379591 -0.07969,1.436628 0,1.357622 0.01462,1.45751 0.224828,1.5363 0.04635,0.01738 0.674472,0.02662 1.395777,0.02052 1.226333,-0.01037 1.316641,-0.01816 1.391162,-0.120192 z"
     id="path1379" />
</svg>
