<?xml version="1.0" encoding="UTF-8" standalone="no"?>
<svg
   clip-rule="evenodd"
   fill-rule="evenodd"
   stroke-linejoin="round"
   stroke-miterlimit="2"
   viewBox="0 0 48 48"
   version="1.1"
   id="svg264"
   sodipodi:docname="com.rtosta.zapzap.svg"
   inkscape:version="1.2.2 (b0a8486541, 2022-12-01)"
   xmlns:inkscape="http://www.inkscape.org/namespaces/inkscape"
   xmlns:sodipodi="http://sodipodi.sourceforge.net/DTD/sodipodi-0.dtd"
   xmlns="http://www.w3.org/2000/svg"
   xmlns:svg="http://www.w3.org/2000/svg">
  <defs
     id="defs268">
    <linearGradient
       id="a-3"
       x2="1"
       gradientTransform="matrix(0,-42.119,42.119,0,24.3765,44.9119)"
       gradientUnits="userSpaceOnUse">
      <stop
         stop-color="#008817"
         offset="0"
         id="stop2" />
      <stop
         stop-color="#3ed657"
         offset="1"
         id="stop4" />
    </linearGradient>
    <linearGradient
       id="b"
       x2="1"
       gradientTransform="matrix(0.0101761,0.671624,-0.671624,0.0101761,0.075921,0.564376)"
       gradientUnits="userSpaceOnUse">
      <stop
         stop-color="#ececec"
         offset="0"
         id="stop7" />
      <stop
         stop-color="#fff"
         offset="1"
         id="stop9" />
    </linearGradient>
  </defs>
  <sodipodi:namedview
     id="namedview266"
     pagecolor="#ffffff"
     bordercolor="#000000"
     borderopacity="0.25"
     inkscape:showpageshadow="2"
     inkscape:pageopacity="0.0"
     inkscape:pagecheckerboard="0"
     inkscape:deskcolor="#d1d1d1"
     showgrid="false"
     inkscape:zoom="12.610071"
     inkscape:cx="25.217939"
     inkscape:cy="28.390007"
     inkscape:window-width="1902"
     inkscape:window-height="1039"
     inkscape:window-x="7"
     inkscape:window-y="30"
     inkscape:window-maximized="1"
     inkscape:current-layer="svg264" />
  <linearGradient
     id="a"
     x2="1"
     gradientTransform="matrix(.00039723 -36.4224 36.4224 .00039723 24 42.2112)"
     gradientUnits="userSpaceOnUse">
    <stop
       stop-color="#008101"
       offset="0"
       id="stop253" />
    <stop
       stop-color="#2bae39"
       offset="1"
       id="stop255" />
  </linearGradient>
  <g
     fill-rule="nonzero"
     id="g18">
    <path
       d="m 24.377,1.704 c 12.115,-0.022 21.941,9.804 21.919,21.919 0.022,12.116 -9.804,21.942 -21.919,21.92 -4.075,0.01 -8.072,-1.118 -11.54,-3.256 L 3.872,44.128 6.294,36.049 C 3.784,32.392 2.446,28.058 2.457,23.623 2.435,11.508 12.261,1.682 24.377,1.704 Z"
       fill="url(#a)"
       id="path12"
       style="fill:url(#a-3)" />
    <path
       d="M 24.377,1.236 C 7.353,1.251 -3.431,19.501 4.767,34.42 L 1.236,46.764 14.404,43.67 C 29.287,51.062 46.754,40.241 46.764,23.623 46.764,11.27 36.73,1.236 24.377,1.236 Z m 0,1.862 C 35.717,3.087 44.913,12.283 44.902,23.623 44.93,39.256 28.156,49.169 14.475,41.605 L 3.882,44.128 6.904,34.39 C -1.554,20.716 8.299,3.072 24.377,3.098 Z"
       fill="url(#b)"
       id="path14"
       style="fill:url(#b)" />
    <path
       d="M 34.868,28.854 C 34.736,28.63 34.38,28.498 33.84,28.233 c -1.214,-0.607 -2.443,-1.187 -3.683,-1.74 -0.489,-0.183 -0.855,-0.264 -1.222,0.265 -0.535,0.723 -1.102,1.422 -1.699,2.096 -0.305,0.356 -0.631,0.407 -1.17,0.132 -0.529,-0.264 -2.27,-0.824 -4.325,-2.645 -1.179,-1.08 -2.191,-2.328 -3.002,-3.705 -0.305,-0.539 -0.031,-0.824 0.234,-1.088 0.244,-0.245 0.539,-0.631 0.814,-0.937 0.265,-0.305 0.356,-0.539 0.539,-0.895 0.173,-0.356 0.092,-0.672 -0.05,-0.936 -0.133,-0.265 -1.211,-2.901 -1.659,-3.969 -0.875,-1.526 -2.738,-0.997 -3.684,-0.265 -0.57,0.448 -1.883,1.832 -1.883,4.458 0,2.625 1.934,5.169 2.199,5.525 0.274,0.356 3.724,5.933 9.209,8.07 2.992,1.363 8.528,2.605 10.105,-1.201 0.448,-1.252 0.448,-2.32 0.305,-2.544 z"
       fill="#f2f2f2"
       id="path16" />
  </g>
</svg>
