<?xml version="1.0" encoding="UTF-8" standalone="no"?>
<svg
   clip-rule="evenodd"
   fill-rule="evenodd"
   stroke-linejoin="round"
   stroke-miterlimit="2"
   viewBox="0 0 48 48"
   version="1.1"
   id="svg17"
   sodipodi:docname="kdenlive.svg"
   inkscape:version="1.2.2 (b0a8486541, 2022-12-01)"
   xmlns:inkscape="http://www.inkscape.org/namespaces/inkscape"
   xmlns:sodipodi="http://sodipodi.sourceforge.net/DTD/sodipodi-0.dtd"
   xmlns="http://www.w3.org/2000/svg"
   xmlns:svg="http://www.w3.org/2000/svg">
  <defs
     id="defs21">
    <linearGradient
       id="a-3"
       x2="1"
       gradientTransform="matrix(0,-36.5025,36.5025,0,509.994,42.5695)"
       gradientUnits="userSpaceOnUse">
      <stop
         stop-color="#97a9b1"
         offset="0"
         id="stop525" />
      <stop
         stop-color="#cfdce1"
         offset="1"
         id="stop527" />
    </linearGradient>
  </defs>
  <sodipodi:namedview
     id="namedview19"
     pagecolor="#ffffff"
     bordercolor="#000000"
     borderopacity="0.25"
     inkscape:showpageshadow="2"
     inkscape:pageopacity="0.0"
     inkscape:pagecheckerboard="0"
     inkscape:deskcolor="#d1d1d1"
     showgrid="false"
     inkscape:zoom="17.833333"
     inkscape:cx="24"
     inkscape:cy="24"
     inkscape:window-width="1902"
     inkscape:window-height="1039"
     inkscape:window-x="7"
     inkscape:window-y="30"
     inkscape:window-maximized="1"
     inkscape:current-layer="svg17" />
  <linearGradient
     id="a"
     x2="1"
     gradientTransform="matrix(0 -33.6872 33.6872 0 923.28 40.4502)"
     gradientUnits="userSpaceOnUse">
    <stop
       stop-color="#202020"
       offset="0"
       id="stop2" />
    <stop
       stop-color="#424242"
       offset="1"
       id="stop4" />
  </linearGradient>
  <path
     d="m 39.44,2.332 c 3.438,0 6.228,2.79 6.228,6.228 v 30.88 c 0,3.438 -2.79,6.228 -6.228,6.228 H 8.56 c -3.438,0 -6.228,-2.79 -6.228,-6.228 V 8.56 c 0,-3.438 2.79,-6.228 6.228,-6.228 z"
     fill="url(#a)"
     id="path535"
     style="fill:url(#a-3)" />
  <path
     transform="matrix(1.0834 0 0 1.0834 -2.0016 -3.085)"
     d="m23.006 11.675-5.006-6.675h12l-5 6.667v30.333h-1.961z"
     fill="#e13a25"
     id="path9" />
  <g
     fill="#3a7cca"
     id="g15">
    <path
       transform="matrix(1 0 0 .906048 -.304246 1.36794)"
       d="m17.5 12.826h3.25v2.081h-3.25zm-3.251 4.161h6.501v2.081h-6.501zm-5.417 4.161h11.918v2.081h-11.918zm-4.333 4.161h16.251v2.081h-16.251zm4.333 4.161h11.918v2.081h-11.918zm5.417 4.161h6.501v2.081h-6.501zm3.251 3.738h3.25v2.081h-3.25z"
       id="path11" />
    <path
       transform="matrix(1.41809 0 0 1.41809 -14.3364 -8.82877)"
       d="m30.037 15.001c-.491.03-1.02.516-1.019 1.054l-.018 15.89c0 .718.939 1.342 1.476.916l10.119-7.972c.541-.421.539-1.409 0-1.832l-10.1-7.918c-.135-.105-.294-.147-.458-.138z"
       fill-rule="nonzero"
       id="path13" />
  </g>
</svg>
