<?xml version="1.0" encoding="UTF-8" standalone="no"?>
<svg
   clip-rule="evenodd"
   fill-rule="evenodd"
   stroke-linejoin="round"
   stroke-miterlimit="2"
   viewBox="0 0 48 48"
   version="1.1"
   id="svg11"
   sodipodi:docname="org.kde.plasma.showdesktop.svg"
   inkscape:version="1.2.2 (b0a8486541, 2022-12-01)"
   xmlns:inkscape="http://www.inkscape.org/namespaces/inkscape"
   xmlns:sodipodi="http://sodipodi.sourceforge.net/DTD/sodipodi-0.dtd"
   xmlns="http://www.w3.org/2000/svg"
   xmlns:svg="http://www.w3.org/2000/svg">
  <defs
     id="defs15">
    <linearGradient
       id="a-3"
       x2="1"
       gradientTransform="matrix(41.2109,-30.7295,30.7295,41.2109,185.564,282.234)"
       gradientUnits="userSpaceOnUse">
      <stop
         stop-color="#2b7fb8"
         offset="0"
         id="stop190" />
      <stop
         stop-color="#823f77"
         offset="1"
         id="stop192" />
    </linearGradient>
  </defs>
  <sodipodi:namedview
     id="namedview13"
     pagecolor="#ffffff"
     bordercolor="#000000"
     borderopacity="0.25"
     inkscape:showpageshadow="2"
     inkscape:pageopacity="0.0"
     inkscape:pagecheckerboard="0"
     inkscape:deskcolor="#d1d1d1"
     showgrid="false"
     inkscape:zoom="17.833333"
     inkscape:cx="23.046729"
     inkscape:cy="24"
     inkscape:window-width="1902"
     inkscape:window-height="1039"
     inkscape:window-x="7"
     inkscape:window-y="30"
     inkscape:window-maximized="1"
     inkscape:current-layer="svg11" />
  <linearGradient
     id="a"
     x2="1"
     gradientTransform="matrix(0 -45.5281 45.5281 0 136.545 46.764)"
     gradientUnits="userSpaceOnUse">
    <stop
       stop-color="#006783"
       offset="0"
       id="stop2" />
    <stop
       stop-color="#20ccff"
       offset="1"
       id="stop4" />
  </linearGradient>
  <path
     d="M 39.44,45.668 H 8.56 c -3.438,0 -6.228,-2.79 -6.228,-6.228 V 8.56 c 0,-3.438 2.79,-6.228 6.228,-6.228 h 30.88 c 3.438,0 6.228,2.79 6.228,6.228 v 30.88 c 0,3.438 -2.79,6.228 -6.228,6.228 z"
     fill="url(#a)"
     id="path195"
     style="fill:url(#a-3)" />
  <path
     d="M 2.332,9.588 V 8.56 c 0,-3.438 2.79,-6.228 6.228,-6.228 h 30.88 c 3.438,0 6.228,2.79 6.228,6.228 v 1.028 z"
     fill="#ebebeb"
     fill-opacity="0.1"
     id="path197" />
  <g
     fill="#ffffff"
     id="g205">
    <path
       d="m 22.407,38.581 1.24,-1.224 -1.215,-1.231 0.518,-0.511 1.215,1.23 1.23,-1.215 0.518,0.524 -1.231,1.215 1.215,1.231 -0.518,0.511 -1.215,-1.23 -1.239,1.224 z"
       fill-rule="nonzero"
       id="path199" />
    <path
       d="m 19.846,35.592 c 0.249,0 0.482,0.046 0.699,0.139 0.217,0.092 0.407,0.218 0.571,0.377 0.164,0.159 0.293,0.346 0.387,0.56 0.095,0.215 0.142,0.447 0.142,0.696 0,0.249 -0.047,0.482 -0.142,0.699 -0.094,0.217 -0.223,0.405 -0.387,0.564 -0.164,0.16 -0.356,0.285 -0.575,0.378 -0.219,0.092 -0.453,0.138 -0.702,0.138 -0.25,0 -0.483,-0.046 -0.7,-0.138 -0.216,-0.093 -0.407,-0.218 -0.571,-0.378 -0.163,-0.159 -0.291,-0.347 -0.384,-0.564 -0.092,-0.217 -0.138,-0.45 -0.138,-0.699 0,-0.249 0.046,-0.481 0.138,-0.696 0.093,-0.214 0.221,-0.401 0.384,-0.56 0.164,-0.159 0.356,-0.285 0.575,-0.377 0.219,-0.093 0.453,-0.139 0.703,-0.139 z m 0,0.665 c -0.153,0 -0.295,0.028 -0.426,0.086 -0.132,0.058 -0.244,0.136 -0.336,0.235 -0.092,0.1 -0.164,0.217 -0.215,0.354 -0.05,0.136 -0.076,0.282 -0.076,0.439 0,0.157 0.026,0.302 0.076,0.436 0.051,0.134 0.124,0.251 0.219,0.35 0.094,0.099 0.205,0.176 0.332,0.232 0.127,0.055 0.266,0.083 0.419,0.083 0.152,0 0.293,-0.028 0.422,-0.083 0.129,-0.056 0.241,-0.133 0.336,-0.232 0.094,-0.099 0.168,-0.216 0.221,-0.35 0.053,-0.134 0.08,-0.279 0.08,-0.436 0,-0.157 -0.027,-0.303 -0.08,-0.439 -0.053,-0.137 -0.127,-0.254 -0.221,-0.354 -0.095,-0.099 -0.207,-0.177 -0.336,-0.235 -0.129,-0.058 -0.268,-0.086 -0.415,-0.086 z"
       fill-rule="nonzero"
       id="path201" />
    <path
       d="m 27.659,38.879 h -0.124 c -0.117,0 -0.211,-0.095 -0.211,-0.212 v -0.356 c -0.502,-0.127 -0.646,-0.425 -0.646,-1.038 0,-0.904 0.734,-1.638 1.638,-1.638 0.904,0 1.638,0.734 1.638,1.638 0,0.604 -0.153,0.901 -0.645,1.032 v 0.361 c 0,0.117 -0.095,0.212 -0.212,0.212 h -0.123 c -0.117,0 -0.212,-0.095 -0.212,-0.212 v -0.284 c -0.055,0.004 -0.112,0.006 -0.172,0.008 v 0.277 c 0,0.116 -0.095,0.211 -0.212,0.211 h -0.123 c -0.117,0 -0.212,-0.095 -0.212,-0.211 v -0.276 c -0.06,-0.002 -0.118,-0.004 -0.173,-0.007 v 0.283 c 0,0.117 -0.095,0.212 -0.211,0.212 z m -0.022,-2.272 c 0.278,0 0.503,0.218 0.503,0.488 0,0.269 -0.225,0.487 -0.503,0.487 -0.278,0 -0.503,-0.218 -0.503,-0.487 0,-0.27 0.225,-0.488 0.503,-0.488 z m 1.351,0 c 0.278,0 0.503,0.218 0.503,0.488 0,0.269 -0.225,0.487 -0.503,0.487 -0.278,0 -0.503,-0.218 -0.503,-0.487 0,-0.27 0.225,-0.488 0.503,-0.488 z"
       id="path203" />
  </g>
</svg>
