<?xml version="1.0" encoding="UTF-8" standalone="no"?>
<svg
   clip-rule="evenodd"
   fill-rule="evenodd"
   stroke-linejoin="round"
   stroke-miterlimit="2"
   viewBox="0 0 48 48"
   version="1.1"
   id="svg261"
   sodipodi:docname="org.xfce.taskmanager.svg"
   inkscape:version="1.2.2 (b0a8486541, 2022-12-01)"
   xmlns:inkscape="http://www.inkscape.org/namespaces/inkscape"
   xmlns:sodipodi="http://sodipodi.sourceforge.net/DTD/sodipodi-0.dtd"
   xmlns="http://www.w3.org/2000/svg"
   xmlns:svg="http://www.w3.org/2000/svg">
  <defs
     id="defs265">
    <linearGradient
       id="b"
       x2="1"
       gradientTransform="matrix(0,-31.5475,27.6386,0,436.556,36.401613)"
       gradientUnits="userSpaceOnUse">
      <stop
         stop-color="#006db6"
         offset="0"
         id="stop7" />
      <stop
         stop-color="#02a7ff"
         offset="1"
         id="stop9" />
    </linearGradient>
    <linearGradient
       id="a"
       x2="1"
       gradientTransform="matrix(0,-7.9746,7.9746,0,709.3365,46.370522)"
       gradientUnits="userSpaceOnUse">
      <stop
         stop-color="#6b6b6b"
         offset="0"
         id="stop2" />
      <stop
         stop-color="#474747"
         offset="1"
         id="stop4" />
    </linearGradient>
  </defs>
  <sodipodi:namedview
     id="namedview263"
     pagecolor="#ffffff"
     bordercolor="#000000"
     borderopacity="0.25"
     inkscape:showpageshadow="2"
     inkscape:pageopacity="0.0"
     inkscape:pagecheckerboard="0"
     inkscape:deskcolor="#d1d1d1"
     showgrid="false"
     inkscape:zoom="8.9166667"
     inkscape:cx="-4.2616822"
     inkscape:cy="27.813084"
     inkscape:window-width="1902"
     inkscape:window-height="1039"
     inkscape:window-x="7"
     inkscape:window-y="30"
     inkscape:window-maximized="1"
     inkscape:current-layer="svg261" />
  <path
     d="m 18.3465,35.390673 h 11.307 v 5.924999 h -11.307 z"
     fill="url(#a)"
     fill-rule="nonzero"
     id="path12"
     style="fill:url(#a);stroke-width:0.75" />
  <path
     d="m 35.77,40.663034 c 0,-0.650652 -0.528,-1.177748 -1.178,-1.177748 H 13.408 c -0.65,0 -1.178,0.527096 -1.178,1.177748 v 1.304705 c 0,0.649518 0.528,1.177748 1.178,1.177748 h 21.184 c 0.65,0 1.178,-0.52823 1.178,-1.177748 z"
     fill="#a4a4a4"
     id="path14"
     style="stroke-width:1.06468" />
  <path
     d="M 39.44,36.402513 H 8.5600001 c -3.4380002,0 -6.2280002,-2.79 -6.2280002,-6.228001 V 11.082513 c 0,-3.4380002 2.79,-6.2280002 6.2280002,-6.2280002 H 39.44 c 3.438,0 6.228,2.79 6.228,6.2280002 v 19.091999 c 0,3.438 -2.79,6.228001 -6.228,6.228001 z"
     fill="url(#b)"
     id="path16"
     style="fill:url(#b)" />
  <path
     d="M 2.6769999,23.074042 H 11.457 l 7.526,-11.287999 11.288,17.559999 5.017,-7.525999 h 10.035"
     fill="none"
     stroke="#ffffff"
     stroke-width="2.51"
     id="path18" />
  <path
     d="M 39.44,36.402513 H 8.5600001 c -3.4380002,0 -6.2280002,-2.79 -6.2280002,-6.228001 V 11.082513 c 0,-3.4380002 2.79,-6.2280002 6.2280002,-6.2280002 H 39.44 c 3.438,0 6.228,2.79 6.228,6.2280002 v 19.091999 c 0,3.438 -2.79,6.228001 -6.228,6.228001 z m 0,-1 c 2.886,0 5.228,-2.342 5.228,-5.228001 V 11.082513 c 0,-2.8860002 -2.342,-5.2280002 -5.228,-5.2280002 H 8.5600001 c -2.8860002,0 -5.2280002,2.342 -5.2280002,5.2280002 v 19.091999 c 0,2.886 2.342,5.228001 5.2280002,5.228001 z"
     fill="#3e3e3e"
     id="path20" />
</svg>
