<?xml version="1.0" encoding="UTF-8" standalone="no"?>
<svg
   clip-rule="evenodd"
   fill-rule="evenodd"
   stroke-linejoin="round"
   stroke-miterlimit="2"
   viewBox="0 0 48 48"
   version="1.1"
   id="svg41"
   sodipodi:docname="qgis.svg"
   xml:space="preserve"
   inkscape:version="1.2.2 (b0a8486541, 2022-12-01)"
   xmlns:inkscape="http://www.inkscape.org/namespaces/inkscape"
   xmlns:sodipodi="http://sodipodi.sourceforge.net/DTD/sodipodi-0.dtd"
   xmlns:xlink="http://www.w3.org/1999/xlink"
   xmlns="http://www.w3.org/2000/svg"
   xmlns:svg="http://www.w3.org/2000/svg"><defs
     id="defs45"><linearGradient
       inkscape:collect="always"
       id="linearGradient556"><stop
         style="stop-color:#eaf6e3;stop-opacity:1"
         offset="0"
         id="stop552" /><stop
         style="stop-color:#e3eedc;stop-opacity:1"
         offset="1"
         id="stop554" /></linearGradient><linearGradient
       id="a-3"
       x2="1"
       gradientTransform="matrix(1.72705,-42.6903,42.6903,1.72705,22.8387,45.0223)"
       gradientUnits="userSpaceOnUse"><stop
         stop-color="#397f09"
         offset="0"
         id="stop190" /><stop
         stop-color="#86d651"
         offset="1"
         id="stop192" /></linearGradient><linearGradient
       inkscape:collect="always"
       xlink:href="#linearGradient556"
       id="linearGradient558"
       x1="25.106529"
       y1="8.6825399"
       x2="25.554901"
       y2="34.8559"
       gradientUnits="userSpaceOnUse" /></defs><sodipodi:namedview
     id="namedview43"
     pagecolor="#ffffff"
     bordercolor="#000000"
     borderopacity="0.25"
     inkscape:showpageshadow="2"
     inkscape:pageopacity="0.0"
     inkscape:pagecheckerboard="0"
     inkscape:deskcolor="#d1d1d1"
     showgrid="false"
     inkscape:zoom="8.9166667"
     inkscape:cx="59.439252"
     inkscape:cy="35.214953"
     inkscape:window-width="1902"
     inkscape:window-height="1039"
     inkscape:window-x="7"
     inkscape:window-y="30"
     inkscape:window-maximized="1"
     inkscape:current-layer="svg41" /><linearGradient
     id="a"
     x2="1"
     gradientTransform="matrix(0 -43.3373 43.3373 0 302.963 45.6687)"
     gradientUnits="userSpaceOnUse"><stop
       stop-color="#00b2c3"
       offset="0"
       id="stop2" /><stop
       stop-color="#3fafd5"
       offset="1"
       id="stop4" /></linearGradient><linearGradient
     id="b"
     x2="1"
     gradientTransform="matrix(14.2858 -822.857 822.857 14.2858 2138.9 995.211)"
     gradientUnits="userSpaceOnUse"><stop
       stop-color="#00b344"
       offset="0"
       id="stop7" /><stop
       stop-color="#52c462"
       offset="1"
       id="stop9" /></linearGradient><linearGradient
     id="c"
     x2="1"
     gradientTransform="matrix(.150483 -20.4809 20.4809 .150483 175.44 28.6537)"
     gradientUnits="userSpaceOnUse"><stop
       stop-color="#d82000"
       offset="0"
       id="stop12" /><stop
       stop-color="#ff8655"
       offset="1"
       id="stop14" /></linearGradient><path
     d="m 45.668,8.56 c 0,-3.438 -2.79,-6.228 -6.228,-6.228 H 8.56 c -3.438,0 -6.228,2.79 -6.228,6.228 v 30.88 c 0,3.438 2.79,6.228 6.228,6.228 h 30.88 c 3.438,0 6.228,-2.79 6.228,-6.228 z"
     fill="url(#a)"
     id="path195"
     style="fill:url(#a-3)" /><path
     style="fill:url(#linearGradient558);fill-opacity:1;stroke-width:0.0559555"
     d="m 30.268615,34.808646 -3.414605,-3.511207 -0.0022,-2.140298 -0.0022,-2.140297 h 1.972609 1.972593 l 3.622957,3.623277 3.622953,3.623279 v 2.028226 2.028226 H 35.86198 33.683232 Z m -7.643639,2.580755 c -3.586719,-0.380135 -6.490076,-1.669089 -8.806023,-3.909459 -2.067852,-2.00037 -3.415509,-4.561364 -3.9225314,-7.454104 -0.566698,-3.233219 9.2e-5,-6.735821 1.5187904,-9.385685 2.432052,-4.24351 6.794917,-6.7658195 12.021118,-6.9497865 4.595494,-0.161766 8.859028,1.6039655 11.617486,4.8113505 3.146024,3.658024 4.104255,8.881599 2.500042,13.628382 -0.210315,0.622317 -0.719772,1.805351 -0.888028,2.062141 l -0.09852,0.15037 -1.055124,-1.08934 C 34.931868,28.654134 33.96311,27.653645 33.359391,27.029961 l -1.097672,-1.133971 0.093,-0.46076 c 0.375274,-1.859289 0.166952,-3.952704 -0.566486,-5.692599 -0.952619,-2.259846 -2.863465,-4.061242 -5.07426,-4.783618 -1.044972,-0.341444 -1.3939,-0.392521 -2.662131,-0.389694 -0.963679,0.0021 -1.233716,0.02185 -1.688891,0.123246 -1.821436,0.405734 -3.349305,1.28233 -4.610129,2.645004 -1.070944,1.157456 -1.799899,2.606746 -2.162561,4.29955 -0.112144,0.523453 -0.127437,0.751297 -0.12636,1.882507 0.0011,1.128757 0.01694,1.359207 0.129066,1.874509 0.777632,3.57387 3.343655,6.247159 6.717005,6.997793 0.589626,0.131203 2.040497,0.243851 2.493088,0.193568 l 0.331553,-0.03683 1.976611,1.976023 c 1.087137,1.086813 1.976612,1.992974 1.976612,2.013691 0,0.110365 -1.833125,0.591007 -2.85373,0.748243 -0.567902,0.08749 -3.078732,0.158997 -3.609128,0.102783 z m 0.630955,-9.650275 -1.77513,-1.813414 -0.0015,-2.084342 -0.0015,-2.084341 2.140297,1.1e-5 2.140298,1.1e-5 1.669094,1.706631 1.669094,1.706631 H 27.078477 25.06031 l -0.01464,2.191114 -0.01464,2.191113 z"
     id="path1690" /></svg>
