<?xml version="1.0" encoding="UTF-8" standalone="no"?>
<svg
   clip-rule="evenodd"
   fill-rule="evenodd"
   stroke-linejoin="round"
   stroke-miterlimit="2"
   viewBox="0 0 48 48"
   version="1.1"
   id="svg609"
   sodipodi:docname="zoom-desktop.svg"
   inkscape:version="1.2.2 (b0a8486541, 2022-12-01)"
   xmlns:inkscape="http://www.inkscape.org/namespaces/inkscape"
   xmlns:sodipodi="http://sodipodi.sourceforge.net/DTD/sodipodi-0.dtd"
   xmlns:xlink="http://www.w3.org/1999/xlink"
   xmlns="http://www.w3.org/2000/svg"
   xmlns:svg="http://www.w3.org/2000/svg">
  <defs
     id="defs613">
    <linearGradient
       id="a-3"
       x2="1"
       gradientTransform="matrix(0.0750367,-43.19,43.19,0.0750367,87.46,45.5869)"
       gradientUnits="userSpaceOnUse">
      <stop
         stop-color="#003fb6"
         offset="0"
         id="stop244" />
      <stop
         stop-color="#21c6fb"
         offset="1"
         id="stop246" />
    </linearGradient>
    <linearGradient
       inkscape:collect="always"
       xlink:href="#linearGradient1065"
       id="linearGradient1067"
       x1="154.42084"
       y1="10.614617"
       x2="133.29309"
       y2="50.593784"
       gradientUnits="userSpaceOnUse"
       gradientTransform="translate(-119.29767,-6.3329257)" />
    <linearGradient
       inkscape:collect="always"
       id="linearGradient1065">
      <stop
         style="stop-color:#4a8cec;stop-opacity:1"
         offset="0"
         id="stop1061" />
      <stop
         style="stop-color:#0846c0;stop-opacity:1"
         offset="1"
         id="stop1063" />
    </linearGradient>
  </defs>
  <sodipodi:namedview
     id="namedview611"
     pagecolor="#ffffff"
     bordercolor="#000000"
     borderopacity="0.25"
     inkscape:showpageshadow="2"
     inkscape:pageopacity="0.0"
     inkscape:pagecheckerboard="0"
     inkscape:deskcolor="#d1d1d1"
     showgrid="false"
     inkscape:zoom="12.610071"
     inkscape:cx="14.155353"
     inkscape:cy="26.764323"
     inkscape:window-width="1902"
     inkscape:window-height="1039"
     inkscape:window-x="7"
     inkscape:window-y="30"
     inkscape:window-maximized="1"
     inkscape:current-layer="svg609" />
  <linearGradient
     id="a"
     x2="1"
     gradientTransform="matrix(0 -45.5281 45.5281 0 80.2727 46.764)"
     gradientUnits="userSpaceOnUse">
    <stop
       stop-color="#006783"
       offset="0"
       id="stop600" />
    <stop
       stop-color="#20ccff"
       offset="1"
       id="stop602" />
  </linearGradient>
  <rect
     style="fill:url(#linearGradient1067);fill-opacity:1;stroke-width:1.68766"
     id="rect358"
     width="43.335999"
     height="43.335999"
     x="2.3320007"
     y="2.3320007"
     ry="16.673809" />
  <path
     id="path13282"
     style="fill:#f9f9f9;stroke-width:0.0162994"
     d="m 7.7471025,17.115399 0.0098,0.09961 c 0.0197,0.248653 0.0448,0.424276 0.08789,0.591797 0.257615,1.003118 1.038663,1.743088 2.095703,1.984375 l 0.1640585,0.03711 2.929688,0.002 c 1.61363,0.0027 2.925274,0.01213 2.914062,0.01953 -0.01185,0.0073 -0.589019,0.58192 -1.283203,1.273437 -0.694201,0.691524 -1.829029,1.817751 -2.521485,2.50586 -3.2322415,3.211965 -3.9667305,3.9492 -4.0332035,4.039062 -0.409866,0.553818 -0.468959,1.313684 -0.152343,1.955078 0.290838,0.589164 0.822315,0.945741 1.55664,1.041016 0.0269,0.0036 2.5621275,0.0083 5.6347665,0.0098 h 5.58789 v -0.0957 c 0,-0.05348 -0.01092,-0.179585 -0.02539,-0.279297 -0.159428,-1.143154 -0.953986,-2.008432 -2.107422,-2.291099 l -0.1875,-0.04687 -3.373047,-0.0059 -3.373047,-0.0098 0.300782,-0.292969 c 0.426378,-0.416626 4.937754,-4.900202 6.296874,-6.257812 0.668879,-0.668146 1.18299,-1.193768 1.236329,-1.265625 0.530816,-0.715209 0.447947,-1.779662 -0.185547,-2.431641 -0.268252,-0.276093 -0.551054,-0.435762 -0.962891,-0.539063 l -0.136719,-0.0332 -5.234375,-0.0059 z m 27.1523445,0 c -0.225671,-0.0019 -0.446587,0.0044 -0.5625,0.01953 -1.285263,0.168309 -2.319184,0.665917 -3.185547,1.527344 l -0.228516,0.224609 -0.0625,-0.08203 c -0.120133,-0.146036 -0.476358,-0.482658 -0.644531,-0.611328 -0.727264,-0.556417 -1.602821,-0.908591 -2.611328,-1.048828 -0.142609,-0.01982 -0.376269,-0.02745 -0.607422,-0.02734 -0.231172,1.07e-4 -0.462154,0.0074 -0.607422,0.02734 -0.936458,0.128672 -1.781698,0.466943 -2.515625,1.009765 -1.120055,0.82841 -1.860794,2.024197 -2.105469,3.400391 -0.09419,0.529975 -0.08735,0.207434 -0.09375,4.962891 l -0.002,4.367187 0.173828,-0.0098 c 1.238557,-0.07086 2.233038,-0.937163 2.509766,-2.185547 l 0.04492,-0.197266 0.0078,-3.144531 c 0.0109,-3.451414 0.004,-3.188587 0.107421,-3.580078 0.274869,-1.039399 1.133693,-1.785185 2.19336,-1.908203 0.36178,-0.042 0.781303,0.004 1.125,0.11914 0.812173,0.272103 1.422342,0.922084 1.648437,1.757813 0.104436,0.385547 0.09817,0.120788 0.109375,3.601562 0.01009,3.13901 0.01102,3.172847 0.04492,3.326172 0.190534,0.863887 0.689064,1.529562 1.429687,1.914063 0.339036,0.176004 0.816838,0.299567 1.169922,0.300781 h 0.09375 v -4.251953 c 0,-4.673172 -0.0044,-4.417377 0.09961,-4.820313 0.276117,-1.070875 1.123213,-1.822356 2.199218,-1.947265 0.362727,-0.04211 0.790862,0.0039 1.13086,0.11914 0.817796,0.277632 1.442138,0.94896 1.654297,1.78125 0.09499,0.375669 0.0884,0.121445 0.09961,3.578125 0.0096,3.160551 0.01062,3.171806 0.04492,3.326172 0.13375,0.59451 0.369178,1.031292 0.769531,1.431641 0.215714,0.215716 0.399595,0.35314 0.652344,0.482422 0.351483,0.179781 0.828784,0.300781 1.177735,0.300781 h 0.09375 l -0.0059,-4.339844 c -0.0048,-3.241315 -0.01161,-4.37654 -0.02539,-4.492187 -0.09723,-0.771325 -0.264777,-1.357793 -0.556641,-1.94336 -0.821238,-1.647713 -2.327869,-2.714705 -4.179688,-2.958984 -0.129565,-0.0171 -0.360266,-0.02744 -0.585937,-0.0293 z" />
</svg>
