<?xml version="1.0" encoding="UTF-8" standalone="no"?>
<svg
   style="clip-rule:evenodd;fill-rule:evenodd;stroke-linejoin:round;stroke-miterlimit:2"
   viewBox="0 0 64 64"
   version="1.1"
   id="svg17"
   sodipodi:docname="application-illustrator.svg"
   inkscape:version="1.1.2 (0a00cf5339, 2022-02-04)"
   xmlns:inkscape="http://www.inkscape.org/namespaces/inkscape"
   xmlns:sodipodi="http://sodipodi.sourceforge.net/DTD/sodipodi-0.dtd"
   xmlns:xlink="http://www.w3.org/1999/xlink"
   xmlns="http://www.w3.org/2000/svg"
   xmlns:svg="http://www.w3.org/2000/svg">
  <sodipodi:namedview
     id="namedview19"
     pagecolor="#ffffff"
     bordercolor="#666666"
     borderopacity="1.0"
     inkscape:pageshadow="2"
     inkscape:pageopacity="0.0"
     inkscape:pagecheckerboard="0"
     showgrid="false"
     inkscape:zoom="7.5461552"
     inkscape:cx="26.834858"
     inkscape:cy="41.014264"
     inkscape:window-width="945"
     inkscape:window-height="1026"
     inkscape:window-x="965"
     inkscape:window-y="44"
     inkscape:window-maximized="1"
     inkscape:current-layer="svg17" />
  <path
     id="path2"
     style="fill:url(#linearGradient4660)"
     d="M 17.617188 1.46875 C 15.597188 1.46875 13.659469 2.2712188 12.230469 3.6992188 C 10.802469 5.1282186 10 7.0678906 10 9.0878906 L 10 14.148438 L 10 54.382812 C 10 56.402814 10.802469 58.340531 12.230469 59.769531 C 13.659469 61.197531 15.597187 62 17.617188 62 L 46.382812 62 C 48.402814 62 50.340531 61.197531 51.769531 59.769531 C 53.197531 58.340531 54 56.402814 54 54.382812 L 54 14.148438 L 54 9.0878906 C 54 7.0678906 53.197531 5.1282186 51.769531 3.6992188 C 50.340531 2.2712188 48.402813 1.46875 46.382812 1.46875 L 36.005859 1.46875 L 27.994141 1.46875 L 17.617188 1.46875 z " />
  <path
     id="path914"
     style="clip-rule:evenodd;fill:#6f350c;fill-opacity:1;fill-rule:evenodd;stroke-width:1;stroke-linejoin:round;stroke-miterlimit:2"
     d="m 9.9999999,50.982422 v 3.40039 c 0,2.020002 0.8024691,3.957719 2.2304691,5.386719 1.429,1.428 3.366717,2.230469 5.386719,2.230469 h 28.765624 c 2.020002,0 3.957719,-0.802469 5.386719,-2.230469 C 53.197531,58.340531 54,56.402814 54,54.382812 v -3.40039 z" />
  <path
     d="m23.585 37.046h7.107v0.923h2.585v-0.923h7.138v1.044h2.585v-2.585h-0.954v-7.228h0.923v-2.585h-0.923v-6.71h0.954v-2.585h-2.585v0.526h-7.138v-0.923h-2.585v0.923h-7.107v-0.646h-2.585v2.585h0.923v6.83h-0.923v2.585h0.923v7.108h-0.923v2.584h2.585v-0.923zm-0.739 0v0.185h-1.108v-1.108h1.108v0.923zm8.585-20.123v-0.185h1.108v1.108h-1.108v-0.184-0.353-0.386zm1.108 20.123v0.185h-1.108v-0.185-0.386-0.352-0.185h1.108v0.923zm0.123-9.646c0.071 0.072 0.071 0.189 0 0.261-0.037 0.036-0.084 0.054-0.131 0.054s-0.095-0.018-0.131-0.054l-0.415-0.415-0.416 0.415c-0.036 0.036-0.083 0.054-0.13 0.054-0.048 0-0.095-0.018-0.131-0.054-0.072-0.072-0.072-0.189 0-0.261l0.415-0.415-0.415-0.416c-0.072-0.072-0.072-0.189 0-0.261s0.189-0.072 0.261 0l0.416 0.416 0.415-0.416c0.072-0.072 0.189-0.072 0.261 0s0.072 0.189 0 0.261l-0.415 0.416 0.416 0.415zm9.6 9.951h-1.108v-0.305-0.738-0.064h1.108v1.107zm-1.847-1.846v0.803h-5.782c3.223-0.914 5.761-3.452 6.675-6.676v5.873h-0.893zm1.816-7.966h-0.185-0.386-0.352-0.185v-1.108h1.108v1.108zm-1.077-10.403h1.108v1.108h-0.216-0.738-0.154v-0.582-0.526zm-0.739 0.526v1.32h0.893v5.355c-0.914-3.223-3.452-5.762-6.675-6.675h5.782zm-18.677-0.647h1.108v1.108h-0.184-0.739-0.185v-1.108zm1.847 1.847v-1.2h5.752c-3.223 0.913-5.762 3.452-6.675 6.675v-5.475h0.923zm-1.847 7.569h1.108v1.107h-0.184-0.353-0.386-0.185v-1.107zm0.924 3.201c0.913 3.224 3.452 5.762 6.675 6.676h-5.752v-0.923h-0.923v-5.753z"
     style="fill-rule:nonzero;fill:#6f350c"
     id="path4" />
  <path
     d="m30.38 59.371c-0.426 0-0.784-0.123-1.074-0.369-0.284-0.246-0.426-0.571-0.426-0.975 0-0.437 0.169-0.779 0.508-1.024 0.339-0.252 0.757-0.377 1.254-0.377 0.443 0 0.806 0.082 1.09 0.246v-0.115c0-0.295-0.101-0.53-0.303-0.705-0.202-0.18-0.451-0.27-0.746-0.27-0.219 0-0.418 0.051-0.598 0.155-0.175 0.104-0.295 0.246-0.361 0.426l-0.688-0.295c0.093-0.24 0.276-0.461 0.549-0.663 0.273-0.208 0.634-0.312 1.082-0.312 0.513 0 0.939 0.15 1.278 0.451 0.339 0.3 0.508 0.724 0.508 1.27v2.426h-0.721v-0.557h-0.033c-0.3 0.459-0.74 0.688-1.319 0.688zm0.123-0.688c0.311 0 0.593-0.115 0.844-0.345 0.257-0.234 0.385-0.51 0.385-0.827-0.213-0.175-0.533-0.263-0.959-0.263-0.366 0-0.642 0.08-0.828 0.238-0.185 0.159-0.278 0.344-0.278 0.557 0 0.197 0.084 0.353 0.254 0.468 0.169 0.114 0.363 0.172 0.582 0.172z"
     style="fill-rule:nonzero;fill:#fff"
     id="path6" />
  <path
     d="m34.123 54.216c-0.104 0.104-0.23 0.156-0.377 0.156-0.148 0-0.273-0.052-0.377-0.156s-0.156-0.229-0.156-0.377c0-0.147 0.052-0.273 0.156-0.377s0.229-0.156 0.377-0.156c0.147 0 0.273 0.052 0.377 0.156s0.156 0.23 0.156 0.377c0 0.148-0.052 0.273-0.156 0.377zm0 5.024h-0.754v-4.016h0.754v4.016z"
     style="fill-rule:nonzero;fill:#fff"
     id="path8" />
  <defs
     id="defs15">
    <linearGradient
       id="_Linear1"
       x2="1"
       gradientTransform="matrix(0,-49.619,49.619,0,250.77,51.088)"
       gradientUnits="userSpaceOnUse">
      <stop
         style="stop-color:#b1530f"
         offset="0"
         id="stop10" />
      <stop
         style="stop-color:#fbb321"
         offset="1"
         id="stop12" />
    </linearGradient>
    <linearGradient
       inkscape:collect="always"
       xlink:href="#_Linear1"
       id="linearGradient4660"
       gradientUnits="userSpaceOnUse"
       gradientTransform="matrix(0,-49.619,49.619,0,250.77,51.088)"
       x2="1" />
  </defs>
</svg>
