<?xml version="1.0" encoding="UTF-8" standalone="no"?>
<svg
   clip-rule="evenodd"
   fill-rule="evenodd"
   stroke-linejoin="round"
   stroke-miterlimit="2"
   viewBox="0 0 48 48"
   version="1.1"
   id="svg11"
   sodipodi:docname="application-bitwig-template.svg"
   inkscape:version="1.1.2 (0a00cf5339, 2022-02-04)"
   xmlns:inkscape="http://www.inkscape.org/namespaces/inkscape"
   xmlns:sodipodi="http://sodipodi.sourceforge.net/DTD/sodipodi-0.dtd"
   xmlns:xlink="http://www.w3.org/1999/xlink"
   xmlns="http://www.w3.org/2000/svg"
   xmlns:svg="http://www.w3.org/2000/svg">
  <defs
     id="defs15">
    <linearGradient
       inkscape:collect="always"
       xlink:href="#a"
       id="linearGradient4116"
       gradientUnits="userSpaceOnUse"
       gradientTransform="matrix(0,-37.2142,37.2142,0,133.41,38.316)"
       x2="1" />
  </defs>
  <sodipodi:namedview
     id="namedview13"
     pagecolor="#ffffff"
     bordercolor="#666666"
     borderopacity="1.0"
     inkscape:pageshadow="2"
     inkscape:pageopacity="0.0"
     inkscape:pagecheckerboard="0"
     showgrid="false"
     inkscape:zoom="7.1145833"
     inkscape:cx="40.691069"
     inkscape:cy="24.105417"
     inkscape:window-width="1043"
     inkscape:window-height="1022"
     inkscape:window-x="865"
     inkscape:window-y="46"
     inkscape:window-maximized="1"
     inkscape:current-layer="svg11" />
  <linearGradient
     id="a"
     x2="1"
     gradientTransform="matrix(0,-37.2142,37.2142,0,133.41,38.316)"
     gradientUnits="userSpaceOnUse">
    <stop
       stop-color="#c5cfd6"
       offset="0"
       id="stop2" />
    <stop
       stop-color="#e7e8e9"
       offset="1"
       id="stop4" />
  </linearGradient>
  <path
     id="path7"
     style="fill:url(#linearGradient4116)"
     d="M 13.214844 1.1015625 C 11.699844 1.1015625 10.245828 1.7043906 9.1738281 2.7753906 C 8.1028281 3.8473906 7.5 5.2994531 7.5 6.8144531 L 7.5 13.246094 L 7.5 40.787109 C 7.5 42.302109 8.1028281 43.754172 9.1738281 44.826172 C 9.9778281 45.629422 10.995967 46.168923 12.09375 46.388672 C 12.094369 46.388796 12.095084 46.388548 12.095703 46.388672 C 12.278052 46.42511 12.462292 46.454145 12.648438 46.472656 C 12.649081 46.47272 12.649747 46.472592 12.650391 46.472656 C 12.836546 46.491104 13.024169 46.5 13.212891 46.5 C 13.213544 46.5 13.21419 46.5 13.214844 46.5 L 34.785156 46.5 C 35.353281 46.5 35.913222 46.414397 36.447266 46.251953 C 37.336767 45.981213 38.156172 45.495547 38.826172 44.826172 C 39.897172 43.754172 40.5 42.302109 40.5 40.787109 L 40.5 13.246094 L 40.5 6.8144531 C 40.5 5.2994531 39.897172 3.8473906 38.826172 2.7753906 C 37.754172 1.7043906 36.300156 1.1015625 34.785156 1.1015625 L 28.310547 1.1015625 L 19.689453 1.1015625 L 13.214844 1.1015625 z " />
  <path
     d="M 13.5,25 C 14.328,25 15,25.672 15,26.5 15,27.328 14.328,28 13.5,28 12.672,28 12,27.328 12,26.5 12,25.672 12.672,25 13.5,25 Z m 4,0 C 18.328,25 19,25.672 19,26.5 19,27.328 18.328,28 17.5,28 16.672,28 16,27.328 16,26.5 16,25.672 16.672,25 17.5,25 Z m 12,0 C 30.328,25 31,25.672 31,26.5 31,27.328 30.328,28 29.5,28 28.672,28 28,27.328 28,26.5 28,25.672 28.672,25 29.5,25 Z m 4,0 C 34.328,25 35,25.672 35,26.5 35,27.328 34.328,28 33.5,28 32.672,28 32,27.328 32,26.5 32,25.672 32.672,25 33.5,25 Z m -20,-4 C 14.328,21 15,21.672 15,22.5 15,23.328 14.328,24 13.5,24 12.672,24 12,23.328 12,22.5 12,21.672 12.672,21 13.5,21 Z m 4,0 C 18.328,21 19,21.672 19,22.5 19,23.328 18.328,24 17.5,24 16.672,24 16,23.328 16,22.5 16,21.672 16.672,21 17.5,21 Z m 4,0 C 22.328,21 23,21.672 23,22.5 23,23.328 22.328,24 21.5,24 20.672,24 20,23.328 20,22.5 20,21.672 20.672,21 21.5,21 Z m 4,0 C 26.328,21 27,21.672 27,22.5 27,23.328 26.328,24 25.5,24 24.672,24 24,23.328 24,22.5 24,21.672 24.672,21 25.5,21 Z m 4,0 C 30.328,21 31,21.672 31,22.5 31,23.328 30.328,24 29.5,24 28.672,24 28,23.328 28,22.5 28,21.672 28.672,21 29.5,21 Z m 4,0 C 34.328,21 35,21.672 35,22.5 35,23.328 34.328,24 33.5,24 32.672,24 32,23.328 32,22.5 32,21.672 32.672,21 33.5,21 Z m -16,-4 C 18.328,17 19,17.672 19,18.5 19,19.328 18.328,20 17.5,20 16.672,20 16,19.328 16,18.5 16,17.672 16.672,17 17.5,17 Z m 4,0 C 22.328,17 23,17.672 23,18.5 23,19.328 22.328,20 21.5,20 20.672,20 20,19.328 20,18.5 20,17.672 20.672,17 21.5,17 Z m 4,0 C 26.328,17 27,17.672 27,18.5 27,19.328 26.328,20 25.5,20 24.672,20 24,19.328 24,18.5 24,17.672 24.672,17 25.5,17 Z m 4,0 C 30.328,17 31,17.672 31,18.5 31,19.328 30.328,20 29.5,20 28.672,20 28,19.328 28,18.5 28,17.672 28.672,17 29.5,17 Z"
     fill="#e38c5d"
     id="path9" />
  <path
     id="path2-3"
     style="clip-rule:evenodd;fill:#e38c5d;fill-opacity:1;fill-rule:evenodd;stroke-width:0.74737;stroke-linejoin:round;stroke-miterlimit:2"
     d="m 7.6157396,38.265798 v 2.539888 0.0015 c 4.91e-5,0.188219 0.0093,0.374845 0.027735,0.560527 v 0.0015 c 0.018483,0.185678 0.046845,0.369862 0.083204,0.551769 v 0.0015 c 0.036404,0.181903 0.081988,0.361739 0.1357523,0.538631 v 0.0015 c 0.05381,0.176891 0.116183,0.350475 0.1868423,0.521116 v 0.0015 c 0.070708,0.170641 0.1494268,0.338986 0.2364722,0.502139 v 0.0015 c 0.087093,0.163156 0.183181,0.321441 0.2861028,0.475865 v 0.0015 c 0.1029696,0.154427 0.2145234,0.303675 0.3328127,0.448129 v 0.0015 c 0.1183392,0.144458 0.2449151,0.282773 0.3780643,0.416016 v 0.0015 c 0.5339954,0.533413 1.1637298,0.949903 1.8479878,1.233243 C 11.81497,46.349858 12.55375,46.5 13.308595,46.5 h 21.49855 c 0.754845,0 1.493626,-0.149827 2.177882,-0.433532 0.684259,-0.283341 1.313993,-0.699831 1.847988,-1.233453 v -0.0015 C 39.90026,43.763601 40.5,42.315373 40.5,40.805686 v -2.539888 z" />
  <text
     xml:space="preserve"
     style="font-size:5.46667px;line-height:1.25;font-family:sans-serif;letter-spacing:0px;clip-rule:evenodd;fill:#ffffff;fill-rule:evenodd;stroke-width:0.133838;stroke-linejoin:round;stroke-miterlimit:2"
     x="24.036516"
     y="43.869682"
     id="text5891"><tspan
       sodipodi:role="line"
       id="tspan5889"
       x="24.036516"
       y="43.869682"
       style="font-style:normal;font-variant:normal;font-weight:bold;font-stretch:normal;font-size:5.46667px;font-family:sans-serif;-inkscape-font-specification:'sans-serif Bold';text-align:center;text-anchor:middle;fill:#ffffff;stroke-width:0.133838">Bitwig</tspan></text>
</svg>
