<?xml version="1.0" encoding="UTF-8" standalone="no"?>
<svg
   style="clip-rule:evenodd;fill-rule:evenodd;stroke-linejoin:round;stroke-miterlimit:2"
   viewBox="0 0 64 64"
   version="1.1"
   id="svg21"
   sodipodi:docname="application-vnd.oasis.opendocument.chart.svg"
   inkscape:version="1.1.2 (0a00cf5339, 2022-02-04)"
   xmlns:inkscape="http://www.inkscape.org/namespaces/inkscape"
   xmlns:sodipodi="http://sodipodi.sourceforge.net/DTD/sodipodi-0.dtd"
   xmlns:xlink="http://www.w3.org/1999/xlink"
   xmlns="http://www.w3.org/2000/svg"
   xmlns:svg="http://www.w3.org/2000/svg">
  <sodipodi:namedview
     id="namedview23"
     pagecolor="#ffffff"
     bordercolor="#666666"
     borderopacity="1.0"
     inkscape:pageshadow="2"
     inkscape:pageopacity="0.0"
     inkscape:pagecheckerboard="0"
     showgrid="false"
     inkscape:zoom="10.671875"
     inkscape:cx="40.667643"
     inkscape:cy="37.669107"
     inkscape:window-width="1896"
     inkscape:window-height="1022"
     inkscape:window-x="12"
     inkscape:window-y="46"
     inkscape:window-maximized="1"
     inkscape:current-layer="svg21" />
  <path
     id="path2"
     style="fill:url(#linearGradient939)"
     d="M 17.617188 1.46875 C 15.597188 1.46875 13.659469 2.2712188 12.230469 3.6992188 C 10.802469 5.1282186 10 7.0678906 10 9.0878906 L 10 11.337891 L 10 54.382812 C 10 56.402814 10.802469 58.340531 12.230469 59.769531 C 13.659469 61.197531 15.597187 62 17.617188 62 L 46.382812 62 C 48.402814 62 50.340531 61.197531 51.769531 59.769531 C 53.197531 58.340531 54 56.402814 54 54.382812 L 54 11.337891 L 54 9.0878906 C 54 7.0678906 53.197531 5.1282186 51.769531 3.6992188 C 50.340531 2.2712188 48.402813 1.46875 46.382812 1.46875 L 35.746094 1.46875 L 28.253906 1.46875 L 17.617188 1.46875 z " />
  <path
     id="path914"
     style="clip-rule:evenodd;fill:#30707a;fill-opacity:1;fill-rule:evenodd;stroke-width:1;stroke-linejoin:round;stroke-miterlimit:2"
     d="m 10.000001,50.982422 v 3.40039 c 0,2.020002 0.802469,3.957719 2.230469,5.386719 C 13.65947,61.197531 15.597187,62 17.617188,62 h 28.765625 c 2.020001,0 3.957718,-0.802469 5.386719,-2.230469 C 53.197531,58.340531 54,56.402814 54,54.382812 v -3.40039 z" />
  <path
     d="m24.945 59.471c-0.601 0-1.095-0.202-1.483-0.606-0.388-0.41-0.582-0.921-0.582-1.533s0.194-1.12 0.582-1.524c0.388-0.41 0.882-0.615 1.483-0.615 0.448 0 0.82 0.109 1.115 0.328 0.295 0.218 0.511 0.494 0.647 0.828l-0.688 0.286c-0.208-0.502-0.582-0.754-1.123-0.754-0.333 0-0.628 0.137-0.885 0.41-0.251 0.273-0.377 0.62-0.377 1.041s0.126 0.768 0.377 1.041c0.257 0.273 0.552 0.41 0.885 0.41 0.563 0 0.951-0.252 1.164-0.754l0.672 0.286c-0.137 0.328-0.358 0.604-0.664 0.828-0.3 0.219-0.675 0.328-1.123 0.328z"
     style="fill-rule:nonzero;fill:#fff"
     id="path4" />
  <path
     d="m28.137 53.472v1.852l-0.032 0.557h0.032c0.11-0.191 0.282-0.352 0.517-0.483 0.235-0.137 0.486-0.205 0.754-0.205 0.497 0 0.877 0.153 1.139 0.459s0.393 0.716 0.393 1.229v2.459h-0.754v-2.344c0-0.743-0.33-1.115-0.991-1.115-0.312 0-0.566 0.126-0.763 0.377-0.196 0.246-0.295 0.533-0.295 0.861v2.221h-0.754v-5.868h0.754z"
     style="fill-rule:nonzero;fill:#fff"
     id="path6" />
  <path
     d="m33.055 59.471c-0.426 0-0.784-0.123-1.073-0.369-0.284-0.246-0.426-0.571-0.426-0.975 0-0.437 0.169-0.779 0.508-1.024 0.339-0.252 0.757-0.377 1.254-0.377 0.442 0 0.806 0.081 1.09 0.245v-0.114c0-0.295-0.101-0.53-0.303-0.705-0.203-0.18-0.451-0.271-0.746-0.271-0.219 0-0.418 0.052-0.599 0.156-0.174 0.104-0.295 0.246-0.36 0.426l-0.689-0.295c0.093-0.24 0.276-0.461 0.55-0.664 0.273-0.207 0.633-0.311 1.081-0.311 0.514 0 0.94 0.15 1.279 0.451 0.339 0.3 0.508 0.724 0.508 1.27v2.426h-0.721v-0.557h-0.033c-0.301 0.459-0.74 0.688-1.32 0.688zm0.123-0.688c0.312 0 0.593-0.115 0.845-0.345 0.256-0.235 0.385-0.51 0.385-0.827-0.213-0.175-0.533-0.263-0.959-0.263-0.366 0-0.642 0.08-0.828 0.238s-0.279 0.344-0.279 0.557c0 0.197 0.085 0.353 0.255 0.467 0.169 0.115 0.363 0.173 0.581 0.173z"
     style="fill-rule:nonzero;fill:#fff"
     id="path8" />
  <path
     d="m40.831 59.405c-0.421 0-0.743-0.112-0.967-0.336-0.219-0.224-0.328-0.54-0.328-0.95v-2.106h-0.705v-0.689h0.705v-1.229h0.754v1.229h0.983v0.689h-0.983v2.048c0 0.437 0.18 0.656 0.541 0.656 0.136 0 0.251-0.022 0.344-0.066l0.262 0.648c-0.164 0.071-0.366 0.106-0.606 0.106zm-4.131-4.081v0.656h0.033c0.087-0.235 0.249-0.418 0.483-0.549 0.241-0.137 0.503-0.205 0.787-0.205 0.082 0 0.172 5e-3 0.271 0.016v0.738c-0.104-0.011-0.205-0.017-0.304-0.017-0.36 0-0.658 0.107-0.893 0.32-0.229 0.208-0.344 0.494-0.344 0.86v2.197h-0.754v-4.016h0.721z"
     style="fill-rule:nonzero;fill:#fff"
     id="path10" />
  <path
     d="m42.885 17.18c0.211-0.317 0.123-0.743-0.194-0.953s-0.742-0.123-0.952 0.195l-2.543 3.849c-0.106-0.017-0.211-0.033-0.321-0.033-1.136 0-2.063 0.926-2.063 2.062 0 0.219 0.043 0.426 0.107 0.624l-2.456 3.131c-0.317-0.198-0.687-0.317-1.088-0.317-1.108 0-2.01 0.882-2.054 1.979l-3.885 2.263c-0.378-0.485-0.961-0.805-1.623-0.805-1.138 0-2.063 0.926-2.063 2.062 0 0.447 0.147 0.86 0.389 1.198l-3.026 4.612c-0.208 0.318-0.12 0.744 0.197 0.952 0.116 0.077 0.248 0.113 0.377 0.113 0.224 0 0.444-0.109 0.575-0.31l3.008-4.583c0.174 0.047 0.355 0.081 0.543 0.081 1.108 0 2.01-0.881 2.054-1.981l3.885-2.261c0.377 0.486 0.961 0.804 1.623 0.804 1.137 0 2.062-0.925 2.062-2.062 0-0.218-0.042-0.426-0.105-0.623l2.454-3.131c0.317 0.198 0.688 0.317 1.088 0.317 1.136 0 2.062-0.925 2.062-2.062 0-0.527-0.205-1.003-0.53-1.368l2.479-3.753zm-17.072 14.745c-0.38 0-0.688-0.307-0.688-0.688 0-0.378 0.308-0.687 0.688-0.687 0.379 0 0.687 0.309 0.687 0.687 0 0.381-0.308 0.688-0.687 0.688zm7.562-3.438c-0.38 0-0.688-0.307-0.688-0.687 0-0.379 0.308-0.688 0.688-0.688 0.379 0 0.687 0.309 0.687 0.688 0 0.38-0.308 0.687-0.687 0.687zm5.5-5.499c-0.38 0-0.688-0.308-0.688-0.688 0-0.379 0.308-0.687 0.688-0.687 0.379 0 0.687 0.308 0.687 0.687 0 0.38-0.309 0.688-0.687 0.688zm-13.75 13.749c-0.38 0-0.687 0.309-0.687 0.688 0 0.38 0.307 0.687 0.687 0.687s0.688-0.307 0.688-0.687c0-0.379-0.307-0.688-0.688-0.688zm3.437 0c-0.38 0-0.687 0.309-0.687 0.688 0 0.38 0.307 0.687 0.687 0.687 0.381 0 0.688-0.307 0.688-0.687 0-0.379-0.307-0.688-0.688-0.688zm3.438 0c-0.38 0-0.688 0.309-0.688 0.688 0 0.38 0.308 0.687 0.688 0.687s0.687-0.307 0.687-0.687c0-0.379-0.306-0.688-0.687-0.688zm3.437 0c-0.38 0-0.687 0.309-0.687 0.688 0 0.38 0.307 0.687 0.687 0.687 0.381 0 0.688-0.307 0.688-0.687 0-0.379-0.307-0.688-0.688-0.688zm3.438 0c-0.381 0-0.688 0.309-0.688 0.688 0 0.38 0.307 0.687 0.688 0.687 0.38 0 0.687-0.307 0.687-0.687 0-0.379-0.307-0.688-0.687-0.688zm3.437 0c-0.38 0-0.688 0.309-0.688 0.688 0 0.38 0.308 0.687 0.688 0.687 0.381 0 0.687-0.307 0.687-0.687 0-0.379-0.306-0.688-0.687-0.688zm-20.624-2.062c0.38 0 0.687-0.308 0.687-0.688 0-0.379-0.307-0.687-0.687-0.687-0.381 0-0.688 0.308-0.688 0.687 0 0.38 0.307 0.688 0.688 0.688zm0-3.438c0.38 0 0.687-0.307 0.687-0.687 0-0.379-0.307-0.688-0.687-0.688-0.381 0-0.688 0.309-0.688 0.688 0 0.38 0.307 0.687 0.688 0.687zm0-3.437c0.38 0 0.687-0.307 0.687-0.688 0-0.378-0.307-0.687-0.687-0.687-0.381 0-0.688 0.308-0.688 0.687 0 0.381 0.307 0.688 0.688 0.688zm0-3.437c0.38 0 0.687-0.307 0.687-0.688 0-0.379-0.307-0.687-0.687-0.687-0.381 0-0.688 0.308-0.688 0.687 0 0.382 0.307 0.688 0.688 0.688zm0-3.438c0.38 0 0.687-0.306 0.687-0.687 0-0.38-0.307-0.688-0.687-0.688-0.381 0-0.688 0.308-0.688 0.688 0 0.381 0.307 0.687 0.688 0.687zm0-3.437c0.38 0 0.687-0.307 0.687-0.688 0-0.379-0.307-0.687-0.687-0.687-0.381 0-0.688 0.308-0.688 0.687 0 0.382 0.307 0.688 0.688 0.688z"
     style="fill-rule:nonzero;fill:#fff"
     id="path12" />
  <defs
     id="defs19">
    <linearGradient
       id="_Linear1"
       x2="1"
       gradientTransform="matrix(0,-49.619,49.619,0,469.44,51.088)"
       gradientUnits="userSpaceOnUse">
      <stop
         style="stop-color:#348692"
         offset="0"
         id="stop14" />
      <stop
         style="stop-color:#69b9cd"
         offset="1"
         id="stop16" />
    </linearGradient>
    <linearGradient
       inkscape:collect="always"
       xlink:href="#_Linear1"
       id="linearGradient939"
       gradientUnits="userSpaceOnUse"
       gradientTransform="matrix(0,-49.619,49.619,0,469.44,51.088)"
       x2="1" />
  </defs>
</svg>
