<?xml version="1.0" encoding="UTF-8" standalone="no"?>
<svg
   style="clip-rule:evenodd;fill-rule:evenodd;stroke-linejoin:round;stroke-miterlimit:2"
   viewBox="0 0 64 64"
   version="1.1"
   id="svg23"
   sodipodi:docname="application-x-trash.svg"
   inkscape:version="1.1.2 (0a00cf5339, 2022-02-04)"
   xmlns:inkscape="http://www.inkscape.org/namespaces/inkscape"
   xmlns:sodipodi="http://sodipodi.sourceforge.net/DTD/sodipodi-0.dtd"
   xmlns:xlink="http://www.w3.org/1999/xlink"
   xmlns="http://www.w3.org/2000/svg"
   xmlns:svg="http://www.w3.org/2000/svg">
  <sodipodi:namedview
     id="namedview25"
     pagecolor="#ffffff"
     bordercolor="#666666"
     borderopacity="1.0"
     inkscape:pageshadow="2"
     inkscape:pageopacity="0.0"
     inkscape:pagecheckerboard="0"
     showgrid="false"
     inkscape:zoom="10.65625"
     inkscape:cx="32"
     inkscape:cy="32"
     inkscape:window-width="1896"
     inkscape:window-height="1022"
     inkscape:window-x="12"
     inkscape:window-y="46"
     inkscape:window-maximized="1"
     inkscape:current-layer="svg23" />
  <path
     id="path2"
     style="fill:url(#linearGradient4510)"
     d="M 17.617188 1.46875 C 15.597188 1.46875 13.659469 2.2712188 12.230469 3.6992188 C 10.802469 5.1282186 10 7.0678906 10 9.0878906 L 10 13.671875 L 10 54.382812 C 10 56.402814 10.802469 58.340531 12.230469 59.769531 C 13.659469 61.197531 15.597187 62 17.617188 62 L 46.382812 62 C 48.402814 62 50.340531 61.197531 51.769531 59.769531 C 53.197531 58.340531 54 56.402814 54 54.382812 L 54 13.671875 L 54 9.0878906 C 54 7.0678906 53.197531 5.1282186 51.769531 3.6992188 C 50.340531 2.2712188 48.402813 1.46875 46.382812 1.46875 L 36.296875 1.46875 L 27.703125 1.46875 L 17.617188 1.46875 z " />
  <path
     id="path914"
     style="clip-rule:evenodd;fill:#1e2730;fill-opacity:1;fill-rule:evenodd;stroke-width:1;stroke-linecap:round;stroke-linejoin:round;stroke-miterlimit:2"
     d="m 10,50.982422 v 3.40039 c 0,2.020002 0.802467,3.957719 2.230469,5.386719 C 13.659467,61.197531 15.597183,62 17.617187,62 h 28.765625 c 2.020002,0 3.957718,-0.802469 5.386719,-2.230469 C 53.19753,58.340531 54,56.402814 54,54.382812 v -3.40039 z" />
  <path
     d="m25.347 59.205c-0.421 0-0.743-0.112-0.967-0.336-0.219-0.224-0.328-0.54-0.328-0.95v-2.106h-0.705v-0.689h0.705v-1.229h0.754v1.229h0.983v0.689h-0.983v2.048c0 0.437 0.18 0.656 0.541 0.656 0.136 0 0.251-0.022 0.344-0.066l0.262 0.648c-0.164 0.071-0.366 0.106-0.606 0.106z"
     style="fill-rule:nonzero;fill:#fff"
     id="path4" />
  <path
     d="m27.26 59.14h-0.754v-4.016h0.722v0.656h0.032c0.077-0.219 0.233-0.399 0.468-0.541 0.24-0.142 0.472-0.213 0.696-0.213s0.413 0.033 0.566 0.098l-0.287 0.705c-0.098-0.038-0.232-0.057-0.402-0.057-0.273 0-0.516 0.109-0.729 0.327-0.208 0.213-0.312 0.495-0.312 0.844v2.197z"
     style="fill-rule:nonzero;fill:#fff"
     id="path6" />
  <path
     d="m30.594 59.271c-0.426 0-0.784-0.123-1.074-0.369-0.284-0.246-0.426-0.571-0.426-0.975 0-0.437 0.17-0.779 0.508-1.024 0.339-0.252 0.757-0.377 1.254-0.377 0.443 0 0.806 0.081 1.09 0.245v-0.114c0-0.295-0.101-0.53-0.303-0.705-0.202-0.18-0.451-0.271-0.746-0.271-0.218 0-0.418 0.052-0.598 0.156-0.175 0.104-0.295 0.246-0.361 0.426l-0.688-0.295c0.093-0.24 0.276-0.461 0.549-0.664 0.273-0.207 0.634-0.311 1.082-0.311 0.513 0 0.94 0.15 1.278 0.451 0.339 0.3 0.508 0.724 0.508 1.27v2.426h-0.721v-0.557h-0.033c-0.3 0.459-0.74 0.688-1.319 0.688zm0.123-0.688c0.311 0 0.593-0.115 0.844-0.345 0.257-0.235 0.385-0.51 0.385-0.827-0.213-0.175-0.532-0.263-0.959-0.263-0.366 0-0.642 0.08-0.827 0.238-0.186 0.158-0.279 0.344-0.279 0.557 0 0.197 0.085 0.353 0.254 0.467 0.169 0.115 0.363 0.173 0.582 0.173z"
     style="fill-rule:nonzero;fill:#fff"
     id="path8" />
  <path
     d="m34.961 59.271c-0.448 0-0.82-0.109-1.115-0.328-0.289-0.218-0.502-0.492-0.639-0.819l0.672-0.279c0.213 0.503 0.577 0.754 1.09 0.754 0.235 0 0.426-0.052 0.574-0.156 0.153-0.104 0.229-0.24 0.229-0.41 0-0.262-0.183-0.439-0.549-0.532l-0.811-0.197c-0.257-0.065-0.5-0.188-0.729-0.369-0.23-0.185-0.345-0.434-0.345-0.746 0-0.355 0.156-0.641 0.467-0.86 0.317-0.224 0.692-0.336 1.123-0.336 0.355 0 0.672 0.082 0.951 0.246 0.279 0.158 0.478 0.388 0.598 0.688l-0.655 0.271c-0.148-0.355-0.454-0.533-0.918-0.533-0.224 0-0.413 0.046-0.566 0.139s-0.229 0.219-0.229 0.377c0 0.23 0.177 0.385 0.532 0.467l0.795 0.189c0.377 0.087 0.656 0.238 0.836 0.451 0.181 0.213 0.271 0.453 0.271 0.721 0 0.36-0.148 0.661-0.443 0.901-0.295 0.241-0.675 0.361-1.139 0.361z"
     style="fill-rule:nonzero;fill:#fff"
     id="path10" />
  <path
     d="m37.953 53.272v1.852l-0.033 0.557h0.033c0.109-0.191 0.281-0.352 0.516-0.483 0.235-0.137 0.487-0.205 0.754-0.205 0.498 0 0.877 0.153 1.14 0.459 0.262 0.306 0.393 0.716 0.393 1.229v2.459h-0.754v-2.344c0-0.743-0.331-1.115-0.992-1.115-0.311 0-0.565 0.126-0.762 0.377-0.197 0.246-0.295 0.533-0.295 0.861v2.221h-0.754v-5.868h0.754z"
     style="fill-rule:nonzero;fill:#fff"
     id="path12" />
  <path
     d="m21.007 23.098l1.396 1.12-1.314 2.584c-0.657 1.191 0.472 2.352 1.191 2.756 0.708 0.398 1.807 0.445 2.834 0.431l1.849-3.101 1.396 0.775-2.423-4.608-4.929 0.043zm0.205 6.325l2.999 5.685c0.602 0.79 1.738 0.976 2.916 0.948h3.163v-5.384l-5.997-0.043c-0.931 0.058-2.15-0.143-3.081-1.206zm18.865-10.476l-1.632 0.711-1.565-2.433c-0.697-1.167-2.233-0.717-2.926-0.267-0.683 0.443-1.256 1.407-1.741 2.335l1.746 3.162-1.337 0.878 5.102 0.059 2.353-4.445zm-5.491-2.882l-6.298-0.065c-0.965 0.158-1.675 1.087-2.222 2.158l-1.533 2.839 4.588 2.61 2.944-5.362c0.402-0.863 1.164-1.86 2.521-2.18zm0.274 21.935l0.185-1.809 2.832-0.225c1.333-0.06 1.694-1.657 1.647-2.497-0.047-0.827-0.59-1.809-1.146-2.695l-3.542 0.034-0.1-1.626-2.524 4.551 2.648 4.267zm5.118-3.531l3.109-5.621c0.333-0.943-0.115-2.031-0.762-3.041l-1.676-2.752-4.449 2.853 3.142 5.241c0.541 0.78 1.021 1.947 0.636 3.32z"
     style="fill-rule:nonzero;fill:#1e2730"
     id="path14" />
  <defs
     id="defs21">
    <linearGradient
       id="_Linear1"
       x2="1"
       gradientTransform="matrix(1.07196,-49.7469,49.7469,1.07196,251.234,55.94)"
       gradientUnits="userSpaceOnUse">
      <stop
         style="stop-color:#333e49"
         offset="0"
         id="stop16" />
      <stop
         style="stop-color:#738f9b"
         offset="1"
         id="stop18" />
    </linearGradient>
    <linearGradient
       inkscape:collect="always"
       xlink:href="#_Linear1"
       id="linearGradient4510"
       gradientUnits="userSpaceOnUse"
       gradientTransform="matrix(1.07196,-49.7469,49.7469,1.07196,251.234,55.94)"
       x2="1" />
  </defs>
</svg>
