<?xml version="1.0" encoding="UTF-8" standalone="no"?>
<svg
   style="clip-rule:evenodd;fill-rule:evenodd;stroke-linejoin:round;stroke-miterlimit:2"
   viewBox="0 0 64 64"
   version="1.1"
   id="svg21"
   sodipodi:docname="application-x-rpm-fedora.svg"
   inkscape:version="1.1.2 (0a00cf5339, 2022-02-04)"
   xmlns:inkscape="http://www.inkscape.org/namespaces/inkscape"
   xmlns:sodipodi="http://sodipodi.sourceforge.net/DTD/sodipodi-0.dtd"
   xmlns:xlink="http://www.w3.org/1999/xlink"
   xmlns="http://www.w3.org/2000/svg"
   xmlns:svg="http://www.w3.org/2000/svg">
  <sodipodi:namedview
     id="namedview23"
     pagecolor="#ffffff"
     bordercolor="#666666"
     borderopacity="1.0"
     inkscape:pageshadow="2"
     inkscape:pageopacity="0.0"
     inkscape:pagecheckerboard="0"
     showgrid="false"
     inkscape:zoom="10.65625"
     inkscape:cx="32"
     inkscape:cy="32"
     inkscape:window-width="1896"
     inkscape:window-height="1022"
     inkscape:window-x="12"
     inkscape:window-y="46"
     inkscape:window-maximized="1"
     inkscape:current-layer="svg21" />
  <path
     id="path2"
     style="fill:url(#linearGradient4934)"
     d="M 17.617188 1.46875 C 15.597188 1.46875 13.659469 2.2712188 12.230469 3.6992188 C 10.802469 5.1282186 10 7.0678906 10 9.0878906 L 10 12.630859 L 10 54.382812 C 10 56.402814 10.802469 58.340531 12.230469 59.769531 C 13.659469 61.197531 15.597187 62 17.617188 62 L 46.382812 62 C 48.402814 62 50.340531 61.197531 51.769531 59.769531 C 53.197531 58.340531 54 56.402814 54 54.382812 L 54 12.630859 L 54 9.0878906 C 54 7.0678906 53.197531 5.1282186 51.769531 3.6992188 C 50.340531 2.2712188 48.402813 1.46875 46.382812 1.46875 L 39.4375 1.46875 L 24.5625 1.46875 L 17.617188 1.46875 z " />
  <path
     id="path914"
     style="clip-rule:evenodd;fill:#392d7f;fill-opacity:1;fill-rule:evenodd;stroke-width:1;stroke-linecap:round;stroke-linejoin:round;stroke-miterlimit:2"
     d="m 9.9999992,50.982422 v 3.40039 c 0,2.020002 0.8024678,3.957719 2.2304698,5.386719 C 13.659467,61.197531 15.597183,62 17.617187,62 h 28.765625 c 2.020002,0 3.957718,-0.802469 5.386719,-2.230469 C 53.19753,58.340531 54,56.402814 54,54.382812 v -3.40039 z" />
  <path
     d="m26.063 58.44h-0.754v-4.016h0.721v0.656h0.033c0.076-0.219 0.232-0.399 0.467-0.541 0.241-0.142 0.473-0.213 0.697-0.213s0.412 0.032 0.565 0.098l-0.287 0.705c-0.098-0.038-0.232-0.058-0.401-0.058-0.273 0-0.517 0.11-0.73 0.328-0.207 0.213-0.311 0.495-0.311 0.844v2.197z"
     style="fill-rule:nonzero;fill:#fff"
     id="path4" />
  <path
     d="m30.376 58.571c-0.306 0-0.582-0.066-0.828-0.197-0.24-0.131-0.42-0.295-0.541-0.492h-0.032l0.032 0.558v1.77h-0.754v-5.786h0.722v0.557h0.032c0.121-0.196 0.301-0.36 0.541-0.491 0.246-0.132 0.522-0.197 0.828-0.197 0.519 0 0.967 0.205 1.344 0.615 0.377 0.409 0.566 0.917 0.566 1.524 0 0.606-0.189 1.114-0.566 1.524s-0.825 0.615-1.344 0.615zm-0.123-0.689c0.35 0 0.65-0.131 0.902-0.393 0.251-0.268 0.377-0.62 0.377-1.057s-0.126-0.787-0.377-1.049c-0.252-0.268-0.552-0.402-0.902-0.402-0.355 0-0.658 0.131-0.91 0.394-0.245 0.262-0.368 0.614-0.368 1.057 0 0.442 0.123 0.795 0.368 1.057 0.252 0.262 0.555 0.393 0.91 0.393z"
     style="fill-rule:nonzero;fill:#fff"
     id="path6" />
  <path
     d="m32.928 58.44v-4.016h0.721v0.557h0.033c0.115-0.191 0.29-0.352 0.525-0.483 0.24-0.137 0.478-0.205 0.713-0.205 0.623 0 1.046 0.257 1.27 0.77 0.328-0.513 0.795-0.77 1.401-0.77 0.476 0 0.834 0.153 1.074 0.459 0.24 0.3 0.361 0.71 0.361 1.229v2.459h-0.754v-2.344c0-0.404-0.074-0.691-0.222-0.861-0.147-0.169-0.371-0.254-0.672-0.254-0.295 0-0.54 0.126-0.737 0.377-0.191 0.252-0.287 0.538-0.287 0.861v2.221h-0.754v-2.344c0-0.404-0.074-0.691-0.221-0.861-0.148-0.169-0.372-0.254-0.672-0.254-0.295 0-0.541 0.126-0.738 0.377-0.191 0.252-0.287 0.538-0.287 0.861v2.221h-0.754z"
     style="fill-rule:nonzero;fill:#fff"
     id="path8" />
  <path
     d="m 39.357,11.708864 c -4.719,0 -8.544,3.826 -8.544,8.545 v 4.531 h -4.51 c -4.719,0 -8.544,3.807 -8.544,8.525 0,4.72 3.825,8.545 8.544,8.545 4.718,0 8.544,-3.825 8.544,-8.545 v -4.549 h 4.51 c 4.718,0 8.544,-3.789 8.544,-8.507 0,-4.719 -3.826,-8.545 -8.544,-8.545 z m -8.544,21.607 c -0.003,2.486 -2.022,4.502 -4.51,4.502 -2.49,0 -4.528,-2.019 -4.528,-4.509 0,-2.492 2.038,-4.548 4.528,-4.548 h 3.873 c 0.352,0 0.637,0.284 0.637,0.636 z m 8.543,-8.534 h -3.873 c -0.352,0 -0.636,-0.284 -0.636,-0.636 v -3.899 c 0.004,-2.488 2.021,-4.503 4.509,-4.503 2.491,0 4.529,2.019 4.529,4.51 0,2.491 -2.038,4.528 -4.529,4.528 z"
     style="fill:#ffffff;fill-opacity:0.2;fill-rule:nonzero"
     id="path10" />
  <path
     d="m 29.769,24.689864 v -4.531 c 0,-4.719 3.825,-8.545 8.544,-8.545 0.716,0 1.225,0.081 1.888,0.254 0.966,0.254 1.755,1.045 1.756,1.967 0,1.114 -0.809,1.924 -2.017,1.924 -0.576,0 -0.784,-0.11 -1.627,-0.11 -2.488,0 -4.505,2.015 -4.51,4.503 v 3.898 c 0,0.352 0.285,0.637 0.637,0.637 h 2.963 c 1.104,0 1.995,0.883 1.996,1.99 0,1.107 -0.892,1.988 -1.996,1.988 h -3.6 v 4.55 c 0,4.719 -3.825,8.544 -8.543,8.544 -0.716,0 -1.225,-0.081 -1.888,-0.254 -0.966,-0.253 -1.755,-1.045 -1.756,-1.967 0,-1.113 0.808,-1.923 2.017,-1.923 0.575,0 0.784,0.11 1.627,0.11 2.487,0 4.505,-2.015 4.509,-4.502 v -3.919 c 0,-0.352 -0.285,-0.636 -0.637,-0.636 H 26.17 c -1.104,0 -1.996,-0.881 -1.996,-1.988 -0.001,-1.114 0.901,-1.991 2.017,-1.991 h 3.578 z"
     style="fill:#ffffff;fill-opacity:0.85;fill-rule:nonzero"
     id="path12" />
  <defs
     id="defs19">
    <linearGradient
       id="_Linear1"
       x2="1"
       gradientTransform="matrix(0,-49.619,49.619,0,396.55,51.088)"
       gradientUnits="userSpaceOnUse">
      <stop
         style="stop-color:#47389d"
         offset="0"
         id="stop14" />
      <stop
         style="stop-color:#20b9fa"
         offset="1"
         id="stop16" />
    </linearGradient>
    <linearGradient
       inkscape:collect="always"
       xlink:href="#_Linear1"
       id="linearGradient4934"
       gradientUnits="userSpaceOnUse"
       gradientTransform="matrix(0,-49.619,49.619,0,396.55,51.088)"
       x2="1" />
  </defs>
</svg>
