<?xml version="1.0" encoding="UTF-8" standalone="no"?>
<svg
   style="clip-rule:evenodd;fill-rule:evenodd;stroke-linejoin:round;stroke-miterlimit:2"
   viewBox="0 0 64 64"
   version="1.1"
   id="svg39"
   sodipodi:docname="application-bitwig-preset.svg"
   inkscape:version="1.1.2 (0a00cf5339, 2022-02-04)"
   xmlns:inkscape="http://www.inkscape.org/namespaces/inkscape"
   xmlns:sodipodi="http://sodipodi.sourceforge.net/DTD/sodipodi-0.dtd"
   xmlns:xlink="http://www.w3.org/1999/xlink"
   xmlns="http://www.w3.org/2000/svg"
   xmlns:svg="http://www.w3.org/2000/svg">
  <sodipodi:namedview
     id="namedview41"
     pagecolor="#ffffff"
     bordercolor="#666666"
     borderopacity="1.0"
     inkscape:pageshadow="2"
     inkscape:pageopacity="0.0"
     inkscape:pagecheckerboard="0"
     showgrid="false"
     inkscape:zoom="7.5461552"
     inkscape:cx="24.449537"
     inkscape:cy="17.293575"
     inkscape:window-width="945"
     inkscape:window-height="1026"
     inkscape:window-x="965"
     inkscape:window-y="44"
     inkscape:window-maximized="1"
     inkscape:current-layer="svg39" />
  <path
     id="path2"
     style="fill:url(#linearGradient7687)"
     d="M 17.617188 1.46875 C 15.597188 1.46875 13.659469 2.2712188 12.230469 3.6992188 C 10.802469 5.1282186 10 7.0678906 10 9.0878906 L 10 14.441406 L 10 54.382812 C 10 56.402814 10.802469 58.340531 12.230469 59.769531 C 13.659469 61.197531 15.597187 62 17.617188 62 L 46.382812 62 C 48.402814 62 50.340531 61.197531 51.769531 59.769531 C 53.197531 58.340531 54 56.402814 54 54.382812 L 54 14.441406 L 54 9.0878906 C 54 7.0678906 53.197531 5.1282186 51.769531 3.6992188 C 50.340531 2.2712188 48.402813 1.46875 46.382812 1.46875 L 39.673828 1.46875 L 24.326172 1.46875 L 17.617188 1.46875 z " />
  <circle
     cx="25.007"
     cy="26.027"
     r="2"
     style="fill:#952734;fill-opacity:1"
     id="circle4" />
  <circle
     cx="30.007"
     cy="26.027"
     r="2"
     style="fill:#952734;fill-opacity:1"
     id="circle6" />
  <circle
     cx="35.007"
     cy="26.027"
     r="2"
     style="fill:#952734;fill-opacity:1"
     id="circle8" />
  <circle
     cx="40.007"
     cy="26.027"
     r="2"
     style="fill:#952734;fill-opacity:1"
     id="circle10" />
  <circle
     cx="25.007"
     cy="31.027"
     r="2"
     style="fill:#952734;fill-opacity:1"
     id="circle12" />
  <circle
     cx="30.007"
     cy="31.027"
     r="2"
     style="fill:#952734;fill-opacity:1"
     id="circle14" />
  <circle
     cx="35.007"
     cy="31.027"
     r="2"
     style="fill:#952734;fill-opacity:1"
     id="circle16" />
  <circle
     cx="40.007"
     cy="31.027"
     r="2"
     style="fill:#952734;fill-opacity:1"
     id="circle18" />
  <circle
     cx="45.007"
     cy="31.027"
     r="2"
     style="fill:#952734;fill-opacity:1"
     id="circle20" />
  <circle
     cx="20.007"
     cy="31.027"
     r="2"
     style="fill:#952734;fill-opacity:1"
     id="circle22" />
  <circle
     cx="20.007"
     cy="36.027"
     r="2"
     style="fill:#952734;fill-opacity:1"
     id="circle24" />
  <circle
     cx="25.007"
     cy="36.027"
     r="2"
     style="fill:#952734;fill-opacity:1"
     id="circle26" />
  <circle
     cx="45.007"
     cy="36.027"
     r="2"
     style="fill:#952734;fill-opacity:1"
     id="circle28" />
  <circle
     cx="40.007"
     cy="36.027"
     r="2"
     style="fill:#952734;fill-opacity:1"
     id="circle30" />
  <defs
     id="defs37">
    <linearGradient
       id="_Linear1"
       x2="1"
       gradientTransform="matrix(0,-49.619,49.619,0,615.22,51.088)"
       gradientUnits="userSpaceOnUse">
      <stop
         style="stop-color:#e32037"
         offset="0"
         id="stop32" />
      <stop
         style="stop-color:#ff6565"
         offset="1"
         id="stop34" />
    </linearGradient>
    <linearGradient
       inkscape:collect="always"
       xlink:href="#_Linear1"
       id="linearGradient7687"
       gradientUnits="userSpaceOnUse"
       gradientTransform="matrix(0,-49.619,49.619,0,615.22,51.088)"
       x2="1" />
  </defs>
  <path
     id="path2-3"
     style="clip-rule:evenodd;fill:#952734;fill-opacity:1;fill-rule:evenodd;stroke-linejoin:round;stroke-miterlimit:2"
     d="m 9.9999996,50.982422 v 3.398437 0.002 c 6.54e-5,0.251841 0.01244,0.501552 0.03711,0.75 v 0.002 c 0.02473,0.248442 0.06268,0.494885 0.111329,0.738281 v 0.002 c 0.04871,0.243391 0.109702,0.484016 0.18164,0.720703 v 0.002 c 0.072,0.236684 0.155456,0.468944 0.25,0.697266 v 0.002 c 0.09461,0.228323 0.199937,0.453573 0.316406,0.671875 v 0.002 c 0.116532,0.218305 0.245101,0.430096 0.382813,0.636719 v 0.002 c 0.137776,0.206628 0.287038,0.406326 0.445312,0.599609 v 0.002 c 0.158341,0.193289 0.327703,0.378358 0.50586,0.55664 v 0.002 c 0.7145,0.714 1.557101,1.271274 2.472656,1.650391 C 15.618679,61.799106 16.607187,62 17.617188,62 h 28.765624 c 1.010002,0 1.998509,-0.200473 2.914063,-0.580078 0.915555,-0.379117 1.758156,-0.936391 2.472656,-1.650391 v -0.002 C 53.197531,58.338626 54,56.400859 54,54.380859 v -3.398437 z" />
  <text
     xml:space="preserve"
     style="font-size:5.46667px;line-height:1.25;font-family:sans-serif;letter-spacing:0px;fill:#ffffff;stroke-width:0.133838"
     x="31.978645"
     y="57.977997"
     id="text5891"><tspan
       sodipodi:role="line"
       id="tspan5889"
       x="31.978645"
       y="57.977997"
       style="font-style:normal;font-variant:normal;font-weight:bold;font-stretch:normal;font-size:5.46667px;font-family:sans-serif;-inkscape-font-specification:'sans-serif Bold';text-align:center;text-anchor:middle;fill:#ffffff;stroke-width:0.133838">Bitwig</tspan></text>
</svg>
