<?xml version="1.0" encoding="UTF-8" standalone="no"?>
<svg
   style="clip-rule:evenodd;fill-rule:evenodd;stroke-linejoin:round;stroke-miterlimit:2"
   viewBox="0 0 64 64"
   version="1.1"
   id="svg15"
   sodipodi:docname="text-x-typescript.svg"
   inkscape:version="1.1.2 (0a00cf5339, 2022-02-04)"
   xmlns:inkscape="http://www.inkscape.org/namespaces/inkscape"
   xmlns:sodipodi="http://sodipodi.sourceforge.net/DTD/sodipodi-0.dtd"
   xmlns:xlink="http://www.w3.org/1999/xlink"
   xmlns="http://www.w3.org/2000/svg"
   xmlns:svg="http://www.w3.org/2000/svg">
  <sodipodi:namedview
     id="namedview17"
     pagecolor="#ffffff"
     bordercolor="#666666"
     borderopacity="1.0"
     inkscape:pageshadow="2"
     inkscape:pageopacity="0.0"
     inkscape:pagecheckerboard="0"
     showgrid="false"
     inkscape:zoom="10.65625"
     inkscape:cx="32"
     inkscape:cy="32"
     inkscape:window-width="1896"
     inkscape:window-height="1022"
     inkscape:window-x="12"
     inkscape:window-y="46"
     inkscape:window-maximized="1"
     inkscape:current-layer="svg15" />
  <path
     id="path2"
     style="fill:url(#linearGradient4814)"
     d="M 17.617188 1.46875 C 15.597188 1.46875 13.659469 2.2712188 12.230469 3.6992188 C 10.802469 5.1282186 10 7.0678906 10 9.0878906 L 10 13.371094 L 10 54.382812 C 10 56.402814 10.802469 58.340531 12.230469 59.769531 C 13.659469 61.197531 15.597187 62 17.617188 62 L 46.382812 62 C 48.402814 62 50.340531 61.197531 51.769531 59.769531 C 53.197531 58.340531 54 56.402814 54 54.382812 L 54 13.371094 L 54 9.0878906 C 54 7.0678906 53.197531 5.1282186 51.769531 3.6992188 C 50.340531 2.2712188 48.402813 1.46875 46.382812 1.46875 L 34.466797 1.46875 L 29.533203 1.46875 L 17.617188 1.46875 z " />
  <path
     id="path2-3-3"
     style="clip-rule:evenodd;fill:#1e4046;fill-opacity:1;fill-rule:evenodd;stroke-linecap:round;stroke-linejoin:round;stroke-miterlimit:2"
     d="m 10.000002,50.982422 v 3.398437 0.002 c 6.5e-5,0.251841 0.01244,0.501552 0.03711,0.75 v 0.002 c 0.02473,0.248442 0.06268,0.494885 0.111329,0.738281 v 0.002 c 0.04871,0.243391 0.109702,0.484016 0.18164,0.720703 v 0.002 c 0.072,0.236684 0.155456,0.468944 0.25,0.697266 v 0.002 c 0.09461,0.228323 0.199936,0.453573 0.316406,0.671875 v 0.002 c 0.116531,0.218305 0.245101,0.430096 0.382813,0.636719 v 0.002 c 0.137776,0.206628 0.287038,0.406326 0.445312,0.599609 v 0.002 c 0.158341,0.193289 0.327702,0.378358 0.50586,0.55664 v 0.002 c 0.714499,0.714 1.5571,1.271274 2.472656,1.650391 C 15.618681,61.799106 16.607188,62 17.617187,62 h 28.765625 c 1.010002,0 1.998508,-0.200473 2.914063,-0.580078 0.915554,-0.379117 1.758155,-0.936391 2.472656,-1.650391 v -0.002 C 53.19753,58.338626 54,56.400859 54,54.380859 v -3.398437 z" />
  <path
     d="m17.582 60.16l-0.088-0.552c0.171 0.043 0.307 0.064 0.408 0.064 0.15 0 0.28-0.043 0.392-0.128s0.192-0.189 0.24-0.312c0.155-0.405 0.238-0.627 0.248-0.664l-1.568-4.144h0.744l0.872 2.392c0.123 0.336 0.222 0.659 0.296 0.968 0.107-0.389 0.206-0.704 0.296-0.944l0.88-2.416h0.712l-1.584 4.216c-0.069 0.187-0.112 0.301-0.128 0.344s-0.058 0.144-0.128 0.304c-0.069 0.165-0.122 0.272-0.16 0.32-0.037 0.053-0.096 0.133-0.176 0.24-0.08 0.112-0.154 0.187-0.224 0.224-0.069 0.043-0.154 0.083-0.256 0.12-0.101 0.037-0.208 0.056-0.32 0.056-0.16 0-0.312-0.029-0.456-0.088zm26.033 0h-0.712v-5.736h0.712v0.536c0.23-0.421 0.606-0.632 1.128-0.632 0.56 0 0.992 0.195 1.296 0.584s0.456 0.904 0.456 1.544c0 0.635-0.162 1.163-0.488 1.584-0.32 0.416-0.757 0.624-1.312 0.624-0.442 0-0.802-0.176-1.08-0.528v2.024zm-21.312 0h-0.712v-5.736h0.712v0.536c0.229-0.421 0.605-0.632 1.128-0.632 0.56 0 0.992 0.195 1.296 0.584s0.456 0.904 0.456 1.544c0 0.635-0.163 1.163-0.488 1.584-0.32 0.416-0.758 0.624-1.312 0.624-0.443 0-0.803-0.176-1.08-0.528v2.024zm4.229-3.496c0.027 0.432 0.147 0.779 0.36 1.04 0.219 0.256 0.52 0.384 0.904 0.384 0.512 0 0.877-0.285 1.096-0.856l0.72 0.088c-0.245 0.896-0.853 1.344-1.824 1.344-0.624 0-1.109-0.187-1.456-0.56s-0.52-0.901-0.52-1.584c0-0.667 0.168-1.197 0.504-1.592 0.341-0.4 0.819-0.6 1.432-0.6 0.555 0 0.995 0.168 1.32 0.504 0.325 0.331 0.509 0.787 0.552 1.368v0.464h-3.088zm5.389 0.128c-0.267-0.064-0.477-0.123-0.632-0.176s-0.315-0.128-0.48-0.224-0.285-0.216-0.36-0.36-0.112-0.317-0.112-0.52c0-0.133 0.021-0.261 0.064-0.384 0.048-0.128 0.125-0.253 0.232-0.376 0.107-0.128 0.264-0.229 0.472-0.304 0.213-0.08 0.464-0.12 0.752-0.12 0.299 0 0.555 0.032 0.768 0.096 0.213 0.059 0.379 0.147 0.496 0.264s0.205 0.237 0.264 0.36 0.101 0.269 0.128 0.44l-0.696 0.088c-0.064-0.448-0.368-0.672-0.912-0.672-0.571 0-0.856 0.179-0.856 0.536 0 0.16 0.061 0.277 0.184 0.352s0.352 0.157 0.688 0.248c0.048 0.011 0.136 0.035 0.264 0.072 0.133 0.032 0.221 0.056 0.264 0.072 0.048 0.011 0.128 0.035 0.24 0.072 0.112 0.032 0.189 0.059 0.232 0.08 0.048 0.021 0.115 0.053 0.2 0.096 0.091 0.043 0.155 0.083 0.192 0.12s0.083 0.085 0.136 0.144 0.091 0.12 0.112 0.184c0.027 0.059 0.048 0.128 0.064 0.208 0.021 0.08 0.032 0.165 0.032 0.256 0 0.251-0.059 0.467-0.176 0.648-0.112 0.181-0.259 0.32-0.44 0.416-0.176 0.091-0.352 0.155-0.528 0.192-0.176 0.043-0.349 0.064-0.52 0.064-1.024 0-1.616-0.445-1.776-1.336l0.696-0.112c0.075 0.581 0.435 0.872 1.08 0.872 0.635 0 0.952-0.221 0.952-0.664 0-0.048-5e-3 -0.091-0.016-0.128-5e-3 -0.043-0.021-0.08-0.048-0.112s-0.051-0.059-0.072-0.08c-0.021-0.027-0.056-0.051-0.104-0.072-0.048-0.027-0.088-0.045-0.12-0.056-0.027-0.016-0.075-0.032-0.144-0.048-0.069-0.021-0.123-0.037-0.16-0.048-0.032-0.011-0.091-0.024-0.176-0.04-0.085-0.021-0.147-0.037-0.184-0.048zm2.336-0.288c0-0.416 0.059-0.773 0.176-1.072 0.118-0.299 0.272-0.523 0.464-0.672 0.198-0.155 0.4-0.264 0.608-0.328 0.208-0.069 0.427-0.104 0.656-0.104 0.928 0 1.48 0.437 1.656 1.312l-0.688 0.104c-0.122-0.56-0.437-0.84-0.944-0.84-0.81 0-1.216 0.531-1.216 1.592s0.392 1.592 1.176 1.592c0.592 0 0.942-0.347 1.048-1.04l0.68 0.088c-0.074 0.464-0.261 0.835-0.56 1.112-0.293 0.277-0.677 0.416-1.152 0.416-0.602 0-1.072-0.195-1.408-0.584-0.33-0.395-0.496-0.92-0.496-1.576zm-18.029-2.08h0.696v0.536h-0.696v2.432c0 0.229 0.026 0.395 0.08 0.496 0.058 0.101 0.16 0.152 0.304 0.152 0.032 0 0.082-3e-3 0.152-8e-3 0.074-0.011 0.128-0.016 0.16-0.016l0.104 0.552c-0.166 0.032-0.344 0.048-0.536 0.048-0.219 0-0.398-0.024-0.536-0.072-0.134-0.053-0.232-0.141-0.296-0.264-0.059-0.123-0.099-0.248-0.12-0.376-0.016-0.133-0.024-0.317-0.024-0.552v-2.392h-0.512v-0.536h0.512v-1.032l0.712-0.424v1.456zm31.968 0h0.696v0.536h-0.696v2.432c0 0.229 0.027 0.395 0.08 0.496 0.059 0.101 0.16 0.152 0.304 0.152 0.032 0 0.083-3e-3 0.152-8e-3 0.075-0.011 0.128-0.016 0.16-0.016l0.104 0.552c-0.165 0.032-0.344 0.048-0.536 0.048-0.218 0-0.397-0.024-0.536-0.072-0.133-0.053-0.232-0.141-0.296-0.264-0.058-0.123-0.098-0.248-0.12-0.376-0.016-0.133-0.024-0.317-0.024-0.552v-2.392h-0.512v-0.536h0.512v-1.032l0.712-0.424v1.456zm-6.362 4.144h-0.712v-4.144h0.712v4.144zm-3.384 0v-4.144h0.712v0.624c0.197-0.48 0.472-0.72 0.824-0.72 0.24 0 0.48 0.072 0.72 0.216l-0.232 0.52c-0.16-0.107-0.331-0.16-0.512-0.16-0.235 0-0.427 0.125-0.576 0.376-0.15 0.251-0.224 0.624-0.224 1.12v2.168h-0.712zm-15.083-3.664c-0.336 0-0.598 0.147-0.784 0.44-0.187 0.288-0.28 0.68-0.28 1.176 0 1.045 0.346 1.568 1.04 1.568 0.368 0 0.648-0.149 0.84-0.448s0.288-0.693 0.288-1.184c0-0.464-0.096-0.837-0.288-1.12-0.187-0.288-0.459-0.432-0.816-0.432zm21.312 0c-0.336 0-0.597 0.147-0.784 0.44-0.186 0.288-0.28 0.68-0.28 1.176 0 1.045 0.347 1.568 1.04 1.568 0.368 0 0.648-0.149 0.84-0.448s0.288-0.693 0.288-1.184c0-0.464-0.096-0.837-0.288-1.12-0.186-0.288-0.458-0.432-0.816-0.432zm-18.107 1.184h2.32c-0.064-0.789-0.44-1.184-1.128-1.184-0.347 0-0.627 0.112-0.84 0.336-0.208 0.219-0.325 0.501-0.352 0.848zm15.262-2.44h-0.712v-0.808h0.712v0.808z"
     style="fill-rule:nonzero;fill:#fff"
     id="path4" />
  <path
     d="m37.828 29.303c-1.577-0.454-2.726-1.009-3.448-1.667-0.715-0.664-1.073-1.481-1.073-2.452 0-1.098 0.438-2.005 1.313-2.72 0.881-0.721 2.024-1.082 3.428-1.082 0.958 0 1.811 0.185 2.558 0.555 0.753 0.371 1.334 0.881 1.743 1.533 0.415 0.651 0.622 1.363 0.622 2.136h-1.848c0-0.843-0.268-1.504-0.805-1.983-0.536-0.485-1.293-0.728-2.27-0.728-0.906 0-1.615 0.201-2.126 0.603-0.504 0.396-0.757 0.949-0.757 1.657 0 0.569 0.24 1.051 0.719 1.447 0.485 0.389 1.306 0.747 2.461 1.072 1.162 0.326 2.069 0.687 2.72 1.083 0.658 0.389 1.143 0.846 1.456 1.369 0.319 0.524 0.479 1.14 0.479 1.849 0 1.13-0.441 2.037-1.322 2.72-0.881 0.677-2.059 1.015-3.534 1.015-0.958 0-1.852-0.182-2.682-0.546-0.83-0.37-1.471-0.875-1.925-1.513-0.447-0.639-0.67-1.363-0.67-2.174h1.848c0 0.843 0.31 1.51 0.929 2.001 0.626 0.486 1.459 0.728 2.5 0.728 0.971 0 1.715-0.198 2.232-0.593 0.517-0.396 0.776-0.936 0.776-1.619s-0.24-1.21-0.719-1.58c-0.479-0.377-1.347-0.748-2.605-1.111zm-6.043-6.216h-4.483v12.431h-1.829v-12.431h-4.473v-1.514h10.785v1.514z"
     style="fill-opacity:.58;fill-rule:nonzero"
     id="path6" />
  <defs
     id="defs13">
    <linearGradient
       id="_Linear1"
       x2="1"
       gradientTransform="matrix(0,-49.619,49.619,0,469.44,51.088)"
       gradientUnits="userSpaceOnUse">
      <stop
         style="stop-color:#348692"
         offset="0"
         id="stop8" />
      <stop
         style="stop-color:#69b9cd"
         offset="1"
         id="stop10" />
    </linearGradient>
    <linearGradient
       inkscape:collect="always"
       xlink:href="#_Linear1"
       id="linearGradient4814"
       gradientUnits="userSpaceOnUse"
       gradientTransform="matrix(0,-49.619,49.619,0,469.44,51.088)"
       x2="1" />
  </defs>
</svg>
