<?xml version="1.0" encoding="UTF-8" standalone="no"?>
<svg
   clip-rule="evenodd"
   fill-rule="evenodd"
   stroke-linejoin="round"
   stroke-miterlimit="2"
   viewBox="0 0 64 64"
   version="1.1"
   id="svg11"
   sodipodi:docname="application-vnd.wolfram.nb.svg"
   inkscape:version="1.1.2 (0a00cf5339, 2022-02-04)"
   xmlns:inkscape="http://www.inkscape.org/namespaces/inkscape"
   xmlns:sodipodi="http://sodipodi.sourceforge.net/DTD/sodipodi-0.dtd"
   xmlns:xlink="http://www.w3.org/1999/xlink"
   xmlns="http://www.w3.org/2000/svg"
   xmlns:svg="http://www.w3.org/2000/svg">
  <defs
     id="defs15">
    <linearGradient
       inkscape:collect="always"
       xlink:href="#a"
       id="linearGradient949"
       gradientUnits="userSpaceOnUse"
       gradientTransform="matrix(0,-49.619,49.619,0,688.11,51.088)"
       x2="1" />
  </defs>
  <sodipodi:namedview
     id="namedview13"
     pagecolor="#ffffff"
     bordercolor="#666666"
     borderopacity="1.0"
     inkscape:pageshadow="2"
     inkscape:pageopacity="0.0"
     inkscape:pagecheckerboard="0"
     showgrid="false"
     inkscape:zoom="10.671875"
     inkscape:cx="33.686676"
     inkscape:cy="32.937042"
     inkscape:window-width="945"
     inkscape:window-height="1026"
     inkscape:window-x="965"
     inkscape:window-y="44"
     inkscape:window-maximized="1"
     inkscape:current-layer="svg11" />
  <linearGradient
     id="a"
     x2="1"
     gradientTransform="matrix(0,-49.619,49.619,0,688.11,51.088)"
     gradientUnits="userSpaceOnUse">
    <stop
       stop-color="#bdbdbd"
       offset="0"
       id="stop2" />
    <stop
       stop-color="#f2f2f2"
       offset="1"
       id="stop4" />
  </linearGradient>
  <path
     id="path7"
     style="fill:url(#linearGradient949)"
     d="M 17.617188 1.46875 C 15.597188 1.46875 13.659469 2.2712188 12.230469 3.6992188 C 10.802469 5.1282186 10 7.0678906 10 9.0878906 L 10 12.873047 L 10 54.382812 C 10 56.402814 10.802469 58.340531 12.230469 59.769531 C 13.659469 61.197531 15.597187 62 17.617188 62 L 46.382812 62 C 48.402814 62 50.340531 61.197531 51.769531 59.769531 C 53.197531 58.340531 54 56.402814 54 54.382812 L 54 12.873047 L 54 9.0878906 C 54 7.0678906 53.197531 5.1282186 51.769531 3.6992188 C 50.340531 2.2712188 48.402813 1.46875 46.382812 1.46875 L 37.529297 1.46875 L 26.470703 1.46875 L 17.617188 1.46875 z " />
  <path
     d="m 22.727,16.222365 c 0,0 1.724,5.556 0.671,9.119 -1.052,3.562 -6.398,7.574 -6.398,7.574 0,0 6.989,0.38 9.643,2.076 2.653,1.696 5.351,8.231 5.351,8.231 0,0 3.583,-7.2 5.082,-8.231 1.499,-1.03 9.924,-2.086 9.924,-2.086 0,0 -6.16,-5.797 -6.684,-7.414 -0.523,-1.617 0.959,-9.265 0.959,-9.265 0,0 -5.544,3.746 -9.437,3.746 -3.893,0 -9.111,-3.75 -9.111,-3.75 z m 13.519,6.996 c -0.086,1.034 -0.295,1.771 0.266,3.504 0.623,1.924 1.259,2.298 2.013,3.191 0.092,0.109 0.206,0.217 0.301,0.326 -0.168,0.039 -0.35,0.064 -0.514,0.104 -1.153,0.281 -1.948,0.283 -3.501,1.351 -1.554,1.068 -1.847,1.835 -2.489,2.797 -0.082,0.124 -0.154,0.264 -0.236,0.391 -0.799,-1.167 -1.788,-2.303 -3.289,-3.262 -1.158,-0.74 -2.308,-1.149 -3.44,-1.467 0.753,-1.051 1.447,-2.222 1.877,-3.679 0.335,-1.133 0.38,-2.19 0.42,-3.233 1.262,0.417 2.64,0.731 4.184,0.731 1.618,0 3.083,-0.311 4.408,-0.754 z"
     fill="#a7695f"
     id="path9" />
  <path
     id="path914"
     style="clip-rule:evenodd;fill:#a7695f;fill-opacity:1;fill-rule:evenodd;stroke-width:1;stroke-linejoin:round;stroke-miterlimit:2"
     d="m 10,50.982422 v 3.40039 c 0,2.020002 0.802469,3.957719 2.230469,5.386719 1.429,1.428 3.366717,2.230469 5.386719,2.230469 h 28.765624 c 2.020002,0 3.957719,-0.802469 5.386719,-2.230469 C 53.197531,58.340531 54,56.402814 54,54.382812 v -3.40039 z" />
</svg>
