<?xml version="1.0" encoding="UTF-8" standalone="no"?>
<svg
   clip-rule="evenodd"
   fill-rule="evenodd"
   stroke-linejoin="round"
   stroke-miterlimit="2"
   viewBox="0 0 64 64"
   version="1.1"
   id="svg21"
   sodipodi:docname="application-image-avif.svg"
   inkscape:version="1.1.2 (0a00cf5339, 2022-02-04)"
   xmlns:inkscape="http://www.inkscape.org/namespaces/inkscape"
   xmlns:sodipodi="http://sodipodi.sourceforge.net/DTD/sodipodi-0.dtd"
   xmlns:xlink="http://www.w3.org/1999/xlink"
   xmlns="http://www.w3.org/2000/svg"
   xmlns:svg="http://www.w3.org/2000/svg">
  <defs
     id="defs25">
    <linearGradient
       inkscape:collect="always"
       xlink:href="#a"
       id="linearGradient3975"
       gradientUnits="userSpaceOnUse"
       gradientTransform="matrix(0,-49.619,49.619,0,396.55,51.088)"
       x2="1" />
  </defs>
  <sodipodi:namedview
     id="namedview23"
     pagecolor="#ffffff"
     bordercolor="#666666"
     borderopacity="1.0"
     inkscape:pageshadow="2"
     inkscape:pageopacity="0.0"
     inkscape:pagecheckerboard="0"
     showgrid="false"
     inkscape:zoom="10.671875"
     inkscape:cx="35.560761"
     inkscape:cy="32"
     inkscape:window-width="945"
     inkscape:window-height="1026"
     inkscape:window-x="965"
     inkscape:window-y="44"
     inkscape:window-maximized="1"
     inkscape:current-layer="svg21" />
  <linearGradient
     id="a"
     x2="1"
     gradientTransform="matrix(0,-49.619,49.619,0,396.55,51.088)"
     gradientUnits="userSpaceOnUse">
    <stop
       stop-color="#005d77"
       offset="0"
       id="stop2" />
    <stop
       stop-color="#0294a7"
       offset="1"
       id="stop4" />
  </linearGradient>
  <path
     id="path7"
     style="fill:url(#linearGradient3975)"
     d="M 17.617188 1.46875 C 15.597188 1.46875 13.659469 2.2712188 12.230469 3.6992188 C 10.802469 5.1282186 10 7.0678906 10 9.0878906 L 10 12.65625 L 10 54.382812 C 10 56.402814 10.802469 58.340531 12.230469 59.769531 C 13.659469 61.197531 15.597187 62 17.617188 62 L 46.382812 62 C 48.402814 62 50.340531 61.197531 51.769531 59.769531 C 53.197531 58.340531 54 56.402814 54 54.382812 L 54 12.65625 L 54 9.0878906 C 54 7.0678906 53.197531 5.1282186 51.769531 3.6992188 C 50.340531 2.2712188 48.402813 1.46875 46.382812 1.46875 L 41.345703 1.46875 L 22.654297 1.46875 L 17.617188 1.46875 z " />
  <path
     id="path914"
     style="clip-rule:evenodd;fill:#00363f;fill-opacity:1;fill-rule:evenodd;stroke-width:1;stroke-linejoin:round;stroke-miterlimit:2"
     d="m 9.9999999,50.982422 v 3.40039 c 0,2.020002 0.8024691,3.957719 2.2304691,5.386719 1.429,1.428 3.366717,2.230469 5.386719,2.230469 h 28.765624 c 2.020002,0 3.957719,-0.802469 5.386719,-2.230469 C 53.197531,58.340531 54,56.402814 54,54.382812 v -3.40039 z" />
  <path
     d="M 23.957,19 C 23.427,19 23,19.465 23,20.043 V 35.955 C 23,36.534 23.427,37 23.957,37 H 40.043 C 40.573,37 41,36.534 41,35.955 V 20.043 C 41,19.465 40.573,19 40.043,19 Z M 34.139,25.432 38,30.568 H 26 l 3,-3.849 2.139,2.574 z"
     fill="#00363f"
     id="path9"
     style="fill-rule:nonzero" />
  <g
     id="g3864"
     transform="translate(0,3.277211)">
    <path
       d="m 28.312,55.865 c -0.293,0.25 -0.576,0.426 -0.847,0.529 -0.272,0.102 -0.563,0.154 -0.874,0.154 -0.513,0 -0.908,-0.126 -1.184,-0.377 -0.275,-0.251 -0.413,-0.571 -0.413,-0.961 0,-0.229 0.052,-0.438 0.156,-0.627 0.104,-0.19 0.24,-0.341 0.409,-0.456 0.169,-0.114 0.359,-0.201 0.57,-0.26 0.156,-0.041 0.39,-0.08 0.704,-0.118 0.64,-0.077 1.111,-0.168 1.413,-0.273 0.003,-0.109 0.004,-0.178 0.004,-0.207 0,-0.323 -0.074,-0.55 -0.224,-0.682 -0.203,-0.179 -0.503,-0.269 -0.902,-0.269 -0.373,0 -0.648,0.066 -0.825,0.196 -0.178,0.131 -0.309,0.362 -0.394,0.693 L 25.13,53.102 c 0.071,-0.332 0.186,-0.6 0.348,-0.803 0.161,-0.204 0.394,-0.361 0.7,-0.471 0.305,-0.11 0.658,-0.165 1.06,-0.165 0.399,0 0.723,0.047 0.973,0.14 0.249,0.094 0.432,0.212 0.55,0.355 0.117,0.142 0.199,0.322 0.246,0.539 0.027,0.135 0.04,0.378 0.04,0.73 v 1.057 c 0,0.736 0.017,1.202 0.05,1.397 0.034,0.195 0.101,0.382 0.201,0.561 H 28.47 c -0.082,-0.164 -0.135,-0.356 -0.158,-0.577 z m -0.066,-1.769 c -0.288,0.118 -0.719,0.217 -1.294,0.3 -0.326,0.047 -0.556,0.099 -0.691,0.158 -0.135,0.059 -0.239,0.145 -0.312,0.257 -0.074,0.113 -0.11,0.239 -0.11,0.377 0,0.211 0.08,0.387 0.239,0.528 0.16,0.141 0.394,0.211 0.702,0.211 0.306,0 0.577,-0.067 0.815,-0.2 0.237,-0.134 0.412,-0.316 0.523,-0.548 0.085,-0.179 0.128,-0.443 0.128,-0.792 z"
       fill="#ffffff"
       id="path11"
       style="fill-rule:nonzero" />
    <path
       d="m 31.573,56.442 -1.778,-4.674 h 0.836 l 1.004,2.799 c 0.108,0.302 0.208,0.616 0.299,0.942 0.07,-0.246 0.169,-0.543 0.295,-0.889 l 1.038,-2.852 h 0.814 l -1.769,4.674 z"
       fill="#ffffff"
       id="path13"
       style="fill-rule:nonzero" />
    <path
       d="M 34.786,50.901 V 49.99 h 0.792 v 0.911 z m 0,5.541 v -4.674 h 0.792 v 4.674 z"
       fill="#ffffff"
       id="path15"
       style="fill-rule:nonzero" />
    <path
       d="m 36.973,56.442 v -4.058 h -0.7 v -0.616 h 0.7 v -0.497 c 0,-0.314 0.028,-0.547 0.083,-0.7 0.077,-0.205 0.211,-0.372 0.403,-0.499 0.192,-0.128 0.462,-0.192 0.808,-0.192 0.223,0 0.469,0.027 0.739,0.08 l -0.119,0.69 c -0.164,-0.029 -0.32,-0.044 -0.466,-0.044 -0.241,0 -0.411,0.052 -0.511,0.154 -0.1,0.103 -0.149,0.295 -0.149,0.577 v 0.431 h 0.911 v 0.616 h -0.911 v 4.058 z"
       fill="#ffffff"
       id="path17"
       style="fill-rule:nonzero" />
  </g>
</svg>
