<?xml version="1.0" encoding="UTF-8" standalone="no"?>
<svg
   clip-rule="evenodd"
   fill-rule="evenodd"
   stroke-linejoin="round"
   stroke-miterlimit="2"
   viewBox="0 0 64 64"
   version="1.1"
   id="svg19"
   sodipodi:docname="application-x-deb-debian.svg"
   inkscape:version="1.1.2 (0a00cf5339, 2022-02-04)"
   xmlns:inkscape="http://www.inkscape.org/namespaces/inkscape"
   xmlns:sodipodi="http://sodipodi.sourceforge.net/DTD/sodipodi-0.dtd"
   xmlns:xlink="http://www.w3.org/1999/xlink"
   xmlns="http://www.w3.org/2000/svg"
   xmlns:svg="http://www.w3.org/2000/svg">
  <defs
     id="defs23">
    <linearGradient
       inkscape:collect="always"
       xlink:href="#a"
       id="linearGradient5990"
       gradientUnits="userSpaceOnUse"
       gradientTransform="matrix(0,-49.619,49.619,0,177.88,51.088)"
       x2="1" />
  </defs>
  <sodipodi:namedview
     id="namedview21"
     pagecolor="#ffffff"
     bordercolor="#666666"
     borderopacity="1.0"
     inkscape:pageshadow="2"
     inkscape:pageopacity="0.0"
     inkscape:pagecheckerboard="0"
     showgrid="false"
     inkscape:zoom="10.65625"
     inkscape:cx="32"
     inkscape:cy="32"
     inkscape:window-width="1896"
     inkscape:window-height="1022"
     inkscape:window-x="12"
     inkscape:window-y="46"
     inkscape:window-maximized="1"
     inkscape:current-layer="svg19" />
  <linearGradient
     id="a"
     x2="1"
     gradientTransform="matrix(0,-49.619,49.619,0,177.88,51.088)"
     gradientUnits="userSpaceOnUse">
    <stop
       stop-color="#971c3c"
       offset="0"
       id="stop2" />
    <stop
       stop-color="#b7566f"
       offset="1"
       id="stop4" />
  </linearGradient>
  <path
     id="path7"
     style="fill:url(#linearGradient5990)"
     d="M 17.617188 1.46875 C 15.597188 1.46875 13.659469 2.2712188 12.230469 3.6992188 C 10.802469 5.1282186 10 7.0678906 10 9.0878906 L 10 11.861328 L 10 54.382812 C 10 56.402814 10.802469 58.340531 12.230469 59.769531 C 13.659469 61.197531 15.597187 62 17.617188 62 L 46.382812 62 C 48.402814 62 50.340531 61.197531 51.769531 59.769531 C 53.197531 58.340531 54 56.402814 54 54.382812 L 54 11.861328 L 54 9.0878906 C 54 7.0678906 53.197531 5.1282186 51.769531 3.6992188 C 50.340531 2.2712188 48.402813 1.46875 46.382812 1.46875 L 37.337891 1.46875 L 26.662109 1.46875 L 17.617188 1.46875 z " />
  <path
     id="path2-3"
     style="clip-rule:evenodd;fill:#581e2c;fill-opacity:1;fill-rule:evenodd;stroke-linejoin:round;stroke-miterlimit:2"
     d="m 10,50.982422 v 3.398437 0.002 c 6.5e-5,0.251841 0.01244,0.501552 0.03711,0.75 v 0.002 c 0.02473,0.248442 0.06268,0.494885 0.111329,0.738281 v 0.002 c 0.04871,0.243391 0.109702,0.484016 0.18164,0.720703 v 0.002 c 0.072,0.236684 0.155456,0.468944 0.25,0.697266 v 0.002 c 0.09461,0.228323 0.199937,0.453573 0.316406,0.671875 v 0.002 c 0.116532,0.218305 0.245101,0.430096 0.382814,0.636719 v 0.002 c 0.137775,0.206628 0.287037,0.406326 0.445311,0.599609 v 0.002 c 0.158341,0.193289 0.327703,0.378358 0.505861,0.55664 v 0.002 c 0.714499,0.714 1.5571,1.271274 2.472656,1.650391 C 15.618679,61.799106 16.607187,62 17.617188,62 h 28.765624 c 1.010002,0 1.998509,-0.200473 2.914063,-0.580078 0.915555,-0.379117 1.758156,-0.936391 2.472656,-1.650391 v -0.002 C 53.197531,58.338626 54,56.400859 54,54.380859 v -3.398437 z" />
  <g
     fill-rule="nonzero"
     id="g17">
    <path
       d="m27.39 59.371c-.519 0-.968-.205-1.345-.615-.377-.409-.565-.918-.565-1.524s.188-1.115.565-1.524c.377-.41.826-.615 1.345-.615.306 0 .579.066.819.197.246.131.429.295.549.491h.033l-.033-.557v-1.852h.754v5.868h-.721v-.557h-.033c-.12.196-.303.36-.549.491-.24.131-.513.197-.819.197zm.122-.688c.356 0 .656-.132.902-.394.251-.262.377-.614.377-1.057s-.126-.795-.377-1.057c-.246-.262-.546-.394-.902-.394-.349 0-.65.134-.901.402-.251.262-.377.612-.377 1.049s.126.789.377 1.057c.251.262.552.394.901.394z"
       fill="#fff"
       id="path9" />
    <path
       d="m32.203 59.371c-.607 0-1.101-.202-1.484-.606-.377-.405-.565-.916-.565-1.533 0-.585.183-1.087.549-1.508.372-.421.844-.631 1.418-.631.595 0 1.071.194 1.426.582.361.388.541.907.541 1.557l-.008.139h-3.172c.022.405.156.724.402.959.251.235.543.353.876.353.541 0 .907-.23 1.099-.689l.672.279c-.131.311-.347.573-.648.787-.3.207-.669.311-1.106.311zm1.082-2.623c-.017-.229-.123-.448-.32-.655-.191-.208-.478-.312-.86-.312-.279 0-.522.088-.73.263-.202.174-.341.409-.418.704z"
       fill="#fff"
       id="path11" />
    <path
       d="m36.892 59.371c-.306 0-.582-.066-.828-.197-.24-.131-.42-.295-.541-.491h-.032v.557h-.722v-5.868h.754v1.852l-.032.557h.032c.121-.196.301-.36.541-.491.246-.131.522-.197.828-.197.519 0 .967.205 1.344.615.377.409.566.918.566 1.524s-.189 1.115-.566 1.524c-.377.41-.825.615-1.344.615zm-.123-.688c.35 0 .65-.132.902-.394.251-.268.377-.62.377-1.057s-.126-.787-.377-1.049c-.252-.268-.552-.402-.902-.402-.355 0-.658.132-.91.394-.246.262-.368.614-.368 1.057s.122.795.368 1.057c.252.262.555.394.91.394z"
       fill="#fff"
       id="path13" />
    <path
       d="m33.445 38c-3.358-1.208-5.353-2.691-7.541-6.001-.536-.911-1.523-2.946-1.486-5.602-.087-2.648 1.251-5.699 3.748-7.327 2.411-1.719 5.523-1.744 7.375-1.066 1.909.709 2.684 1.89 2.706 1.834-.059.015 1.023.924 1.505 2.904.537 1.904-.009 5.059-2.634 6.35-1.207.648-2.775.765-4.005.302-1.23-.496-2.122-1.585-2.42-2.723-.648-2.512 1.258-3.904 2.099-4.047 3.421-1.14 5.153 4.213 1.152 4.668 1.824.609 3.704-1.263 3.346-3.169-.072-1.906-2.38-3.799-4.926-3.023-.665.183-1.671.65-2.459 1.699-.808 1.044-1.175 2.679-.755 4.268.409 1.598 1.655 3.127 3.389 3.815 1.752.646 3.703.461 5.314-.377 3.439-1.701 4.128-5.847 3.444-8.128-.603-2.451-1.935-3.574-1.866-3.591-.024.067-.982-1.389-3.35-2.274-2.315-.844-5.924-.784-8.814 1.242-2.957 1.897-4.559 5.624-4.443 8.627-.04 3.051 1.097 5.385 1.717 6.423 2.501 3.813 5.366 5.005 8.904 5.196"
       fill-opacity=".47"
       id="path15" />
  </g>
</svg>
