<?xml version="1.0" encoding="UTF-8" standalone="no"?>
<svg
   style="clip-rule:evenodd;fill-rule:evenodd;stroke-linejoin:round;stroke-miterlimit:2"
   viewBox="0 0 64 64"
   version="1.1"
   id="svg17"
   sodipodi:docname="application-vnd.google-apps.site.svg"
   inkscape:version="1.1.2 (0a00cf5339, 2022-02-04)"
   xmlns:inkscape="http://www.inkscape.org/namespaces/inkscape"
   xmlns:sodipodi="http://sodipodi.sourceforge.net/DTD/sodipodi-0.dtd"
   xmlns:xlink="http://www.w3.org/1999/xlink"
   xmlns="http://www.w3.org/2000/svg"
   xmlns:svg="http://www.w3.org/2000/svg">
  <sodipodi:namedview
     id="namedview19"
     pagecolor="#ffffff"
     bordercolor="#666666"
     borderopacity="1.0"
     inkscape:pageshadow="2"
     inkscape:pageopacity="0.0"
     inkscape:pagecheckerboard="0"
     showgrid="false"
     inkscape:zoom="10.671875"
     inkscape:cx="35.373353"
     inkscape:cy="32"
     inkscape:window-width="945"
     inkscape:window-height="1026"
     inkscape:window-x="965"
     inkscape:window-y="44"
     inkscape:window-maximized="1"
     inkscape:current-layer="svg17" />
  <path
     id="path2"
     style="fill:url(#linearGradient972)"
     d="M 17.617188 1.46875 C 15.597188 1.46875 13.659469 2.2712188 12.230469 3.6992188 C 10.802469 5.1282186 10 7.0678906 10 9.0878906 L 10 12.146484 L 10 54.382812 C 10 56.402814 10.802469 58.340531 12.230469 59.769531 C 13.659469 61.197531 15.597187 62 17.617188 62 L 46.382812 62 C 48.402814 62 50.340531 61.197531 51.769531 59.769531 C 53.197531 58.340531 54 56.402814 54 54.382812 L 54 12.146484 L 54 9.0878906 C 54 7.0678906 53.197531 5.1282186 51.769531 3.6992188 C 50.340531 2.2712188 48.402813 1.46875 46.382812 1.46875 L 39.917969 1.46875 L 24.082031 1.46875 L 17.617188 1.46875 z " />
  <path
     d="m 45,19.250193 c 0,-0.883 -0.717,-1.6 -1.6,-1.6 H 20.6 c -0.883,0 -1.6,0.717 -1.6,1.6 v 4.8 c 0,0.883 0.717,1.6 1.6,1.6 h 22.8 c 0.883,0 1.6,-0.717 1.6,-1.6 z"
     style="fill:#ffffff;fill-opacity:0.5"
     id="path4" />
  <path
     d="m 45,30.250193 c 0,-0.883 -0.717,-1.6 -1.6,-1.6 h -4.8 c -0.883,0 -1.6,0.717 -1.6,1.6 v 11.8 c 0,0.883 0.717,1.6 1.6,1.6 h 4.8 c 0.883,0 1.6,-0.717 1.6,-1.6 z"
     style="fill:#ffffff;fill-opacity:0.5"
     id="path6" />
  <path
     d="m 34,30.250193 c 0,-0.883 -0.717,-1.6 -1.6,-1.6 H 20.6 c -0.883,0 -1.6,0.717 -1.6,1.6 v 11.8 c 0,0.883 0.717,1.6 1.6,1.6 h 11.8 c 0.883,0 1.6,-0.717 1.6,-1.6 z"
     style="fill:#ffffff;fill-opacity:0.5"
     id="path8" />
  <defs
     id="defs15">
    <linearGradient
       id="_Linear1"
       x2="1"
       gradientTransform="matrix(0,-49.619,49.619,0,615.22,51.088)"
       gradientUnits="userSpaceOnUse">
      <stop
         style="stop-color:#2095f2"
         offset="0"
         id="stop10" />
      <stop
         style="stop-color:#7cc0f5"
         offset="1"
         id="stop12" />
    </linearGradient>
    <linearGradient
       inkscape:collect="always"
       xlink:href="#_Linear1"
       id="linearGradient972"
       gradientUnits="userSpaceOnUse"
       gradientTransform="matrix(0,-49.619,49.619,0,615.22,51.088)"
       x2="1" />
  </defs>
  <path
     id="path914"
     style="clip-rule:evenodd;fill:#1d6d90;fill-opacity:1;fill-rule:evenodd;stroke-width:1;stroke-linejoin:round;stroke-miterlimit:2"
     d="m 10,50.982422 v 3.40039 c 0,2.020002 0.802469,3.957719 2.230469,5.386719 1.429,1.428 3.366717,2.230469 5.386719,2.230469 h 28.765624 c 2.020002,0 3.957719,-0.802469 5.386719,-2.230469 C 53.197531,58.340531 54,56.402814 54,54.382812 v -3.40039 z" />
</svg>
