<?xml version="1.0" encoding="UTF-8" standalone="no"?>
<svg
   style="clip-rule:evenodd;fill-rule:evenodd;stroke-linejoin:round;stroke-miterlimit:2"
   viewBox="0 0 64 64"
   version="1.1"
   id="svg13"
   sodipodi:docname="application-document.svg"
   inkscape:version="1.1.2 (0a00cf5339, 2022-02-04)"
   xmlns:inkscape="http://www.inkscape.org/namespaces/inkscape"
   xmlns:sodipodi="http://sodipodi.sourceforge.net/DTD/sodipodi-0.dtd"
   xmlns:xlink="http://www.w3.org/1999/xlink"
   xmlns="http://www.w3.org/2000/svg"
   xmlns:svg="http://www.w3.org/2000/svg">
  <sodipodi:namedview
     id="namedview15"
     pagecolor="#ffffff"
     bordercolor="#666666"
     borderopacity="1.0"
     inkscape:pageshadow="2"
     inkscape:pageopacity="0.0"
     inkscape:pagecheckerboard="0"
     showgrid="false"
     inkscape:zoom="10.671875"
     inkscape:cx="28.392387"
     inkscape:cy="33.780381"
     inkscape:window-width="942"
     inkscape:window-height="1022"
     inkscape:window-x="966"
     inkscape:window-y="46"
     inkscape:window-maximized="1"
     inkscape:current-layer="svg13" />
  <path
     id="path2"
     style="fill:url(#linearGradient3348)"
     d="M 17.617188 1.46875 C 15.597188 1.46875 13.659469 2.2712188 12.230469 3.6992188 C 10.802469 5.1282186 10 7.0678906 10 9.0878906 L 10 15.714844 L 10 54.382812 C 10 56.402814 10.802469 58.340531 12.230469 59.769531 C 13.659469 61.197531 15.597187 62 17.617188 62 L 46.382812 62 C 48.402814 62 50.340531 61.197531 51.769531 59.769531 C 53.197531 58.340531 54 56.402814 54 54.382812 L 54 15.714844 L 54 9.0878906 C 54 7.0678906 53.197531 5.1282186 51.769531 3.6992188 C 50.340531 2.2712188 48.402813 1.46875 46.382812 1.46875 L 36.949219 1.46875 L 27.050781 1.46875 L 17.617188 1.46875 z " />
  <path
     d="m 32.646,18.855844 -9.634,12.331 c -1.806,2.312 -1.301,6.431 1.011,8.237 2.312,1.807 6.431,1.301 8.237,-1.011 l 9.634,-12.331 1.204,-1.542 c 1.204,-1.54 0.868,-4.286 -0.674,-5.491 -1.541,-1.204 -4.287,-0.867 -5.491,0.675 l -1.204,1.541 -7.226,9.248 -1.204,1.542 c -0.602,0.77 -0.433,2.143 0.337,2.745 0.771,0.602 2.144,0.434 2.746,-0.336 l 8.429,-10.791 1.542,1.205 -8.43,10.79 c -1.204,1.541 -3.949,1.878 -5.491,0.674 -1.542,-1.205 -1.878,-3.951 -0.674,-5.491 l 1.204,-1.542 8.429,-10.789 c 1.807,-2.312 5.925,-2.818 8.238,-1.011 2.312,1.806 2.817,5.924 1.011,8.236 l -1.204,1.541 -9.635,12.331 c -2.408,3.083 -7.9,3.758 -10.982,1.349 -3.083,-2.409 -3.756,-7.9 -1.349,-10.982 l 9.635,-12.332 z"
     style="fill:#464d55;fill-rule:nonzero"
     id="path4" />
  <defs
     id="defs11">
    <linearGradient
       id="_Linear1"
       x2="1"
       gradientTransform="matrix(0,-49.619,49.619,0,104.99,51.088)"
       gradientUnits="userSpaceOnUse">
      <stop
         style="stop-color:#758b9a"
         offset="0"
         id="stop6" />
      <stop
         style="stop-color:#b5bdc2"
         offset="1"
         id="stop8" />
    </linearGradient>
    <linearGradient
       inkscape:collect="always"
       xlink:href="#_Linear1"
       id="linearGradient3348"
       gradientUnits="userSpaceOnUse"
       gradientTransform="matrix(0,-49.619,49.619,0,104.99,51.088)"
       x2="1" />
  </defs>
  <path
     d="m 54,50.184 v 4.198 c 0,2.02 -0.803,3.958 -2.231,5.387 C 50.34,61.197 48.402,62 46.382,62 H 17.618 C 15.598,62 13.66,61.197 12.231,59.769 10.803,58.34 9.9999997,56.402 9.9999997,54.382 v -4.198 z"
     style="clip-rule:evenodd;fill:#464d55;fill-rule:evenodd;stroke-linejoin:round;stroke-miterlimit:2;fill-opacity:1"
     id="path4-3" />
</svg>
