<?xml version="1.0" encoding="UTF-8" standalone="no"?>
<svg
   style="clip-rule:evenodd;fill-rule:evenodd;stroke-linejoin:round;stroke-miterlimit:2"
   viewBox="0 0 64 64"
   version="1.1"
   id="svg25"
   sodipodi:docname="application-info.svg"
   inkscape:version="1.1.2 (0a00cf5339, 2022-02-04)"
   xmlns:inkscape="http://www.inkscape.org/namespaces/inkscape"
   xmlns:sodipodi="http://sodipodi.sourceforge.net/DTD/sodipodi-0.dtd"
   xmlns:xlink="http://www.w3.org/1999/xlink"
   xmlns="http://www.w3.org/2000/svg"
   xmlns:svg="http://www.w3.org/2000/svg">
  <sodipodi:namedview
     id="namedview27"
     pagecolor="#ffffff"
     bordercolor="#666666"
     borderopacity="1.0"
     inkscape:pageshadow="2"
     inkscape:pageopacity="0.0"
     inkscape:pagecheckerboard="0"
     showgrid="false"
     inkscape:zoom="10.671875"
     inkscape:cx="34.43631"
     inkscape:cy="33.405564"
     inkscape:window-width="945"
     inkscape:window-height="1026"
     inkscape:window-x="965"
     inkscape:window-y="44"
     inkscape:window-maximized="1"
     inkscape:current-layer="svg25" />
  <path
     id="path2"
     style="fill:url(#linearGradient3109)"
     d="M 17.617188 1.46875 C 15.597188 1.46875 13.659469 2.2712188 12.230469 3.6992188 C 10.802469 5.1282186 10 7.0678906 10 9.0878906 L 10 13.431641 L 10 54.382812 C 10 56.402814 10.802469 58.340531 12.230469 59.769531 C 13.659469 61.197531 15.597186 62 17.617188 62 L 46.382812 62 C 48.402814 62 50.340531 61.197531 51.769531 59.769531 C 53.197531 58.340531 54 56.402814 54 54.382812 L 54 13.431641 L 54 9.0878906 C 54 7.0678906 53.197531 5.1282185 51.769531 3.6992188 C 50.340531 2.2712188 48.402814 1.46875 46.382812 1.46875 L 36.566406 1.46875 L 27.433594 1.46875 L 17.617188 1.46875 z " />
  <path
     id="path914"
     style="clip-rule:evenodd;fill:#296f79;fill-opacity:1;fill-rule:evenodd;stroke-width:1;stroke-linejoin:round;stroke-miterlimit:2"
     d="m 9.9999996,50.982422 v 3.40039 c 0,2.020002 0.8024694,3.957719 2.2304694,5.386719 1.429,1.428 3.366717,2.230469 5.386719,2.230469 h 28.765624 c 2.020002,0 3.957719,-0.802469 5.386719,-2.230469 C 53.197531,58.340531 54,56.402814 54,54.382812 v -3.40039 z" />
  <path
     d="m25.263 59.24h-0.754v-4.016h0.721v0.656h0.033c0.076-0.219 0.232-0.399 0.467-0.541 0.241-0.142 0.473-0.213 0.697-0.213s0.412 0.033 0.565 0.098l-0.287 0.705c-0.098-0.038-0.232-0.057-0.401-0.057-0.273 0-0.517 0.109-0.73 0.327-0.207 0.213-0.311 0.495-0.311 0.844v2.197z"
     style="fill-rule:nonzero;fill:#fff"
     id="path4" />
  <path
     d="m29.066 59.371c-0.607 0-1.101-0.202-1.484-0.606-0.377-0.405-0.565-0.916-0.565-1.533 0-0.585 0.183-1.087 0.549-1.508 0.371-0.421 0.844-0.631 1.418-0.631 0.595 0 1.07 0.194 1.426 0.582 0.36 0.388 0.541 0.907 0.541 1.557l-9e-3 0.139h-3.171c0.022 0.405 0.155 0.724 0.401 0.959 0.252 0.235 0.544 0.353 0.877 0.353 0.541 0 0.907-0.23 1.098-0.689l0.672 0.279c-0.131 0.311-0.347 0.573-0.647 0.787-0.301 0.207-0.669 0.311-1.106 0.311zm1.081-2.623c-0.016-0.229-0.123-0.448-0.319-0.655-0.191-0.208-0.478-0.312-0.861-0.312-0.278 0-0.522 0.088-0.729 0.263-0.202 0.174-0.342 0.409-0.418 0.704h2.327z"
     style="fill-rule:nonzero;fill:#fff"
     id="path6" />
  <path
     d="m32.95 59.371c-0.426 0-0.784-0.123-1.073-0.369-0.284-0.246-0.426-0.571-0.426-0.975 0-0.437 0.169-0.779 0.508-1.024 0.338-0.252 0.756-0.377 1.254-0.377 0.442 0 0.806 0.081 1.09 0.245v-0.114c0-0.295-0.101-0.53-0.304-0.705-0.202-0.18-0.45-0.271-0.745-0.271-0.219 0-0.418 0.052-0.599 0.156-0.175 0.104-0.295 0.246-0.36 0.426l-0.689-0.295c0.093-0.24 0.276-0.461 0.549-0.664 0.274-0.207 0.634-0.311 1.082-0.311 0.514 0 0.94 0.15 1.279 0.451 0.338 0.3 0.508 0.724 0.508 1.27v2.426h-0.721v-0.557h-0.033c-0.301 0.459-0.74 0.688-1.32 0.688zm0.123-0.688c0.312 0 0.593-0.115 0.844-0.345 0.257-0.235 0.386-0.51 0.386-0.827-0.213-0.175-0.533-0.263-0.959-0.263-0.366 0-0.642 0.08-0.828 0.238s-0.279 0.344-0.279 0.557c0 0.197 0.085 0.353 0.254 0.467 0.17 0.115 0.364 0.173 0.582 0.173z"
     style="fill-rule:nonzero;fill:#fff"
     id="path8" />
  <path
     d="m37.506 59.371c-0.519 0-0.967-0.205-1.344-0.615-0.377-0.409-0.566-0.918-0.566-1.524s0.189-1.115 0.566-1.524c0.377-0.41 0.825-0.615 1.344-0.615 0.306 0 0.579 0.066 0.819 0.197 0.246 0.131 0.429 0.295 0.55 0.491h0.032l-0.032-0.557v-1.852h0.754v5.868h-0.722v-0.557h-0.032c-0.121 0.196-0.304 0.36-0.55 0.491-0.24 0.131-0.513 0.197-0.819 0.197zm0.123-0.688c0.355 0 0.655-0.132 0.901-0.394 0.252-0.262 0.377-0.614 0.377-1.057s-0.125-0.795-0.377-1.057c-0.246-0.263-0.546-0.394-0.901-0.394-0.35 0-0.65 0.134-0.902 0.402-0.251 0.262-0.377 0.612-0.377 1.049s0.126 0.789 0.377 1.057c0.252 0.262 0.552 0.394 0.902 0.394z"
     style="fill-rule:nonzero;fill:#fff"
     id="path10" />
  <path
     d="m32 16c-6.094 0-11 4.906-11 11s4.906 11 11 11 11-4.906 11-11-4.906-11-11-11z"
     style="fill-rule:nonzero;fill:#296f79"
     id="path12" />
  <path
     d="m31.942 24.817c-0.913 0-1.56 0.741-1.56 1.653v5.621c0 0.912 0.647 1.652 1.56 1.652 0.912 0 1.558-0.74 1.558-1.652v-5.621c0-0.913-0.646-1.653-1.558-1.653z"
     style="fill-rule:nonzero;fill:#5eafbe"
     id="path14" />
  <path
     d="m31.948 20.521c-0.943 0-1.708 0.765-1.708 1.708s0.765 1.708 1.708 1.708c0.942 0 1.708-0.765 1.708-1.708s-0.766-1.708-1.708-1.708z"
     style="fill-rule:nonzero;fill:#5eafbe"
     id="path16" />
  <defs
     id="defs23">
    <linearGradient
       id="_Linear1"
       x2="1"
       gradientTransform="matrix(0,-49.619,49.619,0,469.44,51.088)"
       gradientUnits="userSpaceOnUse">
      <stop
         style="stop-color:#348692"
         offset="0"
         id="stop18" />
      <stop
         style="stop-color:#69b9cd"
         offset="1"
         id="stop20" />
    </linearGradient>
    <linearGradient
       inkscape:collect="always"
       xlink:href="#_Linear1"
       id="linearGradient3109"
       gradientUnits="userSpaceOnUse"
       gradientTransform="matrix(0,-49.619,49.619,0,469.44,51.088)"
       x2="1" />
  </defs>
</svg>
