<?xml version="1.0" encoding="UTF-8" standalone="no"?>
<svg
   style="clip-rule:evenodd;fill-rule:evenodd;stroke-linejoin:round;stroke-miterlimit:2"
   viewBox="0 0 64 64"
   version="1.1"
   id="svg23"
   sodipodi:docname="application-x-tzo.svg"
   inkscape:version="1.1.2 (0a00cf5339, 2022-02-04)"
   xmlns:inkscape="http://www.inkscape.org/namespaces/inkscape"
   xmlns:sodipodi="http://sodipodi.sourceforge.net/DTD/sodipodi-0.dtd"
   xmlns:xlink="http://www.w3.org/1999/xlink"
   xmlns="http://www.w3.org/2000/svg"
   xmlns:svg="http://www.w3.org/2000/svg">
  <sodipodi:namedview
     id="namedview25"
     pagecolor="#ffffff"
     bordercolor="#666666"
     borderopacity="1.0"
     inkscape:pageshadow="2"
     inkscape:pageopacity="0.0"
     inkscape:pagecheckerboard="0"
     showgrid="false"
     inkscape:zoom="10.65625"
     inkscape:cx="32"
     inkscape:cy="32"
     inkscape:window-width="1896"
     inkscape:window-height="1022"
     inkscape:window-x="12"
     inkscape:window-y="46"
     inkscape:window-maximized="1"
     inkscape:current-layer="svg23" />
  <path
     id="path2"
     style="fill:url(#linearGradient3418)"
     d="M 17.617188 1.46875 C 15.597188 1.46875 13.659469 2.2712188 12.230469 3.6992188 C 10.802469 5.1282186 10 7.0678906 10 9.0878906 L 10 11.482422 L 10 54.382812 C 10 56.402814 10.802469 58.340531 12.230469 59.769531 C 13.659469 61.197531 15.597187 62 17.617188 62 L 46.382812 62 C 48.402814 62 50.340531 61.197531 51.769531 59.769531 C 53.197531 58.340531 54 56.402814 54 54.382812 L 54 11.482422 L 54 9.0878906 C 54 7.0678906 53.197531 5.1282186 51.769531 3.6992188 C 50.340531 2.2712188 48.402813 1.46875 46.382812 1.46875 L 36.455078 1.46875 L 27.544922 1.46875 L 17.617188 1.46875 z " />
  <path
     id="path914"
     style="clip-rule:evenodd;fill:#044937;fill-opacity:1;fill-rule:evenodd;stroke-width:1;stroke-linecap:round;stroke-linejoin:round;stroke-miterlimit:2"
     d="m 9.9999998,50.982422 v 3.40039 c 0,2.020002 0.8024672,3.957719 2.2304692,5.386719 C 13.659467,61.197531 15.597183,62 17.617187,62 h 28.765625 c 2.020002,0 3.957718,-0.802469 5.386719,-2.230469 C 53.19753,58.340531 54,56.402814 54,54.382812 v -3.40039 z" />
  <path
     d="m42 18.285c0-1.262-1.023-2.285-2.285-2.285h-15.23c-1.262 0-2.285 1.023-2.285 2.285v17.43c0 1.262 1.023 2.285 2.285 2.285h15.23c1.262 0 2.285-1.023 2.285-2.285v-17.43z"
     style="fill:#044937"
     id="path4" />
  <path
     d="m33.245 24.663v1.1h-2.2v-1.1h2.2zm0-1.645v1.1h-2.2v-1.1h2.2zm0-1.608v1.1h-2.2v-1.1h2.2zm-0.024-1.636v1.1h-2.2v-1.1h2.2zm0.014-1.572v1.1h-2.2v-1.1h2.2zm4e-3 -1.591v1.1h-2.2v-1.1h2.2z"
     style="fill-opacity:.93;fill:#fff"
     id="path6" />
  <path
     d="m32.951 27.371v-0.694c0-0.194-0.157-0.351-0.349-0.351h-0.97c-0.193 0-0.349 0.157-0.349 0.351v0.693l-0.539 1.591c-0.151 0.443-0.079 0.935 0.193 1.317 0.272 0.381 0.713 0.608 1.18 0.608s0.908-0.227 1.18-0.608c0.271-0.382 0.344-0.874 0.193-1.317l-0.539-1.59zm-0.226 2.497c-0.279 0.393-0.937 0.393-1.217 0-0.14-0.197-0.177-0.451-0.1-0.68l0.181-0.533h1.055l0.181 0.533c0.078 0.229 0.04 0.483-0.1 0.68z"
     style="fill-rule:nonzero;fill:#fff"
     id="path8" />
  <path
     d="m29.047 59.105c-0.421 0-0.743-0.112-0.967-0.336-0.219-0.224-0.328-0.541-0.328-0.95v-2.107h-0.705v-0.688h0.705v-1.229h0.754v1.229h0.983v0.688h-0.983v2.049c0 0.437 0.18 0.656 0.541 0.656 0.136 0 0.251-0.022 0.344-0.066l0.262 0.648c-0.164 0.071-0.366 0.106-0.606 0.106z"
     style="fill-rule:nonzero;fill:#fff"
     id="path10" />
  <path
     d="m30.09 59.04v-0.656l2.286-2.672h-2.221v-0.688h3.147v0.656l-2.286 2.671h2.319v0.689h-3.245z"
     style="fill-rule:nonzero;fill:#fff"
     id="path12" />
  <path
     d="m34.337 55.508c0.387-0.41 0.882-0.615 1.483-0.615s1.095 0.205 1.483 0.615c0.388 0.404 0.582 0.912 0.582 1.524s-0.194 1.123-0.582 1.532c-0.388 0.405-0.882 0.607-1.483 0.607s-1.096-0.202-1.483-0.607c-0.388-0.409-0.582-0.92-0.582-1.532s0.194-1.12 0.582-1.524zm0.557 2.581c0.262 0.262 0.571 0.393 0.926 0.393s0.661-0.131 0.918-0.393c0.262-0.268 0.393-0.62 0.393-1.057s-0.131-0.787-0.393-1.049c-0.257-0.268-0.563-0.402-0.918-0.402s-0.664 0.134-0.926 0.402c-0.257 0.262-0.385 0.612-0.385 1.049s0.128 0.789 0.385 1.057z"
     style="fill-rule:nonzero;fill:#fff"
     id="path14" />
  <defs
     id="defs21">
    <linearGradient
       id="_Linear1"
       x2="1"
       gradientTransform="matrix(1.07196,-49.7469,49.7469,1.07196,178.156,54.3653)"
       gradientUnits="userSpaceOnUse">
      <stop
         style="stop-color:#075"
         offset="0"
         id="stop16" />
      <stop
         style="stop-color:#3ec884"
         offset="1"
         id="stop18" />
    </linearGradient>
    <linearGradient
       inkscape:collect="always"
       xlink:href="#_Linear1"
       id="linearGradient3418"
       gradientUnits="userSpaceOnUse"
       gradientTransform="matrix(1.07196,-49.7469,49.7469,1.07196,178.156,54.3653)"
       x2="1" />
  </defs>
</svg>
