<?xml version="1.0" encoding="UTF-8" standalone="no"?>
<svg
   style="clip-rule:evenodd;fill-rule:evenodd"
   viewBox="0 0 64 64"
   version="1.1"
   id="svg31"
   sodipodi:docname="application-msword-template.svg"
   inkscape:version="1.1.2 (0a00cf5339, 2022-02-04)"
   xmlns:inkscape="http://www.inkscape.org/namespaces/inkscape"
   xmlns:sodipodi="http://sodipodi.sourceforge.net/DTD/sodipodi-0.dtd"
   xmlns:xlink="http://www.w3.org/1999/xlink"
   xmlns="http://www.w3.org/2000/svg"
   xmlns:svg="http://www.w3.org/2000/svg">
  <sodipodi:namedview
     id="namedview33"
     pagecolor="#ffffff"
     bordercolor="#666666"
     borderopacity="1.0"
     inkscape:pageshadow="2"
     inkscape:pageopacity="0.0"
     inkscape:pagecheckerboard="0"
     showgrid="false"
     inkscape:zoom="10.671875"
     inkscape:cx="36.685212"
     inkscape:cy="33.780381"
     inkscape:window-width="945"
     inkscape:window-height="1026"
     inkscape:window-x="965"
     inkscape:window-y="44"
     inkscape:window-maximized="1"
     inkscape:current-layer="svg31" />
  <path
     id="path2"
     style="fill:url(#linearGradient3348)"
     d="M 17.617188 1.46875 C 15.597188 1.46875 13.659469 2.2712188 12.230469 3.6992188 C 10.802469 5.1282186 10 7.0678906 10 9.0878906 L 10 12.162109 L 10 54.382812 C 10 56.402814 10.802469 58.340531 12.230469 59.769531 C 13.659469 61.197531 15.597187 62 17.617188 62 L 46.382812 62 C 48.402814 62 50.340531 61.197531 51.769531 59.769531 C 53.197531 58.340531 54 56.402814 54 54.382812 L 54 12.162109 L 54 9.0878906 C 54 7.0678906 53.197531 5.1282186 51.769531 3.6992188 C 50.340531 2.2712188 48.402813 1.46875 46.382812 1.46875 L 39.613281 1.46875 L 24.386719 1.46875 L 17.617188 1.46875 z " />
  <path
     id="path914"
     style="clip-rule:evenodd;fill:#3d434a;fill-opacity:1;fill-rule:evenodd;stroke-width:1;stroke-linejoin:round;stroke-miterlimit:2"
     d="m 10,50.982422 v 3.40039 c 0,2.020002 0.802469,3.957719 2.230469,5.386719 1.429,1.428 3.366717,2.230469 5.386719,2.230469 h 28.765624 c 2.020002,0 3.957719,-0.802469 5.386719,-2.230469 C 53.197531,58.340531 54,56.402814 54,54.382812 v -3.40039 z" />
  <path
     d="m27.99 59.271c-0.519 0-0.968-0.205-1.345-0.615-0.377-0.409-0.565-0.918-0.565-1.524 0-0.607 0.188-1.115 0.565-1.524 0.377-0.41 0.826-0.615 1.345-0.615 0.306 0 0.579 0.065 0.819 0.197 0.246 0.131 0.429 0.295 0.549 0.491h0.033l-0.033-0.557v-1.852h0.754v5.868h-0.721v-0.557h-0.033c-0.12 0.196-0.303 0.36-0.549 0.491-0.24 0.131-0.513 0.197-0.819 0.197zm0.122-0.688c0.356 0 0.656-0.132 0.902-0.394 0.251-0.262 0.377-0.615 0.377-1.057 0-0.443-0.126-0.795-0.377-1.057-0.246-0.263-0.546-0.394-0.902-0.394-0.349 0-0.65 0.134-0.901 0.402-0.251 0.262-0.377 0.612-0.377 1.049s0.126 0.789 0.377 1.057c0.251 0.262 0.552 0.394 0.901 0.394z"
     style="fill-rule:nonzero;fill:#fff"
     id="path4" />
  <path
     d="m31.336 55.608c0.388-0.41 0.882-0.615 1.483-0.615s1.096 0.205 1.484 0.615c0.388 0.404 0.582 0.912 0.582 1.524s-0.194 1.123-0.582 1.532c-0.388 0.405-0.883 0.607-1.484 0.607s-1.095-0.202-1.483-0.607c-0.388-0.409-0.582-0.92-0.582-1.532s0.194-1.12 0.582-1.524zm0.557 2.581c0.262 0.262 0.571 0.394 0.926 0.394s0.661-0.132 0.918-0.394c0.262-0.268 0.394-0.62 0.394-1.057s-0.132-0.787-0.394-1.049c-0.257-0.268-0.563-0.402-0.918-0.402s-0.664 0.134-0.926 0.402c-0.257 0.262-0.385 0.612-0.385 1.049s0.128 0.789 0.385 1.057z"
     style="fill-rule:nonzero;fill:#fff"
     id="path6" />
  <path
     d="m37.187 59.205c-0.421 0-0.743-0.112-0.967-0.336-0.219-0.224-0.328-0.541-0.328-0.95v-2.107h-0.705v-0.688h0.705v-1.229h0.754v1.229h0.983v0.688h-0.983v2.049c0 0.437 0.18 0.656 0.541 0.656 0.136 0 0.251-0.022 0.344-0.066l0.262 0.648c-0.164 0.071-0.366 0.106-0.606 0.106z"
     style="fill-rule:nonzero;fill:#fff"
     id="path8" />
  <path
     d="m22.601 37.697h10.073v-21.206l-9.983 1e-3c-1.098-0.082-1.543 0.02-1.543 1.014v19.122c-0.069 1.092 0.386 1.069 1.453 1.069z"
     style="fill:#3d434a"
     id="path10" />
  <path
     d="m41.987 37.69h-4.572l-2.344-1.968v-17.269l1.606-1.968h5.31c0.735-0.081 0.794 0.02 0.794 1.015v19.122c0.046 1.091-0.079 1.068-0.794 1.068z"
     style="fill:none;stroke-width:.7px;stroke:#3d434a"
     id="path12" />
  <path
     d="m40.254 38.7l-8.681-1.014v-21.195l8.609-0.807c1.065-0.081 1.122 0.212 1.122 1.207l-0.072 20.227c0.067 1.092 0.058 1.582-0.978 1.582z"
     style="fill:#3d434a"
     id="path14" />
  <rect
     x="26.327"
     y="21.987"
     width="10.299"
     height="1.931"
     style="fill:#9aa6b3"
     id="rect16" />
  <rect
     x="26.338"
     y="24.85"
     width="10.299"
     height="1.931"
     style="fill:#9aa6b3"
     id="rect18" />
  <rect
     x="26.353"
     y="27.57"
     width="10.299"
     height="1.931"
     style="fill:#9aa6b3"
     id="rect20" />
  <rect
     x="26.332"
     y="30.393"
     width="10.299"
     height="1.931"
     style="fill:#9aa6b3"
     id="rect22" />
  <defs
     id="defs29">
    <linearGradient
       id="_Linear1"
       x2="1"
       gradientTransform="matrix(0,-49.619,49.619,0,104.99,51.088)"
       gradientUnits="userSpaceOnUse">
      <stop
         style="stop-color:#758b9a"
         offset="0"
         id="stop24" />
      <stop
         style="stop-color:#b5bdc2"
         offset="1"
         id="stop26" />
    </linearGradient>
    <linearGradient
       inkscape:collect="always"
       xlink:href="#_Linear1"
       id="linearGradient3348"
       gradientUnits="userSpaceOnUse"
       gradientTransform="matrix(0,-49.619,49.619,0,104.99,51.088)"
       x2="1" />
  </defs>
</svg>
