<?xml version="1.0" encoding="UTF-8" standalone="no"?>
<svg
   style="clip-rule:evenodd;fill-rule:evenodd;stroke-linejoin:round;stroke-miterlimit:2"
   viewBox="0 0 64 64"
   version="1.1"
   id="svg19"
   sodipodi:docname="application-x-deb-ubuntu.svg"
   inkscape:version="1.1.2 (0a00cf5339, 2022-02-04)"
   xmlns:inkscape="http://www.inkscape.org/namespaces/inkscape"
   xmlns:sodipodi="http://sodipodi.sourceforge.net/DTD/sodipodi-0.dtd"
   xmlns:xlink="http://www.w3.org/1999/xlink"
   xmlns="http://www.w3.org/2000/svg"
   xmlns:svg="http://www.w3.org/2000/svg">
  <sodipodi:namedview
     id="namedview21"
     pagecolor="#ffffff"
     bordercolor="#666666"
     borderopacity="1.0"
     inkscape:pageshadow="2"
     inkscape:pageopacity="0.0"
     inkscape:pagecheckerboard="0"
     showgrid="false"
     inkscape:zoom="10.65625"
     inkscape:cx="32"
     inkscape:cy="32"
     inkscape:window-width="1896"
     inkscape:window-height="1022"
     inkscape:window-x="12"
     inkscape:window-y="46"
     inkscape:window-maximized="1"
     inkscape:current-layer="svg19" />
  <path
     id="path2"
     style="fill:url(#linearGradient5610)"
     d="M 17.617188 1.46875 C 15.597188 1.46875 13.659469 2.2712188 12.230469 3.6992188 C 10.802469 5.1282186 10 7.0678906 10 9.0878906 L 10 11.197266 L 10 54.382812 C 10 56.402814 10.802469 58.340531 12.230469 59.769531 C 13.659469 61.197531 15.597187 62 17.617188 62 L 46.382812 62 C 48.402814 62 50.340531 61.197531 51.769531 59.769531 C 53.197531 58.340531 54 56.402814 54 54.382812 L 54 11.197266 L 54 9.0878906 C 54 7.0678906 53.197531 5.1282186 51.769531 3.6992188 C 50.340531 2.2712188 48.402813 1.46875 46.382812 1.46875 L 38.080078 1.46875 L 25.919922 1.46875 L 17.617188 1.46875 z " />
  <path
     id="path2-3"
     style="clip-rule:evenodd;fill:#a23a18;fill-opacity:1;fill-rule:evenodd;stroke-linejoin:round;stroke-miterlimit:2"
     d="m 10,50.982422 v 3.398437 0.002 c 6.5e-5,0.251841 0.01244,0.501552 0.03711,0.75 v 0.002 c 0.02473,0.248442 0.06268,0.494885 0.111329,0.738281 v 0.002 c 0.04871,0.243391 0.109702,0.484016 0.18164,0.720703 v 0.002 c 0.072,0.236684 0.155456,0.468944 0.25,0.697266 v 0.002 c 0.09461,0.228323 0.199937,0.453573 0.316406,0.671875 v 0.002 c 0.116532,0.218305 0.245101,0.430096 0.382814,0.636719 v 0.002 c 0.137775,0.206628 0.287037,0.406326 0.445311,0.599609 v 0.002 c 0.158341,0.193289 0.327703,0.378358 0.505861,0.55664 v 0.002 c 0.714499,0.714 1.5571,1.271274 2.472656,1.650391 C 15.618679,61.799106 16.607187,62 17.617188,62 h 28.765624 c 1.010002,0 1.998509,-0.200473 2.914063,-0.580078 0.915555,-0.379117 1.758156,-0.936391 2.472656,-1.650391 v -0.002 C 53.197531,58.338626 54,56.400859 54,54.380859 v -3.398437 z" />
  <path
     d="m27.39 59.371c-0.519 0-0.968-0.205-1.345-0.615-0.377-0.409-0.565-0.918-0.565-1.524s0.188-1.115 0.565-1.524c0.377-0.41 0.826-0.615 1.345-0.615 0.306 0 0.579 0.066 0.819 0.197 0.246 0.131 0.429 0.295 0.549 0.491h0.033l-0.033-0.557v-1.852h0.754v5.868h-0.721v-0.557h-0.033c-0.12 0.196-0.303 0.36-0.549 0.491-0.24 0.131-0.513 0.197-0.819 0.197zm0.122-0.688c0.356 0 0.656-0.132 0.902-0.394 0.251-0.262 0.377-0.614 0.377-1.057s-0.126-0.795-0.377-1.057c-0.246-0.262-0.546-0.394-0.902-0.394-0.349 0-0.65 0.134-0.901 0.402-0.251 0.262-0.377 0.612-0.377 1.049s0.126 0.789 0.377 1.057c0.251 0.262 0.552 0.394 0.901 0.394z"
     style="fill-rule:nonzero;fill:#fff"
     id="path4" />
  <path
     d="m32.203 59.371c-0.607 0-1.101-0.202-1.484-0.606-0.377-0.405-0.565-0.916-0.565-1.533 0-0.585 0.183-1.087 0.549-1.508 0.372-0.421 0.844-0.631 1.418-0.631 0.595 0 1.071 0.194 1.426 0.582 0.361 0.388 0.541 0.907 0.541 1.557l-8e-3 0.139h-3.172c0.022 0.405 0.156 0.724 0.402 0.959 0.251 0.235 0.543 0.353 0.876 0.353 0.541 0 0.907-0.23 1.099-0.689l0.672 0.279c-0.131 0.311-0.347 0.573-0.648 0.787-0.3 0.207-0.669 0.311-1.106 0.311zm1.082-2.623c-0.017-0.229-0.123-0.448-0.32-0.655-0.191-0.208-0.478-0.312-0.86-0.312-0.279 0-0.522 0.088-0.73 0.263-0.202 0.174-0.341 0.409-0.418 0.704h2.328z"
     style="fill-rule:nonzero;fill:#fff"
     id="path6" />
  <path
     d="m36.892 59.371c-0.306 0-0.582-0.066-0.828-0.197-0.24-0.131-0.42-0.295-0.541-0.491h-0.032v0.557h-0.722v-5.868h0.754v1.852l-0.032 0.557h0.032c0.121-0.196 0.301-0.36 0.541-0.491 0.246-0.131 0.522-0.197 0.828-0.197 0.519 0 0.967 0.205 1.344 0.615 0.377 0.409 0.566 0.918 0.566 1.524s-0.189 1.115-0.566 1.524c-0.377 0.41-0.825 0.615-1.344 0.615zm-0.123-0.688c0.35 0 0.65-0.132 0.902-0.394 0.251-0.268 0.377-0.62 0.377-1.057s-0.126-0.787-0.377-1.049c-0.252-0.268-0.552-0.402-0.902-0.402-0.355 0-0.658 0.132-0.91 0.394-0.246 0.262-0.368 0.614-0.368 1.057s0.122 0.795 0.368 1.057c0.252 0.262 0.555 0.394 0.91 0.394z"
     style="fill-rule:nonzero;fill:#fff"
     id="path8" />
  <path
     d="m39.275 13.87c-0.124-8e-3 -0.246-6e-3 -0.366 2e-3 -0.802 0.056-1.544 0.5-1.976 1.249-0.689 1.196-0.276 2.716 0.922 3.407 1.196 0.689 2.719 0.289 3.408-0.911 0.691-1.193 0.295-2.741-0.901-3.431-0.337-0.194-0.716-0.293-1.087-0.316zm-6.565 2.651c-1.729 0-3.347 0.408-4.797 1.128l1.738 3.138c0.936-0.437 1.961-0.695 3.059-0.695 3.822 0 6.977 2.925 7.306 6.664l3.548-0.044c-0.177-2.756-1.383-5.235-3.234-7.055-0.953 0.357-2.035 0.302-2.985-0.249-0.949-0.549-1.549-1.467-1.714-2.475-0.926-0.254-1.915-0.412-2.921-0.412zm-6.023 1.833c-2.191 1.463-3.804 3.708-4.482 6.329 0.793 0.645 1.27 1.609 1.27 2.713 0 1.097-0.476 2.097-1.27 2.745 0.678 2.62 2.291 4.855 4.482 6.318l1.833-3.083c-1.88-1.322-3.104-3.507-3.104-5.98 0-2.476 1.224-4.659 3.104-5.981l-1.833-3.061zm-6.719 6.546c-1.384 0-2.496 1.112-2.496 2.496 0 1.379 1.112 2.496 2.496 2.496 1.385 0 2.508-1.117 2.508-2.496 0-1.384-1.123-2.496-2.508-2.496zm20.048 3.159c-0.329 3.733-3.484 6.664-7.306 6.664-1.099 0-2.124-0.247-3.059-0.684l-1.738 3.114c1.45 0.723 3.068 1.118 4.797 1.118 1.006 0 1.995-0.134 2.921-0.391 0.164-1.007 0.764-1.922 1.714-2.473 0.952-0.549 2.032-0.602 2.985-0.24 1.851-1.822 3.057-4.297 3.234-7.055l-3.548-0.053zm-1.097 7.89c-0.362 0.031-0.727 0.151-1.064 0.346-1.198 0.687-1.611 2.204-0.922 3.397 0.692 1.2 2.232 1.603 3.429 0.914 1.198-0.691 1.592-2.214 0.901-3.41-0.432-0.748-1.185-1.191-1.987-1.247-0.12-0.01-0.236-0.01-0.357 0z"
     style="fill-opacity:.85;fill-rule:nonzero;fill:#fff"
     id="path10" />
  <defs
     id="defs17">
    <linearGradient
       id="_Linear1"
       x2="1"
       gradientTransform="matrix(0,-49.619,49.619,0,104.99,51.088)"
       gradientUnits="userSpaceOnUse">
      <stop
         style="stop-color:#e15d31"
         offset="0"
         id="stop12" />
      <stop
         style="stop-color:#ff936d"
         offset="1"
         id="stop14" />
    </linearGradient>
    <linearGradient
       inkscape:collect="always"
       xlink:href="#_Linear1"
       id="linearGradient5610"
       gradientUnits="userSpaceOnUse"
       gradientTransform="matrix(0,-49.619,49.619,0,104.99,51.088)"
       x2="1" />
  </defs>
</svg>
