<?xml version="1.0" encoding="UTF-8" standalone="no"?>
<svg
   style="clip-rule:evenodd;fill-rule:evenodd;stroke-linejoin:round;stroke-miterlimit:2"
   viewBox="0 0 64 64"
   version="1.1"
   id="svg15"
   sodipodi:docname="application-x-extension-fcstd.svg"
   inkscape:version="1.1.2 (0a00cf5339, 2022-02-04)"
   xmlns:inkscape="http://www.inkscape.org/namespaces/inkscape"
   xmlns:sodipodi="http://sodipodi.sourceforge.net/DTD/sodipodi-0.dtd"
   xmlns:xlink="http://www.w3.org/1999/xlink"
   xmlns="http://www.w3.org/2000/svg"
   xmlns:svg="http://www.w3.org/2000/svg">
  <sodipodi:namedview
     id="namedview17"
     pagecolor="#ffffff"
     bordercolor="#666666"
     borderopacity="1.0"
     inkscape:pageshadow="2"
     inkscape:pageopacity="0.0"
     inkscape:pagecheckerboard="0"
     showgrid="false"
     inkscape:zoom="10.65625"
     inkscape:cx="32"
     inkscape:cy="32"
     inkscape:window-width="942"
     inkscape:window-height="1022"
     inkscape:window-x="966"
     inkscape:window-y="46"
     inkscape:window-maximized="1"
     inkscape:current-layer="svg15" />
  <path
     id="path2"
     style="fill:url(#linearGradient5282)"
     d="M 17.617188 1.46875 C 15.597188 1.46875 13.659469 2.2712188 12.230469 3.6992188 C 10.802469 5.1282186 10 7.0678906 10 9.0878906 L 10 15.3125 L 10 54.382812 C 10 56.402814 10.802469 58.340531 12.230469 59.769531 C 13.659469 61.197531 15.597187 62 17.617188 62 L 46.382812 62 C 48.402814 62 50.340531 61.197531 51.769531 59.769531 C 53.197531 58.340531 54 56.402814 54 54.382812 L 54 15.3125 L 54 9.0878906 C 54 7.0678906 53.197531 5.1282186 51.769531 3.6992188 C 50.340531 2.2712188 48.402813 1.46875 46.382812 1.46875 L 37.703125 1.46875 L 26.296875 1.46875 L 17.617188 1.46875 z " />
  <path
     d="m 18.979,12.058517 h 17.947 v 6.526 H 23.873 v 4.895 h 6.526 v 4.895 h -6.526 v 13.053 h -4.894 z"
     style="fill:#ff6363;fill-rule:nonzero"
     id="path4" />
  <path
     d="m 35.908,26.742517 -0.163,1.932 c -0.613,0.228 -1.183,0.557 -1.686,0.976 l -1.759,-0.83 -1.836,3.182 1.597,1.107 c -0.057,0.322 -0.087,0.647 -0.089,0.973 0,0.327 0.028,0.654 0.084,0.976 l -1.592,1.107 1.836,3.18 1.755,-0.825 c 0.504,0.416 1.076,0.743 1.69,0.968 l 0.16,1.939 h 3.672 l 0.163,-1.934 c 0.613,-0.227 1.183,-0.557 1.686,-0.976 l 1.757,0.828 1.836,-3.18 -1.595,-1.11 c 0.057,-0.321 0.087,-0.646 0.089,-0.973 0,-0.327 -0.028,-0.653 -0.084,-0.975 l 1.592,-1.105 -1.836,-3.18 -1.755,0.825 c -0.504,-0.415 -1.076,-0.742 -1.69,-0.966 l -0.162,-1.939 z m 1.833,4.892 c 1.343,0 2.449,1.105 2.449,2.448 0,1.343 -1.106,2.449 -2.449,2.449 -1.343,0 -2.448,-1.106 -2.448,-2.449 0,-1.343 1.105,-2.448 2.448,-2.448 z"
     style="fill:#3f92e7;fill-rule:nonzero"
     id="path6" />
  <defs
     id="defs13">
    <linearGradient
       id="_Linear1"
       x2="1"
       gradientTransform="matrix(0,-49.619,49.619,0,615.22,51.088)"
       gradientUnits="userSpaceOnUse">
      <stop
         style="stop-color:#4f4f4f"
         offset="0"
         id="stop8" />
      <stop
         style="stop-color:#676767"
         offset="1"
         id="stop10" />
    </linearGradient>
    <linearGradient
       inkscape:collect="always"
       xlink:href="#_Linear1"
       id="linearGradient5282"
       gradientUnits="userSpaceOnUse"
       gradientTransform="matrix(0,-49.619,49.619,0,615.22,51.088)"
       x2="1" />
  </defs>
  <path
     id="path2-3"
     style="clip-rule:evenodd;fill:#3d3d3d;fill-opacity:1;fill-rule:evenodd;stroke-linejoin:round;stroke-miterlimit:2"
     d="m 10,50.982422 v 3.398437 0.002 c 6.5e-5,0.251841 0.01244,0.501552 0.03711,0.75 v 0.002 c 0.02473,0.248442 0.06268,0.494885 0.111329,0.738281 v 0.002 c 0.04871,0.243391 0.109702,0.484016 0.18164,0.720703 v 0.002 c 0.072,0.236684 0.155456,0.468944 0.25,0.697266 v 0.002 c 0.09461,0.228323 0.199937,0.453573 0.316406,0.671875 v 0.002 c 0.116532,0.218305 0.245101,0.430096 0.382814,0.636719 v 0.002 c 0.137775,0.206628 0.287037,0.406326 0.445311,0.599609 v 0.002 c 0.158341,0.193289 0.327703,0.378358 0.505861,0.55664 v 0.002 c 0.714499,0.714 1.5571,1.271274 2.472656,1.650391 C 15.618679,61.799106 16.607187,62 17.617188,62 h 28.765624 c 1.010002,0 1.998509,-0.200473 2.914063,-0.580078 0.915555,-0.379117 1.758156,-0.936391 2.472656,-1.650391 v -0.002 C 53.197531,58.338626 54,56.400859 54,54.380859 v -3.398437 z" />
</svg>
