<?xml version="1.0" encoding="UTF-8" standalone="no"?>
<svg
   clip-rule="evenodd"
   fill-rule="evenodd"
   viewBox="0 0 64 64"
   version="1.1"
   id="svg17"
   sodipodi:docname="application-x-model.svg"
   inkscape:version="1.1.2 (0a00cf5339, 2022-02-04)"
   xmlns:inkscape="http://www.inkscape.org/namespaces/inkscape"
   xmlns:sodipodi="http://sodipodi.sourceforge.net/DTD/sodipodi-0.dtd"
   xmlns:xlink="http://www.w3.org/1999/xlink"
   xmlns="http://www.w3.org/2000/svg"
   xmlns:svg="http://www.w3.org/2000/svg">
  <defs
     id="defs21">
    <linearGradient
       inkscape:collect="always"
       xlink:href="#a"
       id="linearGradient9693"
       gradientUnits="userSpaceOnUse"
       gradientTransform="matrix(0,-49.619,49.619,0,177.88,51.088)"
       x2="1" />
  </defs>
  <sodipodi:namedview
     id="namedview19"
     pagecolor="#ffffff"
     bordercolor="#666666"
     borderopacity="1.0"
     inkscape:pageshadow="2"
     inkscape:pageopacity="0.0"
     inkscape:pagecheckerboard="0"
     showgrid="false"
     inkscape:zoom="10.65625"
     inkscape:cx="32"
     inkscape:cy="32"
     inkscape:window-width="1896"
     inkscape:window-height="1022"
     inkscape:window-x="12"
     inkscape:window-y="46"
     inkscape:window-maximized="1"
     inkscape:current-layer="svg17" />
  <linearGradient
     id="a"
     x2="1"
     gradientTransform="matrix(0,-49.619,49.619,0,177.88,51.088)"
     gradientUnits="userSpaceOnUse">
    <stop
       stop-color="#c57c2e"
       offset="0"
       id="stop2" />
    <stop
       stop-color="#e78f68"
       offset="1"
       id="stop4" />
  </linearGradient>
  <path
     id="path7"
     style="fill:url(#linearGradient9693)"
     d="M 17.617188 1.46875 C 15.597188 1.46875 13.659469 2.2712188 12.230469 3.6992188 C 10.802469 5.1282186 10 7.0678906 10 9.0878906 L 10 15.587891 L 10 54.382812 C 10 56.402814 10.802469 58.340531 12.230469 59.769531 C 13.659469 61.197531 15.597187 62 17.617188 62 L 46.382812 62 C 48.402814 62 50.340531 61.197531 51.769531 59.769531 C 53.197531 58.340531 54 56.402814 54 54.382812 L 54 15.587891 L 54 9.0878906 C 54 7.0678906 53.197531 5.1282186 51.769531 3.6992188 C 50.340531 2.2712188 48.402813 1.46875 46.382812 1.46875 L 40.171875 1.46875 L 23.828125 1.46875 L 17.617188 1.46875 z " />
  <g
     transform="matrix(0.066145,0,0,0.066145,-6.00012,-8.4483077)"
     fill="none"
     opacity="0.7"
     stroke="#ffffff"
     stroke-width="30.24"
     id="g15">
    <path
       d="M 377.96,468.671 574.499,362.842 771.039,468.671 V 695.447 L 574.499,801.276 377.96,695.447 Z"
       id="path9" />
    <path
       d="M 771.039,468.671 574.499,574.499 377.96,468.671"
       id="path11" />
    <path
       d="M 574.499,559.381 V 801.276"
       id="path13" />
  </g>
  <path
     id="path914"
     style="clip-rule:evenodd;fill:#7f4910;fill-opacity:1;fill-rule:evenodd;stroke-width:1;stroke-linejoin:round;stroke-miterlimit:2"
     d="m 9.999999,50.982422 v 3.40039 c 0,2.020002 0.80247,3.957719 2.23047,5.386719 C 13.659468,61.197531 15.597185,62 17.617187,62 h 28.765625 c 2.020002,0 3.957718,-0.802469 5.386719,-2.230469 C 53.19753,58.340531 54,56.402814 54,54.382812 v -3.40039 z" />
</svg>
