<?xml version="1.0" encoding="UTF-8" standalone="no"?>
<svg
   clip-rule="evenodd"
   fill-rule="evenodd"
   stroke-linejoin="round"
   stroke-miterlimit="2"
   viewBox="0 0 48 48"
   version="1.1"
   id="svg11"
   sodipodi:docname="application-x-kicad-project.svg"
   inkscape:version="1.1.2 (0a00cf5339, 2022-02-04)"
   xmlns:inkscape="http://www.inkscape.org/namespaces/inkscape"
   xmlns:sodipodi="http://sodipodi.sourceforge.net/DTD/sodipodi-0.dtd"
   xmlns:xlink="http://www.w3.org/1999/xlink"
   xmlns="http://www.w3.org/2000/svg"
   xmlns:svg="http://www.w3.org/2000/svg">
  <defs
     id="defs15">
    <linearGradient
       inkscape:collect="always"
       xlink:href="#a"
       id="linearGradient3678"
       gradientUnits="userSpaceOnUse"
       gradientTransform="matrix(0,-37.21425,37.21425,0,461.415,38.515125)"
       x2="1" />
  </defs>
  <sodipodi:namedview
     id="namedview13"
     pagecolor="#ffffff"
     bordercolor="#666666"
     borderopacity="1.0"
     inkscape:pageshadow="2"
     inkscape:pageopacity="0.0"
     inkscape:pagecheckerboard="0"
     showgrid="false"
     inkscape:zoom="10.046809"
     inkscape:cx="33.19462"
     inkscape:cy="28.46675"
     inkscape:window-width="942"
     inkscape:window-height="1022"
     inkscape:window-x="966"
     inkscape:window-y="46"
     inkscape:window-maximized="1"
     inkscape:current-layer="svg11" />
  <linearGradient
     id="a"
     x2="1"
     gradientTransform="matrix(0,-37.21425,37.21425,0,461.415,38.515125)"
     gradientUnits="userSpaceOnUse">
    <stop
       stop-color="#8a2811"
       offset="0"
       id="stop2" />
    <stop
       stop-color="#cd8769"
       offset="1"
       id="stop4" />
  </linearGradient>
  <path
     id="path7"
     style="stroke-width:0.75;fill:url(#linearGradient3678)"
     d="M 13.212891 1.3007812 C 11.697891 1.3007812 10.245578 1.9036094 9.1738281 2.9746094 C 8.1028281 4.0463594 7.5 5.4986719 7.5 7.0136719 L 7.5 8.8085938 L 7.5 40.986328 C 7.5 42.501328 8.1028281 43.953641 9.1738281 45.025391 C 10.245578 46.096391 11.697891 46.699219 13.212891 46.699219 L 34.787109 46.699219 C 36.302109 46.699219 37.754422 46.096391 38.826172 45.025391 C 39.897172 43.953641 40.5 42.501328 40.5 40.986328 L 40.5 8.8085938 L 40.5 7.0136719 C 40.5 5.4986719 39.897172 4.0463594 38.826172 2.9746094 C 37.754422 1.9036094 36.302109 1.3007812 34.787109 1.3007812 L 30.078125 1.3007812 L 17.921875 1.3007812 L 13.212891 1.3007812 z " />
  <path
     d="m 18,4.3783693 v 5.9999997 h -2 v 9 h 2 v 3.5 l -2,1.5 v -2 h -2 v 3 H 8 v 2 h 6 v 4 h 2 v -2.586 l 2,2 v 3.586 h -2 v 2 h 2.832 c 0.108,0.018 0.218,0.018 0.326,0 H 22 v -2 h -2 v -3.824 c 0.038,-0.226 -0.003,-0.457 -0.115,-0.656 -0.069,-0.13 -0.165,-0.242 -0.281,-0.331 l -3.083,-3.082 2.958,-2.214 c 0.186,-0.102 0.335,-0.261 0.425,-0.454 0.091,-0.181 0.125,-0.386 0.096,-0.587 v -0.852 h 8 v 2 h 8.414 l 3,-3 -3,-3 H 28 v 2 h -8 v -1 h 2 v -9 H 20 V 4.3783693 Z m 0,7.9999997 h 2 v 5 h -2 z m 12,8 h 5.586 l 1,1 -1,1 H 30 Z m -7,6 v 11 h 2 v -9 h 15 v -2 z m 3,3 v 2 h 4 v -2 z m 6,0 v 2 h 7 v -2 z m -6,5 v 2 h 5 v -2 z m 9,0 v 2 h 4 v -2 z"
     fill="#e8825c"
     fill-rule="nonzero"
     id="path9" />
  <path
     id="path1057"
     style="fill:#6e200e;fill-opacity:1"
     d="m 7.4998611,38.867102 v 2.11914 c 0,1.515 0.602828,2.967063 1.6738282,4.039063 0.804,0.80325 1.8221387,1.342751 2.9199217,1.5625 0,0 0.002,0 0.002,0 0.182349,0.03644 0.366588,0.06547 0.552735,0.08398 0,0 0.002,0 0.002,0 0.186155,0.01845 0.37378,0.02734 0.5625,0.02734 h 0.002 21.570311 c 0.568125,0 1.128065,-0.0856 1.662109,-0.248047 0.889502,-0.27074 1.708906,-0.756406 2.378906,-1.425781 1.071,-1.072 1.673828,-2.524063 1.673828,-4.039063 v -2.11914 z" />
</svg>
