<?xml version="1.0" encoding="UTF-8" standalone="no"?>
<svg
   clip-rule="evenodd"
   fill-rule="evenodd"
   stroke-linejoin="round"
   stroke-miterlimit="2"
   viewBox="0 0 64 64"
   version="1.1"
   id="svg15"
   sodipodi:docname="application-vnd.ms-htmlhelp.svg"
   inkscape:version="1.1.2 (0a00cf5339, 2022-02-04)"
   xmlns:inkscape="http://www.inkscape.org/namespaces/inkscape"
   xmlns:sodipodi="http://sodipodi.sourceforge.net/DTD/sodipodi-0.dtd"
   xmlns:xlink="http://www.w3.org/1999/xlink"
   xmlns="http://www.w3.org/2000/svg"
   xmlns:svg="http://www.w3.org/2000/svg">
  <defs
     id="defs19">
    <linearGradient
       inkscape:collect="always"
       xlink:href="#a"
       id="linearGradient6142"
       gradientUnits="userSpaceOnUse"
       gradientTransform="matrix(0,-49.619,49.619,0,177.88,51.088)"
       x2="1" />
  </defs>
  <sodipodi:namedview
     id="namedview17"
     pagecolor="#ffffff"
     bordercolor="#666666"
     borderopacity="1.0"
     inkscape:pageshadow="2"
     inkscape:pageopacity="0.0"
     inkscape:pagecheckerboard="0"
     showgrid="false"
     inkscape:zoom="10.671875"
     inkscape:cx="33.967789"
     inkscape:cy="33.218155"
     inkscape:window-width="945"
     inkscape:window-height="1026"
     inkscape:window-x="965"
     inkscape:window-y="44"
     inkscape:window-maximized="1"
     inkscape:current-layer="svg15" />
  <linearGradient
     id="a"
     x2="1"
     gradientTransform="matrix(0,-49.619,49.619,0,177.88,51.088)"
     gradientUnits="userSpaceOnUse">
    <stop
       stop-color="#acc2d0"
       offset="0"
       id="stop2" />
    <stop
       stop-color="#e1e1e1"
       offset="1"
       id="stop4" />
  </linearGradient>
  <path
     id="path7"
     style="fill:url(#linearGradient6142)"
     d="M 17.617188 1.46875 C 15.597188 1.46875 13.659469 2.2712188 12.230469 3.6992188 C 10.802469 5.1282186 10 7.0678906 10 9.0878906 L 10 13.648438 L 10 54.382812 C 10 56.402814 10.802469 58.340531 12.230469 59.769531 C 13.659469 61.197531 15.597187 62 17.617188 62 L 46.382812 62 C 48.402814 62 50.340531 61.197531 51.769531 59.769531 C 53.197531 58.340531 54 56.402814 54 54.382812 L 54 13.648438 L 54 9.0878906 C 54 7.0678906 53.197531 5.1282186 51.769531 3.6992188 C 50.340531 2.2712188 48.402813 1.46875 46.382812 1.46875 L 37.318359 1.46875 L 26.681641 1.46875 L 17.617188 1.46875 z " />
  <g
     fill-rule="nonzero"
     id="g13"
     transform="translate(0,-1.4500423)">
    <path
       d="M 31.887,17 C 23.701,17.062 17,23.814 17,32 c 0,8.229 6.771,15 15,15 8.229,0 15,-6.771 15,-15 0,-8.229 -6.771,-15 -15,-15 z m 0.103,6 H 32 c 4.937,0 9,4.063 9,9 0,4.937 -4.063,9 -9,9 -4.937,0 -9,-4.063 -9,-9 0,-4.934 4.057,-8.995 8.99,-9 z"
       fill="#0959ff"
       id="path9" />
    <path
       d="m 18.376,25.781 c -0.9,1.949 -1.369,4.07 -1.375,6.217 0,2.219 0.506,4.324 1.375,6.221 l 5.25,-3.001 c -0.405,-1.025 -0.617,-2.117 -0.627,-3.22 0,-1.134 0.242,-2.219 0.627,-3.216 m 22.001,-3.001 -5.253,3.001 c 0.385,0.997 0.627,2.078 0.627,3.216 0,1.138 -0.242,2.219 -0.624,3.22 l 5.25,3.001 c 0.866,-1.897 1.372,-4.002 1.372,-6.221 0,-2.219 -0.506,-4.324 -1.372,-6.217 m -16.845,14.596 -3.001,5.247 c 1.897,0.869 4.002,1.375 6.221,1.375 2.219,0 4.324,-0.506 6.217,-1.375 l -3.001,-5.25 c -0.997,0.385 -2.078,0.627 -3.216,0.627 -1.138,0 -2.219,-0.242 -3.22,-0.627 m 3.22,-23.373 c -2.219,0 -4.324,0.506 -6.221,1.372 l 3.001,5.253 c 1.001,-0.385 2.078,-0.627 3.22,-0.627 1.134,0 2.219,0.242 3.216,0.624 l 3.001,-5.25 c -1.949,-0.9 -4.07,-1.368 -6.217,-1.372"
       fill="#ffffff"
       id="path11" />
  </g>
  <path
     id="path914"
     style="clip-rule:evenodd;fill:#7d9fb5;fill-opacity:1;fill-rule:evenodd;stroke-width:1;stroke-linejoin:round;stroke-miterlimit:2"
     d="m 9.9999998,50.982422 v 3.40039 c 0,2.020002 0.8024692,3.957719 2.2304692,5.386719 1.429,1.428 3.366717,2.230469 5.386719,2.230469 h 28.765624 c 2.020002,0 3.957719,-0.802469 5.386719,-2.230469 C 53.197531,58.340531 54,56.402814 54,54.382812 v -3.40039 z" />
</svg>
