<?xml version="1.0" encoding="UTF-8" standalone="no"?>
<svg
   clip-rule="evenodd"
   fill-rule="evenodd"
   stroke-linejoin="round"
   stroke-miterlimit="2"
   viewBox="0 0 48 48"
   version="1.1"
   id="svg11"
   sodipodi:docname="application-x-eqonomize.svg"
   inkscape:version="1.1.2 (0a00cf5339, 2022-02-04)"
   xmlns:inkscape="http://www.inkscape.org/namespaces/inkscape"
   xmlns:sodipodi="http://sodipodi.sourceforge.net/DTD/sodipodi-0.dtd"
   xmlns:xlink="http://www.w3.org/1999/xlink"
   xmlns="http://www.w3.org/2000/svg"
   xmlns:svg="http://www.w3.org/2000/svg">
  <defs
     id="defs15">
    <linearGradient
       inkscape:collect="always"
       xlink:href="#a"
       id="linearGradient3100"
       gradientUnits="userSpaceOnUse"
       gradientTransform="matrix(0,-37.2142,37.2142,0,133.41,38.316)"
       x2="1" />
  </defs>
  <sodipodi:namedview
     id="namedview13"
     pagecolor="#ffffff"
     bordercolor="#666666"
     borderopacity="1.0"
     inkscape:pageshadow="2"
     inkscape:pageopacity="0.0"
     inkscape:pagecheckerboard="0"
     showgrid="false"
     inkscape:lockguides="true"
     inkscape:zoom="16"
     inkscape:cx="28.875"
     inkscape:cy="22.875"
     inkscape:window-width="1896"
     inkscape:window-height="1022"
     inkscape:window-x="12"
     inkscape:window-y="46"
     inkscape:window-maximized="1"
     inkscape:current-layer="svg11" />
  <linearGradient
     id="a"
     x2="1"
     gradientTransform="matrix(0,-37.2142,37.2142,0,133.41,38.316)"
     gradientUnits="userSpaceOnUse">
    <stop
       stop-color="#6083a3"
       offset="0"
       id="stop2" />
    <stop
       stop-color="#8ba8b1"
       offset="1"
       id="stop4" />
  </linearGradient>
  <path
     id="path7"
     style="fill:url(#linearGradient3100)"
     d="M 13.214844 1.1015625 C 11.699844 1.1015625 10.245828 1.7043906 9.1738281 2.7753906 C 8.1028281 3.8473906 7.5 5.2994531 7.5 6.8144531 L 7.5 8.9511719 L 7.5 40.787109 C 7.5 42.302109 8.1028281 43.754172 9.1738281 44.826172 C 9.9778281 45.629422 10.995967 46.168923 12.09375 46.388672 C 12.094369 46.388796 12.095084 46.388548 12.095703 46.388672 C 12.278052 46.42511 12.462292 46.454145 12.648438 46.472656 C 12.649081 46.47272 12.649747 46.472592 12.650391 46.472656 C 12.836546 46.491104 13.024169 46.5 13.212891 46.5 C 13.213544 46.5 13.21419 46.5 13.214844 46.5 L 34.785156 46.5 C 35.353281 46.5 35.913222 46.414397 36.447266 46.251953 C 37.336767 45.981213 38.156172 45.495547 38.826172 44.826172 C 39.897172 43.754172 40.5 42.302109 40.5 40.787109 L 40.5 8.9511719 L 40.5 6.8144531 C 40.5 5.2994531 39.897172 3.8473906 38.826172 2.7753906 C 37.754172 1.7043906 36.300156 1.1015625 34.785156 1.1015625 L 30.357422 1.1015625 L 17.642578 1.1015625 L 13.214844 1.1015625 z " />
  <path
     id="path1057"
     style="fill:#27518c;fill-opacity:1"
     d="m 7.499861,38.667977 v 2.11914 c 0,1.515 0.602828,2.967063 1.673828,4.039063 0.804,0.80325 1.822139,1.342751 2.919922,1.5625 0,0 0.002,0 0.002,0 0.182349,0.03644 0.366588,0.06547 0.552735,0.08398 0,0 0.002,0 0.002,0 0.186155,0.01845 0.37378,0.02734 0.5625,0.02734 h 0.002 21.570311 c 0.568125,0 1.128065,-0.0856 1.662109,-0.248047 0.889502,-0.27074 1.708906,-0.756406 2.378906,-1.425781 1.071,-1.072 1.673828,-2.524063 1.673828,-4.039063 v -2.11914 z" />
  <path
     d="m 32,13.92559 h -7 v 17 h 7 z m -9,7 h -7 v 10 h 7 z m 5.769,3.002 c -0.615,-0.027 -1.019,0.178 -1.333,0.531 -0.313,0.35 -0.428,0.872 -0.513,1.469 H 26.308 L 26,26.59359 h 0.927 c -0.001,0.1 -0.006,0.216 -0.008,0.333 0.002,0.118 0.007,0.234 0.008,0.333 H 26.308 L 26,27.92659 h 0.923 c 0.085,0.596 0.2,1.119 0.513,1.468 0.314,0.354 0.718,0.531 1.333,0.531 0.616,0 1.231,-0.668 1.231,-0.668 v -0.657 c 0,0 -0.691,0.626 -1.231,0.659 -0.539,0.033 -1.044,-0.407 -1.21,-1.333 h 1.21 l 0.308,-0.667 h -1.539 c -0.008,-0.094 -0.009,-0.214 -0.007,-0.333 -0.002,-0.119 -10e-4,-0.238 0.007,-0.333 h 1.539 l 0.308,-0.666 h -1.826 c 0.166,-0.926 0.646,-1.352 1.21,-1.333 0.564,0.019 1.231,0.658 1.231,0.658 v -0.657 c 0,0 -0.615,-0.64 -1.231,-0.668 z M 22,15.92659 v -1.001 l 2,1.5 -2,1.5 v -1 c -0.662,0.002 -1.277,0.013 -1.824,0.09 -0.571,0.079 -1.062,0.225 -1.43,0.544 -0.5,0.432 -0.746,1.166 -0.746,2.366 h -1 c 0,-1.6 0.426,-2.546 1.091,-3.122 0.411,-0.355 0.922,-0.576 1.518,-0.704 0.689,-0.147 1.501,-0.17 2.391,-0.173 z"
     fill="#27518c"
     id="path9" />
</svg>
