<?xml version="1.0" encoding="UTF-8" standalone="no"?>
<svg
   style="clip-rule:evenodd;fill-rule:evenodd;stroke-linejoin:round;stroke-miterlimit:2"
   viewBox="0 0 64 64"
   version="1.1"
   id="svg21"
   sodipodi:docname="application-flash.svg"
   inkscape:version="1.1.2 (0a00cf5339, 2022-02-04)"
   xmlns:inkscape="http://www.inkscape.org/namespaces/inkscape"
   xmlns:sodipodi="http://sodipodi.sourceforge.net/DTD/sodipodi-0.dtd"
   xmlns:xlink="http://www.w3.org/1999/xlink"
   xmlns="http://www.w3.org/2000/svg"
   xmlns:svg="http://www.w3.org/2000/svg">
  <sodipodi:namedview
     id="namedview23"
     pagecolor="#ffffff"
     bordercolor="#666666"
     borderopacity="1.0"
     inkscape:pageshadow="2"
     inkscape:pageopacity="0.0"
     inkscape:pagecheckerboard="0"
     showgrid="false"
     inkscape:zoom="10.671875"
     inkscape:cx="37.622255"
     inkscape:cy="33.499268"
     inkscape:window-width="945"
     inkscape:window-height="1026"
     inkscape:window-x="965"
     inkscape:window-y="44"
     inkscape:window-maximized="1"
     inkscape:current-layer="svg21"
     inkscape:lockguides="true" />
  <path
     id="path2"
     style="fill:url(#linearGradient939)"
     d="M 17.617188 1.46875 C 15.597188 1.46875 13.659469 2.2712188 12.230469 3.6992188 C 10.802469 5.1282186 10 7.0678906 10 9.0878906 L 10 16.294922 L 10 54.382812 C 10 56.402814 10.802469 58.340531 12.230469 59.769531 C 13.659469 61.197531 15.597187 62 17.617188 62 L 46.382812 62 C 48.402814 62 50.340531 61.197531 51.769531 59.769531 C 53.197531 58.340531 54 56.402814 54 54.382812 L 54 16.294922 L 54 9.0878906 C 54 7.0678906 53.197531 5.1282186 51.769531 3.6992188 C 50.340531 2.2712188 48.402813 1.46875 46.382812 1.46875 L 37.994141 1.46875 L 26.005859 1.46875 L 17.617188 1.46875 z " />
  <path
     d="m 54,50.184 v 4.198 c 0,2.02 -0.802999,3.958 -2.231,5.387 C 50.340001,61.197 48.402001,62 46.382,62 H 17.618 c -2.019999,0 -3.957999,-0.803 -5.386999,-2.231 -1.428,-1.429 -2.231,-3.367 -2.231,-5.387 v -4.198 z"
     style="clip-rule:evenodd;fill:#571c1b;fill-rule:evenodd;stroke-linejoin:round;stroke-miterlimit:2;fill-opacity:1"
     id="path4-3" />
  <path
     d="m25.455 55.124h1.049v0.688h-1.049v3.328h-0.754v-3.328h-0.754v-0.688h0.754v-0.533c0-0.409 0.131-0.737 0.393-0.983 0.263-0.246 0.607-0.369 1.033-0.369h1.885v5.901h-0.754v-5.213h-1.131c-0.197 0-0.358 0.061-0.484 0.181-0.125 0.115-0.188 0.284-0.188 0.508v0.508z"
     style="fill-rule:nonzero;fill:#fff"
     id="path4" />
  <path
     d="m30.154 59.271c-0.427 0-0.784-0.123-1.074-0.369-0.284-0.246-0.426-0.571-0.426-0.975 0-0.437 0.169-0.779 0.508-1.025 0.339-0.251 0.757-0.377 1.254-0.377 0.442 0 0.806 0.082 1.09 0.246v-0.114c0-0.295-0.101-0.53-0.303-0.705-0.203-0.181-0.451-0.271-0.746-0.271-0.219 0-0.418 0.052-0.598 0.156-0.175 0.104-0.296 0.246-0.361 0.426l-0.689-0.295c0.093-0.24 0.276-0.462 0.55-0.664 0.273-0.207 0.633-0.311 1.081-0.311 0.514 0 0.94 0.15 1.279 0.451 0.339 0.3 0.508 0.724 0.508 1.27v2.426h-0.721v-0.557h-0.033c-0.3 0.458-0.74 0.688-1.319 0.688zm0.122-0.688c0.312 0 0.593-0.115 0.845-0.345 0.256-0.235 0.385-0.511 0.385-0.827-0.213-0.175-0.533-0.263-0.959-0.263-0.366 0-0.642 0.08-0.828 0.238s-0.278 0.344-0.278 0.557c0 0.197 0.084 0.353 0.254 0.467 0.169 0.115 0.363 0.173 0.581 0.173z"
     style="fill-rule:nonzero;fill:#fff"
     id="path6" />
  <path
     d="m34.521 59.271c-0.448 0-0.82-0.109-1.115-0.328-0.29-0.218-0.503-0.492-0.639-0.819l0.672-0.279c0.213 0.503 0.576 0.754 1.09 0.754 0.235 0 0.426-0.052 0.573-0.156 0.153-0.104 0.23-0.24 0.23-0.41 0-0.262-0.183-0.439-0.549-0.532l-0.812-0.197c-0.256-0.066-0.499-0.188-0.729-0.369-0.229-0.186-0.344-0.434-0.344-0.746 0-0.355 0.156-0.642 0.467-0.86 0.317-0.224 0.691-0.336 1.123-0.336 0.355 0 0.672 0.082 0.95 0.246 0.279 0.158 0.479 0.388 0.599 0.688l-0.656 0.271c-0.147-0.356-0.453-0.533-0.918-0.533-0.224 0-0.412 0.046-0.565 0.139s-0.23 0.219-0.23 0.377c0 0.23 0.178 0.385 0.533 0.467l0.795 0.189c0.377 0.087 0.656 0.238 0.836 0.451s0.27 0.453 0.27 0.721c0 0.36-0.147 0.661-0.442 0.901-0.295 0.241-0.675 0.361-1.139 0.361z"
     style="fill-rule:nonzero;fill:#fff"
     id="path8" />
  <path
     d="m37.513 53.272v1.852l-0.033 0.557h0.033c0.109-0.191 0.281-0.352 0.516-0.483 0.235-0.137 0.486-0.205 0.754-0.205 0.497 0 0.877 0.153 1.139 0.459s0.393 0.716 0.393 1.229v2.459h-0.754v-2.344c0-0.743-0.33-1.115-0.991-1.115-0.312 0-0.566 0.126-0.762 0.377-0.197 0.246-0.295 0.533-0.295 0.861v2.221h-0.754v-5.868h0.754z"
     style="fill-rule:nonzero;fill:#fff"
     id="path10" />
  <path
     d="m41.192 15.964v4.426c-4.519 0.078-5.63 4.387-5.63 4.387h3.409v4.426h-5.285c-3.179 9.588-10.494 8.735-10.494 8.735v-4.426s4.642 0.842 7.009-7.609c2.96-10.572 10.991-9.939 10.991-9.939z"
     style="fill-rule:nonzero;fill:#571c1b;fill-opacity:1"
     id="path12" />
  <defs
     id="defs19">
    <linearGradient
       id="_Linear1"
       x2="1"
       gradientTransform="matrix(0,-49.619,49.619,0,177.88,51.088)"
       gradientUnits="userSpaceOnUse">
      <stop
         style="stop-color:#941917"
         offset="0"
         id="stop14" />
      <stop
         style="stop-color:#f3201b"
         offset="1"
         id="stop16" />
    </linearGradient>
    <linearGradient
       inkscape:collect="always"
       xlink:href="#_Linear1"
       id="linearGradient939"
       gradientUnits="userSpaceOnUse"
       gradientTransform="matrix(0,-49.619,49.619,0,177.88,51.088)"
       x2="1" />
  </defs>
</svg>
