<?xml version="1.0" encoding="UTF-8" standalone="no"?>
<svg
   style="clip-rule:evenodd;fill-rule:evenodd;stroke-linejoin:round;stroke-miterlimit:2"
   viewBox="0 0 64 64"
   version="1.1"
   id="svg21"
   sodipodi:docname="application-epub+zip.svg"
   inkscape:version="1.1.2 (0a00cf5339, 2022-02-04)"
   xmlns:inkscape="http://www.inkscape.org/namespaces/inkscape"
   xmlns:sodipodi="http://sodipodi.sourceforge.net/DTD/sodipodi-0.dtd"
   xmlns:xlink="http://www.w3.org/1999/xlink"
   xmlns="http://www.w3.org/2000/svg"
   xmlns:svg="http://www.w3.org/2000/svg">
  <sodipodi:namedview
     id="namedview23"
     pagecolor="#ffffff"
     bordercolor="#666666"
     borderopacity="1.0"
     inkscape:pageshadow="2"
     inkscape:pageopacity="0.0"
     inkscape:pagecheckerboard="0"
     showgrid="false"
     inkscape:zoom="10.671875"
     inkscape:cx="12.931186"
     inkscape:cy="34.342606"
     inkscape:window-width="942"
     inkscape:window-height="1022"
     inkscape:window-x="966"
     inkscape:window-y="46"
     inkscape:window-maximized="1"
     inkscape:current-layer="svg21" />
  <path
     id="path2"
     style="fill:url(#linearGradient3884)"
     d="M 17.617188 1.46875 C 15.597188 1.46875 13.659469 2.2712188 12.230469 3.6992188 C 10.802469 5.1282186 10 7.0678906 10 9.0878906 L 10 15.107422 L 10 54.382812 C 10 56.402814 10.802469 58.340531 12.230469 59.769531 C 13.659469 61.197531 15.597187 62 17.617188 62 L 46.382812 62 C 48.402814 62 50.340531 61.197531 51.769531 59.769531 C 53.197531 58.340531 54 56.402814 54 54.382812 L 54 15.107422 L 54 9.0878906 C 54 7.0678906 53.197531 5.1282186 51.769531 3.6992188 C 50.340531 2.2712188 48.402813 1.46875 46.382812 1.46875 L 38.298828 1.46875 L 25.701172 1.46875 L 17.617188 1.46875 z " />
  <path
     d="m 54,50.184 v 4.198 c 0,2.02 -0.803,3.958 -2.231,5.387 C 50.34,61.197 48.402,62 46.382,62 H 17.618 C 15.598,62 13.66,61.197 12.231,59.769 10.803,58.34 9.9999997,56.402 9.9999997,54.382 v -4.198 z"
     style="clip-rule:evenodd;fill:#6f350c;fill-rule:evenodd;stroke-linejoin:round;stroke-miterlimit:2;fill-opacity:1"
     id="path4-3" />
  <g
     id="g3891"
     transform="translate(0,-1.099)">
    <path
       d="m 25.429,59.371 c -0.607,0 -1.101,-0.202 -1.484,-0.606 -0.377,-0.405 -0.565,-0.916 -0.565,-1.533 0,-0.585 0.183,-1.087 0.549,-1.508 0.372,-0.421 0.844,-0.631 1.418,-0.631 0.595,0 1.071,0.194 1.426,0.582 0.361,0.388 0.541,0.907 0.541,1.557 l -0.008,0.139 h -3.172 c 0.022,0.405 0.156,0.724 0.402,0.959 0.251,0.235 0.543,0.353 0.876,0.353 0.541,0 0.907,-0.23 1.099,-0.689 l 0.672,0.279 c -0.131,0.311 -0.347,0.574 -0.648,0.787 -0.3,0.207 -0.669,0.311 -1.106,0.311 z m 1.082,-2.622 c -0.017,-0.23 -0.123,-0.448 -0.32,-0.656 -0.191,-0.208 -0.478,-0.311 -0.86,-0.311 -0.279,0 -0.522,0.087 -0.73,0.262 -0.202,0.175 -0.341,0.41 -0.418,0.705 z"
       style="fill:#ffffff;fill-rule:nonzero"
       id="path4" />
    <path
       d="m 30.085,59.371 c -0.306,0 -0.582,-0.065 -0.828,-0.197 -0.24,-0.131 -0.42,-0.295 -0.54,-0.491 h -0.033 l 0.033,0.557 v 1.77 h -0.754 v -5.786 h 0.721 v 0.558 h 0.033 c 0.12,-0.197 0.3,-0.361 0.54,-0.492 0.246,-0.131 0.522,-0.197 0.828,-0.197 0.519,0 0.967,0.205 1.344,0.615 0.377,0.41 0.566,0.918 0.566,1.524 0,0.607 -0.189,1.115 -0.566,1.524 -0.377,0.41 -0.825,0.615 -1.344,0.615 z m -0.123,-0.688 c 0.35,0 0.65,-0.131 0.902,-0.394 0.251,-0.267 0.377,-0.62 0.377,-1.057 0,-0.437 -0.126,-0.787 -0.377,-1.049 -0.252,-0.268 -0.552,-0.401 -0.902,-0.401 -0.355,0 -0.658,0.131 -0.909,0.393 -0.246,0.262 -0.369,0.615 -0.369,1.057 0,0.443 0.123,0.795 0.369,1.057 0.251,0.263 0.554,0.394 0.909,0.394 z"
       style="fill:#ffffff;fill-rule:nonzero"
       id="path6" />
    <path
       d="M 36.161,59.24 H 35.44 v -0.557 h -0.033 c -0.114,0.191 -0.289,0.355 -0.524,0.491 -0.235,0.132 -0.484,0.197 -0.746,0.197 -0.503,0 -0.885,-0.153 -1.147,-0.459 -0.257,-0.306 -0.385,-0.716 -0.385,-1.229 v -2.459 h 0.754 v 2.336 c 0,0.748 0.33,1.123 0.991,1.123 0.312,0 0.566,-0.126 0.762,-0.377 0.197,-0.252 0.295,-0.541 0.295,-0.869 v -2.213 h 0.754 z"
       style="fill:#ffffff;fill-rule:nonzero"
       id="path8" />
    <path
       d="m 39.21,59.371 c -0.306,0 -0.582,-0.065 -0.828,-0.197 -0.24,-0.131 -0.421,-0.295 -0.541,-0.491 h -0.033 v 0.557 h -0.721 v -5.868 h 0.754 v 1.852 l -0.033,0.558 h 0.033 c 0.12,-0.197 0.301,-0.361 0.541,-0.492 0.246,-0.131 0.522,-0.197 0.828,-0.197 0.519,0 0.967,0.205 1.344,0.615 0.377,0.41 0.565,0.918 0.565,1.524 0,0.607 -0.188,1.115 -0.565,1.524 -0.377,0.41 -0.825,0.615 -1.344,0.615 z m -0.123,-0.688 c 0.35,0 0.65,-0.131 0.901,-0.394 0.252,-0.267 0.377,-0.62 0.377,-1.057 0,-0.437 -0.125,-0.787 -0.377,-1.049 -0.251,-0.268 -0.551,-0.401 -0.901,-0.401 -0.355,0 -0.658,0.131 -0.91,0.393 -0.246,0.262 -0.369,0.615 -0.369,1.057 0,0.443 0.123,0.795 0.369,1.057 0.252,0.263 0.555,0.394 0.91,0.394 z"
       style="fill:#ffffff;fill-rule:nonzero"
       id="path10" />
  </g>
  <path
     d="m32 33.913l-6.913-6.913 6.913-6.913 2.304 2.304-4.609 4.609 2.305 2.304 6.913-6.913-6.022-6.022c-0.492-0.492-1.29-0.492-1.782 0l-9.74 9.74c-0.492 0.492-0.492 1.29 0 1.782l9.74 9.74c0.492 0.492 1.29 0.492 1.782 0l9.74-9.74c0.492-0.492 0.492-1.29 0-1.782l-1.414-1.413-9.217 9.217z"
     style="fill-rule:nonzero;fill:#6f350c"
     id="path12" />
  <defs
     id="defs19">
    <linearGradient
       id="_Linear1"
       x2="1"
       gradientTransform="matrix(0,-49.619,49.619,0,250.77,51.088)"
       gradientUnits="userSpaceOnUse">
      <stop
         style="stop-color:#b1530f"
         offset="0"
         id="stop14" />
      <stop
         style="stop-color:#fbb321"
         offset="1"
         id="stop16" />
    </linearGradient>
    <linearGradient
       inkscape:collect="always"
       xlink:href="#_Linear1"
       id="linearGradient3884"
       gradientUnits="userSpaceOnUse"
       gradientTransform="matrix(0,-49.619,49.619,0,250.77,51.088)"
       x2="1" />
  </defs>
</svg>
