<?xml version="1.0" encoding="UTF-8" standalone="no"?>
<svg
   style="clip-rule:evenodd;fill-rule:evenodd;stroke-linejoin:round;stroke-miterlimit:2"
   viewBox="0 0 64 64"
   version="1.1"
   id="svg13"
   sodipodi:docname="application-x-hip.svg"
   inkscape:version="1.1.2 (0a00cf5339, 2022-02-04)"
   xmlns:inkscape="http://www.inkscape.org/namespaces/inkscape"
   xmlns:sodipodi="http://sodipodi.sourceforge.net/DTD/sodipodi-0.dtd"
   xmlns:xlink="http://www.w3.org/1999/xlink"
   xmlns="http://www.w3.org/2000/svg"
   xmlns:svg="http://www.w3.org/2000/svg">
  <sodipodi:namedview
     id="namedview15"
     pagecolor="#ffffff"
     bordercolor="#666666"
     borderopacity="1.0"
     inkscape:pageshadow="2"
     inkscape:pageopacity="0.0"
     inkscape:pagecheckerboard="0"
     showgrid="false"
     inkscape:zoom="10.65625"
     inkscape:cx="32"
     inkscape:cy="32"
     inkscape:window-width="1896"
     inkscape:window-height="1022"
     inkscape:window-x="12"
     inkscape:window-y="46"
     inkscape:window-maximized="1"
     inkscape:current-layer="svg13" />
  <path
     id="path2"
     style="fill:url(#linearGradient949)"
     d="M 17.617188 1.46875 C 15.597188 1.46875 13.659469 2.2712188 12.230469 3.6992188 C 10.802469 5.1282186 10 7.0678906 10 9.0878906 L 10 9.1972656 L 10 54.382812 C 10 56.402814 10.802469 58.340531 12.230469 59.769531 C 13.659469 61.197531 15.597187 62 17.617188 62 L 46.382812 62 C 48.402814 62 50.340531 61.197531 51.769531 59.769531 C 53.197531 58.340531 54 56.402814 54 54.382812 L 54 9.1972656 L 54 9.0878906 C 54 7.0678906 53.197531 5.1282186 51.769531 3.6992188 C 50.340531 2.2712188 48.402813 1.46875 46.382812 1.46875 L 42.189453 1.46875 L 21.810547 1.46875 L 17.617188 1.46875 z " />
  <path
     d="m29.482 15.042c-5.006-3e-3 -9.234 1.609-12.482 4.102v4.879c2.654-2.756 6.532-4.679 11.478-4.754 0.33-5e-3 0.664-1e-3 1.004 0.011 7.659 0.264 12.756 6.377 12.763 12.726 0.01 7.011-4.32 11.8-11.62 11.709-4.971-0.062-9.815-3.466-9.692-8.644 0.098-4.112 3.008-7.437 7.632-7.547 3.737-0.089 5.243 2.493 5.243 4.09 0 1.515-0.895 3.467-3.095 3.937-1.776 0.379-4.289-1.485-2.391-4.027-1.94-0.089-3.632 1.138-3.732 3.312-0.195 4.214 4.171 5.85 6.961 5.402 5.116-0.821 7.012-4.152 6.989-8.677-0.025-4.734-4.31-8.921-9.863-8.977-4.445-0.044-9.752 2.506-11.677 8.067v8.52c1.028 2.68 3.093 5.208 6.015 6.871h16.124c4.796-2.567 7.858-7.5 7.861-14.061 3e-3 -9.445-6.802-16.933-17.518-16.939z"
     style="fill-opacity:.62;fill-rule:nonzero;fill:#e4e4e4"
     id="path4" />
  <defs
     id="defs11">
    <linearGradient
       id="_Linear1"
       x2="1"
       gradientTransform="matrix(0,-49.619,49.619,0,615.22,51.088)"
       gradientUnits="userSpaceOnUse">
      <stop
         style="stop-color:#f36128"
         offset="0"
         id="stop6" />
      <stop
         style="stop-color:#f58153"
         offset="1"
         id="stop8" />
    </linearGradient>
    <linearGradient
       inkscape:collect="always"
       xlink:href="#_Linear1"
       id="linearGradient949"
       gradientUnits="userSpaceOnUse"
       gradientTransform="matrix(0,-49.619,49.619,0,615.22,51.088)"
       x2="1" />
  </defs>
  <path
     id="path2-3"
     style="clip-rule:evenodd;fill:#af4f20;fill-opacity:1;fill-rule:evenodd;stroke-linejoin:round;stroke-miterlimit:2"
     d="m 10,50.982422 v 3.398437 0.002 c 6.5e-5,0.251841 0.01244,0.501552 0.03711,0.75 v 0.002 c 0.02473,0.248442 0.06268,0.494885 0.111329,0.738281 v 0.002 c 0.04871,0.243391 0.109702,0.484016 0.18164,0.720703 v 0.002 c 0.072,0.236684 0.155456,0.468944 0.25,0.697266 v 0.002 c 0.09461,0.228323 0.199937,0.453573 0.316406,0.671875 v 0.002 c 0.116532,0.218305 0.245101,0.430096 0.382814,0.636719 v 0.002 c 0.137775,0.206628 0.287037,0.406326 0.445311,0.599609 v 0.002 c 0.158341,0.193289 0.327703,0.378358 0.505861,0.55664 v 0.002 c 0.714499,0.714 1.5571,1.271274 2.472656,1.650391 C 15.618679,61.799106 16.607187,62 17.617188,62 h 28.765624 c 1.010002,0 1.998509,-0.200473 2.914063,-0.580078 0.915555,-0.379117 1.758156,-0.936391 2.472656,-1.650391 v -0.002 C 53.197531,58.338626 54,56.400859 54,54.380859 v -3.398437 z" />
</svg>
