<?xml version="1.0" encoding="UTF-8" standalone="no"?>
<svg
   clip-rule="evenodd"
   fill-rule="evenodd"
   stroke-linejoin="round"
   stroke-miterlimit="2"
   viewBox="0 0 48 48"
   version="1.1"
   id="svg11"
   sodipodi:docname="application-x-atari-2600-rom.svg"
   inkscape:version="1.1.2 (0a00cf5339, 2022-02-04)"
   xmlns:inkscape="http://www.inkscape.org/namespaces/inkscape"
   xmlns:sodipodi="http://sodipodi.sourceforge.net/DTD/sodipodi-0.dtd"
   xmlns:xlink="http://www.w3.org/1999/xlink"
   xmlns="http://www.w3.org/2000/svg"
   xmlns:svg="http://www.w3.org/2000/svg">
  <defs
     id="defs15">
    <linearGradient
       inkscape:collect="always"
       xlink:href="#a"
       id="linearGradient6858"
       gradientUnits="userSpaceOnUse"
       gradientTransform="matrix(0,-37.21425,37.21425,0,461.415,38.515125)"
       x2="1" />
  </defs>
  <sodipodi:namedview
     id="namedview13"
     pagecolor="#ffffff"
     bordercolor="#666666"
     borderopacity="1.0"
     inkscape:pageshadow="2"
     inkscape:pageopacity="0.0"
     inkscape:pagecheckerboard="0"
     showgrid="false"
     inkscape:zoom="14.208333"
     inkscape:cx="24"
     inkscape:cy="24"
     inkscape:window-width="1896"
     inkscape:window-height="1022"
     inkscape:window-x="12"
     inkscape:window-y="46"
     inkscape:window-maximized="1"
     inkscape:current-layer="svg11" />
  <linearGradient
     id="a"
     x2="1"
     gradientTransform="matrix(0,-37.21425,37.21425,0,461.415,38.515125)"
     gradientUnits="userSpaceOnUse">
    <stop
       stop-color="#92345a"
       offset="0"
       id="stop2" />
    <stop
       stop-color="#cd7169"
       offset="1"
       id="stop4" />
  </linearGradient>
  <path
     id="path7"
     style="stroke-width:0.75;fill:url(#linearGradient6858)"
     d="M 13.212891 1.3007812 C 11.697891 1.3007812 10.245578 1.9036094 9.1738281 2.9746094 C 8.1028281 4.0463594 7.5 5.4986719 7.5 7.0136719 L 7.5 10.568359 L 7.5 40.986328 C 7.5 42.501328 8.1028281 43.953641 9.1738281 45.025391 C 10.245578 46.096391 11.697891 46.699219 13.212891 46.699219 L 34.787109 46.699219 C 36.302109 46.699219 37.754422 46.096391 38.826172 45.025391 C 39.897172 43.953641 40.5 42.501328 40.5 40.986328 L 40.5 10.568359 L 40.5 7.0136719 C 40.5 5.4986719 39.897172 4.0463594 38.826172 2.9746094 C 37.754422 1.9036094 36.302109 1.3007812 34.787109 1.3007812 L 27.607422 1.3007812 L 20.392578 1.3007812 L 13.212891 1.3007812 z " />
  <path
     d="m 20.621,14.387758 c -0.302,0.03 -0.316,0.022 -0.351,0.401 -0.057,5.223 -1.272,10.271 -4.461,12.679 -0.354,0.232 -0.393,0.233 -0.174,0.62 l 1.105,1.959 c 0.203,0.482 0.303,0.358 0.629,0.136 2.202,-1.54 3.607,-3.569 4.313,-6.058 0.238,-0.84 0.359,-1.733 0.425,-2.68 v 8.467 c -0.022,0.455 -0.003,0.467 0.418,0.467 h 3.188 c 0.438,0.048 0.281,-0.09 0.281,-0.496 v -7.51 c 0.069,0.605 0.166,1.192 0.324,1.752 0.706,2.489 2.111,4.518 4.313,6.058 0.326,0.222 0.426,0.346 0.629,-0.136 l 1.105,-1.959 c 0.219,-0.387 0.18,-0.388 -0.174,-0.62 -3.189,-2.408 -4.404,-7.456 -4.461,-12.679 -0.001,-0.323 -0.05,-0.406 -0.351,-0.401 z"
     fill="#ffffff"
     fill-opacity="0.5"
     fill-rule="nonzero"
     id="path9" />
  <path
     id="path1057"
     style="fill:#732e4a;fill-opacity:1"
     d="m 7.4998598,38.867102 v 2.11914 c 0,1.515 0.602828,2.967063 1.673828,4.039063 0.8039996,0.80325 1.8221392,1.342751 2.9199222,1.5625 0,0 0.002,0 0.002,0 0.182349,0.03644 0.366588,0.06547 0.552735,0.08398 0,0 0.002,0 0.002,0 0.186155,0.01845 0.373779,0.02734 0.5625,0.02734 h 0.002 21.570311 c 0.568125,0 1.128066,-0.0856 1.66211,-0.248047 0.889501,-0.27074 1.708906,-0.756406 2.378906,-1.425781 1.071,-1.072 1.673828,-2.524063 1.673828,-4.039063 v -2.11914 z" />
</svg>
