<?xml version="1.0" encoding="UTF-8" standalone="no"?>
<svg
   clip-rule="evenodd"
   fill-rule="evenodd"
   stroke-linejoin="round"
   stroke-miterlimit="2"
   viewBox="0 0 48 48"
   version="1.1"
   id="svg15"
   sodipodi:docname="application-x-vmware-vm-clone.svg"
   inkscape:version="1.1.2 (0a00cf5339, 2022-02-04)"
   xmlns:inkscape="http://www.inkscape.org/namespaces/inkscape"
   xmlns:sodipodi="http://sodipodi.sourceforge.net/DTD/sodipodi-0.dtd"
   xmlns:xlink="http://www.w3.org/1999/xlink"
   xmlns="http://www.w3.org/2000/svg"
   xmlns:svg="http://www.w3.org/2000/svg">
  <defs
     id="defs19">
    <linearGradient
       inkscape:collect="always"
       xlink:href="#a"
       id="linearGradient1007"
       gradientUnits="userSpaceOnUse"
       gradientTransform="matrix(0,-37.2142,37.2142,0,133.41,38.316)"
       x2="1" />
  </defs>
  <sodipodi:namedview
     id="namedview17"
     pagecolor="#ffffff"
     bordercolor="#666666"
     borderopacity="1.0"
     inkscape:pageshadow="2"
     inkscape:pageopacity="0.0"
     inkscape:pagecheckerboard="0"
     showgrid="false"
     inkscape:zoom="14.208333"
     inkscape:cx="24"
     inkscape:cy="24"
     inkscape:window-width="1896"
     inkscape:window-height="1022"
     inkscape:window-x="12"
     inkscape:window-y="46"
     inkscape:window-maximized="1"
     inkscape:current-layer="svg15" />
  <linearGradient
     id="a"
     x2="1"
     gradientTransform="matrix(0,-37.2142,37.2142,0,133.41,38.316)"
     gradientUnits="userSpaceOnUse">
    <stop
       stop-color="#003364"
       offset="0"
       id="stop2" />
    <stop
       stop-color="#006eb6"
       offset="1"
       id="stop4" />
  </linearGradient>
  <path
     id="path7"
     style="fill:url(#linearGradient1007)"
     d="M 13.214844 1.1015625 C 11.699844 1.1015625 10.245828 1.7043906 9.1738281 2.7753906 C 8.1028281 3.8473906 7.5 5.2994531 7.5 6.8144531 L 7.5 10.207031 L 7.5 40.787109 C 7.5 42.302109 8.1028281 43.754172 9.1738281 44.826172 C 9.9778281 45.629422 10.995967 46.168923 12.09375 46.388672 C 12.094369 46.388796 12.095084 46.388548 12.095703 46.388672 C 12.278052 46.42511 12.462292 46.454145 12.648438 46.472656 C 12.649081 46.47272 12.649747 46.472592 12.650391 46.472656 C 12.836546 46.491104 13.024169 46.5 13.212891 46.5 C 13.213544 46.5 13.21419 46.5 13.214844 46.5 L 34.785156 46.5 C 35.353281 46.5 35.913222 46.414397 36.447266 46.251953 C 37.336767 45.981213 38.156172 45.495547 38.826172 44.826172 C 39.897172 43.754172 40.5 42.302109 40.5 40.787109 L 40.5 10.207031 L 40.5 6.8144531 C 40.5 5.2994531 39.897172 3.8473906 38.826172 2.7753906 C 37.754172 1.7043906 36.300156 1.1015625 34.785156 1.1015625 L 29.052734 1.1015625 L 18.947266 1.1015625 L 13.214844 1.1015625 z " />
  <path
     d="m30.407 13.749c0-1.414-1.148-2.563-2.563-2.563h-10.251c-1.414 0-2.563 1.149-2.563 2.563v10.251c0 1.414 1.149 2.563 2.563 2.563h10.251c1.415 0 2.563-1.149 2.563-2.563zm-3.844 2.563c0-.707-.574-1.282-1.282-1.282h-5.125c-.707 0-1.281.575-1.281 1.282v5.125c0 .707.574 1.282 1.281 1.282h5.125c.708 0 1.282-.575 1.282-1.282z"
     fill="#003672"
     id="path9" />
  <path
     d="m36.814 20.156c0-1.415-1.149-2.563-2.563-2.563h-10.251c-1.414 0-2.563 1.148-2.563 2.563v10.251c0 1.414 1.149 2.563 2.563 2.563h10.251c1.414 0 2.563-1.149 2.563-2.563zm-3.844 3.203c0-.707-.575-1.281-1.282-1.281h-5.125c-.707 0-1.282.574-1.282 1.281v5.126c0 .707.575 1.281 1.282 1.281h5.125c.707 0 1.282-.574 1.282-1.281z"
     fill="#1e70be"
     id="path11" />
  <path
     d="m26.563 24c0-1.414-1.149-2.563-2.563-2.563h-10.251c-1.414 0-2.563 1.149-2.563 2.563v10.251c0 1.414 1.149 2.563 2.563 2.563h10.251c1.414 0 2.563-1.149 2.563-2.563zm-3.844 2.563c0-.707-.575-1.282-1.282-1.282h-5.125c-.707 0-1.282.575-1.282 1.282v5.125c0 .707.575 1.282 1.282 1.282h5.125c.707 0 1.282-.575 1.282-1.282z"
     fill="#005f9d"
     id="path13" />
  <path
     id="path1057"
     style="fill:#0c2c4f;fill-opacity:1"
     d="m 7.4998608,38.667977 v 2.11914 c 0,1.515 0.6028266,2.967063 1.6738286,4.039063 0.8039996,0.80325 1.8221386,1.342751 2.9199206,1.5625 0,0 0.002,0 0.002,0 0.182349,0.03644 0.366588,0.06547 0.552735,0.08398 0,0 0.002,0 0.002,0 0.186153,0.01845 0.37378,0.02734 0.5625,0.02734 h 0.002 21.570311 c 0.568124,0 1.128063,-0.0856 1.66211,-0.248047 0.8895,-0.27074 1.708905,-0.756406 2.378906,-1.425781 C 39.897171,43.754172 40.5,42.302109 40.5,40.787109 v -2.11914 z" />
</svg>
