<?xml version="1.0" encoding="UTF-8" standalone="no"?>
<svg
   clip-rule="evenodd"
   fill-rule="evenodd"
   stroke-linejoin="round"
   stroke-miterlimit="2"
   viewBox="0 0 48 48"
   version="1.1"
   id="svg13"
   sodipodi:docname="application-x-vmware-easter-egg.svg"
   inkscape:version="1.1.2 (0a00cf5339, 2022-02-04)"
   xmlns:inkscape="http://www.inkscape.org/namespaces/inkscape"
   xmlns:sodipodi="http://sodipodi.sourceforge.net/DTD/sodipodi-0.dtd"
   xmlns:xlink="http://www.w3.org/1999/xlink"
   xmlns="http://www.w3.org/2000/svg"
   xmlns:svg="http://www.w3.org/2000/svg">
  <defs
     id="defs17">
    <linearGradient
       inkscape:collect="always"
       xlink:href="#a"
       id="linearGradient3776"
       gradientUnits="userSpaceOnUse"
       gradientTransform="matrix(0,-37.2142,37.2142,0,133.41,38.316)"
       x2="1" />
  </defs>
  <sodipodi:namedview
     id="namedview15"
     pagecolor="#ffffff"
     bordercolor="#666666"
     borderopacity="1.0"
     inkscape:pageshadow="2"
     inkscape:pageopacity="0.0"
     inkscape:pagecheckerboard="0"
     showgrid="false"
     inkscape:zoom="14.208333"
     inkscape:cx="24"
     inkscape:cy="24"
     inkscape:window-width="1896"
     inkscape:window-height="1022"
     inkscape:window-x="12"
     inkscape:window-y="46"
     inkscape:window-maximized="1"
     inkscape:current-layer="svg13" />
  <linearGradient
     id="a"
     x2="1"
     gradientTransform="matrix(0,-37.2142,37.2142,0,133.41,38.316)"
     gradientUnits="userSpaceOnUse">
    <stop
       stop-color="#324959"
       offset="0"
       id="stop2" />
    <stop
       stop-color="#b5bdc2"
       offset="1"
       id="stop4" />
  </linearGradient>
  <path
     id="path7"
     style="fill:url(#linearGradient3776)"
     d="M 13.214844 1.1015625 C 11.699844 1.1015625 10.245828 1.7043906 9.1738281 2.7753906 C 8.1028281 3.8473906 7.5 5.2994531 7.5 6.8144531 L 7.5 9.6582031 L 7.5 40.787109 C 7.5 42.302109 8.1028281 43.754172 9.1738281 44.826172 C 9.9778281 45.629422 10.995967 46.168923 12.09375 46.388672 C 12.094369 46.388796 12.095084 46.388548 12.095703 46.388672 C 12.278052 46.42511 12.462292 46.454145 12.648438 46.472656 C 12.649081 46.47272 12.649747 46.472592 12.650391 46.472656 C 12.836546 46.491104 13.024169 46.5 13.212891 46.5 C 13.213544 46.5 13.21419 46.5 13.214844 46.5 L 34.785156 46.5 C 35.353281 46.5 35.913222 46.414397 36.447266 46.251953 C 37.336767 45.981213 38.156172 45.495547 38.826172 44.826172 C 39.897172 43.754172 40.5 42.302109 40.5 40.787109 L 40.5 9.6582031 L 40.5 6.8144531 C 40.5 5.2994531 39.897172 3.8473906 38.826172 2.7753906 C 37.754172 1.7043906 36.300156 1.1015625 34.785156 1.1015625 L 30.072266 1.1015625 L 17.927734 1.1015625 L 13.214844 1.1015625 z " />
  <path
     d="m 24,8.4239978 c 6.35,0 11.462,9.1580002 11.462,15.5080002 0,6.35 -5.112,11.462 -11.462,11.462 -6.35,0 -11.462,-5.112 -11.462,-11.462 0,-6.35 5.112,-15.5080002 11.462,-15.5080002 z"
     fill="#e4e4e4"
     fill-opacity="0.39"
     fill-rule="nonzero"
     id="path9" />
  <path
     d="m 14.561,24.605998 c -0.687,0.004 -1.362,0.182 -1.961,0.519 0.292,2.85 1.621,5.383 3.604,7.22 1.457,-0.647 2.401,-2.099 2.402,-3.694 0,-2.219 -1.826,-4.045 -4.045,-4.045 z m 13.484,-2.697 c 2.233,0 4.046,1.813 4.046,4.045 0,2.233 -1.813,4.046 -4.046,4.046 -2.232,0 -4.045,-1.813 -4.045,-4.046 0,-2.232 1.813,-4.045 4.045,-4.045 z m -12.136,-8.091 c -0.012,0.001 -0.025,0.002 -0.037,0.003 -1.378,2.058 -2.402,4.466 -2.93,6.783 0.764,0.829 1.84,1.303 2.967,1.305 2.219,0 4.046,-1.826 4.046,-4.045 0,-2.22 -1.827,-4.046 -4.046,-4.046 z m 14.063,-2.614 c -1.891,0.367 -3.271,2.036 -3.275,3.963 0,2.219 1.826,4.045 4.045,4.045 1.324,-0.003 2.565,-0.655 3.318,-1.744 -0.964,-2.355 -2.377,-4.6 -4.088,-6.264 z"
     fill="#475b69"
     id="path11" />
  <path
     id="path1057"
     style="fill:#283a48;fill-opacity:1"
     d="m 7.499858,38.667977 v 2.11914 c 0,1.515 0.602827,2.967063 1.673828,4.039063 0.804,0.80325 1.822139,1.342751 2.919922,1.5625 0,0 0.002,0 0.002,0 0.182349,0.03644 0.366588,0.06547 0.552736,0.08398 0,0 0.002,0 0.002,0 0.186153,0.01845 0.37378,0.02734 0.5625,0.02734 h 0.002 21.570312 c 0.568124,0 1.128063,-0.0856 1.66211,-0.248047 0.8895,-0.27074 1.708905,-0.756406 2.378906,-1.425781 C 39.897171,43.754172 40.5,42.302109 40.5,40.787109 v -2.11914 z" />
</svg>
