<?xml version="1.0" encoding="UTF-8" standalone="no"?>
<svg
   style="clip-rule:evenodd;fill-rule:evenodd"
   viewBox="0 0 64 64"
   version="1.1"
   id="svg25"
   sodipodi:docname="application-table.svg"
   inkscape:version="1.1.2 (0a00cf5339, 2022-02-04)"
   xmlns:inkscape="http://www.inkscape.org/namespaces/inkscape"
   xmlns:sodipodi="http://sodipodi.sourceforge.net/DTD/sodipodi-0.dtd"
   xmlns:xlink="http://www.w3.org/1999/xlink"
   xmlns="http://www.w3.org/2000/svg"
   xmlns:svg="http://www.w3.org/2000/svg">
  <sodipodi:namedview
     id="namedview27"
     pagecolor="#ffffff"
     bordercolor="#666666"
     borderopacity="1.0"
     inkscape:pageshadow="2"
     inkscape:pageopacity="0.0"
     inkscape:pagecheckerboard="0"
     showgrid="false"
     inkscape:zoom="10.671875"
     inkscape:cx="32.65593"
     inkscape:cy="32"
     inkscape:window-width="945"
     inkscape:window-height="1026"
     inkscape:window-x="965"
     inkscape:window-y="44"
     inkscape:window-maximized="1"
     inkscape:current-layer="svg25" />
  <path
     id="path2"
     style="fill:url(#linearGradient3265)"
     d="M 17.617188 1.46875 C 15.597188 1.46875 13.659469 2.2712188 12.230469 3.6992188 C 10.802469 5.1282186 10 7.0678906 10 9.0878906 L 10 13.787109 L 10 54.382812 C 10 56.402814 10.802469 58.340531 12.230469 59.769531 C 13.659469 61.197531 15.597186 62 17.617188 62 L 46.382812 62 C 48.402814 62 50.340531 61.197531 51.769531 59.769531 C 53.197531 58.340531 54 56.402814 54 54.382812 L 54 13.787109 L 54 9.0878906 C 54 7.0678906 53.197531 5.1282185 51.769531 3.6992188 C 50.340531 2.2712188 48.402814 1.46875 46.382812 1.46875 L 37.042969 1.46875 L 26.957031 1.46875 L 17.617188 1.46875 z " />
  <path
     id="path914"
     style="clip-rule:evenodd;fill:#175e21;fill-opacity:1;fill-rule:evenodd;stroke-width:1;stroke-linejoin:round;stroke-miterlimit:2"
     d="m 10.000001,50.982422 v 3.40039 c 0,2.020002 0.802469,3.957719 2.230469,5.386719 C 13.659469,61.197531 15.597186,62 17.617189,62 h 28.765624 c 2.020001,0 3.957718,-0.802469 5.386719,-2.230469 C 53.197531,58.340531 54,56.402814 54,54.382812 v -3.40039 z" />
  <path
     d="m22.636 39.364h10.073l-1e-3 -21.205h-9.982c-1.098-0.081-1.543 0.02-1.543 1.015v19.122c-0.069 1.091 0.386 1.068 1.453 1.068z"
     style="fill:#175e21"
     id="path4" />
  <path
     d="m42.022 39.358h-4.572l-2.344-1.969v-17.268l1.606-1.968h5.31c0.735-0.082 0.794 0.02 0.794 1.014v19.122c0.046 1.092-0.08 1.069-0.794 1.069z"
     style="fill:none;stroke-width:.7px;stroke:#175e21"
     id="path6" />
  <path
     d="m40.289 40.367-8.681-1.014v-21.194l8.609-0.807c1.064-0.082 1.122 0.212 1.122 1.206l-0.073 20.228c0.067 1.091 0.059 1.581-0.977 1.581z"
     style="fill:#175e21"
     id="path8" />
  <path
     d="m26.085 29.332 9e-3 4.657 2.737-1e-3 -9e-3 -4.656h-2.737z"
     style="fill:#40bf4f"
     id="path10" />
  <path
     d="m29.941 26.8 8e-3 7.171 2.737-1e-3 -9e-3 -7.17h-2.736z"
     style="fill:#40bf4f"
     id="path12" />
  <path
     d="m33.942 24.306 9e-3 9.685 2.736-1e-3 -8e-3 -9.685-2.737 1e-3z"
     style="fill:#40bf4f"
     id="path14" />
  <text
     x="27.531px"
     y="59.024px"
     style="fill:#fff;font-family:'ArialMT', 'Arial', sans-serif;font-size:7.505px"
     id="text16">xls</text>
  <defs
     id="defs23">
    <linearGradient
       id="_Linear1"
       x2="1"
       gradientTransform="matrix(0,-49.619,49.619,0,177.88,51.088)"
       gradientUnits="userSpaceOnUse">
      <stop
         style="stop-color:#2b843e"
         offset="0"
         id="stop18" />
      <stop
         style="stop-color:#40dc61"
         offset="1"
         id="stop20" />
    </linearGradient>
    <linearGradient
       inkscape:collect="always"
       xlink:href="#_Linear1"
       id="linearGradient3265"
       gradientUnits="userSpaceOnUse"
       gradientTransform="matrix(0,-49.619,49.619,0,177.88,51.088)"
       x2="1" />
  </defs>
</svg>
