<?xml version="1.0" encoding="UTF-8" standalone="no"?>
<svg
   clip-rule="evenodd"
   fill-rule="evenodd"
   stroke-linejoin="round"
   stroke-miterlimit="2"
   viewBox="0 0 48 48"
   version="1.1"
   id="svg11"
   sodipodi:docname="application-x-pc-engine-rom.svg"
   inkscape:version="1.1.2 (0a00cf5339, 2022-02-04)"
   xmlns:inkscape="http://www.inkscape.org/namespaces/inkscape"
   xmlns:sodipodi="http://sodipodi.sourceforge.net/DTD/sodipodi-0.dtd"
   xmlns:xlink="http://www.w3.org/1999/xlink"
   xmlns="http://www.w3.org/2000/svg"
   xmlns:svg="http://www.w3.org/2000/svg">
  <defs
     id="defs15">
    <linearGradient
       inkscape:collect="always"
       xlink:href="#a"
       id="linearGradient4617"
       gradientUnits="userSpaceOnUse"
       gradientTransform="matrix(0,-37.21425,37.21425,0,461.415,38.515125)"
       x2="1" />
  </defs>
  <sodipodi:namedview
     id="namedview13"
     pagecolor="#ffffff"
     bordercolor="#666666"
     borderopacity="1.0"
     inkscape:pageshadow="2"
     inkscape:pageopacity="0.0"
     inkscape:pagecheckerboard="0"
     showgrid="false"
     inkscape:zoom="14.208333"
     inkscape:cx="27.41349"
     inkscape:cy="24.985337"
     inkscape:window-width="942"
     inkscape:window-height="1022"
     inkscape:window-x="966"
     inkscape:window-y="46"
     inkscape:window-maximized="1"
     inkscape:current-layer="svg11" />
  <linearGradient
     id="a"
     x2="1"
     gradientTransform="matrix(0,-37.21425,37.21425,0,461.415,38.515125)"
     gradientUnits="userSpaceOnUse">
    <stop
       stop-color="#92343c"
       offset="0"
       id="stop2" />
    <stop
       stop-color="#cd6977"
       offset="1"
       id="stop4" />
  </linearGradient>
  <path
     id="path7"
     style="stroke-width:0.75;fill:url(#linearGradient4617)"
     d="M 13.212891 1.3007812 C 11.697891 1.3007812 10.245578 1.9036094 9.1738281 2.9746094 C 8.1028281 4.0463594 7.5 5.4986719 7.5 7.0136719 L 7.5 10.019531 L 7.5 40.986328 C 7.5 42.501328 8.1028281 43.953641 9.1738281 45.025391 C 10.245578 46.096391 11.697891 46.699219 13.212891 46.699219 L 34.787109 46.699219 C 36.302109 46.699219 37.754422 46.096391 38.826172 45.025391 C 39.897172 43.953641 40.5 42.501328 40.5 40.986328 L 40.5 10.019531 L 40.5 7.0136719 C 40.5 5.4986719 39.897172 4.0463594 38.826172 2.9746094 C 37.754422 1.9036094 36.302109 1.3007812 34.787109 1.3007812 L 26.152344 1.3007812 L 21.847656 1.3007812 L 13.212891 1.3007812 z " />
  <path
     transform="translate(.747528 -5.7154)"
     d="m28.99 22.297c-.118-.004-.244.002-.377.017-1.186.14-2.373.329-3.523.649-2.463.684-3.235 3.451-3.235 3.451l-.863 5.357s-.229 2.459 2.684 2.139l3.324-3.324v-.973l-.184.037s.068.748-.324.827c-.572.114-1.147.206-1.724.287-.369.051-.252-.36-.252-.36l.646-4.314s.002-.27.576-.395c.453-.098.909-.176 1.366-.252.348-.057.324.252.324.252v.502l3.343-.502.18-1.259s-.186-2.085-1.961-2.139zm-10.148 1.721-6.153 1.117-1.832 12 3.254-.711.459-3.356 2.198-.431s3.009-.292 3.955-3.383c.27-.883.306-1.825.355-2.746.126-2.388-2.236-2.49-2.236-2.49zm19.158 2.982-8 3-2-2v3l-6 6 7-4 3 3-1-4zm-20.59.162c.141.002.412.078.317.637-.069.405-.154.849-.2 1.258-.088.79-.681.808-.681.808l-1.692.307.469-2.697 1.707-.307s.033-.007.08-.006z"
     fill="#fff"
     fill-opacity=".5"
     fill-rule="nonzero"
     id="path9" />
  <path
     id="path1057"
     style="fill:#6f282e;fill-opacity:1"
     d="m 7.4998607,38.867102 v 2.11914 c 0,1.515 0.602827,2.967063 1.6738273,4.039063 0.804,0.80325 1.822139,1.342751 2.919922,1.5625 0,0 0.002,0 0.002,0 0.182349,0.03644 0.366588,0.06547 0.552735,0.08398 0,0 0.002,0 0.002,0 0.186154,0.01845 0.37378,0.02734 0.5625,0.02734 h 0.002 21.570311 c 0.568125,0 1.128064,-0.0856 1.66211,-0.248047 0.889501,-0.27074 1.708905,-0.756406 2.378906,-1.425781 C 39.897171,43.953297 40.5,42.501234 40.5,40.986234 v -2.11914 z" />
</svg>
