<?xml version="1.0" encoding="UTF-8" standalone="no"?>
<svg
   clip-rule="evenodd"
   fill-rule="evenodd"
   stroke-linejoin="round"
   stroke-miterlimit="2"
   viewBox="0 0 48 48"
   version="1.1"
   id="svg22"
   sodipodi:docname="application-sweethome3d.svg"
   inkscape:version="1.1.2 (0a00cf5339, 2022-02-04)"
   xmlns:inkscape="http://www.inkscape.org/namespaces/inkscape"
   xmlns:sodipodi="http://sodipodi.sourceforge.net/DTD/sodipodi-0.dtd"
   xmlns:xlink="http://www.w3.org/1999/xlink"
   xmlns="http://www.w3.org/2000/svg"
   xmlns:svg="http://www.w3.org/2000/svg">
  <defs
     id="defs26">
    <linearGradient
       inkscape:collect="always"
       xlink:href="#a"
       id="linearGradient952"
       gradientUnits="userSpaceOnUse"
       gradientTransform="matrix(0,-37.21425,37.21425,0,516.0825,38.515125)"
       x2="1" />
  </defs>
  <sodipodi:namedview
     id="namedview24"
     pagecolor="#ffffff"
     bordercolor="#666666"
     borderopacity="1.0"
     inkscape:pageshadow="2"
     inkscape:pageopacity="0.0"
     inkscape:pagecheckerboard="0"
     showgrid="false"
     inkscape:zoom="14.229167"
     inkscape:cx="23.262079"
     inkscape:cy="46.489018"
     inkscape:window-width="945"
     inkscape:window-height="508"
     inkscape:window-x="10"
     inkscape:window-y="562"
     inkscape:window-maximized="1"
     inkscape:current-layer="svg22" />
  <linearGradient
     id="a"
     x2="1"
     gradientTransform="matrix(0,-37.21425,37.21425,0,516.0825,38.515125)"
     gradientUnits="userSpaceOnUse">
    <stop
       stop-color="#a64e08"
       offset="0"
       id="stop2" />
    <stop
       stop-color="#cd8b69"
       offset="1"
       id="stop4" />
  </linearGradient>
  <linearGradient
     id="b"
     x1="16.4"
     x2="47.6"
     y1="597.742"
     y2="597.742"
     gradientUnits="userSpaceOnUse">
    <stop
       stop-color="#c41717"
       stop-opacity=".75"
       offset="0"
       id="stop7" />
    <stop
       stop-color="#f13f3f"
       stop-opacity=".75"
       offset="1"
       id="stop9" />
  </linearGradient>
  <path
     id="path12"
     style="stroke-width:0.75;fill:url(#linearGradient952)"
     d="M 13.212891 1.3007812 C 11.697891 1.3007812 10.245578 1.9036094 9.1738281 2.9746094 C 8.1028281 4.0463594 7.5 5.4986719 7.5 7.0136719 L 7.5 9.9707031 L 7.5 40.986328 C 7.5 42.501328 8.1028281 43.953641 9.1738281 45.025391 C 10.245578 46.096391 11.697891 46.699219 13.212891 46.699219 L 34.787109 46.699219 C 36.302109 46.699219 37.754422 46.096391 38.826172 45.025391 C 39.897172 43.953641 40.5 42.501328 40.5 40.986328 L 40.5 9.9707031 L 40.5 7.0136719 C 40.5 5.4986719 39.897172 4.0463594 38.826172 2.9746094 C 37.754422 1.9036094 36.302109 1.3007812 34.787109 1.3007812 L 29.783203 1.3007812 L 18.216797 1.3007812 L 13.212891 1.3007812 z " />
  <g
     transform="matrix(.585996 0 0 .585996 5.24814 5.5149)"
     fill-rule="nonzero"
     id="g20">
    <path
       d="m32 16.02 15.6 8.803v17.607l-15.6 8.803-15.6-8.803v-17.607z"
       fill="url(#b)"
       id="path14" />
    <path
       d="m16.4 24.823v17.607l15.6 8.803v-17.606z"
       fill-opacity=".22"
       id="path16" />
    <path
       d="m16.398 24.823v1l15.602 8.803 15.602-8.803v-1l-15.602 8.805z"
       fill-opacity=".33"
       id="path18" />
  </g>
  <path
     id="path1057"
     style="fill:#d13b2e;fill-opacity:1"
     d="m 7.4998588,38.867196 v 2.11914 c 0,1.515 0.6028281,2.967063 1.6738281,4.039063 0.804,0.80325 1.8221391,1.342751 2.9199221,1.5625 0,0 0.002,0 0.002,0 0.182349,0.03644 0.366588,0.06547 0.552735,0.08398 0,0 0.002,0 0.002,0 0.186155,0.01845 0.373778,0.02734 0.5625,0.02734 h 0.002 21.570312 c 0.568125,0 1.128066,-0.0856 1.66211,-0.248047 0.889501,-0.27074 1.708906,-0.756406 2.378906,-1.425781 1.071,-1.072 1.673828,-2.524063 1.673828,-4.039063 v -2.11914 z" />
</svg>
