<?xml version="1.0" encoding="UTF-8" standalone="no"?>
<svg
   style="clip-rule:evenodd;fill-rule:evenodd"
   viewBox="0 0 64 64"
   version="1.1"
   id="svg25"
   sodipodi:docname="application-msonenote.svg"
   inkscape:version="1.1.2 (0a00cf5339, 2022-02-04)"
   xmlns:inkscape="http://www.inkscape.org/namespaces/inkscape"
   xmlns:sodipodi="http://sodipodi.sourceforge.net/DTD/sodipodi-0.dtd"
   xmlns:xlink="http://www.w3.org/1999/xlink"
   xmlns="http://www.w3.org/2000/svg"
   xmlns:svg="http://www.w3.org/2000/svg">
  <sodipodi:namedview
     id="namedview27"
     pagecolor="#ffffff"
     bordercolor="#666666"
     borderopacity="1.0"
     inkscape:pageshadow="2"
     inkscape:pageopacity="0.0"
     inkscape:pagecheckerboard="0"
     showgrid="false"
     inkscape:zoom="10.671875"
     inkscape:cx="37.341142"
     inkscape:cy="34.061493"
     inkscape:window-width="945"
     inkscape:window-height="1026"
     inkscape:window-x="965"
     inkscape:window-y="44"
     inkscape:window-maximized="1"
     inkscape:current-layer="svg25" />
  <path
     id="path2"
     style="fill:url(#linearGradient2874)"
     d="M 17.617188 1.46875 C 15.597188 1.46875 13.659469 2.2712188 12.230469 3.6992188 C 10.802469 5.1282186 10 7.0678906 10 9.0878906 L 10 11.958984 L 10 54.382812 C 10 56.402814 10.802469 58.340531 12.230469 59.769531 C 13.659469 61.197531 15.597187 62 17.617188 62 L 46.382812 62 C 48.402814 62 50.340531 61.197531 51.769531 59.769531 C 53.197531 58.340531 54 56.402814 54 54.382812 L 54 11.958984 L 54 9.0878906 C 54 7.0678906 53.197531 5.1282186 51.769531 3.6992188 C 50.340531 2.2712188 48.402813 1.46875 46.382812 1.46875 L 35.583984 1.46875 L 28.416016 1.46875 L 17.617188 1.46875 z " />
  <path
     id="path914"
     style="clip-rule:evenodd;fill:#3d434a;fill-opacity:1;fill-rule:evenodd;stroke-width:1;stroke-linejoin:round;stroke-miterlimit:2"
     d="m 10,50.982422 v 3.40039 c 0,2.020002 0.80247,3.957719 2.230469,5.386719 1.429,1.428 3.366717,2.230469 5.386719,2.230469 h 28.765624 c 2.020002,0 3.957719,-0.802469 5.386719,-2.230469 C 53.197531,58.340531 54,56.402814 54,54.382812 v -3.40039 z" />
  <path
     d="m22.601 37.697h10.073v-21.206l-9.983 1e-3c-1.098-0.082-1.543 0.02-1.543 1.014v19.122c-0.069 1.092 0.386 1.069 1.453 1.069z"
     style="fill:#3d434a"
     id="path4" />
  <path
     d="m41.987 37.69h-4.572l-2.344-1.968v-17.269l1.606-1.968h5.31c0.735-0.081 0.794 0.02 0.794 1.015v19.122c0.046 1.091-0.079 1.068-0.794 1.068z"
     style="fill:none;stroke-width:.7px;stroke:#3d434a"
     id="path6" />
  <path
     d="m40.254 38.7l-8.681-1.014v-21.195l8.609-0.807c1.065-0.081 1.122 0.212 1.122 1.207l-0.072 20.227c0.067 1.092 0.058 1.582-0.978 1.582z"
     style="fill:#3d434a"
     id="path8" />
  <rect
     x="26.327"
     y="21.987"
     width="10.299"
     height="1.931"
     style="fill:#9aa6b3"
     id="rect10" />
  <rect
     x="26.338"
     y="24.85"
     width="10.299"
     height="1.931"
     style="fill:#9aa6b3"
     id="rect12" />
  <rect
     x="26.353"
     y="27.57"
     width="10.299"
     height="1.931"
     style="fill:#9aa6b3"
     id="rect14" />
  <rect
     x="26.332"
     y="30.393"
     width="10.299"
     height="1.931"
     style="fill:#9aa6b3"
     id="rect16" />
  <defs
     id="defs23">
    <linearGradient
       id="_Linear1"
       x2="1"
       gradientTransform="matrix(0,-49.619,49.619,0,177.88,51.088)"
       gradientUnits="userSpaceOnUse">
      <stop
         style="stop-color:#758b9a"
         offset="0"
         id="stop18" />
      <stop
         style="stop-color:#b5bdc2"
         offset="1"
         id="stop20" />
    </linearGradient>
    <linearGradient
       inkscape:collect="always"
       xlink:href="#_Linear1"
       id="linearGradient2874"
       gradientUnits="userSpaceOnUse"
       gradientTransform="matrix(0,-49.619,49.619,0,177.88,51.088)"
       x2="1" />
  </defs>
</svg>
