<?xml version="1.0" encoding="UTF-8" standalone="no"?>
<svg
   style="clip-rule:evenodd;fill-rule:evenodd;stroke-linejoin:round;stroke-miterlimit:2"
   viewBox="0 0 64 64"
   version="1.1"
   id="svg21"
   sodipodi:docname="application-x.allegorithmic.substance.svg"
   inkscape:version="1.1.2 (0a00cf5339, 2022-02-04)"
   xmlns:inkscape="http://www.inkscape.org/namespaces/inkscape"
   xmlns:sodipodi="http://sodipodi.sourceforge.net/DTD/sodipodi-0.dtd"
   xmlns:xlink="http://www.w3.org/1999/xlink"
   xmlns="http://www.w3.org/2000/svg"
   xmlns:svg="http://www.w3.org/2000/svg">
  <sodipodi:namedview
     id="namedview23"
     pagecolor="#ffffff"
     bordercolor="#666666"
     borderopacity="1.0"
     inkscape:pageshadow="2"
     inkscape:pageopacity="0.0"
     inkscape:pagecheckerboard="0"
     showgrid="false"
     inkscape:zoom="7.5461552"
     inkscape:cx="38.562684"
     inkscape:cy="17.161057"
     inkscape:window-width="942"
     inkscape:window-height="1022"
     inkscape:window-x="966"
     inkscape:window-y="46"
     inkscape:window-maximized="1"
     inkscape:current-layer="svg21" />
  <path
     id="path2"
     style="fill:url(#linearGradient3952)"
     d="M 17.617188 1.46875 C 15.597188 1.46875 13.659469 2.2712188 12.230469 3.6992188 C 10.802469 5.1282186 10 7.0678906 10 9.0878906 L 10 13.818359 L 10 54.382812 C 10 56.402814 10.802469 58.340531 12.230469 59.769531 C 13.659469 61.197531 15.597187 62 17.617188 62 L 46.382812 62 C 48.402814 62 50.340531 61.197531 51.769531 59.769531 C 53.197531 58.340531 54 56.402814 54 54.382812 L 54 13.818359 L 54 9.0878906 C 54 7.0678906 53.197531 5.1282186 51.769531 3.6992188 C 50.340531 2.2712188 48.402813 1.46875 46.382812 1.46875 L 43.455078 1.46875 L 20.544922 1.46875 L 17.617188 1.46875 z " />
  <path
     id="path914"
     style="clip-rule:evenodd;fill:#51a748;fill-opacity:1;fill-rule:evenodd;stroke-width:1;stroke-linejoin:round;stroke-miterlimit:2"
     d="m 9.9999996,50.982422 v 3.40039 c 0,2.020002 0.8024694,3.957719 2.2304694,5.386719 1.429,1.428 3.366717,2.230469 5.386719,2.230469 h 28.765624 c 2.020002,0 3.957719,-0.802469 5.386719,-2.230469 C 53.197531,58.340531 54,56.402814 54,54.382812 v -3.40039 z" />
  <path
     id="path4"
     style="fill-opacity:0.2;fill-rule:nonzero"
     d="M 30 1.4609375 L 30 17.46875 C 30 18.56875 30.895 19.46875 32 19.46875 C 33.105 19.46875 34 18.56875 34 17.46875 L 34 1.4609375 L 30 1.4609375 z " />
  <path
     d="m 32,20.469 c -2.211,0 -4,1.8 -4,4 v 8 c 0,2.2 1.79,4 4,4 2.21,0 4,-1.8 4,-4 v -8 c 0,-2.2 -1.789,-4 -4,-4 z m 0,2 c 1.104,0 2,0.8 2,2 0,1 -0.896,2 -2,2 -1.104,0 -2,-1 -2,-2 0,-1.2 0.896,-2 2,-2 z m 0,6 c 1.105,0 2,0.895 2,2 v 2 c 0,1.105 -0.895,2 -2,2 -1.105,0 -2,-0.895 -2,-2 v -2 c 0,-1.105 0.895,-2 2,-2 z"
     style="fill:#dddddd;fill-opacity:0.61;fill-rule:nonzero"
     id="path6" />
  <path
     id="path8"
     style="fill-opacity:0.2;fill-rule:nonzero"
     d="M 31 1.4609375 L 31 1.46875 L 32 1.46875 L 32 1.4609375 L 31 1.4609375 z M 32 1.46875 L 32 2.46875 L 33 2.46875 L 33 1.46875 L 32 1.46875 z M 32 2.46875 L 31 2.46875 L 31 3.46875 L 32 3.46875 L 32 2.46875 z M 32 3.46875 L 32 4.46875 L 33 4.46875 L 33 3.46875 L 32 3.46875 z M 32 4.46875 L 31 4.46875 L 31 5.46875 L 32 5.46875 L 32 4.46875 z M 32 5.46875 L 32 6.46875 L 33 6.46875 L 33 5.46875 L 32 5.46875 z M 32 6.46875 L 31 6.46875 L 31 7.46875 L 32 7.46875 L 32 6.46875 z M 32 7.46875 L 32 8.46875 L 33 8.46875 L 33 7.46875 L 32 7.46875 z M 32 8.46875 L 31 8.46875 L 31 9.46875 L 32 9.46875 L 32 8.46875 z M 32 9.46875 L 32 10.46875 L 33 10.46875 L 33 9.46875 L 32 9.46875 z M 32 10.46875 L 31 10.46875 L 31 11.46875 L 32 11.46875 L 32 10.46875 z M 32 11.46875 L 32 12.46875 L 33 12.46875 L 33 11.46875 L 32 11.46875 z M 32 12.46875 L 31 12.46875 L 31 13.46875 L 32 13.46875 L 32 12.46875 z M 32 13.46875 L 32 14.46875 L 33 14.46875 L 33 13.46875 L 32 13.46875 z M 32 14.46875 L 31 14.46875 L 31 15.46875 L 32 15.46875 L 32 14.46875 z M 32 15.46875 L 32 16.46875 L 33 16.46875 L 33 15.46875 L 32 15.46875 z M 32 16.46875 L 31 16.46875 L 31 17.46875 L 32 17.46875 L 32 16.46875 z M 32 17.46875 L 32 18.46875 L 33 18.46875 L 33 17.46875 L 32 17.46875 z M 32 18.46875 L 31 18.46875 L 31 19.46875 L 32 19.46875 L 32 18.46875 z " />
  <path
     id="path10"
     style="fill:#dddddd;fill-opacity:0.61;fill-rule:nonzero"
     d="M 31 1.46875 L 31 2.46875 L 32 2.46875 L 32 1.46875 L 31 1.46875 z M 31 3.46875 L 31 4.46875 L 32 4.46875 L 32 3.46875 L 31 3.46875 z M 31 5.46875 L 31 6.46875 L 32 6.46875 L 32 5.46875 L 31 5.46875 z M 31 7.46875 L 31 8.46875 L 32 8.46875 L 32 7.46875 L 31 7.46875 z M 31 9.46875 L 31 10.46875 L 32 10.46875 L 32 9.46875 L 31 9.46875 z M 31 11.46875 L 31 12.46875 L 32 12.46875 L 32 11.46875 L 31 11.46875 z M 31 13.46875 L 31 14.46875 L 32 14.46875 L 32 13.46875 L 31 13.46875 z M 31 15.46875 L 31 16.46875 L 32 16.46875 L 32 15.46875 L 31 15.46875 z M 31 17.46875 L 31 18.46875 L 32 18.46875 L 32 17.46875 L 31 17.46875 z " />
  <path
     d="m 29,17.219 -9,5.25 v 5.5 l 7,2.1 v -5.2 L 26.414,24.694 27,24.356 v -0.887 c 0,-1.31 0.791,-2.457 2,-3.186 z m 6,0 v 3.064 c 1.209,0.729 2,1.876 2,3.186 v 0.857 l 2,1.143 v 1 l 5,1.5 v -5.5 z m 2,10.65 v 5.2 L 37.586,33.244 37,33.582 v 0.887 c 0,2.216 -2.23,4 -5,4 -2.77,0 -5,-1.784 -5,-4 v -0.857 l -2,-1.143 v -1 l -5,-1.5 v 5.5 l 12,7 12,-7 v -5.5 z"
     style="fill:#ffffff;fill-opacity:0.6;fill-rule:nonzero"
     id="path12" />
  <defs
     id="defs19">
    <linearGradient
       id="_Linear1"
       x2="1"
       gradientTransform="matrix(0,-49.619,49.619,0,615.22,51.088)"
       gradientUnits="userSpaceOnUse">
      <stop
         style="stop-color:#53b848"
         offset="0"
         id="stop14" />
      <stop
         style="stop-color:#69d65d"
         offset="1"
         id="stop16" />
    </linearGradient>
    <linearGradient
       inkscape:collect="always"
       xlink:href="#_Linear1"
       id="linearGradient3952"
       gradientUnits="userSpaceOnUse"
       gradientTransform="matrix(0,-49.619,49.619,0,615.22,51.088)"
       x2="1" />
  </defs>
</svg>
