<?xml version="1.0" encoding="UTF-8" standalone="no"?>
<svg
   clip-rule="evenodd"
   fill-rule="evenodd"
   stroke-linejoin="round"
   stroke-miterlimit="2"
   viewBox="0 0 64 64"
   version="1.1"
   id="svg17"
   sodipodi:docname="application-x-sogouskin.svg"
   inkscape:version="1.1.2 (0a00cf5339, 2022-02-04)"
   xmlns:inkscape="http://www.inkscape.org/namespaces/inkscape"
   xmlns:sodipodi="http://sodipodi.sourceforge.net/DTD/sodipodi-0.dtd"
   xmlns:xlink="http://www.w3.org/1999/xlink"
   xmlns="http://www.w3.org/2000/svg"
   xmlns:svg="http://www.w3.org/2000/svg">
  <defs
     id="defs21">
    <linearGradient
       inkscape:collect="always"
       xlink:href="#a"
       id="linearGradient955"
       gradientUnits="userSpaceOnUse"
       gradientTransform="matrix(0,-49.619,49.619,0,177.88,51.088)"
       x2="1" />
  </defs>
  <sodipodi:namedview
     id="namedview19"
     pagecolor="#ffffff"
     bordercolor="#666666"
     borderopacity="1.0"
     inkscape:pageshadow="2"
     inkscape:pageopacity="0.0"
     inkscape:pagecheckerboard="0"
     showgrid="false"
     inkscape:zoom="10.65625"
     inkscape:cx="36.457478"
     inkscape:cy="24.211144"
     inkscape:window-width="942"
     inkscape:window-height="1022"
     inkscape:window-x="966"
     inkscape:window-y="46"
     inkscape:window-maximized="1"
     inkscape:current-layer="svg17" />
  <linearGradient
     id="a"
     x2="1"
     gradientTransform="matrix(0,-49.619,49.619,0,177.88,51.088)"
     gradientUnits="userSpaceOnUse">
    <stop
       stop-color="#e9883d"
       offset="0"
       id="stop2" />
    <stop
       stop-color="#e09e6b"
       offset="1"
       id="stop4" />
  </linearGradient>
  <path
     id="path7"
     style="fill:url(#linearGradient955)"
     d="M 17.617188 1.46875 C 15.597188 1.46875 13.659469 2.2712188 12.230469 3.6992188 C 10.899824 5.0307951 10.120723 6.8075199 10.019531 8.6777344 L 10 8.6777344 L 10 9.0878906 L 10 54.382812 C 10 56.402814 10.802469 58.340531 12.230469 59.769531 C 13.659469 61.197531 15.597187 62 17.617188 62 L 46.382812 62 C 48.402814 62 50.340531 61.197531 51.769531 59.769531 C 53.197531 58.340531 54 56.402814 54 54.382812 L 54 9.0878906 L 54 8.6777344 L 53.980469 8.6777344 C 53.879277 6.8075199 53.100176 5.0307951 51.769531 3.6992188 C 50.340531 2.2712188 48.402813 1.46875 46.382812 1.46875 L 41.541016 1.46875 L 22.458984 1.46875 L 17.617188 1.46875 z " />
  <path
     d="m 10,23.999448 c 1.634,-0.963 3.685,-1.647 6.063,-2.009 0.772,-0.117 1.954,-0.163 3.144,-0.186 0.018,0 0.036,-0.001 0.053,-0.002 l 10e-4,0.001 c 1.095,-0.024 2.191,0.007 3.283,0.093 4.698,0.442 8.791,1.913 12.326,4.444 1.186,0.842 1.209,0.743 -0.945,3.209 -1.758,2.005 -2.018,2.176 -2.455,2.064 -0.107,-0.023 -0.61,-0.264 -1.131,-0.552 -2.689,-1.503 -5.739,-2.592 -8.112,-2.885 -1.274,-0.154 -2.261,0.032 -2.773,0.549 -0.256,0.26 -0.358,0.945 -0.186,1.332 0.317,0.721 1.535,1.408 4.782,2.701 4.647,1.86 6.583,2.855 8.49,4.353 1.902,1.493 3.08,3.267 3.521,5.225 0.27,1.209 0.176,3.205 -0.187,4.215 -0.317,0.891 -0.721,1.566 -1.318,2.283 -0.615,0.738 -1.275,1.405 -1.97,2.001 H 17.618 c -2.02,0 -3.958,-0.803 -5.387,-2.231 -1.371,-1.372 -2.166,-3.214 -2.227,-5.147 0.133,0.084 0.285,0.183 0.459,0.297 1.317,0.854 2.732,1.548 4.213,2.066 2.131,0.758 3.666,1.083 5.41,1.102 0.954,0 1.132,-0.056 1.639,-0.233 0.754,-0.274 1.073,-0.594 1.129,-1.236 0.028,-0.405 -0.045,-0.578 -0.25,-0.918 -0.526,-0.832 -1.652,-1.501 -5.35,-3.162 -3.079,-1.391 -4.149,-1.93 -5.535,-2.744 -0.629,-0.375 -1.201,-0.749 -1.719,-1.127 z"
     fill-opacity="0.5"
     id="path9"
     style="fill:#ffffff;fill-rule:nonzero" />
  <g
     id="g2825"
     transform="translate(0,0.0351562)">
    <path
       d="m 30.002,13.835448 v 6.5 c 0,0.277 0.223,0.5 0.5,0.5 h 3.001 c 0.277,0 0.5,-0.223 0.5,-0.5 v -6.5 z m 1,4 h 2.001 v 2 h -2.001 z"
       id="path11"
       style="fill:#ffffff;fill-rule:nonzero" />
    <path
       id="path13"
       style="fill:#ffffff;fill-rule:nonzero"
       d="m 30.001953,1.4335938 v 1.4023437 h 2 V 1.4335938 Z m 2,1.4023437 v 2 h 2 v -2 z m 0,2 h -2 v 2 h 2 z m 0,2 v 2 h 2 v -2 z m 0,2 h -2 v 2.0000005 h 2 z m 0,2.0000005 v 2 h 2 v -2 z" />
  </g>
  <path
     id="path914"
     style="clip-rule:evenodd;fill:#7b4922;fill-opacity:1;fill-rule:evenodd;stroke-width:1;stroke-linecap:round;stroke-linejoin:round;stroke-miterlimit:2"
     d="m 10.000001,50.982422 v 3.40039 c 0,2.020001 0.802467,3.957719 2.230468,5.386719 C 13.659467,61.197531 15.597183,62 17.617188,62 h 28.765624 c 2.020002,0 3.957718,-0.802469 5.386719,-2.230469 C 53.19753,58.340531 54,56.402813 54,54.382812 v -3.40039 z" />
</svg>
