<?xml version="1.0" encoding="UTF-8" standalone="no"?>
<svg
   style="clip-rule:evenodd;fill-rule:evenodd;stroke-linejoin:round;stroke-miterlimit:2"
   viewBox="0 0 64 64"
   version="1.1"
   id="svg29"
   sodipodi:docname="text-x-gettext-translation.svg"
   inkscape:version="1.1.2 (0a00cf5339, 2022-02-04)"
   xmlns:inkscape="http://www.inkscape.org/namespaces/inkscape"
   xmlns:sodipodi="http://sodipodi.sourceforge.net/DTD/sodipodi-0.dtd"
   xmlns:xlink="http://www.w3.org/1999/xlink"
   xmlns="http://www.w3.org/2000/svg"
   xmlns:svg="http://www.w3.org/2000/svg">
  <sodipodi:namedview
     id="namedview31"
     pagecolor="#ffffff"
     bordercolor="#666666"
     borderopacity="1.0"
     inkscape:pageshadow="2"
     inkscape:pageopacity="0.0"
     inkscape:pagecheckerboard="0"
     showgrid="false"
     inkscape:zoom="10.65625"
     inkscape:cx="32"
     inkscape:cy="32"
     inkscape:window-width="1896"
     inkscape:window-height="1022"
     inkscape:window-x="12"
     inkscape:window-y="46"
     inkscape:window-maximized="1"
     inkscape:current-layer="svg29" />
  <path
     id="path2"
     style="fill:url(#linearGradient4204)"
     d="M 17.617188 1.46875 C 15.597188 1.46875 13.659469 2.2712188 12.230469 3.6992188 C 10.802469 5.1282186 10 7.0678906 10 9.0878906 L 10 15.785156 L 10 54.382812 C 10 56.402814 10.802469 58.340531 12.230469 59.769531 C 13.659469 61.197531 15.597187 62 17.617188 62 L 46.382812 62 C 48.402814 62 50.340531 61.197531 51.769531 59.769531 C 53.197531 58.340531 54 56.402814 54 54.382812 L 54 15.785156 L 54 9.0878906 C 54 7.0678906 53.197531 5.1282186 51.769531 3.6992188 C 50.340531 2.2712188 48.402813 1.46875 46.382812 1.46875 L 37.748047 1.46875 L 26.251953 1.46875 L 17.617188 1.46875 z " />
  <path
     id="path2-3"
     style="clip-rule:evenodd;fill:#3d434a;fill-opacity:1;fill-rule:evenodd;stroke-linecap:round;stroke-linejoin:round;stroke-miterlimit:2"
     d="m 10.000004,50.982422 v 3.398437 0.002 c 6.5e-5,0.251841 0.01244,0.501552 0.03711,0.75 v 0.002 c 0.02473,0.248442 0.06268,0.494885 0.111328,0.738281 v 0.002 c 0.04871,0.243391 0.109702,0.484016 0.18164,0.720703 v 0.002 c 0.072,0.236684 0.155456,0.468944 0.25,0.697266 v 0.002 c 0.09461,0.228323 0.199936,0.453573 0.316406,0.671875 v 0.002 c 0.116532,0.218305 0.245102,0.430096 0.382814,0.636719 v 0.002 c 0.137775,0.206628 0.287037,0.406326 0.445311,0.599609 v 0.002 c 0.158341,0.193289 0.327703,0.378358 0.505861,0.55664 v 0.002 c 0.714498,0.714 1.557099,1.271274 2.472655,1.650391 C 15.618682,61.799106 16.607189,62 17.617188,62 h 28.765624 c 1.010002,0 1.998509,-0.200473 2.914063,-0.580078 0.915554,-0.379117 1.758155,-0.936391 2.472656,-1.650391 v -0.002 C 53.19753,58.338626 54,56.400859 54,54.380859 v -3.398437 z" />
  <path
     d="m35.683 24.882l-4.951 13.206h2.196l1.233-3.304h5.227l1.244 3.304h2.196l-4.949-13.206h-2.196zm1.096 2.941l1.784 4.765h-3.566l1.782-4.765z"
     style="fill:#3d434a"
     id="path4" />
  <path
     d="m21.172 25.656l2.761-0.254c0.166 0.875 0.503 1.517 1.011 1.927s1.194 0.615 2.056 0.615c0.914 0 1.603-0.182 2.066-0.547s0.695-0.792 0.695-1.28c0-0.314-0.098-0.58-0.292-0.801-0.195-0.22-0.536-0.411-1.021-0.574-0.333-0.109-1.09-0.301-2.272-0.579-1.521-0.356-2.588-0.793-3.202-1.312-0.862-0.729-1.294-1.619-1.294-2.668 0-0.675 0.203-1.307 0.609-1.895s0.99-1.036 1.754-1.343c0.764-0.308 1.686-0.462 2.766-0.462 1.763 0 3.091 0.365 3.982 1.095 0.892 0.729 1.36 1.703 1.405 2.922l-2.838 0.117c-0.121-0.681-0.382-1.171-0.781-1.47-0.399-0.298-0.998-0.448-1.797-0.448-0.825 0-1.47 0.16-1.937 0.48-0.3 0.205-0.45 0.479-0.45 0.823 0 0.314 0.141 0.582 0.422 0.805 0.358 0.284 1.227 0.579 2.607 0.887 1.38 0.307 2.401 0.625 3.063 0.954 0.661 0.329 1.179 0.778 1.552 1.348 0.374 0.57 0.561 1.274 0.561 2.112 0 0.76-0.223 1.471-0.671 2.135-0.447 0.663-1.08 1.156-1.898 1.479-0.818 0.322-1.837 0.484-3.058 0.484-1.776 0-3.14-0.388-4.093-1.163-0.952-0.775-1.521-1.904-1.706-3.387zm2.492-12.429h2.176l1.036 1.348 1.112-1.348h2.166l-1.984 2.668h-2.493l-2.013-2.668z"
     style="fill-rule:nonzero;fill:#3d434a"
     id="path6" />
  <path
     d="m23.477 58.616c0 0.56-0.167 0.992-0.5 1.297-0.334 0.307-0.763 0.461-1.29 0.461-0.218 0-0.486-0.054-0.804-0.161-0.318-0.106-0.572-0.298-0.762-0.574l0.379-0.43c0.177 0.217 0.362 0.365 0.555 0.446 0.192 0.083 0.385 0.125 0.578 0.125 0.341 0 0.613-0.097 0.816-0.289 0.203-0.19 0.305-0.47 0.305-0.84v-0.371c-0.287 0.336-0.681 0.504-1.184 0.504-0.507 0-0.911-0.203-1.211-0.61-0.299-0.406-0.449-0.918-0.449-1.535v-0.082c0-0.646 0.149-1.167 0.445-1.562 0.3-0.396 0.708-0.594 1.223-0.594 0.518 0 0.921 0.182 1.207 0.547l0.035-0.469h0.657v4.137zm-2.844-1.977c0 0.419 0.087 0.78 0.262 1.082 0.177 0.3 0.46 0.449 0.851 0.449 0.258 0 0.466-0.058 0.625-0.175 0.162-0.118 0.289-0.267 0.383-0.45v-1.925c-0.091-0.175-0.218-0.319-0.379-0.434-0.161-0.117-0.368-0.176-0.621-0.176-0.393 0-0.678 0.154-0.856 0.461-0.177 0.305-0.265 0.667-0.265 1.086v0.082z"
     style="fill-rule:nonzero;fill:#fff"
     id="path8" />
  <path
     d="m27.926 57.967c-0.138 0.209-0.334 0.397-0.586 0.567-0.253 0.166-0.587 0.25-1.004 0.25-0.589 0-1.06-0.192-1.414-0.575-0.352-0.382-0.527-0.872-0.527-1.468v-0.164c0-0.461 0.087-0.853 0.261-1.176 0.177-0.326 0.407-0.573 0.688-0.742 0.281-0.172 0.58-0.258 0.898-0.258 0.604 0 1.044 0.198 1.321 0.594 0.278 0.393 0.417 0.885 0.417 1.476v0.324h-2.859c0.011 0.388 0.125 0.719 0.344 0.993 0.221 0.27 0.525 0.406 0.91 0.406 0.255 0 0.471-0.052 0.648-0.156 0.178-0.105 0.332-0.244 0.465-0.418l0.438 0.347zm-1.684-2.972c-0.286 0-0.528 0.104-0.726 0.312s-0.322 0.508-0.371 0.899h2.113v-0.055c-0.018-0.281-0.1-0.544-0.246-0.789-0.144-0.245-0.4-0.367-0.77-0.367z"
     style="fill-rule:nonzero;fill:#fff"
     id="path10" />
  <path
     d="m30.621 58.706c-0.057 0.018-0.133 0.035-0.226 0.05-0.092 0.019-0.202 0.028-0.333 0.028-0.268 0-0.497-0.082-0.687-0.246-0.19-0.165-0.285-0.459-0.285-0.883v-2.621h-0.774v-0.555h0.774v-1.027h0.722v1.027h0.79v0.555h-0.79v2.625c0 0.216 0.047 0.354 0.141 0.414s0.202 0.09 0.324 0.09c0.06 0 0.123-6e-3 0.188-0.016 0.068-0.013 0.118-0.024 0.152-0.031l4e-3 0.59z"
     style="fill-rule:nonzero;fill:#fff"
     id="path12" />
  <path
     d="m33.246 58.706c-0.057 0.018-0.133 0.035-0.226 0.05-0.092 0.019-0.202 0.028-0.333 0.028-0.268 0-0.497-0.082-0.687-0.246-0.19-0.165-0.285-0.459-0.285-0.883v-2.621h-0.774v-0.555h0.774v-1.027h0.722v1.027h0.79v0.555h-0.79v2.625c0 0.216 0.047 0.354 0.141 0.414s0.202 0.09 0.324 0.09c0.06 0 0.123-6e-3 0.188-0.016 0.068-0.013 0.118-0.024 0.152-0.031l4e-3 0.59z"
     style="fill-rule:nonzero;fill:#fff"
     id="path14" />
  <path
     d="m37.426 57.967c-0.138 0.209-0.334 0.397-0.586 0.567-0.253 0.166-0.587 0.25-1.004 0.25-0.589 0-1.06-0.192-1.414-0.575-0.352-0.382-0.527-0.872-0.527-1.468v-0.164c0-0.461 0.087-0.853 0.261-1.176 0.177-0.326 0.406-0.573 0.688-0.742 0.281-0.172 0.58-0.258 0.898-0.258 0.604 0 1.044 0.198 1.32 0.594 0.279 0.393 0.418 0.885 0.418 1.476v0.324h-2.859c0.011 0.388 0.125 0.719 0.344 0.993 0.221 0.27 0.525 0.406 0.91 0.406 0.255 0 0.471-0.052 0.648-0.156 0.178-0.105 0.332-0.244 0.465-0.418l0.438 0.347zm-1.684-2.972c-0.286 0-0.528 0.104-0.726 0.312s-0.322 0.508-0.371 0.899h2.113v-0.055c-0.018-0.281-0.1-0.544-0.246-0.789-0.144-0.245-0.4-0.367-0.77-0.367z"
     style="fill-rule:nonzero;fill:#fff"
     id="path16" />
  <path
     d="m38.82 54.479l0.926 1.539 0.938-1.539h0.847l-1.383 2.086 1.426 2.141h-0.836l-0.976-1.586-0.977 1.586h-0.84l1.422-2.141-1.379-2.086h0.832z"
     style="fill-rule:nonzero;fill:#fff"
     id="path18" />
  <path
     d="m44.09 58.706c-0.057 0.018-0.133 0.035-0.227 0.05-0.091 0.019-0.202 0.028-0.332 0.028-0.268 0-0.497-0.082-0.687-0.246-0.19-0.165-0.285-0.459-0.285-0.883v-2.621h-0.774v-0.555h0.774v-1.027h0.722v1.027h0.789v0.555h-0.789v2.625c0 0.216 0.047 0.354 0.141 0.414s0.202 0.09 0.324 0.09c0.06 0 0.122-6e-3 0.188-0.016 0.067-0.013 0.118-0.024 0.152-0.031l4e-3 0.59z"
     style="fill-rule:nonzero;fill:#fff"
     id="path20" />
  <defs
     id="defs27">
    <linearGradient
       id="_Linear1"
       x2="1"
       gradientTransform="matrix(0,-49.619,49.619,0,104.99,51.088)"
       gradientUnits="userSpaceOnUse">
      <stop
         style="stop-color:#758b9a"
         offset="0"
         id="stop22" />
      <stop
         style="stop-color:#b5bdc2"
         offset="1"
         id="stop24" />
    </linearGradient>
    <linearGradient
       inkscape:collect="always"
       xlink:href="#_Linear1"
       id="linearGradient4204"
       gradientUnits="userSpaceOnUse"
       gradientTransform="matrix(0,-49.619,49.619,0,104.99,51.088)"
       x2="1" />
  </defs>
</svg>
