<?xml version="1.0" encoding="UTF-8" standalone="no"?>
<svg
   clip-rule="evenodd"
   fill-rule="evenodd"
   stroke-linejoin="round"
   stroke-miterlimit="2"
   viewBox="0 0 48 48"
   version="1.1"
   id="svg15"
   sodipodi:docname="application-vnd.jgraph.mxfile.svg"
   inkscape:version="1.1.2 (0a00cf5339, 2022-02-04)"
   xmlns:inkscape="http://www.inkscape.org/namespaces/inkscape"
   xmlns:sodipodi="http://sodipodi.sourceforge.net/DTD/sodipodi-0.dtd"
   xmlns:xlink="http://www.w3.org/1999/xlink"
   xmlns="http://www.w3.org/2000/svg"
   xmlns:svg="http://www.w3.org/2000/svg">
  <defs
     id="defs19">
    <linearGradient
       inkscape:collect="always"
       xlink:href="#a"
       id="linearGradient2946"
       gradientUnits="userSpaceOnUse"
       gradientTransform="matrix(0,-37.21425,37.21425,0,461.415,38.515125)"
       x2="1" />
  </defs>
  <sodipodi:namedview
     id="namedview17"
     pagecolor="#ffffff"
     bordercolor="#666666"
     borderopacity="1.0"
     inkscape:pageshadow="2"
     inkscape:pageopacity="0.0"
     inkscape:pagecheckerboard="0"
     showgrid="false"
     inkscape:zoom="14.229167"
     inkscape:cx="25.967789"
     inkscape:cy="25.475842"
     inkscape:window-width="945"
     inkscape:window-height="1026"
     inkscape:window-x="965"
     inkscape:window-y="44"
     inkscape:window-maximized="1"
     inkscape:current-layer="svg15" />
  <linearGradient
     id="a"
     x2="1"
     gradientTransform="matrix(0,-37.21425,37.21425,0,461.415,38.515125)"
     gradientUnits="userSpaceOnUse">
    <stop
       stop-color="#f29b2e"
       offset="0"
       id="stop2" />
    <stop
       stop-color="#dda55d"
       offset="1"
       id="stop4" />
  </linearGradient>
  <path
     id="path7"
     style="stroke-width:0.75;fill:url(#linearGradient2946)"
     d="M 13.212891 1.3007812 C 11.697891 1.3007812 10.245578 1.9036094 9.1738281 2.9746094 C 8.1028281 4.0463594 7.5 5.4986719 7.5 7.0136719 L 7.5 11.912109 L 7.5 40.986328 C 7.5 42.501328 8.1028281 43.953641 9.1738281 45.025391 C 10.245578 46.096391 11.697891 46.699219 13.212891 46.699219 L 34.787109 46.699219 C 36.302109 46.699219 37.754422 46.096391 38.826172 45.025391 C 39.897172 43.953641 40.5 42.501328 40.5 40.986328 L 40.5 11.912109 L 40.5 7.0136719 C 40.5 5.4986719 39.897172 4.0463594 38.826172 2.9746094 C 37.754422 1.9036094 36.302109 1.3007812 34.787109 1.3007812 L 27.662109 1.3007812 L 20.337891 1.3007812 L 13.212891 1.3007812 z " />
  <path
     id="path1057"
     style="fill:#ac6000;fill-opacity:1"
     d="m 7.4998602,38.867102 v 2.11914 c 0,1.515 0.602828,2.967063 1.673828,4.039063 0.804,0.80325 1.8221388,1.342751 2.9199218,1.5625 0,0 0.002,0 0.002,0 0.182349,0.03644 0.366588,0.06547 0.552735,0.08398 0,0 0.002,0 0.002,0 0.186155,0.01845 0.373779,0.02734 0.5625,0.02734 h 0.002 21.570311 c 0.568125,0 1.128066,-0.0856 1.66211,-0.248047 0.889501,-0.27074 1.708906,-0.756406 2.378906,-1.425781 1.071,-1.072 1.673828,-2.524063 1.673828,-4.039063 v -2.11914 z" />
  <g
     transform="translate(0 -6)"
     id="g13">
    <path
       d="m18.373 35.878-1.207-.679 6.834-12.15 6.834 12.15-1.207.679s-5.627-10.004-5.627-10.004z"
       fill="#744d1d"
       id="path9" />
    <path
       d="m21.334 21c-.739 0-1.334.625-1.334 1.4v4.2c0 .775.595 1.4 1.334 1.4h5.332c.739 0 1.334-.625 1.334-1.4v-4.2c0-.775-.595-1.4-1.334-1.4zm-6 11c-.739 0-1.334.625-1.334 1.4v4.2c0 .775.595 1.4 1.334 1.4h5.332c.739 0 1.334-.625 1.334-1.4v-4.2c0-.775-.595-1.4-1.334-1.4zm12 0c-.739 0-1.334.625-1.334 1.4v4.2c0 .775.595 1.4 1.334 1.4h5.332c.739 0 1.334-.625 1.334-1.4v-4.2c0-.775-.595-1.4-1.334-1.4z"
       fill="#ac6000"
       fill-rule="nonzero"
       id="path11" />
  </g>
</svg>
