<?xml version="1.0" encoding="UTF-8" standalone="no"?>
<svg
   clip-rule="evenodd"
   fill-rule="evenodd"
   stroke-linejoin="round"
   stroke-miterlimit="2"
   viewBox="0 0 48 48"
   version="1.1"
   id="svg16"
   sodipodi:docname="application-x-kicad-pcb.svg"
   inkscape:version="1.1.2 (0a00cf5339, 2022-02-04)"
   xmlns:inkscape="http://www.inkscape.org/namespaces/inkscape"
   xmlns:sodipodi="http://sodipodi.sourceforge.net/DTD/sodipodi-0.dtd"
   xmlns:xlink="http://www.w3.org/1999/xlink"
   xmlns="http://www.w3.org/2000/svg"
   xmlns:svg="http://www.w3.org/2000/svg">
  <defs
     id="defs20">
    <linearGradient
       inkscape:collect="always"
       xlink:href="#a"
       id="linearGradient3647"
       gradientUnits="userSpaceOnUse"
       gradientTransform="matrix(0,-37.21425,37.21425,0,188.0775,38.316)"
       x2="1" />
  </defs>
  <sodipodi:namedview
     id="namedview18"
     pagecolor="#ffffff"
     bordercolor="#666666"
     borderopacity="1.0"
     inkscape:pageshadow="2"
     inkscape:pageopacity="0.0"
     inkscape:pagecheckerboard="0"
     showgrid="false"
     inkscape:zoom="14.208333"
     inkscape:cx="31.917889"
     inkscape:cy="24"
     inkscape:window-width="942"
     inkscape:window-height="1022"
     inkscape:window-x="966"
     inkscape:window-y="46"
     inkscape:window-maximized="1"
     inkscape:current-layer="svg16" />
  <linearGradient
     id="a"
     x2="1"
     gradientTransform="matrix(0,-37.21425,37.21425,0,188.0775,38.316)"
     gradientUnits="userSpaceOnUse">
    <stop
       stop-color="#a6b6bd"
       offset="0"
       id="stop2" />
    <stop
       stop-color="#dfe6e2"
       offset="1"
       id="stop4" />
  </linearGradient>
  <linearGradient
     id="b"
     x2="1"
     gradientTransform="matrix(0,-28.316043,28.316043,0,25.718539,35.947091)"
     gradientUnits="userSpaceOnUse">
    <stop
       stop-color="#8e8e8e"
       offset="0"
       id="stop7" />
    <stop
       stop-color="#98a3a5"
       offset="1"
       id="stop9" />
  </linearGradient>
  <path
     id="path12"
     style="stroke-width:0.75;fill:url(#linearGradient3647)"
     d="M 13.212891 1.1015625 C 11.697891 1.1015625 10.245578 1.7043906 9.1738281 2.7753906 C 8.1028281 3.8471406 7.5 5.2994531 7.5 6.8144531 L 7.5 8.4394531 L 7.5 40.787109 C 7.5 42.302109 8.1028281 43.754422 9.1738281 44.826172 C 10.245578 45.897172 11.697891 46.5 13.212891 46.5 L 34.787109 46.5 C 36.302109 46.5 37.754422 45.897172 38.826172 44.826172 C 39.897172 43.754422 40.5 42.302109 40.5 40.787109 L 40.5 8.4394531 L 40.5 6.8144531 C 40.5 5.2994531 39.897172 3.8471406 38.826172 2.7753906 C 37.754422 1.7043906 36.302109 1.1015625 34.787109 1.1015625 L 30.289062 1.1015625 L 17.710938 1.1015625 L 13.212891 1.1015625 z " />
  <path
     d="M 17.846644,7.6311184 V 17.18375 l 5.225843,4.997894 c 0.279628,0.267593 0.437493,0.637126 0.437493,1.02294 V 35.94709 h 1.415834 V 22.049264 l -5.215225,-4.890291 c -0.285998,-0.267592 -0.448111,-0.64208 -0.448111,-1.032851 V 7.6311184 Z m 4.247502,0 V 15.51165 l 5.215225,4.890999 c 0.28529,0.266885 0.447403,0.641373 0.448111,1.032143 V 35.94709 h 1.415126 V 20.372916 h 3.540293 l 1.415834,1.415834 h 6.371253 v -8.494296 h -6.371253 l -1.415834,1.415834 h -2.64761 L 27.757482,12.556097 V 7.6311184 h -1.415834 v 5.0771806 l 3.417823,3.417823 h 4.058488 c 0.492711,-0.841005 1.396721,-1.415834 2.434527,-1.415834 1.555294,0 2.831668,1.275667 2.831668,2.831668 0,1.555294 -1.276374,2.83096 -2.831668,2.83096 -1.037806,0 -1.941816,-0.574828 -2.434527,-1.415126 h -5.494851 c -0.375196,-7.08e-4 -0.735526,-0.14937 -1.000995,-0.414839 L 23.924819,15.498908 C 23.65935,15.233439 23.50998,14.873109 23.50998,14.497913 V 7.6311184 Z m -8.495004,0 V 20.558391 l -1.415126,1.230359 v 12.742506 c 0,0.784373 0.631462,1.415834 1.415834,1.415834 h 1.415834 v -7.475603 c -0.841005,-0.493418 -1.415834,-1.39672 -1.415834,-2.435235 0,-1.555293 1.276374,-2.831668 2.831668,-2.831668 1.555294,0 2.831668,1.276375 2.831668,2.831668 0,1.038515 -0.575537,1.941817 -1.415834,2.435235 v 7.475603 h 2.83096 V 23.810561 l -5.226551,-4.999309 c -0.27892,-0.267593 -0.436785,-0.637126 -0.436785,-1.023648 V 7.6311184 Z M 16.43081,24.620418 c 0.78154,0 1.415834,0.634294 1.415834,1.415834 0,0.781541 -0.634294,1.415834 -1.415834,1.415834 -0.78154,0 -1.415834,-0.634293 -1.415834,-1.415834 0,-0.78154 0.634294,-1.415834 1.415834,-1.415834 z m 19.821676,-8.495004 c 0.78154,0 1.415834,0.634294 1.415834,1.415834 0,0.781541 -0.634294,1.415834 -1.415834,1.415834 -0.78154,0 -1.415834,-0.634293 -1.415834,-1.415834 0,-0.78154 0.634294,-1.415834 1.415834,-1.415834 z"
     fill="url(#b)"
     fill-rule="nonzero"
     id="path14"
     style="fill:url(#b);stroke-width:0.707917" />
  <path
     id="path1057"
     style="fill:#8f9191;fill-opacity:1"
     d="m 7.4998608,38.667977 v 2.11914 c 0,1.515 0.602828,2.967063 1.6738282,4.039063 0.804,0.80325 1.822139,1.342751 2.919922,1.5625 0,0 0.002,0 0.002,0 0.182349,0.03644 0.366588,0.06547 0.552735,0.08398 0,0 0.002,0 0.002,0 0.186155,0.01845 0.37378,0.02734 0.5625,0.02734 h 0.002 21.570311 c 0.568125,0 1.128065,-0.0856 1.662109,-0.248047 0.889502,-0.27074 1.708906,-0.756406 2.378906,-1.425781 1.071,-1.072 1.673828,-2.524063 1.673828,-4.039063 v -2.11914 z" />
</svg>
