<?xml version="1.0" encoding="UTF-8" standalone="no"?>
<svg
   style="clip-rule:evenodd;fill-rule:evenodd;stroke-linejoin:round;stroke-miterlimit:2"
   viewBox="0 0 64 64"
   version="1.1"
   id="svg27"
   sodipodi:docname="application-x-desktop-linuxmint.svg"
   inkscape:version="1.1.2 (0a00cf5339, 2022-02-04)"
   xmlns:inkscape="http://www.inkscape.org/namespaces/inkscape"
   xmlns:sodipodi="http://sodipodi.sourceforge.net/DTD/sodipodi-0.dtd"
   xmlns:xlink="http://www.w3.org/1999/xlink"
   xmlns="http://www.w3.org/2000/svg"
   xmlns:svg="http://www.w3.org/2000/svg">
  <sodipodi:namedview
     id="namedview29"
     pagecolor="#ffffff"
     bordercolor="#666666"
     borderopacity="1.0"
     inkscape:pageshadow="2"
     inkscape:pageopacity="0.0"
     inkscape:pagecheckerboard="0"
     showgrid="false"
     inkscape:zoom="10.65625"
     inkscape:cx="32"
     inkscape:cy="32"
     inkscape:window-width="1896"
     inkscape:window-height="1022"
     inkscape:window-x="12"
     inkscape:window-y="46"
     inkscape:window-maximized="1"
     inkscape:current-layer="svg27" />
  <path
     id="path2"
     style="fill:url(#linearGradient963)"
     d="M 17.617188 1.46875 C 15.597188 1.46875 13.659469 2.2712188 12.230469 3.6992188 C 10.802469 5.1282186 10 7.0678906 10 9.0878906 L 10 12.099609 L 10 54.382812 C 10 56.402814 10.802469 58.340531 12.230469 59.769531 C 13.659469 61.197531 15.597187 62 17.617188 62 L 46.382812 62 C 48.402814 62 50.340531 61.197531 51.769531 59.769531 C 53.197531 58.340531 54 56.402814 54 54.382812 L 54 12.099609 L 54 9.0878906 C 54 7.0678906 53.197531 5.1282186 51.769531 3.6992188 C 50.340531 2.2712188 48.402813 1.46875 46.382812 1.46875 L 39.794922 1.46875 L 24.205078 1.46875 L 17.617188 1.46875 z " />
  <path
     id="path2-3"
     style="clip-rule:evenodd;fill:#3d434a;fill-opacity:1;fill-rule:evenodd;stroke-linejoin:round;stroke-miterlimit:2"
     d="m 10,50.982422 v 3.398437 0.002 c 6.5e-5,0.251841 0.01244,0.501552 0.03711,0.75 v 0.002 c 0.02473,0.248442 0.06268,0.494885 0.111329,0.738281 v 0.002 c 0.04871,0.243391 0.109702,0.484016 0.18164,0.720703 v 0.002 c 0.072,0.236684 0.155456,0.468944 0.25,0.697266 v 0.002 c 0.09461,0.228323 0.199937,0.453573 0.316406,0.671875 v 0.002 c 0.116532,0.218305 0.245101,0.430096 0.382814,0.636719 v 0.002 c 0.137775,0.206628 0.287037,0.406326 0.445311,0.599609 v 0.002 c 0.158341,0.193289 0.327703,0.378358 0.505861,0.55664 v 0.002 c 0.714499,0.714 1.5571,1.271274 2.472656,1.650391 C 15.618679,61.799106 16.607187,62 17.617188,62 h 28.765624 c 1.010002,0 1.998509,-0.200473 2.914063,-0.580078 0.915555,-0.379117 1.758156,-0.936391 2.472656,-1.650391 v -0.002 C 53.197531,58.338626 54,56.400859 54,54.380859 v -3.398437 z" />
  <path
     d="m20.19 59.071c-0.519 0-0.968-0.205-1.345-0.615s-0.565-0.918-0.565-1.524c0-0.607 0.188-1.115 0.565-1.525 0.377-0.409 0.826-0.614 1.345-0.614 0.306 0 0.579 0.065 0.819 0.196 0.246 0.132 0.429 0.295 0.549 0.492h0.033l-0.033-0.557v-1.852h0.754v5.868h-0.721v-0.558h-0.033c-0.12 0.197-0.303 0.361-0.549 0.492-0.24 0.131-0.513 0.197-0.819 0.197zm0.122-0.689c0.356 0 0.656-0.131 0.902-0.393 0.251-0.262 0.377-0.615 0.377-1.057 0-0.443-0.126-0.795-0.377-1.057-0.246-0.263-0.546-0.394-0.902-0.394-0.349 0-0.65 0.134-0.901 0.402-0.251 0.262-0.377 0.612-0.377 1.049s0.126 0.789 0.377 1.057c0.251 0.262 0.552 0.393 0.901 0.393z"
     style="fill-rule:nonzero;fill:#fff"
     id="path4" />
  <path
     d="m25.003 59.071c-0.607 0-1.101-0.202-1.484-0.607-0.377-0.404-0.565-0.915-0.565-1.532 0-0.585 0.183-1.088 0.549-1.508 0.372-0.421 0.844-0.631 1.418-0.631 0.595 0 1.071 0.194 1.426 0.582 0.361 0.388 0.541 0.907 0.541 1.557l-8e-3 0.139h-3.172c0.022 0.404 0.156 0.724 0.402 0.959 0.251 0.235 0.543 0.352 0.876 0.352 0.541 0 0.907-0.229 1.099-0.688l0.672 0.279c-0.131 0.311-0.347 0.573-0.648 0.786-0.3 0.208-0.669 0.312-1.106 0.312zm1.082-2.623c-0.017-0.229-0.123-0.448-0.32-0.655-0.191-0.208-0.478-0.312-0.86-0.312-0.279 0-0.522 0.088-0.73 0.262-0.202 0.175-0.341 0.41-0.418 0.705h2.328z"
     style="fill-rule:nonzero;fill:#fff"
     id="path6" />
  <path
     d="m29.109 59.071c-0.448 0-0.82-0.11-1.115-0.328-0.289-0.219-0.502-0.492-0.639-0.82l0.672-0.278c0.213 0.502 0.577 0.754 1.09 0.754 0.235 0 0.426-0.052 0.574-0.156 0.153-0.104 0.229-0.24 0.229-0.41 0-0.262-0.183-0.44-0.549-0.532l-0.811-0.197c-0.257-0.066-0.5-0.189-0.73-0.369-0.229-0.186-0.344-0.434-0.344-0.746 0-0.355 0.156-0.642 0.467-0.86 0.317-0.224 0.692-0.336 1.123-0.336 0.355 0 0.672 0.082 0.951 0.246 0.278 0.158 0.478 0.388 0.598 0.688l-0.656 0.27c-0.147-0.355-0.453-0.532-0.917-0.532-0.224 0-0.413 0.046-0.566 0.139s-0.229 0.219-0.229 0.377c0 0.23 0.177 0.385 0.532 0.467l0.795 0.189c0.377 0.087 0.656 0.237 0.836 0.45 0.181 0.214 0.271 0.454 0.271 0.722 0 0.36-0.148 0.661-0.443 0.901-0.295 0.241-0.675 0.361-1.139 0.361z"
     style="fill-rule:nonzero;fill:#fff"
     id="path8" />
  <path
     d="m32.101 53.072v3.614l1.737-1.762h0.967v0.033l-1.565 1.565 1.639 2.385v0.033h-0.909l-1.263-1.894-0.606 0.607v1.287h-0.754v-5.868h0.754z"
     style="fill-rule:nonzero;fill:#fff"
     id="path10" />
  <path
     d="m37.038 59.005c-0.421 0-0.743-0.112-0.967-0.336-0.219-0.224-0.328-0.541-0.328-0.95v-2.107h-0.705v-0.688h0.705v-1.229h0.754v1.229h0.984v0.688h-0.984v2.049c0 0.437 0.18 0.656 0.541 0.656 0.137 0 0.251-0.022 0.344-0.066l0.263 0.648c-0.164 0.071-0.367 0.106-0.607 0.106z"
     style="fill-rule:nonzero;fill:#fff"
     id="path12" />
  <path
     d="m38.502 55.407c0.388-0.409 0.883-0.614 1.484-0.614s1.095 0.205 1.483 0.614c0.388 0.405 0.582 0.913 0.582 1.525s-0.194 1.123-0.582 1.532c-0.388 0.405-0.882 0.607-1.483 0.607s-1.096-0.202-1.484-0.607c-0.388-0.409-0.582-0.92-0.582-1.532s0.194-1.12 0.582-1.525zm0.558 2.582c0.262 0.262 0.571 0.393 0.926 0.393s0.661-0.131 0.918-0.393c0.262-0.268 0.393-0.62 0.393-1.057s-0.131-0.787-0.393-1.049c-0.257-0.268-0.563-0.402-0.918-0.402s-0.664 0.134-0.926 0.402c-0.257 0.262-0.386 0.612-0.386 1.049s0.129 0.789 0.386 1.057z"
     style="fill-rule:nonzero;fill:#fff"
     id="path14" />
  <path
     d="m44.786 59.071c-0.306 0-0.582-0.066-0.828-0.197-0.241-0.131-0.421-0.295-0.541-0.492h-0.033l0.033 0.558v1.77h-0.754v-5.786h0.721v0.557h0.033c0.12-0.197 0.3-0.36 0.541-0.492 0.246-0.131 0.522-0.196 0.828-0.196 0.519 0 0.967 0.205 1.344 0.614 0.377 0.41 0.565 0.918 0.565 1.525 0 0.606-0.188 1.114-0.565 1.524s-0.825 0.615-1.344 0.615zm-0.123-0.689c0.349 0 0.65-0.131 0.901-0.393 0.252-0.268 0.377-0.62 0.377-1.057s-0.125-0.787-0.377-1.049c-0.251-0.268-0.552-0.402-0.901-0.402-0.355 0-0.659 0.131-0.91 0.394-0.246 0.262-0.369 0.614-0.369 1.057 0 0.442 0.123 0.795 0.369 1.057 0.251 0.262 0.555 0.393 0.91 0.393z"
     style="fill-rule:nonzero;fill:#fff"
     id="path16" />
  <path
     d="m17.321 13.883v8.218h3.38v1.649l5e-3 6.468c0 5.327 4.627 9.368 9.958 9.368h15.327v-16.258c0-5.331-4.622-9.368-9.958-9.368l-4.459-9e-3 -14.253-0.068zm2.176 2.187l12.073 0.053v9e-3h4.463c4.301 0 7.787 3.222 7.787 7.196v11.897c0 1.323-1.191 2.184-2.55 2.184h-10.606c-4.296 0-7.781-3.221-7.781-7.196l-0.01-8.155c0-1.266-1.105-2.129-2.023-2.129h-1.353v-3.859zm5.467 2.418v11.816c0 1.254 0.459 2.353 1.351 3.242 0.763 0.753 1.68 1.241 2.711 1.351h2.917v-2.315l-2.505-0.01c-1.216 0-2.256-1.184-2.256-2.706v-11.378h-2.218zm8.358 1.941c-1.007 0-1.903 0.374-2.622 1.101-0.719 0.726-1.096 1.632-1.096 2.655v5.171h2.346v-5.171c0-0.392 0.127-0.699 0.407-0.982 0.281-0.283 0.579-0.411 0.965-0.411 0.394 0 0.688 0.127 0.969 0.411 0.28 0.283 0.407 0.59 0.407 0.982v5.171h2.346v-5.171c0-0.392 0.127-0.699 0.407-0.982 0.282-0.284 0.575-0.411 0.969-0.411 0.386 0 0.684 0.128 0.965 0.411 0.28 0.283 0.408 0.59 0.408 0.982-5e-3 0.492 0.014 5.14 0.014 5.14h2.338l-6e-3 -5.14c0-1.023-0.377-1.929-1.096-2.655-0.719-0.727-1.615-1.101-2.622-1.101-0.989 0-1.854 0.368-2.553 1.041-0.698-0.672-1.557-1.041-2.546-1.041z"
     style="fill:#3d434a"
     id="path18" />
  <defs
     id="defs25">
    <linearGradient
       id="_Linear1"
       x2="1"
       gradientTransform="matrix(0,-49.619,49.619,0,104.99,51.088)"
       gradientUnits="userSpaceOnUse">
      <stop
         style="stop-color:#758b9a"
         offset="0"
         id="stop20" />
      <stop
         style="stop-color:#b5bdc2"
         offset="1"
         id="stop22" />
    </linearGradient>
    <linearGradient
       inkscape:collect="always"
       xlink:href="#_Linear1"
       id="linearGradient963"
       gradientUnits="userSpaceOnUse"
       gradientTransform="matrix(0,-49.619,49.619,0,104.99,51.088)"
       x2="1" />
  </defs>
</svg>
