<?xml version="1.0" encoding="UTF-8" standalone="no"?>
<svg
   clip-rule="evenodd"
   fill-rule="evenodd"
   stroke-linejoin="round"
   stroke-miterlimit="2"
   viewBox="0 0 64 64"
   version="1.1"
   id="svg19"
   sodipodi:docname="application-image-jxl.svg"
   inkscape:version="1.1.2 (0a00cf5339, 2022-02-04)"
   xmlns:inkscape="http://www.inkscape.org/namespaces/inkscape"
   xmlns:sodipodi="http://sodipodi.sourceforge.net/DTD/sodipodi-0.dtd"
   xmlns:xlink="http://www.w3.org/1999/xlink"
   xmlns="http://www.w3.org/2000/svg"
   xmlns:svg="http://www.w3.org/2000/svg">
  <defs
     id="defs23">
    <linearGradient
       inkscape:collect="always"
       xlink:href="#a"
       id="linearGradient3182"
       gradientUnits="userSpaceOnUse"
       gradientTransform="matrix(0,-49.619,49.619,0,396.55,51.088)"
       x2="1" />
  </defs>
  <sodipodi:namedview
     id="namedview21"
     pagecolor="#ffffff"
     bordercolor="#666666"
     borderopacity="1.0"
     inkscape:pageshadow="2"
     inkscape:pageopacity="0.0"
     inkscape:pagecheckerboard="0"
     showgrid="false"
     inkscape:zoom="10.671875"
     inkscape:cx="37.153734"
     inkscape:cy="34.248902"
     inkscape:window-width="945"
     inkscape:window-height="1026"
     inkscape:window-x="965"
     inkscape:window-y="44"
     inkscape:window-maximized="1"
     inkscape:current-layer="svg19" />
  <linearGradient
     id="a"
     x2="1"
     gradientTransform="matrix(0,-49.619,49.619,0,396.55,51.088)"
     gradientUnits="userSpaceOnUse">
    <stop
       stop-color="#005b8f"
       offset="0"
       id="stop2" />
    <stop
       stop-color="#0294a7"
       offset="1"
       id="stop4" />
  </linearGradient>
  <path
     id="path7"
     style="fill:url(#linearGradient3182)"
     d="M 17.617188 1.46875 C 15.597188 1.46875 13.659469 2.2712188 12.230469 3.6992188 C 10.802469 5.1282186 10 7.0678906 10 9.0878906 L 10 13.742188 L 10 54.382812 C 10 56.402814 10.802469 58.340531 12.230469 59.769531 C 13.659469 61.197531 15.597187 62 17.617188 62 L 46.382812 62 C 48.402814 62 50.340531 61.197531 51.769531 59.769531 C 53.197531 58.340531 54 56.402814 54 54.382812 L 54 13.742188 L 54 9.0878906 C 54 7.0678906 53.197531 5.1282186 51.769531 3.6992188 C 50.340531 2.2712188 48.402813 1.46875 46.382812 1.46875 L 37.708984 1.46875 L 26.291016 1.46875 L 17.617188 1.46875 z " />
  <path
     id="path914"
     style="clip-rule:evenodd;fill:#00263f;fill-opacity:1;fill-rule:evenodd;stroke-width:1;stroke-linejoin:round;stroke-miterlimit:2"
     d="m 9.9999997,50.982422 v 3.40039 c 0,2.020002 0.8024693,3.957719 2.2304693,5.386719 1.429,1.428 3.366717,2.230469 5.386719,2.230469 h 28.765624 c 2.020002,0 3.957719,-0.802469 5.386719,-2.230469 C 53.197531,58.340531 54,56.402814 54,54.382812 v -3.40039 z" />
  <path
     d="M 23.957,19 C 23.427,19 23,19.465 23,20.043 V 35.955 C 23,36.534 23.427,37 23.957,37 H 40.043 C 40.573,37 41,36.534 41,35.955 V 20.043 C 41,19.465 40.573,19 40.043,19 Z M 34.139,25.432 38,30.568 H 26 l 3,-3.849 2.139,2.574 z"
     fill="#00263f"
     id="path9"
     style="fill-rule:nonzero" />
  <g
     id="g3192"
     transform="translate(4.9985e-4,2.326711)">
    <path
       d="m 28.858,50.91 v -0.92 h 0.792 v 0.92 z m -1.004,7.345 0.15,-0.673 c 0.158,0.041 0.283,0.061 0.374,0.061 0.161,0 0.282,-0.053 0.361,-0.16 0.079,-0.107 0.119,-0.375 0.119,-0.803 v -4.912 h 0.792 v 4.929 c 0,0.575 -0.075,0.976 -0.225,1.202 -0.19,0.293 -0.507,0.44 -0.95,0.44 -0.214,0 -0.421,-0.028 -0.621,-0.084 z"
       fill="#ffffff"
       id="path11"
       style="fill-rule:nonzero" />
    <path
       d="m 30.336,56.442 1.708,-2.429 -1.58,-2.245 h 0.99 l 0.718,1.096 c 0.135,0.208 0.243,0.383 0.325,0.524 0.129,-0.194 0.248,-0.365 0.357,-0.515 l 0.787,-1.105 h 0.947 l -1.615,2.201 1.738,2.473 h -0.973 l -0.959,-1.452 -0.255,-0.392 -1.228,1.844 z"
       fill="#ffffff"
       id="path13"
       style="fill-rule:nonzero" />
    <path
       d="m 35.353,49.99 h 0.792 v 6.452 h -0.792 z"
       fill="#ffffff"
       id="path15"
       style="fill-rule:nonzero" />
  </g>
</svg>
