<?xml version="1.0" encoding="UTF-8" standalone="no"?>
<svg
   clip-rule="evenodd"
   fill-rule="evenodd"
   stroke-linejoin="round"
   stroke-miterlimit="2"
   viewBox="0 0 48 48"
   version="1.1"
   id="svg13"
   sodipodi:docname="application-x-kicad-schematic.svg"
   inkscape:version="1.1.2 (0a00cf5339, 2022-02-04)"
   xmlns:inkscape="http://www.inkscape.org/namespaces/inkscape"
   xmlns:sodipodi="http://sodipodi.sourceforge.net/DTD/sodipodi-0.dtd"
   xmlns:xlink="http://www.w3.org/1999/xlink"
   xmlns="http://www.w3.org/2000/svg"
   xmlns:svg="http://www.w3.org/2000/svg">
  <defs
     id="defs17">
    <linearGradient
       inkscape:collect="always"
       xlink:href="#a"
       id="linearGradient7778"
       gradientUnits="userSpaceOnUse"
       gradientTransform="matrix(0,-37.2142,37.2142,0,133.41,38.316)"
       x2="1" />
  </defs>
  <sodipodi:namedview
     id="namedview15"
     pagecolor="#ffffff"
     bordercolor="#666666"
     borderopacity="1.0"
     inkscape:pageshadow="2"
     inkscape:pageopacity="0.0"
     inkscape:pagecheckerboard="0"
     showgrid="false"
     inkscape:zoom="14.208333"
     inkscape:cx="26.991202"
     inkscape:cy="24.844575"
     inkscape:window-width="942"
     inkscape:window-height="1022"
     inkscape:window-x="966"
     inkscape:window-y="46"
     inkscape:window-maximized="1"
     inkscape:current-layer="svg13" />
  <linearGradient
     id="a"
     x2="1"
     gradientTransform="matrix(0,-37.2142,37.2142,0,133.41,38.316)"
     gradientUnits="userSpaceOnUse">
    <stop
       stop-color="#8896a0"
       offset="0"
       id="stop2" />
    <stop
       stop-color="#a8b8c3"
       offset="1"
       id="stop4" />
  </linearGradient>
  <path
     id="path7"
     style="fill:url(#linearGradient7778)"
     d="M 13.214844 1.1015625 C 11.699844 1.1015625 10.245828 1.7043906 9.1738281 2.7753906 C 8.1028281 3.8473906 7.5 5.2994531 7.5 6.8144531 L 7.5 8.1835938 L 7.5 40.787109 C 7.5 42.302109 8.1028281 43.754172 9.1738281 44.826172 C 9.9778281 45.629422 10.995967 46.168923 12.09375 46.388672 C 12.094369 46.388796 12.095084 46.388548 12.095703 46.388672 C 12.278052 46.42511 12.462292 46.454145 12.648438 46.472656 C 12.649081 46.47272 12.649747 46.472592 12.650391 46.472656 C 12.836546 46.491104 13.024169 46.5 13.212891 46.5 C 13.213544 46.5 13.21419 46.5 13.214844 46.5 L 34.785156 46.5 C 35.353281 46.5 35.913222 46.414397 36.447266 46.251953 C 37.336767 45.981213 38.156172 45.495547 38.826172 44.826172 C 39.897172 43.754172 40.5 42.302109 40.5 40.787109 L 40.5 8.1835938 L 40.5 6.8144531 C 40.5 5.2994531 39.897172 3.8473906 38.826172 2.7753906 C 37.754172 1.7043906 36.300156 1.1015625 34.785156 1.1015625 L 30.675781 1.1015625 L 17.324219 1.1015625 L 13.214844 1.1015625 z " />
  <g
     id="g7783"
     transform="matrix(0.71908926,0,0,0.71908926,6.7418578,5.2520861)">
    <path
       d="m 22,37 v 9.5 h 2 V 37 Z M 7.5,31 v 2 H 15 v -2 z m 33,-11 V 18 H 25.825 C 25.521,17.155 24.845,16.479 24,16.175 V 4 h -2 v 12.175 c -1.158,0.417 -2,1.534 -2,2.825 0,1.291 0.842,2.408 2,2.825 v 4.189 c 0,0.549 0.451,1 1,1 0.549,0 1,-0.451 1,-1 v -4.189 c 0.845,-0.304 1.521,-0.98 1.825,-1.825 z"
       fill="#618d9f"
       fill-rule="nonzero"
       id="path9" />
    <path
       d="M 16.984,24.986 C 16.437,24.995 15.992,25.452 16,26 v 5 h -2.014 c -0.549,0 -1,0.451 -1,1 0,0.549 0.451,1 1,1 H 16 v 0.85 c -0.014,0.096 -0.014,0.194 0,0.291 v 2.873 c 0,0.549 0.451,1 1,1 0.549,0 1,-0.451 1,-1 v -1.145 l 2.744,1.828 -1.06,0.354 c -0.408,0.136 -0.685,0.519 -0.685,0.949 0,0.549 0.452,1.001 1.001,1.001 0.107,0 0.214,-0.018 0.316,-0.052 l 2.866,-0.955 c 0.478,-0.082 0.831,-0.5 0.831,-0.986 0,-0.108 -0.017,-0.216 -0.052,-0.319 l -0.475,-2.853 c -0.073,-0.479 -0.484,-0.84 -0.968,-0.85 -0.007,0 -0.014,0 -0.02,0 -0.549,0 -1,0.452 -1,1 0,0.06 0.005,0.119 0.016,0.178 L 21.635,35.887 18,33.465 v -1.297 c 0.018,-0.108 0.018,-0.218 0,-0.326 v -1.067 l 5.111,-3.441 c 0.284,-0.184 0.455,-0.5 0.455,-0.839 0,-0.548 -0.451,-1 -1,-1 -0.013,0 -0.026,10e-4 -0.039,10e-4 -0.191,0.007 -0.376,0.069 -0.533,0.178 L 18,28.363 v -2.377 c 0,-0.548 -0.451,-1 -1,-1 -0.005,0 -0.01,0 -0.016,0 z M 26,32 c -0.005,0 -0.009,0 -0.014,0 -0.549,0 -1,0.451 -1,1 0,0.549 0.451,1 1,1 h 9.028 c 0.549,0 1,-0.451 1,-1 0,-0.549 -0.451,-1 -1,-1 z m 0,-3 c -0.005,0 -0.009,0 -0.014,0 -0.549,0 -1,0.451 -1,1 0,0.549 0.451,1 1,1 h 5.028 c 0.549,0 1,-0.451 1,-1 0,-0.549 -0.451,-1 -1,-1 z M 40.5,15 H 29 c -0.549,0 -1,0.451 -1,1 v 5.832 c -0.055,0.324 0.053,0.656 0.289,0.885 l 0.02,0.019 C 28.535,22.952 28.85,23.05 29.158,23 H 40.5 Z M 9,15 c -0.005,0 -0.009,0 -0.014,0 -0.549,0 -1,0.451 -1,1 0,0.549 0.451,1 1,1 h 8.028 c 0.549,0 1,-0.451 1,-1 0,-0.549 -0.451,-1 -1,-1 z m 4,-3 c -0.005,0 -0.009,0 -0.014,0 -0.549,0 -1,0.451 -1,1 0,0.549 0.451,1 1,1 h 4.028 c 0.549,0 1,-0.451 1,-1 0,-0.549 -0.451,-1 -1,-1 z M 27,9.842 V 1.102 H 19 V 10 c 0,0.549 0.451,1 1,1 h 5.832 c 0.324,0.055 0.656,-0.053 0.885,-0.289 l 0.019,-0.02 C 26.952,10.465 27.05,10.15 27,9.842 Z"
       fill="#006c93"
       id="path11" />
  </g>
  <path
     id="path1057"
     style="fill:#006c93;fill-opacity:1"
     d="m 7.499861,38.667977 v 2.11914 c 0,1.515 0.602828,2.967063 1.673828,4.039063 0.804,0.80325 1.822139,1.342751 2.919922,1.5625 0,0 0.002,0 0.002,0 0.182349,0.03644 0.366588,0.06547 0.552735,0.08398 0,0 0.002,0 0.002,0 0.186155,0.01845 0.37378,0.02734 0.5625,0.02734 h 0.002 21.570311 c 0.568125,0 1.128065,-0.0856 1.662109,-0.248047 0.889502,-0.27074 1.708906,-0.756406 2.378906,-1.425781 1.071,-1.072 1.673828,-2.524063 1.673828,-4.039063 v -2.11914 z" />
</svg>
