<?xml version="1.0" encoding="UTF-8" standalone="no"?>
<svg
   style="clip-rule:evenodd;fill-rule:evenodd;stroke-linejoin:round;stroke-miterlimit:2"
   viewBox="0 0 64 64"
   version="1.1"
   id="svg21"
   sodipodi:docname="application-afdesigner.svg"
   inkscape:version="1.1.2 (0a00cf5339, 2022-02-04)"
   xmlns:inkscape="http://www.inkscape.org/namespaces/inkscape"
   xmlns:sodipodi="http://sodipodi.sourceforge.net/DTD/sodipodi-0.dtd"
   xmlns:xlink="http://www.w3.org/1999/xlink"
   xmlns="http://www.w3.org/2000/svg"
   xmlns:svg="http://www.w3.org/2000/svg">
  <sodipodi:namedview
     id="namedview23"
     pagecolor="#ffffff"
     bordercolor="#666666"
     borderopacity="1.0"
     inkscape:pageshadow="2"
     inkscape:pageopacity="0.0"
     inkscape:pagecheckerboard="0"
     showgrid="false"
     showguides="false"
     inkscape:zoom="10.671875"
     inkscape:cx="15.367496"
     inkscape:cy="34.155198"
     inkscape:window-width="945"
     inkscape:window-height="1026"
     inkscape:window-x="965"
     inkscape:window-y="44"
     inkscape:window-maximized="1"
     inkscape:current-layer="svg21" />
  <path
     id="path2"
     style="fill:url(#linearGradient3026)"
     d="M 17.617188 1.46875 C 15.597188 1.46875 13.659469 2.2712188 12.230469 3.6992188 C 10.802469 5.1282186 10 7.0678906 10 9.0878906 L 10 14.269531 L 10 54.382812 C 10 56.402814 10.802469 58.340531 12.230469 59.769531 C 13.659469 61.197531 15.597187 62 17.617188 62 L 46.382812 62 C 48.402814 62 50.340531 61.197531 51.769531 59.769531 C 53.197531 58.340531 54 56.402814 54 54.382812 L 54 14.269531 L 54 9.0878906 C 54 7.0678906 53.197531 5.1282186 51.769531 3.6992188 C 50.340531 2.2712188 48.402813 1.46875 46.382812 1.46875 L 34.533203 1.46875 L 29.466797 1.46875 L 17.617188 1.46875 z " />
  <path
     id="path2-3"
     style="clip-rule:evenodd;fill:#6f2519;fill-opacity:1;fill-rule:evenodd;stroke-linejoin:round;stroke-miterlimit:2"
     d="m 9.9999999,50.982422 v 3.398437 0.002 c 6.51e-5,0.251841 0.01244,0.501552 0.03711,0.75 v 0.002 c 0.02473,0.248442 0.06268,0.494885 0.111329,0.738281 v 0.002 c 0.04871,0.243391 0.109702,0.484016 0.18164,0.720703 v 0.002 c 0.072,0.236684 0.155456,0.468944 0.25,0.697266 v 0.002 c 0.09461,0.228323 0.199937,0.453573 0.316406,0.671875 v 0.002 c 0.116532,0.218305 0.245101,0.430096 0.382813,0.636719 v 0.002 c 0.137776,0.206628 0.287038,0.406326 0.445312,0.599609 v 0.002 c 0.158341,0.193289 0.327703,0.378358 0.50586,0.55664 v 0.002 c 0.7145,0.714 1.557101,1.271274 2.472656,1.650391 C 15.618679,61.799106 16.607187,62 17.617188,62 h 28.765624 c 1.010002,0 1.998509,-0.200473 2.914063,-0.580078 0.915555,-0.379117 1.758156,-0.936391 2.472656,-1.650391 v -0.002 C 53.197531,58.338626 54,56.400859 54,54.380859 v -3.398437 z" />
  <g
     id="g3032"
     transform="translate(0,0.480211)">
    <path
       d="m 28.713,58.659 c -0.293,0.249 -0.575,0.425 -0.846,0.527 -0.271,0.103 -0.562,0.154 -0.872,0.154 -0.513,0 -0.907,-0.125 -1.183,-0.376 -0.275,-0.25 -0.413,-0.57 -0.413,-0.96 0,-0.229 0.052,-0.437 0.156,-0.626 0.104,-0.189 0.241,-0.341 0.409,-0.455 0.169,-0.114 0.358,-0.201 0.569,-0.259 0.155,-0.041 0.39,-0.081 0.703,-0.119 0.639,-0.076 1.109,-0.167 1.411,-0.273 0.003,-0.108 0.004,-0.177 0.004,-0.206 0,-0.322 -0.074,-0.549 -0.224,-0.681 -0.202,-0.179 -0.502,-0.268 -0.901,-0.268 -0.372,0 -0.646,0.065 -0.824,0.195 -0.177,0.131 -0.308,0.361 -0.393,0.692 l -0.773,-0.105 c 0.07,-0.331 0.186,-0.598 0.347,-0.802 0.161,-0.204 0.394,-0.36 0.699,-0.47 0.304,-0.11 0.657,-0.165 1.059,-0.165 0.398,0 0.722,0.047 0.971,0.141 0.249,0.093 0.432,0.211 0.549,0.353 0.117,0.142 0.199,0.322 0.246,0.539 0.027,0.134 0.04,0.378 0.04,0.729 v 1.055 c 0,0.735 0.017,1.2 0.05,1.395 0.034,0.195 0.101,0.382 0.2,0.56 H 28.871 C 28.789,59.07 28.736,58.878 28.713,58.659 Z m -0.066,-1.767 c -0.287,0.117 -0.718,0.217 -1.292,0.299 -0.325,0.047 -0.555,0.1 -0.69,0.158 -0.135,0.059 -0.239,0.144 -0.312,0.257 -0.073,0.113 -0.11,0.238 -0.11,0.376 0,0.211 0.08,0.387 0.24,0.527 0.159,0.141 0.393,0.211 0.701,0.211 0.304,0 0.575,-0.066 0.813,-0.2 0.237,-0.133 0.411,-0.315 0.523,-0.547 0.084,-0.179 0.127,-0.442 0.127,-0.791 z"
       style="fill:#e4e4e4;fill-rule:nonzero"
       id="path4" />
    <path
       d="m 30.862,59.234 v -4.051 h -0.699 v -0.616 h 0.699 v -0.496 c 0,-0.314 0.028,-0.547 0.083,-0.699 0.076,-0.205 0.211,-0.371 0.402,-0.499 0.192,-0.127 0.461,-0.191 0.807,-0.191 0.222,0 0.469,0.027 0.738,0.079 l -0.119,0.69 c -0.164,-0.029 -0.319,-0.044 -0.465,-0.044 -0.241,0 -0.411,0.052 -0.51,0.154 -0.1,0.103 -0.15,0.294 -0.15,0.576 v 0.43 h 0.91 v 0.616 h -0.91 v 4.051 z"
       style="fill:#e4e4e4;fill-rule:nonzero"
       id="path6" />
    <path
       d="m 33.274,59.234 v -6.442 h 2.22 c 0.501,0 0.883,0.031 1.147,0.092 0.369,0.085 0.684,0.239 0.944,0.462 0.34,0.287 0.594,0.654 0.763,1.101 0.168,0.446 0.253,0.957 0.253,1.531 0,0.489 -0.058,0.923 -0.172,1.301 -0.114,0.378 -0.261,0.691 -0.439,0.938 -0.179,0.248 -0.375,0.442 -0.587,0.585 -0.212,0.142 -0.469,0.249 -0.769,0.323 -0.3,0.073 -0.645,0.109 -1.035,0.109 z m 0.853,-0.76 h 1.375 c 0.425,0 0.758,-0.039 1,-0.119 0.242,-0.079 0.435,-0.19 0.578,-0.333 0.202,-0.203 0.36,-0.474 0.472,-0.816 0.113,-0.341 0.17,-0.755 0.17,-1.241 0,-0.674 -0.111,-1.192 -0.332,-1.554 C 37.169,54.05 36.9,53.807 36.583,53.684 36.355,53.596 35.987,53.552 35.48,53.552 h -1.353 z"
       style="fill:#e4e4e4;fill-rule:nonzero"
       id="path8" />
  </g>
  <path
     d="m20.9 38.071l12.645-21.934 11.426 19.689-13.446-0.078 1.5 2.385-12.125-0.062z"
     style="fill-rule:nonzero;fill:#ff8e36"
     id="path10" />
  <path
     d="m28.525 14.417l-2.306 3.898 0.964 1.638-4.638 8.063-2.867 1.693-3.045 5.101 2.408 4.047 0.843-0.048 0.716 1.251 12.858 4e-3 0.983 1.655 0.704 7e-3 -0.97-1.662 10.077 3e-3 2.597-4.238-11.833-20.673-1.452 0.027-0.333-0.665-4.706-0.101zm5.02 1.72l3.89 6.704h-7.755l3.865-6.704zm-4.195 7.277h8.418l7.203 12.412-13.316-0.077-4.739-8.114 2.434-4.221zm-2.79 4.838l2.588 4.431h-5.142l2.554-4.431zm-2.884 5.004h5.807l2.845 4.873-11.428-0.058 2.776-4.815z"
     style="fill-rule:nonzero;fill:#6f2519"
     id="path12" />
  <defs
     id="defs19">
    <linearGradient
       id="_Linear1"
       x2="1"
       gradientTransform="matrix(0,54.0966,-47.88,0,-38.3357,1.469)"
       gradientUnits="userSpaceOnUse">
      <stop
         style="stop-color:#ff8f36"
         offset="0"
         id="stop14" />
      <stop
         style="stop-color:#c23c22"
         offset="1"
         id="stop16" />
    </linearGradient>
    <linearGradient
       inkscape:collect="always"
       xlink:href="#_Linear1"
       id="linearGradient3026"
       gradientUnits="userSpaceOnUse"
       gradientTransform="matrix(0,54.0966,-47.88,0,-38.3357,1.469)"
       x2="1" />
  </defs>
</svg>
