<?xml version="1.0" encoding="UTF-8" standalone="no"?>
<svg
   clip-rule="evenodd"
   fill-rule="evenodd"
   stroke-linejoin="round"
   stroke-miterlimit="2"
   viewBox="0 0 64 64"
   version="1.1"
   id="svg33"
   sodipodi:docname="application-x-lha.svg"
   inkscape:version="1.1.2 (0a00cf5339, 2022-02-04)"
   xmlns:inkscape="http://www.inkscape.org/namespaces/inkscape"
   xmlns:sodipodi="http://sodipodi.sourceforge.net/DTD/sodipodi-0.dtd"
   xmlns:xlink="http://www.w3.org/1999/xlink"
   xmlns="http://www.w3.org/2000/svg"
   xmlns:svg="http://www.w3.org/2000/svg">
  <defs
     id="defs37">
    <linearGradient
       inkscape:collect="always"
       xlink:href="#a"
       id="linearGradient5850"
       gradientUnits="userSpaceOnUse"
       gradientTransform="matrix(1.07196,-49.7469,49.7469,1.07196,251.234,55.94)"
       x2="1" />
  </defs>
  <sodipodi:namedview
     id="namedview35"
     pagecolor="#ffffff"
     bordercolor="#666666"
     borderopacity="1.0"
     inkscape:pageshadow="2"
     inkscape:pageopacity="0.0"
     inkscape:pagecheckerboard="0"
     showgrid="false"
     inkscape:zoom="10.65625"
     inkscape:cx="32"
     inkscape:cy="32"
     inkscape:window-width="1896"
     inkscape:window-height="1022"
     inkscape:window-x="12"
     inkscape:window-y="46"
     inkscape:window-maximized="1"
     inkscape:current-layer="svg33" />
  <linearGradient
     id="a"
     x2="1"
     gradientTransform="matrix(1.07196,-49.7469,49.7469,1.07196,251.234,55.94)"
     gradientUnits="userSpaceOnUse">
    <stop
       stop-color="#075"
       offset="0"
       id="stop2" />
    <stop
       stop-color="#3ec884"
       offset="1"
       id="stop4" />
  </linearGradient>
  <path
     id="path7"
     style="fill:url(#linearGradient5850)"
     d="M 17.617188 1.46875 C 15.597188 1.46875 13.659469 2.2712188 12.230469 3.6992188 C 10.802469 5.1282186 10 7.0678906 10 9.0878906 L 10 12.421875 L 10 54.382812 C 10 56.402814 10.802469 58.340531 12.230469 59.769531 C 13.659469 61.197531 15.597187 62 17.617188 62 L 46.382812 62 C 48.402814 62 50.340531 61.197531 51.769531 59.769531 C 53.197531 58.340531 54 56.402814 54 54.382812 L 54 12.421875 L 54 9.0878906 C 54 7.0678906 53.197531 5.1282186 51.769531 3.6992188 C 50.340531 2.2712188 48.402813 1.46875 46.382812 1.46875 L 36.177734 1.46875 L 27.822266 1.46875 L 17.617188 1.46875 z " />
  <path
     id="path914"
     style="clip-rule:evenodd;fill:#044937;fill-opacity:1;fill-rule:evenodd;stroke-width:1;stroke-linejoin:round;stroke-miterlimit:2"
     d="m 10,50.982422 v 3.40039 c 0,2.020002 0.802469,3.957719 2.230469,5.386719 1.429,1.428 3.366717,2.230469 5.386719,2.230469 h 28.765624 c 2.020002,0 3.957719,-0.802469 5.386719,-2.230469 C 53.197531,58.340531 54,56.402814 54,54.382812 v -3.40039 z" />
  <path
     d="m42 18.285c0-1.262-1.023-2.285-2.285-2.285h-15.23c-1.262 0-2.285 1.023-2.285 2.285v17.43c0 1.262 1.023 2.285 2.285 2.285h15.23c1.262 0 2.285-1.023 2.285-2.285z"
     fill="#044937"
     id="path9" />
  <g
     fill="#fff"
     id="g31">
    <path
       d="m28.109 53.672h.754v5.868h-.754z"
       id="path11" />
    <path
       d="m30.528 53.672v1.852l-.033.557h.033c.109-.191.281-.352.516-.483.235-.137.486-.205.754-.205.497 0 .877.153 1.139.459s.394.716.394 1.229v2.459h-.754v-2.344c0-.743-.331-1.115-.992-1.115-.312 0-.566.126-.762.377-.197.246-.295.533-.295.861v2.221h-.754v-5.868z"
       fill-rule="nonzero"
       id="path13" />
    <path
       d="m35.446 59.671c-.426 0-.784-.123-1.074-.369-.284-.246-.426-.571-.426-.975 0-.437.169-.779.508-1.024.339-.252.757-.377 1.254-.377.443 0 .806.081 1.09.245v-.114c0-.295-.101-.53-.303-.705-.202-.18-.451-.271-.746-.271-.218 0-.418.052-.598.156-.175.104-.295.246-.361.426l-.688-.295c.093-.24.276-.461.549-.664.273-.207.634-.311 1.082-.311.513 0 .939.15 1.278.451.339.3.508.724.508 1.27v2.426h-.721v-.557h-.033c-.3.459-.74.688-1.319.688zm.123-.688c.311 0 .593-.115.844-.345.257-.235.385-.51.385-.827-.213-.175-.533-.263-.959-.263-.366 0-.642.08-.827.238-.186.158-.279.344-.279.557 0 .197.085.353.254.467.169.115.363.173.582.173z"
       fill-rule="nonzero"
       id="path15" />
    <path
       d="m31.039 16.611h2.2v1.1h-2.2z"
       fill-opacity=".93"
       id="path17" />
    <path
       d="m31.035 18.202h2.2v1.1h-2.2z"
       fill-opacity=".93"
       id="path19" />
    <path
       d="m31.021 19.774h2.2v1.1h-2.2z"
       fill-opacity=".93"
       id="path21" />
    <path
       d="m31.045 21.41h2.2v1.1h-2.2z"
       fill-opacity=".93"
       id="path23" />
    <path
       d="m31.045 23.018h2.2v1.1h-2.2z"
       fill-opacity=".93"
       id="path25" />
    <path
       d="m31.045 24.663h2.2v1.1h-2.2z"
       fill-opacity=".93"
       id="path27" />
    <path
       d="m32.951 27.371v-.694c0-.194-.157-.351-.349-.351h-.97c-.193 0-.349.157-.349.351v.693l-.539 1.591c-.151.443-.079.935.193 1.317.272.381.713.608 1.18.608s.908-.227 1.18-.608c.271-.382.344-.874.193-1.317zm-.226 2.497c-.279.393-.937.393-1.217 0-.14-.197-.177-.451-.1-.68l.181-.533h1.055l.181.533c.078.229.04.483-.1.68z"
       fill-rule="nonzero"
       id="path29" />
  </g>
</svg>
