<?xml version="1.0" encoding="UTF-8" standalone="no"?>
<svg
   clip-rule="evenodd"
   fill-rule="evenodd"
   stroke-linecap="round"
   viewBox="0 0 64 64"
   version="1.1"
   id="svg24"
   sodipodi:docname="application-x-wine-extension-skb.svg"
   inkscape:version="1.1.2 (0a00cf5339, 2022-02-04)"
   xmlns:inkscape="http://www.inkscape.org/namespaces/inkscape"
   xmlns:sodipodi="http://sodipodi.sourceforge.net/DTD/sodipodi-0.dtd"
   xmlns:xlink="http://www.w3.org/1999/xlink"
   xmlns="http://www.w3.org/2000/svg"
   xmlns:svg="http://www.w3.org/2000/svg">
  <defs
     id="defs28">
    <linearGradient
       inkscape:collect="always"
       xlink:href="#a"
       id="linearGradient962"
       gradientUnits="userSpaceOnUse"
       gradientTransform="matrix(0,-49.619,49.619,0,177.88,51.088)"
       x2="1" />
  </defs>
  <sodipodi:namedview
     id="namedview26"
     pagecolor="#ffffff"
     bordercolor="#666666"
     borderopacity="1.0"
     inkscape:pageshadow="2"
     inkscape:pageopacity="0.0"
     inkscape:pagecheckerboard="0"
     showgrid="false"
     inkscape:zoom="10.65625"
     inkscape:cx="32"
     inkscape:cy="32"
     inkscape:window-width="1896"
     inkscape:window-height="1022"
     inkscape:window-x="12"
     inkscape:window-y="46"
     inkscape:window-maximized="1"
     inkscape:current-layer="svg24" />
  <linearGradient
     id="a"
     x2="1"
     gradientTransform="matrix(0,-49.619,49.619,0,177.88,51.088)"
     gradientUnits="userSpaceOnUse">
    <stop
       stop-color="#758b9a"
       offset="0"
       id="stop2" />
    <stop
       stop-color="#b5bdc2"
       offset="1"
       id="stop4" />
  </linearGradient>
  <clipPath
     id="b">
    <path
       d="m302 290c0 4.389-3.611 8-8 8s-8-3.611-8-8 3.611-8 8-8 8 3.611 8 8z"
       clip-rule="evenodd"
       id="path7" />
  </clipPath>
  <path
     id="path10"
     style="fill:url(#linearGradient962)"
     d="M 17.617188 1.46875 C 15.597188 1.46875 13.659469 2.2712188 12.230469 3.6992188 C 10.802469 5.1282186 10 7.0678906 10 9.0878906 L 10 14.158203 L 10 54.382812 C 10 56.402814 10.802469 58.340531 12.230469 59.769531 C 13.659469 61.197531 15.597187 62 17.617188 62 L 46.382812 62 C 48.402814 62 50.340531 61.197531 51.769531 59.769531 C 53.197531 58.340531 54 56.402814 54 54.382812 L 54 14.158203 L 54 9.0878906 C 54 7.0678906 53.197531 5.1282186 51.769531 3.6992188 C 50.340531 2.2712188 48.402813 1.46875 46.382812 1.46875 L 36.607422 1.46875 L 27.392578 1.46875 L 17.617188 1.46875 z " />
  <path
     d="m 35.396577,16.868201 -14.517,1.84 1.037,2.287 10.511,-1.553 3.801,3.912 6.125,-1.073 z m -2.846,6.913 -9.999,1.698 0.974,2.555 5.44,-1.027 1.394,2.41 5.762,-1.241 z m -3.273,8.075 -4.945,1.083 0.948,2.767 5.338,-1.349 z"
     fill="#ffffff"
     fill-rule="nonzero"
     opacity="0.8"
     id="path12" />
  <g
     transform="translate(-0.376123,-4.7139767)"
     opacity="0.8"
     id="g22">
    <path
       transform="matrix(1.7399,0,0,2.0851,-462.12,-572.14)"
       d="m 293,295.5 c 0,1.38 -1.343,2.5 -3,2.5 -1.657,0 -3,-1.12 -3,-2.5 0,-1.38 1.343,-2.5 3,-2.5 1.657,0 3,1.12 3,2.5 z"
       fill="none"
       stroke="#ffffff"
       stroke-opacity="0.2"
       stroke-width="0.66"
       id="path14" />
    <path
       transform="matrix(1.7399,0,0,2.0851,-462.12,-572.14)"
       d="m 287,295.51 c -0.007,-1.38 1.33,-2.504 2.987,-2.51 1.657,-0.006 3.006,1.109 3.013,2.49 0.007,1.377 -1.324,2.5 -2.977,2.51"
       fill="none"
       stroke="#ffffff"
       stroke-width="0.66"
       id="path16" />
    <g
       transform="matrix(0.74566,0,0,0.74467,-176.78,-171.96)"
       clip-path="url(#b)"
       id="g20">
      <path
         d="m 287,294 -3.057,-5.029 H 290 Z"
         fill="#ffffff"
         fill-rule="nonzero"
         id="path18" />
    </g>
  </g>
  <path
     id="path914"
     style="clip-rule:evenodd;fill:#464d55;fill-opacity:1;fill-rule:evenodd;stroke-width:1;stroke-linecap:round;stroke-linejoin:round;stroke-miterlimit:2"
     d="m 9.999999,50.982422 v 3.40039 c 0,2.020002 0.802469,3.957719 2.230469,5.386719 1.429,1.428 3.366717,2.230469 5.386719,2.230469 h 28.765625 c 2.020002,0 3.957718,-0.802469 5.386719,-2.230469 C 53.19753,58.340531 54,56.402814 54,54.382812 v -3.40039 z" />
</svg>
