<?xml version="1.0" encoding="UTF-8" standalone="no"?>
<svg
   clip-rule="evenodd"
   fill-rule="evenodd"
   stroke-linejoin="round"
   stroke-miterlimit="2"
   viewBox="0 0 64 64"
   version="1.1"
   id="svg11"
   sodipodi:docname="application-x-qemu-disk.svg"
   inkscape:version="1.1.2 (0a00cf5339, 2022-02-04)"
   xmlns:inkscape="http://www.inkscape.org/namespaces/inkscape"
   xmlns:sodipodi="http://sodipodi.sourceforge.net/DTD/sodipodi-0.dtd"
   xmlns:xlink="http://www.w3.org/1999/xlink"
   xmlns="http://www.w3.org/2000/svg"
   xmlns:svg="http://www.w3.org/2000/svg">
  <defs
     id="defs15">
    <linearGradient
       inkscape:collect="always"
       xlink:href="#a"
       id="linearGradient4908"
       gradientUnits="userSpaceOnUse"
       gradientTransform="matrix(0,-49.619,49.619,0,323.66,51.088)"
       x2="1" />
  </defs>
  <sodipodi:namedview
     id="namedview13"
     pagecolor="#ffffff"
     bordercolor="#666666"
     borderopacity="1.0"
     inkscape:pageshadow="2"
     inkscape:pageopacity="0.0"
     inkscape:pagecheckerboard="0"
     showgrid="false"
     inkscape:zoom="10.65625"
     inkscape:cx="32"
     inkscape:cy="32"
     inkscape:window-width="1896"
     inkscape:window-height="1022"
     inkscape:window-x="12"
     inkscape:window-y="46"
     inkscape:window-maximized="1"
     inkscape:current-layer="svg11" />
  <linearGradient
     id="a"
     x2="1"
     gradientTransform="matrix(0,-49.619,49.619,0,323.66,51.088)"
     gradientUnits="userSpaceOnUse">
    <stop
       stop-color="#ce5e03"
       offset="0"
       id="stop2" />
    <stop
       stop-color="#bbae65"
       offset="1"
       id="stop4" />
  </linearGradient>
  <path
     id="path7"
     style="fill:url(#linearGradient4908)"
     d="M 17.617188 1.46875 C 15.597188 1.46875 13.659469 2.2712188 12.230469 3.6992188 C 10.802469 5.1282186 10 7.0678906 10 9.0878906 L 10 14.710938 L 10 54.382812 C 10 56.402814 10.802469 58.340531 12.230469 59.769531 C 13.659469 61.197531 15.597187 62 17.617188 62 L 46.382812 62 C 48.402814 62 50.340531 61.197531 51.769531 59.769531 C 53.197531 58.340531 54 56.402814 54 54.382812 L 54 14.710938 L 54 9.0878906 C 54 7.0678906 53.197531 5.1282186 51.769531 3.6992188 C 50.340531 2.2712188 48.402813 1.46875 46.382812 1.46875 L 39.044922 1.46875 L 24.955078 1.46875 L 17.617188 1.46875 z " />
  <path
     d="m 21.23328,14.770871 c -2.153035,0 -2.15465,2.075506 -2.15465,2.075506 v 24.922228 c 0,0 0.0016,2.075506 2.15465,2.075506 h 21.53358 c 0,0 2.15465,0.0016 2.15465,-2.075506 V 16.846377 c 0,0 -0.0016,-2.075506 -2.15465,-2.075506 z m 10.76679,4.84554 c 4.461127,0 8.0759,3.613158 8.0759,8.0759 0,4.462742 -3.614773,8.0759 -8.0759,8.0759 h -8.0759 v -8.0759 c 0,-4.462742 3.613158,-8.0759 8.0759,-8.0759 z m 0,4.84554 c -1.776698,0 -3.23036,1.453662 -3.23036,3.23036 0,1.776698 1.453662,3.23036 3.23036,3.23036 1.776698,0 3.23036,-1.453662 3.23036,-3.23036 0,-1.776698 -1.453662,-3.23036 -3.23036,-3.23036 z"
     fill="#ffffff"
     fill-opacity="0.7"
     fill-rule="nonzero"
     id="path9"
     style="stroke-width:1.61518" />
  <path
     id="path914"
     style="clip-rule:evenodd;fill:#823d04;fill-opacity:1;fill-rule:evenodd;stroke-width:1;stroke-linecap:round;stroke-linejoin:round;stroke-miterlimit:2"
     d="m 9.999999,50.982422 v 3.40039 c 0,2.020002 0.802468,3.957719 2.23047,5.386719 C 13.659467,61.197531 15.597183,62 17.617187,62 h 28.765625 c 2.020002,0 3.957718,-0.802469 5.386719,-2.230469 C 53.19753,58.340531 54,56.402814 54,54.382812 v -3.40039 z" />
</svg>
