<?xml version="1.0" encoding="UTF-8" standalone="no"?>
<svg
   style="clip-rule:evenodd;fill-rule:evenodd;stroke-linejoin:round;stroke-miterlimit:2"
   viewBox="0 0 64 64"
   version="1.1"
   id="svg10"
   sodipodi:docname="application-gvdesign.svg"
   inkscape:version="1.1.2 (0a00cf5339, 2022-02-04)"
   xmlns:inkscape="http://www.inkscape.org/namespaces/inkscape"
   xmlns:sodipodi="http://sodipodi.sourceforge.net/DTD/sodipodi-0.dtd"
   xmlns="http://www.w3.org/2000/svg"
   xmlns:svg="http://www.w3.org/2000/svg">
  <defs
     id="defs14" />
  <sodipodi:namedview
     id="namedview12"
     pagecolor="#ffffff"
     bordercolor="#666666"
     borderopacity="1.0"
     inkscape:pageshadow="2"
     inkscape:pageopacity="0.0"
     inkscape:pagecheckerboard="0"
     showgrid="false"
     inkscape:zoom="10.671875"
     inkscape:cx="39.636896"
     inkscape:cy="35.74817"
     inkscape:window-width="942"
     inkscape:window-height="1022"
     inkscape:window-x="966"
     inkscape:window-y="46"
     inkscape:window-maximized="1"
     inkscape:current-layer="svg10" />
  <path
     id="path2"
     style="fill-rule:nonzero;fill:#c63166"
     d="M 27.322266 1.46875 C 24.672266 3.99175 16.385 12.341078 10 18.830078 L 10 20.503906 C 10.278 20.260906 10.508156 20.061547 10.660156 19.935547 C 10.982156 19.668547 12.230547 18.575813 13.435547 17.507812 C 14.639547 16.439812 16.197484 15.073656 16.896484 14.472656 C 17.595484 13.870656 19.043234 12.559594 20.115234 11.558594 C 22.183234 9.6285937 28.569297 3.9897969 29.279297 3.4667969 C 29.510297 3.2967969 29.726813 3.1808906 29.757812 3.2128906 C 29.827813 3.2818906 29.425859 3.9537656 28.005859 6.1347656 C 27.409859 7.0507656 25.083938 10.640328 22.835938 14.111328 C 20.586937 17.582328 17.796766 21.887687 16.634766 23.679688 C 15.472766 25.472688 12.904734 29.437281 10.927734 32.488281 L 10 33.917969 L 10 54.382812 C 10 56.402813 10.802469 58.340531 12.230469 59.769531 C 13.659469 61.197531 15.597188 62 17.617188 62 L 31.517578 62 C 34.353578 50.806 37.349875 33.621125 42.171875 18.453125 L 52.601562 4.7246094 C 52.348476 4.3626798 52.068335 4.0158217 51.751953 3.6992188 C 50.322953 2.2712187 48.385234 1.46875 46.365234 1.46875 L 27.322266 1.46875 z " />
  <path
     d="m10 20.504c0.278-0.243 0.509-0.443 0.661-0.569 0.322-0.267 1.57-1.36 2.775-2.428 1.204-1.068 2.761-2.434 3.46-3.035 0.699-0.602 2.147-1.913 3.219-2.914 2.068-1.93 8.455-7.569 9.165-8.092 0.231-0.17 0.447-0.286 0.478-0.254 0.069 0.069-0.334 0.742-1.753 2.922-0.596 0.916-2.922 4.506-5.17 7.977-2.249 3.471-5.039 7.777-6.201 9.569-1.162 1.793-3.73 5.757-5.707 8.808-0.316 0.487-0.623 0.962-0.927 1.43v-13.414zm17.322-19.035c-2.649 2.521-10.938 10.872-17.322 17.359v-9.741c0-2.02 0.803-3.958 2.231-5.387 1.429-1.428 3.367-2.231 5.387-2.231h9.704z"
     style="fill-rule:nonzero;fill:#b8da6c"
     id="path4" />
  <path
     d="m54 45.064v9.318c0 2.02-0.803 3.958-2.231 5.387-1.429 1.428-3.367 2.231-5.387 2.231h-9.111l16.729-16.936z"
     style="fill-rule:nonzero;fill:#778b3c"
     id="path6" />
  <path
     id="path8"
     style="fill-rule:nonzero;fill:#eddf36"
     d="M 50.890625 2.9550781 C 47.16394 7.1547417 42.813752 12.717068 40.242188 18.265625 C 35.547187 28.394625 31.149516 47.266969 30.478516 59.167969 C 30.425516 60.097969 30.361594 61.164 30.308594 62 L 37.271484 62 L 54 45.064453 L 54 9.0878906 C 54 7.0678906 53.197531 5.1282187 51.769531 3.6992188 C 51.495629 3.4255077 51.198921 3.1816118 50.890625 2.9550781 z " />
  <path
     d="m 54,50.184 v 4.198 c 0,2.02 -0.803,3.958 -2.231,5.387 C 50.34,61.197 48.402,62 46.382,62 H 17.618 C 15.598,62 13.66,61.197 12.231,59.769 10.803,58.34 10,56.402 10,54.382 v -4.198 z"
     style="clip-rule:evenodd;fill:#333333;fill-opacity:0.80000001;fill-rule:evenodd;stroke-linejoin:round;stroke-miterlimit:2"
     id="path4-3" />
</svg>
