<?xml version="1.0" encoding="UTF-8" standalone="no"?>
<svg
   style="clip-rule:evenodd;fill-rule:evenodd;stroke-linejoin:round;stroke-miterlimit:2"
   viewBox="0 0 64 64"
   version="1.1"
   id="svg15"
   sodipodi:docname="application-yaml.svg"
   inkscape:version="1.1.2 (0a00cf5339, 2022-02-04)"
   xmlns:inkscape="http://www.inkscape.org/namespaces/inkscape"
   xmlns:sodipodi="http://sodipodi.sourceforge.net/DTD/sodipodi-0.dtd"
   xmlns:xlink="http://www.w3.org/1999/xlink"
   xmlns="http://www.w3.org/2000/svg"
   xmlns:svg="http://www.w3.org/2000/svg">
  <sodipodi:namedview
     id="namedview17"
     pagecolor="#ffffff"
     bordercolor="#666666"
     borderopacity="1.0"
     inkscape:pageshadow="2"
     inkscape:pageopacity="0.0"
     inkscape:pagecheckerboard="0"
     showgrid="false"
     inkscape:zoom="10.65625"
     inkscape:cx="32"
     inkscape:cy="32"
     inkscape:window-width="1896"
     inkscape:window-height="1022"
     inkscape:window-x="12"
     inkscape:window-y="46"
     inkscape:window-maximized="1"
     inkscape:current-layer="svg15" />
  <path
     id="path2"
     style="fill:url(#linearGradient5048)"
     d="M 17.617188 1.46875 C 15.597188 1.46875 13.659469 2.2712188 12.230469 3.6992188 C 10.802469 5.1282186 10 7.0678906 10 9.0878906 L 10 11.552734 L 10 54.382812 C 10 56.402814 10.802469 58.340531 12.230469 59.769531 C 13.659469 61.197531 15.597187 62 17.617188 62 L 46.382812 62 C 48.402814 62 50.340531 61.197531 51.769531 59.769531 C 53.197531 58.340531 54 56.402814 54 54.382812 L 54 11.552734 L 54 9.0878906 C 54 7.0678906 53.197531 5.1282186 51.769531 3.6992188 C 50.340531 2.2712188 48.402813 1.46875 46.382812 1.46875 L 36.664062 1.46875 L 27.335938 1.46875 L 17.617188 1.46875 z " />
  <path
     id="path2-3"
     style="clip-rule:evenodd;fill:#564916;fill-opacity:1;fill-rule:evenodd;stroke-linejoin:round;stroke-miterlimit:2"
     d="m 10,50.982422 v 3.398437 0.002 c 6.5e-5,0.251841 0.01244,0.501552 0.03711,0.75 v 0.002 c 0.02473,0.248442 0.06268,0.494885 0.111329,0.738281 v 0.002 c 0.04871,0.243391 0.109702,0.484016 0.18164,0.720703 v 0.002 c 0.072,0.236684 0.155456,0.468944 0.25,0.697266 v 0.002 c 0.09461,0.228323 0.199937,0.453573 0.316406,0.671875 v 0.002 c 0.116532,0.218305 0.245101,0.430096 0.382813,0.636719 v 0.002 c 0.137776,0.206628 0.287038,0.406326 0.445312,0.599609 v 0.002 c 0.158341,0.193289 0.327703,0.378358 0.50586,0.55664 v 0.002 c 0.7145,0.714 1.557101,1.271274 2.472656,1.650391 C 15.618679,61.799106 16.607187,62 17.617188,62 h 28.765624 c 1.010002,0 1.998509,-0.200473 2.914063,-0.580078 0.915555,-0.379117 1.758156,-0.936391 2.472656,-1.650391 v -0.002 C 53.197531,58.338626 54,56.400859 54,54.380859 v -3.398437 z" />
  <path
     d="m31.976 26.883l5.586-10.47h2.636l-6.99 12.82v8.12h-2.464v-8.006l-6.975-12.933h2.664l5.543 10.469z"
     style="fill-rule:nonzero;fill:#564916"
     id="path4" />
  <path
     d="m31.981 58.456v-4.016h0.72v0.557h0.034c0.115-0.191 0.289-0.352 0.524-0.483 0.24-0.137 0.478-0.205 0.713-0.205 0.623 0 1.046 0.257 1.27 0.77 0.328-0.513 0.795-0.77 1.402-0.77 0.475 0 0.833 0.153 1.073 0.459 0.241 0.3 0.361 0.71 0.361 1.23v2.458h-0.754v-2.344c0-0.405-0.074-0.691-0.221-0.86-0.147-0.17-0.371-0.255-0.672-0.255-0.295 0-0.541 0.126-0.738 0.377-0.191 0.251-0.287 0.538-0.287 0.86v2.222h-0.754v-2.344c0-0.405-0.073-0.691-0.22-0.86-0.148-0.17-0.372-0.255-0.673-0.255-0.295 0-0.541 0.126-0.738 0.377-0.191 0.251-0.286 0.538-0.286 0.86v2.222h-0.754zm-2.881 0.131c-0.427 0-0.785-0.123-1.074-0.369-0.284-0.246-0.426-0.571-0.426-0.975 0-0.437 0.169-0.779 0.508-1.025 0.339-0.251 0.757-0.377 1.254-0.377 0.443 0 0.806 0.082 1.09 0.246v-0.114c0-0.295-0.101-0.53-0.303-0.705-0.202-0.18-0.451-0.27-0.746-0.27-0.218 0-0.417 0.052-0.598 0.155-0.175 0.104-0.295 0.246-0.36 0.426l-0.689-0.295c0.093-0.24 0.277-0.461 0.55-0.664 0.273-0.207 0.633-0.311 1.08-0.311 0.514 0 0.941 0.15 1.28 0.45 0.339 0.301 0.508 0.724 0.508 1.27v2.427h-0.722v-0.558h-0.032c-0.301 0.459-0.741 0.689-1.32 0.689zm0.123-0.689c0.311 0 0.593-0.115 0.844-0.344 0.257-0.235 0.385-0.51 0.385-0.827-0.213-0.175-0.533-0.263-0.959-0.263-0.366 0-0.642 0.079-0.827 0.238-0.186 0.159-0.279 0.344-0.279 0.557 0 0.197 0.085 0.352 0.254 0.467s0.363 0.172 0.582 0.172zm10.46 0.67h-0.754v-5.868h0.754v5.868zm-14.388 1.055h-0.713l0.855-1.852-1.515-3.442h0.75l1.095 2.64h0.015l1.065-2.64h0.75l-2.302 5.294z"
     style="fill-rule:nonzero;fill:#fff"
     id="path6" />
  <defs
     id="defs13">
    <linearGradient
       id="_Linear1"
       x2="1"
       gradientTransform="matrix(0,-49.619,49.619,0,323.66,51.088)"
       gradientUnits="userSpaceOnUse">
      <stop
         style="stop-color:#a1871a"
         offset="0"
         id="stop8" />
      <stop
         style="stop-color:#fcd22b"
         offset="1"
         id="stop10" />
    </linearGradient>
    <linearGradient
       inkscape:collect="always"
       xlink:href="#_Linear1"
       id="linearGradient5048"
       gradientUnits="userSpaceOnUse"
       gradientTransform="matrix(0,-49.619,49.619,0,323.66,51.088)"
       x2="1" />
  </defs>
</svg>
