<?xml version="1.0" encoding="UTF-8" standalone="no"?>
<svg
   clip-rule="evenodd"
   fill-rule="evenodd"
   stroke-linejoin="round"
   stroke-miterlimit="2"
   viewBox="0 0 64 64"
   version="1.1"
   id="svg11"
   sodipodi:docname="application-vnd.kde.bluedevil-sendfile.svg"
   inkscape:version="1.1.2 (0a00cf5339, 2022-02-04)"
   xmlns:inkscape="http://www.inkscape.org/namespaces/inkscape"
   xmlns:sodipodi="http://sodipodi.sourceforge.net/DTD/sodipodi-0.dtd"
   xmlns:xlink="http://www.w3.org/1999/xlink"
   xmlns="http://www.w3.org/2000/svg"
   xmlns:svg="http://www.w3.org/2000/svg">
  <defs
     id="defs15">
    <linearGradient
       inkscape:collect="always"
       xlink:href="#a"
       id="linearGradient949"
       gradientUnits="userSpaceOnUse"
       gradientTransform="matrix(0,-49.619,49.619,0,177.88,51.088)"
       x2="1" />
  </defs>
  <sodipodi:namedview
     id="namedview13"
     pagecolor="#ffffff"
     bordercolor="#666666"
     borderopacity="1.0"
     inkscape:pageshadow="2"
     inkscape:pageopacity="0.0"
     inkscape:pagecheckerboard="0"
     showgrid="false"
     inkscape:zoom="10.671875"
     inkscape:cx="36.872621"
     inkscape:cy="34.530015"
     inkscape:window-width="945"
     inkscape:window-height="1026"
     inkscape:window-x="965"
     inkscape:window-y="44"
     inkscape:window-maximized="1"
     inkscape:current-layer="svg11" />
  <linearGradient
     id="a"
     x2="1"
     gradientTransform="matrix(0,-49.619,49.619,0,177.88,51.088)"
     gradientUnits="userSpaceOnUse">
    <stop
       stop-color="#758b9a"
       offset="0"
       id="stop2" />
    <stop
       stop-color="#b5bdc2"
       offset="1"
       id="stop4" />
  </linearGradient>
  <path
     id="path7"
     style="fill:url(#linearGradient949)"
     d="M 17.617188 1.46875 C 15.597188 1.46875 13.659469 2.2712188 12.230469 3.6992188 C 10.802469 5.1282186 10 7.0678906 10 9.0878906 L 10 13.335938 L 10 54.382812 C 10 56.402814 10.802469 58.340531 12.230469 59.769531 C 13.659469 61.197531 15.597187 62 17.617188 62 L 46.382812 62 C 48.402814 62 50.340531 61.197531 51.769531 59.769531 C 53.197531 58.340531 54 56.402814 54 54.382812 L 54 13.335938 L 54 9.0878906 C 54 7.0678906 53.197531 5.1282186 51.769531 3.6992188 C 50.340531 2.2712188 48.402813 1.46875 46.382812 1.46875 L 38.095703 1.46875 L 25.904297 1.46875 L 17.617188 1.46875 z " />
  <path
     d="M 31.970358,29.103856 V 14.32684 l 8.061745,7.61292 -8.061745,7.164096 v 0.896224 l 8.061745,8.06032 -8.061745,7.61292 V 30.00008 l -0.473047,-0.474472 z m -0.473047,0.421752 -7.587273,6.743768 V 21.93976 Z M 14.9022,28.57524 c 0.786512,0 1.42484,0.638328 1.42484,1.42484 0,0.786512 -0.638328,1.42484 -1.42484,1.42484 -0.786512,0 -1.42484,-0.638328 -1.42484,-1.42484 0,-0.786512 0.638328,-1.42484 1.42484,-1.42484 z m 5.69936,0 c 0.786512,0 1.42484,0.638328 1.42484,1.42484 0,0.786512 -0.638328,1.42484 -1.42484,1.42484 -0.786512,0 -1.42484,-0.638328 -1.42484,-1.42484 0,-0.786512 0.638328,-1.42484 1.42484,-1.42484 z m 22.79744,0 c 0.785087,0 1.42484,0.638328 1.42484,1.42484 0,0.786512 -0.639753,1.42484 -1.42484,1.42484 -0.786512,0 -1.42484,-0.638328 -1.42484,-1.42484 0,-0.786512 0.638328,-1.42484 1.42484,-1.42484 z m 5.69651,0 c 0.786512,0 1.42484,0.638328 1.42484,1.42484 0,0.786512 -0.638328,1.42484 -1.42484,1.42484 -0.786511,0 -1.42484,-0.638328 -1.42484,-1.42484 0,-0.786512 0.638329,-1.42484 1.42484,-1.42484 z"
     fill="#ffffff"
     fill-opacity="0.7"
     id="path9"
     style="stroke-width:1.42484" />
  <path
     id="path914"
     style="clip-rule:evenodd;fill:#5e7381;fill-opacity:1;fill-rule:evenodd;stroke-width:1;stroke-linejoin:round;stroke-miterlimit:2"
     d="m 10,50.982422 v 3.40039 c 0,2.020002 0.802469,3.957719 2.230469,5.386719 1.429,1.428 3.366717,2.230469 5.386719,2.230469 h 28.765624 c 2.020002,0 3.957719,-0.802469 5.386719,-2.230469 C 53.197531,58.340531 54,56.402814 54,54.382812 v -3.40039 z" />
</svg>
