<?xml version="1.0" encoding="UTF-8" standalone="no"?>
<svg
   style="clip-rule:evenodd;fill-rule:evenodd;stroke-linejoin:round;stroke-miterlimit:2"
   viewBox="0 0 64 64"
   version="1.1"
   id="svg19"
   sodipodi:docname="application-x-deb-linuxmint.svg"
   inkscape:version="1.1.2 (0a00cf5339, 2022-02-04)"
   xmlns:inkscape="http://www.inkscape.org/namespaces/inkscape"
   xmlns:sodipodi="http://sodipodi.sourceforge.net/DTD/sodipodi-0.dtd"
   xmlns:xlink="http://www.w3.org/1999/xlink"
   xmlns="http://www.w3.org/2000/svg"
   xmlns:svg="http://www.w3.org/2000/svg">
  <sodipodi:namedview
     id="namedview21"
     pagecolor="#ffffff"
     bordercolor="#666666"
     borderopacity="1.0"
     inkscape:pageshadow="2"
     inkscape:pageopacity="0.0"
     inkscape:pagecheckerboard="0"
     showgrid="false"
     inkscape:zoom="10.65625"
     inkscape:cx="32"
     inkscape:cy="32"
     inkscape:window-width="1896"
     inkscape:window-height="1022"
     inkscape:window-x="12"
     inkscape:window-y="46"
     inkscape:window-maximized="1"
     inkscape:current-layer="svg19" />
  <path
     id="path2"
     style="fill:url(#linearGradient4836)"
     d="M 17.617188 1.46875 C 15.597188 1.46875 13.659469 2.2712188 12.230469 3.6992188 C 10.802469 5.1282186 10 7.0678906 10 9.0878906 L 10 15.283203 L 10 54.382812 C 10 56.402814 10.802469 58.340531 12.230469 59.769531 C 13.659469 61.197531 15.597187 62 17.617188 62 L 46.382812 62 C 48.402814 62 50.340531 61.197531 51.769531 59.769531 C 53.197531 58.340531 54 56.402814 54 54.382812 L 54 15.283203 L 54 9.0878906 C 54 7.0678906 53.197531 5.1282186 51.769531 3.6992188 C 50.340531 2.2712188 48.402813 1.46875 46.382812 1.46875 L 38.027344 1.46875 L 25.972656 1.46875 L 17.617188 1.46875 z " />
  <path
     id="path2-3"
     style="clip-rule:evenodd;fill:#3c6233;fill-opacity:1;fill-rule:evenodd;stroke-linejoin:round;stroke-miterlimit:2"
     d="m 10,50.982422 v 3.398437 0.002 c 6.5e-5,0.251841 0.01244,0.501552 0.03711,0.75 v 0.002 c 0.02473,0.248442 0.06268,0.494885 0.111329,0.738281 v 0.002 c 0.04871,0.243391 0.109702,0.484016 0.18164,0.720703 v 0.002 c 0.072,0.236684 0.155456,0.468944 0.25,0.697266 v 0.002 c 0.09461,0.228323 0.199937,0.453573 0.316406,0.671875 v 0.002 c 0.116532,0.218305 0.245101,0.430096 0.382814,0.636719 v 0.002 c 0.137775,0.206628 0.287037,0.406326 0.445311,0.599609 v 0.002 c 0.158341,0.193289 0.327703,0.378358 0.505861,0.55664 v 0.002 c 0.714499,0.714 1.5571,1.271274 2.472656,1.650391 C 15.618679,61.799106 16.607187,62 17.617188,62 h 28.765624 c 1.010002,0 1.998509,-0.200473 2.914063,-0.580078 0.915555,-0.379117 1.758156,-0.936391 2.472656,-1.650391 v -0.002 C 53.197531,58.338626 54,56.400859 54,54.380859 v -3.398437 z" />
  <path
     d="m27.39 59.371c-0.519 0-0.968-0.205-1.345-0.615-0.377-0.409-0.565-0.918-0.565-1.524s0.188-1.115 0.565-1.524c0.377-0.41 0.826-0.615 1.345-0.615 0.306 0 0.579 0.066 0.819 0.197 0.246 0.131 0.429 0.295 0.549 0.491h0.033l-0.033-0.557v-1.852h0.754v5.868h-0.721v-0.557h-0.033c-0.12 0.196-0.303 0.36-0.549 0.491-0.24 0.131-0.513 0.197-0.819 0.197zm0.122-0.688c0.356 0 0.656-0.132 0.902-0.394 0.251-0.262 0.377-0.614 0.377-1.057s-0.126-0.795-0.377-1.057c-0.246-0.262-0.546-0.394-0.902-0.394-0.349 0-0.65 0.134-0.901 0.402-0.251 0.262-0.377 0.612-0.377 1.049s0.126 0.789 0.377 1.057c0.251 0.262 0.552 0.394 0.901 0.394z"
     style="fill-rule:nonzero;fill:#fff"
     id="path4" />
  <path
     d="m32.203 59.371c-0.607 0-1.101-0.202-1.484-0.606-0.377-0.405-0.565-0.916-0.565-1.533 0-0.585 0.183-1.087 0.549-1.508 0.372-0.421 0.844-0.631 1.418-0.631 0.595 0 1.071 0.194 1.426 0.582 0.361 0.388 0.541 0.907 0.541 1.557l-8e-3 0.139h-3.172c0.022 0.405 0.156 0.724 0.402 0.959 0.251 0.235 0.543 0.353 0.876 0.353 0.541 0 0.907-0.23 1.099-0.689l0.672 0.279c-0.131 0.311-0.347 0.573-0.648 0.787-0.3 0.207-0.669 0.311-1.106 0.311zm1.082-2.623c-0.017-0.229-0.123-0.448-0.32-0.655-0.191-0.208-0.478-0.312-0.86-0.312-0.279 0-0.522 0.088-0.73 0.263-0.202 0.174-0.341 0.409-0.418 0.704h2.328z"
     style="fill-rule:nonzero;fill:#fff"
     id="path6" />
  <path
     d="m36.892 59.371c-0.306 0-0.582-0.066-0.828-0.197-0.24-0.131-0.42-0.295-0.541-0.491h-0.032v0.557h-0.722v-5.868h0.754v1.852l-0.032 0.557h0.032c0.121-0.196 0.301-0.36 0.541-0.491 0.246-0.131 0.522-0.197 0.828-0.197 0.519 0 0.967 0.205 1.344 0.615 0.377 0.409 0.566 0.918 0.566 1.524s-0.189 1.115-0.566 1.524c-0.377 0.41-0.825 0.615-1.344 0.615zm-0.123-0.688c0.35 0 0.65-0.132 0.902-0.394 0.251-0.268 0.377-0.62 0.377-1.057s-0.126-0.787-0.377-1.049c-0.252-0.268-0.552-0.402-0.902-0.402-0.355 0-0.658 0.132-0.91 0.394-0.246 0.262-0.368 0.614-0.368 1.057s0.122 0.795 0.368 1.057c0.252 0.262 0.555 0.394 0.91 0.394z"
     style="fill-rule:nonzero;fill:#fff"
     id="path8" />
  <path
     d="m17.858 13.988v8.217h3.381v1.65l5e-3 6.468c0 5.326 4.626 9.367 9.958 9.367h15.326v-16.257c0-5.332-4.621-9.368-9.957-9.368l-4.459-0.01-14.254-0.067zm2.177 2.186l12.073 0.053v0.01h4.463c4.3 0 7.786 3.221 7.786 7.196v11.896c0 1.324-1.19 2.185-2.55 2.185h-10.606c-4.295 0-7.781-3.222-7.781-7.196l-9e-3 -8.156c0-1.266-1.105-2.128-2.023-2.128h-1.353v-3.86zm5.467 2.419v11.815c0 1.254 0.458 2.354 1.351 3.243 0.763 0.752 1.68 1.24 2.711 1.351h2.916v-2.316l-2.504-9e-3c-1.217 0-2.257-1.184-2.257-2.706v-11.378h-2.217zm8.358 1.941c-1.008 0-1.903 0.374-2.623 1.1-0.718 0.726-1.095 1.632-1.095 2.655v5.172h2.345v-5.172c0-0.392 0.128-0.698 0.408-0.981 0.28-0.284 0.578-0.412 0.965-0.412 0.394 0 0.687 0.128 0.969 0.412 0.28 0.283 0.407 0.589 0.407 0.981v5.172h2.346v-5.172c0-0.392 0.127-0.698 0.407-0.981 0.281-0.284 0.575-0.412 0.969-0.412 0.386 0 0.684 0.128 0.965 0.412 0.28 0.283 0.407 0.589 0.407 0.981-5e-3 0.492 0.015 5.141 0.015 5.141h2.338l-7e-3 -5.141c0-1.023-0.377-1.929-1.095-2.655-0.72-0.726-1.615-1.1-2.623-1.1-0.988 0-1.853 0.367-2.553 1.041-0.698-0.673-1.557-1.041-2.545-1.041z"
     style="fill:#eaf7df"
     id="path10" />
  <defs
     id="defs17">
    <linearGradient
       id="_Linear1"
       x2="1"
       gradientTransform="matrix(0,-49.619,49.619,0,104.99,51.088)"
       gradientUnits="userSpaceOnUse">
      <stop
         style="stop-color:#4b7b40"
         offset="0"
         id="stop12" />
      <stop
         style="stop-color:#9ad971"
         offset="1"
         id="stop14" />
    </linearGradient>
    <linearGradient
       inkscape:collect="always"
       xlink:href="#_Linear1"
       id="linearGradient4836"
       gradientUnits="userSpaceOnUse"
       gradientTransform="matrix(0,-49.619,49.619,0,104.99,51.088)"
       x2="1" />
  </defs>
</svg>
