<?xml version="1.0" encoding="UTF-8" standalone="no"?>
<svg
   style="clip-rule:evenodd;fill-rule:evenodd;stroke-linejoin:round;stroke-miterlimit:2"
   viewBox="0 0 64 64"
   version="1.1"
   id="svg18"
   sodipodi:docname="application-x-kdenlivetitle.svg"
   inkscape:version="1.1.2 (0a00cf5339, 2022-02-04)"
   xmlns:inkscape="http://www.inkscape.org/namespaces/inkscape"
   xmlns:sodipodi="http://sodipodi.sourceforge.net/DTD/sodipodi-0.dtd"
   xmlns:xlink="http://www.w3.org/1999/xlink"
   xmlns="http://www.w3.org/2000/svg"
   xmlns:svg="http://www.w3.org/2000/svg">
  <sodipodi:namedview
     id="namedview20"
     pagecolor="#ffffff"
     bordercolor="#666666"
     borderopacity="1.0"
     inkscape:pageshadow="2"
     inkscape:pageopacity="0.0"
     inkscape:pagecheckerboard="0"
     showgrid="false"
     inkscape:zoom="10.65625"
     inkscape:cx="32"
     inkscape:cy="32"
     inkscape:window-width="1896"
     inkscape:window-height="1022"
     inkscape:window-x="12"
     inkscape:window-y="46"
     inkscape:window-maximized="1"
     inkscape:current-layer="svg18" />
  <path
     id="path2"
     style="fill:url(#linearGradient6143)"
     d="M 17.617188 1.46875 C 15.597188 1.46875 13.659469 2.2712188 12.230469 3.6992188 C 10.802469 5.1282186 10 7.0678906 10 9.0878906 L 10 12.410156 L 10 54.382812 C 10 56.402814 10.802469 58.340531 12.230469 59.769531 C 13.659469 61.197531 15.597187 62 17.617188 62 L 46.382812 62 C 48.402814 62 50.340531 61.197531 51.769531 59.769531 C 53.197531 58.340531 54 56.402814 54 54.382812 L 54 12.410156 L 54 9.0878906 C 54 7.0678906 53.197531 5.1282186 51.769531 3.6992188 C 50.340531 2.2712188 48.402813 1.46875 46.382812 1.46875 L 38.232422 1.46875 L 25.767578 1.46875 L 17.617188 1.46875 z " />
  <path
     d="M 42.069,18.849143 H 40.98 c -0.258,0 -0.468,0.209 -0.468,0.468 v 0.582 c 0,0.259 -0.209,0.469 -0.468,0.469 h -1.015 c -0.258,0 -0.468,-0.21 -0.468,-0.469 v -0.582 c 0,-0.259 -0.209,-0.468 -0.468,-0.468 H 25.871 c -0.258,0 -0.468,0.209 -0.468,0.468 v 0.582 c 0,0.259 -0.209,0.469 -0.468,0.469 H 23.92 c -0.258,0 -0.468,-0.21 -0.468,-0.469 v -0.582 c 0,-0.259 -0.209,-0.468 -0.468,-0.468 h -1.052 c -0.258,0 -0.468,0.209 -0.468,0.468 v 21.064 c 0,0.258 0.21,0.468 0.468,0.468 h 1.052 c 0.259,0 0.468,-0.21 0.468,-0.468 v -0.428 c 0,-0.259 0.21,-0.468 0.468,-0.468 h 1.015 c 0.259,0 0.468,0.209 0.468,0.468 v 0.428 c 0,0.258 0.21,0.468 0.468,0.468 h 12.222 c 0.259,0 0.468,-0.21 0.468,-0.468 v -0.428 c 0,-0.259 0.21,-0.468 0.468,-0.468 h 1.015 c 0.259,0 0.468,0.209 0.468,0.468 v 0.428 c 0,0.258 0.21,0.468 0.468,0.468 h 1.089 c 0.259,0 0.468,-0.21 0.468,-0.468 v -21.064 c 0,-0.259 -0.209,-0.468 -0.468,-0.468 z m -16.666,17.913 c 0,0.258 -0.209,0.468 -0.468,0.468 H 23.92 c -0.258,0 -0.468,-0.21 -0.468,-0.468 v -1.015 c 0,-0.259 0.21,-0.468 0.468,-0.468 h 1.015 c 0.259,0 0.468,0.209 0.468,0.468 z m 0,-4.206 c 0,0.258 -0.209,0.468 -0.468,0.468 H 23.92 c -0.258,0 -0.468,-0.21 -0.468,-0.468 v -1.015 c 0,-0.259 0.21,-0.469 0.468,-0.469 h 1.015 c 0.259,0 0.468,0.21 0.468,0.469 z m 0,-4.207 c 0,0.259 -0.209,0.469 -0.468,0.469 H 23.92 c -0.258,0 -0.468,-0.21 -0.468,-0.469 v -1.015 c 0,-0.258 0.21,-0.468 0.468,-0.468 h 1.015 c 0.259,0 0.468,0.21 0.468,0.468 z m 0,-4.206 c 0,0.259 -0.209,0.468 -0.468,0.468 H 23.92 c -0.258,0 -0.468,-0.209 -0.468,-0.468 v -1.015 c 0,-0.258 0.21,-0.468 0.468,-0.468 h 1.015 c 0.259,0 0.468,0.21 0.468,0.468 z m 11.134,14.231 c 0,0.259 -0.209,0.468 -0.468,0.468 h -8.137 c -0.258,0 -0.468,-0.209 -0.468,-0.468 v -3.761 c 0,-0.259 0.21,-0.468 0.468,-0.468 h 8.137 c 0.259,0 0.468,0.209 0.468,0.468 z m 0,-6.644 c 0,0.258 -0.209,0.468 -0.468,0.468 h -8.137 c -0.258,0 -0.468,-0.21 -0.468,-0.468 v -3.762 c 0,-0.258 0.21,-0.468 0.468,-0.468 h 8.137 c 0.259,0 0.468,0.21 0.468,0.468 z m 0,-6.645 c 0,0.259 -0.209,0.468 -0.468,0.468 h -8.137 c -0.258,0 -0.468,-0.209 -0.468,-0.468 v -3.762 c 0,-0.258 0.21,-0.468 0.468,-0.468 h 8.137 c 0.259,0 0.468,0.21 0.468,0.468 z m 3.975,11.677 c 0,0.258 -0.209,0.468 -0.468,0.468 h -1.015 c -0.258,0 -0.468,-0.21 -0.468,-0.468 v -1.015 c 0,-0.259 0.21,-0.468 0.468,-0.468 h 1.015 c 0.259,0 0.468,0.209 0.468,0.468 z m 0,-4.206 c 0,0.258 -0.209,0.468 -0.468,0.468 h -1.015 c -0.258,0 -0.468,-0.21 -0.468,-0.468 v -1.015 c 0,-0.259 0.21,-0.469 0.468,-0.469 h 1.015 c 0.259,0 0.468,0.21 0.468,0.469 z m 0,-4.207 c 0,0.259 -0.209,0.469 -0.468,0.469 h -1.015 c -0.258,0 -0.468,-0.21 -0.468,-0.469 v -1.015 c 0,-0.258 0.21,-0.468 0.468,-0.468 h 1.015 c 0.259,0 0.468,0.21 0.468,0.468 z m 0,-4.206 c 0,0.259 -0.209,0.468 -0.468,0.468 h -1.015 c -0.258,0 -0.468,-0.209 -0.468,-0.468 v -1.015 c 0,-0.258 0.21,-0.468 0.468,-0.468 h 1.015 c 0.259,0 0.468,0.21 0.468,0.468 z"
     style="fill:url(#_Linear2);fill-rule:nonzero"
     id="path4" />
  <defs
     id="defs16">
    <linearGradient
       id="_Linear1"
       x2="1"
       gradientTransform="matrix(0,-49.619,49.619,0,469.44,51.088)"
       gradientUnits="userSpaceOnUse">
      <stop
         style="stop-color:#348692"
         offset="0"
         id="stop6" />
      <stop
         style="stop-color:#69b9cd"
         offset="1"
         id="stop8" />
    </linearGradient>
    <linearGradient
       id="_Linear2"
       x2="1"
       gradientTransform="matrix(-5e-4,-22.7783,22.7783,-5e-4,32.0005,41.627443)"
       gradientUnits="userSpaceOnUse">
      <stop
         style="stop-color:#0d545f"
         offset="0"
         id="stop11" />
      <stop
         style="stop-color:#772979"
         offset="1"
         id="stop13" />
    </linearGradient>
    <linearGradient
       inkscape:collect="always"
       xlink:href="#_Linear1"
       id="linearGradient6143"
       gradientUnits="userSpaceOnUse"
       gradientTransform="matrix(0,-49.619,49.619,0,469.44,51.088)"
       x2="1" />
  </defs>
  <path
     id="path914"
     style="clip-rule:evenodd;fill:#135260;fill-opacity:1;fill-rule:evenodd;stroke-width:1;stroke-linejoin:round;stroke-miterlimit:2"
     d="m 10,50.982422 v 3.40039 c 0,2.020002 0.802469,3.957719 2.230469,5.386719 1.429,1.428 3.366717,2.230469 5.386719,2.230469 h 28.765624 c 2.020002,0 3.957719,-0.802469 5.386719,-2.230469 C 53.197531,58.340531 54,56.402814 54,54.382812 v -3.40039 z" />
</svg>
