<?xml version="1.0" encoding="UTF-8" standalone="no"?>
<svg
   style="clip-rule:evenodd;fill-rule:evenodd;stroke-linejoin:round;stroke-miterlimit:2"
   viewBox="0 0 64 64"
   version="1.1"
   id="svg19"
   sodipodi:docname="application-x-cd-image.svg"
   inkscape:version="1.1.2 (0a00cf5339, 2022-02-04)"
   xmlns:inkscape="http://www.inkscape.org/namespaces/inkscape"
   xmlns:sodipodi="http://sodipodi.sourceforge.net/DTD/sodipodi-0.dtd"
   xmlns:xlink="http://www.w3.org/1999/xlink"
   xmlns="http://www.w3.org/2000/svg"
   xmlns:svg="http://www.w3.org/2000/svg">
  <sodipodi:namedview
     id="namedview21"
     pagecolor="#ffffff"
     bordercolor="#666666"
     borderopacity="1.0"
     inkscape:pageshadow="2"
     inkscape:pageopacity="0.0"
     inkscape:pagecheckerboard="0"
     showgrid="false"
     inkscape:zoom="10.65625"
     inkscape:cx="32"
     inkscape:cy="32"
     inkscape:window-width="1896"
     inkscape:window-height="1022"
     inkscape:window-x="12"
     inkscape:window-y="46"
     inkscape:window-maximized="1"
     inkscape:current-layer="svg19" />
  <path
     id="path2"
     style="fill:url(#linearGradient3414)"
     d="M 17.617188 1.46875 C 15.597188 1.46875 13.659469 2.2712188 12.230469 3.6992188 C 10.802469 5.1282186 10 7.0678906 10 9.0878906 L 10 15.578125 L 10 54.382812 C 10 56.402814 10.802469 58.340531 12.230469 59.769531 C 13.659469 61.197531 15.597187 62 17.617188 62 L 46.382812 62 C 48.402814 62 50.340531 61.197531 51.769531 59.769531 C 53.197531 58.340531 54 56.402814 54 54.382812 L 54 15.578125 L 54 9.0878906 C 54 7.0678906 53.197531 5.1282186 51.769531 3.6992188 C 50.340531 2.2712188 48.402813 1.46875 46.382812 1.46875 L 39.511719 1.46875 L 24.488281 1.46875 L 17.617188 1.46875 z " />
  <path
     id="path2-3"
     style="clip-rule:evenodd;fill:#232425;fill-opacity:1;fill-rule:evenodd;stroke-linejoin:round;stroke-miterlimit:2"
     d="m 10,50.982422 v 3.398437 0.002 c 6.5e-5,0.251841 0.01244,0.501552 0.03711,0.75 v 0.002 c 0.02473,0.248442 0.06268,0.494885 0.111329,0.738281 v 0.002 c 0.04871,0.243391 0.109702,0.484016 0.18164,0.720703 v 0.002 c 0.072,0.236684 0.155456,0.468944 0.25,0.697266 v 0.002 c 0.09461,0.228323 0.199937,0.453573 0.316406,0.671875 v 0.002 c 0.116532,0.218305 0.245101,0.430096 0.382813,0.636719 v 0.002 c 0.137776,0.206628 0.287038,0.406326 0.445312,0.599609 v 0.002 c 0.158341,0.193289 0.327703,0.378358 0.50586,0.55664 v 0.002 c 0.7145,0.714 1.557101,1.271274 2.472656,1.650391 C 15.618679,61.799106 16.607187,62 17.617188,62 h 28.765624 c 1.010002,0 1.998509,-0.200473 2.914063,-0.580078 0.915555,-0.379117 1.758156,-0.936391 2.472656,-1.650391 v -0.002 C 53.197531,58.338626 54,56.400859 54,54.380859 v -3.398437 z" />
  <path
     d="m30.045 59.271c-0.601 0-1.095-0.202-1.483-0.607-0.388-0.409-0.582-0.92-0.582-1.532s0.194-1.12 0.582-1.524c0.388-0.41 0.882-0.615 1.483-0.615 0.448 0 0.82 0.109 1.115 0.328 0.295 0.218 0.511 0.494 0.647 0.827l-0.688 0.287c-0.208-0.502-0.582-0.754-1.123-0.754-0.333 0-0.628 0.137-0.885 0.41-0.251 0.273-0.377 0.62-0.377 1.041s0.126 0.768 0.377 1.041c0.257 0.273 0.552 0.41 0.885 0.41 0.563 0 0.951-0.252 1.164-0.754l0.672 0.286c-0.137 0.328-0.358 0.604-0.664 0.828-0.3 0.219-0.675 0.328-1.123 0.328z"
     style="fill-rule:nonzero;fill:#fff"
     id="path4" />
  <path
     d="m34.115 59.271c-0.519 0-0.967-0.205-1.344-0.615-0.377-0.409-0.565-0.918-0.565-1.524 0-0.607 0.188-1.115 0.565-1.524 0.377-0.41 0.825-0.615 1.344-0.615 0.306 0 0.58 0.065 0.82 0.197 0.246 0.131 0.429 0.295 0.549 0.491h0.033l-0.033-0.557v-1.852h0.754v5.868h-0.721v-0.557h-0.033c-0.12 0.196-0.303 0.36-0.549 0.491-0.24 0.131-0.514 0.197-0.82 0.197zm0.123-0.688c0.355 0 0.656-0.132 0.902-0.394 0.251-0.262 0.377-0.615 0.377-1.057 0-0.443-0.126-0.795-0.377-1.057-0.246-0.263-0.547-0.394-0.902-0.394-0.349 0-0.65 0.134-0.901 0.402-0.252 0.262-0.377 0.612-0.377 1.049s0.125 0.789 0.377 1.057c0.251 0.262 0.552 0.394 0.901 0.394z"
     style="fill-rule:nonzero;fill:#fff"
     id="path6" />
  <path
     d="m32 16.539c-2.671 0-5.343 1.023-7.39 3.07-4.093 4.094-4.093 10.686 0 14.78 4.094 4.093 10.686 4.093 14.78 0 4.094-4.094 4.094-10.686 0-14.78-2.047-2.047-4.719-3.07-7.39-3.07z"
     style="fill-rule:nonzero;fill:#fbff41"
     id="path8" />
  <path
     d="m26.495 17.474c-5.257 3.043-7.057 9.77-4.017 15.03 3.04 5.259 9.77 7.058 15.027 4.018 5.26-3.043 7.056-9.769 4.016-15.028s-9.765-7.056-15.026-4.02zm5.502 9.404l9.058 0.233c-0.012 0.756-0.115 1.508-0.308 2.237-0.598 2.225-2.025 4.215-4.161 5.469l-4.585-7.93-4.78 7.836c-1.233-0.763-2.306-1.828-3.085-3.177-0.818-1.414-1.207-2.955-1.216-4.477l9.074-0.193-4.482-7.754c2.155-1.221 4.591-1.47 6.817-0.874 0.64 0.171 1.261 0.414 1.851 0.722l-4.183 7.908z"
     style="fill-rule:nonzero;fill:#232425"
     id="path10" />
  <defs
     id="defs17">
    <linearGradient
       id="_Linear1"
       x2="1"
       gradientTransform="matrix(0,-49.619,49.619,0,104.99,51.088)"
       gradientUnits="userSpaceOnUse">
      <stop
         style="stop-color:#454545"
         offset="0"
         id="stop12" />
      <stop
         style="stop-color:#696969"
         offset="1"
         id="stop14" />
    </linearGradient>
    <linearGradient
       inkscape:collect="always"
       xlink:href="#_Linear1"
       id="linearGradient3414"
       gradientUnits="userSpaceOnUse"
       gradientTransform="matrix(0,-49.619,49.619,0,104.99,51.088)"
       x2="1" />
  </defs>
</svg>
