<?xml version="1.0" encoding="UTF-8" standalone="no"?>
<svg
   clip-rule="evenodd"
   fill-rule="evenodd"
   stroke-linejoin="round"
   stroke-miterlimit="2"
   viewBox="0 0 48 48"
   version="1.1"
   id="svg11"
   sodipodi:docname="application-vnd.chess-pgn.svg"
   inkscape:version="1.1.2 (0a00cf5339, 2022-02-04)"
   xmlns:inkscape="http://www.inkscape.org/namespaces/inkscape"
   xmlns:sodipodi="http://sodipodi.sourceforge.net/DTD/sodipodi-0.dtd"
   xmlns:xlink="http://www.w3.org/1999/xlink"
   xmlns="http://www.w3.org/2000/svg"
   xmlns:svg="http://www.w3.org/2000/svg">
  <defs
     id="defs15">
    <linearGradient
       inkscape:collect="always"
       xlink:href="#a"
       id="linearGradient941"
       gradientUnits="userSpaceOnUse"
       gradientTransform="matrix(0,-37.2142,37.2142,0,133.41,38.316)"
       x2="1" />
  </defs>
  <sodipodi:namedview
     id="namedview13"
     pagecolor="#ffffff"
     bordercolor="#666666"
     borderopacity="1.0"
     inkscape:pageshadow="2"
     inkscape:pageopacity="0.0"
     inkscape:pagecheckerboard="0"
     showgrid="false"
     inkscape:zoom="7.1145833"
     inkscape:cx="36.474378"
     inkscape:cy="35.20937"
     inkscape:window-width="945"
     inkscape:window-height="1026"
     inkscape:window-x="965"
     inkscape:window-y="44"
     inkscape:window-maximized="1"
     inkscape:current-layer="svg11" />
  <linearGradient
     id="a"
     x2="1"
     gradientTransform="matrix(0,-37.2142,37.2142,0,133.41,38.316)"
     gradientUnits="userSpaceOnUse">
    <stop
       stop-color="#758b9a"
       offset="0"
       id="stop2" />
    <stop
       stop-color="#b5bdc2"
       offset="1"
       id="stop4" />
  </linearGradient>
  <path
     id="path7"
     style="fill:url(#linearGradient941)"
     d="M 13.214844 1.1015625 C 11.699844 1.1015625 10.245828 1.7043906 9.1738281 2.7753906 C 8.1028281 3.8473906 7.5 5.2994531 7.5 6.8144531 L 7.5 11.546875 L 7.5 40.787109 C 7.5 42.302109 8.1028281 43.754172 9.1738281 44.826172 C 9.9778281 45.629422 10.995967 46.168923 12.09375 46.388672 C 12.094369 46.388796 12.095084 46.388548 12.095703 46.388672 C 12.278052 46.42511 12.462292 46.454145 12.648438 46.472656 C 12.649081 46.47272 12.649747 46.472592 12.650391 46.472656 C 12.836546 46.491104 13.024169 46.5 13.212891 46.5 C 13.213544 46.5 13.21419 46.5 13.214844 46.5 L 34.785156 46.5 C 35.353281 46.5 35.913222 46.414397 36.447266 46.251953 C 37.336767 45.981213 38.156172 45.495547 38.826172 44.826172 C 39.897172 43.754172 40.5 42.302109 40.5 40.787109 L 40.5 11.546875 L 40.5 6.8144531 C 40.5 5.2994531 39.897172 3.8473906 38.826172 2.7753906 C 37.754172 1.7043906 36.300156 1.1015625 34.785156 1.1015625 L 24.572266 1.1015625 L 23.427734 1.1015625 L 13.214844 1.1015625 z " />
  <path
     d="m23.939 14c-2.171.033-3.939 1.828-3.939 4 0 1.425.762 2.747 1.996 3.461.001.897-.028 3.27-.098 3.895-.28 2.528-.435 4-1.621 4.759-.383.246-.846.411-1.504.535-1.181.224-1.297.274-1.482.647-.197.397-.242.683-.268 1.744l-.023.959h14l-.023-.959c-.026-1.061-.071-1.347-.268-1.744-.184-.371-.316-.433-1.336-.615-.983-.176-1.553-.417-2.068-.873-1.153-1.022-1.245-3.045-1.332-6.26-.007-.244.013-1.482.021-2.082 1.239-.713 2.006-2.037 2.006-3.467 0-2.194-1.806-4-4-4-.02 0-.04 0-.061 0z"
     fill="#3f3f3f"
     fill-opacity=".5"
     fill-rule="nonzero"
     id="path9" />
  <path
     id="path1057"
     style="fill:#697076;fill-opacity:1"
     d="M 7.5 38.667969 L 7.5 40.787109 C 7.5 42.302109 8.1028281 43.754172 9.1738281 44.826172 C 9.9778281 45.629422 10.995967 46.168923 12.09375 46.388672 C 12.09375 46.388672 12.095703 46.388672 12.095703 46.388672 C 12.278052 46.42511 12.462291 46.454145 12.648438 46.472656 C 12.648438 46.472656 12.650391 46.472656 12.650391 46.472656 C 12.836546 46.491104 13.024169 46.5 13.212891 46.5 L 13.214844 46.5 L 34.785156 46.5 C 35.353281 46.5 35.913222 46.414397 36.447266 46.251953 C 37.336767 45.981213 38.156172 45.495547 38.826172 44.826172 C 39.897172 43.754172 40.5 42.302109 40.5 40.787109 L 40.5 38.667969 L 7.5 38.667969 z " />
</svg>
