<?xml version="1.0" encoding="UTF-8" standalone="no"?>
<svg
   style="clip-rule:evenodd;fill-rule:evenodd;stroke-linejoin:round;stroke-miterlimit:2"
   viewBox="0 0 64 64"
   version="1.1"
   id="svg13"
   sodipodi:docname="application-vnd.mysql-workbench-model.svg"
   inkscape:version="1.1.2 (0a00cf5339, 2022-02-04)"
   xmlns:inkscape="http://www.inkscape.org/namespaces/inkscape"
   xmlns:sodipodi="http://sodipodi.sourceforge.net/DTD/sodipodi-0.dtd"
   xmlns:xlink="http://www.w3.org/1999/xlink"
   xmlns="http://www.w3.org/2000/svg"
   xmlns:svg="http://www.w3.org/2000/svg">
  <sodipodi:namedview
     id="namedview15"
     pagecolor="#ffffff"
     bordercolor="#666666"
     borderopacity="1.0"
     inkscape:pageshadow="2"
     inkscape:pageopacity="0.0"
     inkscape:pagecheckerboard="0"
     showgrid="false"
     inkscape:zoom="10.671875"
     inkscape:cx="35.185944"
     inkscape:cy="33.124451"
     inkscape:window-width="945"
     inkscape:window-height="1026"
     inkscape:window-x="965"
     inkscape:window-y="44"
     inkscape:window-maximized="1"
     inkscape:current-layer="svg13" />
  <path
     id="path2"
     style="fill:url(#linearGradient935)"
     d="M 17.617188 1.46875 C 15.597188 1.46875 13.659469 2.2712188 12.230469 3.6992188 C 10.802469 5.1282186 10 7.0678906 10 9.0878906 L 10 15.074219 L 10 54.382812 C 10 56.402814 10.802469 58.340531 12.230469 59.769531 C 13.659469 61.197531 15.597187 62 17.617188 62 L 46.382812 62 C 48.402814 62 50.340531 61.197531 51.769531 59.769531 C 53.197531 58.340531 54 56.402814 54 54.382812 L 54 15.074219 L 54 9.0878906 C 54 7.0678906 53.197531 5.1282186 51.769531 3.6992188 C 50.340531 2.2712188 48.402813 1.46875 46.382812 1.46875 L 41.177734 1.46875 L 22.822266 1.46875 L 17.617188 1.46875 z " />
  <path
     id="path914"
     style="clip-rule:evenodd;fill:#234866;fill-opacity:1;fill-rule:evenodd;stroke-width:1;stroke-linejoin:round;stroke-miterlimit:2"
     d="m 10,50.982422 v 3.40039 c 0,2.020002 0.802469,3.957719 2.230469,5.386719 1.429,1.428 3.366717,2.230469 5.386719,2.230469 h 28.765624 c 2.020002,0 3.957719,-0.802469 5.386719,-2.230469 C 53.197531,58.340531 54,56.402814 54,54.382812 v -3.40039 z" />
  <path
     d="m 19.066,15.673507 c -1.194,-0.026 -1.756,0.817 -1.51,2.268 0.08,0.467 0.482,1.135 1.348,2.242 0.963,1.23 1.35,1.901 1.77,3.064 0.661,1.835 0.968,2.448 1.505,3.022 0.418,0.445 0.418,0.447 0.137,1.355 -0.435,1.409 -0.523,4.233 -0.174,5.561 0.523,1.987 1.166,2.888 2.063,2.888 0.64,0 1.165,-0.545 1.353,-1.406 0.065,-0.298 0.188,-0.724 0.272,-0.947 0.145,-0.385 0.184,-0.356 0.754,0.592 0.33,0.549 0.958,1.368 1.396,1.818 1.013,1.04 2.404,2.211 2.504,2.111 0.042,-0.042 -0.361,-0.658 -0.898,-1.369 -0.537,-0.711 -1.551,-2.362 -2.252,-3.67 -0.818,-1.525 -1.373,-2.378 -1.547,-2.379 -0.566,-0.004 -1.093,0.905 -1.399,2.409 -0.352,1.732 -0.97,1.441 -1.474,-0.694 -0.29,-1.23 -0.139,-2.888 0.402,-4.439 0.246,-0.706 0.447,-1.357 0.447,-1.448 0,-0.09 -0.394,-0.846 -0.875,-1.681 -0.48,-0.835 -1.045,-2.018 -1.254,-2.629 -0.507,-1.485 -0.748,-1.917 -1.767,-3.178 -1.05,-1.299 -1.149,-1.898 -0.313,-1.892 0.65,0.004 1.699,0.451 2.752,1.173 0.667,0.458 0.892,0.518 1.963,0.518 1.346,0 1.637,0.113 3.502,1.365 1.9,1.275 3.315,2.46 4.295,3.598 0.871,1.01 1.344,1.889 3.906,7.244 0.984,2.056 1.856,3.046 3.059,3.471 1.858,0.656 2.492,0.954 3.311,1.552 l 0.865,0.633 -0.584,0.114 c -0.321,0.062 -1.018,0.165 -1.551,0.228 -1.11,0.131 -1.838,0.602 -1.838,1.19 0,0.662 2.215,2.558 4.436,3.796 1.067,0.595 2.094,1.181 2.281,1.303 0.498,0.326 0.632,0.288 0.504,-0.14 -0.269,-0.899 -1.178,-1.774 -3.707,-3.571 -1.484,-1.054 -1.5,-1.016 0.482,-1.217 1.414,-0.143 2.125,-0.389 2.125,-0.736 0,-0.158 -0.717,-0.997 -1.594,-1.867 -1.373,-1.363 -1.838,-1.705 -3.351,-2.455 -2.06,-1.022 -2.81,-1.831 -3.285,-3.551 -0.709,-2.566 -2.615,-5.581 -5.147,-8.137 -2.613,-2.638 -5.107,-4.097 -7.394,-4.326 -0.93,-0.093 -1.41,-0.237 -1.891,-0.568 -0.814,-0.562 -2.704,-1.195 -3.627,-1.215 z m 4.303,4.967 c -0.152,-0.012 -0.286,0.014 -0.377,0.09 -0.339,0.28 -0.297,0.621 0.101,0.834 0.188,0.099 0.454,0.451 0.592,0.781 0.465,1.109 1.178,0.366 0.86,-0.897 -0.101,-0.398 -0.72,-0.773 -1.176,-0.808 z"
     style="fill:#ffffff;fill-opacity:0.61;fill-rule:nonzero"
     id="path4" />
  <defs
     id="defs11">
    <linearGradient
       id="_Linear1"
       x2="1"
       gradientTransform="matrix(0,-49.619,49.619,0,177.88,51.088)"
       gradientUnits="userSpaceOnUse">
      <stop
         style="stop-color:#26557c"
         offset="0"
         id="stop6" />
      <stop
         style="stop-color:#396b95"
         offset="1"
         id="stop8" />
    </linearGradient>
    <linearGradient
       inkscape:collect="always"
       xlink:href="#_Linear1"
       id="linearGradient935"
       gradientUnits="userSpaceOnUse"
       gradientTransform="matrix(0,-49.619,49.619,0,177.88,51.088)"
       x2="1" />
  </defs>
</svg>
