<?xml version="1.0" encoding="UTF-8" standalone="no"?>
<svg
   style="clip-rule:evenodd;fill-rule:evenodd;stroke-linejoin:round;stroke-miterlimit:2"
   viewBox="0 0 64 64"
   version="1.1"
   id="svg25"
   sodipodi:docname="application-drawing-template.svg"
   inkscape:version="1.1.2 (0a00cf5339, 2022-02-04)"
   xmlns:inkscape="http://www.inkscape.org/namespaces/inkscape"
   xmlns:sodipodi="http://sodipodi.sourceforge.net/DTD/sodipodi-0.dtd"
   xmlns:xlink="http://www.w3.org/1999/xlink"
   xmlns="http://www.w3.org/2000/svg"
   xmlns:svg="http://www.w3.org/2000/svg">
  <sodipodi:namedview
     id="namedview27"
     pagecolor="#ffffff"
     bordercolor="#666666"
     borderopacity="1.0"
     inkscape:pageshadow="2"
     inkscape:pageopacity="0.0"
     inkscape:pagecheckerboard="0"
     showgrid="false"
     inkscape:zoom="10.671875"
     inkscape:cx="39.636896"
     inkscape:cy="32.937042"
     inkscape:window-width="942"
     inkscape:window-height="1022"
     inkscape:window-x="966"
     inkscape:window-y="46"
     inkscape:window-maximized="1"
     inkscape:current-layer="svg25" />
  <path
     id="path2"
     style="fill:url(#linearGradient3186)"
     d="M 17.617188 1.46875 C 15.597188 1.46875 13.659469 2.2712188 12.230469 3.6992188 C 10.802469 5.1282186 10 7.0678906 10 9.0878906 L 10 13.707031 L 10 54.382812 C 10 56.402814 10.802469 58.340531 12.230469 59.769531 C 13.659469 61.197531 15.597187 62 17.617188 62 L 46.382812 62 C 48.402814 62 50.340531 61.197531 51.769531 59.769531 C 53.197531 58.340531 54 56.402814 54 54.382812 L 54 13.707031 L 54 9.0878906 C 54 7.0678906 53.197531 5.1282186 51.769531 3.6992188 C 50.340531 2.2712188 48.402813 1.46875 46.382812 1.46875 L 41.134766 1.46875 L 22.865234 1.46875 L 17.617188 1.46875 z " />
  <path
     d="m 54,50.184 v 4.198 c 0,2.02 -0.803,3.958 -2.231,5.387 C 50.34,61.197 48.402,62 46.382,62 H 17.618 C 15.598,62 13.66,61.197 12.231,59.769 10.803,58.34 9.9999996,56.402 9.9999996,54.382 v -4.198 z"
     style="clip-rule:evenodd;fill:#373e44;fill-rule:evenodd;stroke-linejoin:round;stroke-miterlimit:2;fill-opacity:1"
     id="path4-3" />
  <path
     d="m22.506 58.94l-1.623-4.016h0.82l1.18 3.114h0.016l1.197-3.114h0.803l-1.639 4.016h-0.754z"
     style="fill-rule:nonzero;fill:#fff"
     id="path4" />
  <path
     d="m27.082 59.071c-0.606 0-1.101-0.202-1.483-0.606-0.377-0.405-0.566-0.916-0.566-1.533 0-0.585 0.183-1.087 0.549-1.508 0.372-0.421 0.845-0.631 1.418-0.631 0.596 0 1.071 0.194 1.426 0.582 0.361 0.388 0.541 0.907 0.541 1.557l-8e-3 0.139h-3.172c0.022 0.405 0.156 0.724 0.402 0.959 0.251 0.235 0.544 0.353 0.877 0.353 0.541 0 0.907-0.23 1.098-0.689l0.672 0.279c-0.131 0.311-0.347 0.573-0.647 0.787-0.301 0.207-0.67 0.311-1.107 0.311zm1.082-2.623c-0.016-0.229-0.123-0.448-0.32-0.655-0.191-0.208-0.478-0.312-0.86-0.312-0.279 0-0.522 0.088-0.729 0.263-0.203 0.174-0.342 0.409-0.418 0.704h2.327z"
     style="fill-rule:nonzero;fill:#fff"
     id="path6" />
  <path
     d="m31.533 59.071c-0.601 0-1.096-0.202-1.484-0.606-0.388-0.41-0.582-0.921-0.582-1.533s0.194-1.12 0.582-1.524c0.388-0.41 0.883-0.615 1.484-0.615 0.448 0 0.819 0.109 1.114 0.328 0.295 0.218 0.511 0.494 0.648 0.828l-0.689 0.286c-0.207-0.502-0.582-0.754-1.123-0.754-0.333 0-0.628 0.137-0.885 0.41-0.251 0.273-0.377 0.62-0.377 1.041s0.126 0.768 0.377 1.041c0.257 0.273 0.552 0.41 0.885 0.41 0.563 0 0.951-0.252 1.164-0.754l0.672 0.286c-0.136 0.328-0.358 0.604-0.664 0.828-0.3 0.219-0.674 0.328-1.122 0.328z"
     style="fill-rule:nonzero;fill:#fff"
     id="path8" />
  <path
     d="m35.66 59.005c-0.421 0-0.743-0.112-0.967-0.336-0.219-0.224-0.328-0.54-0.328-0.95v-2.107h-0.705v-0.688h0.705v-1.229h0.754v1.229h0.984v0.688h-0.984v2.049c0 0.437 0.18 0.656 0.541 0.656 0.137 0 0.251-0.022 0.344-0.066l0.262 0.648c-0.163 0.071-0.366 0.106-0.606 0.106z"
     style="fill-rule:nonzero;fill:#fff"
     id="path10" />
  <path
     d="m37.124 55.408c0.388-0.41 0.883-0.615 1.484-0.615s1.095 0.205 1.483 0.615c0.388 0.404 0.582 0.912 0.582 1.524s-0.194 1.123-0.582 1.533c-0.388 0.404-0.882 0.606-1.483 0.606s-1.096-0.202-1.484-0.606c-0.388-0.41-0.582-0.921-0.582-1.533s0.194-1.12 0.582-1.524zm0.557 2.581c0.263 0.262 0.571 0.394 0.927 0.394 0.355 0 0.661-0.132 0.917-0.394 0.263-0.268 0.394-0.62 0.394-1.057s-0.131-0.787-0.394-1.049c-0.256-0.268-0.562-0.402-0.917-0.402-0.356 0-0.664 0.134-0.927 0.402-0.256 0.262-0.385 0.612-0.385 1.049s0.129 0.789 0.385 1.057z"
     style="fill-rule:nonzero;fill:#fff"
     id="path12" />
  <path
     d="m42.04 58.94h-0.754v-4.016h0.721v0.656h0.033c0.076-0.219 0.232-0.399 0.467-0.541 0.24-0.142 0.472-0.213 0.696-0.213s0.413 0.033 0.566 0.098l-0.287 0.705c-0.098-0.038-0.232-0.057-0.401-0.057-0.274 0-0.517 0.109-0.73 0.327-0.208 0.213-0.311 0.495-0.311 0.844v2.197z"
     style="fill-rule:nonzero;fill:#fff"
     id="path14" />
  <path
     d="m23.585 37.046h7.107v0.923h2.585v-0.923h7.138v1.044h2.585v-2.585h-0.954v-7.228h0.923v-2.585h-0.923v-6.71h0.954v-2.585h-2.585v0.526h-7.138v-0.923h-2.585v0.923h-7.107v-0.646h-2.585v2.585h0.923v6.83h-0.923v2.585h0.923v7.108h-0.923v2.584h2.585v-0.923zm-0.739 0v0.185h-1.108v-1.108h1.108v0.923zm8.585-20.123v-0.185h1.108v1.108h-1.108v-0.184-0.353-0.386zm1.108 20.123v0.185h-1.108v-0.185-0.386-0.352-0.185h1.108v0.923zm0.123-9.646c0.071 0.072 0.071 0.189 0 0.261-0.037 0.036-0.084 0.054-0.131 0.054s-0.095-0.018-0.131-0.054l-0.415-0.415-0.416 0.415c-0.036 0.036-0.083 0.054-0.13 0.054-0.048 0-0.095-0.018-0.131-0.054-0.072-0.072-0.072-0.189 0-0.261l0.415-0.415-0.415-0.416c-0.072-0.072-0.072-0.189 0-0.261s0.189-0.072 0.261 0l0.416 0.416 0.415-0.416c0.072-0.072 0.189-0.072 0.261 0s0.072 0.189 0 0.261l-0.415 0.416 0.416 0.415zm9.6 9.951h-1.108v-0.305-0.738-0.064h1.108v1.107zm-1.847-1.846v0.803h-5.782c3.223-0.914 5.761-3.452 6.675-6.676v5.873h-0.893zm1.816-7.966h-0.185-0.386-0.352-0.185v-1.108h1.108v1.108zm-1.077-10.403h1.108v1.108h-0.216-0.738-0.154v-0.582-0.526zm-0.739 0.526v1.32h0.893v5.355c-0.914-3.223-3.452-5.762-6.675-6.675h5.782zm-18.677-0.647h1.108v1.108h-0.184-0.739-0.185v-1.108zm1.847 1.847v-1.2h5.752c-3.223 0.913-5.762 3.452-6.675 6.675v-5.475h0.923zm-1.847 7.569h1.108v1.107h-0.184-0.353-0.386-0.185v-1.107zm0.924 3.201c0.913 3.224 3.452 5.762 6.675 6.676h-5.752v-0.923h-0.923v-5.753z"
     style="fill-rule:nonzero;fill:#373e44"
     id="path16" />
  <defs
     id="defs23">
    <linearGradient
       id="_Linear1"
       x2="1"
       gradientTransform="matrix(0,-49.619,49.619,0,104.99,51.088)"
       gradientUnits="userSpaceOnUse">
      <stop
         style="stop-color:#758b9a"
         offset="0"
         id="stop18" />
      <stop
         style="stop-color:#b5bdc2"
         offset="1"
         id="stop20" />
    </linearGradient>
    <linearGradient
       inkscape:collect="always"
       xlink:href="#_Linear1"
       id="linearGradient3186"
       gradientUnits="userSpaceOnUse"
       gradientTransform="matrix(0,-49.619,49.619,0,104.99,51.088)"
       x2="1" />
  </defs>
</svg>
