<?xml version="1.0" encoding="UTF-8" standalone="no"?>
<svg
   clip-rule="evenodd"
   fill-rule="evenodd"
   stroke-linejoin="round"
   stroke-miterlimit="2"
   viewBox="0 0 48 48"
   version="1.1"
   id="svg15"
   sodipodi:docname="audio-midi.svg"
   inkscape:version="1.1.2 (0a00cf5339, 2022-02-04)"
   xmlns:inkscape="http://www.inkscape.org/namespaces/inkscape"
   xmlns:sodipodi="http://sodipodi.sourceforge.net/DTD/sodipodi-0.dtd"
   xmlns:xlink="http://www.w3.org/1999/xlink"
   xmlns="http://www.w3.org/2000/svg"
   xmlns:svg="http://www.w3.org/2000/svg">
  <defs
     id="defs19">
    <linearGradient
       inkscape:collect="always"
       xlink:href="#a"
       id="linearGradient4422"
       gradientUnits="userSpaceOnUse"
       gradientTransform="matrix(0,-37.21425,37.21425,0,460.66514,38.515125)"
       x2="1" />
  </defs>
  <sodipodi:namedview
     id="namedview17"
     pagecolor="#ffffff"
     bordercolor="#666666"
     borderopacity="1.0"
     inkscape:pageshadow="2"
     inkscape:pageopacity="0.0"
     inkscape:pagecheckerboard="0"
     showgrid="false"
     inkscape:zoom="14.208333"
     inkscape:cx="24"
     inkscape:cy="24"
     inkscape:window-width="1896"
     inkscape:window-height="1022"
     inkscape:window-x="12"
     inkscape:window-y="46"
     inkscape:window-maximized="1"
     inkscape:current-layer="svg15" />
  <linearGradient
     id="a"
     x2="1"
     gradientTransform="matrix(0,-37.21425,37.21425,0,460.66514,38.515125)"
     gradientUnits="userSpaceOnUse">
    <stop
       stop-color="#349242"
       offset="0"
       id="stop2" />
    <stop
       stop-color="#4cb49f"
       offset="1"
       id="stop4" />
  </linearGradient>
  <path
     id="path7"
     style="stroke-width:0.75;fill:url(#linearGradient4422)"
     d="M 12.462891 1.3007812 C 10.947891 1.3007812 9.4955781 1.9036094 8.4238281 2.9746094 C 7.3528281 4.0463594 6.75 5.4986719 6.75 7.0136719 L 6.75 12.673828 L 6.75 40.986328 C 6.75 42.501328 7.3528281 43.953641 8.4238281 45.025391 C 9.4955781 46.096391 10.947891 46.699219 12.462891 46.699219 L 34.037109 46.699219 C 35.552109 46.699219 37.004422 46.096391 38.076172 45.025391 C 39.147172 43.953641 39.75 42.501328 39.75 40.986328 L 39.75 12.673828 L 39.75 7.0136719 C 39.75 5.4986719 39.147172 4.0463594 38.076172 2.9746094 C 37.004422 1.9036094 35.552109 1.3007812 34.037109 1.3007812 L 28.25 1.3007812 L 18.25 1.3007812 L 12.462891 1.3007812 z " />
  <path
     id="path1057-3"
     style="fill:#00504e;fill-opacity:1"
     d="m 6.75,38.867196 v 2.11914 c 0,1.515 0.602827,2.967063 1.673829,4.039063 0.804,0.80325 1.822139,1.342751 2.919921,1.5625 0,0 0.002,0 0.002,0 0.182349,0.03644 0.366588,0.06547 0.552735,0.08398 0,0 0.002,0 0.002,0 0.186153,0.01845 0.37378,0.02734 0.5625,0.02734 h 0.002 21.57031 c 0.568124,0 1.128063,-0.0856 1.66211,-0.248047 0.8895,-0.27074 1.708905,-0.756406 2.378906,-1.425781 1.070999,-1.072 1.673828,-2.524063 1.673828,-4.039063 v -2.11914 z" />
  <path
     d="m 16.15132,45.307454 v -3.718106 h 0.65642 v 0.521599 c 0.135739,-0.181634 0.316724,-0.328613 0.54226,-0.439147 0.226231,-0.111131 0.483091,-0.166099 0.771275,-0.166099 0.320901,0 0.584025,0.05676 0.789374,0.171477 0.205349,0.114118 0.350137,0.274242 0.434365,0.479177 0.342479,-0.433769 0.787981,-0.650654 1.337898,-0.650654 0.429492,0 0.759442,0.101572 0.990546,0.305909 0.231104,0.204338 0.346656,0.518611 0.346656,0.943418 v 2.552426 H 21.290605 V 42.96534 c 0,-0.252136 -0.02436,-0.433769 -0.0717,-0.544302 -0.04734,-0.111131 -0.133651,-0.200156 -0.258948,-0.267671 -0.125298,-0.06811 -0.272174,-0.101571 -0.44063,-0.101571 -0.304194,0 -0.557574,0.08664 -0.758746,0.260501 -0.201172,0.173866 -0.30141,0.45229 -0.30141,0.835274 v 2.159883 H 18.724789 V 42.89185 c 0,-0.280217 -0.05986,-0.489932 -0.179593,-0.630339 -0.119729,-0.13981 -0.315332,-0.209715 -0.587506,-0.209715 -0.206045,0 -0.397471,0.0466 -0.572888,0.13981 -0.175416,0.09321 -0.302106,0.230029 -0.381461,0.40987 -0.07866,0.179243 -0.118336,0.438549 -0.118336,0.776721 v 1.929257 z m 6.962363,-4.407595 v -0.724741 h 0.733686 v 0.724741 z m 0,4.407595 v -3.718106 h 0.733686 v 3.718106 z m 4.661761,0 v -0.46902 c -0.274958,0.368644 -0.678694,0.552667 -1.211209,0.552667 -0.345264,0 -0.662684,-0.08126 -0.95226,-0.244966 -0.289577,-0.163112 -0.514416,-0.391348 -0.673126,-0.684113 -0.159406,-0.292764 -0.238761,-0.629741 -0.238761,-1.010335 0,-0.371034 0.07239,-0.707414 0.216486,-1.009738 0.144092,-0.302324 0.359882,-0.534145 0.648066,-0.694867 0.288184,-0.161319 0.610477,-0.241381 0.966879,-0.241381 0.261036,0 0.493533,0.0472 0.697489,0.141603 0.203957,0.0944 0.369628,0.217482 0.497709,0.369241 v -1.841427 h 0.730206 v 5.132336 z m -2.320787,-1.855767 c 0,0.47619 0.116944,0.832287 0.350833,1.068291 0.233888,0.235406 0.509543,0.353109 0.827659,0.353109 0.320901,0 0.593771,-0.112326 0.817914,-0.337575 0.224143,-0.225249 0.336911,-0.568799 0.336911,-1.031247 0,-0.508454 -0.11416,-0.881877 -0.343176,-1.120271 -0.22832,-0.237796 -0.509543,-0.356694 -0.843669,-0.356694 -0.32647,0 -0.59934,0.114118 -0.817914,0.342952 -0.219271,0.228834 -0.328558,0.589113 -0.328558,1.081435 z m 4.160572,-2.551828 v -0.724741 h 0.733686 v 0.724741 z m 0,4.407595 v -3.718106 h 0.733686 v 3.718106 z"
     id="path9"
     style="fill:#ffffff;stroke-width:0.644905" />
  <path
     d="m 20.854715,14.27002 c -0.57525,0.16125 -1.03875,0.804 -1.03875,1.42725 v 9.89325 c -0.5835,-0.32025 -1.3335,-0.45 -2.1105,-0.2385 -1.4025,0.38175 -2.28075,1.61475 -1.98,2.754 0.3,1.1385 1.6815,1.77525 3.084,1.3935 1.119,-0.3045 1.89,-1.1655 2.013,-2.07375 l 0.03225,-9.34875 7.27275,-2.03925 v 7.377 c -0.5835,-0.32025 -1.3335,-0.45 -2.1105,-0.2385 -1.4025,0.38175 -2.28075,1.61475 -1.98075,2.754 0.30075,1.13925 1.68225,1.77525 3.08475,1.3935 1.11825,-0.3045 1.89,-1.1655 2.013,-2.07375 l 0.03225,-12.17025 c 0,-0.468 -0.276,-0.8175 -0.6495,-0.8835 z"
     fill-rule="nonzero"
     id="path11"
     style="fill:#ffffff;stroke-width:0.75" />
</svg>
