<?xml version="1.0" encoding="UTF-8" standalone="no"?>
<svg
   style="clip-rule:evenodd;fill-rule:evenodd;stroke-linejoin:round;stroke-miterlimit:2"
   viewBox="0 0 64 64"
   version="1.1"
   id="svg15"
   sodipodi:docname="audio-wav.svg"
   inkscape:version="1.1.2 (0a00cf5339, 2022-02-04)"
   xmlns:inkscape="http://www.inkscape.org/namespaces/inkscape"
   xmlns:sodipodi="http://sodipodi.sourceforge.net/DTD/sodipodi-0.dtd"
   xmlns:xlink="http://www.w3.org/1999/xlink"
   xmlns="http://www.w3.org/2000/svg"
   xmlns:svg="http://www.w3.org/2000/svg">
  <sodipodi:namedview
     id="namedview17"
     pagecolor="#ffffff"
     bordercolor="#666666"
     borderopacity="1.0"
     inkscape:pageshadow="2"
     inkscape:pageopacity="0.0"
     inkscape:pagecheckerboard="0"
     showgrid="false"
     inkscape:zoom="10.65625"
     inkscape:cx="32"
     inkscape:cy="32"
     inkscape:window-width="1896"
     inkscape:window-height="1022"
     inkscape:window-x="12"
     inkscape:window-y="46"
     inkscape:window-maximized="1"
     inkscape:current-layer="svg15" />
  <path
     id="path2"
     style="fill:url(#linearGradient4034)"
     d="M 17.617188 1.46875 C 15.597188 1.46875 13.659469 2.2712188 12.230469 3.6992188 C 10.802469 5.1282186 10 7.0678906 10 9.0878906 L 10 12.998047 L 10 54.382812 C 10 56.402814 10.802469 58.340531 12.230469 59.769531 C 13.659469 61.197531 15.597187 62 17.617188 62 L 46.382812 62 C 48.402814 62 50.340531 61.197531 51.769531 59.769531 C 53.197531 58.340531 54 56.402814 54 54.382812 L 54 12.998047 L 54 9.0878906 C 54 7.0678906 53.197531 5.1282186 51.769531 3.6992188 C 50.340531 2.2712188 48.402813 1.46875 46.382812 1.46875 L 37.857422 1.46875 L 26.142578 1.46875 L 17.617188 1.46875 z " />
  <path
     id="path2-3"
     style="clip-rule:evenodd;fill:#005030;fill-opacity:1;fill-rule:evenodd;stroke-linejoin:round;stroke-miterlimit:2"
     d="m 10,50.982422 v 3.398437 0.002 c 6.5e-5,0.251841 0.01244,0.501552 0.03711,0.75 v 0.002 c 0.02473,0.248442 0.06268,0.494885 0.111329,0.738281 v 0.002 c 0.04871,0.243391 0.109702,0.484016 0.18164,0.720703 v 0.002 c 0.072,0.236684 0.155456,0.468944 0.25,0.697266 v 0.002 c 0.09461,0.228323 0.199937,0.453573 0.316406,0.671875 v 0.002 c 0.116532,0.218305 0.245101,0.430096 0.382813,0.636719 v 0.002 c 0.137776,0.206628 0.287038,0.406326 0.445312,0.599609 v 0.002 c 0.158341,0.193289 0.327703,0.378358 0.50586,0.55664 v 0.002 c 0.7145,0.714 1.557101,1.271274 2.472656,1.650391 C 15.618679,61.799106 16.607187,62 17.617188,62 h 28.765624 c 1.010002,0 1.998509,-0.200473 2.914063,-0.580078 0.915555,-0.379117 1.758156,-0.936391 2.472656,-1.650391 v -0.002 C 53.197531,58.338626 54,56.400859 54,54.380859 v -3.398437 z" />
  <path
     d="m28.918 18.26c-0.767 0.215-1.385 1.072-1.385 1.903v13.191c-0.778-0.427-1.778-0.6-2.814-0.318-1.87 0.509-3.041 2.153-2.64 3.672 0.4 1.518 2.242 2.367 4.112 1.858 1.492-0.406 2.52-1.554 2.684-2.765l0.043-12.465 9.697-2.719v9.836c-0.778-0.427-1.778-0.6-2.814-0.318-1.87 0.509-3.041 2.153-2.641 3.672 0.401 1.519 2.243 2.367 4.113 1.858 1.491-0.406 2.52-1.554 2.684-2.765l0.043-16.227c0-0.624-0.368-1.09-0.866-1.178l-10.216 2.765z"
     style="fill-rule:nonzero;fill:#005030"
     id="path4" />
  <path
     d="m35.208 59.14h-0.721v-0.557h-0.033c-0.12 0.196-0.303 0.36-0.549 0.491-0.241 0.131-0.514 0.197-0.82 0.197-0.519 0-0.967-0.205-1.344-0.615-0.377-0.409-0.565-0.918-0.565-1.524s0.188-1.115 0.565-1.524c0.377-0.41 0.825-0.615 1.344-0.615 0.306 0 0.579 0.066 0.82 0.197 0.246 0.131 0.429 0.295 0.549 0.491h0.033l-0.033-0.557v-1.852h0.754v5.868zm-9.809-0.557c-0.3 0.459-0.74 0.688-1.319 0.688-0.426 0-0.784-0.123-1.074-0.369-0.284-0.246-0.426-0.571-0.426-0.975 0-0.437 0.169-0.779 0.508-1.024 0.339-0.252 0.757-0.377 1.254-0.377 0.443 0 0.806 0.081 1.09 0.245v-0.114c0-0.295-0.101-0.53-0.303-0.705-0.202-0.18-0.451-0.271-0.746-0.271-0.219 0-0.418 0.052-0.598 0.156-0.175 0.104-0.295 0.246-0.361 0.426l-0.688-0.295c0.093-0.24 0.276-0.461 0.549-0.664 0.273-0.207 0.634-0.311 1.082-0.311 0.513 0 0.939 0.15 1.278 0.451 0.339 0.3 0.508 0.724 0.508 1.27v2.426h-0.721v-0.557h-0.033zm4.374 0c-0.114 0.191-0.289 0.355-0.524 0.491-0.235 0.131-0.484 0.197-0.746 0.197-0.503 0-0.885-0.153-1.147-0.459-0.257-0.306-0.386-0.716-0.386-1.229v-2.459h0.754v2.336c0 0.748 0.331 1.123 0.992 1.123 0.312 0 0.566-0.126 0.762-0.377 0.197-0.252 0.295-0.541 0.295-0.869v-2.213h0.754v4.016h-0.721v-0.557h-0.033zm8.467-2.975c0.388-0.41 0.883-0.615 1.484-0.615s1.095 0.205 1.483 0.615c0.388 0.404 0.582 0.912 0.582 1.524s-0.194 1.123-0.582 1.533c-0.388 0.404-0.882 0.606-1.483 0.606s-1.096-0.202-1.484-0.606c-0.388-0.41-0.582-0.921-0.582-1.533s0.194-1.12 0.582-1.524zm-1.293 3.532h-0.754v-4.016h0.754v4.016zm-3.739-0.557c0.355 0 0.656-0.132 0.902-0.394 0.251-0.262 0.377-0.614 0.377-1.057s-0.126-0.795-0.377-1.057c-0.246-0.262-0.547-0.394-0.902-0.394-0.35 0-0.65 0.134-0.901 0.402-0.252 0.262-0.377 0.612-0.377 1.049s0.125 0.789 0.377 1.057c0.251 0.262 0.551 0.394 0.901 0.394zm-9.005 0c0.311 0 0.593-0.115 0.844-0.345 0.257-0.235 0.385-0.51 0.385-0.827-0.213-0.175-0.533-0.263-0.959-0.263-0.366 0-0.642 0.08-0.828 0.238-0.185 0.158-0.278 0.344-0.278 0.557 0 0.197 0.084 0.353 0.254 0.467 0.169 0.115 0.363 0.173 0.582 0.173zm14.595-0.394c0.262 0.262 0.571 0.394 0.926 0.394s0.661-0.132 0.918-0.394c0.262-0.268 0.393-0.62 0.393-1.057s-0.131-0.787-0.393-1.049c-0.257-0.268-0.563-0.402-0.918-0.402s-0.664 0.134-0.926 0.402c-0.257 0.262-0.386 0.612-0.386 1.049s0.129 0.789 0.386 1.057zm-1.851-4.073c-0.104 0.104-0.23 0.156-0.377 0.156-0.148 0-0.273-0.052-0.377-0.156s-0.156-0.229-0.156-0.377c0-0.147 0.052-0.273 0.156-0.377s0.229-0.156 0.377-0.156c0.147 0 0.273 0.052 0.377 0.156s0.155 0.23 0.155 0.377c0 0.148-0.051 0.273-0.155 0.377z"
     style="fill-rule:nonzero;fill:#fff"
     id="path6" />
  <defs
     id="defs13">
    <linearGradient
       id="_Linear1"
       x2="1"
       gradientTransform="matrix(0,-49.619,49.619,0,104.99,51.088)"
       gradientUnits="userSpaceOnUse">
      <stop
         style="stop-color:#3e8d5c"
         offset="0"
         id="stop8" />
      <stop
         style="stop-color:#78e79f"
         offset="1"
         id="stop10" />
    </linearGradient>
    <linearGradient
       inkscape:collect="always"
       xlink:href="#_Linear1"
       id="linearGradient4034"
       gradientUnits="userSpaceOnUse"
       gradientTransform="matrix(0,-49.619,49.619,0,104.99,51.088)"
       x2="1" />
  </defs>
</svg>
