<?xml version="1.0" encoding="UTF-8" standalone="no"?>
<svg
   width="100%"
   height="100%"
   viewBox="0 0 64 64"
   xml:space="preserve"
   style="fill-rule:evenodd;clip-rule:evenodd;stroke-linejoin:round;stroke-miterlimit:2;"
   version="1.1"
   id="svg15"
   sodipodi:docname="unknown.svg"
   inkscape:version="1.1.2 (0a00cf5339, 2022-02-04)"
   xmlns:inkscape="http://www.inkscape.org/namespaces/inkscape"
   xmlns:sodipodi="http://sodipodi.sourceforge.net/DTD/sodipodi-0.dtd"
   xmlns:xlink="http://www.w3.org/1999/xlink"
   xmlns="http://www.w3.org/2000/svg"
   xmlns:svg="http://www.w3.org/2000/svg"><sodipodi:namedview
     id="namedview17"
     pagecolor="#ffffff"
     bordercolor="#666666"
     borderopacity="1.0"
     inkscape:pageshadow="2"
     inkscape:pageopacity="0.0"
     inkscape:pagecheckerboard="0"
     showgrid="false"
     inkscape:zoom="10.65625"
     inkscape:cx="32"
     inkscape:cy="32"
     inkscape:window-width="1896"
     inkscape:window-height="1022"
     inkscape:window-x="12"
     inkscape:window-y="46"
     inkscape:window-maximized="1"
     inkscape:current-layer="svg15" /><path
     id="path2"
     style="fill:url(#linearGradient4424)"
     d="M 17.617188 1.46875 C 15.597188 1.46875 13.659469 2.2712188 12.230469 3.6992188 C 10.802469 5.1282186 10 7.0678906 10 9.0878906 L 10 12.316406 L 10 54.382812 C 10 56.402814 10.802469 58.340531 12.230469 59.769531 C 13.659469 61.197531 15.597187 62 17.617188 62 L 46.382812 62 C 48.402814 62 50.340531 61.197531 51.769531 59.769531 C 53.197531 58.340531 54 56.402814 54 54.382812 L 54 12.316406 L 54 9.0878906 C 54 7.0678906 53.197531 5.1282186 51.769531 3.6992188 C 50.340531 2.2712188 48.402813 1.46875 46.382812 1.46875 L 37.207031 1.46875 L 26.792969 1.46875 L 17.617188 1.46875 z " /><path
     d="m 25.423,22.408283 c 0.304,-0.303 0.677,-0.456 1.118,-0.456 0.441,0 0.807,0.152 1.096,0.456 0.304,0.304 0.456,0.671 0.456,1.096 0,0.426 -0.152,0.791 -0.456,1.095 -0.289,0.304 -0.655,0.456 -1.096,0.456 -0.441,0 -0.814,-0.152 -1.118,-0.456 -0.289,-0.303 -0.434,-0.669 -0.434,-1.095 0,-0.425 0.145,-0.792 0.434,-1.096 z m 0.046,4.747 h 2.145 v 1.073 c 0,0.684 -0.145,1.279 -0.434,1.78 -0.289,0.487 -0.799,1.066 -1.529,1.734 -0.411,0.38 -0.707,0.67 -0.89,0.867 -0.167,0.184 -0.342,0.45 -0.525,0.8 -0.167,0.335 -0.251,0.685 -0.251,1.05 0,0.7 0.221,1.263 0.662,1.689 0.456,0.426 1.08,0.639 1.871,0.639 1.309,0 2.207,-0.731 2.693,-2.191 l 1.963,0.821 c -0.319,0.868 -0.875,1.644 -1.666,2.328 -0.776,0.7 -1.772,1.05 -2.99,1.05 -1.384,0 -2.51,-0.411 -3.377,-1.232 -0.867,-0.807 -1.301,-1.841 -1.301,-3.104 0,-0.548 0.145,-1.103 0.434,-1.666 0.289,-0.563 0.54,-0.959 0.753,-1.188 0.228,-0.242 0.54,-0.547 0.935,-0.913 0.046,-0.045 0.084,-0.083 0.115,-0.114 0.928,-0.837 1.392,-1.673 1.392,-2.51 z"
     style="fill:#464d55;fill-rule:nonzero"
     id="path4" /><path
     d="m 38.555,33.181283 c -0.289,0.303 -0.654,0.456 -1.095,0.456 -0.442,-10e-4 -0.814,-0.153 -1.119,-0.457 -0.289,-0.304 -0.433,-0.67 -0.433,-1.096 0,-0.425 0.144,-0.791 0.433,-1.094 0.305,-0.304 0.677,-0.456 1.119,-0.456 0.441,0 0.806,0.152 1.095,0.456 0.304,0.303 0.456,0.669 0.456,1.095 0,0.425 -0.152,0.791 -0.456,1.096 z m -0.023,-4.747 h -2.145 v -1.073 c 0,-0.684 0.145,-1.27 0.434,-1.757 0.289,-0.502 0.798,-1.088 1.529,-1.757 0.41,-0.38 0.699,-0.662 0.867,-0.845 0.182,-0.197 0.357,-0.464 0.525,-0.798 0.182,-0.35 0.274,-0.708 0.274,-1.073 0,-0.7 -0.229,-1.263 -0.685,-1.689 -0.441,-0.426 -1.057,-0.639 -1.849,-0.639 -1.308,0 -2.206,0.731 -2.693,2.191 l -1.962,-0.821 c 0.319,-0.868 0.867,-1.644 1.643,-2.328 0.791,-0.7 1.795,-1.05 3.012,-1.05 1.385,0 2.511,0.411 3.378,1.232 0.867,0.807 1.301,1.841 1.301,3.104 0,0.548 -0.145,1.103 -0.434,1.666 -0.289,0.563 -0.547,0.966 -0.776,1.21 -0.213,0.228 -0.517,0.525 -0.913,0.89 l -0.114,0.114 c -0.928,0.837 -1.392,1.673 -1.392,2.51 z"
     style="fill:#464d55;fill-rule:nonzero"
     id="path6" /><defs
     id="defs13"><linearGradient
       id="_Linear1"
       x1="0"
       y1="0"
       x2="1"
       y2="0"
       gradientUnits="userSpaceOnUse"
       gradientTransform="matrix(0,-49.619,49.619,0,104.99,51.088)"><stop
         offset="0"
         style="stop-color:#758b9a;stop-opacity:1"
         id="stop8" /><stop
         offset="1"
         style="stop-color:#b5bdc2;stop-opacity:1"
         id="stop10" /></linearGradient><linearGradient
       inkscape:collect="always"
       xlink:href="#_Linear1"
       id="linearGradient4424"
       gradientUnits="userSpaceOnUse"
       gradientTransform="matrix(0,-49.619,49.619,0,104.99,51.088)"
       x1="0"
       y1="0"
       x2="1"
       y2="0" /></defs><path
     id="path2-3-3"
     style="clip-rule:evenodd;fill:#464d55;fill-opacity:1;fill-rule:evenodd;stroke-linecap:round;stroke-linejoin:round;stroke-miterlimit:2"
     d="m 10.000002,50.982422 v 3.398437 0.002 c 6.5e-5,0.251841 0.01244,0.501552 0.03711,0.75 v 0.002 c 0.02473,0.248442 0.06268,0.494885 0.111329,0.738281 v 0.002 c 0.04871,0.243391 0.109702,0.484016 0.18164,0.720703 v 0.002 c 0.072,0.236684 0.155456,0.468944 0.25,0.697266 v 0.002 c 0.09461,0.228323 0.199936,0.453573 0.316406,0.671875 v 0.002 c 0.116531,0.218305 0.245101,0.430096 0.382813,0.636719 v 0.002 c 0.137776,0.206628 0.287038,0.406326 0.445312,0.599609 v 0.002 c 0.158341,0.193289 0.327702,0.378358 0.50586,0.55664 v 0.002 c 0.714499,0.714 1.5571,1.271274 2.472656,1.650391 C 15.618681,61.799106 16.607188,62 17.617187,62 h 28.765625 c 1.010002,0 1.998508,-0.200473 2.914063,-0.580078 0.915554,-0.379117 1.758155,-0.936391 2.472656,-1.650391 v -0.002 C 53.19753,58.338626 54,56.400859 54,54.380859 v -3.398437 z" /></svg>
