<?xml version="1.0" encoding="UTF-8" standalone="no"?>
<svg
   style="clip-rule:evenodd;fill-rule:evenodd;stroke-linejoin:round;stroke-miterlimit:2"
   viewBox="0 0 64 64"
   version="1.1"
   id="svg25"
   sodipodi:docname="text-x-c++.svg"
   inkscape:version="1.1.2 (0a00cf5339, 2022-02-04)"
   xmlns:inkscape="http://www.inkscape.org/namespaces/inkscape"
   xmlns:sodipodi="http://sodipodi.sourceforge.net/DTD/sodipodi-0.dtd"
   xmlns:xlink="http://www.w3.org/1999/xlink"
   xmlns="http://www.w3.org/2000/svg"
   xmlns:svg="http://www.w3.org/2000/svg">
  <sodipodi:namedview
     id="namedview27"
     pagecolor="#ffffff"
     bordercolor="#666666"
     borderopacity="1.0"
     inkscape:pageshadow="2"
     inkscape:pageopacity="0.0"
     inkscape:pagecheckerboard="0"
     showgrid="false"
     inkscape:zoom="10.65625"
     inkscape:cx="32"
     inkscape:cy="32"
     inkscape:window-width="1896"
     inkscape:window-height="1022"
     inkscape:window-x="12"
     inkscape:window-y="46"
     inkscape:window-maximized="1"
     inkscape:current-layer="svg25" />
  <path
     id="path2"
     style="fill:url(#linearGradient2406)"
     d="M 17.617188 1.46875 C 15.597188 1.46875 13.659469 2.2712188 12.230469 3.6992188 C 10.802469 5.1282186 10 7.0678906 10 9.0878906 L 10 12.365234 L 10 54.382812 C 10 56.402814 10.802469 58.340531 12.230469 59.769531 C 13.659469 61.197531 15.597187 62 17.617188 62 L 46.382812 62 C 48.402814 62 50.340531 61.197531 51.769531 59.769531 C 53.197531 58.340531 54 56.402814 54 54.382812 L 54 12.365234 L 54 9.0878906 C 54 7.0678906 53.197531 5.1282186 51.769531 3.6992188 C 50.340531 2.2712188 48.402813 1.46875 46.382812 1.46875 L 36.167969 1.46875 L 27.832031 1.46875 L 17.617188 1.46875 z " />
  <path
     id="path2-3"
     style="clip-rule:evenodd;fill:#5e4008;fill-opacity:1;fill-rule:evenodd;stroke-linecap:round;stroke-linejoin:round;stroke-miterlimit:2"
     d="m 10.000002,50.982422 v 3.398437 0.002 c 6.5e-5,0.251841 0.01244,0.501552 0.03711,0.75 v 0.002 c 0.02473,0.248442 0.06268,0.494885 0.111329,0.738281 v 0.002 c 0.04871,0.243391 0.109702,0.484016 0.18164,0.720703 v 0.002 c 0.072,0.236684 0.155456,0.468944 0.25,0.697266 v 0.002 c 0.09461,0.228323 0.199936,0.453573 0.316406,0.671875 v 0.002 c 0.116531,0.218305 0.245101,0.430096 0.382813,0.636719 v 0.002 c 0.137776,0.206628 0.287038,0.406326 0.445312,0.599609 v 0.002 c 0.158341,0.193289 0.327702,0.378358 0.50586,0.55664 v 0.002 c 0.714499,0.714 1.5571,1.271274 2.472656,1.650391 C 15.618681,61.799106 16.607188,62 17.617187,62 h 28.765625 c 1.010002,0 1.998508,-0.200473 2.914063,-0.580078 0.915554,-0.379117 1.758155,-0.936391 2.472656,-1.650391 v -0.002 C 53.19753,58.338626 54,56.400859 54,54.380859 v -3.398437 z" />
  <path
     d="m18.848 56.788c0-0.416 0.059-0.773 0.176-1.072 0.118-0.299 0.272-0.523 0.464-0.672 0.198-0.155 0.4-0.264 0.608-0.328 0.208-0.069 0.427-0.104 0.656-0.104 0.928 0 1.48 0.437 1.656 1.312l-0.688 0.104c-0.122-0.56-0.437-0.84-0.944-0.84-0.81 0-1.216 0.531-1.216 1.592s0.392 1.592 1.176 1.592c0.592 0 0.942-0.347 1.048-1.04l0.68 0.088c-0.074 0.464-0.261 0.835-0.56 1.112-0.293 0.277-0.677 0.416-1.152 0.416-0.602 0-1.072-0.195-1.408-0.584-0.33-0.395-0.496-0.92-0.496-1.576z"
     style="fill-rule:nonzero;fill:#fff"
     id="path4" />
  <path
     d="m24.537 57.924v-1.576h-1.568v-0.648h1.568v-1.56h0.664v1.56h1.56v0.648h-1.56v1.576h-0.664z"
     style="fill-rule:nonzero;fill:#fff"
     id="path6" />
  <path
     d="m29.208 57.924v-1.576h-1.568v-0.648h1.568v-1.56h0.664v1.56h1.56v0.648h-1.56v1.576h-0.664z"
     style="fill-rule:nonzero;fill:#fff"
     id="path8" />
  <path
     d="m36.543 57.076c-0.267-0.064-0.477-0.123-0.632-0.176s-0.315-0.128-0.48-0.224-0.285-0.216-0.36-0.36-0.112-0.317-0.112-0.52c0-0.133 0.021-0.261 0.064-0.384 0.048-0.128 0.125-0.253 0.232-0.376 0.107-0.128 0.264-0.229 0.472-0.304 0.213-0.08 0.464-0.12 0.752-0.12 0.299 0 0.555 0.032 0.768 0.096 0.213 0.059 0.379 0.147 0.496 0.264s0.205 0.237 0.264 0.36 0.101 0.269 0.128 0.44l-0.696 0.088c-0.064-0.448-0.368-0.672-0.912-0.672-0.571 0-0.856 0.179-0.856 0.536 0 0.16 0.061 0.277 0.184 0.352s0.352 0.157 0.688 0.248c0.048 0.011 0.136 0.035 0.264 0.072 0.133 0.032 0.221 0.056 0.264 0.072 0.048 0.011 0.128 0.035 0.24 0.072 0.112 0.032 0.189 0.059 0.232 0.08 0.048 0.021 0.115 0.053 0.2 0.096 0.091 0.043 0.155 0.083 0.192 0.12s0.083 0.085 0.136 0.144 0.091 0.12 0.112 0.184c0.027 0.059 0.048 0.128 0.064 0.208 0.021 0.08 0.032 0.165 0.032 0.256 0 0.251-0.059 0.467-0.176 0.648-0.112 0.181-0.259 0.32-0.44 0.416-0.176 0.091-0.352 0.155-0.528 0.192-0.176 0.043-0.349 0.064-0.52 0.064-1.024 0-1.616-0.445-1.776-1.336l0.696-0.112c0.075 0.581 0.435 0.872 1.08 0.872 0.635 0 0.952-0.221 0.952-0.664 0-0.048-5e-3 -0.091-0.016-0.128-5e-3 -0.043-0.021-0.08-0.048-0.112s-0.051-0.059-0.072-0.08c-0.021-0.027-0.056-0.051-0.104-0.072-0.048-0.027-0.088-0.045-0.12-0.056-0.027-0.016-0.075-0.032-0.144-0.048-0.069-0.021-0.123-0.037-0.16-0.048-0.032-0.011-0.091-0.024-0.176-0.04-0.085-0.021-0.147-0.037-0.184-0.048z"
     style="fill-rule:nonzero;fill:#fff"
     id="path10" />
  <path
     d="m39.087 58.852v-4.144h0.712v0.624c0.198-0.48 0.472-0.72 0.824-0.72 0.24 0 0.48 0.072 0.72 0.216l-0.232 0.52c-0.16-0.107-0.33-0.16-0.512-0.16-0.234 0-0.426 0.125-0.576 0.376-0.149 0.251-0.224 0.624-0.224 1.12v2.168h-0.712z"
     style="fill-rule:nonzero;fill:#fff"
     id="path12" />
  <path
     d="m41.536 56.788c0-0.416 0.058-0.773 0.176-1.072 0.117-0.299 0.272-0.523 0.464-0.672 0.197-0.155 0.4-0.264 0.608-0.328 0.208-0.069 0.426-0.104 0.656-0.104 0.928 0 1.48 0.437 1.656 1.312l-0.688 0.104c-0.123-0.56-0.438-0.84-0.944-0.84-0.811 0-1.216 0.531-1.216 1.592s0.392 1.592 1.176 1.592c0.592 0 0.941-0.347 1.048-1.04l0.68 0.088c-0.075 0.464-0.262 0.835-0.56 1.112-0.294 0.277-0.678 0.416-1.152 0.416-0.603 0-1.072-0.195-1.408-0.584-0.331-0.395-0.496-0.92-0.496-1.576z"
     style="fill-rule:nonzero;fill:#fff"
     id="path14" />
  <path
     d="m29.099 38c-3.091 0-5.633-1.04-7.628-3.119-1.995-2.107-2.993-4.734-2.993-7.881s0.998-5.76 2.993-7.839c1.995-2.107 4.537-3.161 7.628-3.161 2.304 0 4.215 0.562 5.732 1.686s2.627 2.543 3.329 4.257l-3.54 1.475c-1.068-2.585-2.992-3.878-5.774-3.878-1.714 0-3.231 0.703-4.552 2.108-1.292 1.404-1.938 3.189-1.938 5.352s0.646 3.948 1.938 5.352c1.321 1.405 2.838 2.108 4.552 2.108 2.894 0 4.889-1.293 5.985-3.878l3.456 1.475c-0.703 1.686-1.841 3.105-3.414 4.257-1.545 1.124-3.47 1.686-5.774 1.686zm13.901-11.273h2.479v1.042h-2.479v2.479h-1.041v-2.479h-2.48v-1.042h2.48v-2.479h1.041v2.479zm0-8.248h2.479v1.042h-2.479v2.479h-1.041v-2.479h-2.48v-1.042h2.48v-2.479h1.041v2.479z"
     style="fill-rule:nonzero;fill:#5e4008"
     id="path16" />
  <defs
     id="defs23">
    <linearGradient
       id="_Linear1"
       x2="1"
       gradientTransform="matrix(1.07196,-49.7469,49.7469,1.07196,251.234,55.94)"
       gradientUnits="userSpaceOnUse">
      <stop
         style="stop-color:#b87003"
         offset="0"
         id="stop18" />
      <stop
         style="stop-color:#cfa532"
         offset="1"
         id="stop20" />
    </linearGradient>
    <linearGradient
       inkscape:collect="always"
       xlink:href="#_Linear1"
       id="linearGradient2406"
       gradientUnits="userSpaceOnUse"
       gradientTransform="matrix(1.07196,-49.7469,49.7469,1.07196,251.234,55.94)"
       x2="1" />
  </defs>
</svg>
