<?xml version="1.0" encoding="UTF-8" standalone="no"?>
<svg
   style="clip-rule:evenodd;fill-rule:evenodd;stroke-linecap:round;stroke-linejoin:round"
   viewBox="0 0 64 64"
   version="1.1"
   id="svg37"
   sodipodi:docname="application-vnd.oasis.opendocument.image-template.svg"
   inkscape:version="1.1.2 (0a00cf5339, 2022-02-04)"
   xmlns:inkscape="http://www.inkscape.org/namespaces/inkscape"
   xmlns:sodipodi="http://sodipodi.sourceforge.net/DTD/sodipodi-0.dtd"
   xmlns:xlink="http://www.w3.org/1999/xlink"
   xmlns="http://www.w3.org/2000/svg"
   xmlns:svg="http://www.w3.org/2000/svg">
  <sodipodi:namedview
     id="namedview39"
     pagecolor="#ffffff"
     bordercolor="#666666"
     borderopacity="1.0"
     inkscape:pageshadow="2"
     inkscape:pageopacity="0.0"
     inkscape:pagecheckerboard="0"
     showgrid="false"
     inkscape:zoom="10.671875"
     inkscape:cx="31.718887"
     inkscape:cy="32.843338"
     inkscape:window-width="945"
     inkscape:window-height="1026"
     inkscape:window-x="965"
     inkscape:window-y="44"
     inkscape:window-maximized="1"
     inkscape:current-layer="svg37" />
  <path
     id="path2"
     style="fill:url(#linearGradient2905)"
     d="M 17.617188 1.46875 C 15.597188 1.46875 13.659469 2.2712188 12.230469 3.6992188 C 10.802469 5.1282186 10 7.0678906 10 9.0878906 L 10 13.097656 L 10 54.382812 C 10 56.402814 10.802469 58.340531 12.230469 59.769531 C 13.659469 61.197531 15.597187 62 17.617188 62 L 46.382812 62 C 48.402814 62 50.340531 61.197531 51.769531 59.769531 C 53.197531 58.340531 54 56.402814 54 54.382812 L 54 13.097656 L 54 9.0878906 C 54 7.0678906 53.197531 5.1282186 51.769531 3.6992188 C 50.340531 2.2712188 48.402813 1.46875 46.382812 1.46875 L 36.662109 1.46875 L 27.337891 1.46875 L 17.617188 1.46875 z " />
  <path
     id="path914"
     style="clip-rule:evenodd;fill:#3d434a;fill-opacity:1;fill-rule:evenodd;stroke-width:1;stroke-linejoin:round;stroke-miterlimit:2"
     d="m 10,50.982422 v 3.40039 c 0,2.020002 0.802469,3.957719 2.230469,5.386719 1.429,1.428 3.366717,2.230469 5.386719,2.230469 h 28.765624 c 2.020002,0 3.957719,-0.802469 5.386719,-2.230469 C 53.197531,58.340531 54,56.402814 54,54.382812 v -3.40039 z" />
  <path
     d="m22.429 53.916c-0.104 0.104-0.229 0.156-0.377 0.156-0.147 0-0.273-0.052-0.377-0.156s-0.156-0.23-0.156-0.377c0-0.148 0.052-0.273 0.156-0.377s0.23-0.156 0.377-0.156c0.148 0 0.273 0.052 0.377 0.156s0.156 0.229 0.156 0.377c0 0.147-0.052 0.273-0.156 0.377zm0 5.024h-0.754v-4.016h0.754v4.016z"
     style="fill-rule:nonzero;fill:#fff"
     id="path4" />
  <path
     d="m23.418 58.94v-4.016h0.721v0.557h0.033c0.115-0.191 0.29-0.352 0.525-0.483 0.24-0.137 0.478-0.205 0.713-0.205 0.623 0 1.046 0.257 1.27 0.77 0.328-0.513 0.795-0.77 1.401-0.77 0.476 0 0.834 0.153 1.074 0.459 0.24 0.3 0.361 0.71 0.361 1.229v2.459h-0.754v-2.344c0-0.405-0.074-0.691-0.222-0.861-0.147-0.169-0.371-0.254-0.672-0.254-0.295 0-0.541 0.126-0.737 0.377-0.191 0.251-0.287 0.538-0.287 0.861v2.221h-0.754v-2.344c0-0.405-0.074-0.691-0.221-0.861-0.148-0.169-0.372-0.254-0.672-0.254-0.295 0-0.541 0.126-0.738 0.377-0.191 0.251-0.287 0.538-0.287 0.861v2.221h-0.754z"
     style="fill-rule:nonzero;fill:#fff"
     id="path6" />
  <path
     d="m31.62 59.071c-0.427 0-0.785-0.123-1.074-0.369-0.284-0.246-0.426-0.571-0.426-0.975 0-0.437 0.169-0.779 0.508-1.025 0.339-0.251 0.757-0.377 1.254-0.377 0.442 0 0.806 0.082 1.09 0.246v-0.115c0-0.295-0.101-0.53-0.303-0.704-0.203-0.181-0.451-0.271-0.746-0.271-0.219 0-0.418 0.052-0.599 0.156-0.174 0.104-0.295 0.246-0.36 0.426l-0.689-0.295c0.093-0.24 0.276-0.462 0.55-0.664 0.273-0.207 0.633-0.311 1.081-0.311 0.514 0 0.94 0.15 1.279 0.45 0.339 0.301 0.508 0.724 0.508 1.271v2.426h-0.721v-0.558h-0.033c-0.301 0.459-0.74 0.689-1.319 0.689zm0.122-0.689c0.312 0 0.593-0.114 0.845-0.344 0.256-0.235 0.385-0.511 0.385-0.828-0.213-0.174-0.533-0.262-0.959-0.262-0.366 0-0.642 0.079-0.828 0.238-0.186 0.158-0.279 0.344-0.279 0.557 0 0.197 0.085 0.353 0.255 0.467 0.169 0.115 0.363 0.172 0.581 0.172z"
     style="fill-rule:nonzero;fill:#fff"
     id="path8" />
  <path
     d="m36.241 60.841c-0.476 0-0.864-0.12-1.164-0.361-0.301-0.235-0.516-0.505-0.648-0.811l0.689-0.287c0.076 0.219 0.216 0.402 0.418 0.549 0.207 0.148 0.442 0.222 0.705 0.222 0.415 0 0.74-0.126 0.975-0.377 0.24-0.246 0.36-0.582 0.36-1.008v-0.386h-0.032c-0.131 0.197-0.317 0.361-0.558 0.492-0.24 0.131-0.51 0.197-0.811 0.197-0.519 0-0.967-0.205-1.344-0.615s-0.566-0.918-0.566-1.524c0-0.607 0.189-1.115 0.566-1.525 0.377-0.409 0.825-0.614 1.344-0.614 0.301 0 0.571 0.065 0.811 0.196 0.241 0.132 0.427 0.295 0.558 0.492h0.032v-0.557h0.722v3.811c0 0.688-0.2 1.21-0.599 1.565-0.398 0.361-0.885 0.541-1.458 0.541zm0.057-2.459c0.355 0 0.656-0.131 0.901-0.393 0.252-0.262 0.377-0.615 0.377-1.057 0-0.443-0.125-0.795-0.377-1.057-0.245-0.263-0.546-0.394-0.901-0.394-0.35 0-0.65 0.134-0.902 0.402-0.251 0.262-0.377 0.612-0.377 1.049s0.126 0.789 0.377 1.057c0.252 0.262 0.552 0.393 0.902 0.393z"
     style="fill-rule:nonzero;fill:#fff"
     id="path10" />
  <path
     d="m40.988 59.071c-0.606 0-1.101-0.202-1.483-0.607-0.377-0.404-0.566-0.915-0.566-1.532 0-0.585 0.184-1.088 0.55-1.508 0.371-0.421 0.844-0.631 1.417-0.631 0.596 0 1.071 0.194 1.426 0.582 0.361 0.388 0.541 0.907 0.541 1.557l-8e-3 0.139h-3.172c0.022 0.404 0.156 0.724 0.402 0.959 0.251 0.235 0.544 0.352 0.877 0.352 0.541 0 0.907-0.229 1.098-0.688l0.672 0.279c-0.131 0.311-0.347 0.573-0.647 0.786-0.301 0.208-0.67 0.312-1.107 0.312zm1.082-2.623c-0.016-0.229-0.123-0.448-0.319-0.655-0.192-0.208-0.479-0.312-0.861-0.312-0.279 0-0.522 0.088-0.729 0.262-0.203 0.175-0.342 0.41-0.418 0.705h2.327z"
     style="fill-rule:nonzero;fill:#fff"
     id="path12" />
  <path
     d="m42.466 15.996l-19.935 0.125 0.096 15.31 19.935-0.125-0.096-15.31z"
     style="fill:#3d434a"
     id="path14" />
  <path
     d="m39.47 19.414l-19.623 3.516 2.7 15.07 19.623-3.516-2.7-15.07z"
     style="fill:#9aa7b3;stroke-width:.49px;stroke:#3d434a"
     id="path16" />
  <path
     d="m22.264 36.458l3.504-1.856 1.316 0.581 2.561-1.437 2.847 0.412 2.01 0.064 1.397-0.783 1.751-0.794 3.155 0.585 0.25 1.461-17.708 3.323s-0.767 0.29-0.883-0.388l-0.2-1.168z"
     style="fill:#3d434a"
     id="path18" />
  <path
     d="m24.609 24.508c1.07-0.192 2.096 0.521 2.287 1.592 0.192 1.071-0.521 2.096-1.592 2.288s-2.096-0.522-2.288-1.593c-0.192-1.07 0.522-2.096 1.593-2.287z"
     style="fill:#3d434a"
     id="path20" />
  <path
     d="m36.716 28.374c2.976-0.514 5.809 1.484 6.323 4.46 0.514 2.975-1.485 5.809-4.46 6.322-2.976 0.514-5.809-1.484-6.323-4.46-0.514-2.975 1.485-5.809 4.46-6.322z"
     style="fill:#9aa7b3;stroke-width:.57px;stroke:#3d434a"
     id="path22" />
  <path
     d="m34.858 38.307l2.097-7.091c1.865 1.385 5.865 2.065 5.865 2.065l0.502 0.562c-1.1 5.917-4.627 5.75-8.464 4.464z"
     style="fill:#3d434a"
     id="path24" />
  <path
     d="m35.508 38.765l0.825-1.468 1.147 0.32 0.688-1.525 3.785 0.728c-0.91 2.201-2.904 3.106-6.445 1.945z"
     style="fill:#9aa7b3"
     id="path26" />
  <path
     d="m36.684 28.315c2.975-0.514 5.809 1.485 6.323 4.46 0.513 2.976-1.485 5.809-4.461 6.323-2.975 0.514-5.808-1.485-6.322-4.46-0.514-2.976 1.484-5.809 4.46-6.323z"
     style="fill:none;stroke-width:.57px;stroke:#3d434a"
     id="path28" />
  <defs
     id="defs35">
    <linearGradient
       id="_Linear1"
       x2="1"
       gradientTransform="matrix(0,-49.619,49.619,0,104.99,51.088)"
       gradientUnits="userSpaceOnUse">
      <stop
         style="stop-color:#758b9a"
         offset="0"
         id="stop30" />
      <stop
         style="stop-color:#b5bdc2"
         offset="1"
         id="stop32" />
    </linearGradient>
    <linearGradient
       inkscape:collect="always"
       xlink:href="#_Linear1"
       id="linearGradient2905"
       gradientUnits="userSpaceOnUse"
       gradientTransform="matrix(0,-49.619,49.619,0,104.99,51.088)"
       x2="1" />
  </defs>
</svg>
