<?xml version="1.0" encoding="UTF-8" standalone="no"?>
<svg
   clip-rule="evenodd"
   fill-rule="evenodd"
   stroke-linejoin="round"
   stroke-miterlimit="2"
   viewBox="0 0 64 64"
   version="1.1"
   id="svg21"
   sodipodi:docname="text-x-ruby.svg"
   inkscape:version="1.1.2 (0a00cf5339, 2022-02-04)"
   xmlns:inkscape="http://www.inkscape.org/namespaces/inkscape"
   xmlns:sodipodi="http://sodipodi.sourceforge.net/DTD/sodipodi-0.dtd"
   xmlns:xlink="http://www.w3.org/1999/xlink"
   xmlns="http://www.w3.org/2000/svg"
   xmlns:svg="http://www.w3.org/2000/svg">
  <defs
     id="defs25">
    <linearGradient
       inkscape:collect="always"
       xlink:href="#a"
       id="linearGradient4541"
       gradientUnits="userSpaceOnUse"
       gradientTransform="matrix(0,-49.619,49.619,0,396.55,51.088)"
       x2="1" />
  </defs>
  <sodipodi:namedview
     id="namedview23"
     pagecolor="#ffffff"
     bordercolor="#666666"
     borderopacity="1.0"
     inkscape:pageshadow="2"
     inkscape:pageopacity="0.0"
     inkscape:pagecheckerboard="0"
     showgrid="false"
     inkscape:zoom="10.65625"
     inkscape:cx="32"
     inkscape:cy="32"
     inkscape:window-width="1896"
     inkscape:window-height="1022"
     inkscape:window-x="12"
     inkscape:window-y="46"
     inkscape:window-maximized="1"
     inkscape:current-layer="svg21" />
  <linearGradient
     id="a"
     x2="1"
     gradientTransform="matrix(0,-49.619,49.619,0,396.55,51.088)"
     gradientUnits="userSpaceOnUse">
    <stop
       stop-color="#9b070f"
       offset="0"
       id="stop2" />
    <stop
       stop-color="#e65130"
       offset="1"
       id="stop4" />
  </linearGradient>
  <path
     id="path7"
     style="fill:url(#linearGradient4541)"
     d="M 17.617188 1.46875 C 15.597188 1.46875 13.659469 2.2712188 12.230469 3.6992188 C 10.802469 5.1282186 10 7.0678906 10 9.0878906 L 10 14.353516 L 10 54.382812 C 10 56.402814 10.802469 58.340531 12.230469 59.769531 C 13.659469 61.197531 15.597187 62 17.617188 62 L 46.382812 62 C 48.402814 62 50.340531 61.197531 51.769531 59.769531 C 53.197531 58.340531 54 56.402814 54 54.382812 L 54 14.353516 L 54 9.0878906 C 54 7.0678906 53.197531 5.1282186 51.769531 3.6992188 C 50.340531 2.2712188 48.402813 1.46875 46.382812 1.46875 L 36.951172 1.46875 L 27.048828 1.46875 L 17.617188 1.46875 z " />
  <path
     id="path2-3-3"
     style="clip-rule:evenodd;fill:#800000;fill-opacity:1;fill-rule:evenodd;stroke-linecap:round;stroke-linejoin:round;stroke-miterlimit:2"
     d="m 10.000005,50.982422 v 3.398437 0.002 c 6.4e-5,0.251841 0.01244,0.501552 0.03711,0.75 v 0.002 c 0.02473,0.248442 0.06268,0.494885 0.111329,0.738281 v 0.002 c 0.04871,0.243391 0.109702,0.484016 0.181639,0.720703 v 0.002 c 0.072,0.236684 0.155455,0.468944 0.25,0.697266 v 0.002 c 0.09461,0.228323 0.199935,0.453573 0.316407,0.671875 v 0.002 c 0.116531,0.218305 0.245101,0.430096 0.382813,0.636719 v 0.002 c 0.137776,0.206628 0.287038,0.406326 0.445312,0.599609 v 0.002 c 0.158341,0.193289 0.327702,0.378358 0.50586,0.55664 v 0.002 c 0.714498,0.714 1.557099,1.271274 2.472654,1.650391 C 15.618682,61.799106 16.607188,62 17.617188,62 h 28.765624 c 1.010003,0 1.998509,-0.200473 2.914063,-0.580078 0.915554,-0.379117 1.758156,-0.936391 2.472656,-1.650391 v -0.002 C 53.19753,58.338626 54,56.400859 54,54.380859 v -3.398437 z" />
  <path
     d="m 25.463,58.94 h -0.754 v -4.016 h 0.721 v 0.656 h 0.033 c 0.076,-0.219 0.232,-0.399 0.467,-0.541 0.241,-0.142 0.473,-0.213 0.697,-0.213 0.224,0 0.412,0.032 0.565,0.098 l -0.287,0.705 c -0.098,-0.038 -0.232,-0.058 -0.401,-0.058 -0.273,0 -0.517,0.11 -0.73,0.328 -0.207,0.213 -0.311,0.495 -0.311,0.844 z"
     fill="#ffffff"
     id="path9"
     style="fill-rule:nonzero" />
  <path
     d="m 31.21,58.94 h -0.721 v -0.558 h -0.033 c -0.114,0.192 -0.289,0.356 -0.524,0.492 -0.235,0.131 -0.484,0.197 -0.746,0.197 -0.503,0 -0.885,-0.153 -1.147,-0.459 -0.257,-0.306 -0.386,-0.716 -0.386,-1.229 v -2.459 h 0.754 v 2.336 c 0,0.748 0.331,1.122 0.992,1.122 0.312,0 0.566,-0.125 0.762,-0.377 0.197,-0.251 0.295,-0.54 0.295,-0.868 v -2.213 h 0.754 z"
     fill="#ffffff"
     id="path11"
     style="fill-rule:nonzero" />
  <path
     d="m 34.259,59.071 c -0.306,0 -0.582,-0.066 -0.828,-0.197 -0.24,-0.131 -0.421,-0.295 -0.541,-0.492 h -0.033 v 0.558 h -0.721 v -5.868 h 0.754 v 1.852 l -0.033,0.557 h 0.033 c 0.12,-0.196 0.301,-0.36 0.541,-0.491 0.246,-0.132 0.522,-0.197 0.828,-0.197 0.519,0 0.967,0.205 1.344,0.615 0.377,0.409 0.565,0.917 0.565,1.524 0,0.606 -0.188,1.114 -0.565,1.524 -0.377,0.41 -0.825,0.615 -1.344,0.615 z m -0.123,-0.689 c 0.35,0 0.65,-0.131 0.901,-0.393 0.252,-0.268 0.377,-0.62 0.377,-1.057 0,-0.437 -0.125,-0.787 -0.377,-1.049 -0.251,-0.268 -0.551,-0.402 -0.901,-0.402 -0.355,0 -0.659,0.131 -0.91,0.394 -0.246,0.262 -0.369,0.614 -0.369,1.057 0,0.442 0.123,0.795 0.369,1.057 0.251,0.262 0.555,0.393 0.91,0.393 z"
     fill="#ffffff"
     id="path13"
     style="fill-rule:nonzero" />
  <path
     d="m 37.772,60.71 h -0.779 l 0.934,-2.024 -1.655,-3.762 h 0.819 l 1.197,2.885 h 0.016 l 1.164,-2.885 h 0.82 z"
     fill="#ffffff"
     id="path15"
     style="fill-rule:nonzero" />
  <path
     d="M 39.437,18 36.187,22.912 32.829,18 Z m -3.766,6.035 h -7.208 l 3.604,13.707 z M 28.704,23.23 H 35.43 L 32.067,18.311 Z M 27.947,22.912 31.305,18 H 24.698 Z M 31.303,38 27.631,24.035 h -7.91 z M 19.732,23.23 h 7.461 l -3.25,-4.913 z m 20.454,-4.904 -3.245,4.904 h 7.448 z M 36.503,24.035 32.831,37.999 44.4,24.035 Z"
     fill="#e99090"
     id="path17"
     style="fill-rule:nonzero;fill:#800000;fill-opacity:1" />
</svg>
