<?xml version="1.0" encoding="UTF-8" standalone="no"?>
<svg
   style="clip-rule:evenodd;fill-rule:evenodd;stroke-linejoin:round;stroke-miterlimit:2"
   viewBox="0 0 64 64"
   version="1.1"
   id="svg19"
   sodipodi:docname="application-x-stuffit.svg"
   inkscape:version="1.1.2 (0a00cf5339, 2022-02-04)"
   xmlns:inkscape="http://www.inkscape.org/namespaces/inkscape"
   xmlns:sodipodi="http://sodipodi.sourceforge.net/DTD/sodipodi-0.dtd"
   xmlns:xlink="http://www.w3.org/1999/xlink"
   xmlns="http://www.w3.org/2000/svg"
   xmlns:svg="http://www.w3.org/2000/svg">
  <sodipodi:namedview
     id="namedview21"
     pagecolor="#ffffff"
     bordercolor="#666666"
     borderopacity="1.0"
     inkscape:pageshadow="2"
     inkscape:pageopacity="0.0"
     inkscape:pagecheckerboard="0"
     showgrid="false"
     inkscape:zoom="10.65625"
     inkscape:cx="32"
     inkscape:cy="32"
     inkscape:window-width="1896"
     inkscape:window-height="1022"
     inkscape:window-x="12"
     inkscape:window-y="46"
     inkscape:window-maximized="1"
     inkscape:current-layer="svg19" />
  <path
     id="path2"
     style="fill:url(#linearGradient955)"
     d="M 17.617188 1.46875 C 15.597188 1.46875 13.659469 2.2712188 12.230469 3.6992188 C 10.802469 5.1282186 10 7.0678906 10 9.0878906 L 10 10.822266 L 10 54.382812 C 10 56.402814 10.802469 58.340531 12.230469 59.769531 C 13.659469 61.197531 15.597187 62 17.617188 62 L 46.382812 62 C 48.402814 62 50.340531 61.197531 51.769531 59.769531 C 53.197531 58.340531 54 56.402814 54 54.382812 L 54 10.822266 L 54 9.0878906 C 54 7.0678906 53.197531 5.1282186 51.769531 3.6992188 C 50.340531 2.2712188 48.402813 1.46875 46.382812 1.46875 L 38.273438 1.46875 L 25.726562 1.46875 L 17.617188 1.46875 z " />
  <path
     id="path914"
     style="clip-rule:evenodd;fill:#044937;fill-opacity:1;fill-rule:evenodd;stroke-width:1;stroke-linecap:round;stroke-linejoin:round;stroke-miterlimit:2"
     d="m 9.9999992,50.982422 v 3.40039 c 0,2.020002 0.8024678,3.957719 2.2304698,5.386719 C 13.659467,61.197531 15.597183,62 17.617187,62 h 28.765625 c 2.020002,0 3.957718,-0.802469 5.386719,-2.230469 C 53.19753,58.340531 54,56.402814 54,54.382812 v -3.40039 z" />
  <path
     d="m42 18.285c0-1.262-1.023-2.285-2.285-2.285h-15.23c-1.262 0-2.285 1.023-2.285 2.285v17.43c0 1.262 1.023 2.285 2.285 2.285h15.23c1.262 0 2.285-1.023 2.285-2.285v-17.43z"
     style="fill:#044937"
     id="path4" />
  <path
     d="m33.245 24.663v1.1h-2.2v-1.1h2.2zm0-1.645v1.1h-2.2v-1.1h2.2zm0-1.608v1.1h-2.2v-1.1h2.2zm-0.024-1.636v1.1h-2.2v-1.1h2.2zm0.014-1.572v1.1h-2.2v-1.1h2.2zm4e-3 -1.591v1.1h-2.2v-1.1h2.2z"
     style="fill-opacity:.93;fill:#fff"
     id="path6" />
  <path
     d="m32.951 27.371v-0.694c0-0.194-0.157-0.351-0.349-0.351h-0.97c-0.193 0-0.349 0.157-0.349 0.351v0.693l-0.539 1.591c-0.151 0.443-0.079 0.935 0.193 1.317 0.272 0.381 0.713 0.608 1.18 0.608s0.908-0.227 1.18-0.608c0.271-0.382 0.344-0.874 0.193-1.317l-0.539-1.59zm-0.226 2.497c-0.279 0.393-0.937 0.393-1.217 0-0.14-0.197-0.177-0.451-0.1-0.68l0.181-0.533h1.055l0.181 0.533c0.078 0.229 0.04 0.483-0.1 0.68z"
     style="fill-rule:nonzero;fill:#fff"
     id="path8" />
  <path
     d="m28.004 59.405c-0.444 0-0.813-0.108-1.106-0.325-0.287-0.217-0.498-0.488-0.634-0.814l0.667-0.276c0.211 0.499 0.572 0.748 1.081 0.748 0.234 0 0.423-0.051 0.57-0.154 0.151-0.103 0.227-0.239 0.227-0.407 0-0.26-0.181-0.436-0.544-0.529l-0.806-0.195c-0.254-0.065-0.496-0.187-0.723-0.366-0.228-0.184-0.342-0.431-0.342-0.74 0-0.352 0.155-0.637 0.464-0.854 0.314-0.222 0.685-0.333 1.114-0.333 0.352 0 0.667 0.081 0.943 0.244 0.277 0.157 0.474 0.385 0.594 0.683l-0.651 0.268c-0.146-0.352-0.45-0.528-0.911-0.528-0.222 0-0.409 0.046-0.561 0.138s-0.227 0.217-0.227 0.374c0 0.228 0.176 0.382 0.528 0.464l0.789 0.187c0.374 0.086 0.651 0.236 0.829 0.447 0.179 0.211 0.269 0.45 0.269 0.716 0 0.357-0.147 0.656-0.439 0.894-0.293 0.239-0.67 0.358-1.131 0.358zm5.108-4.115h0.976v0.683h-0.976v2.033c0 0.434 0.179 0.651 0.537 0.651 0.135 0 0.249-0.022 0.341-0.065l0.26 0.642c-0.162 0.071-0.363 0.106-0.601 0.106-0.418 0-0.738-0.111-0.96-0.333-0.217-0.223-0.325-0.537-0.325-0.944v-2.09h-0.7v-0.683h0.7v-1.22h0.748v1.22zm2.302 3.985h-0.878l1.407-2.025-1.374-1.96h0.845l0.984 1.407 0.936-1.407h0.878l-1.391 1.96 1.423 2.025h-0.878l-0.984-1.472-0.968 1.472zm-4.423 0h-0.749v-3.985h0.749v3.985zm0-4.985c-0.103 0.103-0.228 0.154-0.375 0.154-0.146 0-0.271-0.051-0.374-0.154s-0.154-0.228-0.154-0.374c0-0.147 0.051-0.271 0.154-0.374s0.228-0.155 0.374-0.155c0.147 0 0.272 0.052 0.375 0.155s0.154 0.227 0.154 0.374c0 0.146-0.051 0.271-0.154 0.374z"
     style="fill-rule:nonzero;fill:#fff"
     id="path10" />
  <defs
     id="defs17">
    <linearGradient
       id="_Linear1"
       x2="1"
       gradientTransform="matrix(1.07196,-49.7469,49.7469,1.07196,178.156,54.3653)"
       gradientUnits="userSpaceOnUse">
      <stop
         style="stop-color:#075"
         offset="0"
         id="stop12" />
      <stop
         style="stop-color:#3ec884"
         offset="1"
         id="stop14" />
    </linearGradient>
    <linearGradient
       inkscape:collect="always"
       xlink:href="#_Linear1"
       id="linearGradient955"
       gradientUnits="userSpaceOnUse"
       gradientTransform="matrix(1.07196,-49.7469,49.7469,1.07196,178.156,54.3653)"
       x2="1" />
  </defs>
</svg>
