<?xml version="1.0" encoding="UTF-8" standalone="no"?>
<svg
   style="clip-rule:evenodd;fill-rule:evenodd;stroke-linejoin:round;stroke-miterlimit:2"
   viewBox="0 0 64 64"
   version="1.1"
   id="svg15"
   sodipodi:docname="text-css.svg"
   inkscape:version="1.1.2 (0a00cf5339, 2022-02-04)"
   xmlns:inkscape="http://www.inkscape.org/namespaces/inkscape"
   xmlns:sodipodi="http://sodipodi.sourceforge.net/DTD/sodipodi-0.dtd"
   xmlns:xlink="http://www.w3.org/1999/xlink"
   xmlns="http://www.w3.org/2000/svg"
   xmlns:svg="http://www.w3.org/2000/svg">
  <sodipodi:namedview
     id="namedview17"
     pagecolor="#ffffff"
     bordercolor="#666666"
     borderopacity="1.0"
     inkscape:pageshadow="2"
     inkscape:pageopacity="0.0"
     inkscape:pagecheckerboard="0"
     showgrid="false"
     inkscape:zoom="10.65625"
     inkscape:cx="32"
     inkscape:cy="32"
     inkscape:window-width="1896"
     inkscape:window-height="1022"
     inkscape:window-x="12"
     inkscape:window-y="46"
     inkscape:window-maximized="1"
     inkscape:current-layer="svg15" />
  <path
     id="path2"
     style="fill:url(#linearGradient3683)"
     d="M 17.617188 1.46875 C 15.597188 1.46875 13.659469 2.2712188 12.230469 3.6992188 C 10.802469 5.1282186 10 7.0678906 10 9.0878906 L 10 14.359375 L 10 54.382812 C 10 56.402814 10.802469 58.340531 12.230469 59.769531 C 13.659469 61.197531 15.597187 62 17.617188 62 L 46.382812 62 C 48.402814 62 50.340531 61.197531 51.769531 59.769531 C 53.197531 58.340531 54 56.402814 54 54.382812 L 54 14.359375 L 54 9.0878906 C 54 7.0678906 53.197531 5.1282186 51.769531 3.6992188 C 50.340531 2.2712188 48.402813 1.46875 46.382812 1.46875 L 36.703125 1.46875 L 27.296875 1.46875 L 17.617188 1.46875 z " />
  <path
     id="path2-3"
     style="clip-rule:evenodd;fill:#22444b;fill-opacity:1;fill-rule:evenodd;stroke-linecap:round;stroke-linejoin:round;stroke-miterlimit:2"
     d="m 10.000002,50.982422 v 3.398437 0.002 c 6.5e-5,0.251841 0.01244,0.501552 0.03711,0.75 v 0.002 c 0.02473,0.248442 0.06268,0.494885 0.111329,0.738281 v 0.002 c 0.04871,0.243391 0.109702,0.484016 0.18164,0.720703 v 0.002 c 0.072,0.236684 0.155456,0.468944 0.25,0.697266 v 0.002 c 0.09461,0.228323 0.199936,0.453573 0.316406,0.671875 v 0.002 c 0.116531,0.218305 0.245101,0.430096 0.382813,0.636719 v 0.002 c 0.137776,0.206628 0.287038,0.406326 0.445312,0.599609 v 0.002 c 0.158341,0.193289 0.327702,0.378358 0.50586,0.55664 v 0.002 c 0.714499,0.714 1.5571,1.271274 2.472656,1.650391 C 15.618681,61.799106 16.607188,62 17.617188,62 h 28.765625 c 1.010002,0 1.998508,-0.200473 2.914062,-0.580078 0.915555,-0.379117 1.758156,-0.936391 2.472656,-1.650391 v -0.002 C 53.197531,58.338626 54,56.400859 54,54.380859 v -3.398437 z" />
  <path
     d="m28.245 58.971c-0.601 0-1.095-0.202-1.483-0.606-0.388-0.41-0.582-0.921-0.582-1.533s0.194-1.12 0.582-1.524c0.388-0.41 0.882-0.615 1.483-0.615 0.448 0 0.82 0.109 1.115 0.328 0.295 0.218 0.511 0.494 0.647 0.828l-0.688 0.286c-0.208-0.502-0.582-0.754-1.123-0.754-0.333 0-0.628 0.137-0.885 0.41-0.251 0.273-0.377 0.62-0.377 1.041s0.126 0.768 0.377 1.041c0.257 0.273 0.552 0.41 0.885 0.41 0.563 0 0.951-0.252 1.164-0.754l0.672 0.286c-0.137 0.328-0.358 0.604-0.664 0.828-0.3 0.219-0.675 0.328-1.123 0.328zm7.659 0c-0.448 0-0.819-0.109-1.114-0.328-0.29-0.218-0.503-0.492-0.639-0.819l0.672-0.279c0.213 0.503 0.576 0.754 1.09 0.754 0.235 0 0.426-0.052 0.573-0.156 0.153-0.104 0.23-0.24 0.23-0.41 0-0.262-0.183-0.439-0.549-0.532l-0.812-0.197c-0.256-0.065-0.5-0.188-0.729-0.369-0.23-0.185-0.344-0.434-0.344-0.746 0-0.355 0.155-0.641 0.467-0.86 0.317-0.224 0.691-0.336 1.123-0.336 0.355 0 0.672 0.082 0.95 0.246 0.279 0.158 0.478 0.388 0.599 0.688l-0.656 0.271c-0.148-0.355-0.453-0.533-0.918-0.533-0.224 0-0.412 0.046-0.565 0.139s-0.23 0.219-0.23 0.377c0 0.23 0.178 0.385 0.533 0.467l0.795 0.189c0.377 0.087 0.655 0.238 0.836 0.451 0.18 0.213 0.27 0.453 0.27 0.721 0 0.36-0.147 0.661-0.442 0.901-0.295 0.241-0.675 0.361-1.14 0.361zm-3.729 0c-0.448 0-0.82-0.109-1.115-0.328-0.289-0.218-0.502-0.492-0.639-0.819l0.672-0.279c0.213 0.503 0.576 0.754 1.09 0.754 0.235 0 0.426-0.052 0.574-0.156 0.153-0.104 0.229-0.24 0.229-0.41 0-0.262-0.183-0.439-0.549-0.532l-0.811-0.197c-0.257-0.065-0.5-0.188-0.73-0.369-0.229-0.185-0.344-0.434-0.344-0.746 0-0.355 0.156-0.641 0.467-0.86 0.317-0.224 0.691-0.336 1.123-0.336 0.355 0 0.672 0.082 0.951 0.246 0.278 0.158 0.478 0.388 0.598 0.688l-0.656 0.271c-0.147-0.355-0.453-0.533-0.917-0.533-0.225 0-0.413 0.046-0.566 0.139s-0.229 0.219-0.229 0.377c0 0.23 0.177 0.385 0.532 0.467l0.795 0.189c0.377 0.087 0.656 0.238 0.836 0.451s0.271 0.453 0.271 0.721c0 0.36-0.148 0.661-0.443 0.901-0.295 0.241-0.675 0.361-1.139 0.361z"
     style="fill-rule:nonzero;fill:#fff"
     id="path4" />
  <path
     d="m21.516 34.222c-1.686 0-3.073-0.567-4.161-1.701-1.088-1.149-1.632-2.582-1.632-4.299 0-1.716 0.544-3.141 1.632-4.276 1.088-1.149 2.475-1.724 4.161-1.724 1.257 0 2.299 0.307 3.126 0.92 0.828 0.613 1.433 1.387 1.816 2.322l-1.931 0.804c-0.582-1.41-1.632-2.115-3.149-2.115-0.935 0-1.763 0.383-2.483 1.15-0.705 0.766-1.057 1.739-1.057 2.919s0.352 2.154 1.057 2.92c0.72 0.766 1.548 1.149 2.483 1.149 1.578 0 2.667-0.705 3.264-2.115l1.885 0.805c-0.383 0.919-1.004 1.693-1.862 2.322-0.843 0.613-1.892 0.919-3.149 0.919zm11.022 0c-1.256 0-2.298-0.306-3.126-0.919-0.812-0.613-1.41-1.38-1.793-2.299l1.885-0.782c0.598 1.41 1.617 2.115 3.057 2.115 0.659 0 1.196-0.145 1.61-0.437 0.429-0.291 0.643-0.674 0.643-1.149 0-0.736-0.513-1.234-1.54-1.494l-2.276-0.552c-0.72-0.184-1.402-0.529-2.046-1.034-0.643-0.522-0.965-1.219-0.965-2.092 0-0.997 0.436-1.801 1.31-2.414 0.889-0.629 1.939-0.943 3.149-0.943 0.997 0 1.886 0.23 2.667 0.69 0.782 0.444 1.341 1.088 1.678 1.931l-1.839 0.759c-0.414-0.997-1.272-1.495-2.574-1.495-0.629 0-1.158 0.131-1.587 0.391-0.429 0.261-0.643 0.613-0.643 1.058 0 0.643 0.498 1.08 1.494 1.31l2.23 0.529c1.057 0.245 1.839 0.666 2.345 1.264 0.505 0.598 0.758 1.272 0.758 2.023 0 1.012-0.414 1.854-1.241 2.529-0.828 0.674-1.893 1.011-3.196 1.011zm10.462 0c-1.257 0-2.299-0.306-3.126-0.919-0.813-0.613-1.41-1.38-1.794-2.299l1.886-0.782c0.597 1.41 1.616 2.115 3.057 2.115 0.659 0 1.195-0.145 1.609-0.437 0.429-0.291 0.644-0.674 0.644-1.149 0-0.736-0.514-1.234-1.54-1.494l-2.276-0.552c-0.721-0.184-1.403-0.529-2.046-1.034-0.644-0.522-0.966-1.219-0.966-2.092 0-0.997 0.437-1.801 1.311-2.414 0.889-0.629 1.938-0.943 3.149-0.943 0.996 0 1.885 0.23 2.667 0.69 0.781 0.444 1.341 1.088 1.678 1.931l-1.839 0.759c-0.414-0.997-1.272-1.495-2.575-1.495-0.628 0-1.157 0.131-1.586 0.391-0.429 0.261-0.644 0.613-0.644 1.058 0 0.643 0.498 1.08 1.494 1.31l2.23 0.529c1.058 0.245 1.839 0.666 2.345 1.264s0.759 1.272 0.759 2.023c0 1.012-0.414 1.854-1.242 2.529-0.827 0.674-1.892 1.011-3.195 1.011z"
     style="fill-opacity:.58;fill-rule:nonzero"
     id="path6" />
  <defs
     id="defs13">
    <linearGradient
       id="_Linear1"
       x2="1"
       gradientTransform="matrix(0,-49.619,49.619,0,469.44,51.088)"
       gradientUnits="userSpaceOnUse">
      <stop
         style="stop-color:#348692"
         offset="0"
         id="stop8" />
      <stop
         style="stop-color:#69b9cd"
         offset="1"
         id="stop10" />
    </linearGradient>
    <linearGradient
       inkscape:collect="always"
       xlink:href="#_Linear1"
       id="linearGradient3683"
       gradientUnits="userSpaceOnUse"
       gradientTransform="matrix(0,-49.619,49.619,0,469.44,51.088)"
       x2="1" />
  </defs>
</svg>
