<?xml version="1.0" encoding="UTF-8" standalone="no"?>
<svg
   style="clip-rule:evenodd;fill-rule:evenodd;stroke-linejoin:round;stroke-miterlimit:2"
   viewBox="0 0 64 64"
   version="1.1"
   id="svg15"
   sodipodi:docname="image-vnd.dwg.svg"
   inkscape:version="1.1.2 (0a00cf5339, 2022-02-04)"
   xmlns:inkscape="http://www.inkscape.org/namespaces/inkscape"
   xmlns:sodipodi="http://sodipodi.sourceforge.net/DTD/sodipodi-0.dtd"
   xmlns:xlink="http://www.w3.org/1999/xlink"
   xmlns="http://www.w3.org/2000/svg"
   xmlns:svg="http://www.w3.org/2000/svg">
  <sodipodi:namedview
     id="namedview17"
     pagecolor="#ffffff"
     bordercolor="#666666"
     borderopacity="1.0"
     inkscape:pageshadow="2"
     inkscape:pageopacity="0.0"
     inkscape:pagecheckerboard="0"
     showgrid="false"
     inkscape:zoom="10.65625"
     inkscape:cx="32"
     inkscape:cy="32"
     inkscape:window-width="1896"
     inkscape:window-height="1022"
     inkscape:window-x="12"
     inkscape:window-y="46"
     inkscape:window-maximized="1"
     inkscape:current-layer="svg15" />
  <path
     id="path2"
     style="fill:url(#linearGradient3410)"
     d="M 17.617188 1.46875 C 15.597188 1.46875 13.659469 2.2712188 12.230469 3.6992188 C 10.802469 5.1282186 10 7.0678906 10 9.0878906 L 10 14.152344 L 10 54.382812 C 10 56.402814 10.802469 58.340531 12.230469 59.769531 C 13.659469 61.197531 15.597187 62 17.617188 62 L 46.382812 62 C 48.402814 62 50.340531 61.197531 51.769531 59.769531 C 53.197531 58.340531 54 56.402814 54 54.382812 L 54 14.152344 L 54 9.0878906 C 54 7.0678906 53.197531 5.1282186 51.769531 3.6992188 C 50.340531 2.2712188 48.402813 1.46875 46.382812 1.46875 L 36.794922 1.46875 L 27.205078 1.46875 L 17.617188 1.46875 z " />
  <path
     id="path2-3"
     style="clip-rule:evenodd;fill:#296f79;fill-opacity:1;fill-rule:evenodd;stroke-linejoin:round;stroke-miterlimit:2"
     d="m 10.000001,50.982422 v 3.398437 0.002 c 6.5e-5,0.251841 0.01244,0.501552 0.03711,0.75 v 0.002 c 0.02473,0.248442 0.06268,0.494885 0.111329,0.738281 v 0.002 c 0.04871,0.243391 0.109702,0.484016 0.18164,0.720703 v 0.002 c 0.072,0.236684 0.155456,0.468944 0.25,0.697266 v 0.002 c 0.09461,0.228323 0.199936,0.453573 0.316406,0.671875 v 0.002 c 0.116531,0.218305 0.245101,0.430096 0.382813,0.636719 v 0.002 c 0.137776,0.206628 0.287038,0.406326 0.445312,0.599609 v 0.002 c 0.158341,0.193289 0.327702,0.378358 0.50586,0.55664 v 0.002 c 0.714499,0.714 1.5571,1.271274 2.472656,1.650391 C 15.61868,61.799106 16.607187,62 17.617188,62 h 28.765624 c 1.010002,0 1.998509,-0.200473 2.914063,-0.580078 0.915555,-0.379117 1.758156,-0.936391 2.472656,-1.650391 v -0.002 C 53.197531,58.338626 54,56.400859 54,54.380859 v -3.398437 z" />
  <path
     d="m23.585 36.173h7.107v0.923h2.585v-0.923h7.138v1.044h2.585v-2.585h-0.954v-7.228h0.923v-2.585h-0.923v-6.71h0.954v-2.585h-2.585v0.526h-7.138v-0.923h-2.585v0.923h-7.107v-0.646h-2.585v2.585h0.923v6.83h-0.923v2.585h0.923v7.108h-0.923v2.584h2.585v-0.923zm-0.739 0v0.185h-1.108v-1.108h1.108v0.923zm8.585-20.123v-0.185h1.108v1.108h-1.108v-0.184-0.353-0.386zm1.108 20.123v0.185h-1.108v-0.185-0.386-0.352-0.185h1.108v0.923zm0.123-9.646c0.071 0.072 0.071 0.189 0 0.261-0.037 0.036-0.084 0.054-0.131 0.054s-0.095-0.018-0.131-0.054l-0.415-0.415-0.416 0.415c-0.036 0.036-0.083 0.054-0.13 0.054-0.048 0-0.095-0.018-0.131-0.054-0.072-0.072-0.072-0.189 0-0.261l0.415-0.415-0.415-0.416c-0.072-0.072-0.072-0.189 0-0.261s0.189-0.072 0.261 0l0.416 0.416 0.415-0.416c0.072-0.072 0.189-0.072 0.261 0s0.072 0.189 0 0.261l-0.415 0.416 0.416 0.415zm9.6 9.951h-1.108v-0.305-0.738-0.064h1.108v1.107zm-1.847-1.846v0.803h-5.782c3.223-0.914 5.761-3.452 6.675-6.676v5.873h-0.893zm1.816-7.966h-0.185-0.386-0.352-0.185v-1.108h1.108v1.108zm-1.077-10.403h1.108v1.108h-0.216-0.738-0.154v-0.582-0.526zm-0.739 0.526v1.32h0.893v5.355c-0.914-3.223-3.452-5.762-6.675-6.675h5.782zm-18.677-0.647h1.108v1.108h-0.184-0.739-0.185v-1.108zm1.847 1.847v-1.2h5.752c-3.223 0.913-5.762 3.452-6.675 6.675v-5.475h0.923zm-1.847 7.569h1.108v1.107h-0.184-0.353-0.386-0.185v-1.107zm0.924 3.201c0.913 3.224 3.452 5.762 6.675 6.676h-5.752v-0.923h-0.923v-5.753z"
     style="fill-rule:nonzero;fill:#296f79"
     id="path4" />
  <path
     d="m36.168 56.134c0.228 0 0.427 0.04 0.598 0.12s0.311 0.194 0.42 0.341v-0.392h0.785v2.782c0 0.266-0.041 0.496-0.121 0.689-0.08 0.194-0.19 0.357-0.332 0.487-0.141 0.131-0.31 0.228-0.509 0.291-0.198 0.063-0.415 0.095-0.651 0.095-0.341 0-0.639-0.057-0.895-0.171-0.255-0.114-0.471-0.251-0.648-0.411l0.449-0.594c0.156 0.122 0.314 0.22 0.475 0.294 0.16 0.074 0.341 0.111 0.543 0.111 0.241 0 0.441-0.06 0.601-0.181 0.16-0.12 0.24-0.306 0.24-0.559v-0.177c-0.114 0.126-0.252 0.221-0.414 0.284-0.162 0.064-0.342 0.095-0.541 0.095-0.214 0-0.415-0.038-0.6-0.114-0.186-0.076-0.345-0.181-0.478-0.316-0.132-0.135-0.237-0.298-0.313-0.49-0.075-0.192-0.113-0.403-0.113-0.635 0-0.236 0.038-0.449 0.113-0.639 0.076-0.19 0.182-0.352 0.317-0.487 0.134-0.135 0.294-0.239 0.477-0.313 0.183-0.073 0.383-0.11 0.597-0.11zm-5.247 3.275h-0.279l-1.454-3.206h0.904l0.74 1.79 0.854-1.859h0.278l0.866 1.814 0.727-1.745h0.904l-1.454 3.206h-0.284l-0.905-1.821-0.897 1.821zm-2.232-0.076h-0.784v-0.379c-0.11 0.147-0.25 0.26-0.421 0.338s-0.366 0.117-0.585 0.117c-0.223 0-0.428-0.041-0.613-0.123-0.186-0.083-0.345-0.196-0.477-0.342-0.133-0.145-0.238-0.318-0.313-0.518-0.076-0.201-0.114-0.419-0.114-0.655s0.038-0.454 0.114-0.654c0.075-0.2 0.181-0.373 0.316-0.519 0.135-0.145 0.295-0.259 0.48-0.341 0.186-0.082 0.388-0.123 0.607-0.123 0.198 0 0.377 0.033 0.538 0.101 0.16 0.067 0.295 0.162 0.404 0.284v-1.928h0.848v4.742zm-1.638-2.428c-0.11 0-0.213 0.02-0.31 0.06s-0.182 0.097-0.256 0.171-0.132 0.164-0.174 0.272c-0.042 0.107-0.063 0.226-0.063 0.357 0 0.135 0.021 0.255 0.063 0.36 0.042 0.106 0.099 0.196 0.171 0.272s0.157 0.134 0.256 0.174 0.203 0.06 0.313 0.06c0.097 0 0.193-0.017 0.288-0.05 0.094-0.034 0.18-0.086 0.256-0.155 0.076-0.07 0.137-0.158 0.183-0.266 0.046-0.107 0.07-0.237 0.07-0.389 0-0.147-0.024-0.276-0.07-0.385-0.046-0.11-0.106-0.201-0.18-0.272-0.074-0.072-0.158-0.125-0.253-0.158-0.095-0.034-0.193-0.051-0.294-0.051zm9.282-0.044c-0.11 0-0.214 0.018-0.313 0.054-0.099 0.035-0.185 0.088-0.256 0.158-0.072 0.069-0.129 0.154-0.171 0.256-0.042 0.101-0.063 0.217-0.063 0.347 0 0.131 0.021 0.248 0.063 0.351 0.042 0.104 0.1 0.192 0.174 0.266s0.159 0.13 0.256 0.167c0.097 0.038 0.2 0.057 0.31 0.057 0.101 0 0.199-0.017 0.294-0.05 0.095-0.034 0.179-0.086 0.253-0.155 0.074-0.07 0.134-0.158 0.18-0.266 0.046-0.107 0.07-0.233 0.07-0.376s-0.024-0.267-0.07-0.37-0.107-0.187-0.183-0.253c-0.076-0.065-0.162-0.112-0.256-0.142-0.095-0.029-0.191-0.044-0.288-0.044z"
     style="fill-rule:nonzero;fill:#fff"
     id="path6" />
  <defs
     id="defs13">
    <linearGradient
       id="_Linear1"
       x2="1"
       gradientTransform="matrix(0,-49.619,49.619,0,469.44,51.088)"
       gradientUnits="userSpaceOnUse">
      <stop
         style="stop-color:#348692"
         offset="0"
         id="stop8" />
      <stop
         style="stop-color:#69b9cd"
         offset="1"
         id="stop10" />
    </linearGradient>
    <linearGradient
       inkscape:collect="always"
       xlink:href="#_Linear1"
       id="linearGradient3410"
       gradientUnits="userSpaceOnUse"
       gradientTransform="matrix(0,-49.619,49.619,0,469.44,51.088)"
       x2="1" />
  </defs>
</svg>
