<?xml version="1.0" encoding="UTF-8" standalone="no"?>
<svg
   style="clip-rule:evenodd;fill-rule:evenodd;stroke-linejoin:round;stroke-miterlimit:2"
   viewBox="0 0 64 64"
   version="1.1"
   id="svg19"
   sodipodi:docname="application-image-png.svg"
   inkscape:version="1.1.2 (0a00cf5339, 2022-02-04)"
   xmlns:inkscape="http://www.inkscape.org/namespaces/inkscape"
   xmlns:sodipodi="http://sodipodi.sourceforge.net/DTD/sodipodi-0.dtd"
   xmlns:xlink="http://www.w3.org/1999/xlink"
   xmlns="http://www.w3.org/2000/svg"
   xmlns:svg="http://www.w3.org/2000/svg">
  <sodipodi:namedview
     id="namedview21"
     pagecolor="#ffffff"
     bordercolor="#666666"
     borderopacity="1.0"
     inkscape:pageshadow="2"
     inkscape:pageopacity="0.0"
     inkscape:pagecheckerboard="0"
     showgrid="false"
     inkscape:zoom="10.671875"
     inkscape:cx="33.686676"
     inkscape:cy="32.468521"
     inkscape:window-width="945"
     inkscape:window-height="1026"
     inkscape:window-x="965"
     inkscape:window-y="44"
     inkscape:window-maximized="1"
     inkscape:current-layer="svg19" />
  <path
     id="path2"
     style="fill:url(#linearGradient2946)"
     d="M 17.617188 1.46875 C 15.597188 1.46875 13.659469 2.2712188 12.230469 3.6992188 C 10.802469 5.1282186 10 7.0678906 10 9.0878906 L 10 13.488281 L 10 54.382812 C 10 56.402814 10.802469 58.340531 12.230469 59.769531 C 13.659469 61.197531 15.597187 62 17.617188 62 L 46.382812 62 C 48.402814 62 50.340531 61.197531 51.769531 59.769531 C 53.197531 58.340531 54 56.402814 54 54.382812 L 54 13.488281 L 54 9.0878906 C 54 7.0678906 53.197531 5.1282186 51.769531 3.6992188 C 50.340531 2.2712188 48.402813 1.46875 46.382812 1.46875 L 37.664062 1.46875 L 26.335938 1.46875 L 17.617188 1.46875 z " />
  <path
     id="path914"
     style="clip-rule:evenodd;fill:#003056;fill-opacity:1;fill-rule:evenodd;stroke-width:1;stroke-linejoin:round;stroke-miterlimit:2"
     d="m 9.9999999,50.982422 v 3.40039 c 0,2.020002 0.8024691,3.957719 2.2304691,5.386719 1.429,1.428 3.366717,2.230469 5.386719,2.230469 h 28.765624 c 2.020002,0 3.957719,-0.802469 5.386719,-2.230469 C 53.197531,58.340531 54,56.402814 54,54.382812 v -3.40039 z" />
  <path
     d="m23.957 19c-0.53 0-0.957 0.465-0.957 1.043v15.912c0 0.579 0.427 1.045 0.957 1.045h16.086c0.53 0 0.957-0.466 0.957-1.045v-15.912c0-0.578-0.427-1.043-0.957-1.043h-16.086zm10.182 6.432l3.861 5.136h-12l3-3.849 2.139 2.574 3-3.861z"
     style="fill-rule:nonzero;fill:#003056"
     id="path4" />
  <path
     d="m27.9 58.571c-0.306 0-0.582-0.066-0.828-0.197-0.241-0.131-0.421-0.295-0.541-0.492h-0.033l0.033 0.558v1.77h-0.754v-5.786h0.721v0.557h0.033c0.12-0.197 0.3-0.36 0.541-0.492 0.246-0.131 0.522-0.196 0.828-0.196 0.519 0 0.967 0.205 1.344 0.614 0.377 0.41 0.565 0.918 0.565 1.525 0 0.606-0.188 1.114-0.565 1.524s-0.825 0.615-1.344 0.615zm-0.123-0.689c0.349 0 0.65-0.131 0.901-0.393 0.252-0.268 0.377-0.62 0.377-1.057s-0.125-0.787-0.377-1.049c-0.251-0.268-0.552-0.402-0.901-0.402-0.355 0-0.659 0.131-0.91 0.394-0.246 0.262-0.369 0.614-0.369 1.057 0 0.442 0.123 0.795 0.369 1.057 0.251 0.262 0.555 0.393 0.91 0.393z"
     style="fill-rule:nonzero;fill:#fff"
     id="path6" />
  <path
     d="m31.173 54.424v0.557h0.033c0.109-0.191 0.281-0.352 0.516-0.483 0.235-0.137 0.486-0.205 0.754-0.205 0.497 0 0.877 0.153 1.139 0.459s0.394 0.715 0.394 1.229v2.459h-0.754v-2.344c0-0.743-0.331-1.115-0.992-1.115-0.311 0-0.566 0.126-0.762 0.377-0.197 0.246-0.295 0.533-0.295 0.861v2.221h-0.754v-4.016h0.721z"
     style="fill-rule:nonzero;fill:#fff"
     id="path8" />
  <path
     d="m36.599 60.341c-0.475 0-0.863-0.12-1.163-0.361-0.301-0.235-0.517-0.505-0.648-0.811l0.688-0.287c0.077 0.219 0.216 0.402 0.418 0.549 0.208 0.148 0.443 0.222 0.705 0.222 0.416 0 0.741-0.126 0.976-0.377 0.24-0.246 0.36-0.582 0.36-1.008v-0.386h-0.033c-0.131 0.197-0.317 0.361-0.557 0.492s-0.511 0.197-0.811 0.197c-0.519 0-0.967-0.205-1.344-0.615s-0.566-0.918-0.566-1.524c0-0.607 0.189-1.115 0.566-1.525 0.377-0.409 0.825-0.614 1.344-0.614 0.3 0 0.571 0.065 0.811 0.196 0.24 0.132 0.426 0.295 0.557 0.492h0.033v-0.557h0.721v3.811c0 0.688-0.199 1.21-0.598 1.565-0.399 0.361-0.885 0.541-1.459 0.541zm0.058-2.459c0.355 0 0.655-0.131 0.901-0.393 0.251-0.262 0.377-0.615 0.377-1.057 0-0.443-0.126-0.795-0.377-1.057-0.246-0.263-0.546-0.394-0.901-0.394-0.35 0-0.651 0.134-0.902 0.402-0.251 0.262-0.377 0.612-0.377 1.049s0.126 0.789 0.377 1.057c0.251 0.262 0.552 0.393 0.902 0.393z"
     style="fill-rule:nonzero;fill:#fff"
     id="path10" />
  <defs
     id="defs17">
    <linearGradient
       id="_Linear1"
       x2="1"
       gradientTransform="matrix(0,-49.619,49.619,0,323.66,51.088)"
       gradientUnits="userSpaceOnUse">
      <stop
         style="stop-color:#005d77"
         offset="0"
         id="stop12" />
      <stop
         style="stop-color:#0294a7"
         offset="1"
         id="stop14" />
    </linearGradient>
    <linearGradient
       inkscape:collect="always"
       xlink:href="#_Linear1"
       id="linearGradient2946"
       gradientUnits="userSpaceOnUse"
       gradientTransform="matrix(0,-49.619,49.619,0,323.66,51.088)"
       x2="1" />
  </defs>
</svg>
