<?xml version="1.0" encoding="UTF-8" standalone="no"?>
<svg
   clip-rule="evenodd"
   fill-rule="evenodd"
   stroke-linejoin="round"
   stroke-miterlimit="2"
   viewBox="0 0 64 64"
   version="1.1"
   id="svg19"
   sodipodi:docname="application-image-tga.svg"
   inkscape:version="1.1.2 (0a00cf5339, 2022-02-04)"
   xmlns:inkscape="http://www.inkscape.org/namespaces/inkscape"
   xmlns:sodipodi="http://sodipodi.sourceforge.net/DTD/sodipodi-0.dtd"
   xmlns:xlink="http://www.w3.org/1999/xlink"
   xmlns="http://www.w3.org/2000/svg"
   xmlns:svg="http://www.w3.org/2000/svg">
  <defs
     id="defs23">
    <linearGradient
       inkscape:collect="always"
       xlink:href="#a"
       id="linearGradient2792"
       gradientUnits="userSpaceOnUse"
       gradientTransform="matrix(0,-49.619,49.619,0,250.77,51.088)"
       x2="1" />
  </defs>
  <sodipodi:namedview
     id="namedview21"
     pagecolor="#ffffff"
     bordercolor="#666666"
     borderopacity="1.0"
     inkscape:pageshadow="2"
     inkscape:pageopacity="0.0"
     inkscape:pagecheckerboard="0"
     showgrid="false"
     inkscape:zoom="10.671875"
     inkscape:cx="33.686676"
     inkscape:cy="34.248902"
     inkscape:window-width="945"
     inkscape:window-height="1026"
     inkscape:window-x="965"
     inkscape:window-y="44"
     inkscape:window-maximized="1"
     inkscape:current-layer="svg19" />
  <linearGradient
     id="a"
     x2="1"
     gradientTransform="matrix(0,-49.619,49.619,0,250.77,51.088)"
     gradientUnits="userSpaceOnUse">
    <stop
       stop-color="#791f57"
       offset="0"
       id="stop2" />
    <stop
       stop-color="#b65174"
       offset="1"
       id="stop4" />
  </linearGradient>
  <path
     id="path7"
     style="fill:url(#linearGradient2792)"
     d="M 17.617188 1.46875 C 15.597188 1.46875 13.659469 2.2712188 12.230469 3.6992188 C 10.802469 5.1282186 10 7.0678906 10 9.0878906 L 10 15.542969 L 10 54.382812 C 10 56.402814 10.802469 58.340531 12.230469 59.769531 C 13.659469 61.197531 15.597187 62 17.617188 62 L 46.382812 62 C 48.402814 62 50.340531 61.197531 51.769531 59.769531 C 53.197531 58.340531 54 56.402814 54 54.382812 L 54 15.542969 L 54 9.0878906 C 54 7.0678906 53.197531 5.1282186 51.769531 3.6992188 C 50.340531 2.2712188 48.402813 1.46875 46.382812 1.46875 L 38.849609 1.46875 L 25.150391 1.46875 L 17.617188 1.46875 z " />
  <path
     id="path914"
     style="clip-rule:evenodd;fill:#650733;fill-opacity:1;fill-rule:evenodd;stroke-width:1;stroke-linejoin:round;stroke-miterlimit:2"
     d="m 9.9999997,50.982422 v 3.40039 c 0,2.020002 0.8024693,3.957719 2.2304693,5.386719 1.429,1.428 3.366717,2.230469 5.386719,2.230469 h 28.765624 c 2.020002,0 3.957719,-0.802469 5.386719,-2.230469 C 53.197531,58.340531 54,56.402814 54,54.382812 v -3.40039 z" />
  <path
     d="M 23.957,19 C 23.427,19 23,19.465 23,20.043 V 35.955 C 23,36.534 23.427,37 23.957,37 H 40.043 C 40.573,37 41,36.534 41,35.955 V 20.043 C 41,19.465 40.573,19 40.043,19 Z M 34.139,25.432 38,30.568 H 26 l 3,-3.849 2.139,2.574 z"
     fill="#650733"
     id="path9"
     style="fill-rule:nonzero" />
  <g
     id="g2802"
     transform="translate(0.08849985,-0.776789)">
    <path
       d="m 28.347,59.005 c -0.421,0 -0.743,-0.112 -0.967,-0.336 -0.219,-0.224 -0.328,-0.541 -0.328,-0.95 v -2.107 h -0.705 v -0.688 h 0.705 v -1.229 h 0.754 v 1.229 h 0.983 v 0.688 h -0.983 v 2.049 c 0,0.437 0.18,0.656 0.541,0.656 0.136,0 0.251,-0.022 0.344,-0.066 l 0.262,0.648 c -0.164,0.071 -0.366,0.106 -0.606,0.106 z"
       fill="#ffffff"
       id="path11"
       style="fill-rule:nonzero" />
    <path
       d="m 31.204,60.841 c -0.475,0 -0.863,-0.12 -1.164,-0.361 -0.3,-0.235 -0.516,-0.505 -0.647,-0.811 l 0.688,-0.287 c 0.077,0.219 0.216,0.402 0.418,0.549 0.208,0.148 0.443,0.222 0.705,0.222 0.415,0 0.74,-0.126 0.975,-0.377 0.241,-0.246 0.361,-0.582 0.361,-1.008 v -0.386 h -0.033 c -0.131,0.197 -0.317,0.361 -0.557,0.492 -0.24,0.131 -0.511,0.197 -0.811,0.197 -0.519,0 -0.968,-0.205 -1.345,-0.615 -0.377,-0.41 -0.565,-0.918 -0.565,-1.524 0,-0.607 0.188,-1.115 0.565,-1.525 0.377,-0.409 0.826,-0.614 1.345,-0.614 0.3,0 0.571,0.065 0.811,0.196 0.24,0.132 0.426,0.295 0.557,0.492 h 0.033 v -0.557 h 0.721 v 3.811 c 0,0.688 -0.199,1.21 -0.598,1.565 -0.399,0.361 -0.885,0.541 -1.459,0.541 z m 0.057,-2.459 c 0.356,0 0.656,-0.131 0.902,-0.393 0.251,-0.262 0.377,-0.615 0.377,-1.057 0,-0.443 -0.126,-0.795 -0.377,-1.057 -0.246,-0.263 -0.546,-0.394 -0.902,-0.394 -0.349,0 -0.65,0.134 -0.901,0.402 -0.251,0.262 -0.377,0.612 -0.377,1.049 0,0.437 0.126,0.789 0.377,1.057 0.251,0.262 0.552,0.393 0.901,0.393 z"
       fill="#ffffff"
       id="path13"
       style="fill-rule:nonzero" />
    <path
       d="m 35.403,59.071 c -0.426,0 -0.784,-0.123 -1.074,-0.369 -0.284,-0.246 -0.426,-0.571 -0.426,-0.975 0,-0.437 0.169,-0.779 0.508,-1.025 0.339,-0.251 0.757,-0.377 1.254,-0.377 0.443,0 0.806,0.082 1.09,0.246 v -0.115 c 0,-0.295 -0.101,-0.53 -0.303,-0.704 -0.202,-0.181 -0.451,-0.271 -0.746,-0.271 -0.219,0 -0.418,0.052 -0.598,0.156 -0.175,0.104 -0.295,0.246 -0.361,0.426 l -0.688,-0.295 c 0.093,-0.24 0.276,-0.462 0.549,-0.664 0.273,-0.207 0.634,-0.311 1.082,-0.311 0.513,0 0.939,0.15 1.278,0.45 0.339,0.301 0.508,0.724 0.508,1.271 v 2.426 h -0.721 v -0.558 h -0.033 c -0.3,0.459 -0.74,0.689 -1.319,0.689 z m 0.123,-0.689 c 0.311,0 0.593,-0.114 0.844,-0.344 0.257,-0.235 0.385,-0.511 0.385,-0.828 -0.213,-0.174 -0.533,-0.262 -0.959,-0.262 -0.366,0 -0.642,0.079 -0.828,0.238 -0.185,0.158 -0.278,0.344 -0.278,0.557 0,0.197 0.084,0.353 0.254,0.467 0.169,0.115 0.363,0.172 0.582,0.172 z"
       fill="#ffffff"
       id="path15"
       style="fill-rule:nonzero" />
  </g>
</svg>
