<?xml version="1.0" encoding="UTF-8" standalone="no"?>
<svg
   style="clip-rule:evenodd;fill-rule:evenodd;stroke-linejoin:round;stroke-miterlimit:2"
   viewBox="0 0 64 64"
   version="1.1"
   id="svg21"
   sodipodi:docname="application-image-jpg.svg"
   inkscape:version="1.1.2 (0a00cf5339, 2022-02-04)"
   xmlns:inkscape="http://www.inkscape.org/namespaces/inkscape"
   xmlns:sodipodi="http://sodipodi.sourceforge.net/DTD/sodipodi-0.dtd"
   xmlns:xlink="http://www.w3.org/1999/xlink"
   xmlns="http://www.w3.org/2000/svg"
   xmlns:svg="http://www.w3.org/2000/svg">
  <sodipodi:namedview
     id="namedview23"
     pagecolor="#ffffff"
     bordercolor="#666666"
     borderopacity="1.0"
     inkscape:pageshadow="2"
     inkscape:pageopacity="0.0"
     inkscape:pagecheckerboard="0"
     showgrid="false"
     inkscape:zoom="10.671875"
     inkscape:cx="32.937042"
     inkscape:cy="33.686676"
     inkscape:window-width="945"
     inkscape:window-height="1026"
     inkscape:window-x="965"
     inkscape:window-y="44"
     inkscape:window-maximized="1"
     inkscape:current-layer="svg21" />
  <path
     id="path2"
     style="fill:url(#linearGradient3260)"
     d="M 17.617188 1.46875 C 15.597188 1.46875 13.659469 2.2712188 12.230469 3.6992188 C 10.802469 5.1282186 10 7.0678906 10 9.0878906 L 10 14.109375 L 10 54.382812 C 10 56.402814 10.802469 58.340531 12.230469 59.769531 C 13.659469 61.197531 15.597187 62 17.617188 62 L 46.382812 62 C 48.402814 62 50.340531 61.197531 51.769531 59.769531 C 53.197531 58.340531 54 56.402814 54 54.382812 L 54 14.109375 L 54 9.0878906 C 54 7.0678906 53.197531 5.1282186 51.769531 3.6992188 C 50.340531 2.2712188 48.402813 1.46875 46.382812 1.46875 L 38.804688 1.46875 L 25.195312 1.46875 L 17.617188 1.46875 z " />
  <path
     id="path914"
     style="clip-rule:evenodd;fill:#4e3114;fill-opacity:1;fill-rule:evenodd;stroke-width:1;stroke-linejoin:round;stroke-miterlimit:2"
     d="m 9.9999998,50.982422 v 3.40039 c 0,2.020002 0.8024692,3.957719 2.2304692,5.386719 1.429,1.428 3.366717,2.230469 5.386719,2.230469 h 28.765624 c 2.020002,0 3.957719,-0.802469 5.386719,-2.230469 C 53.197531,58.340531 54,56.402814 54,54.382812 v -3.40039 z" />
  <path
     d="m23.957 19c-0.53 0-0.957 0.465-0.957 1.043v15.912c0 0.579 0.427 1.045 0.957 1.045h16.086c0.53 0 0.957-0.466 0.957-1.045v-15.912c0-0.578-0.427-1.043-0.957-1.043h-16.086zm10.182 6.432l3.861 5.136h-12l3-3.849 2.139 2.574 3-3.861z"
     style="fill-rule:nonzero;fill:#4e3114"
     id="path4" />
  <path
     d="m26.129 53.416c-0.104 0.104-0.229 0.156-0.377 0.156-0.147 0-0.273-0.052-0.377-0.156s-0.155-0.23-0.155-0.377c0-0.148 0.051-0.273 0.155-0.377s0.23-0.156 0.377-0.156c0.148 0 0.273 0.052 0.377 0.156s0.156 0.229 0.156 0.377c0 0.147-0.052 0.273-0.156 0.377zm-1.204 6.876c-0.148 0-0.295-0.027-0.443-0.082l0.197-0.656c0.071 0.033 0.144 0.049 0.221 0.049 0.317 0 0.475-0.207 0.475-0.622v-4.557h0.754v4.557c0 0.442-0.106 0.77-0.319 0.983-0.213 0.219-0.508 0.328-0.885 0.328z"
     style="fill-rule:nonzero;fill:#fff"
     id="path6" />
  <path
     d="m29.208 58.571c-0.306 0-0.582-0.066-0.827-0.197-0.241-0.131-0.421-0.295-0.541-0.492h-0.033l0.033 0.558v1.77h-0.754v-5.786h0.721v0.557h0.033c0.12-0.197 0.3-0.36 0.541-0.492 0.245-0.131 0.521-0.196 0.827-0.196 0.519 0 0.967 0.205 1.344 0.614 0.377 0.41 0.566 0.918 0.566 1.525 0 0.606-0.189 1.114-0.566 1.524s-0.825 0.615-1.344 0.615zm-0.123-0.689c0.35 0 0.651-0.131 0.902-0.393 0.251-0.268 0.377-0.62 0.377-1.057s-0.126-0.787-0.377-1.049c-0.251-0.268-0.552-0.402-0.902-0.402-0.355 0-0.658 0.131-0.909 0.394-0.246 0.262-0.369 0.614-0.369 1.057 0 0.442 0.123 0.795 0.369 1.057 0.251 0.262 0.554 0.393 0.909 0.393z"
     style="fill-rule:nonzero;fill:#fff"
     id="path8" />
  <path
     d="m33.628 58.571c-0.607 0-1.101-0.202-1.483-0.607-0.377-0.404-0.566-0.915-0.566-1.532 0-0.585 0.183-1.088 0.549-1.508 0.372-0.421 0.844-0.631 1.418-0.631 0.596 0 1.071 0.194 1.426 0.582 0.361 0.388 0.541 0.907 0.541 1.557l-8e-3 0.139h-3.172c0.022 0.404 0.156 0.724 0.402 0.959 0.251 0.235 0.543 0.352 0.877 0.352 0.54 0 0.906-0.229 1.098-0.688l0.672 0.279c-0.131 0.311-0.347 0.573-0.648 0.786-0.3 0.208-0.669 0.312-1.106 0.312zm1.082-2.623c-0.017-0.229-0.123-0.448-0.32-0.655-0.191-0.208-0.478-0.312-0.86-0.312-0.279 0-0.522 0.088-0.73 0.262-0.202 0.175-0.341 0.41-0.418 0.705h2.328z"
     style="fill-rule:nonzero;fill:#fff"
     id="path10" />
  <path
     d="m37.988 60.341c-0.475 0-0.863-0.12-1.164-0.361-0.3-0.235-0.516-0.505-0.647-0.811l0.688-0.287c0.077 0.219 0.216 0.402 0.418 0.549 0.208 0.148 0.443 0.222 0.705 0.222 0.415 0 0.74-0.126 0.975-0.377 0.241-0.246 0.361-0.582 0.361-1.008v-0.386h-0.033c-0.131 0.197-0.317 0.361-0.557 0.492-0.241 0.131-0.511 0.197-0.812 0.197-0.519 0-0.967-0.205-1.344-0.615s-0.565-0.918-0.565-1.524c0-0.607 0.188-1.115 0.565-1.525 0.377-0.409 0.825-0.614 1.344-0.614 0.301 0 0.571 0.065 0.812 0.196 0.24 0.132 0.426 0.295 0.557 0.492h0.033v-0.557h0.721v3.811c0 0.688-0.199 1.21-0.598 1.565-0.399 0.361-0.885 0.541-1.459 0.541zm0.057-2.459c0.356 0 0.656-0.131 0.902-0.393 0.251-0.262 0.377-0.615 0.377-1.057 0-0.443-0.126-0.795-0.377-1.057-0.246-0.263-0.546-0.394-0.902-0.394-0.349 0-0.65 0.134-0.901 0.402-0.251 0.262-0.377 0.612-0.377 1.049s0.126 0.789 0.377 1.057c0.251 0.262 0.552 0.393 0.901 0.393z"
     style="fill-rule:nonzero;fill:#fff"
     id="path12" />
  <defs
     id="defs19">
    <linearGradient
       id="_Linear1"
       x2="1"
       gradientTransform="matrix(0,-49.619,49.619,0,250.77,51.088)"
       gradientUnits="userSpaceOnUse">
      <stop
         style="stop-color:#a06c45"
         offset="0"
         id="stop14" />
      <stop
         style="stop-color:#b8a05b"
         offset="1"
         id="stop16" />
    </linearGradient>
    <linearGradient
       inkscape:collect="always"
       xlink:href="#_Linear1"
       id="linearGradient3260"
       gradientUnits="userSpaceOnUse"
       gradientTransform="matrix(0,-49.619,49.619,0,250.77,51.088)"
       x2="1" />
  </defs>
</svg>
