<?xml version="1.0" encoding="UTF-8" standalone="no"?>
<svg
   style="clip-rule:evenodd;fill-rule:evenodd;stroke-linejoin:round;stroke-miterlimit:2"
   viewBox="0 0 64 64"
   version="1.1"
   id="svg15"
   sodipodi:docname="application-ascii.svg"
   inkscape:version="1.1.2 (0a00cf5339, 2022-02-04)"
   xmlns:inkscape="http://www.inkscape.org/namespaces/inkscape"
   xmlns:sodipodi="http://sodipodi.sourceforge.net/DTD/sodipodi-0.dtd"
   xmlns:xlink="http://www.w3.org/1999/xlink"
   xmlns="http://www.w3.org/2000/svg"
   xmlns:svg="http://www.w3.org/2000/svg">
  <sodipodi:namedview
     id="namedview17"
     pagecolor="#ffffff"
     bordercolor="#666666"
     borderopacity="1.0"
     inkscape:pageshadow="2"
     inkscape:pageopacity="0.0"
     inkscape:pagecheckerboard="0"
     showgrid="false"
     inkscape:zoom="10.671875"
     inkscape:cx="17.803807"
     inkscape:cy="35.373353"
     inkscape:window-width="945"
     inkscape:window-height="1026"
     inkscape:window-x="965"
     inkscape:window-y="44"
     inkscape:window-maximized="1"
     inkscape:current-layer="svg15" />
  <path
     id="path2"
     style="fill:url(#linearGradient5438)"
     d="M 17.617188 1.46875 C 15.597188 1.46875 13.659469 2.2712188 12.230469 3.6992188 C 10.802469 5.1282186 10 7.0678906 10 9.0878906 L 10 13.005859 L 10 54.382812 C 10 56.402814 10.802469 58.340531 12.230469 59.769531 C 13.659469 61.197531 15.597187 62 17.617188 62 L 46.382812 62 C 48.402814 62 50.340531 61.197531 51.769531 59.769531 C 53.197531 58.340531 54 56.402814 54 54.382812 L 54 13.005859 L 54 9.0878906 C 54 7.0678906 53.197531 5.1282186 51.769531 3.6992188 C 50.340531 2.2712188 48.402813 1.46875 46.382812 1.46875 L 33.632812 1.46875 L 30.367188 1.46875 L 17.617188 1.46875 z " />
  <path
     id="path2-3"
     style="clip-rule:evenodd;fill:#464d55;fill-opacity:1;fill-rule:evenodd;stroke-linejoin:round;stroke-miterlimit:2"
     d="m 10,50.982422 v 3.398437 0.002 c 6.5e-5,0.251841 0.01244,0.501552 0.03711,0.75 v 0.002 c 0.02473,0.248442 0.06268,0.494885 0.111329,0.738281 v 0.002 c 0.04871,0.243391 0.109702,0.484016 0.18164,0.720703 v 0.002 c 0.072,0.236684 0.155456,0.468944 0.25,0.697266 v 0.002 c 0.09461,0.228323 0.199937,0.453573 0.316406,0.671875 v 0.002 c 0.116532,0.218305 0.245101,0.430096 0.382813,0.636719 v 0.002 c 0.137776,0.206628 0.287038,0.406326 0.445312,0.599609 v 0.002 c 0.158341,0.193289 0.327703,0.378358 0.50586,0.55664 v 0.002 c 0.7145,0.714 1.557101,1.271274 2.472656,1.650391 C 15.618679,61.799106 16.607187,62 17.617188,62 h 28.765624 c 1.010002,0 1.998509,-0.200473 2.914063,-0.580078 0.915555,-0.379117 1.758156,-0.936391 2.472656,-1.650391 v -0.002 C 53.197531,58.338626 54,56.400859 54,54.380859 v -3.398437 z" />
  <path
     d="m 25.358,59.844211 c -0.471,0 -0.867,-0.136 -1.187,-0.408 -0.314,-0.272 -0.471,-0.631 -0.471,-1.078 0,-0.483 0.187,-0.861 0.562,-1.133 0.374,-0.278 0.837,-0.417 1.386,-0.417 0.49,0 0.891,0.091 1.206,0.272 v -0.127 c 0,-0.326 -0.112,-0.586 -0.336,-0.779 -0.223,-0.199 -0.498,-0.299 -0.824,-0.299 -0.242,0 -0.463,0.057 -0.662,0.172 -0.193,0.115 -0.326,0.272 -0.399,0.471 l -0.761,-0.326 c 0.103,-0.266 0.305,-0.51 0.607,-0.734 0.302,-0.23 0.701,-0.344 1.197,-0.344 0.567,0 1.039,0.166 1.413,0.498 0.375,0.332 0.562,0.801 0.562,1.405 v 2.682 h -0.797 v -0.616 h -0.037 c -0.332,0.507 -0.818,0.761 -1.459,0.761 z m 4.829,0 c -0.495,0 -0.906,-0.121 -1.232,-0.362 -0.32,-0.242 -0.556,-0.544 -0.707,-0.907 l 0.743,-0.308 c 0.236,0.556 0.637,0.834 1.205,0.834 0.26,0 0.471,-0.057 0.635,-0.172 0.169,-0.115 0.253,-0.266 0.253,-0.453 0,-0.29 -0.202,-0.487 -0.607,-0.589 l -0.897,-0.218 c -0.284,-0.072 -0.553,-0.208 -0.807,-0.408 -0.253,-0.205 -0.38,-0.48 -0.38,-0.824 0,-0.393 0.172,-0.71 0.516,-0.952 0.351,-0.248 0.765,-0.371 1.242,-0.371 0.393,0 0.743,0.09 1.051,0.271 0.308,0.176 0.529,0.429 0.662,0.762 l -0.725,0.299 c -0.163,-0.393 -0.502,-0.589 -1.015,-0.589 -0.248,0 -0.456,0.051 -0.626,0.154 -0.169,0.102 -0.253,0.241 -0.253,0.417 0,0.253 0.196,0.426 0.589,0.516 l 0.879,0.209 c 0.417,0.096 0.725,0.262 0.924,0.498 0.199,0.236 0.299,0.501 0.299,0.797 0,0.399 -0.163,0.731 -0.489,0.997 -0.326,0.266 -0.746,0.399 -1.26,0.399 z m 4.558,0 c -0.665,0 -1.212,-0.224 -1.64,-0.671 -0.429,-0.453 -0.644,-1.018 -0.644,-1.694 0,-0.677 0.215,-1.239 0.644,-1.686 0.428,-0.453 0.975,-0.679 1.64,-0.679 0.495,0 0.906,0.12 1.232,0.362 0.326,0.242 0.565,0.547 0.716,0.915 l -0.761,0.318 c -0.23,-0.556 -0.644,-0.834 -1.242,-0.834 -0.368,0 -0.694,0.151 -0.978,0.453 -0.278,0.302 -0.417,0.686 -0.417,1.151 0,0.465 0.139,0.849 0.417,1.151 0.284,0.302 0.61,0.453 0.978,0.453 0.623,0 1.052,-0.278 1.287,-0.834 l 0.743,0.317 c -0.151,0.363 -0.395,0.668 -0.734,0.916 -0.332,0.241 -0.746,0.362 -1.241,0.362 z m 3.602,-0.145 h -0.834 v -4.44 h 0.834 z m 2,0 h -0.834 v -4.44 h 0.834 z m -14.853,-0.616 c 0.345,0 0.656,-0.127 0.934,-0.381 0.284,-0.26 0.426,-0.565 0.426,-0.915 -0.236,-0.193 -0.589,-0.29 -1.061,-0.29 -0.404,0 -0.71,0.088 -0.915,0.263 -0.205,0.175 -0.308,0.38 -0.308,0.616 0,0.217 0.094,0.39 0.281,0.516 0.187,0.127 0.402,0.191 0.643,0.191 z m 12.853,-4.939 c -0.115,0.115 -0.254,0.172 -0.417,0.172 -0.163,0 -0.302,-0.057 -0.417,-0.172 -0.115,-0.115 -0.172,-0.254 -0.172,-0.417 0,-0.163 0.057,-0.302 0.172,-0.417 0.115,-0.115 0.254,-0.172 0.417,-0.172 0.163,0 0.302,0.057 0.417,0.172 0.115,0.115 0.172,0.254 0.172,0.417 0,0.163 -0.057,0.302 -0.172,0.417 z m 2,0 c -0.115,0.115 -0.254,0.172 -0.417,0.172 -0.163,0 -0.302,-0.057 -0.417,-0.172 -0.115,-0.115 -0.172,-0.254 -0.172,-0.417 0,-0.163 0.057,-0.302 0.172,-0.417 0.115,-0.115 0.254,-0.172 0.417,-0.172 0.163,0 0.302,0.057 0.417,0.172 0.115,0.115 0.172,0.254 0.172,0.417 0,0.163 -0.057,0.302 -0.172,0.417 z"
     style="fill:#ffffff;fill-rule:nonzero"
     id="path4" />
  <path
     d="m38.6 29.2h-2.2v-4.4h2.2c2.43 0 4.4-1.97 4.4-4.4s-1.97-4.4-4.4-4.4-4.4 1.97-4.4 4.4v2.2h-4.4v-2.2c0-2.43-1.97-4.4-4.4-4.4s-4.4 1.97-4.4 4.4 1.97 4.4 4.4 4.4h2.2v4.4h-2.2c-2.43 0-4.4 1.97-4.4 4.4s1.97 4.4 4.4 4.4 4.4-1.97 4.4-4.4v-2.2h4.4v2.2c0 2.43 1.97 4.4 4.4 4.4s4.4-1.97 4.4-4.4-1.97-4.399-4.4-4.4zm0-11c1.215 0 2.2 0.985 2.2 2.2s-0.985 2.2-2.2 2.2h-2.2v-2.2c0-1.215 0.985-2.2 2.2-2.2zm-15.4 2.2c0-1.215 0.985-2.2 2.2-2.2s2.2 0.985 2.2 2.2v2.2h-2.2c-1.215 0-2.2-0.985-2.2-2.2zm2.2 15.4c-1.215 0-2.2-0.985-2.2-2.2s0.985-2.2 2.2-2.2h2.2v2.2c0 1.215-0.985 2.2-2.2 2.2zm4.4-6.6v-4.4h4.4v4.4h-4.4zm8.8 6.6c-1.215 0-2.2-0.985-2.2-2.2v-2.2h2.2c1.215 0 2.2 0.985 2.2 2.2s-0.985 2.2-2.2 2.2z"
     style="fill-rule:nonzero;fill:#464d55"
     id="path6" />
  <defs
     id="defs13">
    <linearGradient
       id="_Linear1"
       x2="1"
       gradientTransform="matrix(0,-49.619,49.619,0,104.99,51.088)"
       gradientUnits="userSpaceOnUse">
      <stop
         style="stop-color:#758b9a"
         offset="0"
         id="stop8" />
      <stop
         style="stop-color:#b5bdc2"
         offset="1"
         id="stop10" />
    </linearGradient>
    <linearGradient
       inkscape:collect="always"
       xlink:href="#_Linear1"
       id="linearGradient5438"
       gradientUnits="userSpaceOnUse"
       gradientTransform="matrix(0,-49.619,49.619,0,104.99,51.088)"
       x2="1" />
  </defs>
</svg>
