<?xml version="1.0" encoding="UTF-8" standalone="no"?>
<svg
   style="clip-rule:evenodd;fill-rule:evenodd;stroke-linejoin:round;stroke-miterlimit:2"
   viewBox="0 0 64 64"
   version="1.1"
   id="svg13"
   sodipodi:docname="pgmodeler-dbm.svg"
   inkscape:version="1.1.2 (0a00cf5339, 2022-02-04)"
   xmlns:inkscape="http://www.inkscape.org/namespaces/inkscape"
   xmlns:sodipodi="http://sodipodi.sourceforge.net/DTD/sodipodi-0.dtd"
   xmlns:xlink="http://www.w3.org/1999/xlink"
   xmlns="http://www.w3.org/2000/svg"
   xmlns:svg="http://www.w3.org/2000/svg">
  <sodipodi:namedview
     id="namedview15"
     pagecolor="#ffffff"
     bordercolor="#666666"
     borderopacity="1.0"
     inkscape:pageshadow="2"
     inkscape:pageopacity="0.0"
     inkscape:pagecheckerboard="0"
     showgrid="false"
     inkscape:zoom="10.65625"
     inkscape:cx="32"
     inkscape:cy="32"
     inkscape:window-width="1896"
     inkscape:window-height="1022"
     inkscape:window-x="12"
     inkscape:window-y="46"
     inkscape:window-maximized="1"
     inkscape:current-layer="svg13" />
  <path
     id="path2"
     style="fill:url(#linearGradient949)"
     d="M 17.617188 1.46875 C 15.597188 1.46875 13.659469 2.2712188 12.230469 3.6992188 C 10.802469 5.1282186 10 7.0678906 10 9.0878906 L 10 13.589844 L 10 54.382812 C 10 56.402814 10.802469 58.340531 12.230469 59.769531 C 13.659469 61.197531 15.597187 62 17.617188 62 L 46.382812 62 C 48.402814 62 50.340531 61.197531 51.769531 59.769531 C 53.197531 58.340531 54 56.402814 54 54.382812 L 54 13.589844 L 54 9.0878906 C 54 7.0678906 53.197531 5.1282186 51.769531 3.6992188 C 50.340531 2.2712188 48.402813 1.46875 46.382812 1.46875 L 43.785156 1.46875 L 20.214844 1.46875 L 17.617188 1.46875 z " />
  <path
     d="m 29.765,13.977814 c -0.62,-0.018 -1.233,-0.013 -1.832,0.02 -0.8,0.043 -1.578,0.132 -2.305,0.265 -1.416,0.463 -2.595,1.07 -3.406,2.543 -0.873,1.398 -1.18,2.787 -1.207,4.168 -0.021,1.076 -0.216,3.578 1.847,6.365 0.757,0.897 1.873,1.848 3.207,2.387 3.111,0.951 4.078,-1.15 5.653,-4.25 -0.378,1.65 -0.558,3.349 -1.856,4.765 1.052,1.649 2.781,3.102 4.414,4.554 0.326,0.293 0.84,0.457 0.364,1.203 -0.693,1.155 -1.142,1.895 -1.881,2.812 -0.485,0.652 -0.797,1.101 -0.957,1.617 -0.148,1.144 -0.045,2.15 0.562,3.246 0.281,0.591 0.625,1.149 1.102,1.692 0.495,0.603 0.819,0.752 1.64,0.453 0.69,-0.245 1.185,-0.55 1.731,-1.105 0.242,-0.404 0.302,-1.285 -0.395,-1.653 -0.253,-0.163 -0.524,-0.336 -0.695,-0.523 -0.302,-0.33 -0.602,-0.648 -0.641,-1.156 -0.026,-0.34 0.457,-0.911 0.457,-0.911 1.816,-1.66 3.673,-3.283 4.604,-4.328 2.045,-2.35 3.045,-6.243 2.789,-9.996 0.051,-2.829 -1.143,-5.957 -3.129,-8.383 -1.234,-1.39 -2.602,-2.424 -4.578,-2.922 -1.718,-0.523 -3.629,-0.807 -5.488,-0.863 z m 7.734,9.988 c 0.829,0 1.5,0.672 1.5,1.5 0,0.829 -0.671,1.5 -1.5,1.5 -0.828,0 -1.5,-0.671 -1.5,-1.5 0,-0.828 0.672,-1.5 1.5,-1.5 z m -0.965,6.446 c 0.145,0.016 0.29,0.138 0.547,0.343 l 4.078,3.09 c -0.557,-0.014 -1.291,0.171 -2.101,0.106 -1.762,-0.142 -3.864,-0.593 -4.035,-1.176 -0.097,-0.809 0.089,-1.441 0.953,-2.082 0.266,-0.21 0.413,-0.297 0.558,-0.281 z"
     style="fill:#ffffff;fill-opacity:0.6;fill-rule:nonzero"
     id="path4" />
  <defs
     id="defs11">
    <linearGradient
       id="_Linear1"
       x2="1"
       gradientTransform="matrix(0,-49.619,49.619,0,615.22,51.088)"
       gradientUnits="userSpaceOnUse">
      <stop
         style="stop-color:#00879d"
         offset="0"
         id="stop6" />
      <stop
         style="stop-color:#00a6c1"
         offset="1"
         id="stop8" />
    </linearGradient>
    <linearGradient
       inkscape:collect="always"
       xlink:href="#_Linear1"
       id="linearGradient949"
       gradientUnits="userSpaceOnUse"
       gradientTransform="matrix(0,-49.619,49.619,0,615.22,51.088)"
       x2="1" />
  </defs>
  <path
     id="path2-3"
     style="clip-rule:evenodd;fill:#00707e;fill-opacity:1;fill-rule:evenodd;stroke-linecap:round;stroke-linejoin:round;stroke-miterlimit:2"
     d="m 10.000002,50.982422 v 3.398437 0.002 c 6.5e-5,0.251841 0.01244,0.501552 0.03711,0.75 v 0.002 c 0.02473,0.248442 0.06268,0.494885 0.111329,0.738281 v 0.002 c 0.04871,0.243391 0.109702,0.484016 0.18164,0.720703 v 0.002 c 0.072,0.236684 0.155456,0.468944 0.25,0.697266 v 0.002 c 0.09461,0.228323 0.199936,0.453573 0.316406,0.671875 v 0.002 c 0.116531,0.218305 0.245101,0.430096 0.382813,0.636719 v 0.002 c 0.137776,0.206628 0.287038,0.406326 0.445312,0.599609 v 0.002 c 0.158341,0.193289 0.327702,0.378358 0.50586,0.55664 v 0.002 c 0.714499,0.714 1.5571,1.271274 2.472656,1.650391 C 15.618681,61.799106 16.607188,62 17.617188,62 h 28.765625 c 1.010002,0 1.998508,-0.200473 2.914062,-0.580078 0.915555,-0.379117 1.758156,-0.936391 2.472656,-1.650391 v -0.002 C 53.197531,58.338626 54,56.400859 54,54.380859 v -3.398437 z" />
</svg>
