<?xml version="1.0" encoding="UTF-8" standalone="no"?>
<svg
   style="clip-rule:evenodd;fill-rule:evenodd;stroke-linejoin:round;stroke-miterlimit:2"
   viewBox="0 0 64 64"
   version="1.1"
   id="svg24"
   sodipodi:docname="qgis-qpt.svg"
   inkscape:version="1.1.2 (0a00cf5339, 2022-02-04)"
   xmlns:inkscape="http://www.inkscape.org/namespaces/inkscape"
   xmlns:sodipodi="http://sodipodi.sourceforge.net/DTD/sodipodi-0.dtd"
   xmlns:xlink="http://www.w3.org/1999/xlink"
   xmlns="http://www.w3.org/2000/svg"
   xmlns:svg="http://www.w3.org/2000/svg">
  <sodipodi:namedview
     id="namedview26"
     pagecolor="#ffffff"
     bordercolor="#666666"
     borderopacity="1.0"
     inkscape:pageshadow="2"
     inkscape:pageopacity="0.0"
     inkscape:pagecheckerboard="0"
     showgrid="false"
     inkscape:zoom="2.6640625"
     inkscape:cx="-36.785924"
     inkscape:cy="44.293255"
     inkscape:window-width="1896"
     inkscape:window-height="1022"
     inkscape:window-x="12"
     inkscape:window-y="46"
     inkscape:window-maximized="1"
     inkscape:current-layer="svg24" />
  <path
     id="path2"
     style="fill:url(#linearGradient3920)"
     d="M 17.617188 1.46875 C 15.597188 1.46875 13.659469 2.2712188 12.230469 3.6992188 C 10.802469 5.1282186 10 7.0678906 10 9.0878906 L 10 19.736328 L 10 54.382812 C 10 56.402814 10.802469 58.340531 12.230469 59.769531 C 12.309469 59.848531 12.390656 59.925 12.472656 60 L 51.527344 60 C 51.609344 59.925 51.690531 59.848531 51.769531 59.769531 C 53.197531 58.340531 54 56.402814 54 54.382812 L 54 19.736328 L 54 9.0878906 C 54 7.0678906 53.197531 5.1282186 51.769531 3.6992188 C 50.340531 2.2712188 48.402813 1.46875 46.382812 1.46875 L 41.064453 1.46875 L 22.935547 1.46875 L 17.617188 1.46875 z " />
  <path
     d="m53.231 57.716c-0.366 0.754-0.858 1.449-1.462 2.053-1.429 1.428-3.367 2.231-5.387 2.231h-28.764c-2.02 0-3.958-0.803-5.387-2.231-0.604-0.604-1.096-1.299-1.462-2.053l21.231-22.916 21.231 22.916z"
     style="fill:url(#_Linear2)"
     id="path4" />
  <path
     d="m54 12.8v38.4l-19.2-19.2 19.2-19.2z"
     style="fill:#9f9f9f"
     id="path6" />
  <path
     d="m54 48.927v5.455c0 1.252-0.309 2.473-0.884 3.561l-23.593-23.59 4.953-4.953 19.524 19.527z"
     style="fill:#fff"
     id="path8" />
  <path
     id="path10"
     style="fill:#fff"
     d="M 53.246094 5.8027344 L 10 49.005859 L 10 54.382812 C 10 54.67246 10.020228 54.9591 10.052734 55.244141 C 10.063196 55.335912 10.079992 55.42646 10.09375 55.517578 C 10.122938 55.710728 10.159364 55.902172 10.203125 56.091797 C 10.226523 56.193257 10.251801 56.294256 10.279297 56.394531 C 10.329819 56.578602 10.389033 56.759975 10.453125 56.939453 C 10.485899 57.031289 10.514518 57.124357 10.550781 57.214844 C 10.656239 57.477802 10.772008 57.736502 10.90625 57.986328 L 54 14.765625 L 54 9.0878906 C 54 7.9391641 53.732579 6.820363 53.246094 5.8027344 z " />
  <defs
     id="defs22">
    <linearGradient
       id="_Linear1"
       x2="1"
       gradientTransform="matrix(0,-58.531,58.531,0,29.5228,60)"
       gradientUnits="userSpaceOnUse">
      <stop
         style="stop-color:#9d9d9d"
         offset="0"
         id="stop12" />
      <stop
         style="stop-color:#e4e4e4"
         offset="1"
         id="stop14" />
    </linearGradient>
    <linearGradient
       id="_Linear2"
       x2="1"
       gradientTransform="matrix(-1.29397e-5 -25.1699 25.1699 -1.29397e-5 32 62)"
       gradientUnits="userSpaceOnUse">
      <stop
         style="stop-color:#404040"
         offset="0"
         id="stop17" />
      <stop
         style="stop-color:#707070"
         offset="1"
         id="stop19" />
    </linearGradient>
    <linearGradient
       inkscape:collect="always"
       xlink:href="#_Linear1"
       id="linearGradient3920"
       gradientUnits="userSpaceOnUse"
       gradientTransform="matrix(0,-58.531,58.531,0,29.5228,60)"
       x2="1" />
  </defs>
  <path
     id="path2-3"
     style="clip-rule:evenodd;fill:#363636;fill-opacity:1;fill-rule:evenodd;stroke-linecap:round;stroke-linejoin:round;stroke-miterlimit:2"
     d="m 10.000002,50.982422 v 3.398437 0.002 c 6.5e-5,0.251841 0.01244,0.501552 0.03711,0.75 v 0.002 c 0.02473,0.248442 0.06268,0.494885 0.111329,0.738281 v 0.002 c 0.04871,0.243391 0.109702,0.484016 0.18164,0.720703 v 0.002 c 0.072,0.236684 0.155456,0.468944 0.25,0.697266 v 0.002 c 0.09461,0.228323 0.199936,0.453573 0.316406,0.671875 v 0.002 c 0.116531,0.218305 0.245101,0.430096 0.382813,0.636719 v 0.002 c 0.137776,0.206628 0.287038,0.406326 0.445312,0.599609 v 0.002 c 0.158341,0.193289 0.327702,0.378358 0.50586,0.55664 v 0.002 c 0.714499,0.714 1.5571,1.271274 2.472656,1.650391 C 15.618681,61.799106 16.607188,62 17.617188,62 h 28.765625 c 1.010002,0 1.998508,-0.200473 2.914062,-0.580078 0.915555,-0.379117 1.758156,-0.936391 2.472656,-1.650391 v -0.002 C 53.197531,58.338626 54,56.400859 54,54.380859 v -3.398437 z" />
</svg>
