<?xml version="1.0" encoding="UTF-8" standalone="no"?>
<svg
   style="clip-rule:evenodd;fill-rule:evenodd;stroke-linecap:round;stroke-linejoin:round;stroke-miterlimit:1.5"
   viewBox="0 0 64 64"
   version="1.1"
   id="svg21"
   sodipodi:docname="radio.svg"
   inkscape:version="1.1.2 (0a00cf5339, 2022-02-04)"
   xmlns:inkscape="http://www.inkscape.org/namespaces/inkscape"
   xmlns:sodipodi="http://sodipodi.sourceforge.net/DTD/sodipodi-0.dtd"
   xmlns:xlink="http://www.w3.org/1999/xlink"
   xmlns="http://www.w3.org/2000/svg"
   xmlns:svg="http://www.w3.org/2000/svg">
  <sodipodi:namedview
     id="namedview23"
     pagecolor="#ffffff"
     bordercolor="#666666"
     borderopacity="1.0"
     inkscape:pageshadow="2"
     inkscape:pageopacity="0.0"
     inkscape:pagecheckerboard="0"
     showgrid="false"
     inkscape:zoom="10.65625"
     inkscape:cx="32"
     inkscape:cy="32"
     inkscape:window-width="1896"
     inkscape:window-height="1022"
     inkscape:window-x="12"
     inkscape:window-y="46"
     inkscape:window-maximized="1"
     inkscape:current-layer="svg21" />
  <path
     id="path2"
     style="fill:url(#linearGradient3572)"
     d="M 17.617188 1.46875 C 15.597188 1.46875 13.659469 2.2712188 12.230469 3.6992188 C 10.802469 5.1282186 10 7.0678906 10 9.0878906 L 10 12.316406 L 10 54.382812 C 10 56.402814 10.802469 58.340531 12.230469 59.769531 C 13.659469 61.197531 15.597187 62 17.617188 62 L 46.382812 62 C 48.402814 62 50.340531 61.197531 51.769531 59.769531 C 53.197531 58.340531 54 56.402814 54 54.382812 L 54 12.316406 L 54 9.0878906 C 54 7.0678906 53.197531 5.1282186 51.769531 3.6992188 C 50.340531 2.2712188 48.402813 1.46875 46.382812 1.46875 L 38.664062 1.46875 L 25.335938 1.46875 L 17.617188 1.46875 z " />
  <path
     id="path2-3"
     style="clip-rule:evenodd;fill:#6f350c;fill-opacity:1;fill-rule:evenodd;stroke-linecap:round;stroke-linejoin:round;stroke-miterlimit:2"
     d="m 10.000002,50.982422 v 3.398437 0.002 c 6.5e-5,0.251841 0.01244,0.501552 0.03711,0.75 v 0.002 c 0.02473,0.248442 0.06268,0.494885 0.111329,0.738281 v 0.002 c 0.04871,0.243391 0.109702,0.484016 0.18164,0.720703 v 0.002 c 0.072,0.236684 0.155456,0.468944 0.25,0.697266 v 0.002 c 0.09461,0.228323 0.199936,0.453573 0.316406,0.671875 v 0.002 c 0.116531,0.218305 0.245101,0.430096 0.382813,0.636719 v 0.002 c 0.137776,0.206628 0.287038,0.406326 0.445312,0.599609 v 0.002 c 0.158341,0.193289 0.327702,0.378358 0.50586,0.55664 v 0.002 c 0.714499,0.714 1.5571,1.271274 2.472656,1.650391 C 15.618681,61.799106 16.607188,62 17.617188,62 h 28.765625 c 1.010002,0 1.998508,-0.200473 2.914062,-0.580078 0.915555,-0.379117 1.758156,-0.936391 2.472656,-1.650391 v -0.002 C 53.197531,58.338626 54,56.400859 54,54.380859 v -3.398437 z" />
  <path
     d="m43.156 26.914c0-1.885-1.531-3.415-3.416-3.415h-12.622c-1.885 0-3.416 1.53-3.416 3.415v6.832c0 1.886 1.531 3.416 3.416 3.416h12.622c1.885 0 3.416-1.53 3.416-3.416v-6.832z"
     style="fill:none;stroke-width:2.56px;stroke:#6f350c"
     id="path4" />
  <path
     d="m37.686 14.708v8.791"
     style="fill:none;stroke-width:2.56px;stroke:#6f350c"
     id="path6" />
  <path
     d="m37.824 30.33h-8.79"
     style="fill:none;stroke-width:2.56px;stroke:#6f350c"
     id="path8" />
  <circle
     cx="37.686"
     cy="12.402"
     r="2.608"
     style="fill:#6f350c"
     id="circle10" />
  <path
     d="m29.615 59.071h-0.784c-0.078-0.156-0.128-0.338-0.151-0.547-0.278 0.237-0.546 0.404-0.803 0.501s-0.533 0.146-0.828 0.146c-0.487 0-0.861-0.119-1.123-0.357-0.261-0.238-0.392-0.542-0.392-0.912 0-0.217 0.049-0.415 0.148-0.594 0.099-0.18 0.228-0.324 0.388-0.432 0.16-0.109 0.34-0.191 0.541-0.246 0.147-0.039 0.37-0.077 0.667-0.113 0.607-0.072 1.053-0.159 1.34-0.259 3e-3 -0.103 4e-3 -0.168 4e-3 -0.196 0-0.306-0.071-0.522-0.213-0.647-0.192-0.169-0.477-0.254-0.855-0.254-0.354 0-0.614 0.062-0.783 0.185-0.168 0.124-0.293 0.343-0.373 0.658l-0.735-0.1c0.067-0.315 0.177-0.569 0.33-0.762s0.374-0.342 0.664-0.447c0.289-0.104 0.624-0.156 1.005-0.156 0.379 0 0.686 0.044 0.922 0.134 0.237 0.089 0.411 0.201 0.522 0.335 0.111 0.135 0.189 0.306 0.234 0.512 0.025 0.128 0.037 0.358 0.037 0.692v1.002c0 0.698 0.016 1.14 0.048 1.325s0.096 0.362 0.19 0.532zm7.299-2.216c0-0.821 0.228-1.429 0.684-1.824 0.381-0.328 0.846-0.492 1.394-0.492 0.609 0 1.107 0.2 1.494 0.599 0.386 0.399 0.58 0.951 0.58 1.654 0 0.571-0.086 1.019-0.257 1.346s-0.42 0.581-0.747 0.762-0.684 0.271-1.07 0.271c-0.621 0-1.122-0.199-1.505-0.597-0.382-0.398-0.573-0.971-0.573-1.719zm-2.8 2.216h-0.697v-0.559c-0.281 0.439-0.694 0.659-1.24 0.659-0.353 0-0.678-0.097-0.974-0.292s-0.526-0.467-0.689-0.816c-0.162-0.349-0.244-0.75-0.244-1.204 0-0.442 0.074-0.843 0.221-1.204 0.148-0.36 0.369-0.636 0.664-0.828s0.625-0.288 0.989-0.288c0.267 0 0.505 0.056 0.714 0.169 0.208 0.113 0.378 0.259 0.509 0.44v-2.195h0.747v6.118zm-10.429 0h-0.751v-4.432h0.676v0.672c0.173-0.314 0.332-0.522 0.478-0.622s0.307-0.15 0.482-0.15c0.253 0 0.511 0.081 0.772 0.242l-0.259 0.697c-0.183-0.109-0.367-0.163-0.551-0.163-0.164 0-0.311 0.05-0.442 0.148-0.131 0.099-0.224 0.236-0.279 0.411-0.084 0.267-0.126 0.559-0.126 0.877v2.32zm12.365 0h-0.751v-4.432h0.751v4.432zm-7.432-2.224c-0.273 0.111-0.682 0.205-1.227 0.283-0.309 0.045-0.527 0.095-0.655 0.151-0.128 0.055-0.227 0.137-0.296 0.244-0.07 0.107-0.105 0.226-0.105 0.357 0 0.2 0.076 0.367 0.228 0.5 0.151 0.134 0.373 0.201 0.665 0.201 0.29 0 0.547-0.064 0.772-0.19 0.226-0.127 0.391-0.3 0.497-0.52 0.08-0.17 0.121-0.42 0.121-0.751v-0.275zm9.068 8e-3c0 0.567 0.123 0.992 0.371 1.275 0.248 0.282 0.559 0.423 0.935 0.423 0.373 0 0.683-0.142 0.93-0.425 0.248-0.284 0.372-0.717 0.372-1.298 0-0.548-0.125-0.963-0.374-1.246-0.249-0.282-0.558-0.423-0.928-0.423-0.376 0-0.687 0.14-0.935 0.421s-0.371 0.705-0.371 1.273zm-6.644 4e-3c0 0.568 0.12 0.992 0.359 1.273s0.522 0.421 0.847 0.421c0.329 0 0.607-0.134 0.837-0.402 0.229-0.269 0.344-0.678 0.344-1.229 0-0.607-0.117-1.052-0.35-1.336-0.234-0.283-0.522-0.425-0.864-0.425-0.334 0-0.613 0.136-0.837 0.409-0.224 0.272-0.336 0.702-0.336 1.289zm5.008-3.042h-0.751v-0.864h0.751v0.864z"
     style="fill-rule:nonzero;fill:#fff"
     id="path12" />
  <defs
     id="defs19">
    <linearGradient
       id="_Linear1"
       x2="1"
       gradientTransform="matrix(0,-49.619,49.619,0,323.66,51.088)"
       gradientUnits="userSpaceOnUse">
      <stop
         style="stop-color:#b1530f"
         offset="0"
         id="stop14" />
      <stop
         style="stop-color:#fbb321"
         offset="1"
         id="stop16" />
    </linearGradient>
    <linearGradient
       inkscape:collect="always"
       xlink:href="#_Linear1"
       id="linearGradient3572"
       gradientUnits="userSpaceOnUse"
       gradientTransform="matrix(0,-49.619,49.619,0,323.66,51.088)"
       x2="1" />
  </defs>
</svg>
