<?xml version="1.0" encoding="UTF-8" standalone="no"?>
<svg
   clip-rule="evenodd"
   fill-rule="evenodd"
   stroke-linejoin="round"
   stroke-miterlimit="2"
   viewBox="0 0 48 48"
   version="1.1"
   id="svg29"
   sodipodi:docname="audio-x-smart-playlist.svg"
   inkscape:version="1.1.2 (0a00cf5339, 2022-02-04)"
   xmlns:inkscape="http://www.inkscape.org/namespaces/inkscape"
   xmlns:sodipodi="http://sodipodi.sourceforge.net/DTD/sodipodi-0.dtd"
   xmlns:xlink="http://www.w3.org/1999/xlink"
   xmlns="http://www.w3.org/2000/svg"
   xmlns:svg="http://www.w3.org/2000/svg">
  <defs
     id="defs33">
    <linearGradient
       inkscape:collect="always"
       xlink:href="#a"
       id="linearGradient967"
       gradientUnits="userSpaceOnUse"
       gradientTransform="matrix(0,-37.21425,37.21425,0,460.66514,38.515125)"
       x2="1" />
  </defs>
  <sodipodi:namedview
     id="namedview31"
     pagecolor="#ffffff"
     bordercolor="#666666"
     borderopacity="1.0"
     inkscape:pageshadow="2"
     inkscape:pageopacity="0.0"
     inkscape:pagecheckerboard="0"
     showgrid="false"
     inkscape:zoom="14.208333"
     inkscape:cx="29.665689"
     inkscape:cy="25.266862"
     inkscape:window-width="942"
     inkscape:window-height="1022"
     inkscape:window-x="966"
     inkscape:window-y="46"
     inkscape:window-maximized="1"
     inkscape:current-layer="svg29" />
  <linearGradient
     id="a"
     x2="1"
     gradientTransform="matrix(0,-37.21425,37.21425,0,460.66514,38.515125)"
     gradientUnits="userSpaceOnUse">
    <stop
       stop-color="#349242"
       offset="0"
       id="stop2" />
    <stop
       stop-color="#4cb49f"
       offset="1"
       id="stop4" />
  </linearGradient>
  <path
     id="path7"
     style="stroke-width:0.75;fill:url(#linearGradient967)"
     d="M 12.462891 1.3007812 C 10.947891 1.3007812 9.4955781 1.9036094 8.4238281 2.9746094 C 7.3528281 4.0463594 6.75 5.4986719 6.75 7.0136719 L 6.75 9.1835938 L 6.75 40.986328 C 6.75 42.501328 7.3528281 43.953641 8.4238281 45.025391 C 9.4955781 46.096391 10.947891 46.699219 12.462891 46.699219 L 34.037109 46.699219 C 35.552109 46.699219 37.004422 46.096391 38.076172 45.025391 C 39.147172 43.953641 39.75 42.501328 39.75 40.986328 L 39.75 9.1835938 L 39.75 7.0136719 C 39.75 5.4986719 39.147172 4.0463594 38.076172 2.9746094 C 37.004422 1.9036094 35.552109 1.3007812 34.037109 1.3007812 L 26.681641 1.3007812 L 19.818359 1.3007812 L 12.462891 1.3007812 z " />
  <path
     id="path1057"
     style="fill:#00504e;fill-opacity:1"
     d="m 6.7499983,38.867102 v 2.11914 c 0,1.515 0.602827,2.967063 1.6738287,4.039063 0.804,0.80325 1.82214,1.342751 2.919922,1.5625 0,0 0.002,0 0.002,0 0.182349,0.03644 0.366588,0.06547 0.552735,0.08398 0,0 0.002,0 0.002,0 0.186153,0.01845 0.37378,0.02734 0.5625,0.02734 h 0.002 21.57031 c 0.568124,0 1.128063,-0.0856 1.66211,-0.248047 0.8895,-0.27074 1.708905,-0.756406 2.378906,-1.425781 1.070999,-1.072 1.673828,-2.524063 1.673828,-4.039063 v -2.11914 z" />
  <g
     fill="#fff"
     id="g27">
    <path
       transform="scale(.75)"
       d="m23.139 58.989c-.28 0-.532-.06-.757-.18-.22-.12-.385-.27-.495-.45h-.03l.03.51v1.62h-.69v-5.295h.66v.51h.03c.11-.18.275-.33.495-.45.225-.12.477-.18.758-.18.475 0 .884.187 1.229.562s.518.84.518 1.395-.173 1.02-.518 1.395-.754.563-1.229.563zm-.113-.63c.32 0 .595-.12.825-.36.23-.245.345-.568.345-.968s-.115-.72-.345-.96c-.23-.245-.505-.367-.825-.367-.325 0-.602.12-.832.36-.226.24-.338.562-.338.967s.113.728.338.968c.229.24.507.36.832.36z"
       fill-rule="nonzero"
       id="path9" />
    <path
       d="m19.0845 40.12425h.5175v4.0275h-.5175z"
       stroke-width=".75"
       id="path11" />
    <path
       transform="scale(.75)"
       d="m28.088 58.989c-.39 0-.718-.113-.983-.338-.26-.225-.39-.522-.39-.892 0-.4.155-.713.465-.938.31-.23.693-.345 1.148-.345.405 0 .737.075.997.225v-.105c0-.27-.092-.485-.277-.645-.185-.165-.413-.247-.683-.247-.2 0-.382.047-.547.142-.16.095-.27.225-.33.39l-.63-.27c.085-.22.252-.422.502-.607.25-.19.58-.285.99-.285.47 0 .86.137 1.17.412s.465.663.465 1.163v2.22h-.66v-.51h-.03c-.275.42-.677.63-1.207.63zm.112-.63c.285 0 .543-.105.773-.315.235-.215.352-.468.352-.758-.195-.16-.487-.24-.877-.24-.335 0-.588.073-.758.218s-.255.315-.255.51c0 .18.078.322.233.427s.332.158.532.158z"
       fill-rule="nonzero"
       id="path13" />
    <path
       transform="scale(.75)"
       d="m31.672 60.489h-.712l.855-1.853-1.515-3.442h.75l1.095 2.64h.015l1.065-2.64h.75z"
       fill-rule="nonzero"
       id="path15" />
    <path
       d="m25.764 40.12425h.5175v4.0275h-.5175z"
       stroke-width=".75"
       id="path17" />
    <path
       transform="scale(.75)"
       d="m36.625 54.271c-.095.095-.21.143-.345.143s-.25-.048-.345-.143-.142-.21-.142-.345.047-.25.142-.345.21-.142.345-.142.25.047.345.142.143.21.143.345-.048.25-.143.345zm0 4.598h-.69v-3.675h.69z"
       fill-rule="nonzero"
       id="path19" />
    <path
       transform="scale(.75)"
       d="m38.896 58.989c-.41 0-.75-.1-1.02-.3-.265-.2-.46-.45-.585-.75l.615-.255c.195.46.527.69.997.69.215 0 .39-.048.525-.143.14-.095.21-.22.21-.375 0-.24-.167-.402-.502-.487l-.743-.18c-.235-.06-.457-.173-.667-.338-.21-.17-.315-.397-.315-.682 0-.325.142-.588.427-.788.29-.205.633-.307 1.028-.307.325 0 .615.075.87.225.255.145.437.355.547.63l-.6.247c-.135-.325-.415-.487-.84-.487-.205 0-.377.042-.517.127s-.21.2-.21.345c0 .21.162.353.487.428l.728.172c.345.08.6.218.765.413s.247.415.247.66c0 .33-.135.605-.405.825s-.617.33-1.042.33z"
       fill-rule="nonzero"
       id="path21" />
    <path
       transform="scale(.75)"
       d="m42.49 58.929c-.385 0-.68-.103-.885-.308-.2-.205-.3-.495-.3-.87v-1.927h-.645v-.63h.645v-1.125h.69v1.125h.9v.63h-.9v1.875c0 .4.165.6.495.6.125 0 .23-.02.315-.06l.24.592c-.15.065-.335.098-.555.098z"
       fill-rule="nonzero"
       id="path23" />
    <path
       transform="matrix(.75 0 0 .75 -.391143 .805031)"
       d="m29.44 17.546c-.768.215-1.386 1.072-1.386 1.903v13.191c-.778-.427-1.777-.6-2.813-.318-1.87.509-3.042 2.153-2.641 3.672.401 1.518 2.243 2.367 4.112 1.858 1.492-.406 2.52-1.554 2.684-2.765l.044-12.465 9.696-2.719v9.836c-.778-.427-1.777-.6-2.813-.318-1.87.509-3.042 2.153-2.641 3.672s2.243 2.367 4.112 1.858c1.492-.406 2.52-1.554 2.684-2.765l.044-16.227c0-.624-.369-1.09-.866-1.178z"
       fill-rule="nonzero"
       id="path25" />
  </g>
</svg>
