<?xml version="1.0" encoding="UTF-8" standalone="no"?>
<svg
   clip-rule="evenodd"
   fill-rule="evenodd"
   stroke-linejoin="round"
   stroke-miterlimit="2"
   viewBox="0 0 64 64"
   version="1.1"
   id="svg11"
   sodipodi:docname="stock_addressbook.svg"
   inkscape:version="1.1.2 (0a00cf5339, 2022-02-04)"
   xmlns:inkscape="http://www.inkscape.org/namespaces/inkscape"
   xmlns:sodipodi="http://sodipodi.sourceforge.net/DTD/sodipodi-0.dtd"
   xmlns:xlink="http://www.w3.org/1999/xlink"
   xmlns="http://www.w3.org/2000/svg"
   xmlns:svg="http://www.w3.org/2000/svg">
  <defs
     id="defs15">
    <linearGradient
       inkscape:collect="always"
       xlink:href="#a"
       id="linearGradient4578"
       gradientUnits="userSpaceOnUse"
       gradientTransform="matrix(0,-49.619,49.619,0,177.88,51.088)"
       x2="1" />
  </defs>
  <sodipodi:namedview
     id="namedview13"
     pagecolor="#ffffff"
     bordercolor="#666666"
     borderopacity="1.0"
     inkscape:pageshadow="2"
     inkscape:pageopacity="0.0"
     inkscape:pagecheckerboard="0"
     showgrid="false"
     inkscape:zoom="10.65625"
     inkscape:cx="32"
     inkscape:cy="32"
     inkscape:window-width="1896"
     inkscape:window-height="1022"
     inkscape:window-x="12"
     inkscape:window-y="46"
     inkscape:window-maximized="1"
     inkscape:current-layer="svg11" />
  <linearGradient
     id="a"
     x2="1"
     gradientTransform="matrix(0,-49.619,49.619,0,177.88,51.088)"
     gradientUnits="userSpaceOnUse">
    <stop
       stop-color="#3781b9"
       offset="0"
       id="stop2" />
    <stop
       stop-color="#29aec7"
       offset="1"
       id="stop4" />
  </linearGradient>
  <path
     id="path7"
     style="fill:url(#linearGradient4578)"
     d="M 17.617188 1.46875 C 15.597188 1.46875 13.659469 2.2712188 12.230469 3.6992188 C 10.802469 5.1282186 10 7.0678906 10 9.0878906 L 10 13.113281 L 10 54.382812 C 10 56.402814 10.802469 58.340531 12.230469 59.769531 C 13.659469 61.197531 15.597187 62 17.617188 62 L 46.382812 62 C 48.402814 62 50.340531 61.197531 51.769531 59.769531 C 53.197531 58.340531 54 56.402814 54 54.382812 L 54 13.113281 L 54 9.0878906 C 54 7.0678906 53.197531 5.1282186 51.769531 3.6992188 C 50.340531 2.2712188 48.402813 1.46875 46.382812 1.46875 L 35.839844 1.46875 L 28.160156 1.46875 L 17.617188 1.46875 z " />
  <path
     d="m 44.571236,27.038098 c 0,1.729 -0.28,3.295 -0.839,4.698 -0.55,1.394 -1.319,2.471 -2.31,3.232 -0.982,0.763 -2.085,1.145 -3.307,1.145 -0.952,0 -1.689,-0.205 -2.211,-0.616 -0.519,-0.408 -0.779,-1.02 -0.779,-1.837 l 0.042,-0.979 h -0.087 c -0.635,1.144 -1.424,2.005 -2.366,2.582 -0.932,0.567 -1.943,0.85 -3.031,0.85 -1.512,0 -2.687,-0.474 -3.527,-1.421 -0.826,-0.95 -1.239,-2.265 -1.239,-3.946 0,-1.524 0.307,-2.942 0.922,-4.252 0.627,-1.31 1.499,-2.352 2.615,-3.126 1.117,-0.771 2.354,-1.156 3.712,-1.156 2.107,0 3.555,0.846 4.347,2.54 h 0.087 l 0.563,-2.23 h 2.252 l -1.678,7.052 c -0.353,1.525 -0.529,2.7 -0.529,3.527 0,0.874 0.389,1.311 1.168,1.311 0.768,0 1.475,-0.321 2.12,-0.964 0.655,-0.64 1.171,-1.521 1.546,-2.645 0.376,-1.127 0.563,-2.374 0.563,-3.742 0,-1.663 -0.37,-3.135 -1.111,-4.415 -0.741,-1.292 -1.809,-2.283 -3.205,-2.97 -1.396,-0.698 -3.029,-1.047 -4.898,-1.047 -2.329,0 -4.388,0.497 -6.18,1.493 -1.789,0.995 -3.194,2.431 -4.214,4.308 -1.021,1.867 -1.531,3.963 -1.531,6.286 0,1.794 0.375,3.379 1.126,4.755 0.759,1.365 1.851,2.416 3.277,3.152 1.436,0.733 3.107,1.1 5.012,1.1 1.396,0 2.811,-0.177 4.244,-0.53 1.437,-0.345 2.923,-0.921 4.46,-1.727 l 0.794,1.561 c -1.393,0.806 -2.909,1.42 -4.547,1.841 -1.627,0.428 -3.278,0.642 -4.951,0.642 -2.321,0 -4.353,-0.447 -6.096,-1.341 -1.732,-0.882 -3.059,-2.142 -3.984,-3.78 -0.915,-1.643 -1.372,-3.533 -1.372,-5.669 0,-2.603 0.597,-4.969 1.791,-7.098 1.202,-2.13 2.868,-3.784 4.997,-4.963 2.127,-1.189 4.508,-1.784 7.143,-1.784 2.324,0 4.327,0.422 6.01,1.266 1.686,0.837 2.971,2.021 3.855,3.553 0.897,1.537 1.346,3.318 1.346,5.344 z m -8.754,0.114 c 0,-0.95 -0.317,-1.714 -0.952,-2.291 -0.635,-0.584 -1.482,-0.877 -2.54,-0.877 -0.973,0 -1.84,0.298 -2.601,0.892 -0.75,0.585 -1.343,1.403 -1.776,2.453 -0.433,1.041 -0.65,2.17 -0.65,3.387 0,1.116 0.227,1.99 0.68,2.623 0.461,0.63 1.168,0.945 2.121,0.945 1.204,0 2.306,-0.488 3.307,-1.463 1.003,-0.975 1.696,-2.192 2.079,-3.651 0.221,-0.857 0.332,-1.531 0.332,-2.022 z"
     fill="#ffffff"
     fill-opacity=".5"
     fill-rule="nonzero"
     id="path9"
     style="fill:#054d66;fill-opacity:1" />
  <path
     id="path914"
     style="clip-rule:evenodd;fill:#054d66;fill-opacity:1;fill-rule:evenodd;stroke-width:1;stroke-linejoin:round;stroke-miterlimit:2"
     d="m 9.999999,50.982422 v 3.40039 c 0,2.020002 0.80247,3.957719 2.23047,5.386719 1.429,1.428 3.366717,2.230469 5.386719,2.230469 h 28.765624 c 2.020002,0 3.957719,-0.802469 5.386719,-2.230469 C 53.197531,58.340531 54,56.402814 54,54.382812 v -3.40039 z" />
</svg>
