<?xml version="1.0" encoding="UTF-8" standalone="no"?>
<svg
   style="clip-rule:evenodd;fill-rule:evenodd;stroke-linejoin:round;stroke-miterlimit:2"
   viewBox="0 0 64 64"
   version="1.1"
   id="svg15"
   sodipodi:docname="text-markdown.svg"
   inkscape:version="1.1.2 (0a00cf5339, 2022-02-04)"
   xmlns:inkscape="http://www.inkscape.org/namespaces/inkscape"
   xmlns:sodipodi="http://sodipodi.sourceforge.net/DTD/sodipodi-0.dtd"
   xmlns:xlink="http://www.w3.org/1999/xlink"
   xmlns="http://www.w3.org/2000/svg"
   xmlns:svg="http://www.w3.org/2000/svg">
  <sodipodi:namedview
     id="namedview17"
     pagecolor="#ffffff"
     bordercolor="#666666"
     borderopacity="1.0"
     inkscape:pageshadow="2"
     inkscape:pageopacity="0.0"
     inkscape:pagecheckerboard="0"
     showgrid="false"
     inkscape:zoom="10.65625"
     inkscape:cx="32"
     inkscape:cy="32"
     inkscape:window-width="1896"
     inkscape:window-height="1022"
     inkscape:window-x="12"
     inkscape:window-y="46"
     inkscape:window-maximized="1"
     inkscape:current-layer="svg15" />
  <path
     id="path2"
     style="fill:url(#linearGradient4268)"
     d="M 17.617188 1.46875 C 15.597188 1.46875 13.659469 2.2712188 12.230469 3.6992188 C 10.802469 5.1282186 10 7.0678906 10 9.0878906 L 10 14.394531 L 10 54.382812 C 10 56.402814 10.802469 58.340531 12.230469 59.769531 C 13.659469 61.197531 15.597187 62 17.617188 62 L 46.382812 62 C 48.402814 62 50.340531 61.197531 51.769531 59.769531 C 53.197531 58.340531 54 56.402814 54 54.382812 L 54 14.394531 L 54 9.0878906 C 54 7.0678906 53.197531 5.1282186 51.769531 3.6992188 C 50.340531 2.2712188 48.402813 1.46875 46.382812 1.46875 L 37.091797 1.46875 L 26.908203 1.46875 L 17.617188 1.46875 z " />
  <path
     id="path2-3"
     style="clip-rule:evenodd;fill:#464d55;fill-opacity:1;fill-rule:evenodd;stroke-linecap:round;stroke-linejoin:round;stroke-miterlimit:2"
     d="m 10.000002,50.982422 v 3.398437 0.002 c 6.5e-5,0.251841 0.01244,0.501552 0.03711,0.75 v 0.002 c 0.02473,0.248442 0.06268,0.494885 0.111329,0.738281 v 0.002 c 0.04871,0.243391 0.109702,0.484016 0.18164,0.720703 v 0.002 c 0.072,0.236684 0.155456,0.468944 0.25,0.697266 v 0.002 c 0.09461,0.228323 0.199936,0.453573 0.316406,0.671875 v 0.002 c 0.116531,0.218305 0.245101,0.430096 0.382813,0.636719 v 0.002 c 0.137776,0.206628 0.287038,0.406326 0.445312,0.599609 v 0.002 c 0.158341,0.193289 0.327702,0.378358 0.50586,0.55664 v 0.002 c 0.714499,0.714 1.5571,1.271274 2.472656,1.650391 C 15.618681,61.799106 16.607188,62 17.617187,62 h 28.765625 c 1.010002,0 1.998508,-0.200473 2.914063,-0.580078 0.915554,-0.379117 1.758155,-0.936391 2.472656,-1.650391 v -0.002 C 53.19753,58.338626 54,56.400859 54,54.380859 v -3.398437 z" />
  <path
     d="m43.25 18.965c1.028 0 1.875 0.847 1.875 1.875v12.25c0 1.028-0.847 1.875-1.875 1.875h-22.25c-1.028 0-1.875-0.847-1.875-1.875v-12.25c0-1.028 0.847-1.875 1.875-1.875h22.25zm0 14.75c0.357 0 0.625-0.268 0.625-0.625v-12.25c0-0.357-0.268-0.625-0.625-0.625h-22.25c-0.357 0-0.625 0.268-0.625 0.625v12.25c0 0.357 0.268 0.625 0.625 0.625h22.25zm-3.5-6.626h2.5l-3.75 4.125-3.75-4.125h2.5v-4.375h2.5v4.375zm-14.375 4.125h-2.5v-8.5h2.5l2.5 3.125 2.5-3.125h2.5v8.5h-2.5v-4.875l-2.5 3.125-2.5-3.125v4.875z"
     style="fill-rule:nonzero;fill:#464d55"
     id="path4" />
  <path
     d="m26.263 59v-4.016h0.722v0.558h0.032c0.115-0.192 0.29-0.353 0.525-0.484 0.24-0.137 0.478-0.205 0.713-0.205 0.623 0 1.046 0.257 1.27 0.77 0.328-0.513 0.795-0.77 1.402-0.77 0.475 0 0.833 0.153 1.073 0.459 0.241 0.301 0.361 0.71 0.361 1.229v2.459h-0.754v-2.344c0-0.404-0.074-0.691-0.221-0.86-0.148-0.17-0.372-0.254-0.672-0.254-0.296 0-0.541 0.125-0.738 0.376-0.191 0.252-0.287 0.539-0.287 0.861v2.221h-0.754v-2.344c0-0.404-0.074-0.691-0.221-0.86-0.148-0.17-0.372-0.254-0.672-0.254-0.295 0-0.541 0.125-0.738 0.376-0.191 0.252-0.287 0.539-0.287 0.861v2.221h-0.754zm10.868-0.131h-0.721v-0.557h-0.033c-0.12 0.196-0.303 0.36-0.549 0.491-0.241 0.131-0.514 0.197-0.82 0.197-0.519 0-0.967-0.205-1.344-0.615-0.377-0.409-0.565-0.918-0.565-1.524s0.188-1.115 0.565-1.524c0.377-0.41 0.825-0.615 1.344-0.615 0.306 0 0.579 0.066 0.82 0.197 0.246 0.131 0.429 0.295 0.549 0.491h0.033l-0.033-0.557v-1.852h0.754v5.868zm-2-0.557c0.355 0 0.656-0.132 0.902-0.394 0.251-0.262 0.377-0.614 0.377-1.057s-0.126-0.795-0.377-1.057c-0.246-0.262-0.547-0.394-0.902-0.394-0.35 0-0.65 0.134-0.901 0.402-0.252 0.262-0.377 0.612-0.377 1.049s0.125 0.789 0.377 1.057c0.251 0.262 0.551 0.394 0.901 0.394z"
     style="fill-rule:nonzero;fill:#fff"
     id="path6" />
  <defs
     id="defs13">
    <linearGradient
       id="_Linear1"
       x2="1"
       gradientTransform="matrix(0,-49.619,49.619,0,104.99,51.088)"
       gradientUnits="userSpaceOnUse">
      <stop
         style="stop-color:#758b9a"
         offset="0"
         id="stop8" />
      <stop
         style="stop-color:#b5bdc2"
         offset="1"
         id="stop10" />
    </linearGradient>
    <linearGradient
       inkscape:collect="always"
       xlink:href="#_Linear1"
       id="linearGradient4268"
       gradientUnits="userSpaceOnUse"
       gradientTransform="matrix(0,-49.619,49.619,0,104.99,51.088)"
       x2="1" />
  </defs>
</svg>
