<?xml version="1.0" encoding="UTF-8" standalone="no"?>
<svg
   clip-rule="evenodd"
   fill-rule="evenodd"
   stroke-linecap="round"
   stroke-linejoin="round"
   viewBox="0 0 64 64"
   version="1.1"
   id="svg19"
   sodipodi:docname="text-x-gtkrc.svg"
   inkscape:version="1.1.2 (0a00cf5339, 2022-02-04)"
   xmlns:inkscape="http://www.inkscape.org/namespaces/inkscape"
   xmlns:sodipodi="http://sodipodi.sourceforge.net/DTD/sodipodi-0.dtd"
   xmlns:xlink="http://www.w3.org/1999/xlink"
   xmlns="http://www.w3.org/2000/svg"
   xmlns:svg="http://www.w3.org/2000/svg">
  <defs
     id="defs23">
    <linearGradient
       inkscape:collect="always"
       xlink:href="#a"
       id="linearGradient2246"
       gradientUnits="userSpaceOnUse"
       gradientTransform="matrix(0,-49.619,49.619,0,396.55,51.088)"
       x2="1" />
  </defs>
  <sodipodi:namedview
     id="namedview21"
     pagecolor="#ffffff"
     bordercolor="#666666"
     borderopacity="1.0"
     inkscape:pageshadow="2"
     inkscape:pageopacity="0.0"
     inkscape:pagecheckerboard="0"
     showgrid="false"
     inkscape:zoom="10.65625"
     inkscape:cx="32"
     inkscape:cy="32"
     inkscape:window-width="1896"
     inkscape:window-height="1022"
     inkscape:window-x="12"
     inkscape:window-y="46"
     inkscape:window-maximized="1"
     inkscape:current-layer="svg19" />
  <linearGradient
     id="a"
     x2="1"
     gradientTransform="matrix(0,-49.619,49.619,0,396.55,51.088)"
     gradientUnits="userSpaceOnUse">
    <stop
       stop-color="#9b070f"
       offset="0"
       id="stop2" />
    <stop
       stop-color="#e65130"
       offset="1"
       id="stop4" />
  </linearGradient>
  <path
     id="path7"
     style="fill:url(#linearGradient2246)"
     d="M 17.617188 1.46875 C 15.597188 1.46875 13.659469 2.2712188 12.230469 3.6992188 C 10.802469 5.1282186 10 7.0678906 10 9.0878906 L 10 14.636719 L 10 54.382812 C 10 56.402814 10.802469 58.340531 12.230469 59.769531 C 13.659469 61.197531 15.597187 62 17.617188 62 L 46.382812 62 C 48.402814 62 50.340531 61.197531 51.769531 59.769531 C 53.197531 58.340531 54 56.402814 54 54.382812 L 54 14.636719 L 54 9.0878906 C 54 7.0678906 53.197531 5.1282186 51.769531 3.6992188 C 50.340531 2.2712188 48.402813 1.46875 46.382812 1.46875 L 38.357422 1.46875 L 25.642578 1.46875 L 17.617188 1.46875 z " />
  <path
     id="path2-3"
     style="clip-rule:evenodd;fill:#5f0c0d;fill-opacity:1;fill-rule:evenodd;stroke-linecap:round;stroke-linejoin:round;stroke-miterlimit:2"
     d="m 10.000004,50.982422 v 3.398437 0.002 c 6.5e-5,0.251841 0.01244,0.501552 0.03711,0.75 v 0.002 c 0.02473,0.248442 0.06268,0.494885 0.111328,0.738281 v 0.002 c 0.04871,0.243391 0.109702,0.484016 0.18164,0.720703 v 0.002 c 0.072,0.236684 0.155456,0.468944 0.25,0.697266 v 0.002 c 0.09461,0.228323 0.199936,0.453573 0.316406,0.671875 v 0.002 c 0.116532,0.218305 0.245102,0.430096 0.382814,0.636719 v 0.002 c 0.137775,0.206628 0.287037,0.406326 0.445311,0.599609 v 0.002 c 0.158341,0.193289 0.327703,0.378358 0.505861,0.55664 v 0.002 c 0.714498,0.714 1.557099,1.271274 2.472655,1.650391 C 15.618682,61.799106 16.607189,62 17.617188,62 h 28.765624 c 1.010002,0 1.998509,-0.200473 2.914063,-0.580078 0.915554,-0.379117 1.758155,-0.936391 2.472656,-1.650391 v -0.002 C 53.19753,58.338626 54,56.400859 54,54.380859 v -3.398437 z" />
  <path
     d="m17.327 22.371h12.922v12.922h-12.922z"
     fill="#5f0c0d"
     stroke="#5f0c0d"
     stroke-width="1.08"
     id="path9" />
  <circle
     cx="41.762"
     cy="28.832"
     r="6.509"
     fill="#5f0c0d"
     stroke="#5f0c0d"
     stroke-width=".98"
     id="circle11" />
  <circle
     cx="41.753"
     cy="28.826"
     r="4"
     fill="#ff7258"
     id="circle13" />
  <path
     d="m32.363 24.013-1.228-1.229c-.169-.168-.374-.253-.614-.253-.241 0-.446.085-.615.253l-5.925 5.934-2.655-2.664c-.169-.169-.374-.253-.614-.253-.241 0-.446.084-.615.253l-1.228 1.228c-.169.169-.253.374-.253.614 0 .241.084.446.253.615l3.27 3.269 1.228 1.229c.169.168.373.253.614.253s.446-.085.614-.253l7.768-7.768c.169-.169.253-.373.253-.614s-.084-.446-.253-.614z"
     fill="#ff7258"
     fill-rule="nonzero"
     id="path15" />
  <path
     d="m25.464 60.493c-.453 0-.823-.115-1.109-.344-.286-.223-.492-.481-.617-.772l.656-.274c.073.208.206.383.398.523.198.141.422.211.672.211.395 0 .705-.12.929-.359.229-.234.343-.554.343-.96v-.367h-.031c-.125.187-.302.343-.531.468s-.487.188-.773.188c-.494 0-.921-.196-1.28-.586s-.539-.874-.539-1.452.18-1.062.539-1.452c.359-.391.786-.586 1.28-.586.286 0 .544.063.773.188.229.124.406.281.531.468h.031v-.531h.687v3.631c0 .655-.19 1.152-.57 1.491-.38.343-.843.515-1.389.515zm.054-2.342c.339 0 .625-.125.859-.375.239-.25.359-.586.359-1.007 0-.422-.12-.757-.359-1.007-.234-.25-.52-.375-.859-.375-.333 0-.619.128-.859.383-.239.249-.359.583-.359.999s.12.752.359 1.007c.24.25.526.375.859.375zm4.39.593c-.4 0-.707-.107-.921-.32-.208-.213-.312-.515-.312-.906v-2.006h-.672v-.656h.672v-1.171h.718v1.171h.937v.656h-.937v1.952c0 .416.172.624.515.624.131 0 .24-.02.328-.062l.25.617c-.156.067-.349.101-.578.101zm1.869-5.652v3.443l1.655-1.679h.922v.031l-1.492 1.492 1.562 2.271v.032h-.867l-1.202-1.804-.578.578v1.226h-.718v-5.59zm3.767 5.59h-.719v-3.826h.687v.625h.032c.073-.209.221-.38.445-.516.229-.135.45-.203.663-.203.214 0 .393.032.539.094l-.273.672c-.094-.037-.221-.055-.383-.055-.26 0-.492.104-.695.312-.197.203-.296.471-.296.804zm3.638.125c-.573 0-1.044-.193-1.413-.578-.37-.39-.555-.877-.555-1.46s.185-1.067.555-1.452c.369-.391.84-.586 1.413-.586.427 0 .781.104 1.062.312.281.209.486.472.616.789l-.655.273c-.198-.479-.555-.718-1.07-.718-.318 0-.599.13-.843.39-.24.261-.359.591-.359.992s.119.731.359.991c.244.261.525.391.843.391.536 0 .906-.24 1.109-.718l.64.273c-.13.312-.341.575-.633.788-.286.209-.642.313-1.069.313z"
     fill="#fff"
     id="path17" />
</svg>
