<?xml version="1.0" encoding="UTF-8" standalone="no"?>
<svg
   style="clip-rule:evenodd;fill-rule:evenodd;stroke-linejoin:round;stroke-miterlimit:2"
   viewBox="0 0 64 64"
   version="1.1"
   id="svg25"
   sodipodi:docname="text-x-pascal.svg"
   inkscape:version="1.1.2 (0a00cf5339, 2022-02-04)"
   xmlns:inkscape="http://www.inkscape.org/namespaces/inkscape"
   xmlns:sodipodi="http://sodipodi.sourceforge.net/DTD/sodipodi-0.dtd"
   xmlns:xlink="http://www.w3.org/1999/xlink"
   xmlns="http://www.w3.org/2000/svg"
   xmlns:svg="http://www.w3.org/2000/svg">
  <sodipodi:namedview
     id="namedview27"
     pagecolor="#ffffff"
     bordercolor="#666666"
     borderopacity="1.0"
     inkscape:pageshadow="2"
     inkscape:pageopacity="0.0"
     inkscape:pagecheckerboard="0"
     showgrid="false"
     inkscape:zoom="10.65625"
     inkscape:cx="32"
     inkscape:cy="32"
     inkscape:window-width="1896"
     inkscape:window-height="1022"
     inkscape:window-x="12"
     inkscape:window-y="46"
     inkscape:window-maximized="1"
     inkscape:current-layer="svg25" />
  <path
     id="path2"
     style="fill:url(#linearGradient3810)"
     d="M 17.617188 1.46875 C 15.597188 1.46875 13.659469 2.2712188 12.230469 3.6992188 C 10.802469 5.1282186 10 7.0678906 10 9.0878906 L 10 12.861328 L 10 54.382812 C 10 56.402814 10.802469 58.340531 12.230469 59.769531 C 13.659469 61.197531 15.597187 62 17.617188 62 L 46.382812 62 C 48.402814 62 50.340531 61.197531 51.769531 59.769531 C 53.197531 58.340531 54 56.402814 54 54.382812 L 54 12.861328 L 54 9.0878906 C 54 7.0678906 53.197531 5.1282186 51.769531 3.6992188 C 50.340531 2.2712188 48.402813 1.46875 46.382812 1.46875 L 38.070312 1.46875 L 25.929688 1.46875 L 17.617188 1.46875 z " />
  <path
     id="path2-3-3"
     style="clip-rule:evenodd;fill:#5e4008;fill-opacity:1;fill-rule:evenodd;stroke-linecap:round;stroke-linejoin:round;stroke-miterlimit:2"
     d="m 10.000003,50.982422 v 3.398437 0.002 c 6.5e-5,0.251841 0.01244,0.501552 0.03711,0.75 v 0.002 c 0.02473,0.248442 0.06268,0.494885 0.111329,0.738281 v 0.002 c 0.04871,0.243391 0.109702,0.484016 0.18164,0.720703 v 0.002 c 0.072,0.236684 0.155455,0.468944 0.25,0.697266 v 0.002 c 0.09461,0.228323 0.199935,0.453573 0.316406,0.671875 v 0.002 c 0.116531,0.218305 0.245101,0.430096 0.382813,0.636719 v 0.002 c 0.137776,0.206628 0.287038,0.406326 0.445312,0.599609 v 0.002 c 0.158341,0.193289 0.327702,0.378358 0.50586,0.55664 v 0.002 c 0.714499,0.714 1.5571,1.271274 2.472655,1.650391 C 15.618681,61.799106 16.607188,62 17.617187,62 h 28.765625 c 1.010002,0 1.998508,-0.200473 2.914063,-0.580078 0.915554,-0.379117 1.758155,-0.936391 2.472656,-1.650391 v -0.002 C 53.19753,58.338626 54,56.400859 54,54.380859 v -3.398437 z" />
  <path
     d="m22.773 58.953c-0.507 0-0.91-0.163-1.207-0.488v2.035h-0.726v-5.852h0.664l0.035 0.465c0.297-0.362 0.704-0.543 1.223-0.543 0.534 0 0.942 0.198 1.226 0.594s0.426 0.917 0.426 1.563v0.082c0 0.617-0.143 1.128-0.43 1.535-0.283 0.406-0.687 0.609-1.211 0.609zm-0.222-3.773c-0.245 0-0.447 0.056-0.606 0.168-0.159 0.109-0.285 0.247-0.379 0.414v2.023c0.097 0.167 0.223 0.305 0.379 0.414 0.159 0.107 0.364 0.16 0.614 0.16 0.39 0 0.675-0.153 0.855-0.461 0.182-0.307 0.274-0.67 0.274-1.089v-0.082c0-0.42-0.092-0.782-0.274-1.086-0.18-0.308-0.467-0.461-0.863-0.461z"
     style="fill-rule:nonzero;fill:#fff"
     id="path4" />
  <path
     d="m27.953 58.875c-0.047-0.102-0.081-0.25-0.101-0.445-0.136 0.143-0.305 0.267-0.508 0.371-0.203 0.101-0.435 0.152-0.696 0.152-0.432 0-0.778-0.121-1.039-0.363-0.26-0.242-0.39-0.539-0.39-0.891 0-0.453 0.172-0.797 0.515-1.031 0.344-0.237 0.806-0.356 1.387-0.356h0.715v-0.335c0-0.25-0.076-0.45-0.227-0.598-0.148-0.151-0.369-0.227-0.664-0.227-0.273 0-0.494 0.068-0.664 0.203-0.166 0.133-0.25 0.288-0.25 0.465h-0.722c0-0.302 0.152-0.586 0.457-0.851 0.304-0.266 0.712-0.399 1.222-0.399 0.459 0 0.835 0.117 1.129 0.352 0.294 0.234 0.442 0.588 0.442 1.062v1.969c0 0.141 0.011 0.29 0.035 0.449 0.026 0.159 0.064 0.296 0.113 0.41v0.063h-0.754zm-1.199-0.555c0.26 0 0.486-0.065 0.676-0.195 0.192-0.13 0.328-0.275 0.406-0.434v-0.871h-0.598c-0.862 0-1.293 0.261-1.293 0.782 0 0.2 0.068 0.371 0.203 0.511 0.136 0.138 0.338 0.207 0.606 0.207z"
     style="fill-rule:nonzero;fill:#fff"
     id="path6" />
  <path
     d="m32.164 57.754c0-0.156-0.059-0.296-0.176-0.418-0.114-0.125-0.38-0.229-0.797-0.313-0.471-0.099-0.843-0.239-1.117-0.421-0.271-0.183-0.406-0.448-0.406-0.797 0-0.334 0.142-0.623 0.426-0.867 0.286-0.245 0.666-0.368 1.14-0.368 0.506 0 0.9 0.129 1.184 0.387s0.426 0.569 0.426 0.934h-0.723c0-0.175-0.077-0.339-0.23-0.493-0.154-0.156-0.373-0.234-0.657-0.234-0.299 0-0.514 0.065-0.644 0.195-0.13 0.131-0.195 0.273-0.195 0.426 0 0.156 0.062 0.283 0.187 0.379 0.125 0.094 0.387 0.185 0.785 0.274 0.518 0.119 0.901 0.274 1.149 0.464 0.247 0.19 0.371 0.456 0.371 0.797 0 0.373-0.15 0.675-0.45 0.906-0.296 0.232-0.691 0.348-1.183 0.348-0.56 0-0.988-0.143-1.285-0.43-0.297-0.286-0.446-0.604-0.446-0.953h0.727c0.016 0.3 0.13 0.507 0.344 0.621 0.216 0.112 0.436 0.168 0.66 0.168 0.294 0 0.519-0.057 0.676-0.171 0.156-0.115 0.234-0.26 0.234-0.434z"
     style="fill-rule:nonzero;fill:#fff"
     id="path8" />
  <path
     d="m35.52 58.359c0.257 0 0.483-0.076 0.675-0.23 0.196-0.154 0.302-0.35 0.321-0.59h0.687c-0.018 0.378-0.191 0.708-0.519 0.992-0.329 0.282-0.717 0.422-1.164 0.422-0.636 0-1.109-0.21-1.418-0.629-0.308-0.419-0.461-0.913-0.461-1.48v-0.164c0-0.568 0.153-1.062 0.461-1.481 0.309-0.419 0.782-0.629 1.418-0.629 0.494 0 0.894 0.147 1.199 0.442 0.304 0.291 0.466 0.655 0.484 1.09h-0.687c-0.019-0.261-0.118-0.482-0.297-0.665-0.177-0.182-0.41-0.273-0.699-0.273-0.297 0-0.53 0.076-0.7 0.227-0.166 0.151-0.285 0.342-0.355 0.574-0.068 0.232-0.102 0.47-0.102 0.715v0.164c0 0.247 0.034 0.487 0.102 0.718 0.068 0.232 0.185 0.424 0.351 0.575 0.17 0.148 0.404 0.222 0.704 0.222z"
     style="fill-rule:nonzero;fill:#fff"
     id="path10" />
  <path
     d="m40.625 58.875c-0.047-0.102-0.081-0.25-0.102-0.445-0.135 0.143-0.304 0.267-0.507 0.371-0.204 0.101-0.435 0.152-0.696 0.152-0.432 0-0.778-0.121-1.039-0.363-0.26-0.242-0.39-0.539-0.39-0.891 0-0.453 0.171-0.797 0.515-1.031 0.344-0.237 0.806-0.356 1.387-0.356h0.715v-0.335c0-0.25-0.076-0.45-0.227-0.598-0.148-0.151-0.37-0.227-0.664-0.227-0.273 0-0.495 0.068-0.664 0.203-0.167 0.133-0.25 0.288-0.25 0.465h-0.723c0-0.302 0.153-0.586 0.457-0.851 0.305-0.266 0.713-0.399 1.223-0.399 0.458 0 0.835 0.117 1.129 0.352 0.294 0.234 0.441 0.588 0.441 1.062v1.969c0 0.141 0.012 0.29 0.036 0.449 0.026 0.159 0.063 0.296 0.113 0.41v0.063h-0.754zm-1.199-0.555c0.26 0 0.485-0.065 0.676-0.195 0.192-0.13 0.328-0.275 0.406-0.434v-0.871h-0.598c-0.862 0-1.293 0.261-1.293 0.782 0 0.2 0.068 0.371 0.203 0.511 0.136 0.138 0.338 0.207 0.606 0.207z"
     style="fill-rule:nonzero;fill:#fff"
     id="path12" />
  <rect
     x="42.434"
     y="52.875"
     width=".727"
     height="6"
     style="fill:#fff"
     id="rect14" />
  <path
     d="m32.196 29.372h-5.197v8.628h-2.916v-22h8.113c2.499 0 4.407 0.63 5.727 1.889 1.33 1.259 1.995 2.866 1.995 4.82 0 2.125-0.665 3.767-1.995 4.926-1.32 1.158-3.228 1.737-5.727 1.737zm-5.197-10.985v8.613h5.197c1.713 0 2.942-0.398 3.687-1.194 0.746-0.795 1.118-1.818 1.118-3.067 0-1.128-0.372-2.136-1.118-3.022-0.745-0.886-1.974-1.33-3.687-1.33h-5.197z"
     style="fill-rule:nonzero;fill:#5e4008"
     id="path16" />
  <defs
     id="defs23">
    <linearGradient
       id="_Linear1"
       x2="1"
       gradientTransform="matrix(1.07196,-49.7469,49.7469,1.07196,251.234,55.94)"
       gradientUnits="userSpaceOnUse">
      <stop
         style="stop-color:#b87003"
         offset="0"
         id="stop18" />
      <stop
         style="stop-color:#cfa532"
         offset="1"
         id="stop20" />
    </linearGradient>
    <linearGradient
       inkscape:collect="always"
       xlink:href="#_Linear1"
       id="linearGradient3810"
       gradientUnits="userSpaceOnUse"
       gradientTransform="matrix(1.07196,-49.7469,49.7469,1.07196,251.234,55.94)"
       x2="1" />
  </defs>
</svg>
