<?xml version="1.0" encoding="UTF-8" standalone="no"?>
<svg
   clip-rule="evenodd"
   fill-rule="evenodd"
   stroke-linejoin="round"
   stroke-miterlimit="2"
   viewBox="0 0 48 48"
   version="1.1"
   id="svg11"
   sodipodi:docname="text-x-common-lisp.svg"
   inkscape:version="1.1.2 (0a00cf5339, 2022-02-04)"
   xmlns:inkscape="http://www.inkscape.org/namespaces/inkscape"
   xmlns:sodipodi="http://sodipodi.sourceforge.net/DTD/sodipodi-0.dtd"
   xmlns:xlink="http://www.w3.org/1999/xlink"
   xmlns="http://www.w3.org/2000/svg"
   xmlns:svg="http://www.w3.org/2000/svg">
  <defs
     id="defs15">
    <linearGradient
       inkscape:collect="always"
       xlink:href="#a"
       id="linearGradient3330"
       gradientUnits="userSpaceOnUse"
       gradientTransform="matrix(0,-37.21425,37.21425,0,133.41,38.316)"
       x2="1" />
  </defs>
  <sodipodi:namedview
     id="namedview13"
     pagecolor="#ffffff"
     bordercolor="#666666"
     borderopacity="1.0"
     inkscape:pageshadow="2"
     inkscape:pageopacity="0.0"
     inkscape:pagecheckerboard="0"
     showgrid="false"
     inkscape:zoom="14.208333"
     inkscape:cx="24"
     inkscape:cy="24"
     inkscape:window-width="1896"
     inkscape:window-height="1022"
     inkscape:window-x="12"
     inkscape:window-y="46"
     inkscape:window-maximized="1"
     inkscape:current-layer="svg11" />
  <linearGradient
     id="a"
     x2="1"
     gradientTransform="matrix(0,-37.21425,37.21425,0,133.41,38.316)"
     gradientUnits="userSpaceOnUse">
    <stop
       stop-color="#c4c4c4"
       offset="0"
       id="stop2" />
    <stop
       stop-color="#edf2f6"
       offset="1"
       id="stop4" />
  </linearGradient>
  <path
     id="path7"
     style="stroke-width:0.75;fill:url(#linearGradient3330)"
     d="M 13.212891 1.1015625 C 11.697891 1.1015625 10.245578 1.7043906 9.1738281 2.7753906 C 8.1028281 3.8471406 7.5 5.2994531 7.5 6.8144531 L 7.5 12.984375 L 7.5 40.787109 C 7.5 42.302109 8.1028281 43.754422 9.1738281 44.826172 C 10.245578 45.897172 11.697891 46.5 13.212891 46.5 L 34.787109 46.5 C 36.302109 46.5 37.754422 45.897172 38.826172 44.826172 C 39.897172 43.754422 40.5 42.302109 40.5 40.787109 L 40.5 12.984375 L 40.5 6.8144531 C 40.5 5.2994531 39.897172 3.8471406 38.826172 2.7753906 C 37.754422 1.7043906 36.302109 1.1015625 34.787109 1.1015625 L 24.691406 1.1015625 L 23.308594 1.1015625 L 13.212891 1.1015625 z " />
  <path
     d="m 24,12.407418 c -5.523,0 -10,4.477 -10,10 0,5.523 4.477,10 10,10 5.523,0 10,-4.477 10,-10 0,-5.523 -4.477,-10 -10,-10 z m 0,1 c 4.971,0 9,4.029 9,9 0,4.194 -2.873,7.709 -6.756,8.707 -0.047,-0.011 -0.08,-0.012 -0.139,-0.027 -1.428,-0.374 -2.595,-1.312 -3.251,-2.614 -0.781,-1.548 -0.702,-3.343 0.216,-4.849 0.212,-0.348 0.299,-0.459 0.733,-0.934 0.575,-0.63 0.87,-1.042 1.119,-1.566 0.654,-1.378 0.623,-3.059 -0.082,-4.444 -0.722,-1.417 -2.018,-2.393 -3.596,-2.707 -0.065,-0.013 -0.187,-0.014 -0.275,-0.023 0.949,-0.341 1.964,-0.543 3.031,-0.543 z m 1.869,3 c 0.575,0.744 1.248,2.166 1.371,2.592 0.169,0.581 0.178,1.273 0.026,1.984 -0.143,0.669 -0.677,2.122 -1.147,3.119 -0.28,0.595 -0.96,1.893 -1.201,2.305 h 1.678 c 0.24,-0.401 0.654,-1.124 0.937,-1.684 0.324,-0.639 0.614,-1.276 0.813,-1.785 0.083,-0.213 0.194,-0.495 0.246,-0.627 0.051,-0.131 0.108,-0.24 0.127,-0.24 0.052,0 0.295,0.542 0.621,1.385 0.248,0.641 0.754,2.059 0.887,2.482 0.051,0.164 0.098,0.317 0.146,0.469 h 1.557 c -0.039,-0.131 -0.063,-0.217 -0.143,-0.469 -0.509,-1.595 -1.167,-3.335 -1.715,-4.539 -0.667,-1.466 -1.202,-2.534 -1.656,-3.303 -0.269,-0.456 -0.737,-1.389 -0.902,-1.689 z m -10.221,2 h 1.567 c 0.041,0.117 0.064,0.166 0.117,0.342 0.099,0.327 0.258,0.827 0.354,1.111 0.383,1.141 1.087,2.976 1.168,3.041 0.05,0.041 0.085,0.013 0.107,-0.086 0.01,-0.046 0.073,-0.224 0.139,-0.394 0.391,-1.013 1.359,-2.935 2.011,-3.996 l 0.012,-0.018 h 1.699 c -0.038,0.076 -0.042,0.099 -0.101,0.201 -0.302,0.527 -0.997,1.866 -1.252,2.414 -0.286,0.613 -0.567,1.306 -0.785,1.942 -0.345,1.002 -0.43,1.406 -0.43,2.021 0,0.744 0.175,1.315 0.617,2.002 0.096,0.149 0.19,0.3 0.209,0.336 0.059,0.112 0.589,0.874 0.723,1.041 0.021,0.026 0.007,0.023 0.021,0.043 h -1.67 c -0.046,-0.043 -0.095,-0.101 -0.488,-0.707 -0.725,-1.117 -1.345,-2.319 -2.123,-4.111 -0.723,-1.666 -1.266,-3.126 -1.785,-4.809 -0.063,-0.205 -0.084,-0.279 -0.11,-0.373 z"
     fill="#848484"
     fill-rule="nonzero"
     id="path9" />
  <path
     id="path1057"
     style="fill:#848484;fill-opacity:1"
     d="m 7.4998613,38.667977 v 2.11914 c 0,1.515 0.602827,2.967063 1.673828,4.039063 0.804,0.80325 1.8221397,1.342751 2.9199217,1.5625 0,0 0.002,0 0.002,0 0.182349,0.03644 0.366588,0.06547 0.552735,0.08398 0,0 0.002,0 0.002,0 0.186153,0.01845 0.37378,0.02734 0.5625,0.02734 h 0.002 21.57031 c 0.568124,0 1.128063,-0.0856 1.66211,-0.248047 0.8895,-0.27074 1.708905,-0.756406 2.378906,-1.425781 C 39.897171,43.754172 40.5,42.302109 40.5,40.787109 v -2.11914 z" />
</svg>
