<?xml version="1.0" encoding="UTF-8" standalone="no"?>
<svg
   style="clip-rule:evenodd;fill-rule:evenodd;stroke-linejoin:round;stroke-miterlimit:2"
   viewBox="0 0 64 64"
   version="1.1"
   id="svg25"
   sodipodi:docname="text-x-c++hdr.svg"
   inkscape:version="1.1.2 (0a00cf5339, 2022-02-04)"
   xmlns:inkscape="http://www.inkscape.org/namespaces/inkscape"
   xmlns:sodipodi="http://sodipodi.sourceforge.net/DTD/sodipodi-0.dtd"
   xmlns:xlink="http://www.w3.org/1999/xlink"
   xmlns="http://www.w3.org/2000/svg"
   xmlns:svg="http://www.w3.org/2000/svg">
  <sodipodi:namedview
     id="namedview27"
     pagecolor="#ffffff"
     bordercolor="#666666"
     borderopacity="1.0"
     inkscape:pageshadow="2"
     inkscape:pageopacity="0.0"
     inkscape:pagecheckerboard="0"
     showgrid="false"
     inkscape:zoom="10.65625"
     inkscape:cx="32"
     inkscape:cy="32"
     inkscape:window-width="1896"
     inkscape:window-height="1022"
     inkscape:window-x="12"
     inkscape:window-y="46"
     inkscape:window-maximized="1"
     inkscape:current-layer="svg25" />
  <path
     id="path2"
     style="fill:url(#linearGradient4902)"
     d="M 17.617188 1.46875 C 15.597188 1.46875 13.659469 2.2712188 12.230469 3.6992188 C 10.802469 5.1282186 10 7.0678906 10 9.0878906 L 10 12.988281 L 10 54.382812 C 10 56.402814 10.802469 58.340531 12.230469 59.769531 C 13.659469 61.197531 15.597187 62 17.617188 62 L 46.382812 62 C 48.402814 62 50.340531 61.197531 51.769531 59.769531 C 53.197531 58.340531 54 56.402814 54 54.382812 L 54 12.988281 L 54 9.0878906 C 54 7.0678906 53.197531 5.1282186 51.769531 3.6992188 C 50.340531 2.2712188 48.402813 1.46875 46.382812 1.46875 L 36.783203 1.46875 L 27.216797 1.46875 L 17.617188 1.46875 z " />
  <path
     id="path2-3"
     style="clip-rule:evenodd;fill:#5e4008;fill-opacity:1;fill-rule:evenodd;stroke-linecap:round;stroke-linejoin:round;stroke-miterlimit:2"
     d="m 10.000002,50.982422 v 3.398437 0.002 c 6.5e-5,0.251841 0.01244,0.501552 0.03711,0.75 v 0.002 c 0.02473,0.248442 0.06268,0.494885 0.111329,0.738281 v 0.002 c 0.04871,0.243391 0.109702,0.484016 0.18164,0.720703 v 0.002 c 0.072,0.236684 0.155456,0.468944 0.25,0.697266 v 0.002 c 0.09461,0.228323 0.199936,0.453573 0.316406,0.671875 v 0.002 c 0.116531,0.218305 0.245101,0.430096 0.382813,0.636719 v 0.002 c 0.137776,0.206628 0.287038,0.406326 0.445312,0.599609 v 0.002 c 0.158341,0.193289 0.327702,0.378358 0.50586,0.55664 v 0.002 c 0.714499,0.714 1.5571,1.271274 2.472656,1.650391 C 15.618681,61.799106 16.607188,62 17.617187,62 h 28.765625 c 1.010002,0 1.998508,-0.200473 2.914063,-0.580078 0.915554,-0.379117 1.758155,-0.936391 2.472656,-1.650391 v -0.002 C 53.19753,58.338626 54,56.400859 54,54.380859 v -3.398437 z" />
  <path
     d="m22.058 57.557c0-0.305 0.048-0.575 0.143-0.81 0.095-0.24 0.222-0.442 0.382-0.607s0.345-0.29 0.555-0.375c0.215-0.085 0.44-0.128 0.675-0.128 0.24 0 0.445 0.045 0.615 0.135 0.175 0.085 0.325 0.185 0.45 0.3l-0.307 0.398c-0.11-0.095-0.225-0.173-0.345-0.233-0.115-0.06-0.245-0.09-0.39-0.09-0.165 0-0.318 0.035-0.458 0.105-0.14 0.065-0.26 0.16-0.36 0.285s-0.18 0.275-0.24 0.45c-0.055 0.17-0.082 0.36-0.082 0.57s0.027 0.4 0.082 0.57 0.13 0.318 0.225 0.443c0.1 0.12 0.22 0.215 0.36 0.285 0.14 0.065 0.293 0.097 0.458 0.097 0.175 0 0.332-0.035 0.472-0.105 0.145-0.075 0.273-0.162 0.383-0.262l0.277 0.405c-0.165 0.145-0.35 0.26-0.555 0.345-0.2 0.085-0.41 0.127-0.63 0.127-0.24 0-0.465-0.042-0.675-0.127s-0.392-0.208-0.547-0.368c-0.15-0.165-0.27-0.365-0.36-0.6-0.085-0.24-0.128-0.51-0.128-0.81z"
     style="fill-rule:nonzero;fill:#fff"
     id="path4" />
  <path
     d="m26.746 57.13h-1.365v-0.465h1.365v-1.463h0.488v1.463h1.365v0.465h-1.365v1.462h-0.488v-1.462z"
     style="fill-rule:nonzero;fill:#fff"
     id="path6" />
  <path
     d="m30.467 57.13h-1.365v-0.465h1.365v-1.463h0.487v1.463h1.365v0.465h-1.365v1.462h-0.487v-1.462z"
     style="fill-rule:nonzero;fill:#fff"
     id="path8" />
  <path
     d="m34.286 54.032h0.615v1.455l-0.023 0.75c0.175-0.165 0.358-0.305 0.548-0.42 0.19-0.12 0.412-0.18 0.667-0.18 0.385 0 0.665 0.12 0.84 0.36 0.18 0.24 0.27 0.595 0.27 1.065v2.31h-0.615v-2.227c0-0.345-0.055-0.593-0.165-0.743-0.11-0.155-0.285-0.232-0.525-0.232-0.19 0-0.357 0.047-0.502 0.142s-0.31 0.235-0.495 0.42v2.64h-0.615v-5.34z"
     style="fill-rule:nonzero;fill:#fff"
     id="path10" />
  <path
     d="m38.11 57.557c0-0.295 0.043-0.56 0.128-0.795 0.09-0.24 0.207-0.442 0.352-0.607s0.313-0.293 0.503-0.383 0.39-0.135 0.6-0.135 0.392 0.038 0.547 0.113 0.313 0.177 0.473 0.307l-0.03-0.622v-1.403h0.622v5.34h-0.51l-0.052-0.427h-0.023c-0.145 0.14-0.312 0.262-0.502 0.367-0.185 0.1-0.385 0.15-0.6 0.15-0.46 0-0.828-0.165-1.103-0.495-0.27-0.33-0.405-0.8-0.405-1.41zm0.638-7e-3c0 0.44 0.087 0.782 0.262 1.027s0.423 0.368 0.743 0.368c0.17 0 0.33-0.04 0.48-0.12 0.15-0.085 0.3-0.213 0.45-0.383v-1.905c-0.155-0.14-0.305-0.237-0.45-0.292-0.14-0.06-0.285-0.09-0.435-0.09-0.145 0-0.283 0.035-0.413 0.105-0.125 0.065-0.235 0.16-0.33 0.285-0.095 0.12-0.17 0.265-0.225 0.435s-0.082 0.36-0.082 0.57z"
     style="fill-rule:nonzero;fill:#fff"
     id="path12" />
  <path
     d="m42.533 55.727h0.51l0.053 0.66h0.022c0.125-0.23 0.275-0.412 0.45-0.547 0.18-0.135 0.375-0.203 0.585-0.203 0.145 0 0.275 0.025 0.39 0.075l-0.12 0.54c-0.06-0.02-0.115-0.035-0.165-0.045s-0.112-0.015-0.187-0.015c-0.155 0-0.318 0.063-0.488 0.188-0.165 0.125-0.31 0.342-0.435 0.652v2.34h-0.615v-3.645z"
     style="fill-rule:nonzero;fill:#fff"
     id="path14" />
  <path
     d="m21.022 16.237h2.905v9.625h10.675v-9.625h2.94v22.96h-2.94v-10.815h-10.675v10.815h-2.905v-22.96zm21.978 10.49h2.479v1.042h-2.479v2.479h-1.041v-2.479h-2.48v-1.042h2.48v-2.479h1.041v2.479zm0-8.248h2.479v1.042h-2.479v2.479h-1.041v-2.479h-2.48v-1.042h2.48v-2.479h1.041v2.479z"
     style="fill-rule:nonzero;fill:#5e4008"
     id="path16" />
  <defs
     id="defs23">
    <linearGradient
       id="_Linear1"
       x2="1"
       gradientTransform="matrix(1.07196,-49.7469,49.7469,1.07196,251.234,55.94)"
       gradientUnits="userSpaceOnUse">
      <stop
         style="stop-color:#b87003"
         offset="0"
         id="stop18" />
      <stop
         style="stop-color:#cfa532"
         offset="1"
         id="stop20" />
    </linearGradient>
    <linearGradient
       inkscape:collect="always"
       xlink:href="#_Linear1"
       id="linearGradient4902"
       gradientUnits="userSpaceOnUse"
       gradientTransform="matrix(1.07196,-49.7469,49.7469,1.07196,251.234,55.94)"
       x2="1" />
  </defs>
</svg>
