<?xml version="1.0" encoding="UTF-8" standalone="no"?>
<svg
   clip-rule="evenodd"
   fill-rule="evenodd"
   stroke-linejoin="round"
   stroke-miterlimit="2"
   viewBox="0 0 48 48"
   version="1.1"
   id="svg11"
   sodipodi:docname="text-x-eiffel.svg"
   inkscape:version="1.1.2 (0a00cf5339, 2022-02-04)"
   xmlns:inkscape="http://www.inkscape.org/namespaces/inkscape"
   xmlns:sodipodi="http://sodipodi.sourceforge.net/DTD/sodipodi-0.dtd"
   xmlns:xlink="http://www.w3.org/1999/xlink"
   xmlns="http://www.w3.org/2000/svg"
   xmlns:svg="http://www.w3.org/2000/svg">
  <defs
     id="defs15">
    <linearGradient
       inkscape:collect="always"
       xlink:href="#a"
       id="linearGradient3426"
       gradientUnits="userSpaceOnUse"
       gradientTransform="matrix(0,-37.2142,37.2142,0,133.41,38.316)"
       x2="1" />
  </defs>
  <sodipodi:namedview
     id="namedview13"
     pagecolor="#ffffff"
     bordercolor="#666666"
     borderopacity="1.0"
     inkscape:pageshadow="2"
     inkscape:pageopacity="0.0"
     inkscape:pagecheckerboard="0"
     showgrid="false"
     inkscape:zoom="14.208333"
     inkscape:cx="24"
     inkscape:cy="24"
     inkscape:window-width="1896"
     inkscape:window-height="1022"
     inkscape:window-x="12"
     inkscape:window-y="46"
     inkscape:window-maximized="1"
     inkscape:current-layer="svg11" />
  <linearGradient
     id="a"
     x2="1"
     gradientTransform="matrix(0,-37.2142,37.2142,0,133.41,38.316)"
     gradientUnits="userSpaceOnUse">
    <stop
       stop-color="#5e1e9b"
       offset="0"
       id="stop2" />
    <stop
       stop-color="#d07edd"
       offset="1"
       id="stop4" />
  </linearGradient>
  <path
     id="path7"
     style="fill:url(#linearGradient3426)"
     d="M 13.214844 1.1015625 C 11.699844 1.1015625 10.245828 1.7043906 9.1738281 2.7753906 C 8.1028281 3.8473906 7.5 5.2994531 7.5 6.8144531 L 7.5 10.283203 L 7.5 40.787109 C 7.5 42.302109 8.1028281 43.754172 9.1738281 44.826172 C 9.9778281 45.629422 10.995967 46.168923 12.09375 46.388672 C 12.094369 46.388796 12.095084 46.388548 12.095703 46.388672 C 12.278052 46.42511 12.462292 46.454145 12.648438 46.472656 C 12.649081 46.47272 12.649747 46.472592 12.650391 46.472656 C 12.836546 46.491104 13.024169 46.5 13.212891 46.5 C 13.213544 46.5 13.21419 46.5 13.214844 46.5 L 34.785156 46.5 C 35.353281 46.5 35.913222 46.414397 36.447266 46.251953 C 37.336767 45.981213 38.156172 45.495547 38.826172 44.826172 C 39.897172 43.754172 40.5 42.302109 40.5 40.787109 L 40.5 10.283203 L 40.5 6.8144531 C 40.5 5.2994531 39.897172 3.8473906 38.826172 2.7753906 C 37.754172 1.7043906 36.300156 1.1015625 34.785156 1.1015625 L 28.402344 1.1015625 L 19.597656 1.1015625 L 13.214844 1.1015625 z " />
  <path
     d="m29.551 13.332c-1.447.331-3.499.828-5.08 1.093l1.278 1.49zm1.816.1.942 3.609 2.624-1.159zm-.572.231-2.119 4.934 3.028-1.325zm-.706.067-3.936 2.682 1.85 2.185zm-6.122 1.059-2.389 4.04 3.667-2.517zm11.033 1.722-2.556 1.126.975 3.808zm-9.351.265-3.903 2.682 5.719-.53zm6.223 1.093-3.129 1.357 4.138 2.616zm-4.878 1.655-5.853.53 1.614 2.45zm1.615.265 1.042 4.073 3.095-1.457zm-1.211.199-4.306 3.013 1.816 2.748.068-.132v.033zm.639.099-2.456 5.696 3.499-1.656zm-7.401.298-3.666 6.192 5.281-3.708zm12.312 2.583-3.162 1.49 1.211 4.669zm-10.361.397-5.382 3.808 7.232-.993zm6.661 1.358-3.633 1.722 4.844 2.98zm-5.382 2.086-7.3.993 2.052 2.848zm1.715.232 1.547 4.668 3.331-1.655zm-.605.165-2.557 6.126h1.48l2.691-1.358zm-.673.033-5.315 3.908 1.547 2.185h1.111zm-8.241.895-3.062 5.198h1.951l3.163-2.318zm14.464 2.549-3.195 1.623.336 1.026h2.052zm-12.043.828-2.489 1.821h3.801zm8.275 1.06-1.513.761h1.783z"
     fill="#ffffff"
     fill-opacity=".5"
     fill-rule="nonzero"
     id="path9" />
  <path
     id="path1057"
     style="fill:#42156d;fill-opacity:1"
     d="m 7.499862,38.667977 v 2.11914 c 0,1.515 0.602827,2.967063 1.673828,4.039063 0.804,0.80325 1.822139,1.342751 2.919921,1.5625 0,0 0.002,0 0.002,0 0.182349,0.03644 0.366588,0.06547 0.552735,0.08398 0,0 0.002,0 0.002,0 0.186153,0.01845 0.37378,0.02734 0.5625,0.02734 h 0.002 21.57031 c 0.568124,0 1.128063,-0.0856 1.66211,-0.248047 0.8895,-0.27074 1.708905,-0.756406 2.378906,-1.425781 C 39.897171,43.754172 40.5,42.302109 40.5,40.787109 v -2.11914 z" />
</svg>
