<?xml version="1.0" encoding="UTF-8" standalone="no"?>
<svg
   style="clip-rule:evenodd;fill-rule:evenodd;stroke-linejoin:round;stroke-miterlimit:2"
   viewBox="0 0 64 64"
   version="1.1"
   id="svg15"
   sodipodi:docname="text-rust.svg"
   inkscape:version="1.1.2 (0a00cf5339, 2022-02-04)"
   xmlns:inkscape="http://www.inkscape.org/namespaces/inkscape"
   xmlns:sodipodi="http://sodipodi.sourceforge.net/DTD/sodipodi-0.dtd"
   xmlns:xlink="http://www.w3.org/1999/xlink"
   xmlns="http://www.w3.org/2000/svg"
   xmlns:svg="http://www.w3.org/2000/svg">
  <sodipodi:namedview
     id="namedview17"
     pagecolor="#ffffff"
     bordercolor="#666666"
     borderopacity="1.0"
     inkscape:pageshadow="2"
     inkscape:pageopacity="0.0"
     inkscape:pagecheckerboard="0"
     showgrid="false"
     inkscape:zoom="10.65625"
     inkscape:cx="32"
     inkscape:cy="32"
     inkscape:window-width="1896"
     inkscape:window-height="1022"
     inkscape:window-x="12"
     inkscape:window-y="46"
     inkscape:window-maximized="1"
     inkscape:current-layer="svg15" />
  <path
     id="path2"
     style="fill:url(#linearGradient4346)"
     d="M 17.617188 1.46875 C 15.597188 1.46875 13.659469 2.2712188 12.230469 3.6992188 C 10.802469 5.1282186 10 7.0678906 10 9.0878906 L 10 14.123047 L 10 54.382812 C 10 56.402814 10.802469 58.340531 12.230469 59.769531 C 13.659469 61.197531 15.597187 62 17.617188 62 L 46.382812 62 C 48.402814 62 50.340531 61.197531 51.769531 59.769531 C 53.197531 58.340531 54 56.402814 54 54.382812 L 54 14.123047 L 54 9.0878906 C 54 7.0678906 53.197531 5.1282186 51.769531 3.6992188 C 50.340531 2.2712188 48.402813 1.46875 46.382812 1.46875 L 38.175781 1.46875 L 25.824219 1.46875 L 17.617188 1.46875 z " />
  <path
     id="path2-3"
     style="clip-rule:evenodd;fill:#5a3014;fill-opacity:1;fill-rule:evenodd;stroke-linecap:round;stroke-linejoin:round;stroke-miterlimit:2"
     d="m 10.000002,50.982422 v 3.398437 0.002 c 6.5e-5,0.251841 0.01244,0.501552 0.03711,0.75 v 0.002 c 0.02473,0.248442 0.06268,0.494885 0.111329,0.738281 v 0.002 c 0.04871,0.243391 0.109702,0.484016 0.18164,0.720703 v 0.002 c 0.072,0.236684 0.155456,0.468944 0.25,0.697266 v 0.002 c 0.09461,0.228323 0.199936,0.453573 0.316406,0.671875 v 0.002 c 0.116531,0.218305 0.245101,0.430096 0.382813,0.636719 v 0.002 c 0.137776,0.206628 0.287038,0.406326 0.445312,0.599609 v 0.002 c 0.158341,0.193289 0.327702,0.378358 0.50586,0.55664 v 0.002 c 0.714499,0.714 1.5571,1.271274 2.472656,1.650391 C 15.618681,61.799106 16.607188,62 17.617187,62 h 28.765625 c 1.010002,0 1.998508,-0.200473 2.914063,-0.580078 0.915554,-0.379117 1.758155,-0.936391 2.472656,-1.650391 v -0.002 C 53.19753,58.338626 54,56.400859 54,54.380859 v -3.398437 z" />
  <path
     d="m26.455 29.681h-3.266v5.623h-1.842v-13.9h4.602c1.565 0 2.768 0.356 3.608 1.069 0.847 0.713 1.27 1.75 1.27 3.112 0 0.865-0.235 1.62-0.706 2.263-0.465 0.643-1.114 1.123-1.948 1.441l3.265 5.9v0.115h-1.966l-3.017-5.623zm-3.266-1.5h2.817c0.91 0 1.632-0.235 2.167-0.706 0.541-0.471 0.812-1.101 0.812-1.89 0-0.859-0.258-1.518-0.774-1.976-0.509-0.459-1.248-0.691-2.215-0.697h-2.807v5.269zm14.639 1.122c-1.577-0.453-2.726-1.009-3.448-1.667-0.715-0.664-1.072-1.481-1.072-2.452 0-1.098 0.437-2.005 1.312-2.72 0.881-0.721 2.024-1.082 3.429-1.082 0.957 0 1.81 0.185 2.557 0.555 0.753 0.371 1.334 0.881 1.743 1.532 0.415 0.651 0.623 1.363 0.623 2.136h-1.849c0-0.843-0.268-1.503-0.805-1.982-0.536-0.485-1.293-0.728-2.27-0.728-0.907 0-1.615 0.201-2.126 0.603-0.504 0.396-0.756 0.948-0.756 1.657 0 0.569 0.239 1.051 0.718 1.446 0.485 0.39 1.306 0.748 2.461 1.073 1.163 0.326 2.069 0.687 2.72 1.082 0.658 0.39 1.143 0.847 1.456 1.37 0.32 0.523 0.48 1.14 0.48 1.849 0 1.13-0.441 2.037-1.322 2.72-0.881 0.677-2.06 1.015-3.535 1.015-0.957 0-1.851-0.182-2.681-0.546-0.831-0.371-1.473-0.875-1.926-1.513-0.447-0.639-0.67-1.364-0.67-2.175h1.849c0 0.843 0.31 1.511 0.929 2.002 0.625 0.485 1.459 0.728 2.5 0.728 0.97 0 1.713-0.198 2.23-0.594 0.518-0.396 0.777-0.935 0.777-1.618s-0.24-1.21-0.719-1.58c-0.479-0.377-1.347-0.748-2.605-1.112v1e-3z"
     style="fill-opacity:.58;fill-rule:nonzero"
     id="path4" />
  <path
     d="m27.531 55.067c-0.109-0.019-0.228-0.028-0.355-0.028-0.474 0-0.796 0.202-0.965 0.606v3h-0.723v-4.227h0.703l0.012 0.488c0.237-0.377 0.573-0.566 1.008-0.566 0.14 0 0.247 0.018 0.32 0.055v0.672zm3.269 3.16c-0.281 0.331-0.693 0.496-1.238 0.496-0.45 0-0.793-0.13-1.03-0.39-0.235-0.263-0.353-0.652-0.356-1.165v-2.75h0.722v2.73c0 0.641 0.261 0.962 0.782 0.962 0.552 0 0.919-0.206 1.101-0.618v-3.074h0.723v4.227h-0.688l-0.016-0.418zm4.259-0.703c0-0.195-0.074-0.346-0.223-0.453-0.146-0.11-0.403-0.204-0.77-0.282-0.364-0.078-0.654-0.172-0.87-0.281-0.214-0.109-0.373-0.239-0.477-0.39-0.102-0.151-0.153-0.331-0.153-0.54 0-0.347 0.146-0.64 0.438-0.879 0.294-0.239 0.669-0.359 1.125-0.359 0.479 0 0.867 0.124 1.164 0.371 0.3 0.247 0.45 0.564 0.45 0.95h-0.727c0-0.199-0.085-0.369-0.254-0.512-0.167-0.143-0.378-0.215-0.633-0.215-0.263 0-0.469 0.057-0.617 0.172-0.149 0.115-0.223 0.264-0.223 0.449 0 0.175 0.069 0.306 0.207 0.394 0.138 0.089 0.387 0.173 0.746 0.254 0.362 0.081 0.655 0.177 0.88 0.29 0.223 0.111 0.388 0.247 0.495 0.406 0.109 0.156 0.164 0.347 0.164 0.574 0 0.377-0.151 0.681-0.453 0.91-0.302 0.227-0.694 0.34-1.176 0.34-0.338 0-0.637-0.06-0.898-0.18-0.26-0.12-0.464-0.287-0.613-0.5-0.147-0.216-0.22-0.449-0.22-0.7h0.724c0.013 0.243 0.11 0.436 0.289 0.58 0.182 0.14 0.421 0.21 0.718 0.21 0.273 0 0.492-0.055 0.657-0.164 0.167-0.112 0.25-0.26 0.25-0.445zm2.644-4.129v1.023h0.79v0.559h-0.79v2.62c0 0.17 0.035 0.298 0.106 0.384 0.07 0.083 0.19 0.125 0.359 0.125 0.083 0 0.198-0.016 0.344-0.047v0.586c-0.19 0.052-0.375 0.078-0.555 0.078-0.323 0-0.566-0.098-0.73-0.293-0.165-0.195-0.247-0.473-0.247-0.832v-2.621h-0.77v-0.559h0.77v-1.023h0.723z"
     style="fill-rule:nonzero;fill:#fff"
     id="path6" />
  <defs
     id="defs13">
    <linearGradient
       id="_Linear1"
       x2="1"
       gradientTransform="matrix(0,-49.619,49.619,0,104.99,51.088)"
       gradientUnits="userSpaceOnUse">
      <stop
         style="stop-color:#c15721"
         offset="0"
         id="stop8" />
      <stop
         style="stop-color:#fc9f47"
         offset="1"
         id="stop10" />
    </linearGradient>
    <linearGradient
       inkscape:collect="always"
       xlink:href="#_Linear1"
       id="linearGradient4346"
       gradientUnits="userSpaceOnUse"
       gradientTransform="matrix(0,-49.619,49.619,0,104.99,51.088)"
       x2="1" />
  </defs>
</svg>
