<?xml version="1.0" encoding="UTF-8" standalone="no"?>
<svg
   clip-rule="evenodd"
   fill-rule="evenodd"
   stroke-linejoin="round"
   stroke-miterlimit="2"
   viewBox="0 0 48 48"
   version="1.1"
   id="svg11"
   sodipodi:docname="text-x-ocaml.svg"
   inkscape:version="1.1.2 (0a00cf5339, 2022-02-04)"
   xmlns:inkscape="http://www.inkscape.org/namespaces/inkscape"
   xmlns:sodipodi="http://sodipodi.sourceforge.net/DTD/sodipodi-0.dtd"
   xmlns:xlink="http://www.w3.org/1999/xlink"
   xmlns="http://www.w3.org/2000/svg"
   xmlns:svg="http://www.w3.org/2000/svg">
  <defs
     id="defs15">
    <linearGradient
       inkscape:collect="always"
       xlink:href="#a"
       id="linearGradient3228"
       gradientUnits="userSpaceOnUse"
       gradientTransform="matrix(0,-37.2142,37.2142,0,133.41,38.316)"
       x2="1" />
  </defs>
  <sodipodi:namedview
     id="namedview13"
     pagecolor="#ffffff"
     bordercolor="#666666"
     borderopacity="1.0"
     inkscape:pageshadow="2"
     inkscape:pageopacity="0.0"
     inkscape:pagecheckerboard="0"
     showgrid="false"
     inkscape:zoom="14.208333"
     inkscape:cx="28.539589"
     inkscape:cy="23.929619"
     inkscape:window-width="942"
     inkscape:window-height="1022"
     inkscape:window-x="966"
     inkscape:window-y="46"
     inkscape:window-maximized="1"
     inkscape:current-layer="svg11" />
  <linearGradient
     id="a"
     x2="1"
     gradientTransform="matrix(0,-37.2142,37.2142,0,133.41,38.316)"
     gradientUnits="userSpaceOnUse">
    <stop
       stop-color="#d76d00"
       offset="0"
       id="stop2" />
    <stop
       stop-color="#ffd455"
       offset="1"
       id="stop4" />
  </linearGradient>
  <path
     id="path7"
     style="fill:url(#linearGradient3228)"
     d="M 13.214844 1.1015625 C 11.699844 1.1015625 10.245828 1.7043906 9.1738281 2.7753906 C 8.1028281 3.8473906 7.5 5.2994531 7.5 6.8144531 L 7.5 9.8515625 L 7.5 40.787109 C 7.5 42.302109 8.1028281 43.754172 9.1738281 44.826172 C 9.9778281 45.629422 10.995967 46.168923 12.09375 46.388672 C 12.094369 46.388796 12.095084 46.388548 12.095703 46.388672 C 12.278052 46.42511 12.462292 46.454145 12.648438 46.472656 C 12.649081 46.47272 12.649747 46.472592 12.650391 46.472656 C 12.836546 46.491104 13.024169 46.5 13.212891 46.5 C 13.213544 46.5 13.21419 46.5 13.214844 46.5 L 34.785156 46.5 C 35.353281 46.5 35.913222 46.414397 36.447266 46.251953 C 37.336767 45.981213 38.156172 45.495547 38.826172 44.826172 C 39.897172 43.754172 40.5 42.302109 40.5 40.787109 L 40.5 9.8515625 L 40.5 6.8144531 C 40.5 5.2994531 39.897172 3.8473906 38.826172 2.7753906 C 37.754172 1.7043906 36.300156 1.1015625 34.785156 1.1015625 L 30.773438 1.1015625 L 17.226562 1.1015625 L 13.214844 1.1015625 z " />
  <path
     d="m 31.646,10.968713 c 0.038,0.011 0.148,0.056 0.246,0.101 0.207,0.095 0.648,0.101 0.982,0.044 0.13,-0.019 0.329,-0.035 0.492,-0.037 0.322,-10e-4 0.352,0.008 0.541,0.169 0.151,0.131 0.324,0.857 0.507,0.896 0.177,0.037 0.588,0.062 1.401,0.085 0.373,0.012 0.717,0.028 0.765,0.037 0.149,0.029 0.171,-0.211 0.468,0.278 0.041,0.068 0.155,0.208 0.255,0.315 0.107,0.114 0.189,0.219 0.203,0.262 0.016,0.043 0.022,0.132 0.016,0.227 -0.01,0.152 -0.012,-0.213 -0.081,-0.153 -0.084,0.07 -0.086,0.087 -0.029,0.163 0.051,0.07 0.07,0.254 0.037,0.355 -0.047,0.142 -0.242,0.249 -0.521,0.286 -0.191,0.027 -0.392,-0.002 -0.592,-0.088 -0.087,-0.036 -0.169,-0.068 -0.181,-0.068 -0.014,0 -0.083,0.045 -0.156,0.1 -0.143,0.106 -0.395,0.237 -0.725,0.374 -0.12,0.051 -0.26,0.115 -0.315,0.144 l -0.098,0.053 -0.034,0.155 c -0.041,0.194 -0.118,0.359 -0.36,0.777 -0.354,0.61 -0.334,0.521 -0.403,1.923 -0.033,0.688 -0.122,1.259 -0.326,2.117 -0.496,2.084 -1.055,3.267 -1.891,4.003 -0.452,0.397 -0.702,0.511 -2.415,1.1 l -0.197,0.068 -0.013,0.415 c -0.014,0.439 -0.057,0.505 -0.156,1.158 -0.096,0.645 -0.135,0.952 -0.135,1.253 0.002,0.29 0.011,0.364 0.108,0.709 l 0.053,0.195 -0.012,0.592 c -0.008,0.393 -0.006,0.631 0.008,0.709 0.025,0.132 0.36,1.327 0.464,1.653 0.069,0.216 0.138,0.359 0.476,0.998 0.201,0.381 0.262,0.531 0.299,0.727 0.033,0.177 0.114,0.268 0.328,0.367 0.168,0.076 0.333,0.111 0.547,0.111 0.219,0 0.478,0.037 0.559,0.076 0.039,0.021 0.082,0.06 0.094,0.085 0.065,0.14 0.053,0.328 -0.027,0.423 -0.044,0.051 -0.063,0.059 -0.132,0.053 l -0.081,-0.006 -0.011,0.103 c -0.034,0.264 -0.183,0.307 -1.021,0.289 -0.539,-0.011 -0.697,-0.031 -0.872,-0.106 -0.11,-0.049 -0.21,-0.148 -0.269,-0.268 -0.049,-0.1 -0.059,-0.23 -0.041,-0.651 0.004,-0.107 -0.006,-0.177 -0.034,-0.262 -0.075,-0.218 -0.159,-0.525 -0.315,-1.144 -0.165,-0.651 -0.234,-0.9 -0.491,-1.772 -0.156,-0.524 -0.158,-0.528 -0.256,-0.641 -0.208,-0.241 -0.342,-0.62 -0.405,-1.161 -0.035,-0.29 -0.077,-0.422 -0.244,-0.768 -0.201,-0.417 -0.295,-0.607 -0.472,-1.319 -0.173,-0.688 -0.344,-0.839 -0.566,-1.354 -0.211,-0.493 -0.366,-0.711 -0.5,-0.711 -0.081,0 -0.187,0.109 -0.279,0.282 -0.085,0.159 -0.126,0.26 -0.252,0.612 -0.187,0.52 -0.413,1.07 -0.875,2.117 -0.476,1.08 -0.524,1.237 -0.59,1.923 -0.05,0.491 -0.089,0.623 -0.325,1.09 l -0.083,0.161 0.01,1.381 c 0.012,1.729 0.038,2.041 0.185,2.329 0.039,0.075 0.079,0.151 0.085,0.167 0.008,0.015 0.082,0.058 0.167,0.091 0.204,0.084 0.342,0.177 0.503,0.34 0.213,0.214 0.284,0.406 0.191,0.515 -0.049,0.06 -0.179,0.103 -0.316,0.103 -0.154,0 -0.168,0.015 -0.122,0.124 0.068,0.159 0.006,0.179 -0.512,0.159 -0.773,-0.029 -1.074,-0.14 -1.292,-0.476 -0.073,-0.116 -0.071,-0.184 0.016,-0.324 0.13,-0.208 0.169,-0.282 0.157,-0.293 -0.006,-0.006 -0.212,-0.02 -0.458,-0.028 -0.468,-0.015 -0.584,-0.033 -0.736,-0.106 -0.214,-0.105 -0.254,-0.241 -0.163,-0.585 0.01,-0.035 -0.01,-0.066 -0.094,-0.146 -0.197,-0.188 -0.282,-0.39 -0.457,-1.084 -0.183,-0.732 -0.307,-1.068 -0.627,-1.689 -0.891,-1.723 -0.905,-1.762 -1.056,-2.867 -0.128,-0.944 -0.225,-1.31 -0.74,-2.815 -0.145,-0.427 -0.336,-1.004 -0.423,-1.282 -0.193,-0.616 -0.259,-0.789 -0.344,-0.878 -0.061,-0.064 -0.073,-0.068 -0.153,-0.06 -0.24,0.027 -0.319,0.219 -0.252,0.623 0.029,0.187 0.031,0.649 0.002,0.904 -0.03,0.27 -0.104,0.472 -0.392,1.043 -0.369,0.74 -0.468,1.027 -0.562,1.631 -0.047,0.301 -0.045,0.505 0.006,0.618 0.067,0.146 0.09,0.301 0.08,0.542 -0.015,0.336 -0.074,0.579 -0.271,1.113 -0.037,0.099 -0.045,0.181 -0.061,0.544 -0.016,0.396 -0.047,0.907 -0.098,1.573 -0.01,0.15 -0.024,0.693 -0.032,1.098 -0.016,1.007 0.004,1.156 0.181,1.389 0.089,0.119 0.309,0.331 0.492,0.476 0.309,0.247 0.374,0.338 0.358,0.503 -0.014,0.142 -0.073,0.187 -0.246,0.187 -0.173,0 -0.191,0.013 -0.191,0.14 0,0.101 0,0.127 -0.075,0.15 -0.198,0.066 -1.007,0.088 -1.191,0.033 -0.124,-0.035 -0.268,-0.181 -0.319,-0.294 -0.059,-0.124 -0.049,-0.315 0.023,-0.515 0.158,-0.431 0.17,-0.503 0.242,-1.478 0.095,-1.259 0.101,-1.471 0.101,-2.281 -0.002,-0.75 -0.006,-0.853 -0.065,-1.486 -0.12,-1.306 -0.122,-1.471 -0.022,-1.972 0.081,-0.408 0.104,-0.73 0.091,-1.253 -0.008,-0.34 -0.024,-0.518 -0.061,-0.747 -0.144,-0.878 -0.616,-2.887 -0.701,-2.978 -0.023,-0.025 -0.129,0.031 -0.334,0.182 -0.246,0.181 -0.639,0.412 -1.056,0.622 -0.352,0.179 -0.47,0.218 -0.5,0.171 -0.045,-0.072 0,-0.288 0.103,-0.486 0.133,-0.264 0.348,-0.468 0.775,-0.744 0.151,-0.099 0.308,-0.217 0.35,-0.262 0.043,-0.046 0.118,-0.167 0.167,-0.27 l 0.092,-0.188 0.008,-0.243 c 0.002,-0.134 -0.01,-0.519 -0.027,-0.855 -0.073,-1.303 -0.002,-1.744 0.452,-2.806 0.206,-0.488 0.484,-1.028 0.661,-1.292 0.122,-0.183 0.232,-0.313 0.45,-0.534 0.396,-0.4 0.449,-0.494 0.639,-1.129 0.303,-1.002 0.486,-1.615 0.575,-1.767 0.08,-0.134 0.326,-0.367 0.533,-0.503 0.2,-0.132 0.529,-0.293 0.692,-0.342 0.234,-0.07 0.649,-0.056 0.836,0.026 0.047,0.021 0.128,0.075 0.177,0.12 0.191,0.175 0.336,0.414 0.787,1.299 0.167,0.327 0.33,0.697 0.364,0.736 0.055,0.066 0.071,0.074 0.153,0.074 0.112,0 0.165,-0.033 0.344,-0.208 0.313,-0.309 0.415,-1.094 0.612,-2.055 0.112,-0.542 0.148,-0.66 0.25,-0.812 0.153,-0.227 0.389,-0.383 0.716,-0.472 0.139,-0.039 0.206,-0.043 0.58,-0.045 0.334,0 0.458,0.008 0.586,0.035 0.401,0.086 0.716,0.255 1.033,0.556 0.316,0.303 0.458,0.528 0.623,1.002 0.215,0.614 0.305,1.268 0.905,1.746 0.421,0.338 0.753,0.767 1.241,1.612 0.433,0.75 0.72,1.414 1.054,1.723 0.386,0.356 0.204,0.426 0.784,0.427 0.524,0 0.718,-0.066 0.848,-0.285 0.148,-0.245 0.323,-1.985 0.323,-2.976 0,-0.489 -0.02,-0.646 -0.118,-0.899 -0.171,-0.443 -0.183,-0.802 -0.045,-1.224 0.06,-0.184 0.098,-0.262 0.383,-0.786 0.303,-0.554 0.329,-0.595 0.437,-0.713 0.126,-0.138 0.257,-0.204 0.425,-0.212 0.07,-0.004 0.159,0.002 0.196,0.014 z m -10.9,13.783 c -0.055,0.144 -0.055,1.097 0,1.647 0.03,0.282 0.026,0.715 -0.009,1.274 -0.034,0.515 -0.028,1.026 0.011,1.377 0.055,0.467 0.201,1.152 0.421,1.978 0.289,1.082 0.488,1.589 0.793,2.01 0.228,0.317 0.749,0.783 0.859,0.767 0.034,-0.005 0.05,-0.04 0.097,-0.219 0.179,-0.692 0.238,-1.136 0.238,-1.797 0,-0.553 -0.022,-0.786 -0.118,-1.222 -0.185,-0.841 -0.201,-1.25 -0.073,-1.827 0.049,-0.222 0.053,-0.278 0.053,-0.641 0,-0.27 -0.01,-0.474 -0.033,-0.632 -0.112,-0.784 -0.126,-0.961 -0.144,-1.839 -0.008,-0.381 -0.02,-0.703 -0.025,-0.713 -0.008,-0.013 -0.055,-0.004 -0.13,0.027 -0.445,0.175 -1.037,0.128 -1.534,-0.122 -0.128,-0.064 -0.284,-0.119 -0.341,-0.12 -0.031,0 -0.051,0.015 -0.065,0.052 z"
     fill="#ffffff"
     fill-opacity="0.5"
     fill-rule="nonzero"
     id="path9" />
  <path
     id="path1057"
     style="fill:#98540e;fill-opacity:1"
     d="m 7.4998625,38.667977 v 2.11914 c 0,1.515 0.602827,2.967063 1.6738277,4.039063 0.8039998,0.80325 1.8221388,1.342751 2.9199208,1.5625 0,0 0.002,0 0.002,0 0.182349,0.03644 0.366588,0.06547 0.552735,0.08398 0,0 0.002,0 0.002,0 0.186153,0.01845 0.37378,0.02734 0.5625,0.02734 h 0.002 21.57031 c 0.568124,0 1.128063,-0.0856 1.66211,-0.248047 0.8895,-0.27074 1.708905,-0.756406 2.378906,-1.425781 C 39.897171,43.754172 40.5,42.302109 40.5,40.787109 v -2.11914 z" />
</svg>
