<?xml version="1.0" encoding="UTF-8" standalone="no"?>
<svg
   style="clip-rule:evenodd;fill-rule:evenodd;stroke-linejoin:round;stroke-miterlimit:2"
   viewBox="0 0 64 64"
   version="1.1"
   id="svg21"
   sodipodi:docname="text-x-c.svg"
   inkscape:version="1.1.2 (0a00cf5339, 2022-02-04)"
   xmlns:inkscape="http://www.inkscape.org/namespaces/inkscape"
   xmlns:sodipodi="http://sodipodi.sourceforge.net/DTD/sodipodi-0.dtd"
   xmlns:xlink="http://www.w3.org/1999/xlink"
   xmlns="http://www.w3.org/2000/svg"
   xmlns:svg="http://www.w3.org/2000/svg">
  <sodipodi:namedview
     id="namedview23"
     pagecolor="#ffffff"
     bordercolor="#666666"
     borderopacity="1.0"
     inkscape:pageshadow="2"
     inkscape:pageopacity="0.0"
     inkscape:pagecheckerboard="0"
     showgrid="false"
     inkscape:zoom="10.65625"
     inkscape:cx="32"
     inkscape:cy="32"
     inkscape:window-width="1896"
     inkscape:window-height="1022"
     inkscape:window-x="12"
     inkscape:window-y="46"
     inkscape:window-maximized="1"
     inkscape:current-layer="svg21" />
  <path
     id="path2"
     style="fill:url(#linearGradient4742)"
     d="M 17.617188 1.46875 C 15.597188 1.46875 13.659469 2.2712188 12.230469 3.6992188 C 10.802469 5.1282186 10 7.0678906 10 9.0878906 L 10 12.855469 L 10 54.382812 C 10 56.402814 10.802469 58.340531 12.230469 59.769531 C 13.659469 61.197531 15.597187 62 17.617188 62 L 46.382812 62 C 48.402814 62 50.340531 61.197531 51.769531 59.769531 C 53.197531 58.340531 54 56.402814 54 54.382812 L 54 12.855469 L 54 9.0878906 C 54 7.0678906 53.197531 5.1282186 51.769531 3.6992188 C 50.340531 2.2712188 48.402813 1.46875 46.382812 1.46875 L 36.773438 1.46875 L 27.226562 1.46875 L 17.617188 1.46875 z " />
  <path
     id="path2-3"
     style="clip-rule:evenodd;fill:#5e4008;fill-opacity:1;fill-rule:evenodd;stroke-linecap:round;stroke-linejoin:round;stroke-miterlimit:2"
     d="m 10.000002,50.982422 v 3.398437 0.002 c 6.5e-5,0.251841 0.01244,0.501552 0.03711,0.75 v 0.002 c 0.02473,0.248442 0.06268,0.494885 0.111329,0.738281 v 0.002 c 0.04871,0.243391 0.109702,0.484016 0.18164,0.720703 v 0.002 c 0.072,0.236684 0.155456,0.468944 0.25,0.697266 v 0.002 c 0.09461,0.228323 0.199936,0.453573 0.316406,0.671875 v 0.002 c 0.116531,0.218305 0.245101,0.430096 0.382813,0.636719 v 0.002 c 0.137776,0.206628 0.287038,0.406326 0.445312,0.599609 v 0.002 c 0.158341,0.193289 0.327702,0.378358 0.50586,0.55664 v 0.002 c 0.714499,0.714 1.5571,1.271274 2.472656,1.650391 C 15.618681,61.799106 16.607188,62 17.617187,62 h 28.765625 c 1.010002,0 1.998508,-0.200473 2.914063,-0.580078 0.915554,-0.379117 1.758155,-0.936391 2.472656,-1.650391 v -0.002 C 53.19753,58.338626 54,56.400859 54,54.380859 v -3.398437 z" />
  <path
     d="m25.211 57.35c0-0.305 0.048-0.575 0.143-0.81 0.095-0.24 0.222-0.443 0.382-0.608s0.345-0.29 0.555-0.375c0.215-0.085 0.44-0.127 0.675-0.127 0.24 0 0.445 0.045 0.615 0.135 0.175 0.085 0.325 0.185 0.45 0.3l-0.307 0.397c-0.11-0.095-0.225-0.172-0.345-0.232-0.115-0.06-0.245-0.09-0.39-0.09-0.165 0-0.318 0.035-0.458 0.105-0.14 0.065-0.26 0.16-0.36 0.285s-0.18 0.275-0.24 0.45c-0.055 0.17-0.082 0.36-0.082 0.57s0.027 0.4 0.082 0.57 0.13 0.317 0.225 0.442c0.1 0.12 0.22 0.215 0.36 0.285 0.14 0.065 0.293 0.098 0.458 0.098 0.175 0 0.332-0.035 0.472-0.105 0.145-0.075 0.273-0.163 0.383-0.263l0.277 0.405c-0.165 0.145-0.35 0.26-0.555 0.345-0.2 0.085-0.41 0.128-0.63 0.128-0.24 0-0.465-0.043-0.675-0.128s-0.392-0.207-0.547-0.367c-0.15-0.165-0.27-0.365-0.36-0.6-0.085-0.24-0.128-0.51-0.128-0.81z"
     style="fill-rule:nonzero;fill:#fff"
     id="path4" />
  <path
     d="m30.306 58.34c0.16 0.13 0.322 0.235 0.487 0.315 0.17 0.08 0.365 0.12 0.585 0.12 0.24 0 0.42-0.055 0.54-0.165s0.18-0.245 0.18-0.405c0-0.095-0.025-0.178-0.075-0.248s-0.115-0.13-0.195-0.18c-0.075-0.055-0.162-0.102-0.262-0.142l-0.3-0.12c-0.13-0.045-0.26-0.095-0.39-0.15-0.13-0.06-0.248-0.13-0.353-0.21-0.1-0.085-0.182-0.183-0.247-0.293s-0.098-0.242-0.098-0.397c0-0.145 0.028-0.28 0.083-0.405 0.06-0.13 0.142-0.24 0.247-0.33 0.11-0.095 0.243-0.168 0.398-0.218 0.155-0.055 0.33-0.082 0.525-0.082 0.23 0 0.44 0.04 0.63 0.12 0.195 0.08 0.362 0.177 0.502 0.292l-0.292 0.39c-0.125-0.095-0.255-0.172-0.39-0.232s-0.283-0.09-0.443-0.09c-0.23 0-0.4 0.052-0.51 0.157-0.105 0.105-0.157 0.228-0.157 0.368 0 0.085 0.022 0.16 0.067 0.225 0.045 0.06 0.105 0.115 0.18 0.165 0.075 0.045 0.16 0.087 0.255 0.127 0.1 0.035 0.203 0.073 0.308 0.113 0.13 0.05 0.26 0.102 0.39 0.157 0.135 0.055 0.255 0.125 0.36 0.21 0.105 0.08 0.19 0.18 0.255 0.3 0.07 0.12 0.105 0.265 0.105 0.435 0 0.15-0.03 0.29-0.09 0.42-0.055 0.13-0.14 0.245-0.255 0.345-0.11 0.1-0.25 0.178-0.42 0.233-0.165 0.06-0.355 0.09-0.57 0.09-0.26 0-0.508-0.048-0.743-0.143s-0.44-0.215-0.615-0.36l0.308-0.412z"
     style="fill-rule:nonzero;fill:#fff"
     id="path6" />
  <path
     d="m33.552 55.52h0.51l0.053 0.66h0.022c0.125-0.23 0.275-0.413 0.45-0.548 0.18-0.135 0.375-0.202 0.585-0.202 0.145 0 0.275 0.025 0.39 0.075l-0.12 0.54c-0.06-0.02-0.115-0.035-0.165-0.045s-0.112-0.015-0.187-0.015c-0.155 0-0.318 0.062-0.488 0.187-0.165 0.125-0.31 0.343-0.435 0.653v2.34h-0.615v-3.645z"
     style="fill-rule:nonzero;fill:#fff"
     id="path8" />
  <path
     d="m35.817 57.35c0-0.305 0.047-0.575 0.142-0.81 0.095-0.24 0.223-0.443 0.383-0.608s0.345-0.29 0.555-0.375c0.215-0.085 0.44-0.127 0.675-0.127 0.24 0 0.445 0.045 0.615 0.135 0.175 0.085 0.325 0.185 0.45 0.3l-0.308 0.397c-0.11-0.095-0.225-0.172-0.345-0.232-0.115-0.06-0.245-0.09-0.39-0.09-0.165 0-0.317 0.035-0.457 0.105-0.14 0.065-0.26 0.16-0.36 0.285s-0.18 0.275-0.24 0.45c-0.055 0.17-0.083 0.36-0.083 0.57s0.028 0.4 0.083 0.57 0.13 0.317 0.225 0.442c0.1 0.12 0.22 0.215 0.36 0.285 0.14 0.065 0.292 0.098 0.457 0.098 0.175 0 0.333-0.035 0.473-0.105 0.145-0.075 0.272-0.163 0.382-0.263l0.278 0.405c-0.165 0.145-0.35 0.26-0.555 0.345-0.2 0.085-0.41 0.128-0.63 0.128-0.24 0-0.465-0.043-0.675-0.128s-0.393-0.207-0.548-0.367c-0.15-0.165-0.27-0.365-0.36-0.6-0.085-0.24-0.127-0.51-0.127-0.81z"
     style="fill-rule:nonzero;fill:#fff"
     id="path10" />
  <path
     d="m32.721 38c-3.091 0-5.634-1.04-7.629-3.119-1.995-2.107-2.992-4.734-2.992-7.881s0.997-5.76 2.992-7.839c1.995-2.107 4.538-3.161 7.629-3.161 2.304 0 4.214 0.562 5.731 1.686 1.518 1.124 2.628 2.543 3.33 4.257l-3.54 1.475c-1.068-2.585-2.993-3.878-5.774-3.878-1.714 0-3.231 0.703-4.552 2.108-1.292 1.404-1.939 3.189-1.939 5.352s0.647 3.948 1.939 5.352c1.321 1.405 2.838 2.108 4.552 2.108 2.894 0 4.889-1.293 5.984-3.878l3.456 1.475c-0.702 1.686-1.84 3.105-3.413 4.257-1.546 1.124-3.47 1.686-5.774 1.686z"
     style="fill-rule:nonzero;fill:#5e4008"
     id="path12" />
  <defs
     id="defs19">
    <linearGradient
       id="_Linear1"
       x2="1"
       gradientTransform="matrix(1.07196,-49.7469,49.7469,1.07196,251.234,55.94)"
       gradientUnits="userSpaceOnUse">
      <stop
         style="stop-color:#b87003"
         offset="0"
         id="stop14" />
      <stop
         style="stop-color:#cfa532"
         offset="1"
         id="stop16" />
    </linearGradient>
    <linearGradient
       inkscape:collect="always"
       xlink:href="#_Linear1"
       id="linearGradient4742"
       gradientUnits="userSpaceOnUse"
       gradientTransform="matrix(1.07196,-49.7469,49.7469,1.07196,251.234,55.94)"
       x2="1" />
  </defs>
</svg>
