<?xml version="1.0" encoding="UTF-8" standalone="no"?>
<svg
   style="clip-rule:evenodd;fill-rule:evenodd;stroke-linejoin:round;stroke-miterlimit:2"
   viewBox="0 0 64 64"
   version="1.1"
   id="svg21"
   sodipodi:docname="text-x-chdr.svg"
   inkscape:version="1.1.2 (0a00cf5339, 2022-02-04)"
   xmlns:inkscape="http://www.inkscape.org/namespaces/inkscape"
   xmlns:sodipodi="http://sodipodi.sourceforge.net/DTD/sodipodi-0.dtd"
   xmlns:xlink="http://www.w3.org/1999/xlink"
   xmlns="http://www.w3.org/2000/svg"
   xmlns:svg="http://www.w3.org/2000/svg">
  <sodipodi:namedview
     id="namedview23"
     pagecolor="#ffffff"
     bordercolor="#666666"
     borderopacity="1.0"
     inkscape:pageshadow="2"
     inkscape:pageopacity="0.0"
     inkscape:pagecheckerboard="0"
     showgrid="false"
     inkscape:zoom="10.65625"
     inkscape:cx="32"
     inkscape:cy="32"
     inkscape:window-width="1896"
     inkscape:window-height="1022"
     inkscape:window-x="12"
     inkscape:window-y="46"
     inkscape:window-maximized="1"
     inkscape:current-layer="svg21" />
  <path
     id="path2"
     style="fill:url(#linearGradient957)"
     d="M 17.617188 1.46875 C 15.597188 1.46875 13.659469 2.2712188 12.230469 3.6992188 C 10.802469 5.1282186 10 7.0678906 10 9.0878906 L 10 11.994141 L 10 54.382812 C 10 56.402814 10.802469 58.340531 12.230469 59.769531 C 13.659469 61.197531 15.597187 62 17.617188 62 L 46.382812 62 C 48.402814 62 50.340531 61.197531 51.769531 59.769531 C 53.197531 58.340531 54 56.402814 54 54.382812 L 54 11.994141 L 54 9.0878906 C 54 7.0678906 53.197531 5.1282186 51.769531 3.6992188 C 50.340531 2.2712188 48.402813 1.46875 46.382812 1.46875 L 37.367188 1.46875 L 26.632812 1.46875 L 17.617188 1.46875 z " />
  <path
     id="path2-3"
     style="clip-rule:evenodd;fill:#5e4008;fill-opacity:1;fill-rule:evenodd;stroke-linecap:round;stroke-linejoin:round;stroke-miterlimit:2"
     d="m 10.000002,50.982422 v 3.398437 0.002 c 6.5e-5,0.251841 0.01244,0.501552 0.03711,0.75 v 0.002 c 0.02473,0.248442 0.06268,0.494885 0.111329,0.738281 v 0.002 c 0.04871,0.243391 0.109702,0.484016 0.18164,0.720703 v 0.002 c 0.072,0.236684 0.155456,0.468944 0.25,0.697266 v 0.002 c 0.09461,0.228323 0.199936,0.453573 0.316406,0.671875 v 0.002 c 0.116531,0.218305 0.245101,0.430096 0.382813,0.636719 v 0.002 c 0.137776,0.206628 0.287038,0.406326 0.445312,0.599609 v 0.002 c 0.158341,0.193289 0.327702,0.378358 0.50586,0.55664 v 0.002 c 0.714499,0.714 1.5571,1.271274 2.472656,1.650391 C 15.618681,61.799106 16.607188,62 17.617187,62 h 28.765625 c 1.010002,0 1.998508,-0.200473 2.914063,-0.580078 0.915554,-0.379117 1.758155,-0.936391 2.472656,-1.650391 v -0.002 C 53.19753,58.338626 54,56.400859 54,54.380859 v -3.398437 z" />
  <path
     d="m22.963 57.296c0-0.416 0.059-0.773 0.176-1.072 0.118-0.299 0.272-0.523 0.464-0.672 0.198-0.155 0.4-0.264 0.608-0.328 0.208-0.069 0.427-0.104 0.656-0.104 0.928 0 1.48 0.437 1.656 1.312l-0.688 0.104c-0.122-0.56-0.437-0.84-0.944-0.84-0.81 0-1.216 0.531-1.216 1.592s0.392 1.592 1.176 1.592c0.592 0 0.942-0.347 1.048-1.04l0.68 0.088c-0.074 0.464-0.261 0.835-0.56 1.112-0.293 0.277-0.677 0.416-1.152 0.416-0.602 0-1.072-0.195-1.408-0.584-0.33-0.395-0.496-0.92-0.496-1.576z"
     style="fill-rule:nonzero;fill:#fff"
     id="path4" />
  <path
     d="m31.69 55.696c-0.405 0-0.688 0.12-0.848 0.36s-0.24 0.584-0.24 1.032v2.272h-0.712v-5.728h0.712v2.048c0.32-0.373 0.734-0.56 1.24-0.56 0.523 0 0.891 0.131 1.104 0.392 0.219 0.261 0.328 0.669 0.328 1.224v2.624h-0.712v-2.624c0-0.693-0.29-1.04-0.872-1.04z"
     style="fill-rule:nonzero;fill:#fff"
     id="path6" />
  <path
     d="m35.88 59.456c-0.55 0-0.987-0.203-1.312-0.608-0.32-0.411-0.48-0.931-0.48-1.56 0-0.645 0.149-1.168 0.448-1.568 0.298-0.4 0.736-0.6 1.312-0.6 0.485 0 0.866 0.187 1.144 0.56v-2.048h0.712v5.728h-0.712v-0.512c-0.278 0.405-0.648 0.608-1.112 0.608zm1.112-2.104c0-0.203-0.016-0.389-0.048-0.56-0.027-0.176-0.078-0.352-0.152-0.528-0.07-0.176-0.179-0.315-0.328-0.416-0.15-0.101-0.334-0.152-0.552-0.152-0.742 0-1.112 0.531-1.112 1.592 0 0.565 0.117 0.973 0.352 1.224 0.234 0.245 0.496 0.368 0.784 0.368 0.213 0 0.392-0.048 0.536-0.144 0.149-0.101 0.258-0.235 0.328-0.4 0.069-0.171 0.117-0.333 0.144-0.488 0.032-0.16 0.048-0.325 0.048-0.496z"
     style="fill-rule:nonzero;fill:#fff"
     id="path8" />
  <path
     d="m38.781 59.36v-4.144h0.712v0.624c0.197-0.48 0.472-0.72 0.824-0.72 0.24 0 0.48 0.072 0.72 0.216l-0.232 0.52c-0.16-0.107-0.331-0.16-0.512-0.16-0.235 0-0.427 0.125-0.576 0.376-0.15 0.251-0.224 0.624-0.224 1.12v2.168h-0.712z"
     style="fill-rule:nonzero;fill:#fff"
     id="path10" />
  <path
     d="m23.807 15.152h2.905v9.625h10.675v-9.625h2.94v22.96h-2.94v-10.815h-10.675v10.815h-2.905v-22.96z"
     style="fill-rule:nonzero;fill:#5e4008"
     id="path12" />
  <defs
     id="defs19">
    <linearGradient
       id="_Linear1"
       x2="1"
       gradientTransform="matrix(1.07196,-49.7469,49.7469,1.07196,251.234,55.94)"
       gradientUnits="userSpaceOnUse">
      <stop
         style="stop-color:#b87003"
         offset="0"
         id="stop14" />
      <stop
         style="stop-color:#cfa532"
         offset="1"
         id="stop16" />
    </linearGradient>
    <linearGradient
       inkscape:collect="always"
       xlink:href="#_Linear1"
       id="linearGradient957"
       gradientUnits="userSpaceOnUse"
       gradientTransform="matrix(1.07196,-49.7469,49.7469,1.07196,251.234,55.94)"
       x2="1" />
  </defs>
</svg>
