<?xml version="1.0" encoding="UTF-8" standalone="no"?>
<svg
   style="clip-rule:evenodd;fill-rule:evenodd;stroke-linejoin:round;stroke-miterlimit:2"
   viewBox="0 0 64 64"
   version="1.1"
   id="svg31"
   sodipodi:docname="text-x-go.svg"
   inkscape:version="1.1.2 (0a00cf5339, 2022-02-04)"
   xmlns:inkscape="http://www.inkscape.org/namespaces/inkscape"
   xmlns:sodipodi="http://sodipodi.sourceforge.net/DTD/sodipodi-0.dtd"
   xmlns:xlink="http://www.w3.org/1999/xlink"
   xmlns="http://www.w3.org/2000/svg"
   xmlns:svg="http://www.w3.org/2000/svg">
  <sodipodi:namedview
     id="namedview33"
     pagecolor="#ffffff"
     bordercolor="#666666"
     borderopacity="1.0"
     inkscape:pageshadow="2"
     inkscape:pageopacity="0.0"
     inkscape:pagecheckerboard="0"
     showgrid="false"
     inkscape:zoom="10.65625"
     inkscape:cx="37.771261"
     inkscape:cy="32.56305"
     inkscape:window-width="942"
     inkscape:window-height="1022"
     inkscape:window-x="966"
     inkscape:window-y="46"
     inkscape:window-maximized="1"
     inkscape:current-layer="svg31" />
  <path
     id="path2"
     style="fill:url(#linearGradient2508)"
     d="M 17.617188 1.46875 C 15.597188 1.46875 13.659469 2.2712188 12.230469 3.6992188 C 10.802469 5.1282186 10 7.0678906 10 9.0878906 L 10 14.71875 L 10 54.382812 C 10 56.402814 10.802469 58.340531 12.230469 59.769531 C 13.659469 61.197531 15.597187 62 17.617188 62 L 46.382812 62 C 48.402814 62 50.340531 61.197531 51.769531 59.769531 C 53.197531 58.340531 54 56.402814 54 54.382812 L 54 14.71875 L 54 9.0878906 C 54 7.0678906 53.197531 5.1282186 51.769531 3.6992188 C 50.340531 2.2712188 48.402813 1.46875 46.382812 1.46875 L 39.121094 1.46875 L 24.878906 1.46875 L 17.617188 1.46875 z " />
  <path
     id="path2-3"
     style="clip-rule:evenodd;fill:#066b7e;fill-opacity:1;fill-rule:evenodd;stroke-linecap:round;stroke-linejoin:round;stroke-miterlimit:2"
     d="m 10.000004,50.982422 v 3.398437 0.002 c 6.5e-5,0.251841 0.01244,0.501552 0.03711,0.75 v 0.002 c 0.02473,0.248442 0.06268,0.494885 0.111328,0.738281 v 0.002 c 0.04871,0.243391 0.109702,0.484016 0.18164,0.720703 v 0.002 c 0.072,0.236684 0.155456,0.468944 0.25,0.697266 v 0.002 c 0.09461,0.228323 0.199936,0.453573 0.316406,0.671875 v 0.002 c 0.116532,0.218305 0.245102,0.430096 0.382814,0.636719 v 0.002 c 0.137775,0.206628 0.287037,0.406326 0.445311,0.599609 v 0.002 c 0.158341,0.193289 0.327703,0.378358 0.505861,0.55664 v 0.002 c 0.714498,0.714 1.557099,1.271274 2.472655,1.650391 C 15.618682,61.799106 16.607189,62 17.617188,62 h 28.765624 c 1.010002,0 1.998509,-0.200473 2.914063,-0.580078 0.915554,-0.379117 1.758155,-0.936391 2.472656,-1.650391 v -0.002 C 53.19753,58.338626 54,56.400859 54,54.380859 v -3.398437 z" />
  <path
     d="m24.887 58.492c0 0.56-0.167 0.992-0.5 1.297-0.334 0.307-0.763 0.461-1.289 0.461-0.219 0-0.487-0.053-0.805-0.16s-0.572-0.298-0.762-0.574l0.379-0.43c0.177 0.216 0.362 0.365 0.555 0.445 0.193 0.084 0.385 0.125 0.578 0.125 0.341 0 0.613-0.096 0.816-0.289 0.204-0.19 0.305-0.47 0.305-0.84v-0.371c-0.286 0.336-0.681 0.504-1.184 0.504-0.507 0-0.911-0.203-1.21-0.609-0.3-0.406-0.45-0.918-0.45-1.535v-0.082c0-0.646 0.149-1.167 0.446-1.563 0.299-0.396 0.707-0.594 1.222-0.594 0.519 0 0.921 0.183 1.207 0.547l0.035-0.469h0.657v4.137zm-2.844-1.976c0 0.419 0.087 0.78 0.262 1.082 0.177 0.299 0.461 0.449 0.851 0.449 0.258 0 0.466-0.059 0.625-0.176 0.162-0.117 0.289-0.267 0.383-0.449v-1.926c-0.091-0.174-0.217-0.319-0.379-0.433-0.161-0.118-0.368-0.176-0.621-0.176-0.393 0-0.678 0.153-0.855 0.461-0.177 0.304-0.266 0.666-0.266 1.086v0.082z"
     style="fill-rule:nonzero;fill:#fff"
     id="path4" />
  <path
     d="m25.801 56.516v-0.09c0-0.612 0.172-1.123 0.515-1.531 0.344-0.412 0.812-0.618 1.403-0.618 0.596 0 1.066 0.206 1.41 0.618 0.346 0.408 0.519 0.919 0.519 1.531v0.09c0 0.612-0.173 1.122-0.519 1.531-0.344 0.409-0.811 0.613-1.402 0.613-0.594 0-1.064-0.204-1.411-0.613-0.343-0.409-0.515-0.919-0.515-1.531zm0.722-0.09v0.09c0 0.419 0.099 0.782 0.297 1.089 0.201 0.308 0.503 0.461 0.907 0.461 0.395 0 0.694-0.153 0.894-0.461 0.201-0.307 0.301-0.67 0.301-1.089v-0.09c0-0.414-0.1-0.776-0.301-1.086-0.2-0.313-0.501-0.469-0.902-0.469-0.399 0-0.698 0.156-0.899 0.469-0.198 0.31-0.297 0.672-0.297 1.086z"
     style="fill-rule:nonzero;fill:#fff"
     id="path6" />
  <path
     d="m35 57.461c0-0.156-0.059-0.296-0.176-0.418-0.114-0.125-0.38-0.229-0.797-0.313-0.471-0.098-0.843-0.239-1.117-0.421-0.271-0.183-0.406-0.448-0.406-0.797 0-0.334 0.142-0.623 0.426-0.867 0.286-0.245 0.666-0.368 1.14-0.368 0.506 0 0.9 0.129 1.184 0.387s0.426 0.569 0.426 0.934h-0.723c0-0.175-0.077-0.339-0.23-0.493-0.154-0.156-0.373-0.234-0.657-0.234-0.299 0-0.514 0.065-0.644 0.195-0.13 0.131-0.196 0.273-0.196 0.426 0 0.156 0.063 0.283 0.188 0.379 0.125 0.094 0.387 0.185 0.785 0.274 0.518 0.119 0.901 0.274 1.149 0.464 0.247 0.19 0.371 0.456 0.371 0.797 0 0.373-0.15 0.675-0.45 0.907-0.296 0.231-0.691 0.347-1.183 0.347-0.56 0-0.988-0.143-1.285-0.43-0.297-0.286-0.446-0.604-0.446-0.953h0.727c0.016 0.3 0.13 0.507 0.344 0.621 0.216 0.112 0.436 0.168 0.66 0.168 0.294 0 0.519-0.057 0.676-0.171 0.156-0.115 0.234-0.26 0.234-0.434z"
     style="fill-rule:nonzero;fill:#fff"
     id="path8" />
  <path
     d="m38.352 54.973c-0.248 0-0.451 0.056-0.61 0.168-0.159 0.109-0.277 0.256-0.355 0.441v3h-0.723v-4.227h0.703l0.016 0.485c0.107-0.172 0.242-0.309 0.406-0.41 0.167-0.102 0.366-0.153 0.598-0.153 0.135 0 0.242 0.019 0.32 0.055l-4e-3 0.672c-0.107-0.021-0.224-0.031-0.351-0.031z"
     style="fill-rule:nonzero;fill:#fff"
     id="path10" />
  <path
     d="m40.996 58.066c0.258 0 0.483-0.076 0.676-0.23 0.195-0.154 0.302-0.35 0.32-0.59h0.688c-0.019 0.378-0.192 0.708-0.52 0.992-0.328 0.282-0.716 0.422-1.164 0.422-0.635 0-1.108-0.209-1.418-0.629-0.307-0.419-0.461-0.913-0.461-1.48v-0.164c0-0.568 0.154-1.061 0.461-1.481 0.31-0.419 0.783-0.629 1.418-0.629 0.495 0 0.895 0.147 1.199 0.442 0.305 0.291 0.466 0.655 0.485 1.09h-0.688c-0.018-0.261-0.117-0.482-0.297-0.664-0.177-0.183-0.41-0.274-0.699-0.274-0.297 0-0.53 0.076-0.699 0.227-0.167 0.151-0.285 0.342-0.356 0.574-0.067 0.232-0.101 0.47-0.101 0.715v0.164c0 0.247 0.034 0.487 0.101 0.719 0.068 0.231 0.185 0.423 0.352 0.574 0.169 0.148 0.404 0.222 0.703 0.222z"
     style="fill-rule:nonzero;fill:#fff"
     id="path12" />
  <path
     d="m16.415 25.642c-0.062 0-0.078-0.031-0.047-0.078l0.327-0.42c0.032-0.047 0.109-0.078 0.172-0.078h5.562c0.062 0 0.078 0.047 0.047 0.093l-0.265 0.405c-0.031 0.047-0.109 0.094-0.156 0.094l-5.64-0.016z"
     style="fill-rule:nonzero;fill:#fff"
     id="path14" />
  <path
     d="m14.062 27.076c-0.062 0-0.078-0.032-0.046-0.078l0.327-0.421c0.031-0.047 0.109-0.078 0.171-0.078h7.105c0.062 0 0.093 0.047 0.078 0.094l-0.125 0.374c-0.016 0.062-0.078 0.093-0.14 0.093l-7.37 0.016z"
     style="fill-rule:nonzero;fill:#fff"
     id="path16" />
  <path
     d="m17.833 28.509c-0.063 0-0.078-0.047-0.047-0.093l0.218-0.39c0.031-0.047 0.094-0.093 0.156-0.093h3.116c0.062 0 0.093 0.046 0.093 0.109l-0.031 0.374c0 0.062-0.062 0.109-0.109 0.109l-3.396-0.016z"
     style="fill-rule:nonzero;fill:#fff"
     id="path18" />
  <path
     d="m34.005 25.362c-0.981 0.249-1.651 0.436-2.617 0.685-0.234 0.063-0.25 0.078-0.452-0.155-0.234-0.265-0.405-0.437-0.733-0.593-0.981-0.482-1.931-0.342-2.82 0.234-1.059 0.686-1.604 1.698-1.589 2.96 0.016 1.247 0.873 2.275 2.104 2.447 1.059 0.14 1.947-0.234 2.648-1.029 0.14-0.171 0.265-0.358 0.421-0.576h-3.007c-0.327 0-0.405-0.203-0.296-0.468 0.202-0.483 0.576-1.293 0.795-1.698 0.046-0.093 0.155-0.249 0.389-0.249h5.671c-0.031 0.421-0.031 0.841-0.093 1.262-0.172 1.122-0.592 2.15-1.278 3.054-1.122 1.48-2.586 2.399-4.44 2.648-1.527 0.203-2.945-0.093-4.191-1.028-1.153-0.873-1.808-2.026-1.979-3.459-0.203-1.698 0.296-3.225 1.324-4.565 1.107-1.449 2.571-2.368 4.363-2.695 1.464-0.265 2.867-0.094 4.129 0.763 0.825 0.545 1.417 1.293 1.807 2.197 0.093 0.14 0.031 0.218-0.156 0.265z"
     style="fill-rule:nonzero;fill:#fff"
     id="path20" />
  <path
     d="m39.162 33.978c-1.418-0.031-2.711-0.437-3.801-1.371-0.92-0.795-1.496-1.808-1.683-3.007-0.281-1.761 0.202-3.319 1.262-4.706 1.137-1.495 2.508-2.274 4.362-2.602 1.59-0.28 3.085-0.124 4.441 0.795 1.231 0.841 1.994 1.979 2.197 3.474 0.264 2.104-0.343 3.818-1.792 5.282-1.028 1.044-2.29 1.698-3.739 1.994-0.421 0.078-0.842 0.094-1.247 0.141zm3.708-6.295c-0.015-0.202-0.015-0.358-0.046-0.514-0.281-1.542-1.699-2.415-3.179-2.072-1.449 0.327-2.384 1.246-2.726 2.711-0.281 1.215 0.311 2.446 1.433 2.945 0.857 0.374 1.714 0.327 2.54-0.094 1.23-0.639 1.9-1.636 1.978-2.976z"
     style="fill-rule:nonzero;fill:#fff"
     id="path22" />
  <defs
     id="defs29">
    <linearGradient
       id="_Linear1"
       x2="1"
       gradientTransform="matrix(0,-49.619,49.619,0,250.77,51.088)"
       gradientUnits="userSpaceOnUse">
      <stop
         style="stop-color:#0aafce"
         offset="0"
         id="stop24" />
      <stop
         style="stop-color:#2bbbb1"
         offset="1"
         id="stop26" />
    </linearGradient>
    <linearGradient
       inkscape:collect="always"
       xlink:href="#_Linear1"
       id="linearGradient2508"
       gradientUnits="userSpaceOnUse"
       gradientTransform="matrix(0,-49.619,49.619,0,250.77,51.088)"
       x2="1" />
  </defs>
</svg>
