<?xml version="1.0" encoding="UTF-8" standalone="no"?>
<svg
   style="clip-rule:evenodd;fill-rule:evenodd;stroke-linejoin:round;stroke-miterlimit:2"
   viewBox="0 0 64 64"
   version="1.1"
   id="svg21"
   sodipodi:docname="text-x-dsrc.svg"
   inkscape:version="1.1.2 (0a00cf5339, 2022-02-04)"
   xmlns:inkscape="http://www.inkscape.org/namespaces/inkscape"
   xmlns:sodipodi="http://sodipodi.sourceforge.net/DTD/sodipodi-0.dtd"
   xmlns:xlink="http://www.w3.org/1999/xlink"
   xmlns="http://www.w3.org/2000/svg"
   xmlns:svg="http://www.w3.org/2000/svg">
  <sodipodi:namedview
     id="namedview23"
     pagecolor="#ffffff"
     bordercolor="#666666"
     borderopacity="1.0"
     inkscape:pageshadow="2"
     inkscape:pageopacity="0.0"
     inkscape:pagecheckerboard="0"
     showgrid="false"
     inkscape:zoom="10.65625"
     inkscape:cx="32"
     inkscape:cy="32"
     inkscape:window-width="1896"
     inkscape:window-height="1022"
     inkscape:window-x="12"
     inkscape:window-y="46"
     inkscape:window-maximized="1"
     inkscape:current-layer="svg21" />
  <path
     id="path2"
     style="fill:url(#linearGradient3572)"
     d="M 17.617188 1.46875 C 15.597188 1.46875 13.659469 2.2712188 12.230469 3.6992188 C 10.802469 5.1282186 10 7.0678906 10 9.0878906 L 10 16.517578 L 10 54.382812 C 10 56.402814 10.802469 58.340531 12.230469 59.769531 C 13.659469 61.197531 15.597187 62 17.617188 62 L 46.382812 62 C 48.402814 62 50.340531 61.197531 51.769531 59.769531 C 53.197531 58.340531 54 56.402814 54 54.382812 L 54 16.517578 L 54 9.0878906 C 54 7.0678906 53.197531 5.1282186 51.769531 3.6992188 C 50.340531 2.2712188 48.402813 1.46875 46.382812 1.46875 L 38.671875 1.46875 L 25.328125 1.46875 L 17.617188 1.46875 z " />
  <path
     id="path2-3"
     style="clip-rule:evenodd;fill:#5e4008;fill-opacity:1;fill-rule:evenodd;stroke-linecap:round;stroke-linejoin:round;stroke-miterlimit:2"
     d="m 10.000004,50.982422 v 3.398437 0.002 c 6.5e-5,0.251841 0.01244,0.501552 0.03711,0.75 v 0.002 c 0.02473,0.248442 0.06268,0.494885 0.111328,0.738281 v 0.002 c 0.04871,0.243391 0.109702,0.484016 0.18164,0.720703 v 0.002 c 0.072,0.236684 0.155456,0.468944 0.25,0.697266 v 0.002 c 0.09461,0.228323 0.199936,0.453573 0.316406,0.671875 v 0.002 c 0.116532,0.218305 0.245102,0.430096 0.382814,0.636719 v 0.002 c 0.137775,0.206628 0.287037,0.406326 0.445311,0.599609 v 0.002 c 0.158341,0.193289 0.327703,0.378358 0.505861,0.55664 v 0.002 c 0.714498,0.714 1.557099,1.271274 2.472655,1.650391 C 15.618682,61.799106 16.607189,62 17.617188,62 h 28.765624 c 1.010002,0 1.998509,-0.200473 2.914063,-0.580078 0.915554,-0.379117 1.758155,-0.936391 2.472656,-1.650391 v -0.002 C 53.19753,58.338626 54,56.400859 54,54.380859 v -3.398437 z" />
  <path
     d="m25.345 59.271c-0.601 0-1.095-0.202-1.483-0.606-0.388-0.41-0.582-0.921-0.582-1.533s0.194-1.12 0.582-1.524c0.388-0.41 0.882-0.615 1.483-0.615 0.448 0 0.82 0.109 1.115 0.328 0.295 0.218 0.511 0.494 0.647 0.828l-0.688 0.286c-0.208-0.502-0.582-0.754-1.123-0.754-0.333 0-0.628 0.137-0.885 0.41-0.251 0.273-0.377 0.62-0.377 1.041s0.126 0.768 0.377 1.041c0.257 0.273 0.552 0.41 0.885 0.41 0.563 0 0.951-0.252 1.164-0.754l0.672 0.286c-0.137 0.328-0.358 0.604-0.664 0.828-0.3 0.219-0.675 0.328-1.123 0.328z"
     style="fill-rule:nonzero;fill:#fff"
     id="path4" />
  <path
     d="m28.088 55.608c0.388-0.41 0.882-0.615 1.483-0.615s1.096 0.205 1.483 0.615c0.388 0.404 0.582 0.912 0.582 1.524s-0.194 1.123-0.582 1.533c-0.387 0.404-0.882 0.606-1.483 0.606s-1.095-0.202-1.483-0.606c-0.388-0.41-0.582-0.921-0.582-1.533s0.194-1.12 0.582-1.524zm0.557 2.581c0.262 0.262 0.571 0.394 0.926 0.394s0.661-0.132 0.918-0.394c0.262-0.268 0.393-0.62 0.393-1.057s-0.131-0.787-0.393-1.049c-0.257-0.268-0.563-0.402-0.918-0.402s-0.664 0.134-0.926 0.402c-0.257 0.262-0.385 0.612-0.385 1.049s0.128 0.789 0.385 1.057z"
     style="fill-rule:nonzero;fill:#fff"
     id="path6" />
  <path
     d="m34.009 59.271c-0.519 0-0.967-0.205-1.344-0.615-0.377-0.409-0.565-0.918-0.565-1.524s0.188-1.115 0.565-1.524c0.377-0.41 0.825-0.615 1.344-0.615 0.306 0 0.579 0.066 0.82 0.197 0.246 0.131 0.429 0.295 0.549 0.491h0.033l-0.033-0.557v-1.852h0.754v5.868h-0.721v-0.557h-0.033c-0.12 0.196-0.303 0.36-0.549 0.491-0.241 0.131-0.514 0.197-0.82 0.197zm0.123-0.688c0.355 0 0.656-0.132 0.902-0.394 0.251-0.262 0.377-0.614 0.377-1.057s-0.126-0.795-0.377-1.057c-0.246-0.263-0.547-0.394-0.902-0.394-0.349 0-0.65 0.134-0.901 0.402-0.252 0.262-0.377 0.612-0.377 1.049s0.125 0.789 0.377 1.057c0.251 0.262 0.552 0.394 0.901 0.394z"
     style="fill-rule:nonzero;fill:#fff"
     id="path8" />
  <path
     d="m38.823 59.271c-0.607 0-1.101-0.202-1.484-0.606-0.377-0.405-0.565-0.916-0.565-1.533 0-0.585 0.183-1.087 0.549-1.508 0.371-0.421 0.844-0.631 1.418-0.631 0.595 0 1.071 0.194 1.426 0.582 0.36 0.388 0.541 0.907 0.541 1.557l-9e-3 0.139h-3.171c0.022 0.405 0.155 0.724 0.401 0.959 0.252 0.235 0.544 0.353 0.877 0.353 0.541 0 0.907-0.23 1.098-0.689l0.672 0.279c-0.131 0.311-0.346 0.573-0.647 0.787-0.3 0.207-0.669 0.311-1.106 0.311zm1.081-2.623c-0.016-0.229-0.122-0.448-0.319-0.655-0.191-0.208-0.478-0.312-0.861-0.312-0.278 0-0.521 0.088-0.729 0.263-0.202 0.174-0.342 0.409-0.418 0.704h2.327z"
     style="fill-rule:nonzero;fill:#fff"
     id="path10" />
  <path
     d="m23.643 37.552v-21.104h6.455c3.242 0 5.836 0.983 7.781 2.948 1.945 1.945 2.918 4.48 2.918 7.604s-0.973 5.669-2.918 7.634c-1.945 1.945-4.539 2.918-7.781 2.918h-6.455zm2.712-2.594h3.743c2.437 0 4.362-0.698 5.777-2.093 1.434-1.395 2.152-3.35 2.152-5.865 0-2.495-0.718-4.441-2.152-5.836-1.415-1.415-3.34-2.122-5.777-2.122h-3.743v15.916z"
     style="fill-rule:nonzero;fill:#5e4008"
     id="path12" />
  <defs
     id="defs19">
    <linearGradient
       id="_Linear1"
       x2="1"
       gradientTransform="matrix(1.07196,-49.7469,49.7469,1.07196,251.234,55.94)"
       gradientUnits="userSpaceOnUse">
      <stop
         style="stop-color:#b87003"
         offset="0"
         id="stop14" />
      <stop
         style="stop-color:#cfa532"
         offset="1"
         id="stop16" />
    </linearGradient>
    <linearGradient
       inkscape:collect="always"
       xlink:href="#_Linear1"
       id="linearGradient3572"
       gradientUnits="userSpaceOnUse"
       gradientTransform="matrix(1.07196,-49.7469,49.7469,1.07196,251.234,55.94)"
       x2="1" />
  </defs>
</svg>
