<?xml version="1.0" encoding="UTF-8" standalone="no"?>
<svg
   clip-rule="evenodd"
   fill-rule="evenodd"
   stroke-linejoin="round"
   stroke-miterlimit="2"
   viewBox="0 0 48 48"
   version="1.1"
   id="svg11"
   sodipodi:docname="text-vnd.wap.wmlscript.svg"
   inkscape:version="1.1.2 (0a00cf5339, 2022-02-04)"
   xmlns:inkscape="http://www.inkscape.org/namespaces/inkscape"
   xmlns:sodipodi="http://sodipodi.sourceforge.net/DTD/sodipodi-0.dtd"
   xmlns:xlink="http://www.w3.org/1999/xlink"
   xmlns="http://www.w3.org/2000/svg"
   xmlns:svg="http://www.w3.org/2000/svg">
  <defs
     id="defs15">
    <linearGradient
       inkscape:collect="always"
       xlink:href="#a"
       id="linearGradient3444"
       gradientUnits="userSpaceOnUse"
       gradientTransform="matrix(0,-37.2142,37.2142,0,133.41,38.316)"
       x2="1" />
  </defs>
  <sodipodi:namedview
     id="namedview13"
     pagecolor="#ffffff"
     bordercolor="#666666"
     borderopacity="1.0"
     inkscape:pageshadow="2"
     inkscape:pageopacity="0.0"
     inkscape:pagecheckerboard="0"
     showgrid="false"
     inkscape:zoom="14.208333"
     inkscape:cx="27.061584"
     inkscape:cy="24.985337"
     inkscape:window-width="942"
     inkscape:window-height="1022"
     inkscape:window-x="966"
     inkscape:window-y="46"
     inkscape:window-maximized="1"
     inkscape:current-layer="svg11" />
  <linearGradient
     id="a"
     x2="1"
     gradientTransform="matrix(0,-37.2142,37.2142,0,133.41,38.316)"
     gradientUnits="userSpaceOnUse">
    <stop
       stop-color="#5d5d5d"
       offset="0"
       id="stop2" />
    <stop
       stop-color="#929292"
       offset="1"
       id="stop4" />
  </linearGradient>
  <path
     id="path7"
     style="fill:url(#linearGradient3444)"
     d="M 13.214844 1.1015625 C 11.699844 1.1015625 10.245828 1.7043906 9.1738281 2.7753906 C 8.1028281 3.8473906 7.5 5.2994531 7.5 6.8144531 L 7.5 9.8085938 L 7.5 40.787109 C 7.5 42.302109 8.1028281 43.754172 9.1738281 44.826172 C 9.9778281 45.629422 10.995967 46.168923 12.09375 46.388672 C 12.094369 46.388796 12.095084 46.388548 12.095703 46.388672 C 12.278052 46.42511 12.462292 46.454145 12.648438 46.472656 C 12.649081 46.47272 12.649747 46.472592 12.650391 46.472656 C 12.836546 46.491104 13.024169 46.5 13.212891 46.5 C 13.213544 46.5 13.21419 46.5 13.214844 46.5 L 34.785156 46.5 C 35.353281 46.5 35.913222 46.414397 36.447266 46.251953 C 37.336767 45.981213 38.156172 45.495547 38.826172 44.826172 C 39.897172 43.754172 40.5 42.302109 40.5 40.787109 L 40.5 9.8085938 L 40.5 6.8144531 C 40.5 5.2994531 39.897172 3.8473906 38.826172 2.7753906 C 37.754172 1.7043906 36.300156 1.1015625 34.785156 1.1015625 L 28.398438 1.1015625 L 19.601562 1.1015625 L 13.214844 1.1015625 z " />
  <path
     d="m 19.064,13.190194 c -0.032,-10e-4 -0.064,-10e-4 -0.096,0.002 -0.09,0.006 -0.178,0.024 -0.263,0.054 -0.085,0.03 -0.627,0.207 -1.352,0.588 -0.725,0.382 -1.607,0.917 -2.174,1.834 -0.631,1.021 -0.391,2.114 -0.195,2.768 0.196,0.654 0.304,0.939 0.123,1.377 -0.089,0.214 -0.631,0.682 -1.225,0.972 -0.594,0.291 -1.133,0.443 -1.133,0.443 -0.44,0.114 -0.749,0.514 -0.749,0.969 0,0.088 0.011,0.175 0.034,0.26 -0.126,0.525 0.194,1.063 0.715,1.201 0.522,0.139 0.54,0.153 1.133,0.444 0.594,0.291 1.136,0.759 1.225,0.972 0.181,0.438 0.073,0.724 -0.123,1.377 -0.197,0.654 -0.436,1.747 0.195,2.768 0.567,0.918 1.449,1.452 2.174,1.834 0.725,0.382 1.351,0.588 1.351,0.588 0.115,0.044 0.236,0.066 0.359,0.066 0.548,0 1,-0.451 1,-1 0,-0.447 -0.3,-0.842 -0.73,-0.963 -0.43,-0.12 -0.476,-0.159 -1.048,-0.46 -0.573,-0.302 -1.186,-0.767 -1.403,-1.118 -0.245,-0.396 -0.164,-0.533 0.018,-1.14 0.182,-0.607 0.511,-1.615 0.055,-2.717 -0.405,-0.976 -1.212,-1.493 -1.934,-1.865 0.722,-0.373 1.529,-0.889 1.934,-1.865 0.456,-1.103 0.127,-2.11 -0.055,-2.717 -0.182,-0.607 -0.263,-0.744 -0.018,-1.141 0.217,-0.35 0.83,-0.816 1.403,-1.117 0.572,-0.302 1.048,-0.461 1.048,-0.461 0.415,-0.131 0.699,-0.519 0.699,-0.954 0,-0.536 -0.432,-0.982 -0.968,-0.999 z m 9.932,0 c -0.535,0.019 -0.965,0.464 -0.965,0.999 0,0.435 0.284,0.823 0.699,0.954 0.415,0.131 0.476,0.159 1.049,0.461 0.573,0.301 1.185,0.766 1.402,1.117 0.245,0.396 0.165,0.534 -0.018,1.14 -0.182,0.607 -0.511,1.615 -0.054,2.717 0.404,0.976 1.211,1.493 1.933,1.865 -0.722,0.373 -1.529,0.89 -1.933,1.866 -0.457,1.102 -0.128,2.11 0.054,2.716 0.183,0.607 0.263,0.745 0.018,1.141 -0.217,0.351 -0.829,0.816 -1.402,1.117 -0.573,0.302 -1.049,0.461 -1.049,0.461 -0.43,0.121 -0.73,0.516 -0.73,0.963 0,0.549 0.452,1 1.001,1 0.122,0 0.244,-0.022 0.358,-0.066 0.114,-0.044 0.626,-0.207 1.351,-0.588 0.726,-0.382 1.607,-0.917 2.174,-1.834 0.631,-1.021 0.392,-2.114 0.196,-2.768 -0.197,-0.654 -0.305,-0.939 -0.123,-1.377 0.088,-0.214 0.631,-0.682 1.224,-0.972 0.594,-0.291 1.133,-0.444 1.133,-0.444 0.522,-0.139 0.842,-0.676 0.715,-1.201 0.023,-0.085 0.035,-0.173 0.035,-0.261 0,-0.454 -0.31,-0.854 -0.75,-0.968 -0.44,-0.114 -0.539,-0.152 -1.133,-0.443 -0.593,-0.291 -1.136,-0.759 -1.224,-0.973 -0.182,-0.438 -0.074,-0.723 0.123,-1.377 0.196,-0.654 0.435,-1.746 -0.196,-2.767 -0.567,-0.918 -1.448,-1.453 -2.174,-1.834 -0.725,-0.382 -1.351,-0.588 -1.351,-0.588 -0.085,-0.03 -0.174,-0.049 -0.264,-0.055 -0.032,-0.002 -0.064,-0.003 -0.095,-0.002 -0.002,0 -0.003,0 -0.004,0 z m -4.996,4.518 c -1.098,0 -2,0.902 -2,2 0,1.097 0.902,2 2,2 1.097,0 2,-0.903 2,-2 0,-1.098 -0.903,-2 -2,-2 z m 0,6 c -1.105,0 -2,0.895 -2,2 0,1.104 0.895,2 2,2 0.707,0 1,2 1,2 0,0 1,-3.603 1,-4 0,-1.105 -0.896,-2 -2,-2 z"
     fill="#ffffff"
     fill-opacity="0.5"
     id="path9" />
  <path
     id="path1057"
     style="fill:#444444;fill-opacity:1"
     d="m 7.4998607,38.667977 v 2.11914 c 0,1.515 0.602827,2.967063 1.673828,4.039063 0.8040003,0.80325 1.8221403,1.342751 2.9199223,1.5625 0,0 0.002,0 0.002,0 0.182349,0.03644 0.366588,0.06547 0.552735,0.08398 0,0 0.002,0 0.002,0 0.186153,0.01845 0.37378,0.02734 0.5625,0.02734 h 0.002 21.57031 c 0.568124,0 1.128063,-0.0856 1.66211,-0.248047 0.8895,-0.27074 1.708905,-0.756406 2.378906,-1.425781 C 39.897171,43.754172 40.5,42.302109 40.5,40.787109 v -2.11914 z" />
</svg>
