<?xml version="1.0" encoding="UTF-8" standalone="no"?>
<svg
   clip-rule="evenodd"
   fill-rule="evenodd"
   stroke-linejoin="round"
   stroke-miterlimit="2"
   viewBox="0 0 48 48"
   version="1.1"
   id="svg13"
   sodipodi:docname="text-x-arduino.svg"
   inkscape:version="1.1.2 (0a00cf5339, 2022-02-04)"
   xmlns:inkscape="http://www.inkscape.org/namespaces/inkscape"
   xmlns:sodipodi="http://sodipodi.sourceforge.net/DTD/sodipodi-0.dtd"
   xmlns:xlink="http://www.w3.org/1999/xlink"
   xmlns="http://www.w3.org/2000/svg"
   xmlns:svg="http://www.w3.org/2000/svg">
  <defs
     id="defs17">
    <linearGradient
       inkscape:collect="always"
       xlink:href="#a"
       id="linearGradient4502"
       gradientUnits="userSpaceOnUse"
       gradientTransform="matrix(0,-37.2142,37.2142,0,133.41,38.316)"
       x2="1" />
  </defs>
  <sodipodi:namedview
     id="namedview15"
     pagecolor="#ffffff"
     bordercolor="#666666"
     borderopacity="1.0"
     inkscape:pageshadow="2"
     inkscape:pageopacity="0.0"
     inkscape:pagecheckerboard="0"
     showgrid="false"
     inkscape:zoom="14.208333"
     inkscape:cx="31.354839"
     inkscape:cy="25.900293"
     inkscape:window-width="942"
     inkscape:window-height="1022"
     inkscape:window-x="966"
     inkscape:window-y="46"
     inkscape:window-maximized="1"
     inkscape:current-layer="svg13" />
  <linearGradient
     id="a"
     x2="1"
     gradientTransform="matrix(0,-37.2142,37.2142,0,133.41,38.316)"
     gradientUnits="userSpaceOnUse">
    <stop
       stop-color="#60999a"
       offset="0"
       id="stop2" />
    <stop
       stop-color="#b5bdc2"
       offset="1"
       id="stop4" />
  </linearGradient>
  <path
     id="path7"
     style="fill:url(#linearGradient4502)"
     d="M 13.214844 1.1015625 C 11.699844 1.1015625 10.245828 1.7043906 9.1738281 2.7753906 C 8.1028281 3.8473906 7.5 5.2994531 7.5 6.8144531 L 7.5 9.4765625 L 7.5 40.787109 C 7.5 42.302109 8.1028281 43.754172 9.1738281 44.826172 C 9.9778281 45.629422 10.995967 46.168923 12.09375 46.388672 C 12.094369 46.388796 12.095084 46.388548 12.095703 46.388672 C 12.278052 46.42511 12.462292 46.454145 12.648438 46.472656 C 12.649081 46.47272 12.649747 46.472592 12.650391 46.472656 C 12.836546 46.491104 13.024169 46.5 13.212891 46.5 C 13.213544 46.5 13.21419 46.5 13.214844 46.5 L 34.785156 46.5 C 35.353281 46.5 35.913222 46.414397 36.447266 46.251953 C 37.336767 45.981213 38.156172 45.495547 38.826172 44.826172 C 39.897172 43.754172 40.5 42.302109 40.5 40.787109 L 40.5 9.4765625 L 40.5 6.8144531 C 40.5 5.2994531 39.897172 3.8473906 38.826172 2.7753906 C 37.754172 1.7043906 36.300156 1.1015625 34.785156 1.1015625 L 26.066406 1.1015625 L 21.933594 1.1015625 L 13.214844 1.1015625 z " />
  <path
     d="m11.531 24s0 6.235 6.234 6.235c1.27 0 2.423-.48 3.489-1.293 1.339-1.02 2.548-2.6 3.744-4.194.887-1.184 1.769-2.373 2.731-3.261.765-.706 1.564-1.228 2.506-1.228 3.74 0 3.74 3.741 3.74 3.741h2.494s0-6.235-6.234-6.235c-1.27 0-2.423.48-3.489 1.293-1.339 1.02-2.548 2.6-3.744 4.194-.887 1.184-1.769 2.373-2.731 3.261-.765.706-1.564 1.228-2.506 1.228-3.74 0-3.74-3.741-3.74-3.741zm4.364.623h3.741c.344 0 .623-.279.623-.623s-.279-.623-.623-.623h-3.741c-.344 0-.623.279-.623.623s.279.623.623.623z"
     fill="#00797d"
     id="path9" />
  <path
     d="m14.025 24s0-3.741 3.74-3.741c.942 0 1.741.522 2.506 1.228.962.888 1.844 2.077 2.731 3.261 1.196 1.594 2.405 3.174 3.744 4.194 1.066.813 2.219 1.293 3.489 1.293 6.234 0 6.234-6.235 6.234-6.235h-2.494s0 3.741-3.74 3.741c-.942 0-1.741-.522-2.506-1.228-.962-.888-1.844-2.077-2.731-3.261-1.196-1.594-2.405-3.174-3.744-4.194-1.066-.813-2.219-1.293-3.489-1.293-6.234 0-6.234 6.235-6.234 6.235zm15.586-.623h-1.247c-.344 0-.623.279-.623.623s.279.623.623.623h1.247v1.247c0 .344.279.624.624.624.344 0 .623-.28.623-.624v-1.247h1.247c.344 0 .623-.279.623-.623s-.279-.623-.623-.623h-1.247v-1.247c0-.344-.279-.624-.623-.624-.345 0-.624.28-.624.624z"
     fill="#009da2"
     id="path11" />
  <path
     id="path1057"
     style="fill:#00797d;fill-opacity:1"
     d="m 7.499861,38.667977 v 2.11914 c 0,1.515 0.602827,2.967063 1.673828,4.039063 0.804,0.80325 1.82214,1.342751 2.919922,1.5625 0,0 0.002,0 0.002,0 0.182349,0.03644 0.366588,0.06547 0.552735,0.08398 0,0 0.002,0 0.002,0 0.186153,0.01845 0.37378,0.02734 0.5625,0.02734 h 0.002 21.57031 c 0.568124,0 1.128063,-0.0856 1.66211,-0.248047 0.8895,-0.27074 1.708905,-0.756406 2.378906,-1.425781 C 39.897171,43.754172 40.5,42.302109 40.5,40.787109 v -2.11914 z" />
</svg>
