<?xml version="1.0" encoding="UTF-8" standalone="no"?>
<svg
   style="clip-rule:evenodd;fill-rule:evenodd;stroke-linejoin:round;stroke-miterlimit:2"
   viewBox="0 0 64 64"
   version="1.1"
   id="svg21"
   sodipodi:docname="text-x-sass.svg"
   inkscape:version="1.1.2 (0a00cf5339, 2022-02-04)"
   xmlns:inkscape="http://www.inkscape.org/namespaces/inkscape"
   xmlns:sodipodi="http://sodipodi.sourceforge.net/DTD/sodipodi-0.dtd"
   xmlns:xlink="http://www.w3.org/1999/xlink"
   xmlns="http://www.w3.org/2000/svg"
   xmlns:svg="http://www.w3.org/2000/svg">
  <sodipodi:namedview
     id="namedview23"
     pagecolor="#ffffff"
     bordercolor="#666666"
     borderopacity="1.0"
     inkscape:pageshadow="2"
     inkscape:pageopacity="0.0"
     inkscape:pagecheckerboard="0"
     showgrid="false"
     inkscape:zoom="10.65625"
     inkscape:cx="32"
     inkscape:cy="32"
     inkscape:window-width="1896"
     inkscape:window-height="1022"
     inkscape:window-x="12"
     inkscape:window-y="46"
     inkscape:window-maximized="1"
     inkscape:current-layer="svg21" />
  <path
     id="path2"
     style="fill:url(#linearGradient4856)"
     d="M 17.617188 1.46875 C 15.597188 1.46875 13.659469 2.2712188 12.230469 3.6992188 C 10.802469 5.1282186 10 7.0678906 10 9.0878906 L 10 14.806641 L 10 54.382812 C 10 56.402814 10.802469 58.340531 12.230469 59.769531 C 13.659469 61.197531 15.597187 62 17.617188 62 L 46.382812 62 C 48.402814 62 50.340531 61.197531 51.769531 59.769531 C 53.197531 58.340531 54 56.402814 54 54.382812 L 54 14.806641 L 54 9.0878906 C 54 7.0678906 53.197531 5.1282186 51.769531 3.6992188 C 50.340531 2.2712188 48.402813 1.46875 46.382812 1.46875 L 37.097656 1.46875 L 26.902344 1.46875 L 17.617188 1.46875 z " />
  <path
     id="path2-3-3"
     style="clip-rule:evenodd;fill:#852f69;fill-opacity:1;fill-rule:evenodd;stroke-linecap:round;stroke-linejoin:round;stroke-miterlimit:2"
     d="m 10.000006,50.982422 v 3.398437 0.002 c 6.4e-5,0.251841 0.01244,0.501552 0.03711,0.75 v 0.002 c 0.02473,0.248442 0.06268,0.494885 0.111329,0.738281 v 0.002 c 0.04871,0.243391 0.109702,0.484016 0.181639,0.720703 v 0.002 c 0.072,0.236684 0.155455,0.468944 0.25,0.697266 v 0.002 c 0.09461,0.228323 0.199935,0.453573 0.316407,0.671875 v 0.002 c 0.116531,0.218305 0.245101,0.430096 0.382813,0.636719 v 0.002 c 0.137776,0.206628 0.287038,0.406326 0.445312,0.599609 v 0.002 c 0.158341,0.193289 0.327702,0.378358 0.50586,0.55664 v 0.002 c 0.714498,0.714 1.557098,1.271274 2.472653,1.650391 C 15.618682,61.799106 16.607188,62 17.617188,62 h 28.765625 c 1.010002,0 1.998508,-0.200473 2.914062,-0.580078 0.915554,-0.379117 1.758156,-0.936391 2.472656,-1.650391 v -0.002 C 53.19753,58.338626 54,56.400859 54,54.380859 v -3.398437 z" />
  <path
     d="m25.773 56.84c-0.267-0.064-0.477-0.123-0.632-0.176s-0.315-0.128-0.48-0.224-0.285-0.216-0.36-0.36-0.112-0.317-0.112-0.52c0-0.133 0.021-0.261 0.064-0.384 0.048-0.128 0.125-0.253 0.232-0.376 0.107-0.128 0.264-0.229 0.472-0.304 0.213-0.08 0.464-0.12 0.752-0.12 0.299 0 0.555 0.032 0.768 0.096 0.213 0.059 0.379 0.147 0.496 0.264s0.205 0.237 0.264 0.36 0.101 0.269 0.128 0.44l-0.696 0.088c-0.064-0.448-0.368-0.672-0.912-0.672-0.571 0-0.856 0.179-0.856 0.536 0 0.16 0.061 0.277 0.184 0.352s0.352 0.157 0.688 0.248c0.048 0.011 0.136 0.035 0.264 0.072 0.133 0.032 0.221 0.056 0.264 0.072 0.048 0.011 0.128 0.035 0.24 0.072 0.112 0.032 0.189 0.059 0.232 0.08 0.048 0.021 0.115 0.053 0.2 0.096 0.091 0.043 0.155 0.083 0.192 0.12s0.083 0.085 0.136 0.144 0.091 0.12 0.112 0.184c0.027 0.059 0.048 0.128 0.064 0.208 0.021 0.08 0.032 0.165 0.032 0.256 0 0.251-0.059 0.467-0.176 0.648-0.112 0.181-0.259 0.32-0.44 0.416-0.176 0.091-0.352 0.155-0.528 0.192-0.176 0.043-0.349 0.064-0.52 0.064-1.024 0-1.616-0.445-1.776-1.336l0.696-0.112c0.075 0.581 0.435 0.872 1.08 0.872 0.635 0 0.952-0.221 0.952-0.664 0-0.048-5e-3 -0.091-0.016-0.128-5e-3 -0.043-0.021-0.08-0.048-0.112s-0.051-0.059-0.072-0.08c-0.021-0.027-0.056-0.051-0.104-0.072-0.048-0.027-0.088-0.045-0.12-0.056-0.027-0.016-0.075-0.032-0.144-0.048-0.069-0.021-0.123-0.037-0.16-0.048-0.032-0.011-0.091-0.024-0.176-0.04-0.085-0.021-0.147-0.037-0.184-0.048z"
     style="fill-rule:nonzero;fill:#fff"
     id="path4" />
  <path
     d="m29.989 54.952c-0.341 0-0.589 0.061-0.744 0.184-0.149 0.117-0.266 0.32-0.352 0.608l-0.672-0.096c0.176-0.848 0.798-1.272 1.864-1.272 0.587 0 1 0.109 1.24 0.328 0.246 0.213 0.368 0.627 0.368 1.24v1.824c0 0.293 0.072 0.576 0.216 0.848h-0.728c-0.069-0.149-0.114-0.32-0.136-0.512-0.485 0.405-0.997 0.608-1.536 0.608-0.416 0-0.757-0.104-1.024-0.312-0.266-0.213-0.4-0.504-0.4-0.872 0-0.427 0.2-0.768 0.6-1.024 0.171-0.112 0.539-0.208 1.104-0.288 0.566-0.085 0.963-0.168 1.192-0.248v-0.176c0-0.56-0.33-0.84-0.992-0.84zm-0.304 3.184c0.864 0 1.296-0.448 1.296-1.344v-0.248c-0.176 0.075-0.469 0.144-0.88 0.208-0.405 0.059-0.725 0.141-0.96 0.248-0.229 0.101-0.344 0.269-0.344 0.504 0 0.421 0.296 0.632 0.888 0.632z"
     style="fill-rule:nonzero;fill:#fff"
     id="path6" />
  <path
     d="m34.211 56.84c-0.267-0.064-0.478-0.123-0.632-0.176-0.155-0.053-0.315-0.128-0.48-0.224-0.166-0.096-0.286-0.216-0.36-0.36-0.075-0.144-0.112-0.317-0.112-0.52 0-0.133 0.021-0.261 0.064-0.384 0.048-0.128 0.125-0.253 0.232-0.376 0.106-0.128 0.264-0.229 0.472-0.304 0.213-0.08 0.464-0.12 0.752-0.12 0.298 0 0.554 0.032 0.768 0.096 0.213 0.059 0.378 0.147 0.496 0.264 0.117 0.117 0.205 0.237 0.264 0.36 0.058 0.123 0.101 0.269 0.128 0.44l-0.696 0.088c-0.064-0.448-0.368-0.672-0.912-0.672-0.571 0-0.856 0.179-0.856 0.536 0 0.16 0.061 0.277 0.184 0.352 0.122 0.075 0.352 0.157 0.688 0.248 0.048 0.011 0.136 0.035 0.264 0.072 0.133 0.032 0.221 0.056 0.264 0.072 0.048 0.011 0.128 0.035 0.24 0.072 0.112 0.032 0.189 0.059 0.232 0.08 0.048 0.021 0.114 0.053 0.2 0.096 0.09 0.043 0.154 0.083 0.192 0.12 0.037 0.037 0.082 0.085 0.136 0.144 0.053 0.059 0.09 0.12 0.112 0.184 0.026 0.059 0.048 0.128 0.064 0.208 0.021 0.08 0.032 0.165 0.032 0.256 0 0.251-0.059 0.467-0.176 0.648-0.112 0.181-0.259 0.32-0.44 0.416-0.176 0.091-0.352 0.155-0.528 0.192-0.176 0.043-0.35 0.064-0.52 0.064-1.024 0-1.616-0.445-1.776-1.336l0.696-0.112c0.074 0.581 0.434 0.872 1.08 0.872 0.634 0 0.952-0.221 0.952-0.664 0-0.048-6e-3 -0.091-0.016-0.128-6e-3 -0.043-0.022-0.08-0.048-0.112-0.027-0.032-0.051-0.059-0.072-0.08-0.022-0.027-0.056-0.051-0.104-0.072-0.048-0.027-0.088-0.045-0.12-0.056-0.027-0.016-0.075-0.032-0.144-0.048-0.07-0.021-0.123-0.037-0.16-0.048-0.032-0.011-0.091-0.024-0.176-0.04-0.086-0.021-0.147-0.037-0.184-0.048z"
     style="fill-rule:nonzero;fill:#fff"
     id="path8" />
  <path
     d="m38.195 56.84c-0.267-0.064-0.477-0.123-0.632-0.176s-0.315-0.128-0.48-0.224-0.285-0.216-0.36-0.36-0.112-0.317-0.112-0.52c0-0.133 0.021-0.261 0.064-0.384 0.048-0.128 0.125-0.253 0.232-0.376 0.107-0.128 0.264-0.229 0.472-0.304 0.213-0.08 0.464-0.12 0.752-0.12 0.299 0 0.555 0.032 0.768 0.096 0.213 0.059 0.379 0.147 0.496 0.264s0.205 0.237 0.264 0.36 0.101 0.269 0.128 0.44l-0.696 0.088c-0.064-0.448-0.368-0.672-0.912-0.672-0.571 0-0.856 0.179-0.856 0.536 0 0.16 0.061 0.277 0.184 0.352s0.352 0.157 0.688 0.248c0.048 0.011 0.136 0.035 0.264 0.072 0.133 0.032 0.221 0.056 0.264 0.072 0.048 0.011 0.128 0.035 0.24 0.072 0.112 0.032 0.189 0.059 0.232 0.08 0.048 0.021 0.115 0.053 0.2 0.096 0.091 0.043 0.155 0.083 0.192 0.12s0.083 0.085 0.136 0.144 0.091 0.12 0.112 0.184c0.027 0.059 0.048 0.128 0.064 0.208 0.021 0.08 0.032 0.165 0.032 0.256 0 0.251-0.059 0.467-0.176 0.648-0.112 0.181-0.259 0.32-0.44 0.416-0.176 0.091-0.352 0.155-0.528 0.192-0.176 0.043-0.349 0.064-0.52 0.064-1.024 0-1.616-0.445-1.776-1.336l0.696-0.112c0.075 0.581 0.435 0.872 1.08 0.872 0.635 0 0.952-0.221 0.952-0.664 0-0.048-5e-3 -0.091-0.016-0.128-5e-3 -0.043-0.021-0.08-0.048-0.112s-0.051-0.059-0.072-0.08c-0.021-0.027-0.056-0.051-0.104-0.072-0.048-0.027-0.088-0.045-0.12-0.056-0.027-0.016-0.075-0.032-0.144-0.048-0.069-0.021-0.123-0.037-0.16-0.048-0.032-0.011-0.091-0.024-0.176-0.04-0.085-0.021-0.147-0.037-0.184-0.048z"
     style="fill-rule:nonzero;fill:#fff"
     id="path10" />
  <path
     d="m29.185 31.862c0.212 0.783 0.189 1.513-0.03 2.174-0.024 0.074-0.051 0.147-0.08 0.218-0.029 0.072-0.061 0.143-0.094 0.213-0.169 0.35-0.395 0.677-0.672 0.98-0.846 0.922-2.027 1.271-2.534 0.977-0.547-0.317-0.273-1.618 0.708-2.654 1.054-1.114 2.572-1.831 2.572-1.831l-3e-3 -5e-3c0.043-0.023 0.088-0.048 0.133-0.072zm12.02-13.171c-0.659-2.584-4.944-3.434-9-1.993-2.414 0.858-5.027 2.203-6.905 3.961-2.234 2.089-2.59 3.908-2.444 4.668 0.518 2.681 4.192 4.434 5.702 5.734v8e-3c-0.445 0.219-3.704 1.869-4.467 3.555-0.805 1.779 0.128 3.056 0.746 3.228 1.913 0.532 3.877-0.425 4.933-2 1.018-1.519 0.933-3.481 0.491-4.456 0.61-0.162 1.322-0.234 2.227-0.128 2.552 0.298 3.053 1.892 2.957 2.559-0.095 0.667-0.631 1.034-0.81 1.144-0.179 0.111-0.233 0.15-0.218 0.232 0.021 0.12 0.104 0.115 0.257 0.089 0.21-0.035 1.34-0.542 1.389-1.774 0.061-1.563-1.437-3.312-4.09-3.266-1.092 0.019-1.779 0.123-2.275 0.308-0.037-0.042-0.074-0.084-0.113-0.125-1.64-1.75-4.671-2.987-4.543-5.339 0.047-0.856 0.344-3.107 5.826-5.839 4.49-2.237 8.084-1.621 8.705-0.257 0.888 1.95-1.921 5.573-6.584 6.096-1.776 0.199-2.712-0.49-2.944-0.746-0.245-0.27-0.282-0.282-0.373-0.232-0.149 0.083-0.055 0.321 0 0.463 0.139 0.363 0.71 1.005 1.684 1.325 0.857 0.281 2.943 0.435 5.465-0.54 2.826-1.093 5.032-4.133 4.384-6.674"
     style="fill-rule:nonzero;fill:#fff"
     id="path12" />
  <defs
     id="defs19">
    <linearGradient
       id="_Linear1"
       x2="1"
       gradientTransform="matrix(0,-49.619,49.619,0,177.88,51.088)"
       gradientUnits="userSpaceOnUse">
      <stop
         style="stop-color:#a33a81"
         offset="0"
         id="stop14" />
      <stop
         style="stop-color:#fd55db"
         offset="1"
         id="stop16" />
    </linearGradient>
    <linearGradient
       inkscape:collect="always"
       xlink:href="#_Linear1"
       id="linearGradient4856"
       gradientUnits="userSpaceOnUse"
       gradientTransform="matrix(0,-49.619,49.619,0,177.88,51.088)"
       x2="1" />
  </defs>
</svg>
