<?xml version="1.0" encoding="UTF-8" standalone="no"?>
<svg
   style="clip-rule:evenodd;fill-rule:evenodd;stroke-linejoin:round;stroke-miterlimit:2"
   viewBox="0 0 64 64"
   version="1.1"
   id="svg21"
   sodipodi:docname="text-css_orig.svg"
   inkscape:version="1.1.2 (0a00cf5339, 2022-02-04)"
   xmlns:inkscape="http://www.inkscape.org/namespaces/inkscape"
   xmlns:sodipodi="http://sodipodi.sourceforge.net/DTD/sodipodi-0.dtd"
   xmlns:xlink="http://www.w3.org/1999/xlink"
   xmlns="http://www.w3.org/2000/svg"
   xmlns:svg="http://www.w3.org/2000/svg">
  <sodipodi:namedview
     id="namedview23"
     pagecolor="#ffffff"
     bordercolor="#666666"
     borderopacity="1.0"
     inkscape:pageshadow="2"
     inkscape:pageopacity="0.0"
     inkscape:pagecheckerboard="0"
     showgrid="false"
     inkscape:zoom="10.65625"
     inkscape:cx="32"
     inkscape:cy="32"
     inkscape:window-width="1896"
     inkscape:window-height="1022"
     inkscape:window-x="12"
     inkscape:window-y="46"
     inkscape:window-maximized="1"
     inkscape:current-layer="svg21" />
  <path
     id="path2"
     style="fill:url(#linearGradient3806)"
     d="M 17.617188 1.46875 C 15.597188 1.46875 13.659469 2.2712188 12.230469 3.6992188 C 10.802469 5.1282186 10 7.0678906 10 9.0878906 L 10 13.898438 L 10 54.382812 C 10 56.402814 10.802469 58.340531 12.230469 59.769531 C 13.659469 61.197531 15.597187 62 17.617188 62 L 46.382812 62 C 48.402814 62 50.340531 61.197531 51.769531 59.769531 C 53.197531 58.340531 54 56.402814 54 54.382812 L 54 13.898438 L 54 9.0878906 C 54 7.0678906 53.197531 5.1282186 51.769531 3.6992188 C 50.340531 2.2712188 48.402813 1.46875 46.382812 1.46875 L 37.412109 1.46875 L 26.587891 1.46875 L 17.617188 1.46875 z " />
  <path
     id="path2-3"
     style="clip-rule:evenodd;fill:#674511;fill-opacity:1;fill-rule:evenodd;stroke-linecap:round;stroke-linejoin:round;stroke-miterlimit:2"
     d="m 10.000002,50.982422 v 3.398437 0.002 c 6.5e-5,0.251841 0.01244,0.501552 0.03711,0.75 v 0.002 c 0.02473,0.248442 0.06268,0.494885 0.111329,0.738281 v 0.002 c 0.04871,0.243391 0.109702,0.484016 0.18164,0.720703 v 0.002 c 0.072,0.236684 0.155456,0.468944 0.25,0.697266 v 0.002 c 0.09461,0.228323 0.199936,0.453573 0.316406,0.671875 v 0.002 c 0.116531,0.218305 0.245101,0.430096 0.382813,0.636719 v 0.002 c 0.137776,0.206628 0.287038,0.406326 0.445312,0.599609 v 0.002 c 0.158341,0.193289 0.327702,0.378358 0.50586,0.55664 v 0.002 c 0.714499,0.714 1.5571,1.271274 2.472656,1.650391 C 15.618681,61.799106 16.607188,62 17.617187,62 h 28.765625 c 1.010002,0 1.998508,-0.200473 2.914063,-0.580078 0.915554,-0.379117 1.758155,-0.936391 2.472656,-1.650391 v -0.002 C 53.19753,58.338626 54,56.400859 54,54.380859 v -3.398437 z" />
  <path
     d="m28.245 58.971c-0.601 0-1.095-0.202-1.483-0.606-0.388-0.41-0.582-0.921-0.582-1.533s0.194-1.12 0.582-1.524c0.388-0.41 0.882-0.615 1.483-0.615 0.448 0 0.82 0.109 1.115 0.328 0.295 0.218 0.511 0.494 0.647 0.828l-0.688 0.286c-0.208-0.502-0.582-0.754-1.123-0.754-0.333 0-0.628 0.137-0.885 0.41-0.251 0.273-0.377 0.62-0.377 1.041s0.126 0.768 0.377 1.041c0.257 0.273 0.552 0.41 0.885 0.41 0.563 0 0.951-0.252 1.164-0.754l0.672 0.286c-0.137 0.328-0.358 0.604-0.664 0.828-0.3 0.219-0.675 0.328-1.123 0.328z"
     style="fill-rule:nonzero;fill:#fff"
     id="path4" />
  <path
     d="m32.175 58.971c-0.448 0-0.82-0.109-1.115-0.328-0.289-0.218-0.502-0.492-0.639-0.819l0.672-0.279c0.213 0.503 0.576 0.754 1.09 0.754 0.235 0 0.426-0.052 0.574-0.156 0.153-0.104 0.229-0.24 0.229-0.41 0-0.262-0.183-0.439-0.549-0.532l-0.811-0.197c-0.257-0.065-0.5-0.188-0.73-0.369-0.229-0.185-0.344-0.434-0.344-0.746 0-0.355 0.156-0.641 0.467-0.86 0.317-0.224 0.691-0.336 1.123-0.336 0.355 0 0.672 0.082 0.951 0.246 0.278 0.158 0.478 0.388 0.598 0.688l-0.656 0.271c-0.147-0.355-0.453-0.533-0.917-0.533-0.225 0-0.413 0.046-0.566 0.139s-0.229 0.219-0.229 0.377c0 0.23 0.177 0.385 0.532 0.467l0.795 0.189c0.377 0.087 0.656 0.238 0.836 0.451s0.271 0.453 0.271 0.721c0 0.36-0.148 0.661-0.443 0.901-0.295 0.241-0.675 0.361-1.139 0.361z"
     style="fill-rule:nonzero;fill:#fff"
     id="path6" />
  <path
     d="m35.904 58.971c-0.448 0-0.819-0.109-1.114-0.328-0.29-0.218-0.503-0.492-0.639-0.819l0.672-0.279c0.213 0.503 0.576 0.754 1.09 0.754 0.235 0 0.426-0.052 0.573-0.156 0.153-0.104 0.23-0.24 0.23-0.41 0-0.262-0.183-0.439-0.549-0.532l-0.812-0.197c-0.256-0.065-0.5-0.188-0.729-0.369-0.23-0.185-0.344-0.434-0.344-0.746 0-0.355 0.155-0.641 0.467-0.86 0.317-0.224 0.691-0.336 1.123-0.336 0.355 0 0.672 0.082 0.95 0.246 0.279 0.158 0.478 0.388 0.599 0.688l-0.656 0.271c-0.148-0.355-0.453-0.533-0.918-0.533-0.224 0-0.412 0.046-0.565 0.139s-0.23 0.219-0.23 0.377c0 0.23 0.178 0.385 0.533 0.467l0.795 0.189c0.377 0.087 0.655 0.238 0.836 0.451 0.18 0.213 0.27 0.453 0.27 0.721 0 0.36-0.147 0.661-0.442 0.901-0.295 0.241-0.675 0.361-1.14 0.361z"
     style="fill-rule:nonzero;fill:#fff"
     id="path8" />
  <path
     d="m28.132 38c-1.233 0-2.209-0.36-2.93-1.081-0.704-0.72-1.057-1.681-1.057-2.882v-4.107c0-0.656-0.168-1.153-0.504-1.489-0.336-0.352-0.761-0.528-1.273-0.528v-1.826c0.512 0 0.937-0.168 1.273-0.504 0.336-0.352 0.504-0.857 0.504-1.513v-4.107c0-1.201 0.353-2.162 1.057-2.882 0.721-0.721 1.697-1.081 2.93-1.081h0.529v1.825h-0.529c-0.56 0-1.033 0.2-1.417 0.601-0.368 0.4-0.552 0.936-0.552 1.609v4.107c0 1.457-0.553 2.394-1.657 2.81v0.096c1.104 0.384 1.657 1.321 1.657 2.81v4.107c0 0.673 0.184 1.209 0.552 1.609 0.384 0.401 0.857 0.601 1.417 0.601h0.529v1.825h-0.529z"
     style="fill-rule:nonzero;fill:#674511"
     id="path10" />
  <path
     d="m36.035 38h-0.528v-1.825h0.528c0.561 0 1.025-0.2 1.393-0.601 0.385-0.4 0.577-0.936 0.577-1.609v-4.107c0-1.489 0.552-2.426 1.657-2.81v-0.096c-1.105-0.416-1.657-1.353-1.657-2.81v-4.107c0-0.673-0.192-1.209-0.577-1.609-0.368-0.401-0.832-0.601-1.393-0.601h-0.528v-1.825h0.528c1.233 0 2.202 0.36 2.907 1.081 0.72 0.72 1.08 1.681 1.08 2.882v4.107c0 0.656 0.168 1.161 0.505 1.513 0.336 0.336 0.76 0.504 1.273 0.504v1.826c-0.513 0-0.937 0.176-1.273 0.528-0.337 0.336-0.505 0.833-0.505 1.489v4.107c0 1.201-0.36 2.162-1.08 2.882-0.705 0.721-1.674 1.081-2.907 1.081z"
     style="fill-rule:nonzero;fill:#674511"
     id="path12" />
  <defs
     id="defs19">
    <linearGradient
       id="_Linear1"
       x2="1"
       gradientTransform="matrix(1.07196,-49.7469,49.7469,1.07196,178.156,54.3653)"
       gradientUnits="userSpaceOnUse">
      <stop
         style="stop-color:#c67b07"
         offset="0"
         id="stop14" />
      <stop
         style="stop-color:#f4a830"
         offset="1"
         id="stop16" />
    </linearGradient>
    <linearGradient
       inkscape:collect="always"
       xlink:href="#_Linear1"
       id="linearGradient3806"
       gradientUnits="userSpaceOnUse"
       gradientTransform="matrix(1.07196,-49.7469,49.7469,1.07196,178.156,54.3653)"
       x2="1" />
  </defs>
</svg>
