<?xml version="1.0" encoding="UTF-8" standalone="no"?>
<svg
   style="clip-rule:evenodd;fill-rule:evenodd;stroke-linejoin:round;stroke-miterlimit:2"
   viewBox="0 0 64 64"
   version="1.1"
   id="svg21"
   sodipodi:docname="application-x-subrip.svg"
   inkscape:version="1.1.2 (0a00cf5339, 2022-02-04)"
   xmlns:inkscape="http://www.inkscape.org/namespaces/inkscape"
   xmlns:sodipodi="http://sodipodi.sourceforge.net/DTD/sodipodi-0.dtd"
   xmlns:xlink="http://www.w3.org/1999/xlink"
   xmlns="http://www.w3.org/2000/svg"
   xmlns:svg="http://www.w3.org/2000/svg">
  <sodipodi:namedview
     id="namedview23"
     pagecolor="#ffffff"
     bordercolor="#666666"
     borderopacity="1.0"
     inkscape:pageshadow="2"
     inkscape:pageopacity="0.0"
     inkscape:pagecheckerboard="0"
     showgrid="false"
     inkscape:zoom="10.65625"
     inkscape:cx="32"
     inkscape:cy="32"
     inkscape:window-width="1896"
     inkscape:window-height="1022"
     inkscape:window-x="12"
     inkscape:window-y="46"
     inkscape:window-maximized="1"
     inkscape:current-layer="svg21" />
  <path
     id="path2"
     style="fill:url(#linearGradient4118)"
     d="M 17.617188 1.46875 C 15.597188 1.46875 13.659469 2.2712188 12.230469 3.6992188 C 10.802469 5.1282186 10 7.0678906 10 9.0878906 L 10 11.021484 L 10 54.382812 C 10 56.402814 10.802469 58.340531 12.230469 59.769531 C 13.659469 61.197531 15.597187 62 17.617188 62 L 46.382812 62 C 48.402814 62 50.340531 61.197531 51.769531 59.769531 C 53.197531 58.340531 54 56.402814 54 54.382812 L 54 11.021484 L 54 9.0878906 C 54 7.0678906 53.197531 5.1282186 51.769531 3.6992188 C 50.340531 2.2712188 48.402813 1.46875 46.382812 1.46875 L 39.8125 1.46875 L 24.1875 1.46875 L 17.617188 1.46875 z " />
  <path
     d="m 54,50.184 v 4.198 c 0,2.02 -0.803,3.958 -2.231,5.387 C 50.34,61.197 48.402,62 46.382,62 H 17.618 C 15.598,62 13.66,61.197 12.231,59.769 10.803,58.34 10,56.402 10,54.382 v -4.198 z"
     style="clip-rule:evenodd;fill:#3d434a;fill-opacity:1;fill-rule:evenodd;stroke-linejoin:round;stroke-miterlimit:2"
     id="path4-3" />
  <path
     d="m25.838 57.862l0.695-0.109c0.039 0.278 0.148 0.492 0.326 0.64 0.179 0.149 0.428 0.223 0.748 0.223 0.323 0 0.563-0.066 0.719-0.197 0.156-0.132 0.235-0.286 0.235-0.463 0-0.159-0.069-0.284-0.207-0.375-0.097-0.063-0.336-0.142-0.719-0.238-0.516-0.131-0.873-0.243-1.072-0.338-0.2-0.095-0.351-0.227-0.454-0.395-0.102-0.168-0.154-0.353-0.154-0.557 0-0.184 0.042-0.356 0.127-0.513 0.085-0.158 0.2-0.289 0.346-0.393 0.109-0.08 0.258-0.149 0.447-0.205s0.391-0.084 0.607-0.084c0.326 0 0.612 0.047 0.858 0.141s0.428 0.22 0.545 0.381c0.117 0.16 0.198 0.374 0.242 0.642l-0.688 0.094c-0.031-0.214-0.121-0.38-0.271-0.5s-0.361-0.18-0.635-0.18c-0.323 0-0.553 0.054-0.691 0.16-0.138 0.107-0.207 0.232-0.207 0.375 0 0.092 0.028 0.174 0.086 0.247 0.057 0.075 0.147 0.138 0.269 0.187 0.071 0.026 0.278 0.086 0.621 0.18 0.498 0.133 0.845 0.241 1.041 0.326 0.197 0.085 0.351 0.208 0.463 0.369 0.112 0.162 0.168 0.362 0.168 0.602 0 0.234-0.068 0.455-0.205 0.662s-0.334 0.367-0.592 0.48c-0.257 0.113-0.549 0.17-0.875 0.17-0.539 0-0.95-0.112-1.232-0.336-0.283-0.224-0.463-0.556-0.541-0.996z"
     style="fill-rule:nonzero;fill:#fff"
     id="path4" />
  <path
     d="m32.838 59.1v-0.609c-0.323 0.469-0.762 0.703-1.317 0.703-0.244 0-0.473-0.047-0.685-0.141-0.212-0.093-0.37-0.211-0.473-0.353s-0.175-0.316-0.217-0.522c-0.028-0.138-0.042-0.356-0.042-0.656v-2.57h0.703v2.301c0 0.367 0.014 0.614 0.043 0.742 0.044 0.185 0.138 0.33 0.281 0.435 0.143 0.106 0.32 0.159 0.531 0.159s0.409-0.054 0.594-0.162c0.185-0.109 0.316-0.256 0.392-0.442 0.077-0.186 0.116-0.456 0.116-0.81v-2.223h0.703v4.148h-0.629z"
     style="fill-rule:nonzero;fill:#fff"
     id="path6" />
  <path
     d="m35.217 59.1h-0.653v-5.726h0.704v2.043c0.296-0.373 0.675-0.559 1.136-0.559 0.256 0 0.497 0.052 0.725 0.154 0.228 0.103 0.415 0.248 0.562 0.434 0.148 0.186 0.263 0.411 0.346 0.674s0.125 0.544 0.125 0.844c0 0.711-0.176 1.26-0.527 1.648-0.352 0.388-0.774 0.582-1.266 0.582-0.489 0-0.874-0.204-1.152-0.613v0.519zm-8e-3 -2.105c0 0.497 0.068 0.857 0.203 1.078 0.221 0.362 0.521 0.543 0.899 0.543 0.307 0 0.572-0.133 0.796-0.4s0.336-0.665 0.336-1.194c0-0.541-0.107-0.941-0.322-1.199s-0.475-0.387-0.779-0.387c-0.307 0-0.573 0.134-0.797 0.401s-0.336 0.653-0.336 1.158z"
     style="fill-rule:nonzero;fill:#fff"
     id="path8" />
  <path
     d="m40.823 18.927c-2.354-1.912-5.479-2.965-8.801-2.965-3.321 0-6.447 1.053-8.801 2.965-2.374 1.929-3.682 4.5-3.682 7.239 0 2.614 1.192 5.074 3.365 6.97-0.039 0.088-0.07 0.181-0.09 0.278l-0.714 3.506c-0.085 0.416 0.029 0.665 0.14 0.8 0.127 0.156 0.317 0.242 0.533 0.242 0.163 0 0.339-0.048 0.522-0.143l4.153-2.154c1.437 0.462 2.983 0.705 4.574 0.705 3.322 0 6.447-1.053 8.801-2.966 2.375-1.928 3.682-4.499 3.682-7.238s-1.307-5.31-3.682-7.239z"
     style="fill-rule:nonzero;fill:#3d434a"
     id="path10" />
  <path
     d="m33.894 28.457v1.292h-8.831v-1.292h8.831zm5.169-2.508v1.292h-14v-1.292h14zm0-2.538v1.292h-14v-1.292h14z"
     style="fill:#d9dee3"
     id="path12" />
  <defs
     id="defs19">
    <linearGradient
       id="_Linear1"
       x2="1"
       gradientTransform="matrix(0,-49.619,49.619,0,104.99,51.088)"
       gradientUnits="userSpaceOnUse">
      <stop
         style="stop-color:#758b9a"
         offset="0"
         id="stop14" />
      <stop
         style="stop-color:#b5bdc2"
         offset="1"
         id="stop16" />
    </linearGradient>
    <linearGradient
       inkscape:collect="always"
       xlink:href="#_Linear1"
       id="linearGradient4118"
       gradientUnits="userSpaceOnUse"
       gradientTransform="matrix(0,-49.619,49.619,0,104.99,51.088)"
       x2="1" />
  </defs>
</svg>
