<?xml version="1.0" encoding="UTF-8" standalone="no"?>
<svg
   clip-rule="evenodd"
   fill-rule="evenodd"
   stroke-linejoin="round"
   stroke-miterlimit="2"
   viewBox="0 0 48 48"
   version="1.1"
   id="svg21"
   sodipodi:docname="text-x-dart.svg"
   inkscape:version="1.1.2 (0a00cf5339, 2022-02-04)"
   xmlns:inkscape="http://www.inkscape.org/namespaces/inkscape"
   xmlns:sodipodi="http://sodipodi.sourceforge.net/DTD/sodipodi-0.dtd"
   xmlns:xlink="http://www.w3.org/1999/xlink"
   xmlns="http://www.w3.org/2000/svg"
   xmlns:svg="http://www.w3.org/2000/svg">
  <defs
     id="defs25">
    <linearGradient
       inkscape:collect="always"
       xlink:href="#a"
       id="linearGradient4216"
       gradientUnits="userSpaceOnUse"
       gradientTransform="matrix(0,-37.21425,37.21425,0,133.41,38.316)"
       x2="1" />
  </defs>
  <sodipodi:namedview
     id="namedview23"
     pagecolor="#ffffff"
     bordercolor="#666666"
     borderopacity="1.0"
     inkscape:pageshadow="2"
     inkscape:pageopacity="0.0"
     inkscape:pagecheckerboard="0"
     showgrid="false"
     inkscape:zoom="14.208333"
     inkscape:cx="24"
     inkscape:cy="24"
     inkscape:window-width="1896"
     inkscape:window-height="1022"
     inkscape:window-x="12"
     inkscape:window-y="46"
     inkscape:window-maximized="1"
     inkscape:current-layer="svg21" />
  <linearGradient
     id="a"
     x2="1"
     gradientTransform="matrix(0,-37.21425,37.21425,0,133.41,38.316)"
     gradientUnits="userSpaceOnUse">
    <stop
       stop-color="#758b9a"
       offset="0"
       id="stop2" />
    <stop
       stop-color="#b5bdc2"
       offset="1"
       id="stop4" />
  </linearGradient>
  <path
     id="path7"
     style="stroke-width:0.75;fill:url(#linearGradient4216)"
     d="M 13.212891 1.1015625 C 11.697891 1.1015625 10.245578 1.7043906 9.1738281 2.7753906 C 8.1028281 3.8471406 7.5 5.2994531 7.5 6.8144531 L 7.5 10.119141 L 7.5 40.787109 C 7.5 42.302109 8.1028281 43.754422 9.1738281 44.826172 C 10.245578 45.897172 11.697891 46.5 13.212891 46.5 L 34.787109 46.5 C 36.302109 46.5 37.754422 45.897172 38.826172 44.826172 C 39.897172 43.754422 40.5 42.302109 40.5 40.787109 L 40.5 10.119141 L 40.5 6.8144531 C 40.5 5.2994531 39.897172 3.8471406 38.826172 2.7753906 C 37.754422 1.7043906 36.302109 1.1015625 34.787109 1.1015625 L 28.533203 1.1015625 L 19.466797 1.1015625 L 13.212891 1.1015625 z " />
  <g
     fill-opacity=".5"
     fill-rule="nonzero"
     id="g19">
    <path
       d="m16.84 26.877-4.137-4.137c-.491-.505-.796-1.216-.796-1.911 0-.321.181-.824.318-1.114l3.914-7.859v12.794c0 1.275.066 1.59.701 2.227z"
       fill="#01579b"
       id="path9" />
    <path
       d="m16.139 11.855 7.544-3.914c.348-.208.885-.318 1.432-.318.636 0 1.39.433 1.75.796l4.126 4.125c-.71-.706-1.344-.689-2.217-.689z"
       fill="#40c4ff"
       id="path11" />
    <path
       transform="matrix(.177701 0 0 .177701 11.5725 7.5178)"
       d="m114.176 112.52h-80.946l24.17 24.18h56.776z"
       fill="#40c4ff"
       id="path13" />
    <path
       transform="matrix(.604672 0 0 .604672 9.48787 5.20395)"
       d="m11 32.16c0 2.11.109 2.63 1.161 3.685l1.152 1.156h23.688l-26.001-26z"
       fill="#0ba8ef"
       id="path15" />
    <path
       transform="matrix(.604672 0 0 .604672 9.48787 5.20395)"
       d="m31.895 11h-20.895l25.999 25.999h7.001v-16.421l-8.42-8.42c-1.181-1.187-2.233-1.158-3.685-1.158z"
       fill="#01579b"
       id="path17" />
  </g>
  <path
     id="path1057"
     style="fill:#586874;fill-opacity:1"
     d="m 7.499862,38.667977 v 2.11914 c 0,1.515 0.602827,2.967063 1.673828,4.039063 0.804,0.80325 1.822139,1.342751 2.919921,1.5625 0,0 0.002,0 0.002,0 0.182349,0.03644 0.366588,0.06547 0.552735,0.08398 0,0 0.002,0 0.002,0 0.186153,0.01845 0.37378,0.02734 0.5625,0.02734 h 0.002 21.57031 c 0.568124,0 1.128063,-0.0856 1.66211,-0.248047 0.8895,-0.27074 1.708905,-0.756406 2.378906,-1.425781 C 39.897171,43.754172 40.5,42.302109 40.5,40.787109 v -2.11914 z" />
</svg>
