<?xml version="1.0" encoding="UTF-8" standalone="no"?>
<svg
   style="clip-rule:evenodd;fill-rule:evenodd;stroke-linejoin:round;stroke-miterlimit:2"
   viewBox="0 0 64 64"
   version="1.1"
   id="svg23"
   sodipodi:docname="application-x-php.svg"
   inkscape:version="1.1.2 (0a00cf5339, 2022-02-04)"
   xmlns:inkscape="http://www.inkscape.org/namespaces/inkscape"
   xmlns:sodipodi="http://sodipodi.sourceforge.net/DTD/sodipodi-0.dtd"
   xmlns:xlink="http://www.w3.org/1999/xlink"
   xmlns="http://www.w3.org/2000/svg"
   xmlns:svg="http://www.w3.org/2000/svg">
  <sodipodi:namedview
     id="namedview25"
     pagecolor="#ffffff"
     bordercolor="#666666"
     borderopacity="1.0"
     inkscape:pageshadow="2"
     inkscape:pageopacity="0.0"
     inkscape:pagecheckerboard="0"
     showgrid="false"
     inkscape:zoom="10.65625"
     inkscape:cx="32"
     inkscape:cy="32"
     inkscape:window-width="1896"
     inkscape:window-height="1022"
     inkscape:window-x="12"
     inkscape:window-y="46"
     inkscape:window-maximized="1"
     inkscape:current-layer="svg23" />
  <path
     id="path2"
     style="fill:url(#linearGradient4588)"
     d="M 17.617188 1.46875 C 15.597188 1.46875 13.659469 2.2712188 12.230469 3.6992188 C 10.802469 5.1282186 10 7.0678906 10 9.0878906 L 10 11.099609 L 10 54.382812 C 10 56.402814 10.802469 58.340531 12.230469 59.769531 C 13.659469 61.197531 15.597187 62 17.617188 62 L 46.382812 62 C 48.402814 62 50.340531 61.197531 51.769531 59.769531 C 53.197531 58.340531 54 56.402814 54 54.382812 L 54 11.099609 L 54 9.0878906 C 54 7.0678906 53.197531 5.1282186 51.769531 3.6992188 C 50.340531 2.2712188 48.402813 1.46875 46.382812 1.46875 L 38.933594 1.46875 L 25.066406 1.46875 L 17.617188 1.46875 z " />
  <path
     id="path914"
     style="clip-rule:evenodd;fill:#272c43;fill-opacity:1;fill-rule:evenodd;stroke-width:1;stroke-linejoin:round;stroke-miterlimit:2"
     d="m 9.9999985,50.982422 v 3.40039 c 0,2.020002 0.8024685,3.957719 2.2304705,5.386719 C 13.659467,61.197531 15.597183,62 17.617187,62 h 28.765625 c 2.020002,0 3.957718,-0.802469 5.386719,-2.230469 C 53.19753,58.340531 54,56.402814 54,54.382812 v -3.40039 z" />
  <path
     d="m28 58.871c-0.306 0-0.582-0.066-0.828-0.197-0.241-0.131-0.421-0.295-0.541-0.492h-0.033l0.033 0.558v1.77h-0.754v-5.786h0.721v0.557h0.033c0.12-0.196 0.3-0.36 0.541-0.491 0.246-0.132 0.522-0.197 0.828-0.197 0.519 0 0.967 0.205 1.344 0.615 0.377 0.409 0.565 0.917 0.565 1.524 0 0.606-0.188 1.114-0.565 1.524s-0.825 0.615-1.344 0.615zm-0.123-0.689c0.349 0 0.65-0.131 0.901-0.393 0.252-0.268 0.377-0.62 0.377-1.057s-0.125-0.787-0.377-1.049c-0.251-0.268-0.552-0.402-0.901-0.402-0.355 0-0.659 0.131-0.91 0.394-0.246 0.262-0.369 0.614-0.369 1.057 0 0.442 0.123 0.795 0.369 1.057 0.251 0.262 0.555 0.393 0.91 0.393z"
     style="fill-rule:nonzero;fill:#fff"
     id="path4" />
  <path
     d="m31.274 52.872v1.852l-0.033 0.557h0.033c0.109-0.191 0.281-0.352 0.516-0.483 0.235-0.137 0.486-0.205 0.754-0.205 0.497 0 0.877 0.153 1.139 0.459s0.394 0.716 0.394 1.229v2.459h-0.754v-2.344c0-0.743-0.331-1.115-0.992-1.115-0.311 0-0.566 0.126-0.762 0.377-0.197 0.246-0.295 0.533-0.295 0.861v2.221h-0.754v-5.868h0.754z"
     style="fill-rule:nonzero;fill:#fff"
     id="path6" />
  <path
     d="m37.059 58.871c-0.305 0-0.581-0.066-0.827-0.197-0.241-0.131-0.421-0.295-0.541-0.492h-0.033l0.033 0.558v1.77h-0.754v-5.786h0.721v0.557h0.033c0.12-0.196 0.3-0.36 0.541-0.491 0.246-0.132 0.522-0.197 0.827-0.197 0.52 0 0.968 0.205 1.345 0.615 0.377 0.409 0.565 0.917 0.565 1.524 0 0.606-0.188 1.114-0.565 1.524s-0.825 0.615-1.345 0.615zm-0.122-0.689c0.349 0 0.65-0.131 0.901-0.393 0.251-0.268 0.377-0.62 0.377-1.057s-0.126-0.787-0.377-1.049c-0.251-0.268-0.552-0.402-0.901-0.402-0.356 0-0.659 0.131-0.91 0.394-0.246 0.262-0.369 0.614-0.369 1.057 0 0.442 0.123 0.795 0.369 1.057 0.251 0.262 0.554 0.393 0.91 0.393z"
     style="fill-rule:nonzero;fill:#fff"
     id="path8" />
  <path
     d="m29.538 34.84l-1.264-0.512 5.515-13.283 1.263 0.512-5.514 13.283z"
     style="fill-rule:nonzero;fill:#272c43"
     id="path10" />
  <path
     d="m40.302 33.816c-0.216 0.227-0.489 0.341-0.819 0.341s-0.609-0.114-0.837-0.341c-0.216-0.228-0.324-0.501-0.324-0.82s0.108-0.592 0.324-0.82c0.228-0.227 0.507-0.341 0.837-0.341s0.603 0.114 0.819 0.341c0.228 0.228 0.342 0.501 0.342 0.82s-0.114 0.592-0.342 0.82zm-0.017-3.552h-1.605v-0.802c0-0.512 0.109-0.951 0.325-1.315 0.216-0.375 0.597-0.814 1.144-1.314 0.307-0.285 0.523-0.496 0.649-0.632 0.136-0.148 0.267-0.347 0.392-0.598 0.137-0.261 0.205-0.529 0.205-0.802 0-0.524-0.171-0.945-0.512-1.264-0.33-0.318-0.791-0.478-1.383-0.478-0.979 0-1.65 0.547-2.015 1.639l-1.468-0.614c0.239-0.649 0.649-1.229 1.229-1.742 0.592-0.523 1.343-0.785 2.254-0.785 1.036 0 1.878 0.307 2.527 0.922 0.649 0.603 0.973 1.377 0.973 2.322 0 0.41-0.108 0.825-0.324 1.246-0.217 0.421-0.41 0.723-0.581 0.905-0.159 0.171-0.387 0.393-0.683 0.666-0.034 0.034-0.062 0.063-0.085 0.085-0.694 0.626-1.042 1.252-1.042 1.878v0.683z"
     style="fill-rule:nonzero;fill:#272c43"
     id="path12" />
  <path
     d="m27.659 30.978l-6.659-3.158v-1.161l6.659-3.159v1.435l-5.02 2.27v0.069l5.02 2.27v1.434z"
     style="fill-rule:nonzero;fill:#272c43"
     id="path14" />
  <defs
     id="defs21">
    <linearGradient
       id="_Linear1"
       x2="1"
       gradientTransform="matrix(0,-49.619,49.619,0,104.99,51.088)"
       gradientUnits="userSpaceOnUse">
      <stop
         style="stop-color:#58649a"
         offset="0"
         id="stop16" />
      <stop
         style="stop-color:#8e98c5"
         offset="1"
         id="stop18" />
    </linearGradient>
    <linearGradient
       inkscape:collect="always"
       xlink:href="#_Linear1"
       id="linearGradient4588"
       gradientUnits="userSpaceOnUse"
       gradientTransform="matrix(0,-49.619,49.619,0,104.99,51.088)"
       x2="1" />
  </defs>
</svg>
