<?xml version="1.0" encoding="UTF-8" standalone="no"?>
<svg
   style="clip-rule:evenodd;fill-rule:evenodd;stroke-linejoin:round;stroke-miterlimit:2"
   viewBox="0 0 64 64"
   version="1.1"
   id="svg13"
   sodipodi:docname="text-x-mo.svg"
   inkscape:version="1.1.2 (0a00cf5339, 2022-02-04)"
   xmlns:inkscape="http://www.inkscape.org/namespaces/inkscape"
   xmlns:sodipodi="http://sodipodi.sourceforge.net/DTD/sodipodi-0.dtd"
   xmlns:xlink="http://www.w3.org/1999/xlink"
   xmlns="http://www.w3.org/2000/svg"
   xmlns:svg="http://www.w3.org/2000/svg">
  <sodipodi:namedview
     id="namedview15"
     pagecolor="#ffffff"
     bordercolor="#666666"
     borderopacity="1.0"
     inkscape:pageshadow="2"
     inkscape:pageopacity="0.0"
     inkscape:pagecheckerboard="0"
     showgrid="false"
     inkscape:zoom="10.65625"
     inkscape:cx="32"
     inkscape:cy="32"
     inkscape:window-width="1896"
     inkscape:window-height="1022"
     inkscape:window-x="12"
     inkscape:window-y="46"
     inkscape:window-maximized="1"
     inkscape:current-layer="svg13" />
  <path
     id="path2"
     style="fill:url(#linearGradient4692)"
     d="M 17.617188 1.46875 C 15.597188 1.46875 13.659469 2.2712188 12.230469 3.6992188 C 10.802469 5.1282186 10 7.0678906 10 9.0878906 L 10 11.21875 L 10 54.382812 C 10 56.402814 10.802469 58.340531 12.230469 59.769531 C 13.659469 61.197531 15.597187 62 17.617188 62 L 46.382812 62 C 48.402814 62 50.340531 61.197531 51.769531 59.769531 C 53.197531 58.340531 54 56.402814 54 54.382812 L 54 11.21875 L 54 9.0878906 C 54 7.0678906 53.197531 5.1282186 51.769531 3.6992188 C 50.340531 2.2712188 48.402813 1.46875 46.382812 1.46875 L 36.691406 1.46875 L 27.308594 1.46875 L 17.617188 1.46875 z " />
  <path
     d="m 24.094,21.973842 c 0,0 -3.094,10e-4 -3.094,2.857 v 8.686 c 0,1.582 1.401,2.457 3.142,2.457 H 31 l 4,4 4,-4 h 0.858 c 0,0 3.142,0.399 3.142,-2.457 v -8.686 c 0,-2.856 -3.142,-2.857 -3.142,-2.857 z"
     style="fill:#bc71c5;fill-rule:nonzero"
     id="path4" />
  <defs
     id="defs11">
    <linearGradient
       id="_Linear1"
       x2="1"
       gradientTransform="matrix(0,-49.619,49.619,0,615.22,51.088)"
       gradientUnits="userSpaceOnUse">
      <stop
         style="stop-color:#d0d0d0"
         offset="0"
         id="stop6" />
      <stop
         style="stop-color:#f4f4f4"
         offset="1"
         id="stop8" />
    </linearGradient>
    <linearGradient
       inkscape:collect="always"
       xlink:href="#_Linear1"
       id="linearGradient4692"
       gradientUnits="userSpaceOnUse"
       gradientTransform="matrix(0,-49.619,49.619,0,615.22,51.088)"
       x2="1" />
  </defs>
  <path
     id="path2-3"
     style="clip-rule:evenodd;fill:#afafaf;fill-opacity:1;fill-rule:evenodd;stroke-linecap:round;stroke-linejoin:round;stroke-miterlimit:2"
     d="m 10.000004,50.982422 v 3.398437 0.002 c 6.5e-5,0.251841 0.01244,0.501552 0.03711,0.75 v 0.002 c 0.02473,0.248442 0.06268,0.494885 0.111328,0.738281 v 0.002 c 0.04871,0.243391 0.109702,0.484016 0.18164,0.720703 v 0.002 c 0.072,0.236684 0.155456,0.468944 0.25,0.697266 v 0.002 c 0.09461,0.228323 0.199936,0.453573 0.316406,0.671875 v 0.002 c 0.116532,0.218305 0.245102,0.430096 0.382814,0.636719 v 0.002 c 0.137775,0.206628 0.287037,0.406326 0.445311,0.599609 v 0.002 c 0.158341,0.193289 0.327703,0.378358 0.505861,0.55664 v 0.002 c 0.714498,0.714 1.557099,1.271274 2.472655,1.650391 C 15.618681,61.799106 16.607189,62 17.617187,62 h 28.765625 c 1.010002,0 1.998509,-0.200473 2.914063,-0.580078 0.915554,-0.379117 1.758155,-0.936391 2.472656,-1.650391 v -0.002 C 53.19753,58.338626 54,56.400859 54,54.380859 v -3.398437 z" />
</svg>
