<?xml version="1.0" encoding="UTF-8" standalone="no"?>
<svg
   style="clip-rule:evenodd;fill-rule:evenodd;stroke-linejoin:round;stroke-miterlimit:2"
   viewBox="0 0 64 64"
   version="1.1"
   id="svg25"
   sodipodi:docname="text-x-csharp.svg"
   inkscape:version="1.1.2 (0a00cf5339, 2022-02-04)"
   xmlns:inkscape="http://www.inkscape.org/namespaces/inkscape"
   xmlns:sodipodi="http://sodipodi.sourceforge.net/DTD/sodipodi-0.dtd"
   xmlns:xlink="http://www.w3.org/1999/xlink"
   xmlns="http://www.w3.org/2000/svg"
   xmlns:svg="http://www.w3.org/2000/svg">
  <sodipodi:namedview
     id="namedview27"
     pagecolor="#ffffff"
     bordercolor="#666666"
     borderopacity="1.0"
     inkscape:pageshadow="2"
     inkscape:pageopacity="0.0"
     inkscape:pagecheckerboard="0"
     showgrid="false"
     inkscape:zoom="10.65625"
     inkscape:cx="32"
     inkscape:cy="32"
     inkscape:window-width="1896"
     inkscape:window-height="1022"
     inkscape:window-x="12"
     inkscape:window-y="46"
     inkscape:window-maximized="1"
     inkscape:current-layer="svg25" />
  <path
     id="path2"
     style="fill:url(#linearGradient3654)"
     d="M 17.617188 1.46875 C 15.597188 1.46875 13.659469 2.2712188 12.230469 3.6992188 C 10.802469 5.1282186 10 7.0678906 10 9.0878906 L 10 14.005859 L 10 54.382812 C 10 56.402814 10.802469 58.340531 12.230469 59.769531 C 13.659469 61.197531 15.597187 62 17.617188 62 L 46.382812 62 C 48.402814 62 50.340531 61.197531 51.769531 59.769531 C 53.197531 58.340531 54 56.402814 54 54.382812 L 54 14.005859 L 54 9.0878906 C 54 7.0678906 53.197531 5.1282186 51.769531 3.6992188 C 50.340531 2.2712188 48.402813 1.46875 46.382812 1.46875 L 38.253906 1.46875 L 25.746094 1.46875 L 17.617188 1.46875 z " />
  <path
     id="path2-3"
     style="clip-rule:evenodd;fill:#5e4008;fill-opacity:1;fill-rule:evenodd;stroke-linecap:round;stroke-linejoin:round;stroke-miterlimit:2"
     d="m 10.000003,50.982422 v 3.398437 0.002 c 6.5e-5,0.251841 0.01244,0.501552 0.03711,0.75 v 0.002 c 0.02473,0.248442 0.06268,0.494885 0.111328,0.738281 v 0.002 c 0.04871,0.243391 0.109702,0.484016 0.18164,0.720703 v 0.002 c 0.072,0.236684 0.155456,0.468944 0.25,0.697266 v 0.002 c 0.09461,0.228323 0.199936,0.453573 0.316406,0.671875 v 0.002 c 0.116532,0.218305 0.245102,0.430096 0.382814,0.636719 v 0.002 c 0.137775,0.206628 0.287037,0.406326 0.445311,0.599609 v 0.002 c 0.158341,0.193289 0.327703,0.378358 0.505861,0.55664 v 0.002 c 0.714499,0.714 1.557099,1.271274 2.472656,1.650391 C 15.618682,61.799106 16.607188,62 17.617187,62 h 28.765625 c 1.010002,0 1.998509,-0.200473 2.914063,-0.580078 0.915554,-0.379117 1.758155,-0.936391 2.472656,-1.650391 v -0.002 C 53.19753,58.338626 54,56.400859 54,54.380859 v -3.398437 z" />
  <path
     d="m22.422 59.203c-0.601 0-1.095-0.202-1.483-0.607-0.388-0.409-0.582-0.92-0.582-1.532s0.194-1.12 0.582-1.524c0.388-0.41 0.882-0.615 1.483-0.615 0.448 0 0.82 0.109 1.115 0.328 0.295 0.218 0.511 0.494 0.647 0.827l-0.688 0.287c-0.208-0.502-0.582-0.754-1.123-0.754-0.333 0-0.628 0.137-0.885 0.41-0.251 0.273-0.377 0.62-0.377 1.041s0.126 0.768 0.377 1.041c0.257 0.273 0.552 0.409 0.885 0.409 0.563 0 0.951-0.251 1.164-0.754l0.672 0.287c-0.137 0.328-0.358 0.604-0.664 0.828-0.3 0.219-0.675 0.328-1.123 0.328z"
     style="fill-rule:nonzero;fill:#fff"
     id="path4" />
  <path
     d="m26.352 59.203c-0.448 0-0.82-0.109-1.115-0.328-0.289-0.218-0.502-0.492-0.639-0.819l0.672-0.279c0.213 0.503 0.576 0.754 1.09 0.754 0.235 0 0.426-0.052 0.574-0.156 0.153-0.104 0.229-0.24 0.229-0.41 0-0.262-0.183-0.439-0.549-0.532l-0.811-0.197c-0.257-0.066-0.5-0.189-0.73-0.369-0.229-0.186-0.344-0.434-0.344-0.746 0-0.355 0.156-0.642 0.467-0.86 0.317-0.224 0.691-0.336 1.123-0.336 0.355 0 0.672 0.082 0.951 0.246 0.278 0.158 0.478 0.388 0.598 0.688l-0.656 0.271c-0.147-0.356-0.453-0.533-0.917-0.533-0.225 0-0.413 0.046-0.566 0.139s-0.229 0.219-0.229 0.377c0 0.23 0.177 0.385 0.532 0.467l0.795 0.189c0.377 0.087 0.656 0.238 0.836 0.451s0.271 0.453 0.271 0.721c0 0.36-0.148 0.661-0.443 0.901-0.295 0.241-0.675 0.361-1.139 0.361z"
     style="fill-rule:nonzero;fill:#fff"
     id="path6" />
  <path
     d="m29.344 53.204v1.852l-0.033 0.557h0.033c0.109-0.191 0.281-0.352 0.516-0.483 0.235-0.137 0.486-0.205 0.754-0.205 0.497 0 0.877 0.153 1.139 0.459 0.263 0.306 0.394 0.716 0.394 1.229v2.459h-0.754v-2.344c0-0.743-0.331-1.115-0.992-1.115-0.311 0-0.565 0.126-0.762 0.377-0.197 0.246-0.295 0.533-0.295 0.861v2.221h-0.754v-5.868h0.754z"
     style="fill-rule:nonzero;fill:#fff"
     id="path8" />
  <path
     d="m34.262 59.203c-0.426 0-0.784-0.123-1.074-0.369-0.284-0.246-0.426-0.571-0.426-0.975 0-0.437 0.17-0.779 0.508-1.025 0.339-0.251 0.757-0.377 1.254-0.377 0.443 0 0.806 0.082 1.09 0.246v-0.114c0-0.296-0.101-0.53-0.303-0.705-0.202-0.181-0.451-0.271-0.746-0.271-0.218 0-0.418 0.052-0.598 0.156-0.175 0.104-0.295 0.246-0.361 0.426l-0.688-0.295c0.093-0.24 0.276-0.462 0.549-0.664 0.273-0.207 0.634-0.311 1.082-0.311 0.513 0 0.94 0.15 1.278 0.451 0.339 0.3 0.509 0.724 0.509 1.27v2.426h-0.722v-0.558h-0.032c-0.301 0.459-0.741 0.689-1.32 0.689zm0.123-0.689c0.311 0 0.593-0.114 0.844-0.344 0.257-0.235 0.385-0.511 0.385-0.827-0.213-0.175-0.532-0.263-0.959-0.263-0.366 0-0.642 0.079-0.827 0.238-0.186 0.158-0.279 0.344-0.279 0.557 0 0.197 0.085 0.353 0.254 0.467 0.169 0.115 0.363 0.172 0.582 0.172z"
     style="fill-rule:nonzero;fill:#fff"
     id="path10" />
  <path
     d="m37.94 59.072h-0.754v-4.016h0.721v0.656h0.033c0.076-0.219 0.232-0.399 0.467-0.541 0.24-0.142 0.472-0.213 0.696-0.213s0.413 0.032 0.566 0.098l-0.287 0.705c-0.098-0.038-0.232-0.058-0.402-0.058-0.273 0-0.516 0.11-0.729 0.328-0.208 0.213-0.311 0.495-0.311 0.844v2.197z"
     style="fill-rule:nonzero;fill:#fff"
     id="path12" />
  <path
     d="m42.253 59.203c-0.306 0-0.582-0.066-0.828-0.197-0.24-0.131-0.421-0.295-0.541-0.492h-0.033l0.033 0.558v1.77h-0.754v-5.786h0.721v0.557h0.033c0.12-0.196 0.301-0.36 0.541-0.491 0.246-0.132 0.522-0.197 0.828-0.197 0.519 0 0.967 0.205 1.344 0.615 0.377 0.409 0.565 0.917 0.565 1.524 0 0.606-0.188 1.114-0.565 1.524s-0.825 0.615-1.344 0.615zm-0.123-0.689c0.349 0 0.65-0.131 0.901-0.393 0.252-0.268 0.377-0.62 0.377-1.057s-0.125-0.787-0.377-1.049c-0.251-0.268-0.552-0.402-0.901-0.402-0.355 0-0.659 0.131-0.91 0.394-0.246 0.262-0.369 0.614-0.369 1.057 0 0.442 0.123 0.795 0.369 1.057 0.251 0.262 0.555 0.393 0.91 0.393z"
     style="fill-rule:nonzero;fill:#fff"
     id="path14" />
  <path
     d="m34.905 24.628h-4.355l-1.257 4.998h4.385l1.227-4.998zm-2.245-8.516l-1.557 6.211h4.37l1.572-6.211h2.394l-1.541 6.211h4.669v2.305h-5.253l-1.227 4.998h4.759v2.29h-5.343l-1.556 6.196h-2.395l1.542-6.196h-4.385l-1.542 6.196h-2.409l1.556-6.196h-4.714v-2.29h5.268l1.257-4.998h-4.819v-2.305h5.403l1.526-6.211h2.425z"
     style="fill-rule:nonzero;fill:#5e4008"
     id="path16" />
  <defs
     id="defs23">
    <linearGradient
       id="_Linear1"
       x2="1"
       gradientTransform="matrix(1.07196,-49.7469,49.7469,1.07196,251.234,55.94)"
       gradientUnits="userSpaceOnUse">
      <stop
         style="stop-color:#b87003"
         offset="0"
         id="stop18" />
      <stop
         style="stop-color:#cfa532"
         offset="1"
         id="stop20" />
    </linearGradient>
    <linearGradient
       inkscape:collect="always"
       xlink:href="#_Linear1"
       id="linearGradient3654"
       gradientUnits="userSpaceOnUse"
       gradientTransform="matrix(1.07196,-49.7469,49.7469,1.07196,251.234,55.94)"
       x2="1" />
  </defs>
</svg>
