<?xml version="1.0" encoding="UTF-8" standalone="no"?>
<svg
   width="100%"
   height="100%"
   viewBox="0 0 64 64"
   xml:space="preserve"
   style="fill-rule:evenodd;clip-rule:evenodd;stroke-linejoin:round;stroke-miterlimit:2;"
   version="1.1"
   id="svg23"
   sodipodi:docname="text-x-tex.svg"
   inkscape:version="1.1.2 (0a00cf5339, 2022-02-04)"
   xmlns:inkscape="http://www.inkscape.org/namespaces/inkscape"
   xmlns:sodipodi="http://sodipodi.sourceforge.net/DTD/sodipodi-0.dtd"
   xmlns:xlink="http://www.w3.org/1999/xlink"
   xmlns="http://www.w3.org/2000/svg"
   xmlns:svg="http://www.w3.org/2000/svg"><sodipodi:namedview
     id="namedview25"
     pagecolor="#ffffff"
     bordercolor="#666666"
     borderopacity="1.0"
     inkscape:pageshadow="2"
     inkscape:pageopacity="0.0"
     inkscape:pagecheckerboard="0"
     showgrid="false"
     inkscape:zoom="10.65625"
     inkscape:cx="32"
     inkscape:cy="32"
     inkscape:window-width="1896"
     inkscape:window-height="1022"
     inkscape:window-x="12"
     inkscape:window-y="46"
     inkscape:window-maximized="1"
     inkscape:current-layer="svg23" /><path
     id="path2"
     style="fill:url(#linearGradient4198)"
     d="M 17.617188 1.46875 C 15.597188 1.46875 13.659469 2.2712188 12.230469 3.6992188 C 10.802469 5.1282186 10 7.0678906 10 9.0878906 L 10 11.074219 L 10 54.382812 C 10 56.402814 10.802469 58.340531 12.230469 59.769531 C 13.659469 61.197531 15.597187 62 17.617188 62 L 46.382812 62 C 48.402814 62 50.340531 61.197531 51.769531 59.769531 C 53.197531 58.340531 54 56.402814 54 54.382812 L 54 11.074219 L 54 9.0878906 C 54 7.0678906 53.197531 5.1282186 51.769531 3.6992188 C 50.340531 2.2712188 48.402813 1.46875 46.382812 1.46875 L 38.019531 1.46875 L 25.980469 1.46875 L 17.617188 1.46875 z " /><path
     id="path2-3-3"
     style="clip-rule:evenodd;fill:#3d2248;fill-opacity:1;fill-rule:evenodd;stroke-linecap:round;stroke-linejoin:round;stroke-miterlimit:2"
     d="m 10.000002,50.982422 v 3.398437 0.002 c 6.5e-5,0.251841 0.01244,0.501552 0.03711,0.75 v 0.002 c 0.02473,0.248442 0.06268,0.494885 0.111329,0.738281 v 0.002 c 0.04871,0.243391 0.109702,0.484016 0.18164,0.720703 v 0.002 c 0.072,0.236684 0.155456,0.468944 0.25,0.697266 v 0.002 c 0.09461,0.228323 0.199936,0.453573 0.316406,0.671875 v 0.002 c 0.116531,0.218305 0.245101,0.430096 0.382813,0.636719 v 0.002 c 0.137776,0.206628 0.287038,0.406326 0.445312,0.599609 v 0.002 c 0.158341,0.193289 0.327702,0.378358 0.50586,0.55664 v 0.002 c 0.714499,0.714 1.5571,1.271274 2.472656,1.650391 C 15.618681,61.799106 16.607188,62 17.617187,62 h 28.765625 c 1.010002,0 1.998508,-0.200473 2.914063,-0.580078 0.915554,-0.379117 1.758155,-0.936391 2.472656,-1.650391 v -0.002 C 53.19753,58.338626 54,56.400859 54,54.380859 v -3.398437 z" /><g
     id="g14"><g
       id="g10"><path
         d="M28.547,59.205c-0.421,0 -0.743,-0.112 -0.967,-0.336c-0.219,-0.224 -0.328,-0.54 -0.328,-0.95l0,-2.106l-0.705,0l0,-0.689l0.705,0l0,-1.229l0.754,0l0,1.229l0.983,0l0,0.689l-0.983,0l0,2.048c0,0.437 0.18,0.656 0.541,0.656c0.136,0 0.251,-0.022 0.344,-0.066l0.262,0.648c-0.164,0.071 -0.366,0.106 -0.606,0.106Z"
         style="fill:#fff;fill-rule:nonzero;"
         id="path4" /><path
         d="M31.478,59.271c-0.607,0 -1.101,-0.202 -1.484,-0.606c-0.377,-0.405 -0.565,-0.916 -0.565,-1.533c0,-0.585 0.183,-1.087 0.549,-1.508c0.372,-0.421 0.844,-0.631 1.418,-0.631c0.595,0 1.071,0.194 1.426,0.582c0.361,0.388 0.541,0.907 0.541,1.557l-0.008,0.139l-3.172,0c0.022,0.405 0.156,0.724 0.402,0.959c0.251,0.235 0.543,0.353 0.876,0.353c0.541,0 0.907,-0.23 1.099,-0.689l0.672,0.279c-0.131,0.311 -0.347,0.573 -0.648,0.787c-0.3,0.207 -0.669,0.311 -1.106,0.311Zm1.082,-2.623c-0.017,-0.229 -0.123,-0.448 -0.32,-0.655c-0.191,-0.208 -0.478,-0.312 -0.86,-0.312c-0.279,0 -0.522,0.088 -0.73,0.263c-0.202,0.174 -0.341,0.409 -0.418,0.704l2.328,0Z"
         style="fill:#fff;fill-rule:nonzero;"
         id="path6" /><path
         d="M37.308,59.14l-0.885,0l-0.992,-1.484l-0.975,1.484l-0.885,0l1.418,-2.041l-1.385,-1.975l0.852,0l0.992,1.418l0.942,-1.418l0.885,0l-1.401,1.975l1.434,2.041Z"
         style="fill:#fff;fill-rule:nonzero;"
         id="path8" /></g><path
       d="M21.6,16l0,2.87l21.043,0l0,-0.957l0,-0.956l0,-0.957l-21.043,0Zm8.101,4.783l0.029,0.837l5.74,7.771l-6.218,7.652l0,0.957l13.391,0l0,-4.783l-0.956,0c0,0.957 0.248,1.55 -0.568,2.123c-0.895,0.628 -2.073,0.747 -3.109,0.747l-4.932,0l4.783,-6.696l-4.783,-7.652l2.81,0c1.994,0 4.831,-0.184 5.62,2.212c0.134,0.41 0.145,1.184 0.179,1.614l0.956,0l0,-4.782l-12.942,0l0,0Zm-8.101,0.956l0,0.957l6.696,0l0,-0.957l-6.696,0Zm0,2.87l0,0.956l8.609,0l0,-0.956l-8.609,0Zm0,2.869l0,0.957l10.522,0l0,-0.957l-10.522,0Zm0,2.87l0,0.956l10.522,0l0,-0.956l-10.522,0Zm0,2.869l0,0.957l8.609,0l0,-0.957l-8.609,0Zm0,2.87l0,0.956l5.739,0l0,-0.956l-5.739,0Z"
       style="fill:#3d2248;fill-rule:nonzero;"
       id="path12" /></g><defs
     id="defs21"><linearGradient
       id="_Linear1"
       x1="0"
       y1="0"
       x2="1"
       y2="0"
       gradientUnits="userSpaceOnUse"
       gradientTransform="matrix(1.07196,-49.7469,49.7469,1.07196,178.156,54.3653)"><stop
         offset="0"
         style="stop-color:#773893;stop-opacity:1"
         id="stop16" /><stop
         offset="1"
         style="stop-color:#bd6cdf;stop-opacity:1"
         id="stop18" /></linearGradient><linearGradient
       inkscape:collect="always"
       xlink:href="#_Linear1"
       id="linearGradient4198"
       gradientUnits="userSpaceOnUse"
       gradientTransform="matrix(1.07196,-49.7469,49.7469,1.07196,178.156,54.3653)"
       x1="0"
       y1="0"
       x2="1"
       y2="0" /></defs></svg>
