<?xml version="1.0" encoding="UTF-8" standalone="no"?>
<svg
   style="clip-rule:evenodd;fill-rule:evenodd;stroke-linejoin:round;stroke-miterlimit:2"
   viewBox="0 0 64 64"
   version="1.1"
   id="svg21"
   sodipodi:docname="application-x-virtualbox-vbox.svg"
   inkscape:version="1.1.2 (0a00cf5339, 2022-02-04)"
   xmlns:inkscape="http://www.inkscape.org/namespaces/inkscape"
   xmlns:sodipodi="http://sodipodi.sourceforge.net/DTD/sodipodi-0.dtd"
   xmlns:xlink="http://www.w3.org/1999/xlink"
   xmlns="http://www.w3.org/2000/svg"
   xmlns:svg="http://www.w3.org/2000/svg">
  <sodipodi:namedview
     id="namedview23"
     pagecolor="#ffffff"
     bordercolor="#666666"
     borderopacity="1.0"
     inkscape:pageshadow="2"
     inkscape:pageopacity="0.0"
     inkscape:pagecheckerboard="0"
     showgrid="false"
     inkscape:zoom="10.65625"
     inkscape:cx="32"
     inkscape:cy="32"
     inkscape:window-width="1896"
     inkscape:window-height="1022"
     inkscape:window-x="12"
     inkscape:window-y="46"
     inkscape:window-maximized="1"
     inkscape:current-layer="svg21" />
  <path
     id="path2"
     style="fill:url(#linearGradient3104)"
     d="M 17.617188 1.46875 C 15.597188 1.46875 13.659469 2.2712188 12.230469 3.6992188 C 10.802469 5.1282186 10 7.0678906 10 9.0878906 L 10 12.162109 L 10 54.382812 C 10 56.402814 10.802469 58.340531 12.230469 59.769531 C 13.659469 61.197531 15.597187 62 17.617188 62 L 46.382812 62 C 48.402814 62 50.340531 61.197531 51.769531 59.769531 C 53.197531 58.340531 54 56.402814 54 54.382812 L 54 12.162109 L 54 9.0878906 C 54 7.0678906 53.197531 5.1282186 51.769531 3.6992188 C 50.340531 2.2712188 48.402813 1.46875 46.382812 1.46875 L 36.943359 1.46875 L 27.056641 1.46875 L 17.617188 1.46875 z " />
  <path
     id="path914"
     style="clip-rule:evenodd;fill:#046d88;fill-opacity:1;fill-rule:evenodd;stroke-width:1;stroke-linecap:round;stroke-linejoin:round;stroke-miterlimit:2"
     d="m 9.9999998,50.982422 v 3.40039 c 0,2.020002 0.8024672,3.957719 2.2304692,5.386719 C 13.659467,61.197531 15.597183,62 17.617187,62 h 28.765625 c 2.020002,0 3.957718,-0.802469 5.386719,-2.230469 C 53.19753,58.340531 54,56.402814 54,54.382812 v -3.40039 z" />
  <path
     d="m25.911 57.485l0.982-3.043h0.692l-1.421 3.962h-0.516l-1.436-3.962h0.692l1.007 3.043z"
     style="fill-rule:nonzero;fill:#fff"
     id="path4" />
  <path
     d="m31.591 56.467c0 0.605-0.139 1.092-0.417 1.461-0.279 0.366-0.652 0.549-1.121 0.549-0.5 0-0.887-0.177-1.161-0.531l-0.033 0.458h-0.622v-5.625h0.677v2.098c0.274-0.339 0.651-0.509 1.132-0.509s0.858 0.182 1.131 0.546c0.276 0.364 0.414 0.862 0.414 1.494v0.059zm-0.677-0.077c0-0.462-0.089-0.818-0.268-1.069-0.178-0.252-0.434-0.378-0.769-0.378-0.446 0-0.767 0.208-0.963 0.623v1.714c0.208 0.415 0.531 0.622 0.971 0.622 0.324 0 0.577-0.125 0.758-0.377 0.18-0.251 0.271-0.63 0.271-1.135z"
     style="fill-rule:nonzero;fill:#fff"
     id="path6" />
  <path
     d="m32.261 56.386c0-0.388 0.076-0.737 0.227-1.047 0.154-0.31 0.367-0.549 0.638-0.718 0.273-0.168 0.584-0.253 0.933-0.253 0.54 0 0.976 0.187 1.308 0.561 0.334 0.373 0.502 0.87 0.502 1.49v0.048c0 0.386-0.075 0.732-0.224 1.04-0.146 0.305-0.358 0.543-0.633 0.714-0.274 0.171-0.589 0.256-0.945 0.256-0.537 0-0.973-0.187-1.308-0.56-0.332-0.374-0.498-0.868-0.498-1.483v-0.048zm0.682 0.081c0 0.439 0.101 0.792 0.303 1.058 0.206 0.266 0.479 0.399 0.821 0.399 0.344 0 0.617-0.134 0.82-0.403 0.203-0.271 0.304-0.649 0.304-1.135 0-0.434-0.104-0.786-0.311-1.054-0.205-0.271-0.479-0.407-0.821-0.407-0.334 0-0.604 0.133-0.809 0.399s-0.307 0.647-0.307 1.143z"
     style="fill-rule:nonzero;fill:#fff"
     id="path8" />
  <path
     d="m37.974 55.888l0.879-1.446h0.791l-1.296 1.959 1.336 2.003h-0.783l-0.916-1.483-0.915 1.483h-0.788l1.337-2.003-1.296-1.959h0.783l0.868 1.446z"
     style="fill-rule:nonzero;fill:#fff"
     id="path10" />
  <path
     d="m32.65 39l9.565-5.406-0.065-10.169-9.5 5.205v10.37zm-1.05-0.046l-9.6-5.425 0.065-10.207 9.535 5.225v10.407zm0.66-21.954l-9.746 5.427 9.693 5.323 9.712-5.321-9.659-5.429zm2.905 6.689c0.056-4e-3 0.113 9e-3 0.16 0.037l0.569 0.344c0.093 0.056 0.108 0.157 0.032 0.222-0.076 0.066-0.214 0.074-0.307 0.017l-0.57-0.344c-0.092-0.056-0.107-0.157-0.031-0.222 0.038-0.033 0.091-0.051 0.147-0.054zm-1.118-0.676c0.055-4e-3 0.113 8e-3 0.159 0.037l0.536 0.324c0.093 0.056 0.107 0.156 0.031 0.222-0.076 0.065-0.214 0.072-0.307 0.016l-0.535-0.323c-0.093-0.057-0.107-0.157-0.031-0.222 0.038-0.033 0.091-0.051 0.147-0.054zm-5.503-3.416c0.056-3e-3 0.113 9e-3 0.16 0.037l1.406 0.851c0.078 0.046 0.103 0.125 0.06 0.189l-0.425 0.646 1.36-0.392c0.082-0.025 0.179-0.01 0.24 0.038 0.062 0.046 0.08 0.115 0.046 0.174l-0.814 1.338 3.573-2.474c0.077-0.054 0.2-0.057 0.287-6e-3 0.088 0.063 0.108 0.14 0.051 0.207l-1.699 1.987 0.889 0.538c0.093 0.057 0.107 0.156 0.031 0.221-0.076 0.066-0.213 0.074-0.307 0.017l-1.037-0.626c-0.084-0.051-0.105-0.138-0.047-0.204l0.886-1.038-3.122 2.163c-0.074 0.05-0.19 0.056-0.276 0.011-5e-3 -2e-3 -0.01-4e-3 -0.015-7e-3 -0.075-0.046-0.101-0.121-0.061-0.185l1.043-1.717-1.381 0.4c-0.084 0.024-0.183 0.01-0.243-0.039-0.063-0.049-0.079-0.119-0.041-0.177l0.595-0.906-1.274-0.77c-0.094-0.057-0.108-0.156-0.032-0.221 0.038-0.033 0.092-0.052 0.147-0.055z"
     style="fill:#046d88"
     id="path12" />
  <defs
     id="defs19">
    <linearGradient
       id="_Linear1"
       x2="1"
       gradientTransform="matrix(1.07196,-49.7469,49.7469,1.07196,178.156,54.3653)"
       gradientUnits="userSpaceOnUse">
      <stop
         style="stop-color:#1698b9"
         offset="0"
         id="stop14" />
      <stop
         style="stop-color:#4fdcff"
         offset="1"
         id="stop16" />
    </linearGradient>
    <linearGradient
       inkscape:collect="always"
       xlink:href="#_Linear1"
       id="linearGradient3104"
       gradientUnits="userSpaceOnUse"
       gradientTransform="matrix(1.07196,-49.7469,49.7469,1.07196,178.156,54.3653)"
       x2="1" />
  </defs>
</svg>
