<?xml version="1.0" encoding="UTF-8" standalone="no"?>
<svg
   clip-rule="evenodd"
   fill-rule="evenodd"
   stroke-linejoin="round"
   stroke-miterlimit="2"
   viewBox="0 0 48 48"
   version="1.1"
   id="svg17"
   sodipodi:docname="x-content-software.svg"
   inkscape:version="1.1.2 (0a00cf5339, 2022-02-04)"
   xmlns:inkscape="http://www.inkscape.org/namespaces/inkscape"
   xmlns:sodipodi="http://sodipodi.sourceforge.net/DTD/sodipodi-0.dtd"
   xmlns:xlink="http://www.w3.org/1999/xlink"
   xmlns="http://www.w3.org/2000/svg"
   xmlns:svg="http://www.w3.org/2000/svg">
  <defs
     id="defs21">
    <linearGradient
       inkscape:collect="always"
       xlink:href="#a"
       id="linearGradient4635"
       gradientUnits="userSpaceOnUse"
       gradientTransform="matrix(0,-37.21425,37.21425,0,133.41,38.316)"
       x2="1" />
  </defs>
  <sodipodi:namedview
     id="namedview19"
     pagecolor="#ffffff"
     bordercolor="#666666"
     borderopacity="1.0"
     inkscape:pageshadow="2"
     inkscape:pageopacity="0.0"
     inkscape:pagecheckerboard="0"
     showgrid="false"
     inkscape:zoom="14.208333"
     inkscape:cx="24"
     inkscape:cy="18.369501"
     inkscape:window-width="1896"
     inkscape:window-height="1022"
     inkscape:window-x="12"
     inkscape:window-y="46"
     inkscape:window-maximized="1"
     inkscape:current-layer="svg17" />
  <linearGradient
     id="a"
     x2="1"
     gradientTransform="matrix(0,-37.21425,37.21425,0,133.41,38.316)"
     gradientUnits="userSpaceOnUse">
    <stop
       stop-color="#758b9a"
       offset="0"
       id="stop2" />
    <stop
       stop-color="#b5bdc2"
       offset="1"
       id="stop4" />
  </linearGradient>
  <path
     id="path7"
     style="stroke-width:0.75;fill:url(#linearGradient4635)"
     d="M 13.212891 1.1015625 C 11.697891 1.1015625 10.245578 1.7043906 9.1738281 2.7753906 C 8.1028281 3.8471406 7.5 5.2994531 7.5 6.8144531 L 7.5 10.199219 L 7.5 40.787109 C 7.5 42.302109 8.1028281 43.754422 9.1738281 44.826172 C 10.245578 45.897172 11.697891 46.5 13.212891 46.5 L 34.787109 46.5 C 36.302109 46.5 37.754422 45.897172 38.826172 44.826172 C 39.897172 43.754422 40.5 42.302109 40.5 40.787109 L 40.5 10.199219 L 40.5 6.8144531 C 40.5 5.2994531 39.897172 3.8471406 38.826172 2.7753906 C 37.754422 1.7043906 36.302109 1.1015625 34.787109 1.1015625 L 28.791016 1.1015625 L 19.208984 1.1015625 L 13.212891 1.1015625 z " />
  <path
     d="m 10.32248,20.745861 v 1.31874 h 15.82488 v -1.31874 z m 0,2.63748 v 1.31874 h 13.1874 v -1.31874 z m 0,2.63748 v 1.31874 h 15.82488 v -1.31874 z m 0,2.63748 v 1.31874 H 20.8724 v -1.31874 z"
     fill-opacity="0.15"
     fill-rule="nonzero"
     id="path9"
     style="stroke-width:1.31874;fill:#56646d;fill-opacity:1" />
  <path
     d="m 22.94272,17.688611 h -0.17299 c -0.163485,0 -0.294019,-0.133703 -0.294019,-0.296554 v -0.497425 c -0.701464,-0.176792 -0.902335,-0.593108 -0.902335,-1.448551 0,-1.262255 1.024632,-2.28752 2.28752,-2.28752 1.261621,0 2.286252,1.025265 2.286252,2.28752 0,0.84277 -0.213544,1.257819 -0.900433,1.440313 v 0.503762 c 0,0.164118 -0.132436,0.296554 -0.29592,0.296554 h -0.171723 c -0.162851,0 -0.29592,-0.132436 -0.29592,-0.296554 v -0.396039 c -0.07731,0.0057 -0.156515,0.0082 -0.240158,0.01141 v 0.386534 c 0,0.162217 -0.132435,0.294653 -0.29592,0.294653 h -0.171722 c -0.163485,0 -0.295921,-0.132436 -0.295921,-0.294653 V 17.00679 c -0.08364,-0.0025 -0.164752,-0.0051 -0.242058,-0.0095 v 0.394772 c 0,0.162851 -0.132436,0.296554 -0.294653,0.296554 z M 22.9123,14.515865 c 0.388435,0.151445 0.702731,0.304158 0.702731,0.68182 0,0.374494 -0.254098,0.446732 -0.702731,0.679286 -0.344079,0.178693 -0.702731,-0.304792 -0.702731,-0.679286 0,-0.377662 0.34091,-0.822493 0.702731,-0.68182 z m 1.887045,0 c 0.373227,-0.106455 0.701464,0.304158 0.701464,0.68182 0,0.374494 -0.368157,0.877622 -0.701464,0.679286 -0.409345,-0.242693 -0.702731,-0.304792 -0.702731,-0.679286 0,-0.377662 0.273742,-0.560157 0.702731,-0.68182 z"
     id="path11"
     style="fill:#ededed;stroke-width:0.633662" />
  <path
     id="path13"
     style="fill:#ededed;stroke-width:0.75"
     d="m 22.498047,1.10175 v 0.7890625 h 1.5 V 1.10175 Z m 1.5,0.7890625 v 1.5 h 1.5 v -1.5 z m 0,1.5 h -1.5 v 1.5 h 1.5 z m 0,1.5 v 1.5 h 1.5 v -1.5 z m 0,1.5 h -1.5 v 1.5 h 1.5 z m 0,1.5 v 1.5 h 1.5 v -1.5 z m 0,1.5 h -1.5 v 1.4999995 h 1.5 z m 0,1.4999995 v 1.5 h 1.5 v -1.5 z" />
  <path
     id="path1057"
     style="fill:#56646d;fill-opacity:1"
     d="m 7.499863,38.667977 v 2.11914 c 0,1.515 0.602827,2.967063 1.673827,4.039063 0.804,0.80325 1.82214,1.342751 2.919922,1.5625 0,0 0.002,0 0.002,0 0.182349,0.03644 0.366588,0.06547 0.552735,0.08398 0,0 0.002,0 0.002,0 0.186153,0.01845 0.373779,0.02734 0.5625,0.02734 h 0.002 21.570309 c 0.568124,0 1.128063,-0.0856 1.66211,-0.248047 0.8895,-0.27074 1.708905,-0.756406 2.378906,-1.425781 C 39.897171,43.754172 40.5,42.302109 40.5,40.787109 v -2.11914 z" />
</svg>
